<svg width="33" height="33" viewBox="0 0 33 33" fill="none" xmlns="http://www.w3.org/2000/svg">
<path d="M16.8135 0.820847C13.6503 0.820847 10.5583 1.7588 7.92829 3.51614C5.29829 5.27348 3.24842 7.77122 2.03796 10.6935C0.82751 13.6159 0.510782 16.8315 1.12783 19.9338C1.74495 23.0361 3.2681 25.8858 5.50481 28.1224C7.74145 30.3591 10.5911 31.8823 13.6934 32.4994C16.7957 33.1164 20.0113 32.7997 22.9337 31.5892C25.856 30.3788 28.3537 28.3289 30.1111 25.6989C31.8684 23.0689 32.8064 19.9769 32.8064 16.8138C32.8014 12.5737 31.1149 8.50871 28.1167 5.51052C25.1185 2.51234 21.0535 0.825783 16.8135 0.820847ZM26.0454 11.7494L16.9228 24.1292C16.8151 24.2721 16.68 24.3921 16.5254 24.4822C16.3708 24.5723 16.1998 24.6307 16.0224 24.6541C15.845 24.6774 15.6647 24.6652 15.492 24.6181C15.3194 24.5709 15.1579 24.4899 15.0169 24.3797L8.50251 19.1714C8.3658 19.062 8.25197 18.9268 8.16756 18.7734C8.08314 18.62 8.02974 18.4515 8.01048 18.2775C7.97147 17.9261 8.07369 17.5736 8.2946 17.2975C8.51551 17.0215 8.83704 16.8445 9.18846 16.8055C9.36244 16.7862 9.53857 16.8014 9.7067 16.8501C9.87484 16.8989 10.0317 16.9802 10.1684 17.0896L15.6006 21.4357L23.8996 10.1727C23.9996 10.0227 24.1288 9.89466 24.2796 9.79613C24.4305 9.69753 24.5997 9.63057 24.7771 9.59928C24.9545 9.56799 25.1364 9.573 25.3119 9.61395C25.4874 9.65498 25.6527 9.73112 25.7979 9.83779C25.943 9.94445 26.0651 10.0795 26.1566 10.2346C26.2482 10.3898 26.3073 10.5619 26.3304 10.7406C26.3536 10.9193 26.3402 11.1008 26.2912 11.2742C26.2423 11.4476 26.1586 11.6092 26.0454 11.7494Z" fill="#B476E5"/>
</svg>
