<svg width="73" height="60" viewBox="0 0 73 60" fill="none" xmlns="http://www.w3.org/2000/svg">
<path d="M68.6669 18.5145C68.7452 14.9638 68.921 11.4148 69.1204 7.86913C69.137 7.57352 69.0353 5.34485 69.4152 4.72912C69.6826 4.29551 70.0146 3.78716 70.1635 3.29696C70.2935 2.86874 70.8129 2.60909 70.9798 2.18647C71.2465 1.51083 68.7897 2.87611 68.561 3.04423C67.0997 4.11892 65.6377 5.1612 64.1619 6.19956C62.6578 7.25793 60.8338 8.51611 59.0675 9.07152C57.6043 9.53161 55.4816 10.0932 54.3811 11.2083C53.1944 12.4107 55.993 12.777 56.6185 12.9927C59.635 14.0332 62.5839 15.2374 65.6283 16.217C66.857 16.6123 68.4147 16.6048 69.3471 17.5495" stroke="#B476E5" stroke-width="3" stroke-linecap="round"/>
<path d="M63.0884 15.6197C62.8645 16.6783 61.9855 17.6236 61.8714 18.7214C61.7633 19.7621 61.4472 20.8529 61.2516 21.9227C61.1287 22.5954 61.2826 23.3523 60.9039 23.9598C60.6333 24.3941 60.7648 24.7617 60.5714 25.1929C60.1713 26.0847 59.7882 26.9905 59.2713 27.8198C57.8685 30.0703 56.3669 32.2455 54.9251 34.4368C54.1644 35.593 53.2547 36.6003 52.4686 37.7453C51.9811 38.4552 51.5834 39.2701 50.9795 39.882C50.4776 40.3905 49.9106 40.79 49.362 41.2452C48.4477 42.004 47.5083 43.0372 46.4897 43.6347C46.1636 43.826 45.976 44.2144 45.6432 44.4312C45.1235 44.7696 44.722 45.2067 44.2222 45.5646C43.0519 46.4029 41.6204 46.8586 40.2615 47.2648C38.4317 47.8119 36.7953 48.5102 34.8344 48.674C32.9993 48.8274 30.6682 48.8387 29.105 47.8009C28.4017 47.3341 27.6871 47.0728 27.0037 46.6368C26.2851 46.1784 25.1998 45.8467 24.585 45.2583C24.0181 44.7158 23.4725 44.0276 23.0581 43.359C21.9631 41.5919 21.8639 39.5256 21.8639 37.4695C21.8639 36.2837 22.5181 35.679 23.7006 35.4707C25.1999 35.2065 27.2968 34.5688 28.6288 35.6009C29.5083 36.2823 29.4829 37.6165 29.4829 38.6413C29.4829 40.3772 28.6392 41.3244 27.8427 42.7769C27.2059 43.9384 25.9197 44.6066 25.0687 45.5264C24.1834 46.4832 23.0092 47.4255 21.9319 48.1532C21.1141 48.7057 20.3789 49.1689 19.7928 49.9453C19.1788 50.7589 18.234 51.3245 17.4043 51.8753C15.7179 52.9948 14.0525 54.0332 12.3098 55.0766C10.5705 56.118 8.70938 57.1701 6.76185 57.803C6.0753 58.0262 4.78116 58.1024 4.11635 57.803C3.43924 57.4981 2.64396 57.6866 1.99995 57.2516" stroke="#B476E5" stroke-width="3" stroke-linecap="round"/>
</svg>
