<svg width="127" height="65" viewBox="0 0 127 65" fill="none" xmlns="http://www.w3.org/2000/svg">
<path d="M5 5H117.5C121.918 5 125.5 8.58172 125.5 13V52C125.5 56.4183 121.918 60 117.5 60H5" stroke="url(#paint0_linear_302_13671)" stroke-width="2" stroke-linecap="round"/>
<path d="M5.31243 55.5069C5.37686 55.3328 5.62314 55.3328 5.68757 55.5069L6.43556 57.5283C6.6989 58.24 7.26001 58.8011 7.97168 59.0644L9.9931 59.8124C10.1672 59.8769 10.1672 60.1231 9.9931 60.1876L7.97168 60.9356C7.26001 61.1989 6.6989 61.76 6.43556 62.4717L5.68757 64.4931C5.62314 64.6672 5.37686 64.6672 5.31243 64.4931L4.56444 62.4717C4.3011 61.76 3.73999 61.1989 3.02832 60.9356L1.0069 60.1876C0.832778 60.1231 0.832778 59.8769 1.0069 59.8124L3.02832 59.0644C3.73999 58.8011 4.3011 58.24 4.56444 57.5283L5.31243 55.5069Z" fill="#47BDFF"/>
<path d="M5.31243 0.506901C5.37686 0.332778 5.62314 0.332778 5.68757 0.506901L6.43556 2.52832C6.6989 3.23999 7.26001 3.8011 7.97168 4.06444L9.9931 4.81243C10.1672 4.87686 10.1672 5.12314 9.9931 5.18757L7.97168 5.93556C7.26001 6.1989 6.6989 6.76001 6.43556 7.47168L5.68757 9.4931C5.62314 9.66722 5.37686 9.66722 5.31243 9.4931L4.56444 7.47168C4.3011 6.76001 3.73999 6.1989 3.02832 5.93556L1.0069 5.18757C0.832778 5.12314 0.832778 4.87686 1.0069 4.81243L3.02832 4.06444C3.73999 3.8011 4.3011 3.23999 4.56444 2.52832L5.31243 0.506901Z" fill="#47BDFF"/>
<defs>
<linearGradient id="paint0_linear_302_13671" x1="16.9995" y1="38.0236" x2="47.3454" y2="38.613" gradientUnits="userSpaceOnUse">
<stop stop-color="#47BDFF" stop-opacity="0"/>
<stop offset="1" stop-color="#47BDFF"/>
</linearGradient>
</defs>
</svg>
