<svg width="607" height="205" viewBox="0 0 607 205" fill="none" xmlns="http://www.w3.org/2000/svg">
<path opacity="0.1" d="M1 139.317C46.6127 166.26 151.918 219.325 280.302 199.701C385.258 183.65 509.314 118.46 503.904 66.8892C499.697 27.17 417.135 -19.4027 355.22 10.5423C304.837 34.9079 283.043 102.734 301.439 143.192C332.548 211.494 488.556 224.172 557.51 156.235C573.62 140.364 582.184 122.846 586.78 111.146" stroke="url(#paint0_linear_311_20082)" stroke-width="1.8" stroke-miterlimit="10" stroke-linecap="round" stroke-dasharray="10 10"/>
<path d="M583.545 97.88C583.725 96.7566 584.032 95.6572 584.459 94.6028C586.659 89.1578 591.645 85.7599 596.785 85.6628C600.414 89.3027 601.641 95.211 599.441 100.656C599.004 101.737 598.458 102.737 597.821 103.648L599.207 106.443C599.266 106.564 599.282 106.701 599.251 106.832C599.22 106.962 599.145 107.078 599.038 107.159L594.636 110.48C594.566 110.533 594.485 110.569 594.399 110.586C594.313 110.602 594.225 110.599 594.14 110.576C594.055 110.554 593.977 110.512 593.911 110.455C593.845 110.397 593.792 110.325 593.758 110.245L592.321 106.858C592.201 106.576 591.974 106.353 591.691 106.239L586.156 104.002C585.872 103.888 585.554 103.891 585.272 104.01L581.886 105.448C581.805 105.482 581.718 105.498 581.63 105.493C581.543 105.488 581.457 105.464 581.381 105.421C581.304 105.379 581.238 105.319 581.188 105.248C581.137 105.176 581.104 105.094 581.09 105.007L580.23 99.5619C580.21 99.429 580.236 99.293 580.305 99.1773C580.373 99.0617 580.48 98.9737 580.607 98.9286L583.545 97.88ZM591.95 97.6294C592.517 97.8587 593.153 97.8532 593.716 97.614C594.28 97.3748 594.726 96.9215 594.955 96.3538C595.184 95.7862 595.179 95.1506 594.939 94.5871C594.7 94.0235 594.247 93.5781 593.679 93.3487C593.112 93.1194 592.476 93.1249 591.913 93.3641C591.349 93.6034 590.904 94.0567 590.674 94.6243C590.445 95.192 590.45 95.8275 590.69 96.391C590.929 96.9546 591.382 97.4 591.95 97.6294Z" fill="#47BDFF"/>
<path d="M591.95 97.6293C592.518 97.8586 593.153 97.8531 593.717 97.6139C594.28 97.3747 594.726 96.9214 594.955 96.3537C595.184 95.7861 595.179 95.1506 594.94 94.587C594.7 94.0234 594.247 93.578 593.679 93.3486C593.112 93.1193 592.476 93.1248 591.913 93.3641C591.349 93.6033 590.904 94.0566 590.674 94.6242C590.445 95.1919 590.451 95.8274 590.69 96.3909C590.929 96.9545 591.382 97.4 591.95 97.6293Z" fill="white"/>
<defs>
<linearGradient id="paint0_linear_311_20082" x1="6.14487" y1="173.422" x2="576.988" y2="74.3984" gradientUnits="userSpaceOnUse">
<stop stop-color="white" stop-opacity="0"/>
<stop offset="1" stop-color="white"/>
</linearGradient>
</defs>
</svg>
