<svg width="41" height="27" viewBox="0 0 41 27" fill="none" xmlns="http://www.w3.org/2000/svg">
<path d="M33.7656 25.9471C33.7656 26.1703 33.8543 26.3845 34.0121 26.5423C34.17 26.7002 34.3841 26.7889 34.6073 26.7889H39.3563C39.4941 26.7887 39.6298 26.7548 39.7515 26.6899C39.8732 26.6251 39.9771 26.5315 40.054 26.4171C40.131 26.3027 40.1787 26.1712 40.1929 26.034C40.2072 25.8969 40.1875 25.7584 40.1357 25.6306C39.6362 24.3823 38.8099 23.2914 37.7436 22.4724C36.6773 21.6535 35.4102 21.1366 34.0753 20.976C33.9358 20.9591 33.7941 20.9775 33.6634 21.0295C33.5327 21.0815 33.4171 21.1654 33.3272 21.2736C33.2374 21.3817 33.176 21.5107 33.1487 21.6487C33.1215 21.7867 33.1293 21.9292 33.1714 22.0635C33.5653 23.3204 33.7657 24.6299 33.7656 25.9471Z" fill="#47BDFF"/>
<path d="M8.29105 21.9899C8.33158 21.8638 8.3418 21.7299 8.3208 21.5991C8.29987 21.4683 8.24828 21.3443 8.17037 21.2372C8.09246 21.1301 7.9904 21.0428 7.87238 20.9826C7.75443 20.9224 7.62388 20.8909 7.49144 20.8907H7.47121C5.9632 20.8914 4.48991 21.3432 3.24076 22.188C1.99161 23.0327 1.02365 24.2318 0.461484 25.6311C0.409894 25.7589 0.390573 25.8974 0.405063 26.0345C0.419553 26.1715 0.467434 26.3028 0.544574 26.417C0.621714 26.5313 0.725664 26.6247 0.847394 26.6894C0.969054 26.754 1.10478 26.7877 1.24254 26.7877H6.83155C7.05478 26.7877 7.26884 26.699 7.42669 26.5411C7.58454 26.3833 7.67323 26.1691 7.67323 25.9459C7.6726 24.6032 7.88106 23.2686 8.29105 21.9899Z" fill="#47BDFF"/>
<path d="M16.6457 15.523C16.7113 15.5632 16.7645 15.6205 16.7997 15.6888C16.835 15.7571 16.8509 15.8337 16.8457 15.9103C16.8405 15.987 16.8144 16.0608 16.7703 16.1237C16.7261 16.1865 16.6655 16.2362 16.5952 16.2671C14.6983 17.077 13.081 18.4261 11.9438 20.1468C10.8066 21.8675 10.1996 23.8842 10.1982 25.9468C10.1982 26.17 10.2869 26.3841 10.4448 26.5419C10.6026 26.6998 10.8167 26.7885 11.0399 26.7885H30.3993C30.6225 26.7885 30.8366 26.6998 30.9945 26.5419C31.1523 26.3841 31.241 26.17 31.241 25.9468C31.2375 23.8811 30.6266 21.8621 29.4844 20.141C28.3422 18.42 26.7191 17.0727 24.817 16.2671C24.7459 16.2362 24.6847 16.1864 24.64 16.1231C24.5953 16.0597 24.5689 15.9853 24.5637 15.9079C24.5585 15.8306 24.5746 15.7532 24.6104 15.6845C24.6462 15.6157 24.7002 15.5581 24.7666 15.518C26.268 14.6262 27.4349 13.2657 28.0876 11.646C28.7405 10.0262 28.843 8.23685 28.3796 6.55307C27.9161 4.86936 26.9122 3.38452 25.5225 2.32703C24.1327 1.26947 22.434 0.697848 20.6877 0.700018C18.9414 0.702188 17.2441 1.27808 15.857 2.33907C14.4699 3.39999 13.4698 4.88735 13.0105 6.57218C12.5512 8.25708 12.6582 10.0462 13.315 11.6643C13.9718 13.2824 15.1421 14.64 16.6457 15.528V15.523ZM16.0902 8.6698C16.0902 8.35151 16.1258 8.0342 16.1963 7.72375C16.2255 7.59383 16.2852 7.47266 16.3703 7.37032C16.4555 7.26791 16.5637 7.1872 16.6861 7.13477C16.8086 7.08234 16.9416 7.05973 17.0745 7.06876C17.2073 7.07779 17.3362 7.11825 17.4504 7.18671C19.064 8.1581 20.9119 8.67092 22.7952 8.6698C23.2877 8.66938 23.7795 8.63277 24.2666 8.56039C24.3981 8.54072 24.5324 8.55248 24.6585 8.59469C24.7846 8.63697 24.8989 8.70844 24.992 8.80343C25.0852 8.89835 25.1545 9.01399 25.1943 9.1409C25.2341 9.26774 25.2433 9.40228 25.2211 9.53339C25.0071 10.6605 24.3802 11.6673 23.463 12.3565C22.5459 13.0457 21.4045 13.3678 20.2624 13.2598C19.1202 13.1518 18.0595 12.6214 17.2878 11.7725C16.5161 10.9234 16.089 9.8171 16.0902 8.6698Z" fill="#47BDFF"/>
<path d="M33.1266 19.213C34.0932 19.219 35.0377 18.924 35.8292 18.3691C36.6206 17.8141 37.2198 17.0268 37.5438 16.116C37.8677 15.2053 37.9003 14.2164 37.637 13.2863C37.3737 12.3562 36.8276 11.5311 36.0744 10.9253C35.3211 10.3195 34.3981 9.96309 33.4331 9.90534C32.4682 9.84766 31.5093 10.0915 30.6893 10.6033C29.8691 11.115 29.2286 11.8691 28.8564 12.7612C28.4841 13.6533 28.3986 14.639 28.6117 15.5819C28.848 16.6058 29.4216 17.5205 30.2405 18.1791C31.0594 18.8377 32.0758 19.2018 33.1266 19.213Z" fill="#47BDFF"/>
<path d="M7.47118 19.2133C10.0279 19.2133 12.1006 17.1406 12.1006 14.5839C12.1006 12.0271 10.0279 9.9545 7.47118 9.9545C4.91443 9.9545 2.8418 12.0271 2.8418 14.5839C2.8418 17.1406 4.91443 19.2133 7.47118 19.2133Z" fill="#47BDFF"/>
</svg>
