<svg width="31" height="36" viewBox="0 0 31 36" fill="none" xmlns="http://www.w3.org/2000/svg">
<path d="M0.961229 33.8409C0.670349 34.6165 1.06336 35.4812 1.83904 35.772C2.61472 36.0629 3.47934 35.6699 3.77022 34.8942L0.961229 33.8409ZM3.76962 28.128L5.26821 28.1932L3.76962 28.128ZM3.35365 17.9887L4.7351 18.5732L3.35365 17.9887ZM5.25151 19.2366L5.93081 17.8993L5.25151 19.2366ZM13.0769 19.2886L12.5892 17.8702L13.0769 19.2886ZM29.5977 1.94208C29.5227 1.11705 28.7931 0.509039 27.9681 0.584041L14.5235 1.80627C13.6985 1.88128 13.0905 2.61089 13.1655 3.43592C13.2405 4.26094 13.9701 4.86896 14.7951 4.79395L26.7458 3.70752L27.8323 15.6582C27.9073 16.4833 28.6369 17.0913 29.4619 17.0163C30.2869 16.9413 30.8949 16.2117 30.8199 15.3866L29.5977 1.94208ZM3.77022 34.8942C4.26368 33.5783 4.64283 32.7221 4.86677 31.8545C5.10794 30.9201 5.1925 29.9344 5.26821 28.1932L2.27104 28.0628C2.19509 29.8096 2.11579 30.5088 1.96197 31.1047C1.79091 31.7675 1.54394 32.287 0.961229 33.8409L3.77022 34.8942ZM5.26821 28.1932C5.30033 27.4543 5.21071 26.5511 5.10124 25.6682C5.04503 25.2149 4.97971 24.739 4.91508 24.2652C4.84993 23.7877 4.78506 23.3093 4.72702 22.8339C4.6101 21.8761 4.52692 20.9759 4.52529 20.1968C4.52361 19.3876 4.61272 18.8625 4.7351 18.5732L1.9722 17.4043C1.611 18.258 1.52336 19.2718 1.5253 20.2031C1.5273 21.1644 1.62813 22.2062 1.74913 23.1974C1.81006 23.6966 1.87763 24.1945 1.94261 24.6708C2.0081 25.1508 2.07058 25.6062 2.12404 26.0373C2.2339 26.9234 2.29108 27.6018 2.27104 28.0628L5.26821 28.1932ZM4.7351 18.5732C4.68525 18.691 4.50509 19.0362 4.05542 19.2183C3.60789 19.3996 3.23511 19.2807 3.10623 19.2274C2.97918 19.1748 2.92358 19.1212 2.95688 19.1484C2.97881 19.1664 3.02216 19.2054 3.09483 19.2787C3.16643 19.3509 3.24324 19.4326 3.33945 19.5349C3.42999 19.6312 3.53776 19.7457 3.64813 19.8567C3.83661 20.0462 4.1684 20.3689 4.57222 20.574L5.93081 17.8993C5.99711 17.9329 5.95978 17.9268 5.77522 17.7412C5.69907 17.6646 5.61934 17.5801 5.52486 17.4796C5.43605 17.3852 5.33031 17.2725 5.22531 17.1666C5.07446 17.0144 4.71196 16.6451 4.25321 16.4553C3.98532 16.3444 3.48638 16.212 2.929 16.4378C2.36949 16.6645 2.0958 17.1121 1.9722 17.4043L4.7351 18.5732ZM4.57222 20.574C7.49118 22.0567 10.9395 21.6098 13.5647 20.7071L12.5892 17.8702C10.3025 18.6565 7.80201 18.8497 5.93081 17.8993L4.57222 20.574ZM13.5647 20.7071C18.4061 19.0423 21.0912 16.0116 23.1963 12.7095C24.2189 11.1053 25.1558 9.34999 26.0849 7.74217C27.036 6.09621 28.0288 4.51099 29.2562 3.03816L26.9515 1.1176C25.5609 2.78639 24.4678 4.54455 23.4874 6.24118C22.4849 7.97596 21.6447 9.56245 20.6666 11.0968C18.7702 14.0717 16.5598 16.5048 12.5892 17.8702L13.5647 20.7071Z" fill="#FFB936"/>
</svg>
