<svg width="295" height="184" viewBox="0 0 295 184" fill="none" xmlns="http://www.w3.org/2000/svg">
<g opacity="0.3">
<path d="M85.2325 102.647C94.6207 98.6708 106.267 98.2306 116.267 97.3013C127.685 96.2463 139.109 95.1353 150.512 93.9195C172.861 91.5299 194.66 85.5559 217.022 83.2012C217.509 83.1523 217.516 82.3767 217.022 82.4326C194.062 84.8432 171.679 91.0059 148.726 93.3326C137.344 94.4855 125.947 95.6174 114.558 96.6934C105.024 97.5948 93.9467 98.1328 85.024 101.906C84.5723 102.095 84.7738 102.842 85.2255 102.647H85.2325Z" fill="#547EBE"/>
<path d="M78.1723 66.0902C82.8282 65.8456 87.3938 64.8744 91.9941 64.1478C98.151 63.1695 104.35 62.6735 110.555 62.1774C121.729 61.283 132.82 59.7738 143.939 58.3833C165.94 55.6443 187.635 50.4668 209.865 49.845C210.358 49.831 210.358 49.0624 209.865 49.0764C187.628 49.6982 165.946 54.8757 143.939 57.6147C133.112 58.9633 122.32 60.4655 111.445 61.3389C106.365 61.7442 101.278 62.0935 96.2261 62.7503C90.2081 63.5329 84.2389 65.0072 78.1723 65.3216C77.6789 65.3496 77.6789 66.1181 78.1723 66.0902Z" fill="#547EBE"/>
<path d="M230.601 57.9496C241.504 57.0971 252.63 54.9451 263.38 52.9398C263.866 52.8489 263.658 52.1083 263.178 52.1991C252.512 54.1905 241.421 56.3355 230.608 57.181C230.121 57.2159 230.115 57.9915 230.608 57.9496H230.601Z" fill="#47BDFF"/>
<path d="M232.429 75.6704C237.578 73.9376 242.797 74.2381 248.106 73.6721C252.894 73.162 257.55 71.8973 262.386 71.7436C262.88 71.7296 262.88 70.9541 262.386 70.975C257.021 71.1497 251.851 72.624 246.507 73.0432C241.615 73.4275 236.925 73.3437 232.22 74.9298C231.755 75.0835 231.956 75.8311 232.422 75.6704H232.429Z" fill="#47BDFF"/>
<path d="M6.87441 110.033C10.8285 107.881 15.1994 107.622 19.5496 106.916C23.6426 106.253 27.68 105.295 31.7175 104.366C35.9286 103.395 40.1398 102.41 44.4065 101.725C48.5274 101.061 52.6829 100.97 56.7065 99.8244C57.179 99.6916 56.9775 98.944 56.5049 99.0837C52.4884 100.23 48.305 100.306 44.205 100.984C39.3684 101.781 34.6014 102.92 29.8273 104.017C25.5814 104.995 21.3494 105.882 17.041 106.532C13.351 107.084 9.79999 107.573 6.48526 109.376C6.04747 109.613 6.43662 110.277 6.87441 110.04V110.033Z" fill="#B476E5"/>
<path d="M4.68537 87.8838C12.9757 86.4095 21.3215 85.3614 29.6605 84.2155C33.684 83.6636 37.7006 83.0696 41.7102 82.3989C45.6921 81.7281 49.8546 81.7211 53.7252 80.5682C54.1978 80.4285 53.9963 79.6808 53.5237 79.8276C49.9658 80.8826 46.0465 80.9036 42.3634 81.5115C38.0689 82.2172 33.7674 82.881 29.4589 83.4749C21.12 84.6208 12.7741 85.6689 4.48384 87.1432C3.99741 87.227 4.20588 87.9747 4.68537 87.8838Z" fill="#B476E5"/>
<path d="M86.956 47.993C105.336 45.5894 123.606 42.3823 142 40.0975C159.505 37.9245 177.565 35.0108 195.223 35.2624C195.716 35.2693 195.716 34.5007 195.223 34.4938C177.572 34.2422 159.498 37.1559 142 39.3289C123.606 41.6137 105.336 44.8208 86.956 47.2244C86.4765 47.2873 86.4695 48.0629 86.956 47.993Z" fill="#547EBE"/>
<path d="M107.261 112.541C121.938 111.703 136.274 108.538 150.672 105.736C157.739 104.359 164.855 103.262 171.916 101.851C179.622 100.314 187.183 98.2594 195.098 98.3432C195.591 98.3432 195.591 97.5746 195.098 97.5746C188.225 97.5047 181.679 99.014 174.994 100.432C168.024 101.914 160.985 102.997 153.987 104.317C138.47 107.238 123.063 110.864 107.261 111.773C106.768 111.801 106.768 112.569 107.261 112.541Z" fill="#547EBE"/>
<path d="M130.291 127.905C139.866 130.931 150.109 128.555 159.706 126.738C170.762 124.642 181.832 122.735 192.853 120.415C193.333 120.31 193.131 119.569 192.652 119.674C182.673 121.77 172.666 123.559 162.639 125.404C152.194 127.332 140.957 130.469 130.499 127.164C130.026 127.018 129.825 127.758 130.297 127.905H130.291Z" fill="#547EBE"/>
<path d="M105.385 29.1982C110.083 30.1345 115.475 28.4716 120.187 27.7938C126.99 26.8226 133.758 25.9911 140.617 25.5439C147.045 25.1247 153.466 24.7334 159.887 24.2373C164.682 23.867 169.789 23.8251 174.466 22.6163C174.946 22.4905 174.744 21.7499 174.265 21.8756C169.129 23.2032 163.403 23.2032 158.136 23.6015C152.298 24.0417 146.454 24.398 140.617 24.7753C135.794 25.0898 130.985 25.509 126.198 26.1588C122.959 26.599 119.728 27.0951 116.49 27.5353C113.328 27.9615 108.693 29.0725 105.593 28.4506C105.114 28.3528 104.905 29.1004 105.392 29.1912L105.385 29.1982Z" fill="#547EBE"/>
<path d="M2.83695 60.6183C13.1633 60.7441 23.6982 58.8575 33.9134 57.481C38.465 56.8662 42.9958 56.2094 47.5823 55.9369C52.4188 55.6504 57.2832 55.5176 61.8627 53.7708C62.3213 53.5962 62.1198 52.8485 61.6612 53.0302C56.5953 54.9656 51.1402 54.9028 45.7963 55.2731C41.2447 55.5875 36.7417 56.3351 32.2178 56.936C22.5446 58.2217 12.6004 59.9615 2.83 59.8497C2.33661 59.8497 2.33661 60.6183 2.83 60.6183H2.83695Z" fill="#B476E5"/>
<path d="M14.1987 129.381C17.6038 126.642 24.0248 125.902 28.2012 124.812C32.0232 123.813 35.8661 122.925 39.7437 122.157C48.4092 120.438 57.1581 119.152 65.7889 117.266C66.2684 117.161 66.0669 116.413 65.5874 116.525C55.7822 118.67 45.8311 120.019 36.0189 122.143C31.8147 123.051 27.6453 124.134 23.5036 125.294C20.2097 126.216 16.3738 126.656 13.6567 128.843C13.2745 129.151 13.8165 129.696 14.1987 129.388V129.381Z" fill="#B476E5"/>
<path d="M34.4206 147.224C52.252 144.765 70.1112 142.515 88.0469 140.929C88.5333 140.887 88.5403 140.112 88.0469 140.16C70.0487 141.754 52.12 144.017 34.2191 146.484C33.7326 146.554 33.9411 147.294 34.4206 147.224Z" fill="#B476E5"/>
<path d="M233.429 106.61C240.226 107.791 246.834 106.205 253.464 104.772C261.059 103.13 268.946 102.648 276.375 100.3C276.847 100.154 276.646 99.4061 276.173 99.5598C269.738 101.593 263.019 102.026 256.438 103.354C248.926 104.87 241.344 107.211 233.638 105.869C233.158 105.785 232.95 106.526 233.436 106.61H233.429Z" fill="#47BDFF"/>
<path d="M235.097 91.2442C248.551 90.7132 261.226 85.2352 274.707 84.9348C275.2 84.9208 275.2 84.1522 274.707 84.1662C261.226 84.4597 248.551 89.9446 235.097 90.4756C234.604 90.4966 234.604 91.2652 235.097 91.2442Z" fill="#47BDFF"/>
<path d="M228.044 34.4884C233.443 34.5792 239.065 33.8036 244.548 33.2446C250.927 32.5948 257.334 30.9878 263.727 30.9249C264.221 30.9249 264.221 30.1493 263.727 30.1563C256.222 30.2332 248.689 32.0708 241.219 32.8114C237.55 33.1748 233.895 33.587 230.226 33.9643C229.197 34.0691 227.995 33.9993 227.057 34.4884C226.786 34.6281 226.821 35.1452 227.147 35.1941C227.516 35.25 227.655 35.2639 228.037 35.2709C228.53 35.2779 228.53 34.5093 228.037 34.5023L228.044 34.4884Z" fill="#47BDFF"/>
<path d="M25.1923 41.5519C32.0927 43.641 40.3344 41.5309 47.3043 40.6715C55.1221 39.7072 63.1761 38.5963 70.7159 36.2695C71.1884 36.1228 70.9869 35.3822 70.5144 35.5289C63.0441 37.8347 55.0456 38.9526 47.3043 39.9029C40.4456 40.7483 32.1483 42.8515 25.3938 40.8112C24.9213 40.6645 24.7197 41.4121 25.1923 41.5519Z" fill="#B476E5"/>
<path d="M206.654 22.1551C215.966 19.5768 226.383 19.5279 235.994 18.8362C240.545 18.5078 245.097 18.2143 249.655 17.9278C253.478 17.6903 257.536 18.0047 261.205 16.8239C261.671 16.6771 261.476 15.9295 261.003 16.0832C256.744 17.4457 251.56 17.0335 247.091 17.3199C242.255 17.6274 237.411 17.9488 232.582 18.3191C223.986 18.9759 214.799 19.1017 206.453 21.4144C205.98 21.5472 206.182 22.2878 206.654 22.1551Z" fill="#47BDFF"/>
<path d="M78.0402 72.6783C80.6808 80.6787 82.7169 89.0424 86.386 96.6514C86.6084 97.1126 87.2894 96.7073 87.067 96.2531C83.4327 88.707 81.4174 80.3992 78.8046 72.4687C78.6447 71.9866 77.8803 72.1892 78.0402 72.6783Z" fill="white"/>
<path d="M86.7265 96.8464C88.4985 96.6367 90.2288 96.1476 92.0009 95.938C92.5012 95.8821 92.5082 95.0856 92.0009 95.1415C90.2219 95.3511 88.4985 95.8402 86.7265 96.0498C86.2262 96.1127 86.2192 96.9023 86.7265 96.8464Z" fill="white"/>
<path d="M87.1087 87.0941C88.6861 90.0218 90.3748 92.8865 91.7507 95.919C91.9592 96.3801 92.6471 95.9818 92.4317 95.5207C91.0488 92.4882 89.3671 89.6235 87.7897 86.6959C87.5465 86.2487 86.8655 86.647 87.1087 87.0941Z" fill="white"/>
<path d="M87.4561 87.2886C89.1309 87.1698 90.75 86.8275 92.39 86.4921C92.8903 86.3873 92.6749 85.6257 92.1815 85.7235C90.611 86.0449 89.0614 86.3733 87.4561 86.4921C86.9489 86.527 86.9489 87.3236 87.4561 87.2886Z" fill="white"/>
<path d="M91.9384 86.309C93.627 89.3414 96.0105 91.9267 98.0188 94.7355C98.3107 95.1478 98.9986 94.7495 98.6998 94.3373C96.6915 91.5214 94.3149 88.9432 92.6194 85.9107C92.3692 85.4635 91.6882 85.8618 91.9384 86.309Z" fill="white"/>
<path d="M98.4635 94.919C99.6796 94.4718 100.944 94.2762 102.23 94.1294C102.73 94.0735 102.737 93.277 102.23 93.3329C100.882 93.4796 99.5337 93.6753 98.2551 94.1504C97.7825 94.3251 97.9841 95.0937 98.4635 94.919Z" fill="white"/>
<path d="M84.7461 71.812C90.5069 79.1556 97.0043 86.1079 102.147 93.9126C102.425 94.3388 103.113 93.9405 102.828 93.5143C97.6506 85.6467 91.1115 78.6455 85.309 71.2531C84.9963 70.8548 84.4403 71.4208 84.753 71.812H84.7461Z" fill="white"/>
<path d="M82.3973 77.7951C83.1895 79.4371 83.9609 81.0861 84.7878 82.7071C85.0171 83.1612 85.7051 82.763 85.4688 82.3088C84.6419 80.6878 83.8705 79.0388 83.0783 77.3968C82.8559 76.9357 82.1749 77.3409 82.3973 77.7951Z" fill="white"/>
<path d="M85.17 82.9712C86.6988 82.7895 88.1651 82.3563 89.68 82.0768C90.1803 81.986 89.9649 81.2174 89.4715 81.3082C88.033 81.5807 86.6293 82 85.1769 82.1746C84.6766 82.2375 84.6696 83.0271 85.1769 82.9712H85.17Z" fill="white"/>
<path d="M86.0177 76.9338C87.1296 78.5548 88.0538 80.3016 89.2282 81.8877C89.527 82.293 90.215 81.8947 89.9092 81.4894C88.7418 79.9033 87.8106 78.1565 86.6987 76.5355C86.4138 76.1163 85.7259 76.5146 86.0177 76.9338Z" fill="white"/>
<path d="M82.842 77.9753C84.0442 77.6609 85.2395 77.3395 86.4625 77.1159C86.9628 77.025 86.7474 76.2565 86.254 76.3473C85.031 76.5709 83.8357 76.8923 82.6335 77.2067C82.1402 77.3325 82.3486 78.1011 82.842 77.9753Z" fill="white"/>
<path d="M78.5265 72.9582C80.7225 72.5669 82.9531 72.3993 85.1351 71.9171C85.6285 71.8053 85.4201 71.0437 84.9267 71.1485C82.7447 71.6307 80.514 71.7984 78.3181 72.1896C77.8177 72.2805 78.0332 73.0421 78.5265 72.9582Z" fill="white"/>
<path d="M111.396 67.4051C113.314 75.3216 114.593 83.5805 117.588 91.1896C117.775 91.6577 118.54 91.4551 118.352 90.9799C115.357 83.3779 114.078 75.119 112.16 67.1955C112.042 66.6994 111.278 66.909 111.396 67.4051Z" fill="white"/>
<path d="M117.97 91.4739C119.804 91.39 121.618 91.0476 123.453 90.9708C123.96 90.9498 123.96 90.1533 123.453 90.1742C121.618 90.2511 119.804 90.6005 117.97 90.6773C117.463 90.6983 117.463 91.4948 117.97 91.4739Z" fill="white"/>
<path d="M119.297 82.0555C120.617 84.9761 122.042 87.8478 123.154 90.8593C123.327 91.3344 124.092 91.1318 123.918 90.6497C122.785 87.5753 121.326 84.6407 119.978 81.6572C119.77 81.189 119.089 81.5943 119.297 82.0555Z" fill="white"/>
<path d="M119.638 82.2514C121.326 82.2514 122.98 82.0418 124.655 81.8391C125.155 81.7763 125.162 80.9797 124.655 81.0426C122.98 81.2452 121.326 81.4548 119.638 81.4548C119.13 81.4548 119.13 82.2514 119.638 82.2514Z" fill="white"/>
<path d="M124.307 81.6427C125.753 84.7171 127.928 87.3862 129.714 90.2649C129.985 90.6982 130.666 90.2999 130.395 89.8667C128.609 86.9879 126.434 84.3258 124.988 81.2445C124.773 80.7833 124.092 81.1886 124.307 81.6427Z" fill="white"/>
<path d="M130.159 90.446C131.444 90.1036 132.764 90.0058 134.085 89.9569C134.592 89.9359 134.592 89.1464 134.085 89.1603C132.688 89.2092 131.298 89.3141 129.95 89.6774C129.457 89.8101 129.665 90.5787 130.159 90.446Z" fill="white"/>
<path d="M118.296 66.9631C123.501 74.5232 129.478 81.755 134.015 89.7553C134.265 90.2025 134.953 89.7973 134.696 89.3571C130.159 81.3567 124.182 74.125 118.977 66.5648C118.693 66.1456 118.005 66.5438 118.296 66.9631Z" fill="white"/>
<path d="M115.329 72.5882C115.989 74.2721 116.636 75.9561 117.337 77.619C117.539 78.0871 118.22 77.6819 118.018 77.2207C117.344 75.6207 116.726 73.9926 116.087 72.3786C115.899 71.9105 115.135 72.1131 115.322 72.5882H115.329Z" fill="white"/>
<path d="M117.72 77.892C119.262 77.8292 120.77 77.5147 122.306 77.354C122.806 77.2981 122.813 76.5016 122.306 76.5575C120.777 76.7182 119.262 77.0326 117.72 77.0955C117.212 77.1165 117.212 77.913 117.72 77.892Z" fill="white"/>
<path d="M119.158 72.1131C120.138 73.7691 120.923 75.5298 121.959 77.1509C122.237 77.5771 122.918 77.1788 122.64 76.7526C121.597 75.1316 120.819 73.3638 119.839 71.7148C119.582 71.2746 118.894 71.6729 119.158 72.1131Z" fill="white"/>
<path d="M115.816 72.8674C117.039 72.6578 118.262 72.4342 119.499 72.3085C119.999 72.2596 120.006 71.463 119.499 71.5119C118.192 71.6447 116.9 71.8753 115.607 72.0989C115.107 72.1827 115.322 72.9513 115.816 72.8674Z" fill="white"/>
<path d="M111.778 67.6973C114.099 67.4737 116.427 67.4597 118.741 67.1453C119.241 67.0755 119.026 66.3138 118.533 66.3767C116.295 66.6842 114.03 66.6772 111.778 66.9008C111.278 66.9497 111.271 67.7462 111.778 67.6973Z" fill="white"/>
<path d="M90.6041 69.6408C94.5373 77.711 98.6373 85.7463 103.008 93.5859C103.258 94.0331 103.939 93.6348 103.689 93.1877C99.3183 85.348 95.2183 77.3127 91.2851 69.2425C91.0627 68.7814 90.3817 69.1866 90.6041 69.6408Z" fill="white"/>
<path d="M90.9446 69.8338C92.8209 69.6592 94.7111 69.7081 96.5804 69.4146C97.0807 69.3378 96.8722 68.5692 96.3719 68.646C94.5721 68.9255 92.7584 68.8696 90.9516 69.0373C90.4513 69.0862 90.4443 69.8828 90.9516 69.8338H90.9446Z" fill="white"/>
<path d="M96.1286 69.2332C98.2203 71.9652 100.514 74.6203 103.029 76.961C103.404 77.3104 103.96 76.7444 103.585 76.402C101.118 74.1032 98.8596 71.504 96.8096 68.8349C96.5039 68.4366 95.8159 68.8349 96.1286 69.2332Z" fill="white"/>
<path d="M98.7693 68.9591C100.069 71.6422 101.34 74.3882 102.967 76.8826C103.244 77.3089 103.932 76.9106 103.648 76.4844C102.014 73.9899 100.743 71.244 99.4503 68.5609C99.2279 68.0997 98.5469 68.505 98.7693 68.9591Z" fill="white"/>
<path d="M99.3948 69.1216C101.083 68.5976 102.828 68.4229 104.579 68.2343C105.079 68.1784 105.086 67.3888 104.579 67.4377C102.758 67.6334 100.937 67.8081 99.1863 68.3531C98.6998 68.4998 98.9083 69.2684 99.3948 69.1216Z" fill="white"/>
<path d="M104.238 68.0383C108.922 75.6334 113.168 83.6058 117.108 91.6131C117.33 92.0743 118.018 91.669 117.789 91.2149C113.849 83.2075 109.603 75.2352 104.919 67.6401C104.655 67.2069 103.967 67.6051 104.238 68.0383Z" fill="white"/>
<path d="M111.465 92.4323C113.494 92.2297 115.53 92.09 117.546 91.7965C118.046 91.7266 117.838 90.9581 117.337 91.0279C115.392 91.3074 113.425 91.4402 111.465 91.6358C110.965 91.6847 110.958 92.4813 111.465 92.4323Z" fill="white"/>
<path d="M102.445 82.2585C105.343 85.6193 108.081 89.1548 111.187 92.32C111.549 92.6834 112.105 92.1244 111.743 91.7611C108.637 88.5959 105.899 85.0533 103.001 81.6995C102.668 81.3152 102.112 81.8742 102.445 82.2585Z" fill="white"/>
<path d="M102.383 82.1734C104.064 85.8278 106.17 89.2724 107.866 92.9267C108.081 93.3879 108.762 92.9896 108.547 92.5285C106.851 88.8742 104.745 85.4365 103.064 81.7752C102.848 81.314 102.167 81.7123 102.383 82.1734Z" fill="white"/>
<path d="M103.015 93.6669C104.787 93.4923 106.559 93.3944 108.317 93.108C108.818 93.0311 108.609 92.2625 108.109 92.3394C106.42 92.6119 104.718 92.6957 103.015 92.8704C102.515 92.9193 102.508 93.7159 103.015 93.6669Z" fill="white"/>
<path d="M123.334 66.5306C125.544 71.0723 127.893 75.5511 130.068 80.1067C131.604 83.3278 132.883 86.7935 135.21 89.5324C135.544 89.9237 136.1 89.3578 135.766 88.9735C133.167 85.9201 131.805 81.8675 130.061 78.297C128.074 74.2235 125.989 70.1989 124.008 66.1253C123.786 65.6642 123.105 66.0694 123.327 66.5236L123.334 66.5306Z" fill="white"/>
<path d="M135.662 89.5183C140.318 88.0021 145.662 88.3305 150.505 87.8553C151.006 87.8064 151.013 87.0099 150.505 87.0588C145.592 87.5339 140.193 87.2125 135.454 88.7497C134.974 88.9034 135.176 89.672 135.662 89.5183Z" fill="white"/>
<path d="M123.758 66.6839C125.781 65.6917 128.122 65.6707 130.318 65.4471C130.819 65.3982 130.826 64.6017 130.318 64.6506C127.969 64.8812 125.516 64.9371 123.355 65.9921C122.897 66.2157 123.3 66.9005 123.751 66.6769L123.758 66.6839Z" fill="white"/>
<path d="M129.999 65.2732C131.805 71.4359 135.273 77.3191 138.004 83.1255C138.219 83.5866 138.9 83.1814 138.685 82.7272C136.01 77.0326 132.528 71.1005 130.756 65.0635C130.61 64.5744 129.846 64.7841 129.992 65.2732H129.999Z" fill="white"/>
<path d="M138.213 83.3276C139.922 82.7896 141.659 82.7337 143.424 82.5241C145.106 82.3284 146.767 81.9931 148.442 81.7974C148.942 81.7345 148.949 80.945 148.442 81.0009C146.517 81.2315 144.613 81.6157 142.681 81.8114C141.082 81.9721 139.547 82.0769 138.004 82.559C137.518 82.7127 137.726 83.4813 138.213 83.3276Z" fill="white"/>
<path d="M147.747 81.6355C148.615 83.6199 149.248 85.6951 150.165 87.6585C150.38 88.1196 151.061 87.7214 150.846 87.2602C149.929 85.2968 149.296 83.2216 148.428 81.2373C148.226 80.7691 147.538 81.1744 147.747 81.6355Z" fill="white"/>
<path d="M132.917 64.9278C135.607 64.3689 138.351 64.2361 141.076 63.9706C141.576 63.9217 141.583 63.1251 141.076 63.174C138.282 63.4535 135.461 63.5863 132.709 64.1592C132.208 64.264 132.424 65.0326 132.917 64.9278Z" fill="white"/>
<path d="M132.619 64.8948C138.741 68.5561 143.515 74.3345 149.755 77.7932C150.2 78.0377 150.603 77.353 150.151 77.1084C143.911 73.6428 139.144 67.8713 133.015 64.21C132.577 63.9445 132.181 64.6363 132.619 64.8948Z" fill="white"/>
<path d="M140.881 63.9161C144.557 66.676 148.025 69.7295 151.791 72.3566C152.208 72.6501 152.604 71.9584 152.187 71.6719C148.414 69.0377 144.953 65.9843 141.277 63.2314C140.867 62.9239 140.471 63.6156 140.881 63.9161Z" fill="white"/>
<path d="M151.249 62.5761C151.881 65.7134 151.478 68.8506 151.597 72.0158C151.617 72.5259 152.41 72.5259 152.389 72.0158C152.271 68.7738 152.66 65.5736 152.013 62.3665C151.909 61.8634 151.152 62.08 151.249 62.5761Z" fill="white"/>
<path d="M151.735 62.854C154.223 62.1133 156.725 62.0504 159.296 62.0504C159.803 62.0504 159.803 61.2539 159.296 61.2539C156.655 61.2539 154.077 61.3238 151.527 62.0854C151.041 62.2321 151.249 63.0007 151.735 62.854Z" fill="white"/>
<path d="M158.914 61.7578C159.532 64.6155 158.99 67.1868 158.476 70.0166C158.17 71.7285 158.323 73.9784 157.628 75.5365C157.42 75.9977 158.101 76.4029 158.309 75.9348C159.199 73.9574 159.018 71.4141 159.414 69.3039C159.908 66.6768 160.248 64.1963 159.671 61.5481C159.56 61.0451 158.803 61.2617 158.907 61.7578H158.914Z" fill="white"/>
<path d="M154.529 86.9673C153.195 83.6903 151.749 80.4552 150.214 77.262C149.991 76.8009 149.31 77.2061 149.533 77.6603C151.041 80.7836 152.458 83.9558 153.765 87.1699C153.952 87.638 154.724 87.4354 154.529 86.9603V86.9673Z" fill="white"/>
<path d="M154.147 87.4705C157.163 87.212 160.165 86.8277 163.181 86.5272C163.681 86.4783 163.688 85.6818 163.181 85.7307C160.172 86.0311 157.163 86.4154 154.147 86.6739C153.646 86.7159 153.639 87.5124 154.147 87.4705Z" fill="white"/>
<path d="M157.587 75.682C158.956 79.4061 160.867 82.8997 162.833 86.3374C163.09 86.7776 163.771 86.3794 163.514 85.9392C161.582 82.5643 159.692 79.1336 158.344 75.4793C158.17 75.0042 157.406 75.2068 157.58 75.6889L157.587 75.682Z" fill="white"/>
<path d="M179.018 66.6085C177.002 61.4939 169.845 56.7076 164.619 60.4248C160.151 63.604 162.124 71.765 164.994 75.3076C165.314 75.7058 165.87 75.1399 165.55 74.7486C163.104 71.7301 161.291 64.701 164.48 61.5777C169.004 57.1548 176.405 62.1367 178.253 66.8251C178.441 67.2932 179.205 67.0906 179.018 66.6155V66.6085Z" fill="white"/>
<path d="M165.272 75.4262C169.115 74.965 172.923 74.1056 176.787 73.7981C177.294 73.7562 177.294 72.9597 176.787 73.0016C172.923 73.316 169.115 74.1685 165.272 74.6296C164.772 74.6925 164.765 75.4821 165.272 75.4262Z" fill="white"/>
<path d="M176.44 73.5956C176.905 74.6297 178.754 77.3897 176.78 77.8508C175.091 78.2491 173.299 76.1809 172.541 74.9092C172.277 74.469 171.596 74.8673 171.86 75.3075C172.854 76.9774 175.258 79.4789 177.426 78.4587C179.615 77.4316 177.767 74.6228 177.121 73.1904C176.912 72.7222 176.231 73.1275 176.44 73.5887V73.5956Z" fill="white"/>
<path d="M172.208 74.714C169.901 74.8817 167.614 75.266 165.328 75.5944C164.828 75.6643 165.043 76.4329 165.537 76.363C167.753 76.0486 169.97 75.6713 172.208 75.5105C172.715 75.4756 172.715 74.6791 172.208 74.714Z" fill="white"/>
<path d="M165.224 76.0831C167.343 82.3716 174.626 86.2006 181.047 84.2791C188.594 82.0292 182.527 72.0934 179.796 67.9989C179.511 67.5727 178.83 67.971 179.115 68.3972C181.638 72.1773 187.51 81.9943 180.227 83.6922C174.376 85.0547 167.899 81.5331 165.988 75.8735C165.828 75.3914 165.064 75.601 165.224 76.0831Z" fill="white"/>
<path d="M167.288 70.45C171.172 69.4509 175.453 68.8709 179.456 68.5984C179.963 68.5635 179.963 67.767 179.456 67.8019C175.397 68.0814 171.026 68.6683 167.079 69.6815C166.586 69.8072 166.794 70.5758 167.288 70.45Z" fill="white"/>
<path d="M167.524 69.8662C166.885 68.5875 165.849 65.8835 167.163 64.7306C168.879 63.2144 171.471 66.0931 171.909 67.6303C172.048 68.1194 172.812 67.9098 172.673 67.4206C172.083 65.3734 169.296 62.5645 167.01 63.8642C164.835 65.1009 165.981 68.5596 166.843 70.2714C167.072 70.7256 167.753 70.3273 167.524 69.8732V69.8662Z" fill="white"/>
<path d="M172.291 67.9142C174.41 67.6836 176.509 67.2923 178.635 67.1106C179.136 67.0687 179.143 66.2722 178.635 66.3141C176.509 66.4958 174.41 66.887 172.291 67.1176C171.791 67.1735 171.784 67.9701 172.291 67.9142Z" fill="white"/>
<path d="M210.817 63.2882C208.802 58.1735 201.637 53.3873 196.418 57.1045C191.95 60.2837 193.93 68.4447 196.794 71.9872C197.113 72.3855 197.669 71.8195 197.349 71.4283C194.91 68.4098 193.083 61.3807 196.279 58.2574C200.803 53.8345 208.204 58.8094 210.052 63.5048C210.24 63.9729 211.004 63.7703 210.817 63.2952V63.2882Z" fill="white"/>
<path d="M197.071 72.105C200.914 71.6369 204.729 70.7844 208.586 70.47C209.086 70.4281 209.093 69.6315 208.586 69.6735C204.722 69.9879 200.914 70.8403 197.071 71.3085C196.571 71.3714 196.564 72.1679 197.071 72.105Z" fill="white"/>
<path d="M208.239 70.2753C208.711 71.3094 210.553 74.0624 208.579 74.5305C206.89 74.9288 205.098 72.8606 204.34 71.5889C204.076 71.1487 203.395 71.547 203.659 71.9872C204.653 73.6571 207.057 76.1586 209.225 75.1384C211.414 74.1113 209.566 71.3094 208.92 69.8701C208.711 69.4019 208.03 69.8072 208.239 70.2683V70.2753Z" fill="white"/>
<path d="M204.007 71.3937C201.699 71.5614 199.413 71.9457 197.127 72.2741C196.627 72.344 196.835 73.1125 197.335 73.0427C199.552 72.7213 201.769 72.3579 204.007 72.1902C204.514 72.1553 204.514 71.3588 204.007 71.3937Z" fill="white"/>
<path d="M197.023 72.7578C199.142 79.0462 206.425 82.8682 212.839 80.9537C220.386 78.7039 214.319 68.7681 211.588 64.6736C211.303 64.2543 210.622 64.6456 210.907 65.0718C213.43 68.8519 219.302 78.6619 212.019 80.3598C206.168 81.7223 199.691 78.2008 197.78 72.5412C197.621 72.059 196.856 72.2686 197.016 72.7508L197.023 72.7578Z" fill="white"/>
<path d="M199.087 67.1227C202.964 66.1236 207.252 65.5367 211.255 65.2781C211.762 65.2432 211.762 64.4466 211.255 64.4816C207.203 64.7471 202.825 65.341 198.878 66.3542C198.385 66.4799 198.593 67.2485 199.087 67.1227Z" fill="white"/>
<path d="M199.323 66.5375C198.684 65.2588 197.648 62.5548 198.962 61.4019C200.678 59.8857 203.27 62.7644 203.715 64.3016C203.854 64.7907 204.618 64.5811 204.479 64.092C203.888 62.0517 201.095 59.2359 198.816 60.5355C196.647 61.7652 197.794 65.2379 198.649 66.9428C198.878 67.3969 199.559 66.9987 199.33 66.5445L199.323 66.5375Z" fill="white"/>
<path d="M204.09 64.5939C206.209 64.3633 208.308 63.972 210.435 63.7903C210.935 63.7484 210.942 62.9519 210.435 62.9938C208.308 63.1755 206.209 63.5667 204.09 63.7973C203.59 63.8532 203.583 64.6498 204.09 64.5939Z" fill="white"/>
<path d="M175.647 59.8431C175.515 60.7025 176.252 61.7017 176.655 62.3934C177.294 63.4904 178.031 64.5385 178.601 65.6774C178.83 66.1316 179.511 65.7333 179.282 65.2792C178.823 64.3778 178.253 63.5254 177.732 62.659C177.391 62.093 176.3 60.7515 176.412 60.0527C176.488 59.5497 175.731 59.34 175.647 59.8431Z" fill="white"/>
<path d="M178.768 65.7827C180.123 65.6359 181.464 65.3914 182.819 65.2447C183.319 65.1888 183.326 64.3922 182.819 64.4481C181.464 64.6018 180.123 64.8394 178.768 64.9861C178.267 65.042 178.26 65.8386 178.768 65.7827Z" fill="white"/>
<path d="M188.871 58.1179C186.064 58.4673 183.236 58.635 180.428 58.9494C178.941 59.1171 177.072 58.9634 175.717 59.6412C175.258 59.8717 175.661 60.5565 176.113 60.3259C177.628 59.5643 180.456 59.725 182.166 59.5643C184.403 59.3547 186.641 59.187 188.871 58.9075C189.372 58.8446 189.379 58.0481 188.871 58.111V58.1179Z" fill="white"/>
<path d="M188.531 58.7178C189.532 60.6951 190.838 62.5048 191.714 64.5451C191.915 65.0132 192.596 64.608 192.395 64.1468C191.519 62.1066 190.213 60.2969 189.212 58.3195C188.983 57.8653 188.302 58.2636 188.531 58.7178Z" fill="white"/>
<path d="M191.985 63.8633C190.963 63.6886 190.108 64.1498 189.122 64.2546C188.621 64.3105 188.614 65.1 189.122 65.0511C189.997 64.9603 190.887 64.4782 191.776 64.6319C192.276 64.7158 192.485 63.9472 191.985 63.8633Z" fill="white"/>
<path d="M182.437 64.9437C184.056 69.3596 186.703 73.3004 188.586 77.5975C188.788 78.0656 189.476 77.6604 189.267 77.1992C187.412 72.972 184.792 69.0871 183.194 64.741C183.02 64.2659 182.256 64.4685 182.43 64.9507L182.437 64.9437Z" fill="white"/>
<path d="M188.781 64.8517C190.657 68.7576 192.2 72.8171 194.069 76.73C194.292 77.1911 194.973 76.7859 194.75 76.3317C192.881 72.4189 191.338 68.3593 189.462 64.4534C189.24 63.9923 188.559 64.3976 188.781 64.8517Z" fill="white"/>
<path d="M185.717 78.0245C186.814 77.8568 187.933 77.9756 189.024 77.7799C189.525 77.6891 189.309 76.9205 188.816 77.0114C187.725 77.207 186.599 77.0882 185.508 77.2559C185.008 77.3328 185.216 78.1014 185.717 78.0245Z" fill="white"/>
<path d="M185.056 77.5787C185.126 78.4311 185.654 79.0879 186.05 79.8216C186.648 80.9116 187.016 82.1274 187.593 83.2313C187.829 83.6855 188.51 83.2802 188.274 82.8331C187.78 81.8758 187.419 80.8627 186.967 79.8914C186.627 79.1578 185.911 78.4032 185.842 77.5857C185.8 77.0756 185.008 77.0756 185.049 77.5857L185.056 77.5787Z" fill="white"/>
<path d="M187.78 83.565C192.103 83.4951 196.217 83.0829 200.497 82.5728C200.998 82.5169 201.005 81.7203 200.497 81.7762C196.224 82.2793 192.089 82.6986 187.78 82.7684C187.273 82.7754 187.273 83.572 187.78 83.565Z" fill="white"/>
<path d="M197.46 76.5367C198.051 77.6756 198.586 78.8355 199.087 80.0233C199.344 80.6382 200.039 81.5605 200.073 82.2313C200.101 82.7413 200.893 82.7413 200.866 82.2313C200.824 81.4557 200.268 80.7919 199.969 80.0932C199.392 78.7586 198.816 77.431 198.141 76.1384C197.905 75.6842 197.224 76.0895 197.46 76.5367Z" fill="white"/>
<path d="M194.514 76.9138C195.577 76.6762 196.717 76.7531 197.801 76.7321C198.308 76.7251 198.308 75.9286 197.801 75.9356C196.647 75.9566 195.438 75.8867 194.306 76.1452C193.812 76.257 194.021 77.0256 194.514 76.9138Z" fill="white"/>
<path d="M221.692 116.938C229.051 102.356 234.798 86.327 234.18 69.7463C233.617 54.64 227.196 40.5817 216.633 29.9053C194.069 7.09209 158.546 -3.24198 127.393 3.06746C97.449 9.13235 70.1946 30.3385 60.8828 60.1948C56.4354 74.4557 56.6856 89.9393 62.634 103.718C68.6658 117.699 79.7566 127.544 92.0704 135.943C107.108 146.2 124.321 153.928 142.479 156.122C161.172 158.379 179.588 154.068 195.487 144.006C196.884 143.126 195.598 140.89 194.195 141.777C166.44 159.343 133.668 156.36 105.573 141.169C92.7584 134.238 79.5273 125.343 70.9521 113.305C62.766 101.818 59.215 87.7104 60.6674 73.6801C63.8362 43.0412 88.1998 18.3275 116.351 8.72011C146.121 -1.4323 178.58 4.87714 204.132 22.7714C218.072 32.5325 228.62 46.5977 231.087 63.7932C233.665 81.8132 227.488 99.7843 219.482 115.638C218.739 117.113 220.949 118.419 221.699 116.938H221.692Z" fill="url(#paint0_linear_924_22600)"/>
<path d="M69.187 42.2366C51.5084 65.7276 48.8052 98.4137 67.1231 122.45C75.8512 133.902 88.6028 142.58 101.229 149.155C114.766 156.205 129.728 160.774 145.023 161.271C162.395 161.83 179.337 156.778 193.986 147.492C195.376 146.611 194.09 144.376 192.693 145.263C166.843 161.655 136.037 162.242 108.436 149.805C82.432 138.087 58.124 117.475 56.9635 86.8359C56.3659 71.1008 62.0433 55.9804 71.4107 43.5432C72.4044 42.2227 70.1807 40.93 69.1939 42.2436L69.187 42.2366Z" fill="url(#paint1_linear_924_22600)"/>
<path d="M210.886 111.018C224.305 87.9255 231.532 59.1801 213.555 36.311C196.738 14.9162 166.62 4.10702 140.11 7.54472C114.203 10.9056 89.7842 27.1438 79.4925 51.7597C74.5517 63.5821 73.2592 76.8857 77.0326 89.2321C80.9241 101.97 89.4089 111.095 99.8117 118.928C112.959 128.822 127.963 137.311 144.349 140.036C160.13 142.656 175.522 139.037 188.99 130.54C190.386 129.66 189.101 127.431 187.697 128.312C175.946 135.725 162.666 139.484 148.761 138.045C135.301 136.647 122.647 130.939 111.292 123.756C100.104 116.678 88.8391 108.475 82.6683 96.387C76.8866 85.0538 75.9902 71.9178 79.4092 59.7321C86.2332 35.4376 107.623 17.7041 131.514 11.765C157.031 5.41363 185.112 12.848 204.639 30.5466C215.549 40.4405 222.262 53.9467 222.033 68.8784C221.81 83.5166 215.904 97.2744 208.676 109.719C207.843 111.158 210.059 112.458 210.893 111.018H210.886Z" fill="url(#paint2_linear_924_22600)"/>
<path d="M210.365 111.076C217.474 98.4986 222.178 84.1538 220.226 69.5436C218.475 56.4845 211.289 44.8368 201.825 35.9491C180.213 15.6583 148.838 8.45449 120.687 17.6566C106.205 22.387 93.2934 31.1839 83.8565 43.2158C82.8419 44.5084 84.6487 46.3461 85.6702 45.0395C107.615 17.0697 147.649 8.53833 179.448 23.8054C194.028 30.8065 207.585 42.2027 214.173 57.3439C221.796 74.8609 217.189 93.7892 208.155 109.776C207.335 111.222 209.552 112.522 210.372 111.076H210.365Z" fill="url(#paint3_linear_924_22600)"/>
<path d="M189.58 129.774C190.901 123.981 193.68 118.615 198.253 114.758C200.629 112.753 205.473 109.427 208.614 111.537C209.99 112.46 211.275 110.231 209.906 109.308C206.265 106.863 201.185 109.399 198.086 111.628C192.304 115.799 188.677 122.193 187.106 129.082C186.738 130.696 189.212 131.388 189.58 129.767V129.774Z" fill="url(#paint4_linear_924_22600)"/>
<path d="M188.003 130.673C192.541 132.434 196.453 135.662 200.685 138.024C202.13 138.827 203.423 136.605 201.978 135.795C197.537 133.314 193.451 130.03 188.684 128.179C187.141 127.578 186.474 130.072 188.003 130.666V130.673Z" fill="url(#paint5_linear_924_22600)"/>
<path d="M196.029 144.007C197.822 141.562 200.852 140.269 202.964 138.124C204.125 136.943 202.311 135.119 201.151 136.3C198.85 138.634 195.779 140.025 193.812 142.708C192.832 144.042 195.056 145.335 196.029 144.007Z" fill="url(#paint6_linear_924_22600)"/>
<path d="M193.819 147.402C197.21 145.18 199.281 141.694 202.235 138.997C203.458 137.879 201.644 136.062 200.421 137.173C197.648 139.702 195.702 143.091 192.52 145.173C191.144 146.075 192.422 148.311 193.812 147.402H193.819Z" fill="url(#paint7_linear_924_22600)"/>
<path d="M209.135 111.481C211.831 112.627 232.262 121.032 229.072 125.273C228.078 126.594 230.302 127.887 231.289 126.573C233.777 123.268 230.948 120.348 228.169 118.454C222.728 114.737 216.48 111.816 210.435 109.252C208.934 108.616 207.62 110.838 209.142 111.481H209.135Z" fill="url(#paint8_linear_924_22600)"/>
<path d="M194.917 146.99C199.052 147.486 202.214 151.616 205.925 153.258C207.419 153.922 208.725 151.7 207.217 151.029C202.937 149.128 199.747 144.992 194.917 144.405C193.284 144.209 193.298 146.788 194.917 146.983V146.99Z" fill="url(#paint9_linear_924_22600)"/>
<path d="M206.328 152.795C208.677 156.031 212.672 156.464 215.174 153.173C216.175 151.852 213.951 150.567 212.957 151.873C211.679 153.55 209.67 153.061 208.538 151.496C207.572 150.168 205.348 151.454 206.321 152.795H206.328Z" fill="url(#paint10_linear_924_22600)"/>
<path d="M212.922 150.324C210.226 144.28 211.79 137.167 215.285 131.78C218.468 126.868 224.159 122.515 229.816 126.302C231.192 127.224 232.477 124.995 231.108 124.073C224.951 119.95 218.315 123.486 214.243 128.81C209.337 135.224 207.342 144.077 210.706 151.616C211.38 153.126 213.589 151.819 212.922 150.317V150.324Z" fill="url(#paint11_linear_924_22600)"/>
<path d="M211.477 152.803C228.162 159.553 241.289 173.527 256.716 182.568C258.147 183.407 259.44 181.178 258.008 180.34C242.366 171.172 229.093 157.163 212.158 150.316C210.629 149.694 209.962 152.188 211.477 152.803Z" fill="url(#paint12_linear_924_22600)"/>
<path d="M229.232 126.307C250.295 137.577 269.356 152.446 290.586 163.416C292.052 164.171 293.351 161.949 291.878 161.187C270.649 150.217 251.587 135.348 230.524 124.078C229.065 123.296 227.773 125.524 229.232 126.307Z" fill="url(#paint13_linear_924_22600)"/>
</g>
<defs>
<linearGradient id="paint0_linear_924_22600" x1="80.4181" y1="9.1096" x2="234.596" y2="129.455" gradientUnits="userSpaceOnUse">
<stop stop-color="white" stop-opacity="0.45"/>
<stop offset="1" stop-color="white" stop-opacity="0"/>
</linearGradient>
<linearGradient id="paint1_linear_924_22600" x1="72.5276" y1="47.7472" x2="191.995" y2="143.925" gradientUnits="userSpaceOnUse">
<stop stop-color="white" stop-opacity="0.45"/>
<stop offset="1" stop-color="white" stop-opacity="0"/>
</linearGradient>
<linearGradient id="paint2_linear_924_22600" x1="93.9851" y1="13.6934" x2="226.269" y2="115.206" gradientUnits="userSpaceOnUse">
<stop stop-color="white" stop-opacity="0.45"/>
<stop offset="1" stop-color="white" stop-opacity="0"/>
</linearGradient>
<linearGradient id="paint3_linear_924_22600" x1="101.119" y1="18.667" x2="201.231" y2="115.024" gradientUnits="userSpaceOnUse">
<stop stop-color="white" stop-opacity="0.45"/>
<stop offset="1" stop-color="white" stop-opacity="0"/>
</linearGradient>
<linearGradient id="paint4_linear_924_22600" x1="190.069" y1="109.441" x2="211.768" y2="125.061" gradientUnits="userSpaceOnUse">
<stop stop-color="white"/>
<stop offset="1" stop-color="white" stop-opacity="0"/>
</linearGradient>
<linearGradient id="paint5_linear_924_22600" x1="189.119" y1="128.597" x2="199.441" y2="139.464" gradientUnits="userSpaceOnUse">
<stop stop-color="white"/>
<stop offset="1" stop-color="white" stop-opacity="0"/>
</linearGradient>
<linearGradient id="paint6_linear_924_22600" x1="194.82" y1="136.355" x2="203.385" y2="143.013" gradientUnits="userSpaceOnUse">
<stop stop-color="white"/>
<stop offset="1" stop-color="white" stop-opacity="0"/>
</linearGradient>
<linearGradient id="paint7_linear_924_22600" x1="193.301" y1="137.372" x2="203.575" y2="144.389" gradientUnits="userSpaceOnUse">
<stop stop-color="white"/>
<stop offset="1" stop-color="white" stop-opacity="0"/>
</linearGradient>
<linearGradient id="paint8_linear_924_22600" x1="211.511" y1="110.048" x2="229.813" y2="126.699" gradientUnits="userSpaceOnUse">
<stop stop-color="white"/>
<stop offset="1" stop-color="white" stop-opacity="0"/>
</linearGradient>
<linearGradient id="paint9_linear_924_22600" x1="195.515" y1="144.849" x2="204.67" y2="154.794" gradientUnits="userSpaceOnUse">
<stop stop-color="white"/>
<stop offset="1" stop-color="white" stop-opacity="0"/>
</linearGradient>
<linearGradient id="paint10_linear_924_22600" x1="207.277" y1="151.165" x2="211.604" y2="157.343" gradientUnits="userSpaceOnUse">
<stop stop-color="white"/>
<stop offset="1" stop-color="white" stop-opacity="0"/>
</linearGradient>
<linearGradient id="paint11_linear_924_22600" x1="211.939" y1="123.79" x2="237.038" y2="136.823" gradientUnits="userSpaceOnUse">
<stop stop-color="white"/>
<stop offset="1" stop-color="white" stop-opacity="0"/>
</linearGradient>
<linearGradient id="paint12_linear_924_22600" x1="216.771" y1="151.863" x2="250.031" y2="185.623" gradientUnits="userSpaceOnUse">
<stop stop-color="white"/>
<stop offset="1" stop-color="white" stop-opacity="0"/>
</linearGradient>
<linearGradient id="paint13_linear_924_22600" x1="236.78" y1="125.92" x2="277.105" y2="170.644" gradientUnits="userSpaceOnUse">
<stop stop-color="white"/>
<stop offset="1" stop-color="white" stop-opacity="0"/>
</linearGradient>
</defs>
</svg>
