<svg width="300" height="149" viewBox="0 0 300 149" fill="none" xmlns="http://www.w3.org/2000/svg">
<g opacity="0.3">
<path d="M106.984 128.225C106.984 138.564 98.4589 146.98 87.8991 146.98C77.3392 146.98 68.814 138.564 68.814 128.225C68.814 117.887 77.3392 109.471 87.8991 109.471C98.4589 109.471 106.984 117.887 106.984 128.225Z" stroke="url(#paint0_linear_773_12676)" stroke-width="3"/>
<path d="M88.0928 137.406V139.714" stroke="url(#paint1_linear_773_12676)" stroke-width="3" stroke-linecap="round"/>
<path d="M88.0905 118.942V116.057" stroke="url(#paint2_linear_773_12676)" stroke-width="3" stroke-linecap="round"/>
<path d="M92.7178 120.196C91.5004 119.544 89.6521 118.935 87.924 118.941C85.8414 118.951 83.9335 119.856 83.5142 122.662C82.9619 126.364 87.1536 127.693 89.6509 129.03C93.103 130.879 93.0718 134.345 90.9938 136.015C90.0592 136.766 88.9985 137.178 87.9263 137.334C86.359 137.562 84.7686 137.242 83.5159 136.632" stroke="url(#paint3_linear_773_12676)" stroke-width="3" stroke-linecap="round"/>
<path d="M132.722 137.406V139.714" stroke="url(#paint4_linear_773_12676)" stroke-width="3" stroke-linecap="round"/>
<path d="M132.72 118.942V116.057" stroke="url(#paint5_linear_773_12676)" stroke-width="3" stroke-linecap="round"/>
<path d="M137.347 120.196C136.129 119.544 134.281 118.935 132.553 118.941C130.47 118.951 128.562 119.856 128.143 122.662C127.591 126.364 131.783 127.693 134.28 129.03C137.732 130.879 137.701 134.345 135.623 136.015C134.688 136.766 133.628 137.178 132.555 137.334C130.988 137.562 129.398 137.242 128.145 136.632" stroke="url(#paint6_linear_773_12676)" stroke-width="3" stroke-linecap="round"/>
<path d="M177.35 137.406L177.351 139.714" stroke="url(#paint7_linear_773_12676)" stroke-width="3" stroke-linecap="round"/>
<path d="M177.349 118.942V116.057" stroke="url(#paint8_linear_773_12676)" stroke-width="3" stroke-linecap="round"/>
<path d="M181.976 120.196C180.758 119.544 178.91 118.935 177.182 118.941C175.099 118.951 173.192 119.856 172.772 122.662C172.22 126.364 176.412 127.693 178.909 129.03C182.361 130.879 182.33 134.345 180.252 136.015C179.317 136.766 178.257 137.178 177.184 137.334C175.617 137.562 174.027 137.242 172.774 136.632" stroke="url(#paint9_linear_773_12676)" stroke-width="3" stroke-linecap="round"/>
<path d="M221.979 137.406L221.98 139.714" stroke="url(#paint10_linear_773_12676)" stroke-width="3" stroke-linecap="round"/>
<path d="M221.978 118.942V116.057" stroke="url(#paint11_linear_773_12676)" stroke-width="3" stroke-linecap="round"/>
<path d="M226.605 120.196C225.388 119.544 223.539 118.935 221.811 118.941C219.729 118.951 217.821 119.856 217.401 122.662C216.849 126.364 221.041 127.693 223.538 129.03C226.99 130.879 226.959 134.345 224.881 136.015C223.946 136.766 222.886 137.178 221.814 137.334C220.246 137.562 218.656 137.242 217.403 136.632" stroke="url(#paint12_linear_773_12676)" stroke-width="3" stroke-linecap="round"/>
<path d="M151.516 127.936C151.516 138.275 142.991 146.691 132.431 146.691C121.871 146.691 113.346 138.275 113.346 127.936C113.346 117.597 121.871 109.182 132.431 109.182C142.991 109.182 151.516 117.597 151.516 127.936Z" stroke="url(#paint13_linear_773_12676)" stroke-width="3"/>
<path d="M196.048 127.936C196.048 138.275 187.523 146.691 176.963 146.691C166.403 146.691 157.878 138.275 157.878 127.936C157.878 117.597 166.403 109.182 176.963 109.182C187.523 109.182 196.048 117.597 196.048 127.936Z" stroke="url(#paint14_linear_773_12676)" stroke-width="3"/>
<path d="M240.58 127.936C240.58 138.275 232.055 146.691 221.495 146.691C210.935 146.691 202.41 138.275 202.41 127.936C202.41 117.597 210.935 109.182 221.495 109.182C232.055 109.182 240.58 117.597 240.58 127.936Z" stroke="url(#paint15_linear_773_12676)" stroke-width="3"/>
<path d="M43.6561 97.6421C42.4994 97.4499 38.5089 95.2184 31.8002 87.832" stroke="url(#paint16_linear_773_12676)" stroke-width="3" stroke-linecap="round"/>
<path d="M36.7161 111.779C28.4266 108.125 9.88125 96.6604 2.01587 80.041" stroke="url(#paint17_linear_773_12676)" stroke-width="3" stroke-linecap="round"/>
<path d="M39.3185 134.862C33.6316 133.323 19.8286 127.187 10.1125 114.953" stroke="url(#paint18_linear_773_12676)" stroke-width="3" stroke-linecap="round"/>
<path d="M255.906 91.0053C257.062 90.8132 261.053 88.5817 267.762 81.1953" stroke="url(#paint19_linear_773_12676)" stroke-width="3" stroke-linecap="round"/>
<path d="M262.846 105.143C271.135 101.488 289.681 90.0237 297.546 73.4043" stroke="url(#paint20_linear_773_12676)" stroke-width="3" stroke-linecap="round"/>
<path d="M260.243 128.225C265.93 126.686 279.733 120.55 289.449 108.316" stroke="url(#paint21_linear_773_12676)" stroke-width="3" stroke-linecap="round"/>
<path d="M132.431 5.3125V107.741" stroke="url(#paint22_linear_773_12676)" stroke-width="3" stroke-linecap="round"/>
<path d="M88.1882 5.59961V108.028" stroke="url(#paint23_linear_773_12676)" stroke-width="3" stroke-linecap="round"/>
<path d="M176.095 5.3125V107.741" stroke="url(#paint24_linear_773_12676)" stroke-width="3" stroke-linecap="round"/>
<path d="M221.206 5.3125V107.741" stroke="url(#paint25_linear_773_12676)" stroke-width="3" stroke-linecap="round"/>
<path d="M55.2228 -12H232.772C242.354 -12 250.122 -4.24926 250.122 5.31183V5.8889H72.5731C62.9906 5.8889 55.2228 -1.8619 55.2228 -11.4229V-12Z" fill="url(#paint26_linear_773_12676)"/>
</g>
<defs>
<linearGradient id="paint0_linear_773_12676" x1="87.8991" y1="109.471" x2="87.8991" y2="146.98" gradientUnits="userSpaceOnUse">
<stop stop-color="white"/>
<stop offset="1" stop-color="white" stop-opacity="0"/>
</linearGradient>
<linearGradient id="paint1_linear_773_12676" x1="88.5928" y1="137.406" x2="88.5928" y2="139.714" gradientUnits="userSpaceOnUse">
<stop stop-color="white"/>
<stop offset="1" stop-color="white" stop-opacity="0"/>
</linearGradient>
<linearGradient id="paint2_linear_773_12676" x1="88.5905" y1="116.057" x2="88.5905" y2="118.942" gradientUnits="userSpaceOnUse">
<stop stop-color="white"/>
<stop offset="1" stop-color="white" stop-opacity="0"/>
</linearGradient>
<linearGradient id="paint3_linear_773_12676" x1="88.0912" y1="118.941" x2="88.0912" y2="137.408" gradientUnits="userSpaceOnUse">
<stop stop-color="white"/>
<stop offset="1" stop-color="white" stop-opacity="0"/>
</linearGradient>
<linearGradient id="paint4_linear_773_12676" x1="133.222" y1="137.406" x2="133.222" y2="139.714" gradientUnits="userSpaceOnUse">
<stop stop-color="white"/>
<stop offset="1" stop-color="white" stop-opacity="0"/>
</linearGradient>
<linearGradient id="paint5_linear_773_12676" x1="133.22" y1="116.057" x2="133.22" y2="118.942" gradientUnits="userSpaceOnUse">
<stop stop-color="white"/>
<stop offset="1" stop-color="white" stop-opacity="0"/>
</linearGradient>
<linearGradient id="paint6_linear_773_12676" x1="132.72" y1="118.941" x2="132.72" y2="137.408" gradientUnits="userSpaceOnUse">
<stop stop-color="white"/>
<stop offset="1" stop-color="white" stop-opacity="0"/>
</linearGradient>
<linearGradient id="paint7_linear_773_12676" x1="177.351" y1="137.406" x2="177.351" y2="139.714" gradientUnits="userSpaceOnUse">
<stop stop-color="white"/>
<stop offset="1" stop-color="white" stop-opacity="0"/>
</linearGradient>
<linearGradient id="paint8_linear_773_12676" x1="177.849" y1="116.057" x2="177.849" y2="118.942" gradientUnits="userSpaceOnUse">
<stop stop-color="white"/>
<stop offset="1" stop-color="white" stop-opacity="0"/>
</linearGradient>
<linearGradient id="paint9_linear_773_12676" x1="177.349" y1="118.941" x2="177.349" y2="137.408" gradientUnits="userSpaceOnUse">
<stop stop-color="white"/>
<stop offset="1" stop-color="white" stop-opacity="0"/>
</linearGradient>
<linearGradient id="paint10_linear_773_12676" x1="221.98" y1="137.406" x2="221.98" y2="139.714" gradientUnits="userSpaceOnUse">
<stop stop-color="white"/>
<stop offset="1" stop-color="white" stop-opacity="0"/>
</linearGradient>
<linearGradient id="paint11_linear_773_12676" x1="222.478" y1="116.057" x2="222.478" y2="118.942" gradientUnits="userSpaceOnUse">
<stop stop-color="white"/>
<stop offset="1" stop-color="white" stop-opacity="0"/>
</linearGradient>
<linearGradient id="paint12_linear_773_12676" x1="221.978" y1="118.941" x2="221.978" y2="137.408" gradientUnits="userSpaceOnUse">
<stop stop-color="white"/>
<stop offset="1" stop-color="white" stop-opacity="0"/>
</linearGradient>
<linearGradient id="paint13_linear_773_12676" x1="132.431" y1="109.182" x2="132.431" y2="146.691" gradientUnits="userSpaceOnUse">
<stop stop-color="white"/>
<stop offset="1" stop-color="white" stop-opacity="0"/>
</linearGradient>
<linearGradient id="paint14_linear_773_12676" x1="176.963" y1="109.182" x2="176.963" y2="146.691" gradientUnits="userSpaceOnUse">
<stop stop-color="white"/>
<stop offset="1" stop-color="white" stop-opacity="0"/>
</linearGradient>
<linearGradient id="paint15_linear_773_12676" x1="221.495" y1="109.182" x2="221.495" y2="146.691" gradientUnits="userSpaceOnUse">
<stop stop-color="white"/>
<stop offset="1" stop-color="white" stop-opacity="0"/>
</linearGradient>
<linearGradient id="paint16_linear_773_12676" x1="37.7281" y1="87.832" x2="37.7281" y2="97.6421" gradientUnits="userSpaceOnUse">
<stop stop-color="white"/>
<stop offset="1" stop-color="white" stop-opacity="0"/>
</linearGradient>
<linearGradient id="paint17_linear_773_12676" x1="19.366" y1="80.041" x2="19.366" y2="111.779" gradientUnits="userSpaceOnUse">
<stop stop-color="white"/>
<stop offset="1" stop-color="white" stop-opacity="0"/>
</linearGradient>
<linearGradient id="paint18_linear_773_12676" x1="24.7155" y1="114.953" x2="24.7155" y2="134.862" gradientUnits="userSpaceOnUse">
<stop stop-color="white"/>
<stop offset="1" stop-color="white" stop-opacity="0"/>
</linearGradient>
<linearGradient id="paint19_linear_773_12676" x1="261.834" y1="81.1953" x2="261.834" y2="91.0053" gradientUnits="userSpaceOnUse">
<stop stop-color="white"/>
<stop offset="1" stop-color="white" stop-opacity="0"/>
</linearGradient>
<linearGradient id="paint20_linear_773_12676" x1="280.196" y1="73.4043" x2="280.196" y2="105.143" gradientUnits="userSpaceOnUse">
<stop stop-color="white"/>
<stop offset="1" stop-color="white" stop-opacity="0"/>
</linearGradient>
<linearGradient id="paint21_linear_773_12676" x1="274.846" y1="108.316" x2="274.846" y2="128.225" gradientUnits="userSpaceOnUse">
<stop stop-color="white"/>
<stop offset="1" stop-color="white" stop-opacity="0"/>
</linearGradient>
<linearGradient id="paint22_linear_773_12676" x1="132.931" y1="5.3125" x2="132.931" y2="107.741" gradientUnits="userSpaceOnUse">
<stop stop-color="white"/>
<stop offset="1" stop-color="white" stop-opacity="0"/>
</linearGradient>
<linearGradient id="paint23_linear_773_12676" x1="88.6882" y1="5.59961" x2="88.6882" y2="108.028" gradientUnits="userSpaceOnUse">
<stop stop-color="white"/>
<stop offset="1" stop-color="white" stop-opacity="0"/>
</linearGradient>
<linearGradient id="paint24_linear_773_12676" x1="176.595" y1="5.3125" x2="176.595" y2="107.741" gradientUnits="userSpaceOnUse">
<stop stop-color="white"/>
<stop offset="1" stop-color="white" stop-opacity="0"/>
</linearGradient>
<linearGradient id="paint25_linear_773_12676" x1="221.706" y1="5.3125" x2="221.706" y2="107.741" gradientUnits="userSpaceOnUse">
<stop stop-color="white"/>
<stop offset="1" stop-color="white" stop-opacity="0"/>
</linearGradient>
<linearGradient id="paint26_linear_773_12676" x1="152.673" y1="-12" x2="152.673" y2="5.8889" gradientUnits="userSpaceOnUse">
<stop stop-color="white"/>
<stop offset="1" stop-color="white" stop-opacity="0"/>
</linearGradient>
</defs>
</svg>
