<svg width="102" height="67" viewBox="0 0 102 67" fill="none" xmlns="http://www.w3.org/2000/svg">
<path d="M15 27C21.63 27 27 21.627 27 15C27 8.373 21.63 3 15 3C8.37 3 3 8.373 3 15C3 21.627 8.37 27 15 27Z" stroke="url(#paint0_linear_850_13009)" stroke-opacity="0.2" stroke-width="5"/>
<path d="M38.58 4.5C47.37 4.5 72.4999 4.5 84.3199 4.5C93.8899 4.5 98.5 6.618 98.5 21.442C98.5 35.845 98.38 54.502 98.5 62.032C98.58 67.326 95.95 73.185 87.15 74.032C78.36 74.879 43.07 74.385 26.52 74.032C20.37 74.032 9.5 70.548 9.5 56.384V40.501" stroke="url(#paint1_linear_850_13009)" stroke-opacity="0.2" stroke-width="5" stroke-linecap="round"/>
<path d="M32.5 29.5L54.5 44.5" stroke="url(#paint2_linear_850_13009)" stroke-opacity="0.2" stroke-width="5" stroke-linecap="round"/>
<path d="M54.5 44.5L94.5 7.5" stroke="url(#paint3_linear_850_13009)" stroke-opacity="0.2" stroke-width="5" stroke-linecap="round"/>
<path d="M64.64 35.5L75.5699 46.5L86.5 57.5" stroke="url(#paint4_linear_850_13009)" stroke-opacity="0.2" stroke-width="5" stroke-linecap="round"/>
<path d="M24.5 57.5L40.63 35.5" stroke="url(#paint5_linear_850_13009)" stroke-opacity="0.2" stroke-width="5" stroke-linecap="round"/>
<defs>
<linearGradient id="paint0_linear_850_13009" x1="15" y1="3" x2="15" y2="27" gradientUnits="userSpaceOnUse">
<stop stop-color="white"/>
<stop offset="1" stop-color="white" stop-opacity="0"/>
</linearGradient>
<linearGradient id="paint1_linear_850_13009" x1="54.0009" y1="4.5" x2="54.0009" y2="74.4997" gradientUnits="userSpaceOnUse">
<stop stop-color="white"/>
<stop offset="1" stop-color="white" stop-opacity="0"/>
</linearGradient>
<linearGradient id="paint2_linear_850_13009" x1="43.5" y1="29.5" x2="43.5" y2="44.5" gradientUnits="userSpaceOnUse">
<stop stop-color="white"/>
<stop offset="1" stop-color="white" stop-opacity="0"/>
</linearGradient>
<linearGradient id="paint3_linear_850_13009" x1="74.5" y1="7.5" x2="74.5" y2="44.5" gradientUnits="userSpaceOnUse">
<stop stop-color="white"/>
<stop offset="1" stop-color="white" stop-opacity="0"/>
</linearGradient>
<linearGradient id="paint4_linear_850_13009" x1="75.57" y1="35.5" x2="75.57" y2="57.5" gradientUnits="userSpaceOnUse">
<stop stop-color="white"/>
<stop offset="1" stop-color="white" stop-opacity="0"/>
</linearGradient>
<linearGradient id="paint5_linear_850_13009" x1="32.565" y1="35.5" x2="32.565" y2="57.5" gradientUnits="userSpaceOnUse">
<stop stop-color="white"/>
<stop offset="1" stop-color="white" stop-opacity="0"/>
</linearGradient>
</defs>
</svg>
