<svg width="40" height="40" viewBox="0 0 40 40" fill="none" xmlns="http://www.w3.org/2000/svg">
<path d="M22.1366 3.02539C22.5757 3.02539 22.9135 3.38362 22.9135 3.8101V9.30304C22.9135 12.4248 25.4639 14.9836 28.5547 15.0007C29.8384 15.0007 30.8518 15.0178 31.6287 15.0178L31.9165 15.0165C32.4357 15.0125 33.1347 15.0007 33.7399 15.0007C34.1622 15.0007 34.5 15.3418 34.5 15.7683V29.4836C34.5 33.7142 31.1051 37.143 26.9164 37.143H13.4721C9.08067 37.143 5.5 33.5436 5.5 29.1083V10.7189C5.5 6.48833 8.91173 3.02539 13.1173 3.02539H22.1366ZM23.9438 25.0312H14.7557C14.0632 25.0312 13.4889 25.5942 13.4889 26.2936C13.4889 26.993 14.0632 27.573 14.7557 27.573H23.9438C24.6363 27.573 25.2105 26.993 25.2105 26.2936C25.2105 25.5942 24.6363 25.0312 23.9438 25.0312ZM20.4645 16.5018H14.7557C14.0632 16.5018 13.4889 17.0818 13.4889 17.7812C13.4889 18.4807 14.0632 19.0436 14.7557 19.0436H20.4645C21.1569 19.0436 21.7312 18.4807 21.7312 17.7812C21.7312 17.0818 21.1569 16.5018 20.4645 16.5018ZM25.3747 4.57092C25.3747 3.83568 26.2581 3.47062 26.7631 4.00116C28.5889 5.91856 31.7794 9.27064 33.5629 11.1437C34.0561 11.6606 33.6947 12.5186 32.9836 12.5203C31.5953 12.5254 29.9587 12.5203 28.7814 12.5084C26.9134 12.5084 25.3747 10.9543 25.3747 9.06764V4.57092Z" fill="#B476E5"/>
<path d="M20.4648 16.502H14.756C14.0635 16.502 13.4893 17.082 13.4893 17.7814C13.4893 18.4808 14.0635 19.0438 14.756 19.0438H20.4648C21.1573 19.0438 21.7315 18.4808 21.7315 17.7814C21.7315 17.082 21.1573 16.502 20.4648 16.502Z" fill="#08111F"/>
<path d="M23.9441 25.0312H14.756C14.0635 25.0312 13.4893 25.5942 13.4893 26.2937C13.4893 26.9931 14.0635 27.573 14.756 27.573H23.9441C24.6366 27.573 25.2109 26.9931 25.2109 26.2937C25.2109 25.5942 24.6366 25.0312 23.9441 25.0312Z" fill="#08111F"/>
<path fill-rule="evenodd" clip-rule="evenodd" d="M26.7627 4.00153C26.2577 3.471 25.3743 3.83606 25.3743 4.57129V9.068C25.3743 10.9547 26.913 12.5087 28.7811 12.5087C29.9583 12.5207 31.5949 12.5258 32.9833 12.5207C33.6943 12.519 34.0558 11.6609 33.5626 11.1441C32.6721 10.2089 31.4309 8.905 30.1839 7.59513C28.9333 6.28142 27.6769 4.96162 26.7627 4.00153Z" fill="#47BDFF"/>
</svg>
