<svg width="40" height="40" viewBox="0 0 40 40" fill="none" xmlns="http://www.w3.org/2000/svg">
<path d="M20.0335 14.25H7.50748C4.44768 14.25 1.96722 16.7305 1.96722 19.7903V32.3163C1.96722 35.3761 4.44768 37.8566 7.50748 37.8566H20.0335C23.0933 37.8566 25.5738 35.3761 25.5738 32.3163V19.7903C25.5738 16.7305 23.0933 14.25 20.0335 14.25Z" fill="#B476E5"/>
<path d="M31.8368 2.44531H19.3108C16.251 2.44531 13.7705 4.92577 13.7705 7.98557V20.5116C13.7705 23.5714 16.251 26.0519 19.3108 26.0519H31.8368C34.8966 26.0519 37.3771 23.5714 37.3771 20.5116V7.98557C37.3771 4.92577 34.8966 2.44531 31.8368 2.44531Z" fill="#47BDFF"/>
<path fill-rule="evenodd" clip-rule="evenodd" d="M25.5738 26.0533H19.3108C16.251 26.0533 13.7705 23.5728 13.7705 20.513V14.25H20.0335C23.0933 14.25 25.5738 16.7305 25.5738 19.7903V26.0533Z" fill="#08111F"/>
</svg>
