<svg width="40" height="40" viewBox="0 0 40 40" fill="none" xmlns="http://www.w3.org/2000/svg">
<path fill-rule="evenodd" clip-rule="evenodd" d="M23.5351 15.8717C23.2033 15.3029 22.5943 14.9531 21.9358 14.9531H11.102C10.4434 14.9531 9.83448 15.3029 9.50267 15.8717L4.10235 25.1294C3.76606 25.7059 3.76606 26.4188 4.10235 26.9953L9.50267 36.253C9.83448 36.8218 10.4434 37.1716 11.102 37.1716H21.9358C22.5943 37.1716 23.2033 36.8218 23.5351 36.253L28.9354 26.9953C29.2717 26.4188 29.2717 25.7059 28.9354 25.1294L23.5351 15.8717ZM16.5189 31.2741C19.4351 31.2741 21.7992 28.91 21.7992 25.9938C21.7992 23.0776 19.4351 20.7135 16.5189 20.7135C13.6027 20.7135 11.2386 23.0776 11.2386 25.9938C11.2386 28.91 13.6027 31.2741 16.5189 31.2741Z" fill="#47BDFF"/>
<path fill-rule="evenodd" clip-rule="evenodd" d="M30.6374 3.67673C30.386 3.25889 29.9245 3.00195 29.4255 3.00195H21.2154C20.7164 3.00195 20.2549 3.25889 20.0034 3.67673L15.911 10.4771C15.6561 10.9006 15.6561 11.4242 15.911 11.8477L20.0034 18.6481C20.2549 19.066 20.7164 19.3229 21.2154 19.3229H29.4255C29.9245 19.3229 30.386 19.066 30.6374 18.6481L34.7299 11.8477C34.9847 11.4242 34.9847 10.9006 34.7299 10.4771L30.6374 3.67673ZM25.3205 14.9908C27.5304 14.9908 29.3219 13.2542 29.3219 11.1121C29.3219 8.96989 27.5304 7.23331 25.3205 7.23331C23.1105 7.23331 21.3189 8.96989 21.3189 11.1121C21.3189 13.2542 23.1105 14.9908 25.3205 14.9908Z" fill="#B476E5"/>
<path fill-rule="evenodd" clip-rule="evenodd" d="M25.5491 19.3244L23.5351 15.8717C23.2032 15.3029 22.5943 14.9531 21.9358 14.9531H17.7791L20.0036 18.6496C20.255 19.0675 20.7165 19.3244 21.2155 19.3244H25.5491Z" fill="#08111F"/>
</svg>
