<svg width="40" height="40" viewBox="0 0 40 40" fill="none" xmlns="http://www.w3.org/2000/svg">
<path d="M9.25175 22.8926H2.67813C1.58662 22.8926 0.701782 23.7774 0.701782 24.8689V36.8477C0.701782 37.9392 1.58662 38.8241 2.67813 38.8241H9.25175C10.3433 38.8241 11.2281 37.9392 11.2281 36.8477V24.8689C11.2281 23.7774 10.3433 22.8926 9.25175 22.8926Z" fill="#47BDFF"/>
<path d="M22.936 12.0098H16.3623C15.2708 12.0098 14.386 12.8946 14.386 13.9861V36.8482C14.386 37.9397 15.2708 38.8245 16.3623 38.8245H22.936C24.0275 38.8245 24.9123 37.9397 24.9123 36.8482V13.9861C24.9123 12.8946 24.0275 12.0098 22.936 12.0098Z" fill="currentColor" />
<path d="M36.6202 0.929688H30.0465C28.955 0.929688 28.0702 1.81453 28.0702 2.90604V36.8481C28.0702 37.9396 28.955 38.8244 30.0465 38.8244H36.6202C37.7117 38.8244 38.5965 37.9396 38.5965 36.8481V2.90604C38.5965 1.81453 37.7117 0.929688 36.6202 0.929688Z" fill="#B476E5"/>
</svg>
