<svg width="40" height="40" viewBox="0 0 40 40" fill="none" xmlns="http://www.w3.org/2000/svg">
<path d="M8.01127 2.31836H3.93877C3.4203 2.31836 3 2.73866 3 3.25713V37.0798C3 37.5983 3.4203 38.0186 3.93877 38.0186H8.01127C8.52973 38.0186 8.95003 37.5983 8.95003 37.0798V3.25713C8.95003 2.73866 8.52973 2.31836 8.01127 2.31836Z" fill="#B476E5"/>
<mask id="mask0_733_15587" style="mask-type:alpha" maskUnits="userSpaceOnUse" x="10" y="2" width="28" height="23">
<path d="M34.1839 2.31836H13.4664C11.911 2.31836 10.6501 3.57926 10.6501 5.13466V21.6022C10.6501 23.1576 11.911 24.4185 13.4664 24.4185H34.1839C35.7393 24.4185 37.0002 23.1576 37.0002 21.6022V5.13466C37.0002 3.57926 35.7393 2.31836 34.1839 2.31836Z" fill="#01B969"/>
</mask>
<g mask="url(#mask0_733_15587)">
<path d="M34.1839 2.31836H13.4664C11.911 2.31836 10.6501 3.57926 10.6501 5.13466V21.6022C10.6501 23.1576 11.911 24.4185 13.4664 24.4185H34.1839C35.7393 24.4185 37.0002 23.1576 37.0002 21.6022V5.13466C37.0002 3.57926 35.7393 2.31836 34.1839 2.31836Z" fill="#47BDFF"/>
<path d="M37.2428 12.6993L25.2819 24.6602L37.2428 36.621L49.2036 24.6602L37.2428 12.6993Z" fill="#08111F"/>
</g>
</svg>
