<svg width="40" height="40" viewBox="0 0 40 40" fill="none" xmlns="http://www.w3.org/2000/svg">
<path d="M35.4885 2.06836H5.20114C3.85481 2.06836 2.75861 3.16457 2.75861 4.51089V7.52888C2.75861 9.7887 3.77665 11.8864 5.5509 13.2844L14.8765 20.6316H25.8122L35.1378 13.2844C36.9129 11.8864 37.931 9.78774 37.931 7.52888V4.51089C37.931 3.16457 36.8348 2.06836 35.4885 2.06836Z" fill="#47BDFF"/>
<path d="M15.46 23.5625V35.7752C15.46 36.3242 15.7668 36.8274 16.2543 37.0785C16.4664 37.187 16.696 37.2407 16.9255 37.2407C17.2255 37.2407 17.5244 37.1488 17.7775 36.9681L24.6166 32.0831C25.0015 31.8075 25.2302 31.363 25.2302 30.8901V23.5625H15.46Z" fill="#B476E5"/>
</svg>
