<svg width="92" height="124" viewBox="0 0 92 124" fill="none" xmlns="http://www.w3.org/2000/svg">
<path d="M0 20C0 8.9543 8.95431 0 20 0H72C83.0457 0 92 8.95431 92 20V102H0V20Z" fill="url(#paint0_linear_815_12534)" fill-opacity="0.24"/>
<path d="M66.6967 84.8699V75.3244C66.6967 74.4805 66.3614 73.6712 65.7647 73.0745C65.168 72.4778 64.3587 72.1426 63.5149 72.1426H25.333C24.4892 72.1426 23.6799 72.4778 23.0831 73.0745C22.4864 73.6712 22.1512 74.4805 22.1512 75.3244V110.324C22.1512 111.168 22.4864 111.978 23.0831 112.574C23.6799 113.171 24.4892 113.506 25.333 113.506H50.7876" stroke="#B476E5" stroke-width="3.4" stroke-linecap="round" stroke-linejoin="round"/>
<path d="M22.1512 81.6875H66.6967" stroke="url(#paint1_linear_815_12534)" stroke-width="3.4" stroke-linecap="round" stroke-linejoin="round"/>
<path d="M63.5212 91.2344L50.9827 105.835C50.8849 105.95 50.8222 106.092 50.802 106.242C50.7818 106.392 50.8049 106.545 50.8687 106.683C50.9324 106.82 51.0341 106.936 51.1618 107.018C51.2895 107.1 51.4378 107.143 51.5894 107.143H57.1576V119.871L69.6961 105.273C69.7936 105.157 69.8561 105.015 69.8762 104.865C69.8963 104.715 69.8731 104.562 69.8095 104.424C69.7458 104.287 69.6443 104.17 69.5167 104.088C69.3892 104.006 69.241 103.962 69.0894 103.962H63.5212V91.2344Z" stroke="url(#paint2_linear_815_12534)" stroke-width="3.4" stroke-linecap="round" stroke-linejoin="round"/>
<defs>
<linearGradient id="paint0_linear_815_12534" x1="46" y1="0" x2="46" y2="102" gradientUnits="userSpaceOnUse">
<stop stop-color="#B476E5"/>
<stop offset="1" stop-color="#B476E5" stop-opacity="0"/>
</linearGradient>
<linearGradient id="paint1_linear_815_12534" x1="67.5" y1="82.0001" x2="21" y2="82.0001" gradientUnits="userSpaceOnUse">
<stop stop-color="#B476E5"/>
<stop offset="1" stop-color="#B476E5" stop-opacity="0"/>
</linearGradient>
<linearGradient id="paint2_linear_815_12534" x1="57" y1="122" x2="64" y2="88.5" gradientUnits="userSpaceOnUse">
<stop stop-color="#B476E5"/>
<stop offset="1" stop-color="#B476E5" stop-opacity="0"/>
</linearGradient>
</defs>
</svg>
