<svg width="42" height="42" viewBox="0 0 42 42" fill="none" xmlns="http://www.w3.org/2000/svg">
<path d="M28.2174 5.67383C28.1401 6.15677 28.1014 6.63972 28.1014 7.12266C28.1014 11.4692 31.6174 14.9831 35.9445 14.9831C36.4275 14.9831 36.8911 14.9271 37.374 14.8498V30.4375C37.374 36.9881 33.5105 40.871 26.9424 40.871H12.6684C6.09838 40.871 2.2348 36.9881 2.2348 30.4375V16.1441C2.2348 9.57604 6.09838 5.67383 12.6684 5.67383H28.2174ZM28.6056 17.4191C28.0822 17.3611 27.5625 17.593 27.2515 18.018L22.5785 24.0644L17.2255 19.8531C16.897 19.602 16.5107 19.5035 16.1243 19.5441C15.7399 19.602 15.3922 19.8126 15.1585 20.1217L9.44231 27.561L9.32447 27.7349C8.99607 28.3511 9.15061 29.1431 9.73014 29.5701C10.0006 29.7439 10.2904 29.8599 10.6188 29.8599C11.065 29.8791 11.4881 29.6454 11.7585 29.2803L16.6073 23.0387L22.1129 27.1746L22.2867 27.2886C22.9049 27.6171 23.6777 27.4644 24.122 26.8829L29.7048 19.6793L29.6276 19.718C29.9367 19.293 29.9946 18.7521 29.7821 18.2691C29.5715 17.7862 29.106 17.4577 28.6056 17.4191Z" fill="url(#paint0_linear_779_12863)"/>
<path fill-rule="evenodd" clip-rule="evenodd" d="M40.8706 6.88999C40.8706 4.32071 38.7843 2.23438 36.215 2.23438C33.6457 2.23438 31.5594 4.32071 31.5594 6.88999C31.5594 9.45927 33.6457 11.5456 36.215 11.5456C38.7843 11.5456 40.8706 9.45927 40.8706 6.88999Z" fill="url(#paint1_linear_779_12863)"/>
<defs>
<linearGradient id="paint0_linear_779_12863" x1="28" y1="14" x2="3.5" y2="40" gradientUnits="userSpaceOnUse">
<stop stop-color="white"/>
<stop offset="1" stop-color="white" stop-opacity="0"/>
</linearGradient>
<linearGradient id="paint1_linear_779_12863" x1="39" y1="3.5" x2="33" y2="10" gradientUnits="userSpaceOnUse">
<stop stop-color="white" stop-opacity="0"/>
<stop offset="1" stop-color="white"/>
</linearGradient>
</defs>
</svg>
