<svg width="349" height="361" viewBox="0 0 349 361" fill="none" xmlns="http://www.w3.org/2000/svg">
<g opacity="0.12">
<path d="M49.6081 236.489L63.5967 229.632C65.6385 228.631 68.1033 229.523 69.0308 231.599L83.6415 264.298C84.4993 266.219 83.7298 268.476 81.8785 269.472L71.982 274.801C70.0931 275.818 67.7383 275.171 66.6346 273.332L47.9321 242.161C46.7221 240.144 47.4963 237.524 49.6081 236.489Z" fill="white"/>
<path d="M36.7687 220.158L57.5698 210.395" stroke="white" stroke-width="2" stroke-linecap="round"/>
<path d="M40.5891 190.867L3.61893 204.588C1.37465 205.42 0.347707 208.011 1.43767 210.142C13.2636 233.267 37.2168 277.262 52.8999 296.146C62.7716 308.032 74.55 330.107 80.4929 341.144C84.312 348.235 145.443 421.801 137.802 394.208C131.783 372.473 59.4208 214.237 22.3474 134.274C21.396 132.222 22.3216 129.861 24.4011 128.971C76.9585 106.489 185.834 62.8336 229.921 55.8725C273.204 49.0385 338.132 18.0107 368.754 1.48667C370.82 0.3721 373.379 1.2418 374.341 3.38283C392.728 44.327 429.278 126.992 434.536 174.311C439.535 219.306 482.533 234.725 466.838 273.385C466.549 274.097 466.043 274.721 465.404 275.149C393.224 323.58 283.634 353.245 144.594 401" stroke="white" stroke-width="2" stroke-linecap="round"/>
<path d="M77.9464 281.287L125.916 364.916" stroke="white" stroke-width="2" stroke-linecap="round"/>
<path d="M344.539 223.555L419.678 194.264" stroke="white" stroke-width="2" stroke-linecap="round"/>
<path d="M339.445 212.517L415.857 183.65" stroke="white" stroke-width="2" stroke-linecap="round"/>
<path d="M334.775 202.328L411.612 172.613" stroke="white" stroke-width="2" stroke-linecap="round"/>
<path d="M235.015 236.289L315.248 209.121" stroke="white" stroke-width="2" stroke-linecap="round"/>
<path d="M242.656 247.751L319.068 221.432" stroke="white" stroke-width="2" stroke-linecap="round"/>
<path d="M246.052 261.335L322.889 232.893" stroke="white" stroke-width="2" stroke-linecap="round"/>
<path d="M247.326 274.921L327.134 245.205" stroke="white" stroke-width="2" stroke-linecap="round"/>
<path d="M251.996 288.928L296.994 268.127" stroke="white" stroke-width="2" stroke-linecap="round"/>
<path d="M262.608 294.873L326.285 273.223" stroke="white" stroke-width="2" stroke-linecap="round"/>
<path d="M262.184 308.456L331.379 283.41" stroke="white" stroke-width="2" stroke-linecap="round"/>
<path d="M267.703 319.493L340.719 292.324" stroke="white" stroke-width="2" stroke-linecap="round"/>
<path d="M272.797 330.954L344.963 305.908" stroke="white" stroke-width="2" stroke-linecap="round"/>
<path d="M274.07 342.842L327.134 324.588" stroke="white" stroke-width="2" stroke-linecap="round"/>
<path d="M136.529 332.228L232.468 298.691" stroke="white" stroke-width="2" stroke-linecap="round"/>
<path d="M145.018 352.181L240.534 317.371" stroke="white" stroke-width="2" stroke-linecap="round"/>
<path d="M181.527 353.455L240.11 331.381" stroke="white" stroke-width="2" stroke-linecap="round"/>
<path d="M187.47 367.463L246.052 342.418" stroke="white" stroke-width="2" stroke-linecap="round"/>
<path d="M155.461 380.508L148.683 367.764C147.61 365.748 148.432 363.245 150.491 362.257L164.532 355.517C166.447 354.598 168.748 355.33 169.78 357.187L176.55 369.374C177.648 371.351 176.899 373.845 174.893 374.888L160.86 382.185C158.905 383.201 156.496 382.453 155.461 380.508Z" stroke="white" stroke-width="2" stroke-linecap="round"/>
<path d="M222.28 218.885C251.147 207.707 312.701 184.415 327.983 180.68" stroke="white" stroke-width="2" stroke-linecap="round"/>
<path d="M218.459 206.998C264.306 181.527 398.622 149.179 402.697 140.35" stroke="white" stroke-width="2" stroke-linecap="round"/>
<path d="M212.517 196.387C262.184 170.916 394.292 135.002 398.027 127.191" stroke="white" stroke-width="2" stroke-linecap="round"/>
<path d="M80.9178 215.913C132.283 192.564 367.887 117.851 392.509 98.748" stroke="white" stroke-width="2" stroke-linecap="round"/>
<path d="M80.4931 204.451C172.612 166.669 362.453 102.738 388.263 88.1348" stroke="white" stroke-width="2" stroke-linecap="round"/>
<path d="M126.765 315.249C127.084 305.702 106.053 266.58 93.5086 244.695C92.2636 242.523 93.2548 239.752 95.5807 238.825C124.005 227.497 168.407 201.904 189.593 201.904C197.283 201.904 218.092 252.069 228.109 277.345C228.895 279.329 227.981 281.557 226.037 282.436C190.717 298.407 126.436 325.106 126.765 315.249Z" fill="white"/>
<path d="M75.8238 181.952L66.432 156.305C65.9024 154.858 67.5149 153.567 68.81 154.401L92.2002 169.461C93.4443 170.262 95.0193 169.096 94.6145 167.671L86.8615 140.35" stroke="white" stroke-width="2" stroke-linecap="round"/>
<path d="M114.03 130.162L98.7974 137.583C98.048 137.948 97.7027 138.824 98.0006 139.603L106.654 162.177C106.975 163.014 107.919 163.426 108.751 163.093L124.218 156.906" stroke="white" stroke-width="2" stroke-linecap="round"/>
<path d="M102.992 152.237L117.85 145.869" stroke="white" stroke-width="2" stroke-linecap="round"/>
<path d="M122.52 133.134L134.34 149.017C135.101 150.039 136.69 149.812 137.135 148.619L141.877 135.874C142.318 134.687 143.897 134.455 144.663 135.465L150.622 143.332C151.552 144.559 153.509 143.902 153.509 142.362V117.002" stroke="white" stroke-width="2" stroke-linecap="round"/>
<path d="M179.407 111.06C176.008 106.815 167.521 107.664 166.248 116.578C164.55 128.464 185.348 119.55 188.323 128.464C193.025 142.559 169.361 140.634 167.521 136.955" stroke="white" stroke-width="2" stroke-linecap="round"/>
<path d="M195.96 103.842L207.094 126.111C207.504 126.93 208.515 127.242 209.314 126.794L222.28 119.549" stroke="white" stroke-width="2" stroke-linecap="round"/>
<path d="M238.411 90.2578L225.407 97.5257C224.622 97.9643 224.35 98.961 224.803 99.7369L235.105 117.399C235.532 118.131 236.453 118.406 237.211 118.027L256.24 108.512" stroke="white" stroke-width="2" stroke-linecap="round"/>
<path d="M231.194 109.787L240.959 102.994" stroke="white" stroke-width="2" stroke-linecap="round"/>
<path d="M253.27 88.1358L277.042 77.5234" stroke="white" stroke-width="2" stroke-linecap="round"/>
<path d="M266.005 82.6172L277.891 102.994" stroke="white" stroke-width="2" stroke-linecap="round"/>
<path d="M281.712 77.9474L299.116 68.1836" stroke="white" stroke-width="2" stroke-linecap="round"/>
<path d="M289.777 73.7031L299.965 93.2306" stroke="white" stroke-width="2" stroke-linecap="round"/>
<path d="M322.465 55.4473L307.585 65.6276C306.882 66.1085 306.677 67.0545 307.118 67.7836L319.059 87.5617C319.528 88.3392 320.548 88.5737 321.31 88.079L336.898 77.9464" stroke="white" stroke-width="2" stroke-linecap="round"/>
<path d="M313.55 78.7968L327.558 70.3066" stroke="white" stroke-width="2" stroke-linecap="round"/>
<path d="M348.36 77.0988L335.292 53.822C334.978 53.2633 335.02 52.5644 335.45 52.0889C342.032 44.799 353.787 49.2973 347.244 59.7973C346.631 60.7831 347.077 62.1442 348.202 62.4357L368.736 67.7594" stroke="white" stroke-width="2" stroke-linecap="round"/>
</g>
</svg>
