<svg width="310" height="244" viewBox="0 0 310 244" fill="none" xmlns="http://www.w3.org/2000/svg">
<path d="M190.826 102.303C199.553 155.968 172.935 204.161 132.329 210.729C91.7233 217.297 51.1977 179.964 42.4706 126.298C33.7436 72.6326 60.361 24.4398 100.967 17.8719C141.573 11.3042 182.099 48.6371 190.826 102.303Z" stroke="#47BDFF" stroke-width="3.5"/>
<path d="M173.941 104.048C177.278 124.568 174.101 144.083 166.346 159.035C158.59 173.988 146.322 184.285 131.456 186.689C116.592 189.094 101.689 183.192 89.5922 171.45C77.4959 159.708 68.2979 142.194 64.961 121.675C61.6242 101.155 64.8005 81.6401 72.5556 66.6872C80.311 51.7341 92.58 41.438 107.445 39.0337C122.31 36.6293 137.213 42.5306 149.31 54.2728C161.406 66.0148 170.604 83.5287 173.941 104.048Z" stroke="#B476E5" stroke-width="3.5"/>
<path d="M130.877 151.701C146.492 149.175 156.382 130.106 152.968 109.108C149.553 88.1103 134.126 73.1357 118.511 75.6613C102.896 78.1869 93.0061 97.2564 96.4207 118.254C99.8354 139.252 115.262 154.226 130.877 151.701Z" fill="#47BDFF"/>
<path d="M58.8795 200.692C110.603 250.343 168.146 221.326 180.431 190.053C174.96 221.247 137.895 238.946 107.047 239.703C73.1032 239.703 30.7542 211.653 19.1161 186.183C-23.711 92.4559 41.5303 26.4862 74.0737 17.2441C12.9741 45.9381 3.28866 147.33 58.8795 200.692Z" fill="#B476E5"/>
<path d="M124.181 105.261L216.314 46.513L234.741 34.9766" stroke="white" stroke-width="3.5" stroke-linecap="round"/>
<path d="M214.052 41.7462L216.164 27.2967C216.258 26.6558 216.667 26.1043 217.254 25.8273L252.902 9.00159C254.634 8.18398 256.379 10.1002 255.397 11.7414L248.275 23.6419C247.545 24.8624 248.339 26.4253 249.759 26.5591L265.186 28.0145C267.004 28.186 267.599 30.5397 266.08 31.5499L235.518 51.869C235.027 52.1954 234.414 52.2812 233.852 52.1021L216.314 46.5121" stroke="white" stroke-width="3.5" stroke-linecap="round"/>
<path d="M127.737 112.031L243.07 70.8351L263.535 63.4707" stroke="white" stroke-width="3.5" stroke-linecap="round"/>
<path d="M241.875 65.6984L247.021 52.0275C247.249 51.4213 247.767 50.9691 248.399 50.823L286.819 41.9429C288.686 41.5114 289.983 43.7539 288.673 45.1493L279.177 55.2672C278.203 56.3048 278.646 58.0005 280.004 58.4321L294.768 63.1264C296.508 63.6796 296.587 66.1056 294.887 66.7704L260.692 80.1427C260.143 80.3574 259.525 80.311 259.014 80.0169L243.07 70.8355" stroke="white" stroke-width="3.5" stroke-linecap="round"/>
<path d="M217.747 98.7878L224.597 87.403C224.929 86.8504 225.516 86.4997 226.161 86.4668L260.912 84.6865C262.825 84.5885 263.707 87.0207 262.174 88.1665L252.687 95.2549C251.553 96.1022 251.683 97.8354 252.929 98.506L264.513 104.737C266.111 105.596 265.755 107.978 263.975 108.336L232.002 114.758C231.413 114.876 230.803 114.716 230.349 114.324L217.922 103.594" stroke="white" stroke-width="3.5" stroke-linecap="round"/>
<path d="M129.677 118.802L217.922 103.594L237.267 100.26" stroke="white" stroke-width="3.5" stroke-linecap="round"/>
</svg>
