<svg width="135" height="140" viewBox="0 0 135 140" fill="none" xmlns="http://www.w3.org/2000/svg">
<g opacity="0.5">
<path opacity="0.1" d="M1.45504 39.5679L66.4911 77.9319C66.591 77.9869 66.701 77.9879 66.801 77.9329L132.651 39.5639C132.851 39.4479 132.851 39.1609 132.651 39.0439L67.981 1.04187C67.881 0.986874 67.771 0.985891 67.671 1.03989L1.45803 39.0469C1.25703 39.1619 1.25504 39.4499 1.45504 39.5679Z" fill="#B476E5" stroke="#181A3D" stroke-width="1.50674"/>
<path fill-rule="evenodd" clip-rule="evenodd" d="M68.991 21.834L75.251 25.885L58.751 35.559L52.301 31.542L68.991 21.834Z" fill="#47BDFF"/>
<path fill-rule="evenodd" clip-rule="evenodd" d="M74.031 41.1582L80.3109 45.2092L67.9709 52.4282L61.2109 48.6712L74.031 41.1582Z" fill="#B476E5"/>
<path fill-rule="evenodd" clip-rule="evenodd" d="M51.291 44.3691L57.5509 48.4201L49.061 53.5641L42.611 49.5551L51.291 44.3691Z" fill="#B476E5"/>
<path fill-rule="evenodd" clip-rule="evenodd" d="M82.1809 31.1327L75.911 27.0817L84.401 21.9297L90.8409 25.9467L82.1809 31.1327Z" fill="#47BDFF"/>
<path fill-rule="evenodd" clip-rule="evenodd" d="M63.781 24.836L69.5509 21.457L95.141 36.502L89.371 39.88L63.781 24.836Z" fill="#47BDFF"/>
<path fill-rule="evenodd" clip-rule="evenodd" d="M39.0709 39.3264L44.8409 35.9395L70.4409 50.9835L64.6709 54.3625L39.0709 39.3264Z" fill="#B476E5"/>
<path fill-rule="evenodd" clip-rule="evenodd" d="M51.421 32.0811L57.191 28.7031L82.791 43.7391L77.0211 47.1261L51.421 32.0811Z" fill="url(#paint0_linear_773_12797)"/>
<path opacity="0.37" d="M133.021 60.0414L67.3209 98.6834C67.0009 98.8724 66.8009 99.2184 66.8009 99.5924V193.889C66.8009 194.705 67.691 195.212 68.391 194.798L134.091 156.112C134.411 155.922 134.601 155.576 134.601 155.203V60.9504C134.601 60.1354 133.721 59.6284 133.021 60.0414Z" fill="url(#paint1_linear_773_12797)"/>
<path opacity="0.37" d="M1.58899 60.0414L67.2811 98.6834C67.6011 98.8724 67.801 99.2184 67.801 99.5924V193.889C67.801 194.705 66.921 195.212 66.211 194.798L0.519043 156.112C0.197043 155.922 0 155.576 0 155.203V60.9504C0 60.1354 0.885989 59.6284 1.58899 60.0414Z" fill="url(#paint2_linear_773_12797)"/>
<path opacity="0.5" d="M133.021 60.0414L67.3209 98.6834C67.0009 98.8724 66.8009 99.2184 66.8009 99.5924V123.889C66.8009 124.705 67.691 125.212 68.391 124.798L134.091 86.1124C134.411 85.9224 134.601 85.5764 134.601 85.2034V60.9504C134.601 60.1354 133.721 59.6284 133.021 60.0414Z" fill="url(#paint3_linear_773_12797)"/>
<path opacity="0.5" d="M2.10004 60.3885L66.291 98.6465C66.611 98.8365 66.801 99.1805 66.801 99.5525V123.879C66.801 124.697 65.911 125.204 65.211 124.784L1.02002 86.4816C0.70102 86.2916 0.505005 85.9476 0.505005 85.5756L0.506042 61.2946C0.506042 60.4766 1.39704 59.9695 2.10004 60.3885Z" fill="url(#paint4_linear_773_12797)"/>
<path d="M67.3409 124.387V189.415" stroke="#47BDFF" stroke-width="1.0838" stroke-dasharray="6.5 6.5"/>
<path d="M133.461 89.7051V115.717" stroke="#B476E5" stroke-width="1.0838" stroke-dasharray="6.5 6.5"/>
<path d="M1.23303 89.7051V115.717" stroke="#B476E5" stroke-width="1.0838" stroke-dasharray="6.5 6.5"/>
</g>
<defs>
<linearGradient id="paint0_linear_773_12797" x1="67.106" y1="28.7031" x2="67.106" y2="47.1261" gradientUnits="userSpaceOnUse">
<stop stop-color="#47BDFF"/>
<stop offset="1" stop-color="#B476E5"/>
</linearGradient>
<linearGradient id="paint1_linear_773_12797" x1="96.5009" y1="69.4314" x2="134.741" y2="134.082" gradientUnits="userSpaceOnUse">
<stop stop-color="#47BDFF"/>
<stop offset="1" stop-color="#47BDFF" stop-opacity="0"/>
</linearGradient>
<linearGradient id="paint2_linear_773_12797" x1="38.101" y1="69.4314" x2="-0.139037" y2="134.082" gradientUnits="userSpaceOnUse">
<stop stop-color="#B476E5"/>
<stop offset="1" stop-color="#B476E5" stop-opacity="0"/>
</linearGradient>
<linearGradient id="paint3_linear_773_12797" x1="94.6809" y1="70.5634" x2="109.461" y2="96.4114" gradientUnits="userSpaceOnUse">
<stop stop-color="#47BDFF"/>
<stop offset="1" stop-color="#47BDFF" stop-opacity="0"/>
</linearGradient>
<linearGradient id="paint4_linear_773_12797" x1="39.551" y1="70.8385" x2="24.707" y2="96.3345" gradientUnits="userSpaceOnUse">
<stop stop-color="#B476E5"/>
<stop offset="1" stop-color="#B476E5" stop-opacity="0"/>
</linearGradient>
</defs>
</svg>
