<svg width="92" height="124" viewBox="0 0 92 124" fill="none" xmlns="http://www.w3.org/2000/svg">
<path d="M0 20C0 8.9543 8.95431 0 20 0H72C83.0457 0 92 8.95431 92 20V102H0V20Z" fill="url(#paint0_linear_815_12550)" fill-opacity="0.24"/>
<path d="M21.5394 93.2016L23.9062 95.5619C25.1369 96.7921 26.8058 97.4833 28.5459 97.4833C30.2861 97.4833 31.955 96.7921 33.1856 95.5619L36.6659 92.0816C36.9709 91.7768 37.2127 91.415 37.3778 91.0168C37.5428 90.6185 37.6277 90.1917 37.6277 89.7606C37.6277 89.3295 37.5428 88.9027 37.3778 88.5045C37.2127 88.1062 36.9709 87.7444 36.6659 87.4397L29.9 80.6869C29.5694 80.352 29.1707 80.0922 28.7309 79.925C28.291 79.7579 27.8204 79.6872 27.3509 79.7179C26.8814 79.7486 26.4239 79.88 26.0096 80.103C25.5953 80.326 25.2338 80.6356 24.9497 81.0106C17.86 90.6334 22.1562 100.777 30.8691 109.492C39.5819 118.207 49.7253 122.499 59.3569 115.409C59.7318 115.125 60.0411 114.763 60.264 114.349C60.4868 113.934 60.6179 113.477 60.6484 113.007C60.6789 112.538 60.6081 112.067 60.4407 111.628C60.2734 111.188 60.0134 110.789 59.6784 110.459L52.9103 103.691C52.6056 103.386 52.2438 103.144 51.8455 102.979C51.4473 102.814 51.0205 102.729 50.5894 102.729C50.1583 102.729 49.7314 102.814 49.3332 102.979C48.935 103.144 48.5732 103.386 48.2684 103.691L44.7903 107.171C44.1808 107.78 43.6973 108.504 43.3675 109.3C43.0376 110.096 42.8678 110.95 42.8678 111.812C42.8678 112.674 43.0376 113.527 43.3675 114.323C43.6973 115.12 44.1808 115.843 44.7903 116.452L47.1834 118.846" stroke="#47BDFF" stroke-width="3.4" stroke-linecap="round" stroke-linejoin="round"/>
<path d="M47.6472 77.9531C48.3034 75.9844 49.0975 73.0312 52.7244 73.0312C53.3503 73.0312 53.9702 73.1545 54.5485 73.3941C55.1268 73.6336 55.6522 73.9847 56.0948 74.4273C56.5375 74.87 56.8886 75.3954 57.1281 75.9737C57.3676 76.552 57.4909 77.1719 57.4909 77.7978V77.7978C57.4906 78.9465 57.0343 80.048 56.2222 80.8603L47.6472 89.4375H57.4909" stroke="url(#paint1_linear_815_12550)" stroke-width="3.4" stroke-linecap="round" stroke-linejoin="round"/>
<path d="M70.6094 86.1562H62.4128L70.6094 73.0312V89.4375" stroke="url(#paint2_linear_815_12550)" stroke-width="3.4" stroke-linecap="round" stroke-linejoin="round"/>
<defs>
<linearGradient id="paint0_linear_815_12550" x1="46" y1="0" x2="46" y2="102" gradientUnits="userSpaceOnUse">
<stop stop-color="#47BDFF"/>
<stop offset="1" stop-color="#47BDFF" stop-opacity="0"/>
</linearGradient>
<linearGradient id="paint1_linear_815_12550" x1="55.5" y1="71" x2="44.5" y2="91.5" gradientUnits="userSpaceOnUse">
<stop stop-color="#47BDFF"/>
<stop offset="1" stop-color="#47BDFF" stop-opacity="0"/>
</linearGradient>
<linearGradient id="paint2_linear_815_12550" x1="72" y1="72" x2="64" y2="90.5" gradientUnits="userSpaceOnUse">
<stop stop-color="#47BDFF"/>
<stop offset="1" stop-color="#47BDFF" stop-opacity="0"/>
</linearGradient>
</defs>
</svg>
