<svg width="42" height="42" viewBox="0 0 42 42" fill="none" xmlns="http://www.w3.org/2000/svg">
<path d="M18.725 1.75195C23.2474 1.75195 27.5846 3.56781 30.7825 6.80008C33.9803 10.0323 35.7768 14.4162 35.7768 18.9874C35.7768 28.5061 28.1425 36.2227 18.725 36.2227C9.30744 36.2227 1.67303 28.5061 1.67303 18.9874C1.67303 9.46849 9.30744 1.75195 18.725 1.75195Z" fill="url(#paint0_linear_779_12859)"/>
<path d="M40.4815 36.4883L34.8617 31.9519L27.2901 25.7988C26.9758 25.4845 25.9789 24.9099 25.0902 25.7988C24.1475 26.7416 24.6713 27.5796 25.0903 27.9986L31.7981 35.305L36.4618 40.6499C37.5988 41.799 39.4421 41.799 40.579 40.6499C41.716 39.5007 41.716 37.6375 40.579 36.4883H40.4815Z" fill="url(#paint1_linear_779_12859)"/>
<defs>
<linearGradient id="paint0_linear_779_12859" x1="8" y1="5" x2="30" y2="31" gradientUnits="userSpaceOnUse">
<stop stop-color="white" stop-opacity="0"/>
<stop offset="1" stop-color="white"/>
</linearGradient>
<linearGradient id="paint1_linear_779_12859" x1="25.5" y1="26" x2="39" y2="41" gradientUnits="userSpaceOnUse">
<stop stop-color="white" stop-opacity="0"/>
<stop offset="1" stop-color="white"/>
</linearGradient>
</defs>
</svg>
