<svg xmlns="http://www.w3.org/2000/svg" width="35" height="34" fill="none"><path fill="url(#a)" d="M19.232 27.562a1 1 0 0 0-1.415 1.414l1.415-1.414Zm3.39 3.605v-1 1ZM6.231 7.78l.707.707-.707-.707Zm-.707 8.903a1 1 0 0 0 1.414-1.414l-1.414 1.414ZM16.475 5.73l.708.707a1 1 0 0 0 0-1.414l-.707.707Zm-8.195 0-.707-.707.707.707Zm20.489 12.294.707-.707a1 1 0 0 0-1.414 0l.707.707Zm2.898 4.098h1-1ZM12.354 8.438a1 1 0 1 0 1.414 1.414L12.354 8.44Zm12.293 12.293a1 1 0 1 0 1.414 1.415l-1.414-1.415Zm1.999 9.022a1 1 0 0 0-1.404-1.425l1.404 1.425Zm2.129-4.957a1 1 0 0 0 1.423 1.406l-1.423-1.405ZM7.573 5.024l-2.05 2.049 1.415 1.414 2.049-2.049-1.414-1.414Zm10.244 23.952c.946.946 1.725 1.728 2.424 2.261.722.551 1.475.93 2.381.93v-2c-.293 0-.624-.105-1.168-.52-.567-.432-1.237-1.099-2.223-2.085l-1.414 1.414ZM5.524 7.073c-.946.946-1.728 1.725-2.261 2.424-.551.722-.93 1.474-.93 2.38h2c0-.293.105-.623.52-1.167.432-.567 1.1-1.237 2.085-2.223L5.524 7.073Zm1.414 8.196c-.986-.986-1.653-1.656-2.085-2.223-.415-.544-.52-.875-.52-1.168h-2c0 .906.379 1.66.93 2.381.533.699 1.315 1.478 2.26 2.424l1.415-1.414ZM17.183 5.024c-.946-.946-1.725-1.728-2.424-2.261-.722-.55-1.475-.93-2.381-.93v2c.293 0 .624.105 1.168.52.567.433 1.237 1.1 2.222 2.085l1.415-1.414ZM8.987 6.438c.986-.986 1.656-1.652 2.223-2.085.544-.415.874-.52 1.168-.52v-2c-.907 0-1.66.38-2.382.93-.698.533-1.477 1.315-2.423 2.261l1.414 1.414Zm19.075 12.294c.986.986 1.653 1.655 2.085 2.222.415.544.52.875.52 1.168h2c0-.906-.379-1.659-.93-2.38-.533-.7-1.315-1.479-2.26-2.425l-1.415 1.415ZM15.768 5.024l-3.414 3.415 1.414 1.414 3.415-3.415-1.415-1.414Zm12.294 12.293-3.415 3.415 1.414 1.415 3.415-3.415-1.414-1.415Zm-2.82 11.012c-.722.712-1.237 1.182-1.674 1.479-.413.28-.691.359-.946.359v2c.773 0 1.438-.276 2.069-.704.607-.412 1.24-1.004 1.955-1.709l-1.404-1.425Zm4.956-2.126c.722-.731 1.328-1.374 1.748-1.988.437-.638.72-1.309.72-2.093h-2c0 .258-.08.54-.37.963-.305.446-.79.972-1.521 1.712l1.423 1.406Z"/><path stroke="url(#b)" stroke-linecap="round" stroke-width="2" d="m20.843 5.778 1.314-1.313a5.571 5.571 0 0 1 7.878 7.879l-1.313 1.313m-7.879-7.879s.165 2.79 2.627 5.253c2.462 2.462 5.252 2.626 5.252 2.626m-7.879-7.879L17.5 9.122m11.222 4.535-7.453 7.452-4.39 4.391-.229.229c-.817.817-1.226 1.226-1.677 1.578a9.287 9.287 0 0 1-1.716 1.06c-.516.246-1.064.429-2.162.794l-4.648 1.55m0 0-1.136.379a1.503 1.503 0 0 1-1.9-1.9l.378-1.137m2.658 2.658-2.658-2.658m0 0 1.55-4.648c.365-1.097.548-1.646.794-2.162a9.285 9.285 0 0 1 1.06-1.716c.352-.45.761-.86 1.579-1.677l3.77-3.77"/><defs><linearGradient id="a" x1="3.333" x2="31.856" y1="2.833" y2="3.025" gradientUnits="userSpaceOnUse"><stop stop-color="#B476E5"/><stop offset="1" stop-color="#47BDFF"/></linearGradient><linearGradient id="b" x1="3.333" x2="31.856" y1="2.833" y2="3.025" gradientUnits="userSpaceOnUse"><stop stop-color="#B476E5"/><stop offset="1" stop-color="#47BDFF"/></linearGradient></defs></svg>