<svg xmlns="http://www.w3.org/2000/svg" width="36" height="35" fill="none"><path fill="url(#a)" d="m18 8.022-.72.693a1 1 0 0 0 1.44 0L18 8.022Zm-4.43 19.556-.62.786.62-.786Zm-2.92-3.558a1 1 0 1 0-1.271 1.544l1.27-1.544Zm-6.652-4.507a1 1 0 1 0 1.754-.96l-1.754.96ZM27 29.413l-.6-.8.6.8Zm4.34-10.575.723-.69-.723.69Zm-6.777.351-.703.712a1 1 0 0 0 1.405 0l-.703-.712Zm-2.437 10.224.6-.8-.6.8Zm-4.34-10.575.723.69-.724-.69Zm11.018 10.488a1 1 0 0 0-1.19-1.607l1.19 1.607Zm2.184-5.01a1 1 0 0 0 1.76.95l-1.76-.95Zm.28-5.551-.707.707.707-.707Zm-26.851-5.44c0-3.172 1.792-5.836 4.246-6.958 2.391-1.093 5.591-.795 8.616 2.348l1.442-1.387c-3.538-3.675-7.63-4.27-10.89-2.78-3.196 1.461-5.414 4.857-5.414 8.777h2Zm8.533 15.039c.748.59 1.545 1.213 2.351 1.684.806.471 1.716.848 2.699.848v-2c-.475 0-1.023-.185-1.69-.575-.666-.389-1.355-.924-2.122-1.528l-1.238 1.57Zm20.633-15.039c0-3.92-2.218-7.316-5.415-8.777-3.26-1.49-7.351-.895-10.889 2.78l1.442 1.387c3.025-3.143 6.225-3.441 8.616-2.348 2.454 1.122 4.246 3.786 4.246 6.958h2ZM14.188 26.793c-1.157-.912-2.34-1.788-3.538-2.773l-1.271 1.544c1.21.996 2.485 1.943 3.571 2.8l1.238-1.57Zm-8.436-8.24a10.67 10.67 0 0 1-1.335-5.228h-2c0 2.371.608 4.41 1.58 6.188l1.755-.96ZM26.4 28.614c-.425.319-.78.58-1.116.766-.335.186-.562.246-.721.246v2c.642 0 1.217-.234 1.692-.497.474-.264.937-.609 1.344-.914l-1.2-1.6Zm7.183-6.651a5.51 5.51 0 0 0-1.52-3.814l-1.447 1.38a3.51 3.51 0 0 1 .967 2.434h2Zm-12.057 8.252c.407.305.87.65 1.344.913.475.264 1.05.498 1.692.498v-2c-.16 0-.386-.06-.72-.246-.336-.186-.691-.447-1.117-.766l-1.199 1.6Zm-3.984-8.252c0-.953.371-1.81.967-2.433l-1.447-1.381a5.51 5.51 0 0 0-1.52 3.814h2Zm.967-2.433a3.266 3.266 0 0 1 2.35-1.029c.895-.005 1.951.364 3 1.4l1.406-1.422c-1.374-1.357-2.922-1.985-4.417-1.978a5.266 5.266 0 0 0-3.786 1.648l1.447 1.38Zm9.09 10.685c.389-.292.77-.566 1.205-.888l-1.19-1.607c-.395.292-.831.607-1.214.894l1.2 1.6Zm5.148-4.947c.517-.957.836-2.05.836-3.305h-2c0 .898-.224 1.667-.595 2.355l1.76.95Zm-10.022 3.346c-.346-.26-.72-.53-1.077-.793l-1.187 1.61c.378.278.726.53 1.065.784l1.2-1.6Zm-1.077-.793c-2.202-1.623-4.106-3.252-4.106-5.858h-2c0 3.73 2.805 5.91 4.92 7.468l1.186-1.61Zm-1.171-.011c-1.01.715-1.8 1.087-2.477 1.087v2c1.347 0 2.582-.71 3.633-1.455l-1.156-1.632Zm11.586-9.661-.088-.09-1.414 1.414a3 3 0 0 1 .055.057l1.447-1.381Zm-.088-.09A5.259 5.259 0 0 0 28.21 16.5c-1.475.012-2.997.641-4.35 1.978l1.405 1.423c1.034-1.021 2.074-1.394 2.96-1.4a3.26 3.26 0 0 1 2.336.97l1.414-1.413Zm.181 1.165a12.65 12.65 0 0 0 1.427-5.898h-2c0 1.902-.457 3.534-1.204 4.981l1.777.917Z"/><defs><linearGradient id="a" x1="3.417" x2="32.778" y1="4.791" y2="5.013" gradientUnits="userSpaceOnUse"><stop stop-color="#B476E5"/><stop offset="1" stop-color="#47BDFF"/></linearGradient></defs></svg>