<svg width="50" height="50" viewBox="0 0 50 50" fill="none" xmlns="http://www.w3.org/2000/svg">
<rect width="50" height="50" fill="url(#paint0_linear_576_19867)" fill-opacity="0.1"/>
<path d="M21.1364 35.7502L24.9724 33.9132L27.5269 35.441C30.0859 35.6622 31.0292 35.2089 32.1402 33.7295C32.1402 33.7295 33.6596 34.3542 34.8449 33.4827C36.0302 32.6111 35.6322 30.9739 35.6322 30.9739C35.6322 30.9739 37.0144 31.566 38.1947 30.0813C39.3751 28.5966 38.7567 27.2998 38.7567 27.2998C38.7567 27.2998 39.947 26.8058 39.9985 24.7731C40.05 22.7404 38.7567 21.9723 38.7567 21.9723C38.7567 21.9723 39.1798 21.2687 38.504 19.8257C37.8282 18.3827 36.735 18.6656 36.735 18.6656C36.735 18.6656 38.0867 16.4759 36.391 14.1052C34.6953 11.7346 32.1402 12.0522 32.1402 12.0522C32.1402 12.0522 32.4227 10.98 30.9797 10.0339C29.5367 9.08779 28.2806 9.84773 28.2806 9.84773C28.2806 9.84773 26.8569 8.74551 24.9724 9.05471C23.088 9.36392 22.0318 11.5011 22.0318 11.5011C22.0318 11.5011 20.6186 10.3298 18.302 11.0646C15.9853 11.7994 16.1505 14.2567 16.1505 14.2567C16.1505 14.2567 14.1828 14.2556 12.6846 15.909C11.1863 17.5623 11.7395 19.9515 11.7395 19.9515C11.7395 19.9515 10.417 20.4262 10.0562 22.5571C9.69549 24.6879 11.1882 25.4627 11.1882 25.4627C11.1882 25.4627 10.0562 26.1144 10.0562 27.9168C10.0562 29.7191 11.7395 30.0553 11.7395 30.0553C11.7395 30.0553 10.7604 30.9556 12.1177 32.4519C13.475 33.9482 15.0478 32.8109 15.0478 32.8109C15.0478 32.8109 15.3129 33.8655 16.4467 34.5134C17.5805 35.1612 18.8173 34.5134 18.8173 34.5134C18.8173 35.7502 19.8314 36.0089 21.1364 35.7502Z" fill="#7780A1"/>
<path d="M20.0745 29.5579C20.0745 28.6141 20.8396 27.8489 21.7835 27.8489H26.1881C27.132 27.8489 27.8972 28.614 27.8972 29.5579V40.4532C27.8972 41.3971 27.132 42.1623 26.1881 42.1623H21.7835C20.8396 42.1623 20.0745 41.3971 20.0745 40.4532V29.5579Z" fill="white"/>
<path fill-rule="evenodd" clip-rule="evenodd" d="M26.1881 28.2822H21.7835C21.0789 28.2822 20.5078 28.8534 20.5078 29.5579V40.4532C20.5078 41.1578 21.0789 41.729 21.7835 41.729H26.1881C26.8927 41.729 27.4639 41.1578 27.4639 40.4532V29.5579C27.4639 28.8534 26.8927 28.2822 26.1881 28.2822ZM21.7835 27.8489C20.8396 27.8489 20.0745 28.6141 20.0745 29.5579V40.4532C20.0745 41.3971 20.8396 42.1623 21.7835 42.1623H26.1881C27.132 42.1623 27.8972 41.3971 27.8972 40.4532V29.5579C27.8972 28.614 27.132 27.8489 26.1881 27.8489H21.7835Z" fill="#7780A1"/>
<path d="M20.4965 37.0171V32.5804H27.9281C27.3683 34.8556 24.0309 37.1399 20.4965 37.0171Z" fill="#7D8496" fill-opacity="0.5"/>
<path d="M19.4239 27.7947C19.4239 29.2006 18.1629 30.3404 16.6074 30.3404C15.0519 30.3404 13.7909 29.2006 13.7909 27.7947C13.7909 26.3888 15.0519 25.249 16.6074 25.249C18.1629 25.249 19.4239 26.3888 19.4239 27.7947Z" fill="white"/>
<path fill-rule="evenodd" clip-rule="evenodd" d="M16.6074 29.9071C17.9658 29.9071 18.9906 28.9212 18.9906 27.7947C18.9906 26.6682 17.9658 25.6823 16.6074 25.6823C15.2489 25.6823 14.2242 26.6682 14.2242 27.7947C14.2242 28.9212 15.2489 29.9071 16.6074 29.9071ZM16.6074 30.3404C18.1629 30.3404 19.4239 29.2006 19.4239 27.7947C19.4239 26.3888 18.1629 25.249 16.6074 25.249C15.0519 25.249 13.7909 26.3888 13.7909 27.7947C13.7909 29.2006 15.0519 30.3404 16.6074 30.3404Z" fill="#7780A1"/>
<path d="M28.415 27.7947C28.415 29.2006 29.676 30.3404 31.2315 30.3404C32.787 30.3404 34.048 29.2006 34.048 27.7947C34.048 26.3888 32.787 25.249 31.2315 25.249C29.676 25.249 28.415 26.3888 28.415 27.7947Z" fill="white"/>
<path fill-rule="evenodd" clip-rule="evenodd" d="M31.2315 29.9071C29.873 29.9071 28.8483 28.9212 28.8483 27.7947C28.8483 26.6682 29.873 25.6823 31.2315 25.6823C32.5899 25.6823 33.6147 26.6682 33.6147 27.7947C33.6147 28.9212 32.5899 29.9071 31.2315 29.9071ZM31.2315 30.3404C29.676 30.3404 28.415 29.2006 28.415 27.7947C28.415 26.3888 29.676 25.249 31.2315 25.249C32.787 25.249 34.048 26.3888 34.048 27.7947C34.048 29.2006 32.787 30.3404 31.2315 30.3404Z" fill="#7780A1"/>
<path d="M31.3398 26.6856C31.3398 31.623 28.7179 34.3485 23.9768 34.3485C19.2357 34.3485 16.499 31.623 16.499 26.6856C16.499 21.7481 19.2357 16.3662 23.9768 16.3662C28.7179 16.3662 31.3398 21.7481 31.3398 26.6856Z" fill="white"/>
<path fill-rule="evenodd" clip-rule="evenodd" d="M29.1238 32.0683C30.2711 30.8746 30.9065 29.081 30.9065 26.6856C30.9065 24.2852 30.2675 21.7891 29.0706 19.9069C27.8776 18.0308 26.1587 16.7995 23.9768 16.7995C21.7931 16.7995 20.0448 18.0328 18.8232 19.9106C17.5983 21.7936 16.9323 24.2887 16.9323 26.6856C16.9323 29.0762 17.5937 30.8695 18.769 32.0648C19.9433 33.259 21.6885 33.9152 23.9768 33.9152C26.2648 33.9152 27.9791 33.2593 29.1238 32.0683ZM23.9768 34.3485C28.7179 34.3485 31.3398 31.623 31.3398 26.6856C31.3398 21.7481 28.7179 16.3662 23.9768 16.3662C19.2357 16.3662 16.499 21.7481 16.499 26.6856C16.499 31.623 19.2357 34.3485 23.9768 34.3485Z" fill="#7780A1"/>
<path fill-rule="evenodd" clip-rule="evenodd" d="M24.0339 26.3407C24.1488 26.374 24.215 26.4941 24.1818 26.6091C23.9835 27.2941 23.8797 27.6544 23.8667 28.2969C24.0701 28.3705 24.2957 28.3936 24.676 28.3904C24.7956 28.3894 24.8934 28.4856 24.8944 28.6053C24.8954 28.7249 24.7992 28.8227 24.6796 28.8237C24.199 28.8277 23.8859 28.7936 23.5552 28.6354C23.4799 28.5994 23.432 28.5234 23.432 28.44C23.432 27.6413 23.5506 27.2313 23.7646 26.4919L23.7655 26.4886C23.7988 26.3737 23.9189 26.3075 24.0339 26.3407Z" fill="#7780A1"/>
<path d="M20.8901 26.7332C20.8901 27.2731 20.5618 27.7107 20.1569 27.7107C19.7521 27.7107 19.4238 27.2731 19.4238 26.7332C19.4238 26.1934 19.7521 25.7557 20.1569 25.7557C20.5618 25.7557 20.8901 26.1934 20.8901 26.7332Z" fill="#7780A1"/>
<path fill-rule="evenodd" clip-rule="evenodd" d="M20.7621 27.4895C20.614 27.6869 20.4012 27.8191 20.157 27.8191C19.9128 27.8191 19.7 27.6869 19.5519 27.4895C19.4039 27.2921 19.3156 27.0244 19.3156 26.7333C19.3156 26.4422 19.4039 26.1745 19.5519 25.9771C19.7 25.7797 19.9128 25.6475 20.157 25.6475C20.4012 25.6475 20.614 25.7797 20.7621 25.9771C20.9101 26.1745 20.9984 26.4422 20.9984 26.7333C20.9984 27.0244 20.9101 27.2921 20.7621 27.4895ZM20.157 27.7108C20.5619 27.7108 20.8901 27.2731 20.8901 26.7333C20.8901 26.1934 20.5619 25.7558 20.157 25.7558C19.7521 25.7558 19.4239 26.1934 19.4239 26.7333C19.4239 27.2731 19.7521 27.7108 20.157 27.7108Z" fill="#7780A1"/>
<path d="M20.6822 26.4934C20.6822 26.613 20.5852 26.71 20.4656 26.71C20.3459 26.71 20.2489 26.613 20.2489 26.4934C20.2489 26.3737 20.3459 26.2767 20.4656 26.2767C20.5852 26.2767 20.6822 26.3737 20.6822 26.4934Z" fill="white"/>
<path fill-rule="evenodd" clip-rule="evenodd" d="M20.7906 26.4933C20.7906 26.6728 20.6451 26.8183 20.4656 26.8183C20.2861 26.8183 20.1406 26.6728 20.1406 26.4933C20.1406 26.3138 20.2861 26.1683 20.4656 26.1683C20.6451 26.1683 20.7906 26.3138 20.7906 26.4933ZM20.4656 26.71C20.5853 26.71 20.6823 26.613 20.6823 26.4933C20.6823 26.3737 20.5853 26.2767 20.4656 26.2767C20.346 26.2767 20.249 26.3737 20.249 26.4933C20.249 26.613 20.346 26.71 20.4656 26.71Z" fill="#7780A1"/>
<path d="M28.6896 26.7332C28.6896 27.2731 28.3614 27.7107 27.9565 27.7107C27.5516 27.7107 27.2234 27.2731 27.2234 26.7332C27.2234 26.1934 27.5516 25.7557 27.9565 25.7557C28.3614 25.7557 28.6896 26.1934 28.6896 26.7332Z" fill="#7780A1"/>
<path fill-rule="evenodd" clip-rule="evenodd" d="M28.5616 27.4895C28.4136 27.6869 28.2007 27.8191 27.9566 27.8191C27.7124 27.8191 27.4996 27.6869 27.3515 27.4895C27.2035 27.2921 27.1151 27.0244 27.1151 26.7333C27.1151 26.4422 27.2035 26.1745 27.3515 25.9771C27.4996 25.7797 27.7124 25.6475 27.9566 25.6475C28.2007 25.6475 28.4136 25.7797 28.5616 25.9771C28.7097 26.1745 28.798 26.4422 28.798 26.7333C28.798 27.0244 28.7097 27.2921 28.5616 27.4895ZM27.9566 27.7108C28.3615 27.7108 28.6897 27.2731 28.6897 26.7333C28.6897 26.1934 28.3615 25.7558 27.9566 25.7558C27.5517 25.7558 27.2234 26.1934 27.2234 26.7333C27.2234 27.2731 27.5517 27.7108 27.9566 27.7108Z" fill="#7780A1"/>
<path d="M28.4818 26.4934C28.4818 26.613 28.3848 26.71 28.2651 26.71C28.1455 26.71 28.0485 26.613 28.0485 26.4934C28.0485 26.3737 28.1455 26.2767 28.2651 26.2767C28.3848 26.2767 28.4818 26.3737 28.4818 26.4934Z" fill="white"/>
<path fill-rule="evenodd" clip-rule="evenodd" d="M22.9698 30.1186C23.0625 30.0428 23.199 30.0564 23.2747 30.149C23.4171 30.323 23.669 30.5236 23.9536 30.5802C24.2155 30.6323 24.5439 30.5711 24.8892 30.149C24.965 30.0564 25.1015 30.0428 25.1941 30.1186C25.2867 30.1943 25.3004 30.3308 25.2246 30.4234C24.79 30.9546 24.3059 31.0921 23.8691 31.0052C23.455 30.9228 23.122 30.6466 22.9394 30.4234C22.8636 30.3308 22.8772 30.1943 22.9698 30.1186Z" fill="#7780A1"/>
<g opacity="0.3" filter="url(#filter0_f_576_19867)">
<path d="M20.7239 29.7446C20.7239 30.0737 20.2631 30.3404 19.6948 30.3404C19.1264 30.3404 18.6656 30.0737 18.6656 29.7446C18.6656 29.4156 19.1264 29.1488 19.6948 29.1488C20.2631 29.1488 20.7239 29.4156 20.7239 29.7446Z" fill="#7780A1"/>
</g>
<g opacity="0.3" filter="url(#filter1_f_576_19867)">
<path d="M29.2817 29.7446C29.2817 30.0737 28.821 30.3404 28.2526 30.3404C27.6843 30.3404 27.2235 30.0737 27.2235 29.7446C27.2235 29.4156 27.6843 29.1488 28.2526 29.1488C28.821 29.1488 29.2817 29.4156 29.2817 29.7446Z" fill="#7780A1"/>
</g>
<path d="M26.0318 19.7243C23.6647 24.3175 21.6593 25.2774 16.5532 25.7365C16.3366 18.3702 17.2206 17.3199 24.8944 16.1495C31.1388 18.2317 31.1361 20.1699 31.2857 25.7365C27.5411 24.6693 27.369 23.1694 26.0318 19.7243Z" fill="#7780A1"/>
<path d="M20.1115 37.1884C20.2707 37.1148 20.4602 37.1827 20.5479 37.3346C22.2158 40.2247 26.2289 39.9742 27.469 37.3772C27.55 37.2076 27.7516 37.1217 27.9228 37.1993C33.8028 39.8642 35.742 42.9119 36.7016 49.195C36.7315 49.3907 36.5798 49.5683 36.3819 49.5683H11.4595C11.2613 49.5683 11.1096 49.3897 11.1403 49.1939C12.1784 42.5866 14.5701 39.753 20.1115 37.1884Z" fill="white"/>
<path fill-rule="evenodd" clip-rule="evenodd" d="M20.2126 37.6192C17.5162 38.8755 15.628 40.1799 14.2812 41.9386C12.9388 43.6917 12.1031 45.9374 11.5884 49.135H36.2539C35.7784 46.0857 35.0695 43.8674 33.8045 42.0918C32.5373 40.3132 30.6805 38.9352 27.8269 37.6317C26.4005 40.4803 22.0521 40.6942 20.2126 37.6192ZM20.5479 37.3346C20.4602 37.1827 20.2707 37.1148 20.1115 37.1884C14.5701 39.753 12.1784 42.5866 11.1403 49.1939C11.1096 49.3897 11.2613 49.5683 11.4595 49.5683H36.3819C36.5798 49.5683 36.7315 49.3907 36.7016 49.195C35.742 42.9119 33.8028 39.8642 27.9228 37.1993C27.7516 37.1217 27.55 37.2076 27.469 37.3772C26.2289 39.9742 22.2158 40.2247 20.5479 37.3346Z" fill="#47BDFF"/>
<path fill-rule="evenodd" clip-rule="evenodd" d="M17.15 39.3036C17.9603 38.7611 18.4377 38.5052 19.3165 38.0498V43.6646H28.9576V38.1738C29.8558 38.6276 30.3291 38.9378 31.1241 39.4728V43.6646C31.6027 43.6646 31.9907 44.0526 31.9907 44.5312V49.1351H15.9584V44.5312C15.9584 44.0526 16.3464 43.6646 16.825 43.6646H17.15V39.3036Z" fill="#47BDFF"/>
<path fill-rule="evenodd" clip-rule="evenodd" d="M17.6917 44.477C17.6373 44.477 17.5843 44.4823 17.533 44.4924C17.5037 44.4982 17.4752 44.4792 17.4694 44.4498C17.4636 44.4205 17.4827 44.392 17.512 44.3862C17.5702 44.3747 17.6302 44.3687 17.6917 44.3687H17.9011C17.931 44.3687 17.9552 44.3929 17.9552 44.4228C17.9552 44.4527 17.931 44.477 17.9011 44.477H17.6917ZM18.2658 44.4228C18.2658 44.3929 18.29 44.3687 18.3199 44.3687H18.7388C18.7687 44.3687 18.793 44.3929 18.793 44.4228C18.793 44.4527 18.7687 44.477 18.7388 44.477H18.3199C18.29 44.477 18.2658 44.4527 18.2658 44.4228ZM19.1035 44.4228C19.1035 44.3929 19.1278 44.3687 19.1577 44.3687H19.5765C19.6065 44.3687 19.6307 44.3929 19.6307 44.4228C19.6307 44.4527 19.6065 44.477 19.5765 44.477H19.1577C19.1278 44.477 19.1035 44.4527 19.1035 44.4228ZM19.9412 44.4228C19.9412 44.3929 19.9655 44.3687 19.9954 44.3687H20.4143C20.4442 44.3687 20.4684 44.3929 20.4684 44.4228C20.4684 44.4527 20.4442 44.477 20.4143 44.477H19.9954C19.9655 44.477 19.9412 44.4527 19.9412 44.4228ZM20.779 44.4228C20.779 44.3929 20.8032 44.3687 20.8331 44.3687H21.252C21.2819 44.3687 21.3062 44.3929 21.3062 44.4228C21.3062 44.4527 21.2819 44.477 21.252 44.477H20.8331C20.8032 44.477 20.779 44.4527 20.779 44.4228ZM21.6167 44.4228C21.6167 44.3929 21.6409 44.3687 21.6709 44.3687H22.0897C22.1196 44.3687 22.1439 44.3929 22.1439 44.4228C22.1439 44.4527 22.1196 44.477 22.0897 44.477H21.6709C21.6409 44.477 21.6167 44.4527 21.6167 44.4228ZM22.4544 44.4228C22.4544 44.3929 22.4787 44.3687 22.5086 44.3687H22.9274C22.9574 44.3687 22.9816 44.3929 22.9816 44.4228C22.9816 44.4527 22.9574 44.477 22.9274 44.477H22.5086C22.4787 44.477 22.4544 44.4527 22.4544 44.4228ZM23.2921 44.4228C23.2921 44.3929 23.3164 44.3687 23.3463 44.3687H23.7652C23.7951 44.3687 23.8193 44.3929 23.8193 44.4228C23.8193 44.4527 23.7951 44.477 23.7652 44.477H23.3463C23.3164 44.477 23.2921 44.4527 23.2921 44.4228ZM24.1299 44.4228C24.1299 44.3929 24.1541 44.3687 24.184 44.3687H24.6029C24.6328 44.3687 24.6571 44.3929 24.6571 44.4228C24.6571 44.4527 24.6328 44.477 24.6029 44.477H24.184C24.1541 44.477 24.1299 44.4527 24.1299 44.4228ZM24.9676 44.4228C24.9676 44.3929 24.9918 44.3687 25.0218 44.3687H25.4406C25.4705 44.3687 25.4948 44.3929 25.4948 44.4228C25.4948 44.4527 25.4705 44.477 25.4406 44.477H25.0218C24.9918 44.477 24.9676 44.4527 24.9676 44.4228ZM25.8053 44.4228C25.8053 44.3929 25.8296 44.3687 25.8595 44.3687H26.2784C26.3083 44.3687 26.3325 44.3929 26.3325 44.4228C26.3325 44.4527 26.3083 44.477 26.2784 44.477H25.8595C25.8296 44.477 25.8053 44.4527 25.8053 44.4228ZM26.6431 44.4228C26.6431 44.3929 26.6673 44.3687 26.6972 44.3687H27.1161C27.146 44.3687 27.1702 44.3929 27.1702 44.4228C27.1702 44.4527 27.146 44.477 27.1161 44.477H26.6972C26.6673 44.477 26.6431 44.4527 26.6431 44.4228ZM27.4808 44.4228C27.4808 44.3929 27.505 44.3687 27.5349 44.3687H27.9538C27.9837 44.3687 28.008 44.3929 28.008 44.4228C28.008 44.4527 27.9837 44.477 27.9538 44.477H27.5349C27.505 44.477 27.4808 44.4527 27.4808 44.4228ZM28.3185 44.4228C28.3185 44.3929 28.3428 44.3687 28.3727 44.3687H28.7915C28.8214 44.3687 28.8457 44.3929 28.8457 44.4228C28.8457 44.4527 28.8214 44.477 28.7915 44.477H28.3727C28.3428 44.477 28.3185 44.4527 28.3185 44.4228ZM29.1562 44.4228C29.1562 44.3929 29.1805 44.3687 29.2104 44.3687H29.6293C29.6592 44.3687 29.6834 44.3929 29.6834 44.4228C29.6834 44.4527 29.6592 44.477 29.6293 44.477H29.2104C29.1805 44.477 29.1562 44.4527 29.1562 44.4228ZM29.994 44.4228C29.994 44.3929 30.0182 44.3687 30.0481 44.3687H30.2576C30.319 44.3687 30.3791 44.3747 30.4372 44.3862C30.4665 44.392 30.4856 44.4205 30.4798 44.4498C30.474 44.4792 30.4455 44.4982 30.4162 44.4924C30.3649 44.4823 30.3119 44.477 30.2576 44.477H30.0481C30.0182 44.477 29.994 44.4527 29.994 44.4228ZM17.2552 44.5387C17.2718 44.5635 17.2651 44.5972 17.2403 44.6138C17.1517 44.6731 17.0753 44.7494 17.016 44.8381C16.9994 44.8629 16.9657 44.8696 16.9409 44.8529C16.916 44.8363 16.9094 44.8027 16.926 44.7778C16.9932 44.6774 17.0796 44.591 17.18 44.5238C17.2049 44.5071 17.2385 44.5138 17.2552 44.5387ZM30.6941 44.5387C30.7107 44.5138 30.7443 44.5071 30.7692 44.5238C30.8696 44.591 30.956 44.6774 31.0232 44.7778C31.0399 44.8027 31.0332 44.8363 31.0083 44.8529C30.9835 44.8696 30.9498 44.8629 30.9332 44.8381C30.8739 44.7494 30.7975 44.6731 30.7089 44.6138C30.6841 44.5972 30.6774 44.5635 30.6941 44.5387ZM16.852 45.0672C16.8814 45.073 16.9005 45.1015 16.8947 45.1308C16.8845 45.1821 16.8792 45.2351 16.8792 45.2894V45.5298C16.8792 45.5597 16.855 45.5839 16.825 45.5839C16.7951 45.5839 16.7709 45.5597 16.7709 45.5298V45.2894C16.7709 45.228 16.7769 45.1679 16.7884 45.1098C16.7942 45.0804 16.8227 45.0614 16.852 45.0672ZM31.0972 45.0672C31.1265 45.0614 31.155 45.0804 31.1608 45.1098C31.1723 45.1679 31.1783 45.228 31.1783 45.2894V45.5298C31.1783 45.5597 31.1541 45.5839 31.1242 45.5839C31.0943 45.5839 31.07 45.5597 31.07 45.5298V45.2894C31.07 45.2351 31.0647 45.1821 31.0545 45.1308C31.0487 45.1015 31.0678 45.073 31.0972 45.0672ZM16.825 45.9563C16.855 45.9563 16.8792 45.9806 16.8792 46.0105V46.4912C16.8792 46.5211 16.855 46.5453 16.825 46.5453C16.7951 46.5453 16.7709 46.5211 16.7709 46.4912V46.0105C16.7709 45.9806 16.7951 45.9563 16.825 45.9563ZM31.1242 45.9563C31.1541 45.9563 31.1783 45.9806 31.1783 46.0105V46.4912C31.1783 46.5211 31.1541 46.5453 31.1242 46.5453C31.0943 46.5453 31.07 46.5211 31.07 46.4912V46.0105C31.07 45.9806 31.0943 45.9563 31.1242 45.9563ZM16.825 46.9177C16.855 46.9177 16.8792 46.942 16.8792 46.9719V47.4526C16.8792 47.4825 16.855 47.5067 16.825 47.5067C16.7951 47.5067 16.7709 47.4825 16.7709 47.4526V46.9719C16.7709 46.942 16.7951 46.9177 16.825 46.9177ZM31.1242 46.9177C31.1541 46.9177 31.1783 46.942 31.1783 46.9719V47.4526C31.1783 47.4825 31.1541 47.5067 31.1242 47.5067C31.0943 47.5067 31.07 47.4825 31.07 47.4526V46.9719C31.07 46.942 31.0943 46.9177 31.1242 46.9177ZM16.825 47.8791C16.855 47.8791 16.8792 47.9034 16.8792 47.9333V48.414C16.8792 48.4439 16.855 48.4681 16.825 48.4681C16.7951 48.4681 16.7709 48.4439 16.7709 48.414V47.9333C16.7709 47.9034 16.7951 47.8791 16.825 47.8791ZM31.1242 47.8791C31.1541 47.8791 31.1783 47.9034 31.1783 47.9333V48.414C31.1783 48.4439 31.1541 48.4681 31.1242 48.4681C31.0943 48.4681 31.07 48.4439 31.07 48.414V47.9333C31.07 47.9034 31.0943 47.8791 31.1242 47.8791ZM16.825 48.8405C16.855 48.8405 16.8792 48.8648 16.8792 48.8947V49.135C16.8792 49.1649 16.855 49.1892 16.825 49.1892C16.7951 49.1892 16.7709 49.1649 16.7709 49.135V48.8947C16.7709 48.8648 16.7951 48.8405 16.825 48.8405ZM31.1242 48.8405C31.1541 48.8405 31.1783 48.8648 31.1783 48.8947V49.135C31.1783 49.1649 31.1541 49.1892 31.1242 49.1892C31.0943 49.1892 31.07 49.1649 31.07 49.135V48.8947C31.07 48.8648 31.0943 48.8405 31.1242 48.8405Z" fill="white"/>
<path fill-rule="evenodd" clip-rule="evenodd" d="M17.8537 43.6646C17.8238 43.6646 17.7996 43.6403 17.7996 43.6104L17.7996 43.3937C17.7996 43.3638 17.8238 43.3396 17.8537 43.3396C17.8836 43.3396 17.9079 43.3638 17.9079 43.3937L17.9079 43.6104C17.9079 43.6403 17.8836 43.6646 17.8537 43.6646ZM17.8537 43.0146C17.8238 43.0146 17.7996 42.9903 17.7996 42.9604L17.7996 42.5271C17.7996 42.4972 17.8238 42.473 17.8537 42.473C17.8836 42.473 17.9079 42.4972 17.9079 42.5271L17.9079 42.9604C17.9079 42.9903 17.8836 43.0146 17.8537 43.0146ZM17.8537 42.148C17.8238 42.148 17.7996 42.1237 17.7996 42.0938L17.7996 41.6605C17.7996 41.6306 17.8238 41.6063 17.8537 41.6063C17.8836 41.6063 17.9079 41.6306 17.9079 41.6605L17.9079 42.0938C17.9079 42.1237 17.8836 42.148 17.8537 42.148ZM17.8537 41.2814C17.8238 41.2814 17.7996 41.2571 17.7996 41.2272L17.7996 40.7939C17.7996 40.764 17.8238 40.7397 17.8537 40.7397C17.8836 40.7397 17.9079 40.764 17.9079 40.7939L17.9079 41.2272C17.9079 41.2571 17.8836 41.2814 17.8537 41.2814ZM17.8537 40.4147C17.8238 40.4147 17.7996 40.3905 17.7996 40.3606L17.7996 39.9273C17.7996 39.8974 17.8238 39.8731 17.8537 39.8731C17.8836 39.8731 17.9079 39.8974 17.9079 39.9273L17.9079 40.3606C17.9079 40.3905 17.8836 40.4147 17.8537 40.4147ZM17.8537 39.5481C17.8238 39.5481 17.7996 39.5239 17.7996 39.494L17.7996 39.2773C17.7996 39.2474 17.8238 39.2232 17.8537 39.2232C17.8836 39.2232 17.9079 39.2474 17.9079 39.2773L17.9079 39.494C17.9079 39.5239 17.8836 39.5481 17.8537 39.5481Z" fill="white"/>
<path fill-rule="evenodd" clip-rule="evenodd" d="M30.4193 43.6646C30.3894 43.6646 30.3651 43.6403 30.3651 43.6104L30.3651 43.3937C30.3651 43.3638 30.3894 43.3396 30.4193 43.3396C30.4492 43.3396 30.4734 43.3638 30.4734 43.3937L30.4734 43.6104C30.4734 43.6403 30.4492 43.6646 30.4193 43.6646ZM30.4193 43.0146C30.3894 43.0146 30.3651 42.9903 30.3651 42.9604L30.3651 42.5271C30.3651 42.4972 30.3894 42.473 30.4193 42.473C30.4492 42.473 30.4734 42.4972 30.4734 42.5271L30.4734 42.9604C30.4734 42.9903 30.4492 43.0146 30.4193 43.0146ZM30.4193 42.148C30.3894 42.148 30.3651 42.1237 30.3651 42.0938L30.3651 41.6605C30.3651 41.6306 30.3894 41.6063 30.4193 41.6063C30.4492 41.6063 30.4734 41.6306 30.4734 41.6605L30.4734 42.0938C30.4734 42.1237 30.4492 42.148 30.4193 42.148ZM30.4193 41.2814C30.3894 41.2814 30.3651 41.2571 30.3651 41.2272L30.3651 40.7939C30.3651 40.764 30.3894 40.7397 30.4193 40.7397C30.4492 40.7397 30.4734 40.764 30.4734 40.7939L30.4734 41.2272C30.4734 41.2571 30.4492 41.2814 30.4193 41.2814ZM30.4193 40.4147C30.3894 40.4147 30.3651 40.3905 30.3651 40.3606L30.3651 39.9273C30.3651 39.8974 30.3894 39.8731 30.4193 39.8731C30.4492 39.8731 30.4734 39.8974 30.4734 39.9273L30.4734 40.3606C30.4734 40.3905 30.4492 40.4147 30.4193 40.4147ZM30.4193 39.5481C30.3894 39.5481 30.3651 39.5239 30.3651 39.494L30.3651 39.2773C30.3651 39.2474 30.3894 39.2232 30.4193 39.2232C30.4492 39.2232 30.4734 39.2474 30.4734 39.2773L30.4734 39.494C30.4734 39.5239 30.4492 39.5481 30.4193 39.5481Z" fill="white"/>
<path d="M18.5579 44.3145C18.5579 44.6735 18.2669 44.9645 17.9079 44.9645C17.5489 44.9645 17.2579 44.6735 17.2579 44.3145C17.2579 43.9555 17.5489 43.6646 17.9079 43.6646C18.2669 43.6646 18.5579 43.9555 18.5579 44.3145Z" fill="white"/>
<path d="M30.9072 44.3145C30.9072 44.6735 30.6162 44.9645 30.2573 44.9645C29.8983 44.9645 29.6073 44.6735 29.6073 44.3145C29.6073 43.9555 29.8983 43.6646 30.2573 43.6646C30.6162 43.6646 30.9072 43.9555 30.9072 44.3145Z" fill="white"/>
<path opacity="0.5" d="M19.8579 47.131C19.8579 46.4729 20.3914 45.9395 21.0495 45.9395H26.7908C27.4489 45.9395 27.9824 46.4729 27.9824 47.131V49.1893H19.8579V47.131Z" fill="white"/>
<defs>
<filter id="filter0_f_576_19867" x="6.66565" y="17.1488" width="26.0582" height="25.1917" filterUnits="userSpaceOnUse" color-interpolation-filters="sRGB">
<feFlood flood-opacity="0" result="BackgroundImageFix"/>
<feBlend mode="normal" in="SourceGraphic" in2="BackgroundImageFix" result="shape"/>
<feGaussianBlur stdDeviation="6" result="effect1_foregroundBlur_576_19867"/>
</filter>
<filter id="filter1_f_576_19867" x="15.2235" y="17.1488" width="26.0582" height="25.1917" filterUnits="userSpaceOnUse" color-interpolation-filters="sRGB">
<feFlood flood-opacity="0" result="BackgroundImageFix"/>
<feBlend mode="normal" in="SourceGraphic" in2="BackgroundImageFix" result="shape"/>
<feGaussianBlur stdDeviation="6" result="effect1_foregroundBlur_576_19867"/>
</filter>
<linearGradient id="paint0_linear_576_19867" x1="25" y1="0" x2="25" y2="50" gradientUnits="userSpaceOnUse">
<stop stop-color="#7D8496"/>
<stop offset="1" stop-color="#7D8496" stop-opacity="0"/>
</linearGradient>
</defs>
</svg>
