<svg xmlns="http://www.w3.org/2000/svg" width="578" height="432" fill="none"><circle cx="345" cy="66" r="25" stroke="#fff" stroke-width="2" opacity=".1"/><path stroke="url(#a)" stroke-miterlimit="10" stroke-width="2" d="M496.331 49.348V24.113a2.563 2.563 0 0 1 2.557-2.558 2.562 2.562 0 0 0 2.556-2.559v-8.674a2.562 2.562 0 0 0-2.556-2.559h-32.915a2.562 2.562 0 0 0-2.556 2.559v8.674a2.562 2.562 0 0 0 2.556 2.559 2.563 2.563 0 0 1 2.557 2.558v14.391c0 1.74-1.698 2.979-3.355 2.429L344.352 1.127a2.6 2.6 0 0 0-1.608 0L115.748 77.19A2.57 2.57 0 0 0 114 79.62v318.823a2.562 2.562 0 0 0 2.556 2.558h457.888a2.562 2.562 0 0 0 2.556-2.558V79.629c0-1.11-.709-2.089-1.758-2.429l-77.153-25.424a2.567 2.567 0 0 1-1.758-2.428Z" opacity=".1"/><path fill="#47BDFF" d="M432.072 389.781c0 6.168-5.012 11.2-11.2 11.2H305.364l-44.145.019c-6.188 0-11.219-5.012-11.219-11.2V283.776l182.034-.039v106.044h.038Z"/><g stroke-linecap="square" stroke-linejoin="round" stroke-width="2" opacity=".3"><path stroke="url(#b)" d="m421.215 240.951 2.98 8.187"/><path stroke="url(#c)" d="m430.287 232.623 7.906 3.686"/><path stroke="url(#d)" d="m430.828 220.302 8.188-2.98"/><path stroke="url(#e)" d="m422.5 211.23 3.687-7.907"/><path stroke="url(#f)" d="m410.198 210.681-2.98-8.188"/><path stroke="url(#g)" d="m401.108 219.016-7.907-3.687"/><path stroke="url(#h)" d="m400.559 231.319-8.188 2.98"/></g><path fill="#7780A1" d="M250 283.757h182.053l-83.74-66.448c-5.262-5.436-14.014-5.321-19.123.25L250 283.757Z"/><path fill="#7780A1" d="M250 283.757s79.287 67.527 92.492 67.527c13.204 0 89.561-67.547 89.561-67.547H250v.02Z"/><path fill="#fff" stroke="#7780A1" stroke-miterlimit="10" stroke-opacity=".2" d="M265.672 297.54v-64.058a8.704 8.704 0 0 1 8.713-8.713h134.824a8.704 8.704 0 0 1 8.714 8.713v62.458s-65.099 55.345-75.432 55.345c-9.465 0-76.819-53.745-76.819-53.745Z"/><path fill="#7780A1" fill-opacity=".2" d="M340.68 246.167h-55.904v2.351h55.904v-2.351Z"/><path stroke="#7780A1" stroke-opacity=".2" d="M285.276 246.667h54.904v1.351h-54.904v-1.351Z"/><path fill="#7780A1" fill-opacity=".2" d="M398.819 258.831H284.776v2.352h114.043v-2.352Z"/><path stroke="#7780A1" stroke-opacity=".2" d="M285.276 259.331h113.043v1.352H285.276v-1.352Z"/><path fill="#7780A1" fill-opacity=".2" d="M398.819 271.497H284.776v2.352h114.043v-2.352Z"/><path stroke="#7780A1" stroke-opacity=".2" d="M285.276 271.997h113.043v1.352H285.276v-1.352Z"/><path fill="#7780A1" fill-opacity=".2" d="M371.272 284.162h-86.496v2.352h86.496v-2.352Z"/><path stroke="#7780A1" stroke-opacity=".2" d="M285.276 284.662h85.496v1.352h-85.496v-1.352Z"/><path fill="#7780A1" fill-opacity=".2" d="M398.819 296.808H284.776v2.351h114.043v-2.351Z"/><path stroke="#7780A1" stroke-opacity=".2" d="M285.276 297.308h113.043v1.351H285.276v-1.351Z"/><path fill="#7780A1" fill-opacity=".2" d="M338.347 309.472h-53.571v2.352h53.571v-2.352Z"/><path stroke="#7780A1" stroke-opacity=".2" d="M285.276 309.972h52.571v1.352h-52.571v-1.352Z"/><path stroke="#fff" stroke-linecap="round" stroke-linejoin="round" d="M255.783 289.578s75.798 61.861 86.709 61.726c12.029-.135 84.588-63.191 84.588-63.191M255.783 382.359l62.689-42.468M427.581 382.803l-62.458-42.776"/><path stroke="url(#i)" stroke-dasharray="10 10" stroke-linecap="square" stroke-linejoin="round" d="M326.575 229.3c-14.37 6.51-60.7 24.3-105.85 7.08-66.5-25.37-86.77-116.98-178.49-139.42"/><path fill="#fff" d="m0 89.088 45.5-12.043c1.228-.323 2.119 1.164 1.244 2.084l-8.26 8.704L0 89.088ZM35.085 93.326l-1.937 11.254c-.349 2.028-2.64 3.065-4.41 1.988L0 89.093l35.085 4.238v-.005Z"/><path fill="#fff" d="m38.484 87.833 6.6 10.141-9.999-4.648L0 89.088l38.484-1.255Z" opacity=".2"/><path fill="#fff" d="m34.595 96.159 10.49 1.815-10-4.648-.49 2.833Z" opacity=".5"/><path stroke="url(#j)" stroke-miterlimit="10" stroke-width="2" d="M495 131H195v300h300V131Z" opacity=".1"/><path stroke="#fff" stroke-miterlimit="10" stroke-width="2" d="M196 161h299" opacity=".1"/><path fill="#FF9CBD" d="M219 146c0 3.32-2.68 6-6 6s-6-2.68-6-6 2.68-6 6-6 6 2.68 6 6Z"/><path fill="#D9D9FC" d="M240 146c0 3.32-2.68 6-6 6s-6-2.68-6-6 2.68-6 6-6 6 2.68 6 6Z"/><path fill="#FFC727" d="M261 146c0 3.32-2.68 6-6 6s-6-2.68-6-6 2.68-6 6-6 6 2.68 6 6Z"/><defs><linearGradient id="a" x1="345.5" x2="345.5" y1="1" y2="401" gradientUnits="userSpaceOnUse"><stop stop-color="#fff"/><stop offset="1" stop-color="#fff" stop-opacity="0"/></linearGradient><linearGradient id="b" x1="423.725" x2="420.745" y1="249.309" y2="241.122" gradientUnits="userSpaceOnUse"><stop stop-color="#fff"/><stop offset="1" stop-color="#fff" stop-opacity="0"/></linearGradient><linearGradient id="c" x1="435.295" x2="433.185" y1="237.364" y2="231.568" gradientUnits="userSpaceOnUse"><stop stop-color="#fff"/><stop offset="1" stop-color="#fff" stop-opacity="0"/></linearGradient><linearGradient id="d" x1="434.922" x2="434.58" y1="218.812" y2="217.872" gradientUnits="userSpaceOnUse"><stop stop-color="#fff"/><stop offset="1" stop-color="#fff" stop-opacity="0"/></linearGradient><linearGradient id="e" x1="425.399" x2="423.289" y1="210.175" y2="204.378" gradientUnits="userSpaceOnUse"><stop stop-color="#fff"/><stop offset="1" stop-color="#fff" stop-opacity="0"/></linearGradient><linearGradient id="f" x1="409.728" x2="406.748" y1="210.852" y2="202.664" gradientUnits="userSpaceOnUse"><stop stop-color="#fff"/><stop offset="1" stop-color="#fff" stop-opacity="0"/></linearGradient><linearGradient id="g" x1="398.209" x2="396.1" y1="220.071" y2="214.274" gradientUnits="userSpaceOnUse"><stop stop-color="#fff"/><stop offset="1" stop-color="#fff" stop-opacity="0"/></linearGradient><linearGradient id="h" x1="396.465" x2="396.123" y1="232.809" y2="231.869" gradientUnits="userSpaceOnUse"><stop stop-color="#fff"/><stop offset="1" stop-color="#fff" stop-opacity="0"/></linearGradient><linearGradient id="i" x1="42.575" x2="326.575" y1="97" y2="244" gradientUnits="userSpaceOnUse"><stop stop-color="#fff"/><stop offset="1" stop-color="#fff" stop-opacity="0"/></linearGradient><linearGradient id="j" x1="345" x2="345" y1="131" y2="431" gradientUnits="userSpaceOnUse"><stop stop-color="#fff"/><stop offset="1" stop-color="#fff" stop-opacity="0"/></linearGradient></defs></svg>