<svg xmlns="http://www.w3.org/2000/svg" width="69" height="80" fill="none"><path fill="#7780A1" d="M67.03 8.364a3.649 3.649 0 0 0-2.239-.479l-.097-3.118C64.634 2.735 62.817.29 60.522.594 51.45 1.791 42.526.761 33.455.21c-4.55-.28-9.083-.357-13.609.268C15.293 1.1 10.78 2.224 6.15 1.855c-2.109-.17-3.483 2.137-3.03 3.978.28 1.136.439 2.243.5 3.354l-.605.008A3.06 3.06 0 0 0 .1 13.023c.178.693.357 1.387.531 2.08.324 1.27 1.594 2.206 2.891 2.202h.86c-.008 8.787-.053 17.578.012 26.365.069 9.76-.215 19.646.775 29.37.04.393.15.726.308 1.01-.313 1.35.45 2.948 2.307 3.065 3.958.256 7.887-.02 11.84-.125 1.813-.049 3.921-1.659 3.682-3.682-1.07-9.006-2.299-18.329-1.074-27.38.843-6.207 4.124-16.385 12.343-14.844 7.453 1.399 10.271 9.74 11.046 16.284 1.066 8.994.99 18.211 1.407 27.258.11 2.352 1.796 3.913 4.1 4.1 2.744.222 5.494.445 8.239.664.397.033.787-.024 1.168-.142 2.287 1.61 6.22.645 6.18-2.996-.227-20.283-1.026-40.574-1.695-60.853a3.643 3.643 0 0 0 1.999-.499 3.815 3.815 0 0 0 1.877-3.268 3.815 3.815 0 0 0-1.877-3.268h.012Z"/><path fill="#fff" d="M67.099 11.433c-.09-1.16-1.22-2.315-2.42-1.82a.442.442 0 0 0-.264.295c-.26-.008-.52-.008-.779-.012.705-2.023 1.034-4.509.24-6.532.607-.033.607-.945-.009-.961-9.837-.268-19.731.101-29.573.17-9.85.069-19.727-.081-29.572.292-.491.02-.495.75 0 .762.251.008.498.008.75.017.336 2.331.478 4.667.353 7.023 0 .052.008.097.024.138-.84.02-1.683.036-2.522.056-.158-.166-.434-.215-.552.053-.584 1.302-.3 2.737.458 3.885-.146.012-.296.02-.442.032-.433.037-.446.698 0 .686 10.422-.297 20.823-.816 31.252-.852 9.472-.028 18.924.487 28.385.677a.293.293 0 0 0-.065.175c-.678 18.214-.017 36.555.097 54.782.004.73 1.135.73 1.131 0-.125-18.227.3-36.576-.616-54.783a.276.276 0 0 0-.06-.166c.794.016 1.589.033 2.384.04.575.009.555-.835 0-.88-.203-.015-.406-.028-.605-.044 1.148-.649 2.518-1.524 2.405-3.025v-.008ZM6.409 3.656c9.285.182 18.6-.053 27.881-.102 9.566-.052 19.18.175 28.738-.166.138 2.283.45 4.23-.061 6.496-9.618-.182-19.306.32-28.92.446-9.221.122-18.442.243-27.663.454a.306.306 0 0 0 .04-.125c.3-2.348.309-4.668-.02-7.003h.004Zm59.672 8.572c-.353.783-1.135 1.39-1.817 1.873a.266.266 0 0 0-.097.317c-9.98-.791-20.133-.674-30.128-.637-10 .04-20.068.166-30.043.949-.677-1.034-.77-2.137-.592-3.33 10.214 0 20.429-.117 30.647-.239 10.23-.117 20.563.203 30.777-.344a.44.44 0 0 0 .43-.426c.79-.012 1.123 1.168.823 1.837Z"/><path fill="#fff" d="M60.445 23.85c-4.388-.203-8.93.385-13.325.526-4.602.15-9.209.224-13.815.232-9.03.012-18.044-.292-27.07-.58-.078-2.68-.18-5.36-.313-8.033-.024-.462-.71-.466-.722 0-.263 9.44-.243 18.9-.178 28.36a.262.262 0 0 0 0 .3c.06 8.873.158 17.749.093 26.609-.004.69 1.066.69 1.075 0 .069-8.775.219-17.59.26-26.402 4.52.402 9.317 1.03 13.782.653.373-.032.523-.633.097-.706-4.456-.762-9.298-.551-13.876-.539.024-6.516-.016-13.033-.194-19.537 9.143.787 18.352 1.034 27.524 1.022 4.449-.008 8.893-.08 13.337-.223 4.42-.142 9.092 0 13.45-.742.552-.093.386-.912-.125-.937v-.004Z"/><path fill="#fff" d="M61.459 48.852c-4.91-.182-9.903.26-14.83.244-.028-.775-.052-1.55-.084-2.32a23.035 23.035 0 0 1-.02-.535c4.78.486 9.869.714 14.56-.016.45-.07.329-.775-.105-.779-4.837-.044-9.642.248-14.484.146-.057-1.383-.126-2.814-.268-4.241.904-3.698 1.265-7.559 1.168-11.35a.496.496 0 0 0-.487-.487c-2.554-.133-5.109-.304-7.663-.466-2.952-1.257-6.464-1.054-9.44.333a.455.455 0 0 0-.357-.236c-2.024-.239-7.587-.84-8.6 1.553-.568 1.347-.11 3.812-.098 5.264.02 2.392.045 4.788.101 7.181 0 .036.008.065.02.093-.032.211-.068.422-.097.629-.555 4.18-.219 8.406.085 12.59.325 4.453.65 8.91 1.087 13.353.049.5.82.52.795 0-.345-7.846-1.614-15.859-1.09-23.709.502-7.558 4.537-16.763 13.376-16.791 7.198-.025 9.339 6.439 10.028 12.456-.052.248-.105.495-.162.742-.065.28.09.479.292.564.065.779.11 1.537.142 2.267 0 .077.004.15.008.227-.134-.004-.263-.004-.397-.012-.34-.013-.325.482 0 .519.138.016.28.032.417.044.167 3.897.292 7.798.377 11.699.094 4.29-.17 8.694.224 12.964a.49.49 0 0 0 .98 0c.366-3.946.058-8.046-.023-12.003-.061-3.017-.155-6.038-.264-9.055 4.866.32 10.085.633 14.914-.093.458-.07.32-.763-.105-.779v.004Zm-39.99-8.438c.089-2.234.17-4.469.21-6.703.05-2.457.216-3.3 3.001-3.552 1.298-.118 2.587-.11 3.885-.126-3.735 2.287-5.965 6.22-7.1 10.381h.004Zm21.077-9.03a9.327 9.327 0 0 0-1.735-1.485c1.865.175 3.73.35 5.596.544a53.784 53.784 0 0 1-.665 7.692c-.532-2.498-1.464-4.85-3.192-6.751h-.004ZM16.773 31.57a.466.466 0 0 0-.458-.458c-2.247 0-4.501-.057-6.744.045-.227.008-.332.186-.32.357-.325-.114-.746.044-.718.486a20.722 20.722 0 0 1-.418 5.636c-.073.35.159.706.536.706 2.554-.008 5.109.008 7.664-.036.275-.005.539-.24.527-.528-.085-2.064-.033-4.136-.07-6.204v-.004Zm-7.461 5.653c.308-1.732.421-3.459.308-5.227-.004-.065-.024-.118-.045-.17 2.089.138 4.189.146 6.281.19-.02 1.74 0 3.483-.052 5.227-2.162-.028-4.327-.02-6.488-.02h-.004ZM15.476 61.772l-.13-.02a.357.357 0 0 0 .24-.195c1.382-2.68 1.8-8.358-2.552-8.516-4.14-.15-2.303 5.681-2.826 7.932-.077.34.426.482.527.146.564-1.926-.563-5.102.909-6.59 1.265-1.277 3.167-.17 3.77 1.253.783 1.841-.19 3.674-.571 5.466a.422.422 0 0 0 .231.463c-1.366-.215-2.729-.43-4.104-.544-.235-.02-.275.345-.056.406 1.431.397 2.887.673 4.347.969.507.101.71-.69.21-.767l.005-.003ZM19.25 46.375c-4.038.373-8.06.539-12.116.644-.401.013-.393.588 0 .617 4.031.316 8.094.194 12.117-.235.648-.07.66-1.087 0-1.026Z"/><path fill="#fff" d="M57.278 63.685s.016-.024.02-.036c.852-2.717.608-10.96-3.763-10.94-4.752.024-4.006 8.32-2.879 11.02.162.394.8.248.657-.182-.535-1.593-.843-3.203-.71-4.894.13-1.63 1.237-6.626 4.185-4.48 2.587 1.88 1.659 6.702 1.793 9.374v.013c-1.98-.159-3.999 0-5.917.482-.393.097-.223.67.167.6a21.641 21.641 0 0 1 6.244-.198c.454.048.52-.54.203-.759ZM58.588 34.4c-.04-.737-.093-1.423-.79-1.82-.76-.43-1.826-.126-2.625-.008a34.837 34.837 0 0 0-4.898 1.078c-.24.07-.357.268-.381.5-.17 1.617-.434 3.26-.45 4.885-.004.507.799.641.9.122.304-1.508.401-3.066.547-4.602.791-.227 1.586-.434 2.393-.605.851-.178 2.664-.799 3.475-.53 1.281.42.852 3.71.762 5.295-2.185.069-4.472 0-6.61.442-.214.045-.226.414 0 .446 2.308.337 4.75.093 7.077.06a.49.49 0 0 0 .482-.482c.077-1.569.203-3.211.122-4.78h-.004ZM11.267 9.284c-.961-.085-1.947-.012-2.908.012-.203.004-.203.308 0 .312.961.02 1.95.098 2.908.013a.168.168 0 0 0 0-.337ZM11.996 8.031c-1.05-.065-2.1-.012-3.15.012-.256.008-.256.39 0 .394 1.05.028 2.1.077 3.15.012.272-.016.272-.406 0-.422v.004ZM50.53 5.4c-.981-.122-1.999.016-2.948.267-.182.049-.105.324.077.28.965-.223 1.89-.235 2.871-.19.235.011.223-.333 0-.362V5.4ZM32.113 6.417a55.906 55.906 0 0 0-2.182 0c-.166 0-.166.256 0 .26.73.012 1.452.008 2.182 0 .162 0 .162-.252 0-.256v-.004ZM59.987 11.689c-.807-.033-1.618.004-2.425.024-.207.004-.207.316 0 .324.807.02 1.618.057 2.425.025.239-.008.239-.361 0-.373ZM61.92 13.124c-1.045.077-2.087.061-3.122-.117-.19-.033-.275.243-.08.292a8.238 8.238 0 0 0 3.255.194c.211-.028.163-.385-.048-.369h-.004ZM52.189 6.397c-.945.203-1.902.288-2.867.243-.187-.008-.187.276 0 .292a9.36 9.36 0 0 0 2.948-.239c.19-.049.11-.333-.081-.292v-.004ZM16.514 12.46c-.67.279-1.4.279-2.077.044-.158-.053-.263.194-.113.271.762.39 1.598.361 2.344-.052.174-.098.02-.337-.154-.264ZM10.784 22.665c-1.128-.08-2.263-.008-3.394.025-.126 0-.126.19 0 .194 1.131.029 2.266.102 3.394.025.154-.012.154-.232 0-.24v-.004ZM12.722 21.834c-1.444.053-2.883.025-4.314-.182-.228-.033-.329.304-.098.349 1.464.28 2.924.401 4.412.263.272-.024.28-.442 0-.43ZM44.898 15.525a13.49 13.49 0 0 1-2.859.121c-.243-.016-.235.349 0 .377 1.006.114 1.971.09 2.96-.125.248-.053.138-.406-.101-.373ZM31.675 19.466a4.692 4.692 0 0 0-2.279.231c-.21.077-.126.41.093.34a5.596 5.596 0 0 1 2.137-.226c.195.016.244-.316.045-.345h.004ZM60.587 20.29c-.398-.516-.532-1.06-.734-1.66-.045-.129-.244-.113-.248.033-.012.649.377 1.302.775 1.784.093.114.292-.04.203-.158h.004ZM58.413 17.086c-.133-.15-.389.045-.28.215.434.669.576 1.5.244 2.242-.09.199.19.373.3.175.466-.868.405-1.89-.264-2.632ZM60.81 27.361c-.013-.097-.183-.097-.199 0-.122.876-.036 1.809-.016 2.693 0 .15.227.15.23 0 .021-.884.106-1.817-.015-2.693ZM59.602 28.33c-.053-.142-.292-.134-.28.037.065.908.332 1.808.547 2.692.049.203.349.114.312-.085-.158-.88-.275-1.8-.58-2.644ZM42.988 40.418c-.243-1.152-.69-2.255-1.058-3.37-.061-.186-.345-.11-.292.081.296 1.136.519 2.304.94 3.403.098.255.471.158.414-.114h-.004ZM41.204 38.224c-.11-.158-.365-.016-.264.155.759 1.273 1.03 2.574 1.107 4.038.017.316.479.316.491 0 .06-1.5-.49-2.968-1.334-4.193ZM23.464 58.37c-.499-1.169-.718-2.385-.9-3.63-.025-.166-.3-.126-.292.04.073 1.298.49 2.515 1.018 3.69.052.118.223.017.174-.1ZM22.799 52.072c-.057-.243-.406-.134-.37.101.196 1.302.5 2.583.771 3.869.045.207.345.117.313-.085-.223-1.298-.414-2.604-.714-3.885ZM18.667 51.31c-.081-.159-.333-.05-.288.121.243.872.47 1.711.494 2.624.005.203.309.203.313 0 .032-.945-.085-1.894-.523-2.741l.004-.005ZM18.176 53.532c-.049-.166-.284-.093-.256.069.17.985.422 1.95.686 2.92.04.15.255.084.227-.062-.187-.985-.381-1.962-.657-2.923v-.004ZM11.23 39.133c-.774.296-1.553.49-2.388.494-.17 0-.17.26 0 .264.863.02 1.71-.126 2.49-.515.133-.065.04-.3-.102-.243ZM12.775 40.296c-.908-.19-1.894-.036-2.766.248-.186.06-.113.344.082.296.892-.211 1.727-.187 2.631-.15.227.008.28-.35.053-.398v.004ZM11.704 51.938c-1.066.268-1.901.994-2.351 1.995-.077.17.158.32.26.15a4.2 4.2 0 0 1 2.185-1.812c.207-.077.126-.39-.094-.333Z"/><path fill="#fff" d="M55.064 58.126c-.048-.195-.324-.11-.292.081.106.657.276 1.302.426 1.95.04.17.288.098.26-.072-.122-.653-.224-1.314-.394-1.959ZM60.887 55.896c-.077-.166-.357-.049-.3.125.198.6.28 1.233.178 1.858-.036.227.304.328.349.097.138-.726.08-1.407-.231-2.08h.004ZM37.181 56.175c-.04-.227-.413-.174-.4.053.04.746.117 1.5.263 2.234.04.22.389.167.385-.052a16.523 16.523 0 0 0-.243-2.234h-.005ZM33.224 39.108c-.77.499-1.143 1.448-1.14 2.34 0 .178.272.178.276 0 .025-.872.434-1.517 1.03-2.125.106-.11-.032-.3-.166-.215ZM59.861 39.87c-.353-.445-.547-1.013-.604-1.577-.029-.292-.442-.3-.458 0-.04.73.247 1.37.754 1.886.203.207.478-.093.308-.308ZM60.611 38.014c-.028-.175-.324-.138-.312.04a8.417 8.417 0 0 1-.203 2.628c-.048.198.244.28.308.085.292-.92.365-1.805.207-2.758v.005Z"/></svg>