<svg xmlns="http://www.w3.org/2000/svg" width="29" height="80" fill="none"><path fill="#7780A1" d="M27.326 24.064c-.65-1.072-1.574-2.004-2.678-2.598a4.133 4.133 0 0 0-.398-.188c.15-.618.227-1.278.147-2.067-.21-2.087-1.11-3.923-2.339-5.596-2.297-3.127-3.934-6-3.952-9.987-.017-3.886-4.943-4.863-6.971-1.889C8.642 5.394 9.016 9.7 7.49 13.668c-1.113 2.894-2.894 5.33-3.466 8.137-2.042.318-3.439 1.522-3.592 3.718a174.68 174.68 0 0 0-.356 17.42c.063 2.14 1.627 3.505 3.445 3.648-.049.499.028 1.27.018 1.585-.042 1.228-.084 2.457-.13 3.682-.09 2.594-.18 5.185-.261 7.778-.157 5.184-.384 10.368-.328 15.556.028 2.761 2.443 3.812 4.44 3.243 1.026 1.016 2.51 1.438 3.955 1.525 3.676.227 7.548-.544 10.98-1.804 1.609-.59 2.69-1.854 2.747-3.606l.502-15.598c.08-2.461.157-4.926.238-7.387.045-1.368.087-2.737.132-4.105.018-.51-.014-1.047.007-1.575.238-.136.454-.265.517-.303.68-.437 1.229-1.065 1.62-1.774.698-1.26.65-2.75.667-4.147.031-3.061.115-6.126.097-9.184-.014-2.161-.251-4.521-1.396-6.413Z"/><path fill="#fff" d="M27.85 38.39c.052-2.017.083-4.038.09-6.056.008-1.885-.007-3.77-.041-5.652-.021-1.09.1-2.322-.566-3.257-.81-1.135-2.314-1.438-3.816-1.508a.427.427 0 0 0 .032-.234 11.546 11.546 0 0 1-.182-1.962c0-.555.119-1.124-.014-1.665a.348.348 0 0 0-.185-.227c-.007-.021-.007-.042-.017-.063-1.11-2.266-2.297-4.838-3.896-6.797-.08-.101-.195-.125-.31-.115.1-1.32.544-3.697-.832-4.158-.041-.014-.09-.02-.136-.035-.227-.733-.47-1.462-.642-2.213-.192-.824-.203-1.731-.51-2.513-.146-.374-.639-.304-.684.094-.098.87.227 1.79.468 2.622.185.638.394 1.27.656 1.878-1.016-.102-2.192.06-3.114.035a517.926 517.926 0 0 0-4.657-.105.192.192 0 0 0-.059-.045.508.508 0 0 0 .035-.116l.38-.516a107.733 107.733 0 0 0 2.147-3.187c.304-.472-.443-.905-.75-.44-.468.712-.929 1.43-1.38 2.153-.327.531-.931 1.212-1.06 1.83a.649.649 0 0 0 .052.398.409.409 0 0 0-.168.317c0 1.358.014 2.713.137 4.067a.27.27 0 0 0 .031.098c-.792.862-1.344 1.976-2.014 2.94-.747 1.075-1.53 2.118-2.308 3.17a.302.302 0 0 0-.02.338.596.596 0 0 0-.126.46c.17 1.226.342 2.455.53 3.677-1.717.027-3.494.36-3.707 2.119a.352.352 0 0 0-.182.314c-.104 4.021 0 8.046.053 12.068.024 1.892-.004 3.798.084 5.687.048 1.06.153 2.23.9 3.054.573.632 1.313.817 2.137.894.366.035.736.049 1.106.056-.122 3.745-.108 7.498-.101 11.251-.073.105-.08.255 0 .35v8.538c0 2.16-.216 4.437.15 6.57.06.338.625.338.684 0 .088-.51.14-1.026.168-1.55 5.47.806 11.24.454 16.721.094-.003.454-.014.904-.017 1.358 0 .611.9.6.943 0 .307-4.524.296-9.097.349-13.629.049-4.416.16-8.87-.13-13.282 1.592.038 3.191-.154 3.558-1.788.363-1.63.17-3.648.216-5.313l-.003-.003Zm-5.062-16.494c-.758-.004-1.48.028-2.08.014l-13.696-.262c-.405-.007-.88-.032-1.382-.042-.08-1.096-.175-2.192-.272-3.288 5.596.502 11.457.872 17.056.429-.15 1.02.136 2.245.374 3.142v.007ZM16.323 7.489l.342.01c.747.021.91-.146 1.246.52.356.713.213 1.861.16 2.748a34.28 34.28 0 0 0-2.084-.095c.224-1.047.336-2.112.336-3.183Zm-2.769 1.76c.067-.601.213-1.233.178-1.834l1.488.042c.15.004.296.007.446.014a13.965 13.965 0 0 1-.111 3.194 90.41 90.41 0 0 0-2.172.01c.063-.474.119-.949.171-1.427ZM9.477 7.275c1.236.045 2.468.084 3.704.122-.108.51-.091 1.058-.122 1.57-.035.57-.074 1.142-.098 1.711-.59.01-1.18.021-1.767.028.032-.478.039-.956.056-1.434.014-.486.108-1.01-.045-1.474a.234.234 0 0 0-.447 0c-.15.461-.06.992-.045 1.474.014.481.024.96.056 1.441-.493.004-.981.004-1.467-.003a.248.248 0 0 0-.073.01c.136-1.141.2-2.29.244-3.442l.004-.003ZM7.525 14.61c.713-.991 1.56-2.038 1.987-3.19 2.831.314 5.959.593 8.787.15a.482.482 0 0 0 .349.01c.932 2.189 2.471 4.311 3.847 6.252-5.715-.233-11.43-.167-17.151-.478a35.118 35.118 0 0 0 2.181-2.744Zm-5.24 28.444c-.18-.736-.136-1.616-.15-2.37-.03-1.94-.052-3.885-.083-5.826-.05-3.387-.07-6.77-.23-10.152a.426.426 0 0 0 .352-.464c-.035-.786.475-1.226 1.215-1.466-.112 7.23-.307 14.546.3 21.752-.67-.203-1.19-.594-1.407-1.477l.004.003Zm5.227 11.402c-.482.01-.94.077-1.317.248 0-2.971-.007-5.942-.104-8.91.51-.006 1.023-.03 1.532-.059-.125 2.856-.049 5.722-.185 8.581a.16.16 0 0 0 .07.136l.004.004ZM6.227 70.458c.045-1.372-.039-2.765-.039-4.123v-8.74c.423.058.849.11 1.271.156-.544 1.1-.167 3.3-.164 4.081.007 2.863.143 5.732.506 8.57-.527.014-1.054.028-1.578.053l.004.003Zm1.895-.063c-.076-1.92-.17-3.84-.199-5.76a122.351 122.351 0 0 1 0-3.2c.007-.643-.185-2.839.234-3.614 1.177.112 2.357.181 3.54.22-.583 3.98-.618 8.127-.523 12.138.003.213.324.213.331 0 .175-4.036.538-8.085.635-12.124.65.017 1.3.028 1.948.035.084 4.08.105 8.18.37 12.253-2.111 0-4.227 0-6.339.049l.003.003Zm6.783-.052c.067-4.08-.108-8.169-.22-12.246.849.007 1.721.02 2.598.024-.032 4.067-.088 8.141.01 12.208-.796.007-1.592.014-2.384.014h-.004ZM20.1 58.051c0 4.074 0 8.148.122 12.219-.838.028-1.68.042-2.517.052.157-4.063.16-8.137.189-12.2a38.461 38.461 0 0 0 2.202-.07h.004Zm3.114.723c-.05 3.788-.213 7.579-.272 11.37h-.004a82.3 82.3 0 0 1-2.273.112c.126-4.085.123-8.17.123-12.254a19.89 19.89 0 0 0 2.436-.355c0 .377-.003.754-.01 1.127Zm.014-1.878c-2.93-.196-5.96.237-8.906.237-2.712 0-5.421-.15-8.13-.188V55.02c2.691.72 5.69.691 8.441.674 2.87-.014 5.757-.213 8.595-.66v1.86ZM8.192 45.71a53.784 53.784 0 0 1 2.252-.077.367.367 0 0 0-.018.066c-.125 2.989-.209 5.98-.24 8.972-.747-.066-1.63-.21-2.451-.216a.148.148 0 0 0 .052-.088c.461-2.768.747-5.864.405-8.657Zm2.877-.09 2.607-.053a.354.354 0 0 0-.048.237c.481 3.002.548 5.952.206 8.958-1.08 0-2.158-.017-3.236-.063h-.018c.216-2.995.38-5.997.506-9a.274.274 0 0 0-.014-.08h-.003Zm3.201.006c-.007-.028-.018-.049-.028-.07.988-.02 1.976-.038 2.964-.059a.362.362 0 0 0-.07.192c-.16 2.96-.202 5.952.032 8.912 0 .025.01.046.017.067-.848.049-1.697.087-2.548.097h-.398c.569-3.037.586-6.088.031-9.135v-.004Zm3.54-.14 2.594-.052c-.503 2.905-.528 6.085-.563 9.031-.733.067-1.47.126-2.202.171 0-.014.007-.024.007-.038.028-2.978.045-5.938.22-8.912a.338.338 0 0 0-.056-.203v.003Zm5.421 8.63c-.97.112-1.937.217-2.904.307.377-2.918.806-6.067.701-9 .273-.006.549-.01.82-.017.448-.01.971.028 1.52.056-.137 2.88-.137 5.767-.137 8.654Zm-1.798-9.698-5.795.116c-1.654.03-3.313.066-4.967.097-1.857.035-3.952.328-5.795.116a9.958 9.958 0 0 1-.845-.13c0-.01.007-.017.007-.028.28-7.313.007-14.658.112-21.982 1.48-.216 3.369.042 4.102.056l4.981.094c3.484.066 7.017-.035 10.49.213.224.017.479.038.744.073-.094 3.645.094 7.314.105 10.958.007 3.428-.356 7.045.094 10.449-1.1.136-2.374-.046-3.23-.028l-.003-.004Zm5.429-6.43c-.025.943-.053 1.885-.087 2.824-.025.684.164 1.826-.102 2.423-.303.688-.928 1.012-1.668 1.159.555-3.365.268-6.996.279-10.393.01-3.592.122-7.23-.087-10.818.307.084.597.199.823.363 1.114.817.877 2.758.894 3.941.028 1.75.035 3.502.028 5.25a263.38 263.38 0 0 1-.08 5.251Z"/><path fill="#fff" d="M13.963 25.952c-4.385.119-8.235 3.893-7.998 8.368.171 3.212 3.735 8.287 7.436 7.027.08.094.202.154.363.15 4.517-.15 9.209-2.143 9.177-7.37-.027-4.698-4.45-8.3-8.978-8.175Zm-.2 14.547a.522.522 0 0 0-.202.045c-1.627-.213-3.117-.352-4.437-1.54-1.382-1.245-2.202-3.124-2.223-4.984-.046-3.97 3.508-7.157 7.383-7.115 3.864.046 7.687 3.177 7.676 7.22-.01 4.684-4.217 6.245-8.196 6.37v.004Z"/><path fill="#fff" d="M17.23 31.321c-.928.957-1.724 2.084-2.524 3.167a25.278 25.278 0 0 1-3.567-2.856c-.29-.276-.699.14-.437.436 1.142 1.313 2.45 2.42 3.886 3.397.146.098.418.073.534-.07.935-1.159 1.965-2.314 2.75-3.581.245-.391-.317-.824-.638-.493h-.004ZM7.675 40.31c-.555-.22-1.043-.52-1.326-1.064-.052-.102-.227-.032-.185.076.244.625.782 1.173 1.48 1.215.143.01.143-.185.031-.23v.003ZM8.758 42.126c-1.543-.206-2.86-.978-3.303-2.563-.045-.167-.286-.094-.255.07.287 1.616 1.892 3.114 3.61 2.845.22-.035.133-.328-.049-.352h-.003ZM20.767 23.847c-.887-.185-1.753-.035-2.584.304-.14.056-.087.272.063.23.814-.233 1.634-.247 2.475-.206.185.011.227-.29.046-.328ZM21.877 24.957c-.712-.247-1.501-.342-2.241-.492-.171-.035-.245.22-.074.265.744.196 1.505.461 2.27.563.198.024.212-.273.045-.332v-.004ZM18.913 14.457c-.241-.482-.559-.929-.845-1.386-.098-.157-.342-.018-.251.146.265.468.513.96.824 1.4.118.164.366.025.272-.16ZM9.358 16.07c-.447-.133-.935-.179-1.396-.259-.206-.035-.3.269-.087.321.47.112.953.266 1.434.325.227.028.255-.325.053-.384l-.004-.003ZM11.264 15.218c-.74-.039-1.483 0-2.227.01-.185.004-.185.286 0 .29.744.014 1.484.049 2.227.01.203-.01.203-.303 0-.314v.004ZM15.54 4.2c-.174-.23-.383-.433-.527-.688-.076-.132-.118-.275-.178-.418-.042-.102-.108-.158-.129-.266-.017-.094-.164-.07-.164.021 0 .147-.063.227-.035.377.032.168.094.328.168.482.15.307.377.58.701.702.112.042.238-.116.165-.213V4.2ZM7.902 25.027c-.687.154-1.06.841-.97 1.515.024.171.314.133.304-.042-.025-.495.3-.953.757-1.141.2-.084.13-.38-.09-.332ZM22.571 40.866c-.328.352-.59.747-.865 1.145-.109.157.146.356.268.206.3-.377.608-.737.852-1.152.09-.157-.125-.336-.255-.196v-.003ZM21.992 50.664c-.035-.153-.272-.153-.31 0-.105.44-.018.985 0 1.435.006.196.296.196.303 0 .018-.45.105-.995 0-1.434h.007ZM12.21 52.623c-.265-.639-.272-1.236-.265-1.913 0-.133-.199-.16-.23-.032-.171.67.007 1.418.286 2.036.052.118.262.031.21-.088v-.003ZM12.524 48.759a.147.147 0 0 0-.293 0c-.104 1.1-.024 2.237.025 3.337.007.157.233.157.24 0 .053-1.1.13-2.241.025-3.337h.003ZM9.959 59.584c-.028-.108-.185-.08-.189.024-.02.562-.045 1.086-.276 1.61-.059.132.133.248.196.115.258-.538.419-1.16.269-1.749ZM8.859 60.167c-.007-.13-.192-.13-.199 0-.052.925 0 1.854.021 2.782 0 .102.154.102.157 0 .024-.928.073-1.857.021-2.782ZM16.06 67.358a3.14 3.14 0 0 1-.198-1.868c.031-.17-.224-.247-.266-.073a2.982 2.982 0 0 0 .262 2.056c.067.136.259.018.2-.115h.003ZM22.292 60.167c-.007.555.01 1.114.025 1.669 0 .1.153.1.157 0 .01-.555.028-1.114.024-1.669 0-.13-.202-.133-.202 0h-.004Z"/></svg>