<svg xmlns="http://www.w3.org/2000/svg" width="110" height="80" fill="none"><path fill="#7780A1" d="M116.28 45.172A1219.935 1219.935 0 0 0 74.952 3.584C71.038-.174 65.025 1.705 63.353 6.65a210.046 210.046 0 0 1-7.614 19.316A741.985 741.985 0 0 0 41.367 14.51a850.069 850.069 0 0 0-11.923-9.085C25.945 2.815 22.401-.582 17.69.085c-4.49.642-7.018 4.588-9.662 7.847a457.056 457.056 0 0 0-8.624 11.01c-5.677 7.47-10.698 15.24-15.286 23.417-1.672 2.975-.758 5.605 1.153 7.109-2.754 6.318-3.123 13.504-.447 19.984 3.7 8.955 13.394 7.685 21.52 7.996 17.65.667 35.302 1.296 52.96 1.736 8.702.214 17.397.383 26.1.48 8.618.097 17.638.836 26.198-.246 7.633-.966 15.266-5.806 15.96-14.133.706-8.443-5.975-14.502-11.288-20.113h.006Z"/><path fill="#fff" d="M61.752 74.104c-.408 0-.408.629 0 .629.409 0 .409-.629 0-.629Z"/><path fill="#fff" d="M125.689 55.909c-8.139-9.435-16.848-18.442-25.498-27.403-8.58-8.878-17.133-17.962-26.464-26.069-.078-.136-.149-.272-.227-.408-.356-.648-1.211-.544-1.594 0-5.352 7.646-10.737 15.273-16.121 22.906-10.627-7.283-21.844-14.281-33.1-20.554-.492-.42-.984-.732-1.477-.848-1.736-.428-2.721 1.367-3.72 2.527-2.643 3.065-5.293 6.123-7.937 9.195-5.45 6.33-10.912 12.674-16.135 19.193-.453.563.298 1.367.81.81C-.609 29.704 4.367 23.976 9.35 18.26c2.327-2.67 4.64-5.352 6.953-8.035.61-.706 3.136-4.53 3.972-4.594 1.387-.104 2.288 1.776 3.137 2.773a682.555 682.555 0 0 1 13.516 16.46 683.502 683.502 0 0 1 7.096 9.07c.66.863 1.626 2.975 2.819 3.7-8.6 12.241-17.14 24.52-25.453 36.949-.532.79.712 1.484 1.257.738 17.087-23.379 33.384-47.36 49.966-71.09a2124.195 2124.195 0 0 0 41.399 71.35c.616 1.01 2.203.084 1.588-.927A2117.724 2117.724 0 0 1 76.203 6.876c7.432 7.763 15.227 15.195 22.685 22.926 8.664 8.987 16.984 18.28 25.544 27.364.797.849 2.009-.402 1.263-1.264l-.006.007ZM47.711 35.685c-.143-.103-.305-.13-.46-.103-.875-1.024-2.126-3.227-2.534-3.752-.946-1.225-1.892-2.45-2.851-3.668a660.022 660.022 0 0 0-7.322-9.194 669.1 669.1 0 0 0-7.478-9.066c-.46-.55-1.03-1.386-1.659-2.274 9.487 6.61 19.427 12.92 29.38 18.713-2.255 3.195-4.51 6.39-6.765 9.59a3.949 3.949 0 0 0-.318-.246h.007Z"/><path fill="#fff" d="M45.903 22.505c-1.724-1.075-3.869-1.814-5.754-2.579-.214-.084-.357.266-.156.37 1.789.985 3.72 2.17 5.65 2.831.376.13.584-.427.266-.622h-.006ZM48.514 26.089c-2.41-1.043-4.652-2.365-6.616-4.121-.362-.324-.887.2-.53.531 1.995 1.886 4.25 3.383 6.829 4.341.434.163.752-.57.317-.758v.007ZM98.901 43.033c-.745-2.242-2.416-4.315-3.81-6.181-.09-.123-.265-.02-.207.123.927 2.132 1.912 4.607 3.486 6.363.207.233.629-.013.525-.305h.006ZM103.379 45.314c-1.426-2.313-3.091-4.497-4.672-6.706-.175-.246-.577-.02-.408.24 1.47 2.28 2.883 4.626 4.51 6.803.246.33.797.04.57-.33v-.007ZM62.673 21.145c-.946 1.607-1.918 3.136-3.22 4.484-.215.22.116.55.336.336 1.36-1.308 2.592-2.818 3.33-4.561.13-.298-.278-.564-.453-.266l.007.007ZM44.075 48.01c-1.321 1.996-2.494 4.082-3.687 6.156-.13.227.208.415.344.2 1.29-2.015 2.605-4.01 3.765-6.103.155-.279-.253-.512-.428-.247l.006-.006ZM47.627 46.351c-1.102 1.348-2.132 2.741-3.17 4.14-.116.156.15.364.273.215 1.108-1.342 2.21-2.683 3.253-4.076.149-.201-.194-.473-.356-.272v-.007ZM4.277 26.75C3.019 27.903 1.84 29.134.674 30.378c-.233.247.123.603.37.37 1.243-1.167 2.48-2.346 3.628-3.603.246-.272-.13-.648-.402-.402l.007.007ZM8.877 25.032c-1.522.85-2.702 2.366-3.544 3.862-.143.253.24.473.389.227.92-1.503 2.138-2.56 3.46-3.7.22-.188-.065-.531-.305-.395v.006ZM25.848 61.864c-1.322 1.814-2.495 3.732-3.694 5.63-.2.318.292.59.493.292 1.27-1.853 2.566-3.687 3.713-5.618.2-.337-.292-.602-.512-.298v-.006ZM30.94 21.047c-1.392-1.185-2.656-2.494-3.719-3.985-.142-.194-.466-.013-.323.188 1.05 1.543 2.28 2.936 3.745 4.096.214.168.518-.124.304-.305l-.006.006ZM30.403 24.177c-.693-.855-1.387-1.704-2.08-2.56-.078-.097-.253.033-.175.137l2.009 2.617c.136.182.395-.012.253-.194h-.007ZM18.163 40.202c-.616 1.16-1.128 2.365-1.659 3.564-.155.343.343.648.512.298.59-1.2 1.199-2.391 1.71-3.629.137-.324-.401-.544-.563-.24v.007ZM71.848 37.616c-.609 1.225-.771 2.47-.505 3.81.064.33.55.188.499-.136a6.495 6.495 0 0 1 .414-3.505c.097-.233-.291-.395-.401-.169h-.007ZM99.647 59.849c-1.258-2.145-2.625-4.212-3.992-6.286-.194-.291-.654-.026-.473.272 1.29 2.126 2.579 4.238 3.978 6.292.201.292.668.033.487-.285v.007ZM98.564 62.972c-.9-1.957-2.021-3.817-3.078-5.69-.149-.259-.538-.032-.401.234.972 1.918 1.905 3.881 3.039 5.715.175.285.583.039.447-.26h-.007ZM81.535 25.784c-.835-1.393-1.736-2.74-2.624-4.102-.162-.252-.57-.019-.408.24.862 1.374 1.71 2.76 2.624 4.102.169.246.564.026.408-.24ZM64.066 58.332c-.577 1.743-.739 3.486-.447 5.3.039.26.499.202.466-.064-.214-1.73-.097-3.447.409-5.119.084-.272-.338-.389-.428-.117ZM93.957 29.374c-.79-1.795-1.983-3.227-3.583-4.361-.279-.194-.525.253-.266.454a11.684 11.684 0 0 1 3.408 4.166c.143.298.57.039.441-.26Z"/></svg>