<svg xmlns="http://www.w3.org/2000/svg" width="54" height="80" fill="none"><path fill="#7780A1" d="M50.127 23.94c-1.873-.282-4.045-.376-6.058-.737 1.244-5.867 3.002-11.698 4.438-17.496.487-1.97-.62-4.269-2.703-4.756C38.238-.824 30.47-.113 23.38 3.076c-2.44 1.097-2.8 2.818-3.338 5.24-.425 1.915-.855 3.828-1.28 5.744-.74 3.327-1.483 6.65-2.223 9.976a22.309 22.309 0 0 0-3.821 1.09c-1.166.455-2.328.913-2.992 2.05-.627 1.071-.62 2.562-.804 3.77-.74 4.9-1.577 9.786-2.519 14.65-1.854 9.59-4.077 19.13-6.3 28.642-.635 2.713 1.812 4.294 3.854 3.82a3.28 3.28 0 0 0 1.703.917c12.723 2.674 25.362-.36 37.663-3.655 1.782-.476 2.663-2.02 2.84-3.727a430.343 430.343 0 0 1 6.667-42.895c.383-1.854-.53-4.43-2.702-4.755v-.004ZM33.222 69.586c.141.09.296.17.459.245-.199.047-.394.098-.592.145.043-.13.086-.26.133-.387v-.003Zm5.452-1.263c.05-.115.098-.235.148-.35l-.061.556c-.076.018-.148.04-.224.057.05-.086.098-.17.137-.263Z"/><path fill="#fff" d="M52.66 24.798a.438.438 0 0 0-.134-.21c-1.035-.865-2.937-.988-4.225-1.27a73.624 73.624 0 0 0-1.779-.364c.679-6.376 1.725-12.622 2.656-18.958.076-.516-.66-.757-.808-.223-.173.62-.329 1.252-.48 1.883-7.964-4.553-18.713-1.862-26.838 1.32.126-.714.256-1.432.393-2.146a.458.458 0 0 0-.003-.199c4.243-1.663 8.565-2.478 13.13-2.717 2.028-.104 4.07-.18 6.101-.108 2.667.094 4.71.758 7.05 1.985.409.213.845-.307.502-.65C45.108.021 39.295.684 35.312.875c-4.933.235-10.114.837-14.423 3.432a.38.38 0 0 0-.285.292c-.23.927-.447 1.873-.656 2.818l-.213.087c-.246.1-.163.476.104.415-1.05 4.907-1.746 10.023-1.807 14.963l.003.021c-3.081.625-6.072 1.527-8.786 2.826-.191.09-.05.36.137.325 3.349-.66 6.614-1.667 9.977-2.274a73.527 73.527 0 0 1 21.426-.692c3.529.407 7.891.783 11.185 2.211.184.08.394.022.534-.097-.144.92-.292 1.84-.436 2.76a.636.636 0 0 0-.134-.054C38.13 24.628 22.78 24.722 9.307 29.5l.368-2.911c.076-.6-.866-.596-.942 0C7.28 38.022 5.45 49.42 3.898 60.848l-.04.01c-.209.066-.173.318-.014.383a550.13 550.13 0 0 0-1.234 9.72c-.04.34.53.415.595.08.484-2.454.928-4.915 1.35-7.383h.018c6.996-1.403 14.032-2.453 21.177-2.655 6.974-.199 13.668.721 20.577 1.36.051.004.094 0 .134-.014-.397 2.655-.718 5.311-.88 7.963-.019.307.454.36.526.072 1.884-7.314 2.587-15.068 3.767-22.522 1.187-7.527 2.378-15.054 3.565-22.58.076-.491-.52-.744-.79-.484h.01Zm-27.285-7.563c-.04 1.512-.325 2.984-.498 4.481a.265.265 0 0 0 .06.217 63.872 63.872 0 0 0-3.77.436c.274-1.627.487-3.258.816-4.874.17-.83.555-4.637 1.35-4.965l1.724.53c.13.635.216 1.274.26 1.916.061.75.075 1.508.058 2.259Zm5.99 4.38c-.286.004-.575.015-.863.019a.268.268 0 0 0 .061-.177c-.014-1.678.065-3.334.39-4.987.234-1.176.631-3.796 1.804-4.427l1.587.119c.134.469.242.945.329 1.425.162.92.227 1.87.206 2.8-.037 1.7-.394 3.298-.96 4.89a.361.361 0 0 0 .036.342 69.057 69.057 0 0 0-2.59-.007v.003Zm6.8.217c.177-1.216.376-2.425.675-3.62.246-.962.664-3.575 1.469-4.178l2.003-.378c.137.573.223 1.154.256 1.746.054.696.065 1.396.029 2.093-.084 1.62-.48 3.114-.903 4.665v.033a72.004 72.004 0 0 0-3.525-.358l-.003-.003Zm4.713.509c-.133-.018-.267-.033-.397-.05.953-2.372 1.187-5.063.88-7.585-.133-1.097-.353-2.505-1.717-2.562-1.512-.065-2.118 1.555-2.551 2.72a24.01 24.01 0 0 0-1.48 6.928 72.753 72.753 0 0 0-2.944-.151c.03-.04.062-.08.08-.13.855-2.396 1.201-4.897.858-7.426-.158-1.173-.277-3.41-1.89-3.42-3.908-.022-3.922 8.464-3.735 10.792.007.079.04.14.087.187a89.697 89.697 0 0 0-4.54.242c.015-.025.033-.047.044-.076.761-2.392.794-5.105.52-7.584-.123-1.108-.372-3.028-1.844-3.125-1.39-.094-1.898 1.49-2.194 2.551-.783 2.793-1.306 5.755-1.45 8.656 0 .054.014.101.04.14-.661.102-1.318.21-1.975.333.718-5.08 1.397-10.118 2.273-15.158 4.345-1.216 8.671-2.616 13.174-3.085 4.817-.502 9.082.317 13.57 2.01-1.19 5.286-1.756 10.94-1.908 16.269a71.046 71.046 0 0 0-2.897-.473l-.004-.003Zm3.698 39.319a.385.385 0 0 0-.133-.065c-6.737-1.617-14.202-1.7-21.09-1.444-6.971.26-13.96 1.151-20.7 2.984.115-.689.227-1.378.339-2.067 5.542-1.057 11.055-2.024 16.662-2.515l-.021.216c-.033.322.458.365.545.073.032-.116.06-.228.093-.343 1.14-.09 2.28-.17 3.428-.217 7.137-.288 14.098.365 21.17 1.205.021 0 .04-.003.061-.007-.12.725-.245 1.45-.357 2.176l.003.004ZM8.228 59.681c.408-1.76.707-3.55 1.01-5.333.267-1.58.372-5.322 2.837-4.817 1.833 1.88-.769 7.48-1.188 9.476-.007.04-.003.075 0 .111-.887.173-1.775.358-2.655.563h-.004Zm6.697-1.248c.732-2.493 1.927-9.833 4.456-9.551.978 1.19.585 2.883.267 4.29-.36 1.602-.772 3.197-1.079 4.81-1.216.13-2.432.274-3.644.447v.004Zm7.588-.801c.383-1.458.693-2.937 1.014-4.41.404-1.847.657-4.74 2.883-5.044 1.508 2.602-.249 6.437-.56 9.259-.187.007-.37.014-.559.025-.923.047-1.85.105-2.782.17h.004Zm11.2-.293c-1.31-.028-2.62-.036-3.926-.018.736-2.72 1.097-10.124 4.724-9.27.469 3.169-.037 5.897-.88 8.982a.316.316 0 0 0 .078.306h.004Zm8.173.538a85.57 85.57 0 0 0-3.601-.332c-.044-1.49.104-2.948.584-4.366.235-.689 1.703-3.969 2.869-4.427 0 .119.072.245.216.238 1.949-.09.134 7.718-.104 8.573a.37.37 0 0 0 .04.314h-.004Zm7.018-9.843c-.556 3.518-1.23 7.068-1.837 10.63-.025-.011-.047-.03-.08-.033a69.1 69.1 0 0 0-4.409-.674.426.426 0 0 0 .087-.166c.35-1.227 1.977-7.964.14-9.097a.453.453 0 0 0-.017-.505c-1.202-1.508-3.078 1.429-3.598 2.288-1.288 2.128-1.768 4.586-1.468 7.036-1.17-.073-2.342-.127-3.515-.16.015-.017.033-.032.044-.053 1.504-2.71 1.613-6.163.837-9.136.296-.098.433-.585.094-.75-4.655-2.234-6.033 6.747-5.878 9.918-.902.015-1.8.04-2.7.076a33.717 33.717 0 0 0 1.094-5.834c.126-1.274 0-2.404-.685-3.41.079.003.155 0 .241.014.318.04.437-.465.163-.599-1.67-.822-3.15.386-3.821 1.934-1.036 2.389-1.465 5.5-1.823 8.184-.793.061-1.587.126-2.381.205.58-2.085 1.274-4.362 1.367-6.505.044-1.003-.14-1.923-.75-2.613a.374.374 0 0 0-.112-.48c-3.485-2.45-5.304 7.581-5.445 10.205-.916.137-1.829.285-2.742.454.747-2.219 1.678-4.831 1.815-7.148.054-.923-.152-1.732-.668-2.313a.368.368 0 0 0-.043-.364c-1.212-1.497-3.103-.061-3.673 1.27-.527 1.234-.599 2.782-.808 4.095-.278 1.769-.556 3.54-.722 5.323-.851.209-1.696.429-2.533.67a508.76 508.76 0 0 0 2.01-13.667c7.105-1.155 14.1-2.284 21.314-2.472 3.41-.086 6.823-.029 10.225.195 3.544.235 7.04.855 10.573 1.137.025 0 .043-.008.064-.008-.122.787-.248 1.57-.371 2.356l.01-.003Zm.483-3.06c-.025-.01-.047-.029-.076-.036-6.801-1.598-14.357-1.624-21.306-1.4-6.928.22-14.112.895-20.83 2.71l.249-1.87c7.036-1.403 14.032-2.518 21.223-2.662 3.497-.069 6.993.029 10.478.317 3.49.289 6.914.971 10.389 1.354.046.007.09 0 .13-.011-.084.534-.17 1.068-.253 1.602l-.004-.004ZM14.755 42.14a74.667 74.667 0 0 0-3.806.743 67.506 67.506 0 0 0 1.194-5.134c.393-1.995.455-4.54 2.566-5.412 1.41.746 1.869 1.703 1.363 2.868-.079.22-.158.444-.238.664-.252.75-.53 1.476-.721 2.248-.3 1.23-.433 2.464-.466 3.727 0 .126.043.224.108.292v.004Zm4.54-.646c.4-1.696.783-3.399 1.15-5.105.448-2.075.683-4.384 3.068-4.998 1.046.97-.116 5.463-.242 6.076-.253 1.234-.541 2.458-.686 3.706-1.097.09-2.194.195-3.29.321Zm7.87-.599c.403-1.688.79-3.384 1.179-5.08.4-1.743.722-3.915 2.374-4.745.076.155.325.22.408.029.862.198 1.27.639 1.22 1.317a22.832 22.832 0 0 1-.004 3.413c-.123 1.696-.574 3.294-.852 4.954-1.093.011-2.179.033-3.247.065-.36.011-.722.033-1.082.047h.003Zm8.453-.076c.256-2.244.498-9.68 3.5-9.51a.39.39 0 0 0 .152-.03c1.432.513.815 3.27.682 4.142-.116.755-.25 1.505-.372 2.26-.18 1.1-.397 2.193-.498 3.3a92.67 92.67 0 0 0-3.464-.162Zm7.585.567c.62-1.245.664-2.782.938-4.142.188-.942.761-5.564 2.55-5.207.012.007.015.018.026.025 1.552 1.08.845 3.88.592 5.34-.26 1.49-.707 2.92-1.04 4.392-.006.025 0 .047 0 .072a53.222 53.222 0 0 0-3.066-.477v-.003Zm6.549 1.284a.39.39 0 0 0-.134-.068 44.771 44.771 0 0 0-2.648-.606c0-.008.007-.008.01-.015.888-2.154 1.408-4.78 1.466-7.122.025-1.076-.148-2.172-.942-2.85a.297.297 0 0 0-.015-.264c-.822-1.454-2.497-.394-3.045.732-.657 1.342-.844 3.082-1.111 4.536-.253 1.382-.664 2.955-.34 4.34a69.7 69.7 0 0 0-3.132-.317c.697-2.609 2.483-10.19-.7-10.424-3.983-1.256-4.023 7.71-4.08 10.19-.95-.022-1.895-.03-2.833-.026 1.014-2.609 1.67-6.848.79-9.396-.173-.501-.595-.978-1.042-1.183-.062-.148-.184-.267-.368-.26-1.686.058-2.736 1.158-3.342 2.674-1.024 2.562-1.331 5.582-1.663 8.306-1.09.05-2.18.108-3.27.191.661-2.201 3.299-11.496-.475-10.431-1.09.17-1.91 1.024-2.4 2.11-1.165 2.584-1.36 5.932-1.844 8.703-.003.03 0 .051 0 .076-1.05.13-2.1.278-3.143.448a.486.486 0 0 0 .04-.17c.043-1.757.343-3.424.899-5.088.364-1.09 1.003-2.388.664-3.582-.358-1.267-1.574-2.1-2.754-1.563-1.356.213-2.1 1.526-2.457 2.88-.721 2.749-1.118 5.668-1.41 8.493-.993.228-1.981.477-2.96.75.589-4.499 1.148-9.002 1.711-13.49h.01c14.084-3.836 28.163-4.81 42.459-1.415a.477.477 0 0 0 .249-.007l-2.187 13.841-.003.007Z"/><path fill="#fff" d="M10.09 67.158c-.184-.909-.733-1.717-1.67-1.948-.77-.188-1.49.097-1.87.794-.642 1.18-.895 2.857-1.144 4.167-.072.38.437.513.574.159.336-.862.595-1.754.862-2.638.123-.407.203-1.042.47-1.392.476-.617 1.22-.293 1.598.162 1.072 1.28-.108 3.2.631 4.593.156.292.556.13.581-.159.058-.678 0-1.378.033-2.063.025-.56.05-1.123-.061-1.675h-.004ZM15.452 65.17c-2.598-.227-2.937 3.71-3.204 5.424-.043.27.343.393.422.115.368-1.328.556-3.9 1.999-4.619 1.205-.599 2.165.679 2.277 1.74.1.949-.318 1.814-.412 2.738-.032.34.477.451.628.17.938-1.743.928-5.344-1.706-5.571l-.004.003ZM24.35 67.458c-.264-.873-.754-2.215-1.754-2.464-2.313-.574-3.11 4.207-3.056 5.66.01.243.393.322.44.062.224-1.194.79-4.69 2.288-4.662.667.011.761.423 1.006.989.166.386.293.776.38 1.19.19.92-.015 1.765.093 2.667.036.289.433.473.6.163.558-1.036.331-2.515.003-3.601v-.004ZM31.689 67.13c-.285-.845-.707-1.913-1.786-1.794-1.043.116-1.88 1.148-2.418 1.956a6.564 6.564 0 0 0-1.1 3.612c0 .339.469.314.508 0 .127-.953.376-1.844.863-2.681.382-.653 1.057-1.685 1.818-1.912 1.887-.567 1.667 3.813 1.584 4.878-.032.447.672.534.78.105.332-1.346.188-2.858-.253-4.164h.004ZM38.324 65.51c-2.742-.21-3.709 2.944-3.878 5.08-.022.288.422.335.498.068.458-1.638 1.035-4.467 3.323-4.261 1.898.17 1.757 2.558 1.815 3.937.021.548.775.526.837 0 .213-1.851-.289-4.648-2.591-4.821l-.004-.004ZM12.67 31.148c-.884-.274-1.718.686-1.678 1.516.007.148.21.14.227 0 .044-.368.257-.711.556-.928.27-.194.577-.256.899-.31.148-.025.122-.238 0-.278h-.004ZM9.924 32.249c-.202.184-.375.39-.545.606-.105.134.054.303.188.188.209-.177.404-.358.58-.567.134-.155-.072-.368-.227-.227h.004ZM35.221 10.719c-.267-.549-.78-1.018-1.172-1.48-.138-.162-.426.058-.296.228l.588.772c.184.241.36.501.599.696.155.126.372-.025.278-.216h.003ZM36.993 11.617c-.227-1.13-.978-2.169-1.808-2.937-.155-.145-.375.076-.23.23.779.845 1.204 1.769 1.645 2.815.1.238.447.155.393-.108ZM45.288 7.262c-.44-.718-1.36-1.018-2.168-.949-.228.018-.235.368 0 .36.768-.028 1.338.315 1.909.787.137.116.364-.028.26-.202v.004ZM45.84 8.665c-.534-.53-1.19-.974-1.797-1.414-.137-.101-.306.123-.18.234.56.506 1.126 1.054 1.757 1.469.177.115.368-.144.224-.289h-.004ZM23.892 8.38c-.737-.162-1.451-.05-2.13.278-.154.076-.017.292.134.227.61-.26 1.263-.313 1.916-.216.184.029.27-.245.08-.289ZM25.043 8.943c-.92-.133-1.794-.025-2.667.292-.155.058-.094.307.069.253.83-.263 1.688-.332 2.554-.253.166.015.206-.27.04-.292h.003ZM26.778 24.433c-.725-.205-1.508-.06-2.165.293-.159.086-.047.371.127.3.638-.26 1.252-.297 1.93-.203.249.036.364-.317.108-.39ZM28.488 23.618a60.531 60.531 0 0 0-2.904-.317c-.152-.015-.148.216 0 .234.956.123 1.909.245 2.872.317.133.011.166-.216.032-.234ZM46.02 30.358c-.667-.733-1.883 0-1.919.866-.007.126.21.162.228.029.1-.715.941-.96 1.533-.686.134.062.267-.093.162-.209h-.003ZM48.362 29.676c-.956-.584-2.136-.71-3.229-.584-.155.018-.162.26 0 .249 1.115-.073 2.09.198 3.125.58.148.055.23-.169.104-.248v.003ZM43.22 47.447c-.15-.083-.28.137-.133.23.938.593 1.375 1.516 1.592 2.57.032.162.274.115.277-.036.036-1.17-.743-2.212-1.735-2.764ZM45.819 48.129c-.054-.13-.282-.036-.235.097.368 1.007.44 2.035.267 3.089-.029.176.231.256.274.075.271-1.11.141-2.215-.306-3.261ZM40.049 64.712c-.159-.08-.3.152-.14.242.804.455 1.288 1.173 1.648 2.003.062.147.264.032.242-.102-.166-.96-.891-1.724-1.746-2.143h-.004ZM42.106 65.015c-.101-.087-.246.054-.148.148.646.635.787 1.422.743 2.295-.007.148.213.17.253.036.274-.902-.166-1.883-.848-2.479ZM28.495 64.449c-.941-.206-1.872.35-2.222 1.234-.058.14.177.241.249.104.375-.736 1.126-1.093 1.934-1.025.18.015.216-.274.043-.313h-.004ZM28.885 63.276c-.631-.498-1.58-.386-2.208.061-.152.109-.01.354.148.253.639-.415 1.241-.314 1.905-.043.144.057.278-.17.155-.267v-.004ZM17.415 64.824c-.137-.671-.992-1.05-1.613-.982-.206.022-.217.332 0 .329.27-.007.534.054.765.198.238.152.364.368.53.588.116.152.354.069.314-.133h.004ZM9.516 48.616c-.895-.191-1.678.732-1.57 1.587.015.127.21.134.203 0-.047-.761.617-1.266 1.327-1.302.156-.007.206-.25.04-.285ZM23.332 47.176c-.765-.242-1.551.574-1.746 1.23-.072.25.296.343.382.105.108-.292.307-.53.57-.69.256-.158.52-.165.794-.255a.203.203 0 0 0 0-.39ZM28.46 29.95c-.802.09-1.411.747-1.408 1.563 0 .195.282.188.3 0 .058-.614.552-1.122 1.15-1.234.185-.036.145-.35-.043-.328ZM38.653 29.139c-.487-.74-1.537-.874-2.26-.4-.19.125-.017.425.181.306.614-.368 1.306-.173 1.78.32.147.156.418-.046.299-.23v.004ZM35.791 46.094a1.703 1.703 0 0 0-1.898-.6c-.176.058-.104.333.076.282.588-.162 1.18.05 1.566.516.12.14.372-.05.256-.198ZM11.06 65.65c-.082-.112-.162-.223-.248-.332-.101-.126-.206-.202-.332-.3-.202-.158-.437.08-.282.282.098.127.173.235.3.332.108.087.22.166.332.25.133.1.332-.098.23-.232Z"/></svg>