<svg xmlns="http://www.w3.org/2000/svg" width="100" height="80" fill="none"><path fill="#fff" d="M98.657 56.48c-1.145-4.84-4.836-7.717-9.676-8.224-1.081-.113-2.172-.15-3.257-.208-.412-.023-.846-.303-.86-.055-.203-1.57 2.909-4.234 3.642-5.197 3.881-5.13 2.655-11.142-1.18-15.905-3.294-4.085-9.437-6.433-11.437-11.477-.638-1.61-1.954-2.71-3.772-2.46-1.511.203-3.203 1.677-2.982 3.374.023.185.032.366.05.547-.439-.439-.895-.86-1.398-1.253-2.375-1.86-5.243-3.008-7.532-4.962-2.46-2.104-4.094-4.777-4.99-7.872-1.08-3.736-6.988-3.107-6.893.932.122 5.266-2.864 9.174-6.18 12.897a3.772 3.772 0 0 0-.841.014c-4.632.579-8.093-.267-11.228-3.881-2.506-2.887-6.726.791-5.089 3.926 1.303 2.502-1.67 5.772-3.099 7.532-1.89 2.325-3.69 4.646-4.908 7.405-1.19 2.692-2.013 5.542-1.588 8.5.186 1.29.593 2.488 1.159 3.606a371.263 371.263 0 0 0-6.542 3.677c-3.456 2-8.147 3.814-9.481 7.948-1.158 3.588-.303 8.093.28 11.74.62 3.863 1.407 8.382 3.533 11.73 1.38 2.175 4.32 1.121 4.569-1.24.059-.566.081-1.136.095-1.71a5.83 5.83 0 0 0 1.267.226c12.67.86 25.36 1.497 38.053 1.886 12.24.376 24.69.864 36.922.095 5.415-.339 10.368-2.316 12.463-7.69 1.592-4.085 1.927-9.613.913-13.892l-.013-.01Z"/><path fill="#08111F" d="M62.128 66.604c-.14-1.665-.375-3.32-.601-4.98-.552-4.045-1.045-8.04-.231-12.088.072-.367-.163-.742-.566-.742-3.523.027-7.052.054-10.576.104-1.651.023-3.935-.597-4.727 1.108-.52 1.113-.267 2.981-.317 4.171a200.58 200.58 0 0 0-.163 5.211c-.067 3.393-.1 6.8.118 10.188-.692.059-.651 1.153.095 1.217 3.678.33 7.383.461 11.074.51 1.515.023 4.881.774 5.85-.845.574-.964.14-2.85.053-3.859l-.009.005ZM51.367 69.92c-.566-1.064-.883-2.204-.82-3.42.064-1.204.851-3.963 2.516-2.995.959.552 1.294 2.167 1.51 3.198.245 1.15.186 2.217.209 3.357h-.072c-1.118-.032-2.23-.082-3.343-.136v-.005Zm9.287-.593c-.123.832-.589 1.095-1.407.796-.457.09-.964.113-1.484.104 0-.027.005-.05 0-.072-1.154-6.143 1.461-14.748-5.12-18.57a.534.534 0 0 0-.63.081c-4.718 4.755-4.207 11.644-3.017 17.729.077.393.751.312.706-.095-.317-3.018-.778-6.062-.462-9.102.2-1.913 1.914-9.242 4.556-6.469 4.03 4.23 2.017 11.2 2.881 16.453-.348-.023-.692-.05-1.022-.077.326-1.75-.05-3.719-.679-5.347-.452-1.176-1.14-2.66-2.637-2.434-1.37.208-2.212 1.665-2.46 2.9-.335 1.651.04 3.28.945 4.668-1.597-.081-3.194-.176-4.79-.271.117-5.32.026-10.64.27-15.96.032-.696.068-1.388.105-2.08-.01-1.29.533-1.774 1.628-1.453 1.18-.343 2.995-.027 4.23-.04 2.592-.032 5.18-.068 7.771-.109-.877 5.424.362 10.721.86 16.145.054.606.208 1.321.136 1.927.1.475-.027.9-.38 1.28v-.004ZM31.286 63.573c-1.914-.01-3.47 1.37-4.266 3.013-1.23 2.542-.457 5.455.367 7.988.122.367.65.218.578-.158-.583-2.958-1.578-10.513 3.796-9.73 4.777.696 3.75 6.554 3.696 9.888-.01.525.782.634.918.123 1.022-3.877.385-11.102-5.085-11.124h-.004ZM73.071 62.958c-5.962.117-4.487 8.16-3.836 11.82.059.34.62.262.602-.081-.168-3.004-1.683-10.54 3.234-10.645 2.307-.05 4.207 1.869 4.908 3.922.756 2.217.349 4.425.52 6.686.041.512.842.706.955.132.873-4.447-.475-11.952-6.387-11.834h.004ZM28.834 52.752c-1.583.688-2.194 2.361-2.397 3.954-.118.905-.28 2.691 1.063 2.71.32 0 .38-.466.076-.552-1.126-.33.295-6.47 3.14-5.121 2.054.972 1.461 3.429 1.728 5.283-1.764-.447-3.994.005-5.546.742-.326.154-.086.63.235.561 1.005-.217 1.977-.43 3.013-.457.918-.027 1.823.181 2.732.14.077 0 .15-.035.213-.08a.36.36 0 0 0 .29-.29c.56-2.574-.616-8.6-4.551-6.89h.004ZM73.356 51.748c-3.736-.145-3.818 4.569-3.072 7.07.095.322.625.276.602-.081-.077-1.203-.312-2.452-.013-3.65.32-1.276 1.375-2.642 2.881-2.23 2.637.718 2.334 4.089 2.122 6.174-1.828 0-3.655.09-5.483.154-.434.013-.434.66 0 .674 1.918.063 3.85.158 5.768.154.316 0 .475-.245.475-.493a.537.537 0 0 0 .294-.421c.33-2.674.122-7.21-3.578-7.356l.004.005Z"/><path fill="#08111F" d="M95.884 51.49c.235-.18.249-.579-.127-.724-3.881-1.47-8.251-2.252-12.345-3.094-.077-.633-.285-1.42-.122-2.004.402-1.43 1.262-1.452 2.112-2.144 1.466-1.185 2.597-2.474 3.357-4.22 1.583-3.647 1.086-7.84-1.502-10.89-3.886-4.586-12.372-6.626-12.232-13.765.014-.741-1.086-.723-1.14 0-.221 2.914-1.37 5.379-3.424 7.455-.52.53.294 1.344.814.815 1.497-1.52 2.529-3.235 3.14-5.148 1.239 3.33 4.469 5.632 7.445 7.654 2.629 1.782 5.41 3.786 6.33 6.993.786 2.746.175 5.872-1.485 8.184-1.176 1.633-3.922 2.366-4.5 4.302-.317 1.058.026 2.424.108 3.492l.018.253c-5.27-.927-11.11-.515-16.349.371a225.46 225.46 0 0 0-.235-4.614c5.365.226 10.848.412 16.181.059.57-.036.57-.85 0-.887-5.347-.353-10.847-.167-16.23.059-.105-1.56-.222-3.117-.367-4.673 0-.036-.018-.068-.027-.1 6.089-3.971 7.69-12.856 3.524-18.831-2.393-3.434-5.98-5.705-9.12-8.37-1.733-1.47-3.393-3.075-4.555-5.048-1.136-1.936-1.01-3.51-1.733-5.473-.172-.47-.1-.63-.484-.968-.23-.204-.629-.258-.855 0-.013.018-.032.036-.045.054-.385-.222-.995-.045-.973.525.181 5.034-1.696 9.82-5.487 13.195-2.492 2.217-5.532 3.845-7.65 6.451a.591.591 0 0 0-.334-.167c-4.361-.557-7.65-4.18-7.853-8.555-.032-.723-1.15-.732-1.136 0 .19 8.27-9.07 11.974-12.132 18.814-2.334 5.216-.059 11.147 4.962 13.739.457.235.833-.407.403-.688-3.117-2.031-5.379-5.347-5.202-9.192.167-3.696 2.822-6.745 5.265-9.265 2.931-3.026 6.247-6.107 7.41-10.124 1.29 3.325 4.243 5.76 7.934 6.36-3.569 5.393-2.393 13.246 3.13 16.743a.522.522 0 0 0-.049.163.5.5 0 0 0-.185.384c-.073 1.873-.123 3.75-.159 5.632-6.07-.56-12.21-.606-18.275.036a.307.307 0 0 0-.172.082c-.263-.09-.584.036-.575.398.023.782.055 1.565.086 2.343a.5.5 0 0 0-.511-.19c-4.628.891-9.563 2.312-13.883 4.212-.547.24-2.067 1.43-.584 1.655a.225.225 0 0 0 .208-.077c-.076.186.028.457.276.448 4.71-.18 9.373-.248 14.083-.298.66-.01.633-.941 0-1.009-4.615-.484-9.613-.2-14.164.697a.263.263 0 0 0-.15.09c.046-.104.014-.235-.135-.271.122.027 1.71-.652 2.144-.801 1.42-.484 2.846-.959 4.28-1.402 2.714-.837 5.469-1.489 8.197-2.271a.464.464 0 0 0 .27-.195c.25 5.261.72 10.518 1.082 15.77.2 2.908.42 5.813.434 8.73 0 .747-.339 2.226.828 2.163.299-.014.444-.254.407-.534l-.027-.186c-.023-.167-.217-.284-.375-.293.348-2.873-.38-12.956-.453-14.042-.235-3.366-.434-6.74-.705-10.106 2.872.045 5.74.036 8.608.01 2.714-.028 5.56.203 8.238-.263.32-.054.33-.61 0-.66-2.683-.403-5.528-.114-8.238-.078-2.89.037-5.781.095-8.672.204a160.954 160.954 0 0 0-.348-3.614c6.048-.05 12.065.04 18.104.443-.15 9.296.1 18.646.271 27.92a.456.456 0 0 0-.244.543c.095.344.194.687.29 1.031.194.688 1.243.552 1.248-.167.04-9.857.19-19.814-.109-29.694 3.696-.262 7.387-.556 11.088-.683 3.705-.126 7.432.132 11.123-.045.041.09.127.167.263.172.172.01.344.014.516.023.208 4.148.416 8.296.506 12.453.127 5.89-.506 12.015.068 17.855.05.525.914.756 1.009.136.864-5.641.335-11.775.222-17.47-.05-2.516-.114-5.04-.209-7.56 5.515-.402 10.898-.144 16.39-.144l.307 4.026c.534 7.025.85 14.127 1.878 21.107.05.326.57.24.565-.077-.022-7.165-.796-14.349-1.325-21.492 3.953-.108 8.034-.24 11.92-.882.42-.068.411-.601.135-.819l.014.023Zm-54.488-7.532a270.52 270.52 0 0 0-.212-5.08c.488.036.977.054 1.465.077-.633 1.583-.393 3.266.34 4.782-.534.072-1.068.144-1.593.221Zm1.8-.253c-.361-1.588-.149-3.162.222-4.714.647.023 1.299.036 1.946.045-.675 1.245-.218 3.104.443 4.339-.878.1-1.746.212-2.61.33Zm3.167-.39c-.334-.714-.543-1.474-.556-2.27-.014-.688.226-1.33.258-2 .877.01 1.755.01 2.637.005-.145 1.294-.176 2.886.398 3.994-.918.077-1.832.172-2.741.272h.004Zm6.596-.528c-.05-1.163-.032-2.443-.39-3.515-.103-.312-.524-.24-.551.077-.1 1.103.199 2.338.416 3.465-.964.05-1.927.113-2.886.19 0-.01.009-.018.009-.027.09-.706-.077-1.457-.095-2.172-.018-.588.018-1.171.054-1.755 1.014-.005 2.027-.009 3.031 0 .792.005 1.588.023 2.384.045-.108.498-.036 1.045-.023 1.547.018.647.046 1.294.073 1.941 0 .059.022.104.05.14-.688.014-1.38.032-2.068.064h-.004Zm2.524-.068a.253.253 0 0 0 .04-.136c.028-.647.055-1.294.073-1.94.014-.503.081-1.037-.018-1.534 1.113.032 2.23.063 3.347.077-.009.018-.022.036-.027.059-.276 1.121-.149 2.393.172 3.528a63.11 63.11 0 0 0-3.587-.054Zm8.554.47a51.403 51.403 0 0 0-4.383-.393c-.127-1.163-.073-2.271-.041-3.452a.4.4 0 0 0-.032-.15c.584 0 1.172 0 1.751-.017-.027 1.13.05 2.275.081 3.406.014.425.647.425.66 0 .033-1.14.11-2.294.082-3.433a37.914 37.914 0 0 0 1.76-.109.492.492 0 0 0 .262.299c.064 1.388.132 2.777.204 4.166-.027-.154-.136-.285-.344-.317Zm.57-5.089a.593.593 0 0 0-.34-.154c-3.84-.438-7.848-.167-11.715-.194-3.746-.027-7.541-.2-11.287.009-3.248-2.963-5.474-6.908-4.646-11.45.81-4.428 4.017-6.957 7.419-9.5 4.809-3.596 7.93-8.318 8.283-14.222.09.525.203 1.045.353 1.556.244.824.574 1.615.963 2.38.765 1.502 1.805 2.84 2.981 4.048 2.439 2.507 5.397 4.411 7.99 6.74 2.99 2.683 5.278 5.977 5.319 10.125.04 4.225-2.018 8.11-5.32 10.662Zm19.167 14.326c-.1-1.352-.2-2.71-.303-4.062 3.596 1.131 7.364 2.389 11.074 3.04-3.578.073-7.229.552-10.776 1.022h.005Z"/><path fill="#08111F" d="M18.724 66.165c-.955-1.592-2.678-2.873-4.619-2.506-5.193.99-4.09 8.613-1.868 11.635.217.294.692.04.502-.294-.937-1.66-1.493-3.592-1.38-5.51.131-2.271 1.407-5.329 4.19-4.564 4.224 1.157 2.718 7.079 3.161 10.246.086.601 1.05.443 1.045-.14-.027-2.855.502-6.289-1.036-8.862l.005-.005ZM90.057 65.364c-3.09 1.489-1.655 7.089-.67 9.4.146.344.689.095.594-.248-.57-2.045-1.407-5.076-.385-7.107.959-1.9 2.977-1.222 3.782.42.507 1.041.42 2.19.724 3.276.104.375.746.43.814 0 .398-2.538-1.48-7.374-4.863-5.745l.004.004ZM40.627 34.26c-.565-.412-1.054-.991-1.42-1.584-.335-.547-.475-1.153-.751-1.719-.15-.307-.624-.15-.624.168.004 1.52 1.343 2.836 2.57 3.519.257.145.451-.217.225-.384ZM39.677 31.287c-.583-.89-.719-1.814-.719-2.859 0-.316-.502-.402-.565-.076-.236 1.162.194 2.316.927 3.211.167.204.507-.063.362-.28l-.005.004ZM56.913 11.704c-.96-.42-1.8-.85-2.362-1.777-.185-.303-.647-.032-.475.28.543.99 1.543 1.886 2.719 1.954.23.014.344-.357.122-.452l-.005-.005ZM57.98 13.894c-1.063-.602-2.099-1.217-3.053-1.986-.159-.127-.39.09-.231.23.932.824 1.95 1.575 3.08 2.1.231.108.43-.217.204-.344ZM71.212 31.346c-.04-.203-.358-.194-.407 0-.258 1.095-.38 2.031-1.118 2.945-.18.222.123.543.322.321.764-.841 1.434-2.099 1.198-3.27l.005.004ZM72.926 28.645c-.095-.23-.398-.19-.43.06-.085.71.046 1.442-.017 2.166a8.344 8.344 0 0 1-.688 2.615c-.1.23.226.434.344.203.705-1.388 1.42-3.51.791-5.039v-.005ZM80.626 26.357c-.213-.082-.349.253-.154.361.895.49 1.493 1.349 1.8 2.308.077.24.493.212.462-.064-.145-1.235-.969-2.162-2.113-2.605h.005ZM83.105 40.964c-.833.782-1.575 1.41-2.796 1.307-.24-.023-.299.384-.059.425 1.199.186 2.769-.271 3.235-1.51.085-.227-.227-.367-.38-.222Z"/><path fill="#08111F" d="M83.408 39.733c-.208.652-.914 1.18-1.606.887-.226-.095-.43.217-.2.339.896.484 2.23-.081 2.258-1.167.005-.263-.37-.299-.448-.059h-.004ZM22.225 42.375c-1.068-.195-1.837-.928-2.266-1.905-.118-.267-.503-.067-.448.19.253 1.249 1.416 2.095 2.65 2.167.259.014.317-.407.064-.452ZM22.32 41.53c-.94-.847-1.48-1.946-1.742-3.172-.054-.258-.484-.208-.465.063.095 1.407.84 2.597 1.954 3.438.19.145.439-.176.258-.334l-.005.004ZM25.17 23.018c-.109.905-.77 1.674-1.683 1.805-.176.027-.136.321.04.308 1.095-.082 2.063-.986 2.014-2.117-.01-.245-.344-.231-.371 0v.004ZM34.272 23.213c-.788.877-1.349 2.203-.964 3.379.068.212.398.18.398-.054 0-1.154.063-2.136.8-3.09.127-.163-.09-.403-.234-.235ZM26.627 22.385c-.33.72-.557 1.475-.801 2.225-.082.258.299.349.398.11.29-.716.593-1.426.796-2.172.064-.226-.29-.394-.393-.168v.005ZM30.766 35.133c-.208-.969-.326-1.928-.245-2.914.023-.294-.425-.285-.457 0-.113 1.032-.063 2.05.263 3.036.09.28.502.167.439-.122ZM56.216 25.04c-.245-.466-.525-.909-.8-1.357-.16-.258-.553-.027-.408.24.249.461.493.927.773 1.375.172.276.584.032.435-.253v-.005ZM74.75 35.06c-.159-.208-.467.054-.349.271.33.607.18 1.466-.403 1.864-.267.181-.027.611.258.44.905-.557 1.145-1.733.493-2.57v-.005ZM46.78 47.134c-.9-.054-1.806-.014-2.706 0-.285.004-.285.434 0 .439.9.013 1.805.054 2.706 0 .285-.018.285-.425 0-.44ZM47.86 46.374a70.121 70.121 0 0 0-3.51-.285c-.203-.014-.194.294 0 .312a70.65 70.65 0 0 0 3.51.326c.231.013.222-.33 0-.353ZM34.977 57.33c-.027-.131-.253-.104-.24.032.095.918.086 1.796-.162 2.691-.037.132.162.181.199.055.276-.9.38-1.85.199-2.782l.004.004ZM35.601 57.19c-.163-.208-.443.059-.348.267.385.823.633 1.637.498 2.551-.036.24.312.348.37.104.245-1.013.132-2.09-.524-2.922h.004ZM16.539 54.227c-.606-.167-1.317-.072-1.936-.045-.263.009-.263.393 0 .407.62.027 1.33.122 1.936-.045.158-.045.158-.276 0-.317ZM15.458 55.864c-1.068-.253-2.158-.393-3.24-.565-.257-.04-.37.344-.108.398 1.095.208 2.185.448 3.293.575.236.027.28-.358.055-.408ZM85.009 58.678c-.054-.185-.38-.163-.353.05.113.923.398 1.832.61 2.737.041.172.29.095.259-.073-.159-.895-.258-1.836-.516-2.71v-.004ZM86.126 56.774c-.045-.213-.375-.163-.375.05.013.918.199 1.836.335 2.74.027.168.312.132.298-.04-.063-.918-.077-1.85-.262-2.75h.004ZM91.614 62.854c-.145.04-.082.244.058.221.982-.163 1.728.86 1.57 1.77-.05.275.312.37.416.112.493-1.194-.895-2.41-2.044-2.103ZM78.029 55.919c-.108-.172-.403-.063-.34.145.295.904.426 1.71.096 2.633-.054.149.185.248.253.108.42-.887.525-2.013-.009-2.882v-.004ZM78.278 53.35c-.204-.11-.498.126-.344.343.394.557.882 1 1.185 1.629.353.728.502 1.502.462 2.307-.01.185.307.235.334.045.208-1.466-.208-3.556-1.642-4.325h.005ZM70.732 67.798c-.728.597-.868 1.61-.357 2.393.14.213.457.027.34-.199-.317-.62-.195-1.425.266-1.936.159-.177-.077-.398-.253-.253l.004-.005ZM72.035 66.662c-.633.52-.697 1.48-.271 2.15.144.225.484.026.357-.209-.29-.543-.15-1.153.249-1.597.208-.235-.104-.534-.34-.339l.005-.005ZM49.114 53.476c-.747.774-1.118 1.733-1.127 2.805 0 .172.254.167.263 0a4.381 4.381 0 0 1 1.072-2.597c.122-.14-.077-.344-.208-.208ZM53.62 57.28c-.087-.09-.218.046-.136.136.606.706.828 1.525.959 2.43.031.212.384.162.375-.05-.04-.964-.538-1.828-1.194-2.511l-.005-.005ZM48.67 72.358c-.904-.059-1.8-.018-2.705.009-.176.004-.176.267 0 .271.905.032 1.8.068 2.705.01.19-.014.19-.281 0-.295v.005ZM34.466 69.499c-.28-1.24-1.348-2.14-2.538-2.484-.108-.031-.19.14-.081.19 1.081.489 1.746 1.398 2.203 2.466.104.244.466.063.412-.172h.004ZM31.969 68.34c-.127-.099-.29.114-.172.222.86.806 1.077 1.982.778 3.095-.059.226.29.389.39.163.551-1.267.085-2.656-.996-3.484v.005ZM13.43 69.965c-.32-.43-.289-.978-.008-1.42.127-.2-.158-.408-.321-.25-.548.53-.493 1.38-.01 1.932.159.185.494-.063.345-.262h-.005Z"/></svg>