<svg xmlns="http://www.w3.org/2000/svg" width="83" height="80" fill="none"><path fill="#fff" d="M82.223 41.654c-.108-4.102-.716-8.526-3.702-11.607-.703-.725-1.538-1.338-2.382-1.892-.29-.19-.635-.322-.908-.54-.485-1.18-.603-2.885-1.306-4.156-.99-1.787-2.56-3.103-4.551-3.634-.209-.055-.89-.213-1.57-.313-.703-3.789-2.632-7.106-6.906-7.478-.336-.027-.88-.109-1.411-.127.281-1.796.268-3.83-.2-5.517C58.076 1.975 53.852.042 49.582.002c-4.401-.041-8.984.753-13.344 1.31-9.343 1.19-18.485 3.004-27.12 6.875-4.959 2.223-7.39 5.721-7.817 11.13-.45 5.68-.627 11.398-.84 17.092A647.77 647.77 0 0 0 .09 71.414c.06 3.458 3.104 4.96 5.726 4.506a5.014 5.014 0 0 0 2.45 1.869c9.13 3.194 19.202 2.114 28.676 1.683 9.91-.449 19.837-1.175 29.61-2.958 4.257-.776 10.26-1.184 12.696-5.322 1.207-2.051 1.325-4.574 1.633-6.883.354-2.645.658-5.295.88-7.959.404-4.882.595-9.8.463-14.7v.004Z"/><path fill="#08111F" d="M80.213 35.883c-.34-2.165-1.238-2.655-3.021-3.503-2.546-1.207-2.514-1.86-2.922-4.252-.137-.812-.286-1.606-.767-2.29-1.184-1.68-3.054-1.371-4.814-1.757-3.058-.667-1.71-4.342-3.671-6.248-1.838-1.787-4.401-1.774-6.792-1.524.59-4.642.422-10.876-5.069-12.128-4.01-.917-8.856-.118-12.93.086-5.02.254-10.028.644-15.024 1.184-7.391.803-15.672 1.92-21.675 6.724C.688 14.44.466 17.112.488 20.542.525 25.52.57 30.497.616 35.47c.1 11.016.077 22.047.444 33.059.023.648 1.003.653 1.012 0 .154-10.31-.05-20.618-.15-30.927-.045-4.977-.1-9.954-.15-14.927-.022-2.387-.526-5.468.754-7.637 1.365-2.318 4.36-3.711 6.733-4.75 8.816-3.866 19.338-4.07 28.807-4.62 2.51-.144 5.019-.253 7.528-.33 2.39-.073 5.295-.527 7.636.177 4.687 1.41 4.188 7.568 3.612 11.347-.055.363.163.876.626.822 1.77-.21 3.652-.459 5.336.258 2.432 1.035 1.95 2.65 2.255 4.674.186 1.238.871 2.037 2.042 2.459 2.49.898 5.013-.227 5.857 3.149.404 1.606.127 3.366 1.552 4.537.603.495 1.28.5 1.97.79 2.354.984 2.513 2.577 2.54 4.805.04 3.167-.036 6.338-.204 9.5-.368 6.979-1.234 13.912-2.532 20.777-.154.817 1.094 1.166 1.252.345 1.384-7.323 2.292-14.728 2.632-22.178.159-3.521.59-7.423.04-10.917h.005Z"/><path fill="#08111F" d="M10.611 53.084c-1.81-.835-3.711.889-4.26 2.64-.554 1.752-.15 3.834 0 5.618.19 2.332.408 4.65.766 6.964.055.354.618.263.613-.081-.01-2.3-.154-4.588-.322-6.879-.19-2.59-1.017-8.167 3.335-7.25a.404.404 0 0 0 .422-.146c3.766 1.63 3.04 12.228 2.817 14.937-.059.685 1.012.68 1.067 0 .25-2.972 1.03-16.03-4.433-15.794l-.005-.01ZM23.075 53.669a.566.566 0 0 0-.263-.014c-2.255.408-3.358 2.273-3.607 4.438-.39 3.348.263 7.069.53 10.413.046.553.89.571.877 0-.096-3.358-2.088-12.963 2.495-13.794.2-.036.309-.15.358-.29 2.265-.259 2.337 3.789 2.414 4.927.073 1.058.105 2.12.127 3.181.05 2.119-.108 4.251.028 6.361.031.468.798.65.88.118.313-2.046 1.238-17.364-3.839-15.336v-.004ZM36.7 53.85a.421.421 0 0 0-.408-.34c-7.618-.277-5.454 10.572-4.868 14.982.059.454.744.49.74 0-.032-2.386-.21-4.76-.332-7.142-.186-3.598.867-5.726 4.215-6.864 1.27.54 1.448 3.38 1.53 4.02.136 1.061.24 2.132.335 3.199.186 2.137.173 4.3.436 6.424.072.595.894.617.939 0 .109-1.402.222-12.49-2.586-14.283v.004ZM51.683 58.746c-.359-1.751-.867-3.589-2.36-4.474a.484.484 0 0 0-.2-.303c-1.787-1.235-3.829.054-4.568 1.883-.672 1.656-.44 3.747-.454 5.472-.018 2.518-.027 5.04.109 7.559.027.472.69.467.726 0 .177-2.337.227-4.678.268-7.02.036-2.178-.509-8.611 3.548-7.005.027.013.054.009.081.013 1.902 1.53 2.074 5.586 2.27 7.491.217 2.174.099 4.347.276 6.516.036.463.79.653.88.118.563-3.326.1-6.965-.572-10.254l-.004.004ZM63.099 58.324c-.363-1.76-.998-3.444-2.468-4.138a.43.43 0 0 0-.332-.258c-.322-.06-.621-.073-.903-.06-.109-.008-.218-.018-.33-.022a.3.3 0 0 0-.219.09c-4.587 1.013-3.575 11.956-3.34 14.956.037.463.709.472.727 0 .127-2.918-.517-14.402 3.92-13.889.018 0 .032-.005.05-.005 2.191 1.475 2.187 5.795 2.387 8.009.2 2.232.068 4.5.399 6.715.059.408.735.395.807 0 .681-3.594.041-7.831-.694-11.398H63.1ZM70.45 54.935c-1.97-.182-3.3 1.247-3.78 3.18-.88 3.548-.427 7.84-.418 11.475 0 .454.663.44.699 0 .159-2.005.29-4.01.395-6.02.113-2.215-.463-7.9 3.366-7.578.173.014.3-.068.386-.182 2.754 1.416 1.788 11.775 1.77 13.499-.005.53.82.662.939.127.517-2.305 1.456-15.495-3.353-14.501h-.005ZM11.196 45.742c.041.48.822.676.912.123.409-2.478 1.339-12.719-3.797-11.525-1.498.345-2.029 1.924-2.197 3.276-.385 3.103-.117 6.547.295 9.632.041.295.445.177.477-.063l.013-.123c.055.014.114.023.182.014a12.932 12.932 0 0 1 2.405-.118c.717.032 1.465.227 2.173.15.386-.041.644-.6.218-.813-1.411-.703-3.412-.353-4.91-.004.218-3.008-.308-6.248.377-9.124.109-.318.222-.636.331-.953 1.797-.69 2.804-.386 3.027.92.499.858.363 2.029.403 2.995.082 1.87-.063 3.753.087 5.613h.004ZM11.85 26.427c-.835-3.072 1.043-10.037-3.934-10.477-1.552-.136-2.668.908-2.958 2.387-.522 2.645.09 5.957.43 8.602.055.44.686.468.709 0 .081-1.774.05-3.548-.005-5.322-.023-.767-.109-1.556-.059-2.323a3.51 3.51 0 0 1 .313-1.479c1.08-.871 2.065-.871 2.959-.01 2.123 2.052.503 5.995 1.379 8.626-.023-.004-.041-.018-.064-.018a7.402 7.402 0 0 0-4.206.835c-.367.195-.118.808.286.676 1.289-.413 2.564-.576 3.916-.454.313.028.476-.181.499-.426.381.15.876-.1.735-.622v.005ZM25.68 46.296c-.708-3.471 1.969-12.355-4.306-12.32-1.675.01-2.746 1.144-3.013 2.732-.522 3.131.022 6.784.512 9.892.064.404.713.3.704-.096-.037-2-.1-3.997-.132-5.993-.036-2.088-.304-6.68 3.163-5.114 3.398 1.534 1.638 7.35 1.91 10.59-.821-.204-1.824-.045-2.632.05-.762.086-1.615.136-2.223.626-.222.091-.182.463.054.527.799.217 1.71-.11 2.523-.182.821-.073 1.715.064 2.514-.145.331.318 1.048.023.93-.563l-.005-.004ZM37.181 47.185c.15-2.6.672-11.384-3.38-11.71a.518.518 0 0 0-.35-.287c-1.692-.453-2.776.73-3.053 2.332-.526 3.05-.059 6.589.087 9.665.009.218.158.331.322.35 0 .213.136.43.422.449 1.805.113 3.616.104 5.422.108.449 0 .612-.44.49-.766.013-.046.036-.091.036-.145l.005.004ZM32.331 36.4c.036 0 .073.009.114 0 4.455-.794 3.752 7.809 3.634 10.599-1.615 0-3.235.005-4.846.109.09-1.652.168-3.299.182-4.955.009-.744-.332-4.864.912-5.753h.004ZM47.468 35.343c-1.52-1.053-3.344-.05-3.943 1.633-.513 1.438-.204 3.203-.11 4.683.128 2 .3 3.997.572 5.98-.072.045-.15.086-.217.14-.177.127-.205.49.068.531.785.123 1.588-.072 2.382-.109.989-.045 1.978 0 2.954.155.399.063.662-.25.698-.559a.62.62 0 0 0 .05-.254c-.059-2.241.767-10.87-2.454-12.196v-.004ZM44.664 47.33c.031-1.592 0-3.185-.069-4.778-.04-.893-.108-1.783-.136-2.677-.027-.848-.181-3.42 1.085-3.852.308-.059.59-.054.848 0 .105.027.213.064.327.11 2.582 1.16 2.05 8.556 2.046 11.03-1.293-.164-2.863-.26-4.097.167h-.004ZM62.26 47.548c-.119-1.937-.264-3.875-.4-5.808-.095-1.329.054-3.144-.53-4.405-.49-1.062-1.507-1.63-2.501-1.28-1.339.232-1.302-.136-1.956 1.053-.558 1.012-.92 2.178-1.17 3.294-.545 2.468-.331 4.864.449 7.255.005.014.014.023.023.036-.145.259.009.69.372.676 1.552-.054 3.044.041 4.56.395.467.109.744-.336.667-.69.263-.013.508-.186.485-.53v.004Zm-5.436-.095c-.509-2.223-.554-4.524-.05-6.76.181-.817.485-2.45 1.066-3.027.281-.281 1.175-.672 1.51-.898l.005-.005c1.235.032 1.253 2.772 1.294 3.312.059.83.108 1.66.163 2.491.109 1.66.209 3.322.336 4.978 0 .04.022.072.031.109-1.433-.327-2.899-.418-4.355-.205v.005ZM73.657 48.442c1.053-3.644.753-8.72-2.614-10.962a.459.459 0 0 0-.236-.377c-4.673-2.604-3.825 9.8-3.743 11.534.01.218.227.35.413.336a.327.327 0 0 0 .29.118c.903-.082 1.81-.123 2.718-.032.89.09 1.783.508 2.673.43.317-.026.608-.466.295-.716-.023-.018-.046-.032-.068-.05a.416.416 0 0 0 .276-.29l-.004.009Zm-5.849-.168c.204-1.38.322-2.768.422-4.156.077-1.09-.168-6.91 2.178-6.071a.545.545 0 0 0 .186.027c3 2.64 2.087 6.58 2.178 10.25 0 .027.01.045.014.068-1.443-.63-3.549-.413-4.978-.118ZM25.262 17.17c-.263-1.515-.953-2.767-2.11-3.525 0-.154-.072-.299-.25-.38-1.86-.872-4.518-1.271-5.648.898-.676 1.302-.413 3.08-.395 4.474.032 2.409.114 4.805.3 7.21.036.453.68.457.707 0 .146-2.405.186-4.801.173-7.21 0-1.021-.25-2.541.131-3.512.844-2.16 2.922-1.33 4.338-.93h.046c2.88 2.323 1.442 8.498 1.46 11.864a.629.629 0 0 0-.204-.113c-2.023-.69-4.365-.64-6.27.381-.413.222-.123.835.308.735 1.956-.458 3.703-.535 5.64.06.313.095.545-.046.658-.264.24.29.785.322.853-.14.427-2.968.776-6.57.259-9.547h.004ZM36.097 16.35c-.263-1.607-.953-2.864-2.205-3.626-1.792-1.393-4.02-.154-4.81 1.774-.598 1.457-.417 3.154-.367 4.683.073 2.178.14 4.356.458 6.51.064.432.69.287.722-.094.172-2.138.082-4.275.013-6.412-.063-2.132-.276-7.128 3.535-5.635a.379.379 0 0 0 .186.018c2.582 2.7 1.293 8.775 1.643 12.142-.023-.005-.041-.018-.069-.018-1.982-.177-3.96.014-5.903.426-.512.11-.285.844.214.772 1.9-.286 3.78-.268 5.69-.1.349.032.526-.227.526-.5.24.024.49-.122.522-.457.285-2.981.33-6.516-.16-9.474l.005-.01ZM45.29 11.635c-1.77-.558-3.462.926-3.98 2.686-.975 3.326.232 7.904.69 11.253.032.245.273.313.472.254-.009.127.041.254.159.313.717.35 1.556.263 2.341.277.853.018 1.847.186 2.654-.118.336-.127.418-.486.241-.726.1-.06.19-.145.25-.286 1.057-2.564 2.627-14.991-2.827-13.653Zm1.833 13.38a.542.542 0 0 0 .014.26c-.7-.114-1.475-.01-2.165.004-.74.014-1.529-.06-2.219.227 0-.014.01-.023.01-.037-.041-1.919-.132-3.834-.264-5.748-.14-2.101-1.247-7.61 3-6.997a.53.53 0 0 0 .476-.186c3.589.69 1.42 10.944 1.152 12.473l-.004.005ZM6.564 52.462c-.849.377-1.357 1.402-1.679 2.219-.1.25.318.426.436.186a6.07 6.07 0 0 1 .753-1.153c.263-.322.563-.603.785-.957.122-.2-.114-.372-.29-.29l-.005-.005ZM7.87 50.547c-.453-.272-1.12-.068-1.574.118a3.214 3.214 0 0 0-1.325 1.003c-.217.277.15.667.395.395a2.728 2.728 0 0 1 1.175-.79c.413-.136.871-.04 1.262-.195.222-.09.3-.39.068-.53ZM13.424 36.241c-.186-.467-.53-.871-.825-1.27-.327-.445-.654-.89-.985-1.334-.182-.25-.599-.019-.422.245.309.458.613.916.921 1.37.277.408.54.89.912 1.216.159.14.49.009.395-.232l.004.005ZM12.853 32.606c-.141-.09-.323.132-.187.24 1.053.822 1.498 1.911 1.707 3.195.045.272.467.2.467-.063.009-1.375-.871-2.641-1.992-3.372h.005ZM15.906 16.808a.225.225 0 0 0-.45 0c-.09.834-.013 1.692.01 2.532.005.276.427.276.431 0 .018-.84.095-1.698.01-2.532ZM3.17 30.148c-.054-.191-.354-.155-.35.045.014 1.225.055 2.386-.258 3.584-.05.195.231.268.3.082.417-1.189.648-2.482.308-3.716v.005ZM4.332 28.02a.225.225 0 0 0-.45 0c-.1.952.041 1.937.091 2.894.01.168.254.172.263 0 .05-.953.19-1.937.091-2.895h.005ZM28.338 7.937c-1.08-.086-2.173-.013-3.253.023-.218.009-.218.336 0 .34 1.08.037 2.178.11 3.253.023.25-.018.25-.368 0-.386ZM30.14 8.577c-1.343.041-2.69.25-4.016.467-.19.032-.145.35.046.34 1.347-.063 2.704-.144 4.029-.385.236-.045.181-.426-.06-.417v-.005ZM53.393 7.574c-.172-.077-.326.164-.15.259a2.2 2.2 0 0 1 1.167 2.1c-.023.337.53.341.522 0-.019-1.016-.604-1.946-1.539-2.359ZM51.615 22.87c-.113-.146-.427-.132-.404.108.037.359.159.685.127 1.053a1.872 1.872 0 0 1-.535 1.162c-.123.127.059.3.19.19.65-.522 1.203-1.76.617-2.514h.005ZM53.589 20.996c-.123-.273-.477-.06-.44.186.24 1.715.39 3.321-.318 4.968-.068.159.15.3.236.14.862-1.615 1.293-3.552.522-5.294ZM63.24 20.683c-.1-.195-.368-.023-.287.168.345.807.327 1.61.245 2.463-.022.232.318.25.386.05.3-.894.077-1.865-.345-2.686v.005ZM70.404 28.668c-.395-.898-1.384-1.297-2.323-1.148-.15.023-.114.273.036.264.812-.046 1.515.413 1.942 1.089.14.222.45.027.345-.205ZM76.942 38.056c-.104-.209-.395-.027-.308.181.267.636.363 1.325.272 2.01-.05.359.463.432.49.069a4.183 4.183 0 0 0-.454-2.255v-.005ZM75.576 39.108c-.086-.158-.358-.05-.3.128.613 1.72.65 3.253.482 5.05-.028.294.43.344.508.068.48-1.711.122-3.69-.69-5.241v-.005Z"/><path fill="#08111F" d="M71.824 53.17c-.24-.145-.431.209-.218.367 1.053.785 1.466 1.87 1.706 3.113.055.295.477.2.495-.068.104-1.398-.835-2.718-1.983-3.417v.005Z"/><path fill="#08111F" d="M73.435 53.42c-.213-.178-.513.108-.309.308a4.988 4.988 0 0 1 1.339 2.191c.213.726.131 1.443.24 2.174.041.263.381.186.463 0 .672-1.598-.535-3.676-1.729-4.674h-.004ZM65.354 43.796c-.481.703-.545 1.547-.295 2.346.077.25.454.145.39-.11-.163-.694-.04-1.392.25-2.037.104-.236-.2-.417-.345-.204v.005ZM53.865 41.341c-.027-.213-.399-.213-.426 0-.15 1.089-.05 2.219-.005 3.312.01.282.427.282.436 0 .04-1.093.14-2.223-.005-3.312ZM53.784 38.986c.14-.15 0-.444-.213-.367-1.384.48-1.511 2.531-.767 3.57.14.196.462.019.33-.19a2.071 2.071 0 0 1-.262-1.688c.15-.572.526-.907.916-1.32l-.004-.005ZM55.476 53.156c-.54-.036-1.003.64-1.207 1.071a2.501 2.501 0 0 0-.163 1.71c.054.232.458.187.426-.058a2.295 2.295 0 0 1 .268-1.425c.222-.39.672-.6.862-.976.077-.15-.018-.308-.186-.322ZM41.96 55.33c.104-.186-.069-.372-.26-.336-.548.1-.852.807-.934 1.297-.09.572.055 1.103.409 1.557.15.195.467-.055.34-.263a1.574 1.574 0 0 1-.19-1.266c.117-.422.43-.631.634-.99ZM42.309 57.675c.009-.24-.372-.295-.427-.059-.263 1.17-.04 2.296.431 3.38.06.137.268.037.232-.1-.273-1.061-.277-2.136-.24-3.22h.004ZM41.066 38.07c-.314 1.062-.409 2.191-.572 3.285-.041.281.372.413.435.122.24-1.098.55-2.214.631-3.34.023-.294-.422-.335-.499-.067h.005ZM30.072 53.075c-.998.38-1.593 1.406-1.842 2.4-.037.154.195.267.263.113.404-.903 1.107-1.447 1.828-2.082.186-.164-.009-.522-.25-.431ZM30.253 51.327c-.848-.372-1.96.463-2.455 1.103-.2.258.146.626.368.367.272-.317.599-.576.985-.748.358-.154.77-.154 1.102-.35.127-.072.15-.304 0-.367v-.005ZM27.48 36.994c-.226-.562-.684-1.062-1.034-1.552-.168-.236-.553-.022-.395.232.168.272.34.54.509.812.159.254.308.53.526.74.154.154.49 0 .395-.232ZM38.257 24.643c-.426.867-.517 1.766-.372 2.714.04.254.476.2.454-.064-.068-.844.09-1.665.38-2.459.1-.268-.335-.454-.462-.195v.005ZM17.313 61.545c-.59.976-.576 2.12.018 3.09.1.164.34.019.254-.15a2.935 2.935 0 0 1 .045-2.749c.114-.209-.195-.39-.322-.186l.005-.005Z"/></svg>