<svg xmlns="http://www.w3.org/2000/svg" width="69" height="80" fill="none"><path fill="#fff" d="M67.03 8.364a3.649 3.649 0 0 0-2.239-.479l-.097-3.118C64.634 2.735 62.817.29 60.522.594 51.45 1.791 42.526.761 33.455.21c-4.55-.28-9.083-.357-13.609.268C15.293 1.1 10.78 2.224 6.15 1.855c-2.109-.17-3.483 2.137-3.03 3.978.28 1.136.439 2.243.5 3.354l-.605.008A3.06 3.06 0 0 0 .1 13.023c.178.693.357 1.387.531 2.08.324 1.27 1.594 2.206 2.891 2.202h.86c-.008 8.787-.053 17.578.012 26.365.069 9.76-.215 19.646.775 29.37.04.393.15.726.308 1.01-.313 1.35.45 2.948 2.307 3.065 3.958.256 7.887-.02 11.84-.125 1.813-.049 3.921-1.659 3.682-3.682-1.07-9.006-2.299-18.329-1.074-27.38.843-6.207 4.124-16.385 12.343-14.844 7.453 1.399 10.271 9.74 11.046 16.284 1.066 8.994.99 18.211 1.407 27.258.11 2.352 1.796 3.913 4.1 4.1 2.744.222 5.494.445 8.239.664.397.033.787-.024 1.168-.142 2.287 1.61 6.22.645 6.18-2.996-.227-20.283-1.026-40.574-1.695-60.853a3.643 3.643 0 0 0 1.999-.499 3.815 3.815 0 0 0 1.877-3.268 3.815 3.815 0 0 0-1.877-3.268h.012Z"/><path fill="#08111F" d="M67.099 11.433c-.09-1.16-1.22-2.315-2.421-1.82a.442.442 0 0 0-.264.295c-.26-.008-.519-.008-.778-.012.705-2.023 1.034-4.509.239-6.532.608-.033.608-.945-.008-.961-9.837-.268-19.731.101-29.573.17-9.85.069-19.727-.081-29.573.292-.49.02-.494.75 0 .762.252.008.5.008.75.017.337 2.331.479 4.667.353 7.023 0 .052.008.097.025.138-.84.02-1.683.036-2.523.056-.158-.166-.433-.215-.551.053-.584 1.302-.3 2.737.458 3.885-.146.012-.296.02-.442.032-.434.037-.446.698 0 .686 10.421-.297 20.822-.816 31.252-.852 9.472-.028 18.924.487 28.384.677a.293.293 0 0 0-.065.175c-.677 18.214-.016 36.555.098 54.782.004.73 1.135.73 1.131 0-.126-18.227.3-36.576-.616-54.783a.275.275 0 0 0-.061-.166c.795.016 1.59.033 2.384.04.576.009.556-.835 0-.88-.203-.015-.405-.028-.604-.044 1.148-.649 2.518-1.524 2.405-3.025v-.008ZM6.409 3.656c9.285.182 18.6-.053 27.881-.102 9.566-.052 19.18.175 28.738-.166.137 2.283.45 4.23-.061 6.496-9.619-.182-19.306.32-28.92.446-9.221.122-18.442.243-27.663.454a.306.306 0 0 0 .04-.125c.3-2.348.309-4.668-.02-7.003h.004Zm59.672 8.572c-.353.783-1.136 1.39-1.817 1.873a.266.266 0 0 0-.097.317c-9.98-.791-20.133-.674-30.128-.637-10 .04-20.068.166-30.044.949-.677-1.034-.77-2.137-.592-3.33 10.215 0 20.43-.117 30.648-.239 10.23-.117 20.562.203 30.777-.344a.44.44 0 0 0 .43-.426c.79-.012 1.123 1.168.823 1.837Z"/><path fill="#08111F" d="M60.445 23.85c-4.388-.203-8.93.385-13.325.526-4.602.15-9.209.224-13.815.232-9.03.012-18.045-.292-27.071-.58a377.75 377.75 0 0 0-.312-8.033c-.025-.462-.71-.466-.722 0-.264 9.44-.243 18.9-.178 28.36a.262.262 0 0 0 0 .3c.06 8.873.158 17.749.093 26.609-.004.69 1.066.69 1.074 0 .07-8.775.22-17.59.26-26.402 4.521.402 9.318 1.03 13.783.653.373-.032.523-.633.097-.706-4.456-.762-9.298-.551-13.876-.539.024-6.516-.016-13.033-.195-19.537 9.144.787 18.353 1.034 27.525 1.022 4.449-.008 8.893-.08 13.337-.223 4.42-.142 9.091 0 13.45-.742.552-.093.386-.912-.125-.937v-.004Z"/><path fill="#08111F" d="M61.458 48.852c-4.91-.182-9.902.26-14.829.244-.028-.775-.052-1.55-.085-2.32a21.977 21.977 0 0 1-.02-.535c4.78.486 9.87.714 14.561-.016.45-.07.329-.775-.105-.779-4.838-.044-9.643.248-14.484.146-.057-1.383-.126-2.814-.268-4.241.904-3.698 1.265-7.559 1.168-11.35a.496.496 0 0 0-.487-.487c-2.554-.133-5.109-.304-7.664-.466-2.952-1.257-6.463-1.054-9.44.333a.455.455 0 0 0-.356-.236c-2.024-.239-7.587-.84-8.601 1.553-.568 1.347-.11 3.812-.097 5.264.02 2.392.044 4.788.101 7.181 0 .036.008.065.02.093-.032.211-.069.422-.097.629-.555 4.18-.219 8.406.085 12.59.325 4.453.649 8.91 1.087 13.353.049.5.819.52.795 0-.345-7.846-1.614-15.859-1.091-23.709.503-7.558 4.537-16.763 13.377-16.791 7.198-.025 9.339 6.439 10.028 12.456-.053.248-.105.495-.162.742-.065.28.09.479.292.564.065.779.11 1.537.142 2.267 0 .077.004.15.008.227-.134-.004-.264-.004-.398-.012-.34-.013-.324.482 0 .519.138.016.28.032.418.044.166 3.897.292 7.798.377 11.699.094 4.29-.17 8.694.223 12.964a.49.49 0 0 0 .982 0c.364-3.946.056-8.046-.025-12.003-.06-3.017-.154-6.038-.263-9.055 4.866.32 10.084.633 14.914-.093.458-.07.32-.763-.106-.779v.004Zm-39.99-8.438c.09-2.234.17-4.469.211-6.703.049-2.457.215-3.3 3.001-3.552 1.297-.118 2.587-.11 3.885-.126-3.735 2.287-5.965 6.22-7.1 10.381h.003Zm21.078-9.03a9.33 9.33 0 0 0-1.735-1.485c1.865.175 3.73.35 5.595.544a53.799 53.799 0 0 1-.665 7.692c-.53-2.498-1.463-4.85-3.19-6.751h-.005ZM16.773 31.57a.466.466 0 0 0-.458-.458c-2.247 0-4.501-.057-6.744.045-.227.008-.332.186-.32.357-.325-.114-.746.044-.718.486a20.722 20.722 0 0 1-.418 5.636c-.073.35.159.706.536.706 2.554-.008 5.109.008 7.664-.036.275-.005.539-.24.527-.528-.085-2.064-.033-4.136-.07-6.204v-.004Zm-7.461 5.653c.308-1.732.421-3.459.308-5.227-.004-.065-.024-.118-.045-.17 2.089.138 4.189.146 6.281.19-.02 1.74 0 3.483-.052 5.227-2.162-.028-4.327-.02-6.488-.02h-.004ZM15.475 61.772l-.13-.02a.357.357 0 0 0 .24-.195c1.382-2.68 1.8-8.358-2.551-8.516-4.14-.15-2.303 5.681-2.826 7.932-.077.34.425.482.527.146.564-1.926-.564-5.102.908-6.59 1.265-1.277 3.167-.17 3.771 1.253.783 1.841-.19 3.674-.572 5.466a.422.422 0 0 0 .232.463c-1.367-.215-2.73-.43-4.104-.544-.235-.02-.276.345-.057.406 1.432.397 2.887.673 4.347.969.507.101.71-.69.211-.767l.004-.003ZM19.25 46.375c-4.038.373-8.06.539-12.116.644-.401.013-.393.588 0 .617 4.03.316 8.094.194 12.116-.235.65-.07.661-1.087 0-1.026Z"/><path fill="#08111F" d="M57.278 63.685s.016-.024.02-.036c.852-2.717.608-10.96-3.763-10.94-4.752.024-4.006 8.32-2.879 11.02.162.394.799.248.657-.182-.535-1.593-.844-3.203-.71-4.894.13-1.63 1.237-6.626 4.185-4.48 2.587 1.88 1.659 6.702 1.792 9.374v.013c-1.978-.159-3.998 0-5.916.482-.393.097-.223.67.166.6a21.642 21.642 0 0 1 6.245-.198c.454.048.519-.54.203-.759ZM58.587 34.4c-.04-.737-.093-1.423-.79-1.82-.759-.43-1.825-.126-2.624-.008a34.84 34.84 0 0 0-4.898 1.078c-.24.07-.357.268-.381.5-.17 1.617-.434 3.26-.45 4.885-.005.507.798.641.9.122.304-1.508.401-3.066.547-4.602.79-.227 1.586-.434 2.392-.605.852-.178 2.664-.799 3.475-.53 1.282.42.852 3.71.763 5.295-2.186.069-4.473 0-6.61.442-.215.045-.227.414 0 .446 2.307.337 4.749.093 7.076.06a.49.49 0 0 0 .483-.482c.077-1.569.202-3.211.121-4.78h-.004ZM11.266 9.284c-.961-.085-1.946-.012-2.907.012-.203.004-.203.308 0 .312.96.02 1.95.098 2.907.013a.168.168 0 0 0 0-.337ZM11.996 8.031c-1.05-.065-2.1-.012-3.15.012-.256.008-.256.39 0 .394 1.05.028 2.1.077 3.15.012.272-.016.272-.406 0-.422v.004ZM50.53 5.4c-.981-.122-1.999.016-2.948.267-.182.049-.105.324.077.28.965-.223 1.89-.235 2.871-.19.235.011.223-.333 0-.362V5.4ZM32.113 6.417a55.9 55.9 0 0 0-2.182 0c-.166 0-.166.256 0 .26.73.012 1.452.008 2.182 0 .162 0 .162-.252 0-.256v-.004ZM59.986 11.689c-.807-.033-1.618.004-2.425.024-.206.004-.206.316 0 .324.807.02 1.618.057 2.425.025.24-.008.24-.361 0-.373ZM61.92 13.124c-1.046.077-2.088.061-3.122-.117-.19-.033-.276.243-.08.292a8.238 8.238 0 0 0 3.255.194c.211-.028.162-.385-.048-.369h-.005ZM52.189 6.397c-.945.203-1.902.288-2.867.243-.187-.008-.187.276 0 .292a9.36 9.36 0 0 0 2.948-.239c.19-.049.11-.333-.081-.292v-.004ZM16.513 12.46c-.669.279-1.399.279-2.076.044-.158-.053-.263.194-.113.271.762.39 1.597.361 2.343-.052.175-.098.02-.337-.154-.264ZM10.784 22.665c-1.128-.08-2.263-.008-3.394.025-.126 0-.126.19 0 .194 1.131.029 2.266.102 3.394.025.154-.012.154-.232 0-.24v-.004ZM12.722 21.834c-1.444.053-2.883.025-4.314-.182-.228-.033-.329.304-.098.349 1.464.28 2.924.401 4.412.263.272-.024.28-.442 0-.43ZM44.898 15.525a13.49 13.49 0 0 1-2.859.121c-.243-.016-.235.349 0 .377 1.006.114 1.97.09 2.96-.125.247-.053.138-.406-.101-.373ZM31.675 19.466a4.692 4.692 0 0 0-2.28.231c-.21.077-.125.41.094.34a5.596 5.596 0 0 1 2.137-.226c.195.016.243-.316.045-.345h.004ZM60.587 20.29c-.398-.516-.532-1.06-.734-1.66-.045-.129-.244-.113-.248.033-.012.649.377 1.302.775 1.784.093.114.292-.04.203-.158h.004ZM58.413 17.086c-.134-.15-.39.045-.28.215.434.669.576 1.5.244 2.242-.09.199.19.373.3.175.466-.868.405-1.89-.264-2.632ZM60.81 27.361c-.013-.097-.183-.097-.2 0-.12.876-.036 1.809-.016 2.693 0 .15.228.15.232 0 .02-.884.105-1.817-.017-2.693ZM59.601 28.33c-.053-.142-.292-.134-.28.037.065.908.333 1.808.548 2.692.048.203.348.114.312-.085-.158-.88-.276-1.8-.58-2.644ZM42.988 40.418c-.243-1.152-.69-2.255-1.058-3.37-.061-.186-.345-.11-.292.081.296 1.136.519 2.304.94 3.403.098.255.47.158.414-.114h-.004ZM41.204 38.224c-.11-.158-.365-.016-.264.155.759 1.273 1.03 2.574 1.107 4.038.017.316.479.316.491 0 .06-1.5-.49-2.968-1.334-4.193ZM23.463 58.37c-.498-1.169-.717-2.385-.9-3.63-.024-.166-.3-.126-.292.04.073 1.298.49 2.515 1.018 3.69.053.118.223.017.174-.1ZM22.798 52.072c-.056-.243-.405-.134-.369.101.195 1.302.5 2.583.77 3.869.045.207.345.117.313-.085-.223-1.298-.413-2.604-.714-3.885ZM18.666 51.31c-.08-.159-.332-.05-.287.121.243.872.47 1.711.494 2.624.004.203.308.203.313 0 .032-.945-.086-1.894-.524-2.741l.005-.005ZM18.176 53.532c-.049-.166-.284-.093-.256.069.17.985.422 1.95.686 2.92.04.15.255.084.227-.062-.187-.985-.381-1.962-.657-2.923v-.004ZM11.23 39.133c-.775.296-1.554.49-2.389.494-.17 0-.17.26 0 .264.864.02 1.711-.126 2.49-.515.134-.065.04-.3-.101-.243ZM12.774 40.296c-.908-.19-1.893-.036-2.765.248-.187.06-.114.344.081.296.892-.211 1.728-.187 2.632-.15.227.008.28-.35.052-.398v.004ZM11.704 51.938c-1.066.268-1.902.994-2.352 1.995-.077.17.158.32.26.15a4.2 4.2 0 0 1 2.185-1.812c.207-.077.126-.39-.093-.333Z"/><path fill="#08111F" d="M55.064 58.126c-.049-.195-.325-.11-.292.081.105.657.275 1.302.425 1.95.041.17.288.098.26-.072-.122-.653-.223-1.314-.393-1.959ZM60.886 55.896c-.077-.166-.356-.049-.3.125.2.6.28 1.233.179 1.858-.037.227.304.328.349.097.137-.726.08-1.407-.232-2.08h.005ZM37.181 56.175c-.04-.227-.413-.174-.401.053.04.746.117 1.5.263 2.234.041.22.39.167.386-.052a16.506 16.506 0 0 0-.244-2.234h-.004ZM33.224 39.108c-.77.499-1.144 1.448-1.14 2.34 0 .178.272.178.276 0 .024-.872.434-1.517 1.03-2.125.105-.11-.032-.3-.166-.215ZM59.86 39.87c-.352-.445-.547-1.013-.604-1.577-.028-.292-.442-.3-.458 0-.04.73.248 1.37.754 1.886.203.207.479-.093.309-.308ZM60.61 38.014c-.028-.175-.324-.138-.312.04a8.417 8.417 0 0 1-.202 2.628c-.049.198.243.28.308.085.292-.92.365-1.805.207-2.758v.005Z"/></svg>