<svg xmlns="http://www.w3.org/2000/svg" width="83" height="80" fill="none"><path fill="#7780A1" d="M82.223 41.654c-.108-4.102-.716-8.526-3.702-11.607-.703-.725-1.538-1.338-2.382-1.892-.29-.19-.635-.322-.908-.54-.485-1.18-.603-2.885-1.306-4.156-.99-1.787-2.56-3.103-4.551-3.634-.209-.055-.89-.213-1.57-.313-.703-3.789-2.632-7.106-6.906-7.478-.336-.027-.88-.109-1.411-.127.281-1.796.268-3.83-.2-5.517C58.076 1.975 53.852.042 49.582.002c-4.401-.041-8.984.753-13.344 1.31-9.343 1.19-18.485 3.004-27.12 6.875-4.959 2.223-7.39 5.721-7.817 11.13-.45 5.68-.627 11.398-.84 17.092A647.769 647.769 0 0 0 .09 71.414c.06 3.458 3.104 4.96 5.726 4.506a5.014 5.014 0 0 0 2.45 1.869c9.13 3.194 19.202 2.114 28.676 1.683 9.91-.449 19.837-1.175 29.61-2.958 4.257-.776 10.26-1.184 12.696-5.322 1.207-2.051 1.325-4.574 1.633-6.883.354-2.645.658-5.295.88-7.959.404-4.882.595-9.8.463-14.7v.004Z"/><path fill="#fff" d="M80.214 35.883c-.34-2.165-1.239-2.655-3.022-3.503-2.546-1.207-2.514-1.86-2.922-4.252-.136-.812-.286-1.606-.767-2.29-1.184-1.68-3.054-1.371-4.814-1.757-3.058-.667-1.71-4.342-3.67-6.248-1.838-1.787-4.402-1.774-6.793-1.524.59-4.642.422-10.876-5.068-12.128-4.011-.917-8.857-.118-12.932.086-5.018.254-10.027.644-15.023 1.184-7.39.803-15.671 1.92-21.674 6.724C.689 14.44.466 17.112.489 20.542.525 25.52.57 30.497.616 35.47c.1 11.016.077 22.047.444 33.059.023.648 1.003.653 1.012 0 .154-10.31-.05-20.618-.15-30.927-.045-4.977-.1-9.954-.15-14.927-.022-2.387-.526-5.468.754-7.637 1.366-2.318 4.36-3.711 6.733-4.75 8.816-3.866 19.338-4.07 28.808-4.62 2.509-.144 5.018-.253 7.527-.33 2.391-.073 5.295-.527 7.636.177 4.687 1.41 4.188 7.568 3.612 11.347-.054.363.163.876.626.822 1.77-.21 3.653-.459 5.336.258 2.432 1.035 1.951 2.65 2.255 4.674.186 1.238.871 2.037 2.042 2.459 2.49.898 5.014-.227 5.858 3.149.403 1.606.127 3.366 1.551 4.537.604.495 1.28.5 1.97.79 2.354.984 2.513 2.577 2.54 4.805.041 3.167-.036 6.338-.204 9.5-.367 6.979-1.234 13.912-2.532 20.777-.154.817 1.094 1.166 1.253.345 1.383-7.323 2.291-14.728 2.631-22.178.16-3.521.59-7.423.041-10.917h.005Z"/><path fill="#fff" d="M10.612 53.084c-1.81-.835-3.712.889-4.26 2.64-.554 1.752-.15 3.834 0 5.618.19 2.332.408 4.65.766 6.964.054.354.617.263.612-.081-.009-2.3-.154-4.588-.322-6.879-.19-2.59-1.016-8.167 3.335-7.25a.404.404 0 0 0 .422-.146c3.766 1.63 3.04 12.228 2.818 14.937-.06.685 1.012.68 1.066 0 .25-2.972 1.03-16.03-4.433-15.794l-.004-.01ZM23.076 53.669a.565.565 0 0 0-.264-.014c-2.255.408-3.357 2.273-3.607 4.438-.39 3.348.263 7.069.531 10.413.045.553.89.571.876 0-.095-3.358-2.087-12.963 2.495-13.794.2-.036.309-.15.359-.29 2.264-.259 2.336 3.789 2.414 4.927.072 1.058.104 2.12.127 3.181.05 2.119-.11 4.251.027 6.361.032.468.798.65.88.118.313-2.046 1.239-17.364-3.838-15.336v-.004ZM36.7 53.85a.421.421 0 0 0-.408-.34c-7.618-.277-5.454 10.572-4.868 14.982.059.454.744.49.74 0-.032-2.386-.21-4.76-.332-7.142-.186-3.598.867-5.726 4.215-6.864 1.27.54 1.448 3.38 1.53 4.02.136 1.061.24 2.132.335 3.199.186 2.137.173 4.3.436 6.424.072.595.894.617.939 0 .109-1.402.222-12.49-2.586-14.283v.004ZM51.683 58.746c-.359-1.751-.867-3.589-2.36-4.474a.484.484 0 0 0-.2-.303c-1.787-1.235-3.829.054-4.568 1.883-.672 1.656-.44 3.747-.454 5.472-.018 2.518-.027 5.04.109 7.559.027.472.69.467.726 0 .177-2.337.227-4.678.268-7.02.036-2.178-.509-8.611 3.548-7.005.027.013.054.009.081.013 1.902 1.53 2.074 5.586 2.27 7.491.217 2.174.099 4.347.276 6.516.036.463.79.653.88.118.563-3.326.1-6.965-.572-10.254l-.004.004ZM63.099 58.324c-.363-1.76-.998-3.444-2.468-4.138a.43.43 0 0 0-.331-.258c-.323-.06-.622-.073-.903-.06-.11-.008-.218-.018-.332-.022a.3.3 0 0 0-.218.09c-4.587 1.013-3.575 11.956-3.339 14.956.036.463.708.472.726 0 .127-2.918-.517-14.402 3.92-13.889.018 0 .032-.005.05-.005 2.192 1.475 2.187 5.795 2.387 8.009.2 2.232.068 4.5.4 6.715.058.408.734.395.807 0 .68-3.594.04-7.831-.695-11.398H63.1ZM70.45 54.935c-1.97-.182-3.3 1.247-3.78 3.18-.88 3.548-.427 7.84-.418 11.475 0 .454.663.44.7 0 .158-2.005.29-4.01.394-6.02.113-2.215-.463-7.9 3.367-7.578.172.014.299-.068.385-.182 2.754 1.416 1.788 11.775 1.77 13.499-.005.53.821.662.939.127.517-2.305 1.456-15.495-3.353-14.501h-.005ZM11.197 45.742c.04.48.821.676.912.123.408-2.478 1.338-12.719-3.798-11.525-1.497.345-2.028 1.924-2.196 3.276-.386 3.103-.118 6.547.295 9.632.04.295.445.177.476-.063l.014-.123c.054.014.113.023.181.014a12.932 12.932 0 0 1 2.405-.118c.717.032 1.466.227 2.174.15.385-.041.644-.6.217-.813-1.41-.703-3.412-.353-4.909-.004.218-3.008-.309-6.248.377-9.124.109-.318.222-.636.33-.953 1.798-.69 2.805-.386 3.027.92.5.858.363 2.029.404 2.995.082 1.87-.063 3.753.086 5.613h.005ZM11.85 26.427c-.834-3.072 1.044-10.037-3.933-10.477-1.552-.136-2.668.908-2.959 2.387-.522 2.645.091 5.957.431 8.602.055.44.685.468.708 0 .082-1.774.05-3.548-.004-5.322-.023-.767-.11-1.556-.06-2.323a3.51 3.51 0 0 1 .314-1.479c1.08-.871 2.064-.871 2.958-.01 2.123 2.052.504 5.995 1.38 8.626-.023-.004-.042-.018-.064-.018a7.402 7.402 0 0 0-4.206.835c-.368.195-.118.808.286.676 1.288-.413 2.563-.576 3.915-.454.313.028.477-.181.5-.426.38.15.875-.1.734-.622v.005ZM25.68 46.296c-.708-3.471 1.97-12.355-4.306-12.32-1.674.01-2.745 1.144-3.013 2.732-.522 3.131.023 6.784.513 9.892.063.404.712.3.703-.096-.036-2-.1-3.997-.131-5.993-.037-2.088-.304-6.68 3.162-5.114 3.399 1.534 1.638 7.35 1.91 10.59-.82-.204-1.824-.045-2.631.05-.763.086-1.616.136-2.224.626-.222.091-.181.463.055.527.798.217 1.71-.11 2.523-.182.82-.073 1.715.064 2.513-.145.331.318 1.048.023.93-.563l-.004-.004ZM37.182 47.185c.15-2.6.672-11.384-3.38-11.71a.518.518 0 0 0-.35-.287c-1.692-.453-2.776.73-3.053 2.332-.527 3.05-.06 6.589.086 9.665a.348.348 0 0 0 .322.35c0 .213.136.43.422.449 1.806.113 3.616.104 5.422.108.45 0 .613-.44.49-.766.014-.046.037-.091.037-.145l.004.004ZM32.332 36.4c.036 0 .072.009.113 0 4.456-.794 3.752 7.809 3.635 10.599-1.616 0-3.236.005-4.846.109.09-1.652.167-3.299.181-4.955.01-.744-.331-4.864.912-5.753h.005ZM47.468 35.343c-1.52-1.053-3.344-.05-3.943 1.633-.513 1.438-.204 3.203-.109 4.683.127 2 .3 3.997.572 5.98-.073.045-.15.086-.218.14-.177.127-.204.49.068.531.785.123 1.588-.072 2.382-.109.99-.045 1.978 0 2.954.155.4.063.662-.25.699-.559a.618.618 0 0 0 .05-.254c-.06-2.241.766-10.87-2.455-12.196v-.004ZM44.664 47.33a76.21 76.21 0 0 0-.068-4.778c-.041-.893-.11-1.783-.136-2.677-.028-.848-.182-3.42 1.084-3.852.309-.059.59-.054.849 0 .104.027.213.064.326.11 2.582 1.16 2.051 8.556 2.047 11.03-1.294-.164-2.863-.26-4.098.167h-.004ZM62.26 47.548c-.119-1.937-.264-3.875-.4-5.808-.095-1.329.054-3.144-.53-4.405-.49-1.062-1.507-1.63-2.501-1.28-1.339.232-1.302-.136-1.956 1.053-.558 1.012-.92 2.178-1.17 3.294-.545 2.468-.331 4.864.449 7.255.005.014.014.023.023.036-.145.259.009.69.372.676 1.552-.054 3.044.041 4.56.395.467.109.744-.336.667-.69.263-.013.508-.186.485-.53v.004Zm-5.436-.095c-.509-2.223-.554-4.524-.05-6.76.181-.817.485-2.45 1.066-3.027.281-.281 1.175-.672 1.51-.898l.005-.005c1.235.032 1.253 2.772 1.294 3.312.059.83.108 1.66.163 2.491.109 1.66.209 3.322.336 4.978 0 .04.022.072.031.109-1.433-.327-2.899-.418-4.355-.205v.005ZM73.657 48.442c1.053-3.644.753-8.72-2.614-10.962a.459.459 0 0 0-.236-.377c-4.673-2.604-3.824 9.8-3.743 11.534.01.218.227.35.413.336a.327.327 0 0 0 .29.118c.904-.082 1.81-.123 2.718-.032.89.09 1.784.508 2.673.43.317-.026.608-.466.295-.716-.023-.018-.046-.032-.068-.05a.416.416 0 0 0 .276-.29l-.004.009Zm-5.849-.168c.205-1.38.322-2.768.422-4.156.078-1.09-.168-6.91 2.178-6.071a.544.544 0 0 0 .186.027c3 2.64 2.088 6.58 2.178 10.25 0 .027.01.045.014.068-1.443-.63-3.548-.413-4.978-.118ZM25.262 17.17c-.263-1.515-.952-2.767-2.11-3.525 0-.154-.072-.299-.249-.38-1.86-.872-4.52-1.271-5.649.898-.676 1.302-.413 3.08-.395 4.474.032 2.409.114 4.805.3 7.21.036.453.68.457.708 0 .145-2.405.186-4.801.172-7.21 0-1.021-.25-2.541.132-3.512.844-2.16 2.922-1.33 4.337-.93h.046c2.88 2.323 1.443 8.498 1.46 11.864a.628.628 0 0 0-.203-.113c-2.024-.69-4.365-.64-6.271.381-.413.222-.122.835.309.735 1.955-.458 3.702-.535 5.64.06.313.095.544-.046.657-.264.24.29.785.322.853-.14.427-2.968.776-6.57.259-9.547h.005ZM36.097 16.35c-.263-1.607-.952-2.864-2.205-3.626-1.792-1.393-4.02-.154-4.81 1.774-.598 1.457-.417 3.154-.367 4.683.073 2.178.141 4.356.459 6.51.063.432.69.287.721-.094.172-2.138.082-4.275.014-6.412-.064-2.132-.277-7.128 3.534-5.635a.379.379 0 0 0 .186.018c2.582 2.7 1.293 8.775 1.643 12.142-.023-.005-.041-.018-.068-.018-1.983-.177-3.961.014-5.903.426-.513.11-.286.844.213.772 1.901-.286 3.78-.268 5.69-.1.35.032.526-.227.526-.5.24.024.49-.122.522-.457.286-2.981.331-6.516-.159-9.474l.004-.01ZM45.29 11.635c-1.77-.558-3.462.926-3.979 2.686-.975 3.326.231 7.904.69 11.253.032.245.272.313.472.254-.01.127.04.254.158.313.717.35 1.557.263 2.342.277.853.018 1.846.186 2.654-.118.336-.127.417-.486.24-.726.1-.06.191-.145.25-.286 1.057-2.564 2.627-14.991-2.827-13.653Zm1.833 13.38a.543.543 0 0 0 .014.26c-.699-.114-1.475-.01-2.164.004-.74.014-1.53-.06-2.22.227 0-.014.01-.023.01-.037-.04-1.919-.132-3.834-.263-5.748-.14-2.101-1.248-7.61 2.999-6.997a.53.53 0 0 0 .476-.186c3.59.69 1.42 10.944 1.153 12.473l-.005.005ZM6.564 52.462c-.848.377-1.356 1.402-1.679 2.219-.1.25.318.426.436.186a6.07 6.07 0 0 1 .753-1.153c.263-.322.563-.603.785-.957.123-.2-.113-.372-.29-.29l-.005-.005ZM7.87 50.547c-.453-.272-1.12-.068-1.573.118a3.214 3.214 0 0 0-1.325 1.003c-.218.277.15.667.394.395a2.728 2.728 0 0 1 1.176-.79c.412-.136.87-.04 1.26-.195.223-.09.3-.39.069-.53ZM13.425 36.241c-.187-.467-.531-.871-.826-1.27-.327-.445-.654-.89-.985-1.334-.181-.25-.599-.019-.422.245.309.458.613.916.921 1.37.277.408.54.89.912 1.216.16.14.49.009.395-.232l.005.005ZM12.853 32.606c-.14-.09-.322.132-.186.24 1.052.822 1.497 1.911 1.706 3.195.045.272.467.2.467-.063.01-1.375-.871-2.641-1.992-3.372h.005ZM15.906 16.808a.225.225 0 0 0-.449 0c-.09.834-.013 1.692.01 2.532.004.276.426.276.43 0 .018-.84.096-1.698.01-2.532ZM3.17 30.148c-.054-.191-.353-.155-.349.045.014 1.225.055 2.386-.258 3.584-.05.195.23.268.299.082.417-1.189.649-2.482.309-3.716v.005ZM4.332 28.02a.225.225 0 0 0-.45 0c-.1.952.041 1.937.091 2.894.01.168.254.172.264 0 .05-.953.19-1.937.09-2.895h.005ZM28.339 7.937c-1.08-.086-2.173-.013-3.253.023-.218.009-.218.336 0 .34 1.08.037 2.178.11 3.253.023.25-.018.25-.368 0-.386ZM30.14 8.577c-1.343.041-2.69.25-4.016.467-.19.032-.145.35.046.34 1.347-.063 2.704-.144 4.029-.385.236-.045.181-.426-.06-.417v-.005ZM53.394 7.574c-.173-.077-.327.164-.15.259a2.2 2.2 0 0 1 1.166 2.1c-.023.337.53.341.522 0-.018-1.016-.604-1.946-1.538-2.359ZM51.615 22.87c-.114-.146-.427-.132-.404.108.037.359.159.685.127 1.053a1.872 1.872 0 0 1-.535 1.162c-.123.127.059.3.19.19.65-.522 1.203-1.76.617-2.514h.005ZM53.589 20.996c-.123-.273-.477-.06-.44.186.24 1.715.39 3.321-.318 4.968-.068.159.15.3.236.14.862-1.615 1.293-3.552.522-5.294ZM63.24 20.683c-.1-.195-.368-.023-.286.168.345.807.326 1.61.245 2.463-.023.232.317.25.385.05.3-.894.078-1.865-.344-2.686v.005ZM70.404 28.668c-.395-.898-1.384-1.297-2.323-1.148-.15.023-.114.273.036.264.812-.046 1.515.413 1.942 1.089.14.222.45.027.345-.205ZM76.942 38.056c-.104-.209-.394-.027-.308.181.268.636.363 1.325.272 2.01-.05.359.463.432.49.069a4.185 4.185 0 0 0-.454-2.255v-.005ZM75.576 39.108c-.086-.158-.358-.05-.3.128.613 1.72.65 3.253.482 5.05-.027.294.43.344.508.068.48-1.711.122-3.69-.69-5.241v-.005Z"/><path fill="#fff" d="M71.824 53.17c-.24-.145-.431.209-.218.367 1.053.785 1.466 1.87 1.706 3.113.055.295.477.2.495-.068.104-1.398-.835-2.718-1.983-3.417v.005Z"/><path fill="#fff" d="M73.435 53.42c-.213-.178-.512.108-.308.308a4.989 4.989 0 0 1 1.338 2.191c.213.726.132 1.443.24 2.174.042.263.382.186.463 0 .672-1.598-.535-3.676-1.728-4.674h-.005ZM65.354 43.796c-.48.703-.544 1.547-.295 2.346.077.25.454.145.39-.11-.163-.694-.04-1.392.25-2.037.104-.236-.2-.417-.345-.204v.005ZM53.865 41.341c-.027-.213-.399-.213-.426 0-.15 1.089-.05 2.219-.005 3.312.01.282.427.282.436 0 .04-1.093.14-2.223-.005-3.312ZM53.784 38.986c.14-.15 0-.444-.213-.367-1.384.48-1.511 2.531-.767 3.57.14.196.463.019.331-.19a2.071 2.071 0 0 1-.263-1.688c.15-.572.526-.907.916-1.32l-.004-.005ZM55.476 53.156c-.54-.036-1.003.64-1.207 1.071a2.501 2.501 0 0 0-.163 1.71c.054.232.458.187.426-.058a2.295 2.295 0 0 1 .268-1.425c.222-.39.672-.6.862-.976.077-.15-.018-.308-.186-.322ZM41.96 55.33c.104-.186-.069-.372-.26-.336-.548.1-.852.807-.934 1.297-.09.572.055 1.103.409 1.557.15.195.467-.055.34-.263a1.574 1.574 0 0 1-.19-1.266c.117-.422.43-.631.634-.99ZM42.31 57.675c.008-.24-.373-.295-.427-.059-.263 1.17-.041 2.296.43 3.38.06.137.268.037.232-.1-.272-1.061-.277-2.136-.24-3.22h.004ZM41.066 38.07c-.313 1.062-.409 2.191-.572 3.285-.04.281.372.413.436.122.24-1.098.549-2.214.63-3.34.023-.294-.422-.335-.499-.067h.005ZM30.072 53.075c-.998.38-1.592 1.406-1.842 2.4-.036.154.195.267.263.113.404-.903 1.107-1.447 1.829-2.082.186-.164-.01-.522-.25-.431ZM30.253 51.327c-.848-.372-1.96.463-2.454 1.103-.2.258.145.626.367.367.272-.317.6-.576.985-.748.358-.154.771-.154 1.102-.35.127-.072.15-.304 0-.367v-.005ZM27.481 36.994c-.227-.562-.685-1.062-1.035-1.552-.167-.236-.553-.022-.394.232.168.272.34.54.508.812.159.254.308.53.526.74.155.154.49 0 .395-.232ZM38.257 24.643c-.426.867-.517 1.766-.372 2.714.041.254.477.2.454-.064-.068-.844.09-1.665.381-2.459.1-.268-.336-.454-.463-.195v.005ZM17.313 61.545c-.59.976-.576 2.12.018 3.09.1.164.34.019.254-.15a2.935 2.935 0 0 1 .046-2.749c.113-.209-.195-.39-.323-.186l.005-.005Z"/></svg>