<svg xmlns="http://www.w3.org/2000/svg" width="51" height="80" fill="none"><path fill="#7780A1" d="M49.917 72.533c-3.686-4.696-5.978-10.469-6.862-16.383.83-.294 1.534-.944 2.023-1.649 2.195-3.165.305-7.925-3.094-9.24a167.344 167.344 0 0 1-8.475-26.018c-1.103-4.681-1.936-9.395-2.68-14.144-.963-6.155-7.182-4.965-11.863-5.07-1.944-.043-3.56 1.675-3.575 3.575-.064 9.093-.646 18.262-2.162 27.236-.643 3.798-1.473 7.703-3.126 11.206a24.872 24.872 0 0 1-2.526 4.228c-1.688.022-3.344 1.186-3.388 3.345l-.064 3.147c-.04 1.94 1.408 3.111 2.985 3.323-.143 6.266-1.002 12.754-6.186 16.897-2.562 2.044.733 6.114 3.46 4.483a17.7 17.7 0 0 0 1.444-.966c.388 3.848 6.542 5.112 7.508.736 1.305-5.91 5.864-10.684 11.702-12.326 2.698-.758 6.46-1.207 8.65.884 2.692 2.561 4.57 6.528 5.85 9.959.697 1.871 2.392 3.003 4.43 2.514.94-.226 1.577-.082 2.475.234 1.473.525 3.276-.349 4.034-1.642.866-1.48.435-3.064-.556-4.329h-.004ZM18.01 47.143c2.44-3.876 4.315-8.33 5.127-12.868 1.768.539 3.607.858 5.314.916a3.048 3.048 0 0 0 1.674-.46 162.338 162.338 0 0 0 4.246 11.364c-5.468.025-10.932.377-16.357 1.052l-.003-.003Z"/><path fill="#fff" d="M49.152 72.824c-2.26-2.18-3.845-4.864-4.7-7.886-.912-3.23-.693-6.424-1.038-9.693.198.004.395.007.593.015a.5.5 0 0 0 .302-.087c.126.054.27.04.38-.097 1.664-2.015 1.786-5.518-.1-7.462a.432.432 0 0 0-.302-.722 33.767 33.767 0 0 0-1.713-.13c-4.103-7.005-7.2-14.13-9.043-22.072-.92-3.967-1.592-7.99-2.12-12.029-.503-3.83-.478-7.91-1.33-11.672-.107-.47-.79-.342-.811.111-.018.385-.022.776-.022 1.168A703.303 703.303 0 0 0 23.22 4.38a119.919 119.919 0 0 1-4.71-2.957.161.161 0 0 0-.169-.01c-.255-.288-.887-.176-.92.337a332.84 332.84 0 0 1-2.72 26.026c-.98 6.747-1.706 14.324-7.116 19.138-.19.169-.126.434.032.589-.65.05-1.3.1-1.951.158-.262-.13-.604-.065-.661.302-.356 2.31-.244 4.555.46 6.786-.183.158-.14.507.176.518.449.018.898.021 1.344.032v.014c.014 2.71.118 5.22-.482 7.836-.126.122-.248.252-.373.374-.17.168-.008.373.18.366-.03.1-.048.198-.08.298-.927 3.072-2.565 5.82-4.63 8.256-.3.352.172.845.513.514.097-.097.194-.198.29-.298 1.851-.884 3.709-1.768 5.555-2.673 1.11 1.43 2.39 2.755 3.816 3.629.244.15.485-.008.553-.223a.304.304 0 0 0 .23-.155c1.573-2.928 2.561-5.97 5.242-8.133a13.135 13.135 0 0 1 8.56-2.882 12.48 12.48 0 0 1 8.077 3.28c2.339 2.134 3.345 4.703 4.203 7.663.137.467.906.4.874-.118a9.9 9.9 0 0 0-.05-.56c.876-.86 1.796-1.865 2.593-2.957a169.624 169.624 0 0 0 5.526 4.045c.316.223.718-.287.416-.539a103.599 103.599 0 0 0-5.432-4.243c.51-.787.942-1.61 1.229-2.447 1.042 2.785 2.662 5.278 4.947 7.01.306.23.672-.266.406-.525l.004-.007Zm-7.516-26.1a57.97 57.97 0 0 0-1.771-.022c-.895-.88-1.85-1.721-2.835-2.53.557-.6 1.236-1.343 1.631-2.13a39.232 39.232 0 0 0 2.975 4.681Zm-2.777-.015c-1.283.014-2.566.047-3.834.057-.01-.017-.018-.035-.032-.057-.126-.183-.248-.366-.37-.55a12.887 12.887 0 0 0 1.872-1.458 112.73 112.73 0 0 0 2.364 2.008Zm-.582-5.378c-.608.765-1.028 1.688-1.678 2.44-.007.01-.018.017-.029.028a102.502 102.502 0 0 0-3.941-2.99c-.194-.14-.445.18-.259.335 1.247 1.038 2.472 2.12 3.7 3.19a13 13 0 0 1-1.691 1.448c-1.032-1.606-1.89-3.251-2.655-4.947a28.66 28.66 0 0 0 2.08-2.048c1.451.805 2.931 1.563 4.347 2.31.04.08.083.151.122.23l.004.004Zm-15.575-6.309c1.28.32 2.415.341 3.773.438 1.067.08 1.157-.66 2.26.733.445.564.6 1.833.862 2.522 1.085 2.853 2.511 5.533 4.21 8.059-2.996.014-5.992.046-8.989.1-2.435.043-4.878.087-7.321.151 3.1-3.215 4.785-7.587 5.206-12.006v.003Zm-5.895 11.532c-.32-.822-.769-1.63-1.28-2.41a46.8 46.8 0 0 0 4.09-2.059 26.478 26.478 0 0 1-2.81 4.47ZM29.69 35.748l-.072-.194c-.183-.51-.29-.845-.564-1.07a47.803 47.803 0 0 0-1.947-3.216c.93-.69 1.836-1.416 2.716-2.167a64.657 64.657 0 0 1 5.184 6.377c.108.151.273.184.413.14a56.77 56.77 0 0 1-1.609 2.152c-1.354-.754-2.73-1.455-4.12-2.026v.004Zm3.557 2.727a33.316 33.316 0 0 1-1.714 1.936 68.433 68.433 0 0 1-1.599-4.006c1.05.737 2.17 1.42 3.317 2.07h-.004Zm-5.062-4.308c-.751-.079-1.667.291-2.422.291-.959 0-1.875-.169-2.78-.42a53.297 53.297 0 0 0 3.643-2.415 55.52 55.52 0 0 1 1.563 2.548l-.004-.004Zm-5.418-.557c-.618-1.157-1.7-2.141-2.658-3 1.239-1.024 2.407-2.116 3.427-3.28a51.519 51.519 0 0 1 2.741 3.762 65.654 65.654 0 0 1-3.51 2.518Zm-.64.248a.566.566 0 0 0-.395.503c-.032.46-.079.913-.14 1.358a85.522 85.522 0 0 1-3.808 2.095c-.963-1.121-1.947-2.22-2.939-3.302 1.56-1.085 3.194-2.238 4.746-3.485.902.909 1.707 1.85 2.533 2.831h.004Zm-.671 2.73a20.297 20.297 0 0 1-1.236 4.193 71.128 71.128 0 0 0-2.001-2.454 66.47 66.47 0 0 0 3.233-1.738h.004Zm16.145 3.41a166.44 166.44 0 0 0-3.194-1.886 21.146 21.146 0 0 0 1.513-1.987 55.21 55.21 0 0 0 1.681 3.873Zm-2.177-5.177a46.28 46.28 0 0 0-5.141-6.115 52.629 52.629 0 0 0 2.583-2.41c.697 2.834 1.53 5.712 2.558 8.521v.004Zm-3.158-11.112a95.185 95.185 0 0 0-4.4-2.335 29.604 29.604 0 0 0 3.516-2.178c.266 1.513.557 3.018.884 4.516v-.003Zm-1.771-10.25c.136.999.284 1.997.442 2.993-1.886-1.696-3.963-3.27-6.122-4.74 1.714-.775 3.41-1.58 5.08-2.36.201 1.39.42 2.767.6 4.103v.004ZM29.259 3.044c.047 1.63.226 3.298.45 4.954-.026-.025-.051-.05-.087-.068a99.623 99.623 0 0 1-5.651-3.086c1.767-.59 3.531-1.193 5.292-1.797l-.004-.003Zm-10.814-1.2c1.322.98 2.68 1.915 4.074 2.798-1.47.532-2.939 1.068-4.397 1.624.118-1.473.23-2.95.327-4.426l-.004.004Zm-.363 4.893c1.721-.528 3.435-1.085 5.145-1.649a77.17 77.17 0 0 0 6.072 3.391c.197.101.38-.018.452-.176l.043.335a.3.3 0 0 0-.154.021c-1.893.798-3.826 1.599-5.748 2.44-1.94-1.283-3.92-2.49-5.867-3.636.021-.241.036-.482.057-.722v-.004Zm-.1 1.283a188.701 188.701 0 0 1 4.929 3.513c-1.883.84-3.74 1.732-5.515 2.713.212-2.073.41-4.15.586-6.226Zm-.64 6.725c2.167-.733 4.319-1.62 6.449-2.569 2.353 1.725 4.706 3.45 7.131 5.055.05.032.101.043.151.043.065.4.126.798.194 1.197-1.52.733-2.978 1.577-4.469 2.37a104.063 104.063 0 0 0-9.664-4.088c.075-.668.14-1.336.212-2.008h-.004Zm-.251 2.364a178.84 178.84 0 0 1 8.895 4.157c-.589.302-1.189.593-1.8.862-2.637 1.16-5.353 2.023-8.08 2.928.36-2.644.686-5.292.981-7.943l.004-.004Zm-1.046 8.418c3.55-.708 7.491-1.976 11.001-3.73 1.681.852 3.356 1.721 5.015 2.623.133.072.259.05.36-.014.082.37.165.74.255 1.11a68.37 68.37 0 0 1-2.889 2.702 49.243 49.243 0 0 0-2.213-2.027c-.212-.183-.52.115-.312.313.715.682 1.408 1.38 2.083 2.09a64.158 64.158 0 0 1-2.594 2.146 53.366 53.366 0 0 0-2.845-3.816c.007-.007.01-.014.018-.018.183-.219-.065-.636-.334-.434-1.448 1.088-2.831 2.284-4.204 3.495-1.26-1.135-2.457-2.245-3.445-3.625.04-.27.072-.542.111-.812l-.007-.003Zm-.539 3.79c.112-.747.216-1.498.324-2.25.776 1.172 1.828 2.157 2.867 3.105.075.068.14.136.215.205-1.361 1.21-2.72 2.425-4.124 3.567.273-1.57.496-3.133.718-4.63v.003Zm-.905 5.651a141.072 141.072 0 0 0 2.53 3.201 119.89 119.89 0 0 1-3.863 1.886c.582-1.634.999-3.359 1.333-5.087Zm-1.548 5.666a55.364 55.364 0 0 0 4.494-1.962c.74.891 1.49 1.771 2.267 2.62h-.01c-1.592.71-3.173 1.44-4.75 2.162-.669-.938-1.398-1.832-2.07-2.655.022-.057.047-.111.069-.165Zm-.227.55a53.921 53.921 0 0 1 1.674 2.525c-1.444.658-2.899 1.3-4.365 1.926 1.143-1.322 2.016-2.831 2.691-4.451Zm-3.578 5.378a67.794 67.794 0 0 0 5.676-2.145c.496.873.938 1.8 1.524 2.605l-.033.043c-2.74.082-5.482.2-8.213.399.374-.284.715-.59 1.046-.902Zm-3.032 8.062c-.45-2.063-.568-4.146-.259-6.237 6.287-.025 12.574-.36 18.865-.474 3.104-.058 6.208-.094 9.312-.105 3.201-.014 6.485.209 9.683-.014a.401.401 0 0 0 .046.309c1.211 2.116 1.488 4.027.388 6.2a.475.475 0 0 0-.244-.064c-6.391-.169-12.79-.251-19.185-.187-6.161.062-12.474-.071-18.61.572h.004Zm36.25 1.207c-.241 2.44-.097 5.08.474 7.623-1.222-1.26-2.486-2.482-3.758-3.704a54.15 54.15 0 0 0 3.284-3.92Zm-3.92 3.305c-1.394-1.333-2.788-2.67-4.135-4.045 2.472.028 4.94.068 7.412.125a95.474 95.474 0 0 1-3.277 3.92ZM33.15 55.08c-1.279 1.07-2.526 2.17-3.776 3.262-.873-1.11-1.764-2.21-2.648-3.298 2.142 0 4.283.014 6.424.036Zm-8.425-.036c-1.002 1.078-1.944 2.228-2.91 3.341-1.746-1.25-3.682-2.313-5.547-3.165 2.824-.079 5.644-.169 8.457-.176Zm-16.677 1.19c.726 1.045 1.459 2.122 2.21 3.186-.759.74-1.51 1.487-2.253 2.234.316-1.825.352-3.664.043-5.42Zm.029-.903c2.263.03 4.537-.014 6.808-.071a60.956 60.956 0 0 0-3.887 3.449c-.978-1.147-1.973-2.268-2.921-3.374v-.004ZM3.352 71.617a21.544 21.544 0 0 0 2.778-4.282c.398.643.84 1.304 1.314 1.958a413.707 413.707 0 0 0-4.092 2.324Zm3.072-4.9a21.05 21.05 0 0 0 1.344-3.902 98.775 98.775 0 0 0 3.104-2.533c1.3 1.8 2.67 3.543 4.2 5.02-2.346 1.116-4.656 2.338-6.938 3.606a40.237 40.237 0 0 1-1.71-2.188v-.003Zm5.594 6.057c-.884-.916-1.908-1.707-2.788-2.634-.169-.176-.327-.359-.489-.538a122.45 122.45 0 0 0 6.726-3.568c-1.56 1.962-2.443 4.286-3.45 6.736v.004Zm-.306-13.218c1.441-1.271 2.814-2.604 4.017-4.002 1.85 1.15 3.586 2.414 5.324 3.686-.133.148-.269.298-.405.442-1.66 1.76-3.4 3.427-5.17 5.073-1.05-1.807-2.368-3.532-3.762-5.202l-.003.003Zm6.015 4.308c-.618.45-1.157.938-1.642 1.451a.434.434 0 0 0-.212-.226c1.99-1.602 4.07-3.36 5.967-5.267.7.514 1.409 1.024 2.123 1.527-2.241.33-4.411 1.19-6.236 2.515Zm8.27-2.666c-.352 0-.708.015-1.06.043a.377.377 0 0 0-.1-.248 19.538 19.538 0 0 0-2.203-1.99c1.186-1.257 2.274-2.58 3.201-3.963h.201c.008.022.011.04.026.062.876 1.264 1.756 2.54 2.662 3.8-.895.776-1.8 1.545-2.724 2.293l-.003.003Zm1.103.04a59.665 59.665 0 0 0 2.16-1.595 77.02 77.02 0 0 0 2.015 2.662 13.103 13.103 0 0 0-4.175-1.067Zm7.067 2.55a.296.296 0 0 0-.076.134c-.453-.328-.92-.633-1.404-.906.01-.072 0-.15-.05-.226a66.077 66.077 0 0 0-2.68-3.694c1.4-1.128 2.74-2.331 3.915-3.628.022-.022.032-.047.047-.068a96.51 96.51 0 0 0 3.963 4.473 97.877 97.877 0 0 1-3.722 3.916h.007Zm9.226 1.624c-.564.924-.978 1.93-1.506 2.882a172.655 172.655 0 0 0-6.337-4.355c-.198-.129-.45.184-.259.335 2.034 1.595 4.074 3.2 6.14 4.778a22.173 22.173 0 0 1-2.073 2.701c-.564-2.981-2.418-5.63-4.86-7.526a.262.262 0 0 0 .068-.04 52.186 52.186 0 0 0 3.92-3.697c1.458 1.488 2.992 2.9 4.605 4.121.054.04.104.054.154.058.065.226.133.452.205.675-.021.022-.043.04-.057.065v.003Z"/><path fill="#fff" d="M11.073 53.133c-1.139-.094-2.296-.03-3.435 0-.18.003-.18.273 0 .276 1.14.033 2.3.097 3.435 0 .18-.014.18-.266 0-.28v.004ZM12.219 51.376a74.56 74.56 0 0 0-4.01.054c-.161.007-.161.248 0 .255 1.337.057 2.674.075 4.01.054.234 0 .234-.36 0-.363ZM37.415 48.793c-1.143-.029-2.293.018-3.435.04-.19 0-.19.294 0 .297 1.142.022 2.292.069 3.435.04.24-.007.24-.366 0-.374v-.003ZM28.609 24.808c-.546-.334-1.125-.614-1.692-.905-.194-.1-.367.19-.173.294.564.302 1.125.618 1.71.877.18.079.33-.162.158-.27l-.003.004ZM29.162 25.875c-.84-.259-1.714-.402-2.576-.578-.223-.043-.316.29-.093.341.873.205 1.739.435 2.626.55.187.025.208-.266.043-.316v.003ZM21.284 14.454c-.662.298-1.319.604-1.973.913-.144.068-.04.316.108.258.675-.258 1.35-.528 2.023-.797.269-.108.114-.496-.159-.37v-.004ZM24.143 13.868c-.88.442-1.732.927-2.576 1.434-.187.111-.021.384.169.287a40.11 40.11 0 0 0 2.59-1.412c.198-.118.025-.413-.18-.309h-.003ZM25.756 8.181c-.643-.424-1.318-.794-1.986-1.171-.173-.097-.324.162-.155.266.658.402 1.308.808 1.994 1.167.169.09.313-.15.15-.258l-.003-.004ZM20.482 22.2c-.962.154-1.907.38-2.856.607-.18.043-.1.302.076.273.959-.173 1.918-.345 2.86-.59.19-.05.107-.32-.08-.29ZM35.78 58.92c-.61-.654-1.466-1.03-2.321-1.25-.111-.029-.155.133-.047.173.827.298 1.498.783 2.206 1.29.126.09.259-.105.162-.209v-.004ZM36.157 60.537c-.625-.697-1.383-1.297-2.084-1.915-.129-.115-.323.072-.194.194.687.654 1.355 1.362 2.116 1.933.13.097.26-.104.162-.212ZM40.03 65.448c-.647-.18-1.222-.542-1.613-1.092-.112-.158-.374-.01-.266.155.424.636 1.042 1.092 1.793 1.243.197.04.283-.252.086-.306ZM11.328 66.03c-1.01.388-2.033.615-3.122.6-.205 0-.201.306 0 .32 1.132.079 2.235-.104 3.252-.614.165-.083.05-.37-.126-.302l-.004-.004ZM11.91 64.356c-.675.165-1.333.392-1.994.607-.122.04-.072.23.054.194.668-.187 1.344-.36 1.998-.593.129-.046.079-.237-.058-.204v-.004ZM18.262 58.701a2.86 2.86 0 0 0-1.99-1.311c-.155-.022-.227.201-.065.24.74.177 1.372.59 1.807 1.218.104.151.352.015.252-.147h-.004ZM12.715 68.71c-.111.697-.496 1.312-1.117 1.657-.108.06-.011.219.096.161.694-.355 1.157-1.013 1.211-1.792.007-.108-.172-.133-.19-.026ZM41.826 61.22l-.276-.579c-.097-.204-.417-.025-.31.18.101.187.198.377.299.568.1.19.38.021.287-.17Z"/></svg>