<svg xmlns="http://www.w3.org/2000/svg" width="29" height="80" fill="none"><path fill="#fff" d="M27.326 24.064c-.65-1.072-1.574-2.004-2.678-2.598a4.133 4.133 0 0 0-.398-.188c.15-.618.227-1.278.147-2.067-.21-2.087-1.11-3.923-2.339-5.596-2.297-3.127-3.934-6-3.952-9.987-.017-3.886-4.943-4.863-6.971-1.889C8.642 5.394 9.016 9.7 7.49 13.668c-1.113 2.894-2.894 5.33-3.466 8.137-2.042.318-3.439 1.522-3.592 3.718a174.68 174.68 0 0 0-.356 17.42c.063 2.14 1.627 3.505 3.445 3.648-.049.499.028 1.27.018 1.585-.042 1.228-.084 2.457-.13 3.682-.09 2.594-.18 5.185-.261 7.778-.157 5.184-.384 10.368-.328 15.556.028 2.761 2.443 3.812 4.44 3.243 1.026 1.016 2.51 1.438 3.955 1.525 3.676.227 7.548-.544 10.98-1.804 1.609-.59 2.69-1.854 2.747-3.606l.502-15.598c.08-2.461.157-4.926.238-7.387.045-1.368.087-2.737.132-4.105.018-.51-.014-1.047.007-1.575.238-.136.454-.265.517-.303.68-.437 1.229-1.065 1.62-1.774.698-1.26.65-2.75.667-4.147.031-3.061.115-6.126.097-9.184-.014-2.161-.251-4.521-1.396-6.413Z"/><path fill="#08111F" d="M27.85 38.39c.052-2.017.083-4.038.09-6.056.007-1.885-.007-3.77-.042-5.652-.02-1.09.102-2.322-.565-3.257-.81-1.135-2.315-1.438-3.816-1.508a.426.426 0 0 0 .032-.234 11.557 11.557 0 0 1-.182-1.962c0-.555.119-1.124-.014-1.665a.348.348 0 0 0-.185-.227c-.007-.021-.007-.042-.017-.063-1.11-2.266-2.297-4.838-3.896-6.797-.08-.101-.196-.125-.31-.115.1-1.32.544-3.697-.832-4.158-.041-.014-.09-.02-.136-.035-.227-.733-.471-1.462-.642-2.213-.192-.824-.203-1.731-.51-2.513-.146-.374-.639-.304-.684.094-.098.87.227 1.79.468 2.622.185.638.394 1.27.656 1.878-1.016-.102-2.192.06-3.114.035a517.913 517.913 0 0 0-4.657-.105.192.192 0 0 0-.06-.045.508.508 0 0 0 .036-.116l.38-.516a107.298 107.298 0 0 0 2.147-3.187c.304-.472-.443-.905-.75-.44-.468.712-.929 1.43-1.38 2.153-.327.531-.931 1.212-1.06 1.83a.649.649 0 0 0 .052.398.409.409 0 0 0-.168.317c0 1.358.014 2.713.136 4.067a.27.27 0 0 0 .032.098c-.793.862-1.344 1.976-2.014 2.94-.747 1.075-1.53 2.118-2.308 3.17a.302.302 0 0 0-.02.338.596.596 0 0 0-.126.46c.17 1.226.342 2.455.53 3.677-1.717.027-3.494.36-3.707 2.119a.352.352 0 0 0-.182.314c-.104 4.021 0 8.046.053 12.068.024 1.892-.004 3.798.083 5.687.05 1.06.154 2.23.901 3.054.573.632 1.313.817 2.136.894.367.035.737.049 1.107.056-.122 3.745-.108 7.498-.101 11.251-.073.105-.08.255 0 .35v8.538c0 2.16-.217 4.437.15 6.57.06.338.625.338.684 0 .087-.51.14-1.026.168-1.55 5.47.806 11.24.454 16.721.094-.003.454-.014.904-.017 1.358 0 .611.9.6.942 0 .308-4.524.297-9.097.35-13.629.048-4.416.16-8.87-.13-13.282 1.592.038 3.191-.154 3.558-1.788.363-1.63.17-3.648.216-5.313l-.003-.003Zm-5.062-16.494c-.758-.004-1.48.028-2.08.014l-13.696-.262c-.405-.007-.88-.032-1.382-.042-.08-1.096-.175-2.192-.272-3.288 5.596.502 11.457.872 17.056.429-.15 1.02.136 2.245.374 3.142v.007ZM16.323 7.489l.342.01c.747.021.91-.146 1.246.52.356.713.213 1.861.16 2.748a34.28 34.28 0 0 0-2.084-.095c.224-1.047.336-2.112.336-3.183Zm-2.769 1.76c.066-.601.213-1.233.178-1.834a73803.303 73803.303 0 0 0 1.934.056 13.96 13.96 0 0 1-.111 3.194 90.41 90.41 0 0 0-2.172.01c.063-.474.119-.949.171-1.427ZM9.477 7.275c1.236.045 2.468.084 3.704.122-.108.51-.091 1.058-.122 1.57-.035.57-.074 1.142-.098 1.711-.59.01-1.18.021-1.767.028.032-.478.039-.956.056-1.434.014-.486.108-1.01-.045-1.474a.234.234 0 0 0-.447 0c-.15.461-.06.992-.045 1.474.014.481.024.96.056 1.441a68.8 68.8 0 0 1-1.467-.003.248.248 0 0 0-.073.01c.136-1.141.199-2.29.244-3.442l.004-.003ZM7.525 14.61c.713-.991 1.56-2.038 1.987-3.19 2.83.314 5.959.593 8.786.15a.482.482 0 0 0 .35.01c.932 2.189 2.471 4.311 3.846 6.252-5.714-.233-11.429-.167-17.15-.478a35.115 35.115 0 0 0 2.181-2.744Zm-5.24 28.444c-.181-.736-.136-1.616-.15-2.37-.031-1.94-.052-3.885-.083-5.826-.05-3.387-.07-6.77-.23-10.152a.426.426 0 0 0 .352-.464c-.035-.786.475-1.226 1.215-1.466-.112 7.23-.308 14.546.3 21.752-.67-.203-1.19-.594-1.407-1.477l.003.003Zm5.226 11.402c-.481.01-.939.077-1.316.248 0-2.971-.007-5.942-.104-8.91.51-.006 1.022-.03 1.532-.059-.126 2.856-.049 5.722-.185 8.581a.16.16 0 0 0 .07.136l.003.004ZM6.227 70.458c.045-1.372-.039-2.765-.039-4.123v-8.74c.423.058.849.11 1.271.156-.545 1.1-.168 3.3-.164 4.081.007 2.863.143 5.732.506 8.57-.527.014-1.054.028-1.578.053l.004.003Zm1.895-.063c-.076-1.92-.17-3.84-.199-5.76a122.351 122.351 0 0 1 0-3.2c.007-.643-.185-2.839.234-3.614 1.177.112 2.357.181 3.54.22-.583 3.98-.618 8.127-.524 12.138.004.213.325.213.332 0 .175-4.036.538-8.085.635-12.124.65.017 1.299.028 1.948.035.084 4.08.105 8.18.37 12.253-2.112 0-4.227 0-6.34.049l.004.003Zm6.783-.052c.067-4.08-.108-8.169-.22-12.246.849.007 1.721.02 2.597.024-.03 4.067-.087 8.141.011 12.208-.796.007-1.592.014-2.384.014h-.004ZM20.1 58.051c0 4.074 0 8.148.122 12.219-.838.028-1.68.042-2.517.052.157-4.063.16-8.137.188-12.2a38.465 38.465 0 0 0 2.203-.07h.004Zm3.114.723c-.05 3.788-.213 7.579-.273 11.37h-.003c-.758.049-1.515.084-2.273.112.126-4.085.122-8.17.122-12.254a19.888 19.888 0 0 0 2.437-.355c0 .377-.003.754-.01 1.127Zm.014-1.878c-2.93-.196-5.96.237-8.906.237-2.712 0-5.421-.15-8.13-.188V55.02c2.691.72 5.69.691 8.44.674 2.87-.014 5.758-.213 8.596-.66v1.86ZM8.192 45.71a53.786 53.786 0 0 1 2.252-.077.367.367 0 0 0-.018.066c-.125 2.989-.21 5.98-.24 8.972-.748-.066-1.63-.21-2.451-.216a.148.148 0 0 0 .052-.088c.461-2.768.747-5.864.405-8.657Zm2.877-.09 2.607-.053a.354.354 0 0 0-.049.237c.482 3.002.549 5.952.207 8.958-1.08 0-2.158-.017-3.237-.063h-.017c.216-2.995.38-5.997.506-9 0-.03-.007-.055-.014-.08h-.003Zm3.2.006a.32.32 0 0 0-.027-.07c.988-.02 1.976-.038 2.964-.059a.363.363 0 0 0-.07.192c-.16 2.96-.203 5.952.031 8.912 0 .025.01.046.018.067-.848.049-1.697.087-2.549.097h-.398a24.96 24.96 0 0 0 .032-9.135v-.004Zm3.54-.14 2.594-.052c-.502 2.905-.527 6.085-.562 9.031-.733.067-1.47.126-2.202.171 0-.014.007-.024.007-.038.027-2.978.045-5.938.22-8.912a.338.338 0 0 0-.056-.203v.003Zm5.422 8.63c-.97.112-1.937.217-2.904.307.377-2.918.806-6.067.701-9 .273-.006.548-.01.82-.017.448-.01.971.028 1.52.056-.137 2.88-.137 5.767-.137 8.654Zm-1.798-9.698-5.795.116c-1.654.03-3.313.066-4.967.097-1.857.035-3.952.328-5.795.116a9.958 9.958 0 0 1-.845-.13c0-.01.007-.017.007-.028.28-7.313.007-14.658.112-21.982 1.48-.216 3.368.042 4.101.056l4.982.094c3.484.066 7.017-.035 10.49.213.224.017.479.038.744.073-.094 3.645.094 7.314.105 10.958.007 3.428-.357 7.045.094 10.449-1.1.136-2.374-.046-3.23-.028l-.003-.004Zm5.429-6.43c-.025.943-.053 1.885-.088 2.824-.024.684.165 1.826-.1 2.423-.305.688-.93 1.012-1.67 1.159.555-3.365.27-6.996.28-10.393.01-3.592.122-7.23-.087-10.818.307.084.596.199.823.363 1.114.817.877 2.758.894 3.941.028 1.75.035 3.502.028 5.25-.01 1.75-.035 3.502-.08 5.251Z"/><path fill="#08111F" d="M13.963 25.952c-4.385.119-8.235 3.893-7.998 8.368.171 3.212 3.735 8.287 7.436 7.027.08.094.202.154.363.15 4.517-.15 9.209-2.143 9.177-7.37-.028-4.698-4.45-8.3-8.978-8.175Zm-.2 14.547a.521.521 0 0 0-.202.045c-1.627-.213-3.117-.352-4.437-1.54C7.742 37.76 6.921 35.88 6.9 34.02c-.045-3.97 3.509-7.157 7.384-7.115 3.864.046 7.687 3.177 7.676 7.22-.01 4.684-4.217 6.245-8.196 6.37v.004Z"/><path fill="#08111F" d="M17.23 31.321c-.929.957-1.725 2.084-2.524 3.167a25.279 25.279 0 0 1-3.568-2.856c-.29-.276-.698.14-.436.436 1.142 1.313 2.45 2.42 3.885 3.397.147.098.42.073.534-.07.936-1.159 1.966-2.314 2.751-3.581.245-.391-.317-.824-.639-.493h-.003ZM7.675 40.31c-.555-.22-1.043-.52-1.326-1.064-.052-.102-.227-.032-.185.076.244.625.782 1.173 1.48 1.215.143.01.143-.185.031-.23v.003ZM8.758 42.126c-1.543-.206-2.86-.978-3.303-2.563-.045-.167-.286-.094-.255.07.287 1.616 1.892 3.114 3.61 2.845.22-.035.133-.328-.049-.352h-.003ZM20.766 23.847c-.886-.185-1.752-.035-2.583.304-.14.056-.087.272.063.23.813-.233 1.634-.247 2.475-.206.185.011.227-.29.045-.328ZM21.876 24.957c-.712-.247-1.5-.342-2.24-.492-.172-.035-.245.22-.074.265.743.196 1.505.461 2.27.563.198.024.212-.273.044-.332v-.004ZM18.913 14.457c-.241-.482-.559-.929-.845-1.386-.098-.157-.342-.018-.251.146.265.468.513.96.823 1.4.12.164.367.025.273-.16ZM9.358 16.07c-.447-.133-.936-.179-1.396-.259-.206-.035-.3.269-.088.321.472.112.953.266 1.435.325.227.028.255-.325.053-.384l-.004-.003ZM11.264 15.218c-.74-.039-1.484 0-2.227.01-.185.004-.185.286 0 .29.743.014 1.483.049 2.227.01.203-.01.203-.303 0-.314v.004ZM15.54 4.2c-.174-.23-.383-.433-.527-.688-.076-.132-.118-.275-.178-.418-.042-.102-.108-.158-.129-.266-.017-.094-.164-.07-.164.021 0 .147-.063.227-.035.377.032.168.094.328.168.482.15.307.377.58.701.702.112.042.238-.116.165-.213V4.2ZM7.902 25.027c-.687.154-1.061.841-.97 1.515.024.171.314.133.303-.042-.024-.495.3-.953.758-1.141.199-.084.13-.38-.09-.332ZM22.571 40.866c-.328.352-.59.747-.866 1.145-.108.157.147.356.27.206.3-.377.607-.737.851-1.152.09-.157-.126-.336-.255-.196v-.003ZM21.992 50.664c-.035-.153-.273-.153-.311 0-.105.44-.017.985 0 1.435.007.196.297.196.304 0 .017-.45.105-.995 0-1.434h.007ZM12.21 52.623c-.265-.639-.272-1.236-.265-1.913 0-.133-.2-.16-.23-.032-.172.67.006 1.418.286 2.036.052.118.261.031.21-.088v-.003ZM12.524 48.759a.147.147 0 0 0-.293 0c-.105 1.1-.024 2.237.024 3.337.007.157.234.157.241 0 .053-1.1.13-2.241.025-3.337h.003ZM9.958 59.584c-.027-.108-.185-.08-.188.024-.021.562-.045 1.086-.276 1.61-.06.132.133.248.196.115.258-.538.419-1.16.268-1.749ZM8.859 60.167c-.007-.13-.192-.13-.2 0-.051.925 0 1.854.022 2.782 0 .102.153.102.157 0 .024-.928.073-1.857.02-2.782ZM16.06 67.358a3.14 3.14 0 0 1-.198-1.868c.031-.17-.224-.247-.266-.073a2.982 2.982 0 0 0 .262 2.056c.066.136.258.018.2-.115h.003ZM22.292 60.167c-.007.555.01 1.114.024 1.669 0 .1.154.1.158 0 .01-.555.027-1.114.024-1.669 0-.13-.203-.133-.203 0h-.003Z"/></svg>