<svg xmlns="http://www.w3.org/2000/svg" width="96" height="80" fill="none"><path fill="#7780A1" d="M95.299 59.875c-.348-4.93-1.08-9.838-2.134-14.665-.3-1.38-1.712-2.938-3.161-3.161l-3.45-.53-.052-5.785c-.021-2.59-2.047-4.263-4.486-4.487a77.291 77.291 0 0 0-5.631-.301 38.114 38.114 0 0 1-.198-4.5c.03-2.512-2.07-4.297-4.448-4.447l-2.28-.142a34.078 34.078 0 0 1-.16-3.2c-.008-2.337-2.012-4.487-4.413-4.414-.473.013-.95.03-1.423.043a55.641 55.641 0 0 0-.229-3.033c-.223-2.13-1.238-3.446-3.213-4.22a7.905 7.905 0 0 0-.972-.305l.155-2.31c.163-2.41-2.112-4.207-4.315-4.315C49.6-.155 44.458.064 39.22.84c-2.242.331-3.214 3.041-2.814 4.955l.62 2.938c-1.76.534-3.373 2.263-3.15 4.134.138 1.127.267 2.254.4 3.381-1.6.06-3.135.357-4.275 1.282-1.695 1.377-1.962 3.596-1.88 5.825-2.684.4-5.102 1.406-5.325 4.585-.074 1.054-.043 2.517.159 4.03-1.983-.05-4 .061-5.958.044-2.211-.022-4.805 2.09-4.504 4.504.185 1.484.31 2.968.228 4.46-.021.379-.056.753-.103 1.132-.327.026-.62.051-.74.047a32.925 32.925 0 0 1-3.252-.245c-3.166-.374-4.796 3.157-4.34 5.7.352 1.978.653 3.962.92 5.949-.28-.026-.559-.052-.839-.086-2.185-.284-4.564 2.228-4.353 4.353.641 6.397 1.316 13.675 4.052 19.56 1.046 2.245 3.485 1.621 4.685.086 3.278.421 6.543.529 9.82.331l51.397 1.742c7.76.263 19.327 2.44 23.938-5.781 2.284-4.074 1.708-9.42 1.39-13.882l.004-.008Z"/><path fill="#fff" d="M91.32 65.974c-5.226-.348-10.535-.163-15.77-.116-5.18.043-10.371.095-15.537.546-.297-2.537-.654-5.067-.912-7.532-.108-1.015-.224-2.026-.332-3.04 5.128.249 10.277.042 15.409-.117 5.23-.164 10.556-.155 15.761-.719.693-.073.732-1.105 0-1.11-5.24-.03-10.517.427-15.761.603-5.162.172-10.337.194-15.49.594a750.97 750.97 0 0 0-1.02-8.793c5.442.19 10.892-.03 16.333-.24 5.158-.199 10.647-.035 15.732-.969.576-.107.404-.955-.134-.98a49.713 49.713 0 0 0-3.204-.035.425.425 0 0 0 .245-.387c0-3.523-.353-7.093-.443-10.625-.009-.392-.495-.4-.62-.086-.025-.005-.047-.017-.073-.017-2.998-.168-6.01-.207-9.02-.203 0-.017.004-.025.004-.043-.21-2.662-.5-5.338-.95-7.97a.278.278 0 0 0-.177-.216c-.03-.22-.19-.417-.495-.438-1.88-.125-3.79-.095-5.695-.03-.134-2.633-.392-5.158-.207-7.817.03-.447-.7-.55-.791-.107-.516 2.525-.723 5.411-.1 7.962-1.053.039-2.107.082-3.152.103-3.308.07-6.638.043-9.937.289a.616.616 0 0 0-.185.047c-.4-2.659-.835-5.308-1.325-7.945 4.624.374 9.584.65 14.191.12.611-.069.641-.938 0-.972-1.613-.09-3.235-.12-4.865-.133v-.005c.108-2.28-.503-4.732-.877-6.968-.056-.34-.568-.241-.577.077v.1a.563.563 0 0 0-.176-.053c-1.102-.077-2.203-.172-3.304-.21.994-2 1.441-5.063.069-6.995-.005-.008-.013-.008-.017-.017.008-.284-.168-.572-.534-.576-5.476-.026-10.99-.164-16.467.043a.42.42 0 0 0-.456-.112 2.36 2.36 0 0 0-.382.146c-.06 0-.12 0-.177.009a.453.453 0 0 0-.447.404c-1.549 1.462-.237 4.783-.396 6.616-.86-.112-1.772-.112-2.576-.168-.34-.026-.49.383-.375.637a.424.424 0 0 0-.051.189c-.134 2.065-.49 4.611-.005 6.633a.38.38 0 0 0 .13.207 110.09 110.09 0 0 0-4.47.52c-.271.035-.422.241-.46.46a.33.33 0 0 0-.293.302c-.288 2.008-.52 4.607.009 6.646-2.1-.082-4.298-.194-6.225.374-.284.082-.284.495 0 .576.048.013.095.022.142.035-.512 2.404-.972 5.549-.361 7.954-2.874-.01-5.751.008-8.616.15-.409.021-.547.413-.422.693a.388.388 0 0 0-.043.146c-.133 2.13-.129 4.28-.112 6.414.009.899-.305 2.731.073 3.622-2.985.025-5.979-.168-8.47-1.274a.524.524 0 0 0-.735.375c-.241.021-.473.184-.452.46.245 3.278.306 7.02 1.153 10.233-.095.478-.06.99.258 1.295-1.084.048-2.172.1-3.256.155-.443.022-.439.654 0 .684 9.91.667 19.994-.056 29.875-.972a.956.956 0 0 0 .31.052c-1.747 6.856-3.485 13.713-5.145 20.592-.177.727.933 1.036 1.127.31 2.86-10.94 5.536-21.93 8.285-32.9a548.26 548.26 0 0 1 2.314-8.844.577.577 0 0 0 .129-.49c2.1-7.834 4.22-15.719 5.528-23.65a.274.274 0 0 0-.164-.31c.727.02 1.459.034 2.185.047-2.938 10.831-5.187 21.878-7.712 32.813-2.538 11.008-5.115 22.007-7.632 33.024-.116.507.663.722.783.215 2.556-11.004 5.05-22.025 7.58-33.037 2.52-10.978 5.338-21.939 7.437-33.007.792.013 1.588.018 2.38.018 1.303 11.197 3.41 22.316 4.826 33.505a745.452 745.452 0 0 1 1.918 16.639c.555 5.364.547 11.025 1.63 16.303.117.555.934.4.956-.129.111-2.744-.104-5.562-.418-8.375 5.15.112 10.298-.06 15.447-.1 5.249-.038 10.527.203 15.77.031.732-.026.723-1.08 0-1.127l.009-.009ZM34.422 53.108c-.31.03-.62.052-.93.078a.437.437 0 0 0-.184.017c-8.483.744-16.966.938-25.462 1.303.018-.039.035-.073.04-.116.02-.198-.031-.391-.096-.58a.446.446 0 0 0 .06-.19c.199-3.347-.602-7.093-1.13-10.431 3.806 2.051 9.067 1.269 13.223 1.324 5.536.074 11.072.151 16.608.224-.71 2.792-1.42 5.588-2.133 8.38l.004-.009Zm2.788-10.965-.349 1.372c-.021 0-.034-.013-.056-.013-4.96-.064-9.92-.129-14.88-.197-1.56-.022-3.251.06-4.98.107a.978.978 0 0 0-.057-.228.493.493 0 0 0-.322-.292c.056-.172.034-.396-.082-.667-.004-.267-.013-.534-.017-.8-.022-.938-.047-1.871-.086-2.805-.073-1.69-.134-3.385-.301-5.072 4.082.198 8.186.117 12.272.117H38.818c.16.06.297.09.422.107-.663 2.805-1.325 5.6-2.026 8.367l-.005.004Zm2.352-9.747c-.58-.052-1.225.051-1.746.047-2.49-.013-4.981 0-7.476 0-1.643 0-3.287-.013-4.934-.021.193-1.21.064-2.465.077-3.687.013-1.368.103-2.727.146-4.095 2.315.434 4.939.107 7.244.112 2.84 0 5.683.013 8.522-.013-.628 2.546-1.23 5.101-1.833 7.652v.005Zm2.13-8.849c-2.938-.034-5.88-.021-8.819-.017a30.3 30.3 0 0 1-.877-.013c.043-1.032-.15-2.1-.194-3.132-.047-1.105-.017-2.206-.021-3.312 3.906-.344 7.92-.198 11.803-.628a232.968 232.968 0 0 0-1.888 7.102h-.004ZM45.796 9.33a139.05 139.05 0 0 0-1.97 6.26c-2.246-.324-4.646-.276-7.017-.087a.376.376 0 0 0 .078-.155c.477-1.992.138-4.49 0-6.538 1.127.189 2.349.438 3.446.284a.293.293 0 0 0 .223-.134c1.785.073 3.583.146 5.39.194a.266.266 0 0 0-.15.172v.004Zm-5.88-1.17c.528-1.974-.999-4.667.619-6.143 5.493.224 11.03.09 16.527.056.189.95.524 1.807.533 2.814.009 1.118-.25 2.19-.692 3.209-.005.008 0 .021-.01.03a.499.499 0 0 0-.201-.048c-5.54-.284-11.228-.12-16.777.082Zm12.03 1.071c1.502-.008 3.004-.038 4.492-.103a.254.254 0 0 0 .155.077c1.514.263 3.045.37 4.572.504.056.004.104-.009.15-.018-.055 1.958-.033 4.074.552 5.907-2.865 0-5.734.056-8.574.025-.408-2.142-.847-4.28-1.342-6.396l-.004.004Zm3 16.3s.02.008.034.008c3.308.112 6.629-.048 9.936-.112 3.291-.06 6.668.069 9.937-.284h.005c.064 2.525.283 5.063.567 7.571 0 .017.013.03.018.047a567.31 567.31 0 0 0-4.694.048c-4.882.064-9.855.051-14.703.684-.348-2.655-.71-5.313-1.1-7.963Zm2.163 16.203c-.318-2.477-.637-4.964-.96-7.454 4.857.137 9.744-.202 14.6-.25 4.892-.051 9.778.103 14.67.095-.336 3.17-.367 6.62.326 9.679.03.137.112.223.21.27-4.146.104-8.362.607-12.461.77-5.313.207-10.63.246-15.938.551-.15-1.221-.292-2.443-.447-3.66Z"/><path fill="#fff" d="M30.632 65.342c-4.288.077-8.56.413-12.862.383-4.293-.03-8.564-.34-12.849-.546-.512-.026-.645.834-.124.907 8.35 1.166 17.46 1.459 25.831.374.688-.09.744-1.13 0-1.118h.004ZM53.896 42.143c-1.08-10.896-1.863-21.973-3.67-32.774-.03-.19-.348-.146-.335.047.593 11.081 2.138 22.184 3.213 33.235 1.08 11.085 1.94 22.192 3.05 33.273.056.542.899.555.856 0-.809-11.27-2-22.532-3.114-33.776v-.005ZM37.64 63.853c-.719.93-.977 2.065-.689 3.21.035.133.254.111.246-.035-.048-1.067.172-2.086.714-3.015.103-.181-.15-.314-.271-.16Z"/><path fill="#fff" d="M38.328 62.77c-.417.942-.59 1.914-.46 2.942.021.18.305.19.288 0-.086-.955.077-1.884.525-2.732.125-.236-.25-.443-.353-.206v-.004ZM51.753 38.491c.026-.198-.25-.292-.31-.086-.36 1.179-.36 2.435-.206 3.648.026.202.34.21.323 0-.1-1.209.03-2.366.193-3.562ZM50.695 37.381a7.613 7.613 0 0 0-.19 3.162c.022.125.22.095.22-.03-.013-1.037.07-2.03.288-3.046.044-.206-.262-.292-.313-.086h-.005ZM47.68 19.624c-.448.938-.542 1.91-.379 2.934.022.146.263.112.254-.035-.043-.95.112-1.884.379-2.791.043-.15-.185-.254-.254-.108ZM44.221 44.367c-.12.942-.19 1.88-.254 2.826-.017.237.336.224.362 0 .112-.942.215-1.88.27-2.826.014-.25-.352-.236-.382 0h.004ZM50.73 68.284c-.01-.159-.246-.163-.25 0-.026.603-.021 1.2-.013 1.798 0 .177.271.177.275 0 .009-.602.013-1.2-.012-1.798ZM67.575 68.624c-1.106-.073-2.233-.017-3.343.009-.21.004-.21.322 0 .327 1.11.026 2.237.081 3.343.008.224-.013.224-.331 0-.348v.004ZM69.377 69.386c-1.458-.06-2.912-.03-4.37.025-.207.009-.207.31 0 .319 1.458.06 2.912.086 4.37.026.241-.01.241-.362 0-.37ZM88.378 59.479c-.09-.262-.5-.16-.422.116.228.835.327 1.656.233 2.517-.026.227.37.283.404.055.125-.907.09-1.815-.21-2.688h-.005ZM70.38 51.99c-1.024.21-2.018.322-3.059.21-.138-.012-.172.224-.034.241 1.058.147 2.133.13 3.161-.198.164-.051.095-.288-.069-.253ZM71.494 51.1c-1.115-.306-2.254-.345-3.399-.203-.223.026-.232.379 0 .357 1.119-.112 2.203-.017 3.3.207.236.047.335-.297.099-.362ZM58.937 42.294c-.344-.916-.546-1.837-.667-2.81-.03-.236-.391-.249-.383 0 .043 1.025.327 2.005.775 2.922.073.15.335.043.275-.117v.005ZM59.793 37.687c-.008-.241-.361-.241-.37 0-.038.856-.004 1.712.017 2.572.005.215.327.215.332 0 .026-.856.056-1.712.017-2.572h.004ZM73.86 27.879c-.03-.176-.332-.138-.319.043.069.783.211 1.566.323 2.344.021.142.266.108.25-.034-.078-.783-.134-1.574-.259-2.353h.004ZM72.737 26.817c-.082-.246-.456-.211-.46.06-.005.873.284 1.79.451 2.64.043.229.443.182.413-.055-.112-.86-.125-1.824-.404-2.65v.005ZM59.604 22.627c-.77-.043-1.527-.194-2.237-.504-.172-.077-.327.172-.15.258.752.375 1.544.577 2.387.555.198-.004.198-.296 0-.31ZM61.148 21.525c-.684-.034-1.372-.017-2.056-.012-.22 0-.22.335 0 .344.684.021 1.372.051 2.056.03.232-.009.232-.349 0-.362ZM57.806 10.625c-.258 0-.517 0-.77-.004-.086 0-.086.137 0 .133h.77c.081-.004.081-.13 0-.13ZM44.436 6.388c-.503.03-.993-.009-1.462-.21-.18-.078-.344.175-.16.27.53.267 1.085.383 1.67.297.202-.03.154-.374-.048-.361v.004ZM46.234 5.373c-.942-.039-1.884-.005-2.83.017-.202.004-.202.31 0 .314.942.021 1.884.056 2.83.017.224-.008.224-.335 0-.348ZM40.578 11.034a32.73 32.73 0 0 0-2.056-.09c-.237 0-.233.352 0 .365.688.034 1.367.06 2.056.052.215 0 .206-.31 0-.327ZM41.012 19.663c-.288.727-.37 1.553-.503 2.318-.022.134.163.19.206.056.224-.757.516-1.544.577-2.335.013-.173-.224-.177-.28-.04ZM40.436 18.106c-.314.843-.547 1.699-.788 2.568-.055.202.246.284.31.086.28-.856.555-1.7.757-2.577.043-.185-.22-.254-.284-.077h.005ZM31.144 25.982c-.766-.404-1.72-.482-2.508-.086-.172.086-.051.348.13.305.786-.193 1.479-.202 2.24.112.19.078.319-.236.138-.331ZM31.32 27.509A7.856 7.856 0 0 1 28.787 27c-.155-.06-.267.202-.112.271a6.584 6.584 0 0 0 2.645.538c.194 0 .194-.293 0-.297v-.004ZM34.405 41.911c-.86.034-1.704 0-2.534-.24-.19-.053-.262.231-.082.292.865.296 1.755.404 2.65.21.146-.03.116-.27-.034-.266v.004ZM32.348 41.14a85.549 85.549 0 0 0-2.572.01c-.172 0-.172.266 0 .27.856.018 1.712.026 2.572.01.185 0 .185-.285 0-.29ZM22.085 39.162a42.053 42.053 0 0 0-1.282-.27c-.103-.022-.146.137-.043.158.43.086.856.172 1.29.245.086.013.12-.111.035-.129v-.004ZM12.604 46.595c-.684-.3-1.398-.374-2.138-.27-.142.02-.082.232.06.214.684-.094 1.355 0 2.005.228.099.035.172-.129.073-.172ZM13.839 47.198a9.215 9.215 0 0 0-3.14.314c-.263.073-.155.469.111.408a9.824 9.824 0 0 1 3.029-.202c.33.03.335-.499 0-.52ZM34.83 48.91c-.662.542-1.11 1.286-1.402 2.082-.068.18.216.254.289.077.305-.744.787-1.363 1.329-1.948.138-.147-.065-.336-.215-.215v.004ZM33.273 48.166c-.31.675-.537 1.385-.778 2.086-.052.146.172.202.228.064.275-.68.568-1.35.774-2.056.039-.129-.163-.224-.224-.094ZM30.034 56.92c-.172 0-.344 0-.516.004-.06 0-.06.094 0 .094.172 0 .344 0 .516.005.07 0 .07-.108 0-.108v.004ZM30.034 58.33a37.754 37.754 0 0 0-2.314.005c-.228.008-.228.344 0 .352.774.026 1.54.03 2.314.005.233-.009.233-.353 0-.362ZM31.32 57.092c-1.114-.048-2.228-.03-3.342-.018-.198 0-.198.306 0 .31 1.114.013 2.228.03 3.342-.017.172-.009.172-.263 0-.271v-.004ZM14.608 59.91a6.212 6.212 0 0 0-2.62.231c-.214.065-.124.405.095.34a6.86 6.86 0 0 1 2.525-.266c.198.017.19-.28 0-.306ZM18.979 68.49a6.871 6.871 0 0 0-2.852.216c-.073.022-.043.133.03.112a6.788 6.788 0 0 1 2.805-.202.063.063 0 0 0 .017-.125ZM21.035 69.945c-.942-.035-1.884-.017-2.83 0-.18 0-.18.275 0 .28.946.017 1.884.034 2.83 0 .177-.01.177-.267 0-.276v-.004ZM77.65 40.096c-.754-.164-1.592-.065-2.358-.06-.284 0-.284.438 0 .438.77.005 1.605.108 2.357-.06.16-.034.16-.284 0-.322v.004ZM64.168 28.189c-1.093.21-2.16.344-3.278.28-.28-.018-.27.4 0 .43 1.14.116 2.301.085 3.411-.211.323-.086.185-.56-.137-.5h.004ZM84.291 50.17a11.757 11.757 0 0 0-1.028-.052c-.215 0-.215.336 0 .332.344 0 .684-.018 1.028-.052.15-.013.15-.215 0-.232v.004ZM63.979 57.62c-.86-.03-1.712-.025-2.573-.008-.163 0-.163.254 0 .254.86.017 1.712.026 2.573-.009.154-.004.154-.236 0-.24v.004ZM66.293 58.89c-1.114-.052-2.228-.026-3.342-.013-.194 0-.194.296 0 .296 1.114.013 2.228.04 3.342-.013.176-.008.176-.266 0-.275v.005Z"/></svg>