<svg xmlns="http://www.w3.org/2000/svg" width="443" height="300" fill="none"><path stroke="#7780A1" stroke-linecap="round" stroke-width="2" d="M203.693 151.21c4.539-4.554 13.689-12.295 13.976-6.831.358 6.831-8.601 24.448 0 16.538 8.6-7.909 18.992-21.93 19.709-16.538.717 5.393 1.792 6.831 11.826-2.876"/><path stroke="#08111F" stroke-linecap="round" stroke-width="2" d="M29.56 229.092c1.674 2.277 7.03 6.709 15.065 6.227M130.398 239.136c-7.942 4.337-31.181 8.449-60.769-9.661a.391.391 0 0 0-.508.077c-5.444 6.617-21.767 20.896-43.177 22.641-6.227.507-10.646-2.612-3.415-5.223 4.018-1.451 7.03-2.411 8.437-3.817"/><path stroke="#08111F" stroke-linecap="round" stroke-width="2" d="M19.315 248.778c-4.017 1.874-9.24 3.133-10.043-.402-1.005-4.419 6.227-3.616 9.039-5.826"/><path stroke="#08111F" stroke-linecap="round" stroke-width="2" d="M8.67 248.577c-6.83 2.008-10-4.04-4.018-7.031 5.624-2.812 10.445-1.808 14.06-6.026"/><path stroke="#08111F" stroke-linecap="round" stroke-width="2" d="M2.643 242.952c-1.54-1.339-3.375-4.781 1.607-7.834 6.227-3.817 35.353-16.673 31.738-26.917-1.064-3.013-6.83-2.812-11.65-9.039-3.582-4.626 0-10.044 4.418-7.031 1.139.871 8.156 5.424 11.852 3.817 4.609-2.004 19.813-3.808 30.655 9.944.05.064.116.111.194.134 8.896 2.611 28.729 6.451 37.849 1.171"/><path stroke="#08111F" stroke-linecap="round" stroke-width="2" d="M41.01 214.629c2.477 2.344 9.44 3.214 13.86-1.004M412.588 226.703c-1.672 2.276-7.029 6.709-15.063 6.227M311.752 236.747c7.941 4.338 31.181 8.449 60.768-9.661a.39.39 0 0 1 .508.078c5.444 6.616 21.766 20.895 43.179 22.639 6.226.508 10.644-2.611 3.413-5.222-4.017-1.451-7.032-2.41-8.435-3.817"/><path stroke="#08111F" stroke-linecap="round" stroke-width="2" d="M422.834 246.388c4.017 1.875 9.242 3.134 10.045-.401 1.005-4.419-6.23-3.616-9.039-5.825"/><path stroke="#08111F" stroke-linecap="round" stroke-width="2" d="M433.479 246.188c6.829 2.009 10.001-4.04 4.02-7.031-5.626-2.812-10.445-1.808-14.061-6.026"/><path stroke="#08111F" stroke-linecap="round" stroke-width="2" d="M439.506 240.563c1.539-1.339 3.374-4.781-1.605-7.834-6.23-3.817-35.354-16.672-31.738-26.917 1.064-3.013 6.83-2.812 11.649-9.039 3.581-4.625 0-10.044-4.418-7.03-1.137.87-8.154 5.423-11.852 3.816-4.609-2.004-19.813-3.808-30.655 9.944a.39.39 0 0 1-.195.134c-8.896 2.611-28.729 6.451-37.849 1.171"/><path stroke="#08111F" stroke-linecap="round" stroke-width="2" d="M401.141 212.24c-2.478 2.344-9.44 3.214-13.861-1.004M199.583 68.712c1.516 17.292 9.277 47.789 28.122 48.971 19.851 1.245 28.122-39.011 28.122-49.387M203.199 67.895l-5.625-.804M257.959 67.091c6.092 1.532 10.883 8.19-3.739 20.891M196.945 67.091c-5.31.697-10.899 8.774 5.45 20.891"/><path fill="#08111F" d="M213.644 73.921c1.997 0 3.616-1.529 3.616-3.415 0-1.886-1.619-3.415-3.616-3.415s-3.616 1.53-3.616 3.415c0 1.886 1.619 3.415 3.616 3.415ZM241.163 73.921a3.415 3.415 0 1 0 0-6.83 3.415 3.415 0 0 0 0 6.83Z"/><path stroke="#08111F" stroke-width="2" d="M214.046 81.785c6.34 0 11.48-5.14 11.48-11.48 0-6.34-5.14-11.48-11.48-11.48-6.341 0-11.48 5.14-11.48 11.48 0 6.34 5.139 11.48 11.48 11.48ZM252.04 70.305c0 6.355-5.064 11.48-11.278 11.48-6.215 0-11.28-5.124-11.28-11.48 0-6.355 5.065-11.48 11.28-11.48 6.214 0 11.278 5.125 11.278 11.48Z"/><path stroke="#08111F" stroke-linecap="round" stroke-width="2" d="M224.893 69.1h4.821M222.943 76.733c-1.045 5.792-1.161 15.408 9.181 10.113M220.474 99.23c2.209-1.212 7.954-2.91 13.257 0M251.006 67.091h6.83"/><path fill="#47BDFF" d="M196.219 33.556c-21.079 9.926-11.253 27.296-3.705 34.74 1.318-.992 5.489-1.24 7.411-1.24-3.623-26.47 10.018-33.5 16.056-35.155 16.881-2.895 36.231 1.655 39.525 14.89 3.934 15.81 4.058 21.092 7.116 21.506 11.623-9.264 9.909-27.02 7.599-34.741 3.014-8.623-3.717-16.405-7.599-21.093C258.741 7.776 248.095-.77 229.156.056c-37.466 3.722-34.995 26.883-32.937 33.5Z"/><path stroke="#08111F" stroke-linecap="round" stroke-width="2" d="M206.814 53.834c1.707-.303 6.83-.728 13.66 0M234.937 54.637c1.606-.606 6.427-1.455 12.855 0M209.14 115.8c-39.773-2.812-49.576-8.476-78.341 60.463M247.674 114.35c34.148 6.025 50.62-14.865 73.117 54.034M154.703 219.852c-4.226 20.19-17.686 21.567-24.385 19.645-.258-.074-.343-.395-.183-.61 15.219-20.448-8.365-35.56-20.453-31.619a.39.39 0 0 1-.496-.262c-2.269-8.085 10.907-9.426 12.173-20.499.642-5.624 1.406-8.502 4.619-8.637 14.262-.603 34.149 16.069 28.725 41.982Z"/><path stroke="#08111F" stroke-linecap="round" stroke-width="2" d="M323.604 170.995c3.379 15.703 14.233 23.342 10.176 33.816a.4.4 0 0 1-.482.229c-25.549-7.461-31.065 22.084-20.586 31.176.276.239.132.709-.232.712-17.351.156-30.577-28.798-26.64-39.82 11.047-30.934 36.596-31.536 37.764-26.113Z"/><path stroke="#08111F" stroke-linecap="round" stroke-width="2" d="M290.861 222.217c-.133 26.583.362 54.276 4.219 76.131M155.507 217.442c.268 26.247-.522 56.364-5.022 82.558"/><path fill="#B476E5" d="M244.025 124.152c1.788-5.018.153-8.394-1.434-9.038-9.558 8.492-24.056 5.339-29.427.193-1.913 1.698-.8 6.722 0 8.266 10.352 11.116 25.086 4.889 30.861.579Z"/></svg>