<svg width="148" height="58" viewBox="0 0 148 58" fill="none" xmlns="http://www.w3.org/2000/svg">
<rect x="1" y="1" width="145.088" height="56" fill="#08111F"/>
<path d="M35.609 27.9491C35.5796 24.6354 38.2896 23.0232 38.4135 22.9481C36.8787 20.6831 34.4998 20.3736 33.6639 20.3489C31.6659 20.1361 29.7279 21.5591 28.7101 21.5591C27.672 21.5591 26.1047 20.3695 24.4155 20.4044C22.2418 20.4384 20.2083 21.7123 19.093 23.6905C16.7914 27.724 18.508 33.6513 20.7131 36.9117C21.8162 38.5094 23.1052 40.2912 24.7924 40.2285C26.443 40.1607 27.0595 39.1644 29.0514 39.1644C31.025 39.1644 31.6039 40.2285 33.3246 40.1884C35.0961 40.1607 36.2114 38.5845 37.2759 36.9733C38.5506 35.1442 39.0625 33.3408 39.0829 33.2483C39.0422 33.2339 35.6436 31.9199 35.609 27.9491ZM32.3586 18.2042C33.2464 17.0804 33.8538 15.5515 33.6852 14C32.4003 14.0576 30.7934 14.8996 29.868 15.9988C29.0493 16.9673 28.318 18.5548 28.5069 20.0477C29.9503 20.1567 31.4323 19.3105 32.3586 18.2042Z" fill="white"/>
<path d="M59.5167 39.9994H57.2099L55.9463 35.9803H51.5543L50.3506 39.9994H48.1048L52.4573 26.3166H55.1449L59.5167 39.9994ZM55.5654 34.2941L54.4227 30.7212C54.3018 30.3562 54.0743 29.4967 53.7412 28.1436H53.7005C53.5664 28.7256 53.3521 29.5851 53.0586 30.7212L51.9352 34.2941H55.5654ZM70.6878 34.9449C70.6878 36.6229 70.2378 37.9492 69.3369 38.9229C68.5304 39.7897 67.5278 40.2225 66.3323 40.2225C65.0413 40.2225 64.1129 39.7568 63.5492 38.8232V44H61.3836V33.376C61.3836 32.3221 61.3562 31.2415 61.3034 30.1331H63.2079L63.3288 31.697H63.3694C64.0916 30.5187 65.1876 29.9295 66.6584 29.9295C67.8082 29.9295 68.7681 30.3891 69.536 31.3093C70.3028 32.2316 70.6878 33.4428 70.6878 34.9449ZM68.4816 35.0251C68.4816 34.0648 68.2683 33.2731 67.8397 32.649C67.3714 32.0003 66.7427 31.6754 65.9544 31.6754C65.4202 31.6754 64.9346 31.8563 64.5009 32.2131C64.0662 32.573 63.7818 33.0428 63.6487 33.6248C63.5893 33.8424 63.5556 34.0664 63.5482 34.292V35.9381C63.5482 36.6548 63.7655 37.2604 64.2003 37.7559C64.635 38.2495 65.1998 38.4972 65.8945 38.4972C66.7102 38.4972 67.345 38.1775 67.799 37.5431C68.2541 36.9067 68.4816 36.0677 68.4816 35.0251ZM81.8986 34.9449C81.8986 36.6229 81.4486 37.9492 80.5476 38.9229C79.7401 39.7897 78.7386 40.2225 77.542 40.2225C76.251 40.2225 75.3226 39.7568 74.7589 38.8232V44H72.5933V33.376C72.5933 32.3221 72.5659 31.2415 72.5131 30.1331H74.4176L74.5385 31.697H74.5791C75.3003 30.5187 76.3963 29.9295 77.8681 29.9295C79.0169 29.9295 79.9768 30.3891 80.7467 31.3093C81.5126 32.2316 81.8986 33.4428 81.8986 34.9449ZM79.6914 35.0251C79.6914 34.0648 79.477 33.2731 79.0484 32.649C78.5801 32.0003 77.9534 31.6754 77.1652 31.6754C76.6309 31.6754 76.1454 31.8563 75.7096 32.2131C75.2749 32.573 74.9915 33.0428 74.8584 33.6248C74.7924 33.8962 74.7569 34.1173 74.7569 34.292V35.9381C74.7569 36.6548 74.9753 37.2604 75.408 37.7559C75.8427 38.2484 76.4075 38.4972 77.1043 38.4972C77.9209 38.4972 78.5558 38.1775 79.0088 37.5431C79.4638 36.9067 79.6914 36.0677 79.6914 35.0251ZM94.4328 36.1613C94.4328 37.3262 94.0306 38.2731 93.2312 39.0041C92.3516 39.802 91.1235 40.2019 89.5491 40.2019C88.0946 40.2019 86.9285 39.9182 86.0489 39.3496L86.5497 37.5225C87.4994 38.0921 88.5425 38.3759 89.6781 38.3759C90.4948 38.3759 91.1296 38.1888 91.5827 37.8176C92.0367 37.4454 92.2663 36.9478 92.2663 36.3268C92.2663 35.7706 92.0763 35.3048 91.7035 34.9254C91.3287 34.547 90.7091 34.1944 89.8386 33.8705C87.4719 32.977 86.2876 31.6702 86.2876 29.9511C86.2876 28.8284 86.7061 27.9092 87.541 27.1905C88.376 26.4728 89.4831 26.114 90.8605 26.114C92.0905 26.114 93.1154 26.331 93.929 26.7638L93.3856 28.5508C92.6197 28.1313 91.7553 27.9215 90.7884 27.9215C90.0245 27.9215 89.4252 28.1117 88.9966 28.4901C88.636 28.8284 88.4532 29.2407 88.4532 29.7301C88.4532 30.2699 88.6614 30.7181 89.0758 31.0698C89.4354 31.3936 90.0915 31.7463 91.0403 32.1247C92.2043 32.5997 93.0595 33.1528 93.607 33.7882C94.1586 34.4237 94.4328 35.2164 94.4328 36.1613ZM101.611 31.7782H99.2241V36.5684C99.2241 37.7868 99.6446 38.3944 100.488 38.3944C100.875 38.3944 101.196 38.3615 101.45 38.2926L101.51 39.9572C101.083 40.1187 100.521 40.1999 99.8254 40.1999C98.9702 40.1999 98.3018 39.9357 97.8193 39.4072C97.3389 38.8787 97.0971 37.9934 97.0971 36.7473V31.7741H95.6751V30.129H97.0971V28.3225L99.2241 27.6727V30.129H101.611V31.7782ZM112.36 34.985C112.36 36.5016 111.931 37.7467 111.076 38.7204C110.181 39.7228 108.99 40.2225 107.506 40.2225C106.074 40.2225 104.936 39.7424 104.086 38.7831C103.237 37.8217 102.813 36.6106 102.813 35.1495C102.813 33.6207 103.252 32.3683 104.126 31.3947C105.003 30.42 106.183 29.9326 107.667 29.9326C109.097 29.9326 110.246 30.4138 111.115 31.3741C111.946 32.3056 112.36 33.5086 112.36 34.985ZM110.115 35.0354C110.115 34.1317 109.922 33.3564 109.535 32.7076C109.081 31.9242 108.431 31.5324 107.589 31.5324C106.721 31.5324 106.056 31.9242 105.603 32.7076C105.215 33.3564 105.022 34.145 105.022 35.0765C105.022 35.9813 105.215 36.7586 105.603 37.4053C106.071 38.1888 106.724 38.5805 107.57 38.5805C108.398 38.5805 109.047 38.1806 109.517 37.3858C109.915 36.7216 110.115 35.9412 110.115 35.0354ZM119.402 32.0609C119.177 32.0198 118.948 31.9995 118.719 32.0003C117.957 32.0003 117.368 32.2902 116.954 32.8742C116.594 33.3883 116.414 34.0381 116.414 34.8226V39.9994H114.248V33.2402C114.25 32.2045 114.229 31.1689 114.185 30.1341H116.071L116.15 32.0219H116.21C116.44 31.3731 116.799 30.8497 117.293 30.458C117.745 30.1157 118.294 29.9304 118.858 29.9295C119.059 29.9295 119.239 29.9439 119.4 29.9696L119.402 32.0609ZM129.087 34.5995C129.092 34.9327 129.066 35.2657 129.008 35.5937H122.511C122.535 36.5684 122.85 37.3149 123.454 37.8289C124.001 38.2875 124.709 38.5178 125.579 38.5178C126.54 38.5178 127.418 38.3636 128.207 38.0521L128.547 39.5727C127.624 39.9799 126.535 40.1824 125.279 40.1824C123.767 40.1824 122.581 39.7321 121.718 38.8335C120.856 37.9338 120.425 36.7247 120.425 35.2102C120.425 33.7235 120.826 32.4845 121.629 31.4965C122.47 30.4416 123.607 29.9141 125.037 29.9141C126.442 29.9141 127.505 30.4416 128.228 31.4965C128.799 32.3324 129.087 33.3688 129.087 34.5995ZM127.022 34.0309C127.037 33.3801 126.895 32.8197 126.601 32.3457C126.227 31.735 125.65 31.4307 124.877 31.4307C124.169 31.4307 123.592 31.7278 123.153 32.3241C122.792 32.7981 122.578 33.3677 122.512 34.0288L127.022 34.0309Z" fill="white"/>
<path d="M50.9295 21.4791C50.3272 21.4791 49.8061 21.4493 49.3724 21.3989V14.7837C49.979 14.6888 50.592 14.6421 51.2058 14.6439C53.6893 14.6439 54.833 15.8808 54.833 17.897C54.833 20.2227 53.4821 21.4791 50.9295 21.4791ZM51.2932 15.4921C50.958 15.4921 50.6726 15.5127 50.4359 15.562V20.5908C50.5639 20.6113 50.8097 20.6206 51.155 20.6206C52.7823 20.6206 53.7086 19.6829 53.7086 17.9268C53.7086 16.3609 52.8706 15.4921 51.2932 15.4921ZM58.3973 21.5295C56.9976 21.5295 56.0905 20.4715 56.0905 19.0352C56.0905 17.5382 57.0169 16.4709 58.4765 16.4709C59.8559 16.4709 60.7833 17.4785 60.7833 18.956C60.7833 20.4715 59.8274 21.5295 58.3973 21.5295ZM58.4379 17.2585C57.669 17.2585 57.1764 17.9864 57.1764 19.0043C57.1764 20.0027 57.6791 20.7306 58.4277 20.7306C59.1764 20.7306 59.6791 19.9523 59.6791 18.9838C59.6791 17.9967 59.1865 17.2585 58.4379 17.2585ZM68.765 16.5707L67.2667 21.4195H66.2906L65.67 19.3138C65.5157 18.7987 65.3872 18.2761 65.285 17.7479H65.2647C65.1865 18.2764 65.0382 18.8059 64.8808 19.3138L64.2205 21.4195H63.2342L61.8244 16.5707H62.9184L63.4608 18.8758C63.5887 19.4248 63.6964 19.943 63.7858 20.4324H63.8061C63.8843 20.0243 64.0123 19.5143 64.2002 18.8861L64.8808 16.5717H65.7482L66.3993 18.8367C66.5567 19.3858 66.6847 19.9245 66.7843 20.4335H66.8127C66.8818 19.9348 66.9905 19.4053 67.1377 18.8367L67.7198 16.5717L68.765 16.5707ZM74.2804 21.4195H73.216V18.6352C73.216 17.7777 72.8909 17.3479 72.25 17.3479C71.6192 17.3479 71.1855 17.897 71.1855 18.5355V21.4195H70.121V17.9566C70.121 17.5279 70.1108 17.0683 70.0814 16.5696H71.0179L71.0677 17.3181H71.0971C71.3836 16.7999 71.9646 16.4709 72.6156 16.4709C73.6212 16.4709 74.2815 17.2492 74.2815 18.5159L74.2804 21.4195ZM77.2159 21.4195H76.1504V14.3457H77.2159V21.4195ZM81.0971 21.5295C79.6984 21.5295 78.7903 20.4715 78.7903 19.0352C78.7903 17.5382 79.7167 16.4709 81.1753 16.4709C82.5557 16.4709 83.4821 17.4785 83.4821 18.956C83.4831 20.4715 82.5263 21.5295 81.0971 21.5295ZM81.1367 17.2585C80.3678 17.2585 79.8752 17.9864 79.8752 19.0043C79.8752 20.0027 80.379 20.7306 81.1255 20.7306C81.8752 20.7306 82.3769 19.9523 82.3769 18.9838C82.3779 17.9967 81.8863 17.2585 81.1367 17.2585ZM87.6791 21.4195L87.6019 20.8612H87.5735C87.2484 21.3105 86.7741 21.5295 86.1728 21.5295C85.3145 21.5295 84.705 20.9208 84.705 20.1024C84.705 18.9056 85.7299 18.2867 87.5044 18.2867V18.1972C87.5044 17.5587 87.1702 17.239 86.51 17.239C86.0377 17.239 85.6233 17.3593 85.2586 17.5988L85.0422 16.8904C85.4851 16.6108 86.0377 16.4709 86.6867 16.4709C87.9381 16.4709 88.5699 17.1392 88.5699 18.4769V20.2628C88.5699 20.7522 88.5912 21.1316 88.639 21.4205L87.6791 21.4195ZM87.5328 19.0043C86.3505 19.0043 85.7573 19.2943 85.7573 19.9821C85.7573 20.4911 86.0631 20.7399 86.4876 20.7399C87.029 20.7399 87.5328 20.3214 87.5328 19.7528V19.0043ZM93.739 21.4195L93.6893 20.6412H93.6598C93.3541 21.2293 92.8401 21.5295 92.122 21.5295C90.9671 21.5295 90.1118 20.5013 90.1118 19.0547C90.1118 17.5382 90.9986 16.4699 92.2093 16.4699C92.8503 16.4699 93.3043 16.6889 93.5603 17.1289H93.5816V14.3457H94.6471V20.1127C94.6471 20.5815 94.6583 21.0206 94.6867 21.4195H93.739ZM93.5816 18.5663C93.5816 17.8877 93.1377 17.3089 92.4602 17.3089C91.671 17.3089 91.1885 18.0173 91.1885 19.0146C91.1885 19.9924 91.6893 20.6617 92.4389 20.6617C93.1083 20.6617 93.5816 20.0726 93.5816 19.3745V18.5663ZM101.403 21.5295C100.004 21.5295 99.0971 20.4715 99.0971 19.0352C99.0971 17.5382 100.023 16.4709 101.482 16.4709C102.862 16.4709 103.789 17.4785 103.789 18.956C103.79 20.4715 102.834 21.5295 101.403 21.5295ZM101.442 17.2585C100.675 17.2585 100.182 17.9864 100.182 19.0043C100.182 20.0027 100.685 20.7306 101.432 20.7306C102.182 20.7306 102.684 19.9523 102.684 18.9838C102.686 17.9967 102.193 17.2585 101.442 17.2585ZM109.514 21.4195H108.448V18.6352C108.448 17.7777 108.123 17.3479 107.482 17.3479C106.851 17.3479 106.419 17.897 106.419 18.5355V21.4195H105.353V17.9566C105.353 17.5279 105.343 17.0683 105.313 16.5696H106.25L106.3 17.3181H106.329C106.615 16.7999 107.197 16.4699 107.847 16.4699C108.852 16.4699 109.514 17.2482 109.514 18.5149V21.4195ZM116.676 17.3788H115.504V19.7333C115.504 20.3327 115.71 20.6319 116.124 20.6319C116.312 20.6319 116.469 20.6113 116.596 20.5815L116.626 21.4C116.42 21.4801 116.143 21.5202 115.8 21.5202C114.961 21.5202 114.459 21.0514 114.459 19.8238V17.3788H113.76V16.5707H114.459V15.6823L115.504 15.3626V16.5696H116.676V17.3788ZM122.311 21.4195H121.247V18.6558C121.247 17.788 120.923 17.349 120.281 17.349C119.73 17.349 119.216 17.7284 119.216 18.4964V21.4195H118.152V14.3457H119.216V17.2585H119.237C119.572 16.73 120.058 16.4699 120.678 16.4699C121.691 16.4699 122.311 17.2678 122.311 18.5355V21.4195ZM128.084 19.2542H124.89C124.91 20.1723 125.51 20.6905 126.399 20.6905C126.872 20.6905 127.306 20.6103 127.69 20.4612L127.856 21.2097C127.403 21.4092 126.87 21.5089 126.249 21.5089C124.751 21.5089 123.864 20.5507 123.864 19.065C123.864 17.5783 124.772 16.4606 126.129 16.4606C127.353 16.4606 128.121 17.3788 128.121 18.7658C128.128 18.9295 128.116 19.0934 128.084 19.2542ZM127.108 18.4861C127.108 17.7376 126.735 17.2091 126.055 17.2091C125.443 17.2091 124.96 17.7479 124.891 18.4861H127.108Z" fill="white"/>
<rect x="1" y="1" width="145.088" height="56" stroke="white" stroke-width="2"/>
</svg>
