<svg width="400" height="345" viewBox="0 0 400 345" fill="none" xmlns="http://www.w3.org/2000/svg">
<path d="M398.342 34.6808C398.342 34.6808 394.639 27.8532 388.767 18.4255C388.767 18.4255 369.903 32.5113 370.047 31.7296C370.191 30.948 398.342 34.6808 398.342 34.6808Z" fill="#08111F"/>
<path d="M398.342 35.4783H398.23C388.304 34.1543 372.106 32.1922 370.334 32.4315C369.872 32.6229 369.728 32.5272 369.568 32.4315C369.431 32.3385 369.323 32.2078 369.258 32.055C369.192 31.9021 369.173 31.7337 369.201 31.57C369.201 31.3467 369.297 31.1234 369.824 30.9958C370.909 30.5651 381.697 22.6687 388.224 17.7873C388.312 17.7209 388.413 17.6738 388.52 17.6491C388.627 17.6244 388.738 17.6225 388.846 17.6437C388.954 17.6613 389.057 17.7018 389.148 17.7623C389.238 17.8228 389.315 17.902 389.373 17.9947C395.262 27.3427 398.948 34.2341 399.044 34.2979C399.11 34.4195 399.144 34.5564 399.142 34.695C399.139 34.8336 399.101 34.9692 399.03 35.0884C398.959 35.2075 398.858 35.3062 398.737 35.3746C398.617 35.443 398.48 35.4787 398.342 35.4783ZM372.808 30.9479C376.287 31.1393 383.165 31.8891 396.826 33.6917C395.501 31.3148 392.517 26.0984 388.431 19.5899C379.91 25.9708 375.361 29.2729 372.856 30.9479H372.808Z" fill="#08111F"/>
<path d="M148.398 319.189L138.982 303.492L152.02 291.719L148.398 319.189Z" fill="#08111F"/>
<path d="M148.398 319.987C148.26 319.985 148.126 319.949 148.006 319.882C147.887 319.815 147.785 319.719 147.711 319.604L138.296 303.907C138.201 303.747 138.165 303.559 138.194 303.376C138.224 303.192 138.316 303.025 138.455 302.902L151.478 291.129C151.599 291.019 151.752 290.95 151.915 290.93C152.078 290.91 152.243 290.94 152.387 291.018C152.53 291.096 152.646 291.216 152.72 291.361C152.794 291.506 152.822 291.67 152.802 291.831L149.196 319.253C149.175 319.42 149.102 319.576 148.988 319.7C148.873 319.823 148.722 319.907 148.557 319.939L148.398 319.987ZM140.003 303.652L147.983 316.812L151.015 293.761L140.003 303.652Z" fill="#08111F"/>
<path d="M154.51 322.444L306.117 344.027C309.226 344.438 312.381 343.728 315.013 342.023C317.646 340.319 319.584 337.732 320.48 334.727L398.932 41.3648C400.528 35.287 396.65 29.943 390.219 29.4165L235.628 16.9578C232.572 16.8077 229.554 17.6887 227.059 19.4593C224.564 21.2298 222.737 23.7872 221.871 26.7206L146.594 310.384C146.204 311.7 146.105 313.086 146.305 314.444C146.505 315.803 146.999 317.101 147.753 318.249C148.506 319.398 149.501 320.368 150.668 321.092C151.835 321.816 153.146 322.278 154.51 322.444Z" fill="#08111F"/>
<path d="M307.792 345C307.179 344.997 306.566 344.954 305.957 344.872L154.35 323.273C152.884 323.093 151.474 322.599 150.215 321.826C148.957 321.052 147.88 320.017 147.057 318.79C146.239 317.53 145.701 316.109 145.478 314.623C145.255 313.137 145.353 311.621 145.764 310.176L221.041 26.561C221.962 23.4453 223.9 20.7278 226.547 18.8425C229.194 16.9572 232.397 16.0128 235.643 16.1602L390.235 28.6189C391.802 28.7122 393.329 29.1494 394.708 29.8993C396.087 30.6492 397.284 31.6934 398.214 32.9579C399.069 34.2013 399.636 35.6198 399.874 37.11C400.111 38.6002 400.013 40.1246 399.586 41.5721L321.134 334.934C320.28 337.818 318.524 340.352 316.122 342.164C313.721 343.976 310.801 344.97 307.792 345ZM154.59 321.694L306.197 343.293C309.12 343.683 312.086 343.019 314.563 341.419C317.041 339.82 318.866 337.391 319.714 334.567L398.102 41.2212C398.472 39.9988 398.562 38.709 398.366 37.4471C398.17 36.1852 397.693 34.9835 396.969 33.931C396.171 32.8476 395.14 31.9561 393.953 31.3214C392.766 30.6866 391.452 30.3247 390.107 30.262L235.516 17.7554C232.642 17.6045 229.802 18.4283 227.456 20.0933C225.109 21.7582 223.395 24.1666 222.589 26.9279L147.36 310.591C147.004 311.817 146.915 313.105 147.099 314.368C147.284 315.631 147.737 316.84 148.43 317.913C149.132 318.948 150.048 319.821 151.116 320.473C152.184 321.125 153.379 321.541 154.621 321.694H154.59Z" fill="#08111F"/>
<path d="M144.647 306.3L296.254 327.883C299.363 328.288 302.514 327.575 305.145 325.871C307.776 324.168 309.716 321.584 310.617 318.583L389.054 25.2211C390.65 19.1433 386.772 13.7993 380.34 13.2728L225.717 0.814132C222.66 0.666075 219.641 1.54759 217.144 3.31758C214.647 5.08758 212.816 7.64372 211.945 10.5769L136.716 294.192C136.317 295.513 136.212 296.905 136.409 298.27C136.606 299.635 137.1 300.941 137.856 302.095C138.612 303.249 139.612 304.224 140.785 304.95C141.959 305.677 143.277 306.137 144.647 306.3Z" fill="white"/>
<path d="M297.93 328.824C297.316 328.822 296.703 328.779 296.095 328.697L144.488 307.097C143.022 306.917 141.611 306.424 140.353 305.65C139.094 304.877 138.017 303.841 137.195 302.615C136.376 301.355 135.837 299.934 135.614 298.448C135.391 296.962 135.489 295.445 135.902 294.001L211.195 10.3855C212.116 7.27276 214.056 4.55916 216.704 2.6792C219.351 0.799231 222.553 -0.138365 225.797 0.0165236L380.356 12.4752C381.937 12.5581 383.48 12.9903 384.873 13.7406C386.267 14.4908 387.476 15.5406 388.415 16.8142C389.267 18.0596 389.831 19.478 390.068 20.9675C390.306 22.4569 390.21 23.9804 389.788 25.4285L311.335 318.79C310.473 321.679 308.704 324.214 306.29 326.02C303.876 327.827 300.945 328.81 297.93 328.824ZM224.792 1.57984C222.076 1.65501 219.454 2.58539 217.299 4.23826C215.144 5.89114 213.566 8.18208 212.791 10.7843L137.498 294.399C137.141 295.625 137.052 296.913 137.237 298.177C137.421 299.44 137.875 300.649 138.567 301.722C139.27 302.757 140.186 303.629 141.254 304.281C142.322 304.933 143.517 305.35 144.759 305.502L296.366 327.102C299.282 327.479 302.236 326.809 304.704 325.211C307.171 323.613 308.989 321.19 309.835 318.376L388.24 25.0297C388.606 23.8069 388.695 22.5177 388.499 21.2564C388.303 19.9951 387.827 18.7935 387.107 17.7395C386.306 16.6541 385.273 15.7613 384.083 15.1265C382.893 14.4917 381.576 14.1309 380.229 14.0705L225.653 1.61175L224.792 1.57984Z" fill="#08111F"/>
<path d="M374.037 44.5233L215.775 30.8203L155.052 259.671L311 280.393L374.037 44.5233Z" fill="#47BDFF"/>
<path d="M304.617 248.856C304.465 248.857 304.316 248.813 304.189 248.731C304.061 248.649 303.96 248.532 303.899 248.393L271.981 180.931C271.936 180.836 271.909 180.733 271.904 180.627C271.898 180.522 271.914 180.416 271.949 180.317C271.985 180.217 272.04 180.126 272.111 180.048C272.182 179.97 272.268 179.907 272.364 179.862C272.555 179.775 272.772 179.766 272.97 179.838C273.167 179.909 273.328 180.056 273.418 180.245L305.335 247.723C305.38 247.817 305.406 247.919 305.412 248.024C305.417 248.128 305.401 248.232 305.366 248.331C305.33 248.429 305.275 248.519 305.204 248.595C305.133 248.672 305.047 248.733 304.952 248.776C304.847 248.825 304.733 248.852 304.617 248.856Z" fill="white"/>
<path d="M207.285 304.593L236.872 308.756C238.751 308.988 240.652 308.543 242.233 307.503C243.815 306.463 244.975 304.894 245.506 303.077L248.442 292.054C248.688 291.217 248.747 290.336 248.613 289.474C248.48 288.612 248.158 287.79 247.67 287.066C247.182 286.343 246.541 285.736 245.792 285.288C245.043 284.841 244.204 284.564 243.336 284.477L213.716 280.457C211.855 280.254 209.982 280.711 208.424 281.75C206.866 282.788 205.723 284.341 205.194 286.136L202.274 297.063C202.028 297.891 201.967 298.762 202.095 299.615C202.223 300.468 202.538 301.283 203.016 302.001C203.494 302.719 204.124 303.324 204.862 303.772C205.6 304.22 206.427 304.5 207.285 304.593Z" fill="white"/>
<path d="M237.862 309.682C237.493 309.687 237.125 309.66 236.761 309.602L207.173 305.454C206.204 305.342 205.271 305.02 204.439 304.511C203.607 304.001 202.896 303.316 202.357 302.503C201.817 301.69 201.462 300.769 201.315 299.805C201.168 298.841 201.234 297.856 201.508 296.92L204.412 285.993C204.993 284.008 206.256 282.293 207.979 281.149C209.702 280.005 211.773 279.506 213.828 279.739L243.447 283.743C244.432 283.86 245.381 284.186 246.229 284.701C247.077 285.215 247.805 285.906 248.362 286.726C248.895 287.545 249.246 288.469 249.392 289.434C249.538 290.4 249.475 291.386 249.208 292.326L246.304 303.301C245.774 305.132 244.665 306.743 243.143 307.893C241.622 309.043 239.769 309.671 237.862 309.682ZM207.397 303.875L236.984 308.023C238.668 308.228 240.37 307.829 241.787 306.897C243.205 305.965 244.245 304.561 244.724 302.934L247.676 291.911C247.88 291.189 247.929 290.431 247.819 289.689C247.709 288.947 247.443 288.236 247.038 287.604C246.602 286.976 246.039 286.449 245.384 286.055C244.729 285.662 243.998 285.412 243.24 285.323L213.605 281.319C211.937 281.127 210.254 281.531 208.856 282.459C207.457 283.388 206.431 284.78 205.96 286.391L203.056 297.335C202.838 298.052 202.781 298.809 202.89 299.551C202.998 300.293 203.27 301.002 203.685 301.627C204.099 302.252 204.647 302.778 205.289 303.166C205.931 303.555 206.65 303.797 207.397 303.875Z" fill="#7780A1" fill-opacity="0.3"/>
<path d="M327.214 24.8542L282.003 21.0735C281.898 21.0641 281.797 21.0341 281.703 20.9853C281.61 20.9366 281.528 20.8699 281.46 20.7892C281.393 20.7084 281.342 20.6152 281.31 20.5148C281.279 20.4145 281.268 20.3089 281.277 20.2041C281.287 20.0994 281.317 19.9975 281.365 19.9044C281.414 19.8112 281.481 19.7286 281.562 19.6612C281.642 19.5938 281.736 19.5429 281.836 19.5115C281.936 19.4802 282.042 19.4689 282.147 19.4783L327.342 23.243C327.553 23.243 327.756 23.3271 327.906 23.4766C328.056 23.6262 328.14 23.8291 328.14 24.0406C328.14 24.2522 328.056 24.4551 327.906 24.6046C327.756 24.7542 327.553 24.8383 327.342 24.8383L327.214 24.8542Z" fill="#7780A1"/>
<path d="M275.732 20.5479L269.731 20.0532C269.627 20.0452 269.525 20.0164 269.432 19.9685C269.339 19.9205 269.257 19.8544 269.19 19.7741C269.123 19.6937 269.073 19.6008 269.042 19.5007C269.012 19.4006 269.002 19.2954 269.013 19.1914C269.033 18.9811 269.135 18.787 269.295 18.65C269.456 18.513 269.664 18.4439 269.875 18.4573L275.859 18.968C276.071 18.968 276.274 19.0521 276.423 19.2017C276.573 19.3513 276.657 19.5543 276.657 19.7659C276.657 19.9775 276.573 20.1805 276.423 20.3301C276.274 20.4798 276.071 20.5639 275.859 20.5639L275.732 20.5479Z" fill="#7780A1"/>
<path d="M320.129 170.801C320.129 170.801 339.566 106.737 322.714 92.5397L240.24 82.6174C240.24 82.6174 226.1 97.3413 224.058 108.651C222.015 119.962 204.907 144.049 211.291 158.422L320.129 170.801Z" fill="#08111F"/>
<path d="M320.129 171.599H320.049L211.195 159.204C211.058 159.187 210.928 159.136 210.816 159.055C210.704 158.974 210.615 158.866 210.557 158.742C206.136 148.755 212.599 134.351 217.802 122.769C220.371 117.058 222.589 112.113 223.228 108.508C225.286 97.0861 239.027 82.6652 239.617 82.059C239.703 81.97 239.808 81.9021 239.924 81.8606C240.04 81.819 240.165 81.8051 240.287 81.8198L322.762 91.758C322.913 91.7787 323.056 91.8393 323.177 91.9335C340.236 106.291 321.581 168.409 320.847 171.041C320.798 171.196 320.703 171.332 320.575 171.432C320.447 171.532 320.291 171.59 320.129 171.599ZM211.897 157.673L319.554 169.94C321.501 163.272 337.444 106.546 322.379 93.3692L240.543 83.5107C238.596 85.6164 226.659 98.7611 224.84 108.859C224.153 112.655 221.903 117.68 219.302 123.487C214.387 134.542 208.115 148.341 211.897 157.673Z" fill="#08111F"/>
<path d="M327.916 172.684H327.805L189.97 153.35C189.763 153.318 189.578 153.207 189.452 153.04C189.327 152.873 189.272 152.663 189.3 152.456C189.327 152.247 189.437 152.057 189.605 151.929C189.772 151.8 189.984 151.743 190.193 151.77L328.028 171.104C328.239 171.136 328.429 171.249 328.557 171.419C328.685 171.589 328.742 171.803 328.714 172.014C328.681 172.201 328.582 172.371 328.437 172.493C328.291 172.616 328.107 172.683 327.916 172.684Z" fill="#08111F"/>
<path d="M322.714 92.5396C322.714 92.5396 314.352 93.6882 309.229 111.076C301.393 137.684 291.068 193.836 284.541 214.957C274.966 245.681 249.432 250.052 249.432 250.052L141.472 234.403C141.472 234.403 185.406 219.185 192.827 193.31C200.63 166.048 211.434 114.538 214.355 103.036C219.509 82.6651 240.288 82.6651 240.288 82.6651L322.714 92.5396Z" fill="white"/>
<path d="M249.384 250.802H249.272L141.312 235.153C141.134 235.126 140.971 235.04 140.847 234.911C140.723 234.781 140.645 234.613 140.626 234.435C140.608 234.258 140.651 234.08 140.746 233.929C140.842 233.779 140.985 233.665 141.152 233.605C141.599 233.462 184.799 218.211 192.013 193.039C197.423 174.135 204.365 143.22 208.945 122.753C211.003 113.581 212.631 106.322 213.525 102.797C218.775 82.0589 240.032 81.8197 240.24 81.8197L322.81 91.7579C323.001 91.7811 323.178 91.8731 323.308 92.0169C323.437 92.1606 323.509 92.3464 323.512 92.5396C323.51 92.7322 323.441 92.9181 323.315 93.0642C323.189 93.2102 323.016 93.307 322.826 93.3372C322.698 93.3372 314.846 94.7888 310.059 111.299C306.085 124.763 301.505 145.756 297.052 166.064C292.712 185.956 288.594 204.748 285.371 215.196C280.391 231.292 271.008 240.114 263.89 244.676C259.528 247.598 254.656 249.675 249.527 250.802H249.384ZM144.584 234.02L249.368 249.207C251.235 248.824 274.902 243.544 283.775 214.718C286.966 204.333 291.1 185.573 295.44 165.729C299.877 145.389 304.489 124.364 308.463 110.853C311.83 99.4469 316.586 94.9005 319.634 92.9703L240.144 83.3989C239.41 83.3989 220.02 83.6701 215.073 103.196C214.195 106.689 212.567 113.932 210.509 123.104C205.913 143.587 198.971 174.534 193.545 193.485C189.635 207.093 175.719 217.701 164.723 224.194C158.266 227.969 151.534 231.254 144.584 234.02Z" fill="#08111F"/>
<path d="M270.816 216.824H270.72L256.118 215.228C255.909 215.204 255.718 215.099 255.586 214.934C255.455 214.77 255.394 214.56 255.416 214.351C255.426 214.247 255.457 214.145 255.507 214.053C255.556 213.961 255.624 213.88 255.706 213.814C255.788 213.749 255.882 213.7 255.983 213.672C256.084 213.644 256.19 213.636 256.294 213.649L270.912 215.244C271.121 215.268 271.312 215.374 271.444 215.538C271.575 215.703 271.637 215.912 271.614 216.122C271.587 216.315 271.492 216.492 271.346 216.621C271.199 216.75 271.011 216.822 270.816 216.824Z" fill="#7780A1"/>
<path d="M244.341 213.825H244.245L200.534 208.863C200.325 208.839 200.134 208.734 200.003 208.569C199.871 208.405 199.81 208.195 199.832 207.986C199.842 207.882 199.873 207.78 199.923 207.688C199.973 207.596 200.04 207.515 200.122 207.449C200.204 207.384 200.298 207.335 200.399 207.307C200.5 207.279 200.606 207.271 200.71 207.284L244.437 212.229C244.648 212.242 244.846 212.338 244.987 212.497C245.128 212.655 245.199 212.863 245.187 213.075C245.174 213.286 245.078 213.484 244.919 213.625C244.761 213.765 244.553 213.837 244.341 213.825Z" fill="#7780A1"/>
<path d="M257.762 233.494H257.666L244.245 231.899C244.14 231.886 244.039 231.853 243.947 231.801C243.855 231.75 243.774 231.68 243.709 231.597C243.644 231.514 243.596 231.419 243.567 231.318C243.539 231.216 243.531 231.11 243.543 231.005C243.556 230.901 243.589 230.799 243.64 230.707C243.692 230.615 243.762 230.535 243.844 230.469C243.927 230.404 244.022 230.356 244.124 230.327C244.226 230.299 244.332 230.291 244.437 230.303L257.858 231.899C257.963 231.905 258.065 231.932 258.16 231.978C258.254 232.024 258.339 232.088 258.408 232.166C258.478 232.245 258.531 232.336 258.566 232.435C258.6 232.534 258.614 232.639 258.608 232.744C258.602 232.849 258.575 232.951 258.529 233.046C258.483 233.14 258.419 233.224 258.34 233.294C258.262 233.364 258.17 233.417 258.071 233.451C257.972 233.486 257.867 233.5 257.762 233.494Z" fill="#7780A1"/>
<path d="M229.372 230.271H229.276L187.48 225.486C187.269 225.462 187.075 225.356 186.942 225.19C186.809 225.024 186.747 224.812 186.77 224.6C186.793 224.389 186.9 224.195 187.066 224.062C187.232 223.929 187.444 223.867 187.656 223.89L229.467 228.676C229.677 228.7 229.868 228.806 229.999 228.97C230.131 229.135 230.192 229.344 230.17 229.553C230.146 229.75 230.053 229.93 229.906 230.063C229.759 230.195 229.569 230.269 229.372 230.271Z" fill="#7780A1"/>
<path d="M249.384 250.004C243.069 244.172 238.212 236.938 235.204 228.887C232.197 220.835 231.123 212.19 232.069 203.647L118.762 183.212C118.762 183.212 128.481 221.131 141.408 234.355L249.384 250.004Z" fill="white"/>
<path d="M249.384 250.802H249.272L141.312 235.153C141.137 235.123 140.975 235.039 140.849 234.914C127.923 221.689 118.395 184.967 117.996 183.404C117.963 183.275 117.964 183.14 117.997 183.012C118.031 182.884 118.096 182.766 118.188 182.67C118.278 182.568 118.393 182.492 118.522 182.447C118.65 182.402 118.788 182.391 118.922 182.415L232.228 202.85C232.424 202.892 232.597 203.004 232.715 203.166C232.833 203.328 232.887 203.528 232.867 203.727C231.972 212.139 233.046 220.644 236.004 228.57C238.962 236.497 243.723 243.627 249.911 249.398C250.044 249.499 250.141 249.64 250.188 249.8C250.236 249.96 250.23 250.131 250.173 250.288C250.116 250.445 250.01 250.58 249.871 250.672C249.732 250.765 249.567 250.81 249.4 250.802H249.384ZM141.807 233.605L247.006 248.856C241.299 243.018 236.928 236.01 234.198 228.317C231.467 220.624 230.441 212.43 231.191 204.301L119.864 184.217C121.651 190.742 130.556 221.849 141.807 233.605Z" fill="#08111F"/>
<path d="M294.26 117.409H294.18L223.962 109.433C223.856 109.423 223.753 109.392 223.66 109.341C223.566 109.291 223.484 109.221 223.418 109.138C223.353 109.054 223.305 108.958 223.277 108.855C223.25 108.752 223.244 108.645 223.26 108.54C223.284 108.331 223.39 108.14 223.554 108.008C223.718 107.877 223.928 107.815 224.137 107.838L294.355 115.814C294.567 115.825 294.766 115.919 294.908 116.076C295.05 116.233 295.124 116.44 295.113 116.651C295.103 116.863 295.009 117.062 294.852 117.204C294.694 117.346 294.487 117.42 294.276 117.409H294.26Z" fill="#7780A1"/>
<path d="M291.323 135.467H291.227L278.046 133.968C277.941 133.955 277.839 133.922 277.747 133.87C277.655 133.819 277.575 133.749 277.509 133.666C277.444 133.583 277.396 133.488 277.367 133.387C277.339 133.285 277.331 133.179 277.343 133.074C277.356 132.97 277.389 132.868 277.441 132.776C277.492 132.684 277.562 132.604 277.645 132.538C277.728 132.473 277.823 132.425 277.924 132.396C278.026 132.368 278.132 132.36 278.237 132.372L291.403 133.856C291.508 133.861 291.61 133.887 291.705 133.932C291.8 133.977 291.885 134.04 291.955 134.118C292.026 134.196 292.08 134.286 292.115 134.385C292.151 134.484 292.166 134.589 292.161 134.693C292.156 134.798 292.13 134.901 292.085 134.996C292.04 135.09 291.977 135.175 291.899 135.246C291.821 135.316 291.73 135.371 291.632 135.406C291.533 135.441 291.428 135.456 291.323 135.451V135.467Z" fill="#7780A1"/>
<path d="M263.38 132.293L221.121 127.507C220.91 127.484 220.716 127.377 220.583 127.211C220.45 127.045 220.388 126.833 220.411 126.622C220.434 126.41 220.541 126.216 220.707 126.083C220.873 125.95 221.085 125.888 221.297 125.912L263.555 130.697C263.66 130.704 263.763 130.73 263.857 130.776C263.951 130.822 264.036 130.886 264.105 130.965C264.175 131.043 264.229 131.135 264.263 131.234C264.297 131.333 264.312 131.438 264.305 131.543C264.299 131.648 264.272 131.75 264.226 131.844C264.18 131.939 264.116 132.023 264.038 132.093C263.959 132.162 263.868 132.216 263.768 132.25C263.669 132.284 263.564 132.299 263.459 132.293H263.38Z" fill="#7780A1"/>
<path d="M286.982 152.297H286.887L265.167 149.84C264.956 149.812 264.765 149.703 264.634 149.536C264.503 149.369 264.442 149.158 264.465 148.947C264.493 148.736 264.602 148.545 264.769 148.414C264.936 148.283 265.147 148.222 265.358 148.245L287.062 150.718C287.167 150.727 287.268 150.758 287.36 150.808C287.452 150.858 287.534 150.926 287.599 151.007C287.665 151.089 287.713 151.184 287.742 151.284C287.77 151.385 287.778 151.491 287.764 151.595C287.741 151.787 287.649 151.964 287.505 152.093C287.361 152.222 287.176 152.294 286.982 152.297Z" fill="#7780A1"/>
<path d="M244.341 147.463H244.245L216.701 144.273C216.596 144.261 216.494 144.229 216.402 144.179C216.309 144.128 216.228 144.059 216.162 143.977C216.096 143.895 216.047 143.801 216.018 143.699C215.988 143.598 215.979 143.492 215.99 143.387C216.002 143.283 216.034 143.181 216.085 143.089C216.135 142.997 216.204 142.915 216.286 142.849C216.368 142.783 216.463 142.734 216.564 142.705C216.665 142.675 216.771 142.666 216.876 142.678L244.437 145.788C244.647 145.816 244.838 145.925 244.97 146.092C245.101 146.259 245.162 146.471 245.139 146.682C245.131 146.889 245.044 147.086 244.895 147.231C244.747 147.376 244.549 147.459 244.341 147.463Z" fill="#7780A1"/>
<path d="M283.28 168.233H283.184L265.071 166.111C264.861 166.084 264.669 165.975 264.538 165.808C264.407 165.641 264.346 165.429 264.369 165.218C264.401 165.009 264.511 164.821 264.677 164.69C264.843 164.56 265.052 164.498 265.263 164.516L283.36 166.574C283.571 166.585 283.77 166.679 283.912 166.836C284.054 166.993 284.128 167.2 284.118 167.412C284.107 167.623 284.013 167.822 283.856 167.964C283.699 168.106 283.492 168.18 283.28 168.169V168.233Z" fill="#7780A1"/>
<path d="M245.841 163.99H245.745L212.982 160.273C212.773 160.249 212.582 160.143 212.45 159.979C212.319 159.814 212.258 159.605 212.28 159.396C212.308 159.185 212.417 158.994 212.584 158.863C212.751 158.732 212.963 158.671 213.174 158.694L245.921 162.41C246.132 162.41 246.335 162.495 246.485 162.644C246.635 162.794 246.719 162.997 246.719 163.208C246.719 163.42 246.635 163.623 246.485 163.772C246.335 163.922 246.132 164.006 245.921 164.006L245.841 163.99Z" fill="#7780A1"/>
<path d="M279.434 185.876L263.364 184.058C263.154 184.034 262.963 183.928 262.832 183.764C262.7 183.599 262.639 183.39 262.661 183.18C262.671 183.076 262.702 182.975 262.752 182.882C262.802 182.79 262.87 182.709 262.951 182.643C263.033 182.578 263.128 182.53 263.229 182.501C263.329 182.473 263.435 182.465 263.539 182.478L279.609 184.297C279.821 184.31 280.019 184.406 280.16 184.564C280.3 184.723 280.372 184.931 280.36 185.142C280.347 185.354 280.251 185.552 280.092 185.692C279.933 185.833 279.725 185.905 279.514 185.892L279.434 185.876Z" fill="#7780A1"/>
<path d="M253.341 182.925H253.246L209.152 177.916C208.943 177.892 208.752 177.786 208.62 177.622C208.489 177.458 208.427 177.248 208.45 177.039C208.46 176.934 208.49 176.833 208.54 176.741C208.59 176.649 208.658 176.567 208.74 176.502C208.822 176.436 208.916 176.388 209.017 176.36C209.118 176.331 209.224 176.324 209.328 176.337L253.421 181.33C253.633 181.34 253.832 181.435 253.974 181.592C254.116 181.749 254.19 181.956 254.179 182.167C254.169 182.379 254.075 182.578 253.917 182.72C253.76 182.862 253.553 182.936 253.341 182.925Z" fill="#7780A1"/>
<path d="M275.38 200.154H275.285L256.134 197.984C255.925 197.96 255.734 197.854 255.602 197.69C255.471 197.526 255.41 197.316 255.432 197.107C255.442 197.002 255.473 196.901 255.523 196.809C255.572 196.716 255.64 196.635 255.722 196.57C255.804 196.504 255.898 196.456 255.999 196.428C256.1 196.399 256.206 196.391 256.31 196.405L275.46 198.574C275.672 198.587 275.87 198.683 276.01 198.842C276.151 199 276.223 199.208 276.21 199.42C276.198 199.631 276.101 199.829 275.943 199.97C275.784 200.11 275.576 200.182 275.364 200.169L275.38 200.154Z" fill="#7780A1"/>
<path d="M247.565 197.011L205.178 192.225C204.967 192.202 204.773 192.096 204.64 191.93C204.507 191.764 204.445 191.551 204.468 191.34C204.492 191.128 204.598 190.935 204.764 190.802C204.93 190.668 205.142 190.607 205.354 190.63L247.74 195.416C247.952 195.428 248.15 195.525 248.29 195.683C248.431 195.842 248.503 196.05 248.49 196.261C248.477 196.473 248.381 196.671 248.223 196.811C248.064 196.952 247.856 197.024 247.644 197.011H247.565Z" fill="#7780A1"/>
<path d="M27.1545 93.3433L63.7888 172.054C66.8226 178.572 74.5681 181.398 81.0889 178.365L201.922 122.17C208.443 119.138 211.27 111.396 208.236 104.877L171.602 26.1668C168.568 19.6486 160.822 16.8229 154.302 19.8555L33.4683 76.0502C26.9475 79.0827 24.1207 86.8251 27.1545 93.3433Z" fill="white"/>
<path d="M75.6264 180.468C72.9925 180.472 70.4126 179.723 68.1903 178.31C65.968 176.897 64.196 174.878 63.0829 172.492L26.378 93.7839C24.8344 90.4625 24.6734 86.6644 25.9302 83.2244C27.1871 79.7844 29.759 76.984 33.0806 75.4388L153.919 19.239C157.242 17.696 161.042 17.535 164.483 18.7914C167.924 20.0477 170.726 22.6186 172.272 25.9389L208.897 104.647C209.664 106.291 210.099 108.069 210.178 109.881C210.257 111.692 209.978 113.502 209.357 115.205C208.736 116.909 207.785 118.474 206.559 119.81C205.333 121.146 203.855 122.228 202.21 122.992L81.3715 179.192C79.5713 180.028 77.6112 180.463 75.6264 180.468ZM159.792 19.4464C158.017 19.4475 156.264 19.834 154.654 20.579L33.8147 76.7788C30.8789 78.147 28.6064 80.6241 27.4963 83.6659C26.3862 86.7078 26.5292 90.0657 27.8941 93.0022L64.5989 171.727C65.9709 174.662 68.4519 176.934 71.4976 178.044C74.5433 179.153 77.9048 179.01 80.8448 177.645L201.62 121.445C204.556 120.077 206.828 117.6 207.938 114.558C209.048 111.516 208.905 108.158 207.54 105.222L170.836 26.4973C169.853 24.3966 168.292 22.6186 166.337 21.3702C164.382 20.1219 162.112 19.4547 159.792 19.4464Z" fill="#08111F"/>
<path d="M132.842 57.5343L142.084 77.3927C144.278 82.1057 149.878 84.1487 154.593 81.9561L168.657 75.4154C173.372 73.2227 175.416 67.6246 173.222 62.9117L163.979 43.0533C161.786 38.3404 156.186 36.2973 151.471 38.49L137.407 45.0307C132.692 47.2233 130.648 52.8214 132.842 57.5343Z" fill="#B476E5"/>
<path d="M46.2753 87.4067C43.3745 88.7557 42.1169 92.2 43.4665 95.0996C44.8161 97.9992 48.2617 99.2562 51.1625 97.9072L78.2346 85.3171C81.1354 83.968 82.3929 80.5238 81.0433 77.6241C79.6937 74.7245 76.2481 73.4675 73.3473 74.8165L46.2753 87.4067Z" fill="#7780A1"/>
<path d="M163.182 108.469L165.773 114.038C166.454 115.5 168.191 116.133 169.653 115.453L190.026 105.979C191.488 105.299 192.122 103.562 191.442 102.1L188.85 96.532C188.17 95.0702 186.433 94.4365 184.97 95.1166L164.598 104.591C163.135 105.271 162.501 107.008 163.182 108.469Z" fill="#7780A1"/>
<path d="M132.086 122.946L134.678 128.515C135.358 129.977 137.095 130.61 138.558 129.93L158.931 120.456C160.393 119.776 161.027 118.039 160.347 116.577L157.755 111.009C157.074 109.547 155.337 108.913 153.875 109.594L133.502 119.068C132.04 119.748 131.406 121.485 132.086 122.946Z" fill="#7780A1"/>
<path d="M100.97 137.4L103.561 142.968C104.242 144.43 105.979 145.064 107.441 144.383L127.814 134.909C129.276 134.229 129.91 132.492 129.23 131.031L126.638 125.462C125.958 124 124.221 123.367 122.758 124.047L102.386 133.521C100.923 134.201 100.289 135.938 100.97 137.4Z" fill="#7780A1"/>
<path d="M69.8741 151.861L72.4658 157.429C73.1462 158.891 74.8833 159.525 76.3456 158.844L96.7184 149.37C98.1808 148.69 98.8148 146.953 98.1344 145.492L95.5427 139.923C94.8623 138.461 93.1252 137.828 91.6629 138.508L71.2901 147.982C69.8277 148.662 69.1937 150.399 69.8741 151.861Z" fill="#7780A1"/>
<path d="M296.781 79.9692C296.647 79.9705 296.515 79.9374 296.398 79.8732C296.281 79.8089 296.182 79.7157 296.111 79.6023L274.71 46.1026C274.609 45.9252 274.58 45.7157 274.628 45.5174C274.677 45.319 274.8 45.1469 274.972 45.0364C275.144 44.926 275.351 44.8857 275.552 44.9238C275.753 44.9618 275.931 45.0755 276.051 45.2412L297.451 78.7409C297.565 78.9187 297.604 79.1344 297.559 79.3407C297.514 79.547 297.389 79.7272 297.212 79.8416C297.086 79.9291 296.935 79.9739 296.781 79.9692Z" fill="white"/>
<path d="M232.069 70.2384C231.921 70.2384 231.776 70.1983 231.65 70.1224C231.524 70.0466 231.42 69.9378 231.351 69.8077L220.419 48.7028C220.369 48.611 220.339 48.5101 220.329 48.4062C220.319 48.3022 220.33 48.1974 220.361 48.0977C220.392 47.9981 220.443 47.9057 220.511 47.8261C220.578 47.7465 220.661 47.6812 220.754 47.634C220.847 47.5841 220.949 47.5531 221.054 47.543C221.16 47.5328 221.266 47.5436 221.367 47.5748C221.468 47.606 221.561 47.6569 221.643 47.7245C221.724 47.7922 221.791 47.8753 221.839 47.969L232.771 69.0739C232.868 69.2627 232.887 69.4817 232.824 69.6843C232.761 69.8869 232.622 70.0571 232.436 70.1586C232.319 70.2063 232.195 70.2333 232.069 70.2384Z" fill="white"/>
<path d="M53.7948 193.916L47.1082 201.589C42.8472 206.917 29.2983 203.185 16.8825 193.214C4.46671 183.244 -2.17208 170.897 2.13675 165.553L8.83937 157.88L53.7948 193.916Z" fill="white"/>
<path d="M40.7886 204.827C34.4051 204.827 25.197 200.887 16.3719 193.836C10.7707 189.517 6.0656 184.147 2.51978 178.028C-0.432563 172.492 -0.799605 167.898 1.46652 165.058L8.1851 157.354C8.32079 157.199 8.51118 157.102 8.71642 157.084C8.92166 157.066 9.12585 157.129 9.28625 157.258L54.2896 193.23C54.376 193.294 54.4477 193.375 54.5 193.468C54.5524 193.562 54.584 193.666 54.5928 193.773C54.6103 193.992 54.5416 194.209 54.4013 194.379L47.6987 202.052C46.8359 203.012 45.7643 203.761 44.5664 204.242C43.3684 204.724 42.076 204.924 40.7886 204.827ZM8.87133 158.981L2.69533 166.111C0.892005 168.361 1.33885 172.492 3.92415 177.278C7.36604 183.216 11.9362 188.423 17.3773 192.608C29.2345 202.179 42.56 205.992 46.4858 201.111L52.6459 194.028L8.87133 158.981Z" fill="#08111F"/>
<path d="M53.7894 193.903C58.0538 188.58 51.4333 176.198 39.0021 166.246C26.571 156.295 13.0366 152.542 8.7722 157.865C4.50785 163.187 11.1284 175.569 23.5595 185.521C35.9907 195.473 49.5251 199.225 53.7894 193.903Z" fill="white"/>
<path d="M47.4753 197.139C41.0918 197.139 31.8677 193.198 23.0745 186.164C17.4645 181.849 12.7533 176.478 9.20645 170.355C6.2541 164.819 5.88705 160.225 8.16913 157.386C10.4353 154.546 15.0154 153.892 21.0477 155.567C27.8003 157.686 34.0728 161.106 39.5119 165.633C52.4863 176.018 59.0293 188.652 54.4173 194.347C53.5504 195.311 52.4739 196.065 51.2705 196.549C50.0671 197.032 48.7688 197.234 47.4753 197.139ZM15.0952 156.269C14.0507 156.17 12.9975 156.308 12.0138 156.673C11.0302 157.037 10.1415 157.619 9.41391 158.375C7.57866 160.656 8.02551 164.756 10.6268 169.541C14.064 175.478 18.6286 180.685 24.0639 184.871C35.9212 194.443 49.2626 198.255 53.1725 193.374C57.0823 188.493 50.3797 176.321 38.5065 166.829C33.2399 162.436 27.1618 159.119 20.6169 157.067C18.8213 156.551 16.9635 156.282 15.0952 156.269Z" fill="#08111F"/>
<path d="M20.8243 162.251L23.7448 165.027H24.0799C25.0215 165.202 25.9152 165.33 26.8727 165.569C29.3888 166.242 31.766 167.354 33.8945 168.855C35.2253 169.758 36.4324 170.83 37.4852 172.046C38.1468 172.704 38.5873 173.551 38.7459 174.47C38.7785 174.796 38.7102 175.123 38.5504 175.409C38.3905 175.694 38.1468 175.923 37.8522 176.066C37.3894 176.385 36.8787 176.672 36.3681 176.991L41.8578 182.207C42.7994 181.537 42.3845 180.405 41.0918 179.017L44.4591 178.442C45.4833 179.331 46.319 180.416 46.9167 181.633C47.1705 182.09 47.2803 182.614 47.2319 183.134C47.1835 183.655 46.9791 184.149 46.6454 184.552C46.3103 184.919 45.8475 185.238 45.4326 185.605L47.4274 187.503L44.2357 188.508L42.193 186.578C41.2035 186.578 40.2779 186.578 39.2566 186.578C37.2878 186.39 35.3688 185.85 33.5913 184.983C31.1798 183.918 29.0085 182.377 27.2078 180.452C25.3726 178.442 24.9736 176.863 26.1066 175.794C26.8634 175.144 27.7423 174.65 28.692 174.343L29.075 174.199L23.5054 168.935H23.3458C23.2196 169.275 23.1339 169.628 23.0905 169.988C23.2718 170.708 23.6802 171.352 24.2555 171.822L19.037 172.141C18.6221 171.695 18.2071 171.264 17.8401 170.833C16.4996 169.238 15.9889 167.914 16.4038 166.877C16.6769 166.376 17.0712 165.952 17.5507 165.642C18.0302 165.333 18.5796 165.149 19.1487 165.106C19.3242 165.106 19.3242 165.011 19.1487 164.835C18.1433 163.91 17.1539 162.969 16.1644 162.028L20.8243 162.251ZM33.4317 178.363C32.937 178.761 32.2986 179.065 32.4263 179.814C32.5539 180.564 34.2934 182.127 35.9053 182.67C36.698 182.953 37.5375 183.083 38.3788 183.053L33.4317 178.363ZM32.155 173.019C32.5859 172.779 33.0167 172.588 33.0806 172.157C33.1923 171.36 31.4847 169.844 29.7293 169.206C28.9792 168.919 28.2611 168.759 27.4312 168.52L32.155 173.019Z" fill="#7780A1"/>
<path d="M105.676 274.858L109.586 284.254C112.459 290.443 103.091 300.892 88.6644 307.624C74.2378 314.356 60.1942 314.771 57.3057 308.597L53.3959 299.185L105.676 274.858Z" fill="white"/>
<path d="M67.7747 313.781C62.2051 313.781 58.0878 312.186 56.6036 308.996L52.6778 299.568C52.6004 299.377 52.5986 299.163 52.6727 298.971C52.7467 298.778 52.8912 298.621 53.0768 298.531L105.357 274.204C105.455 274.16 105.561 274.138 105.668 274.138C105.776 274.138 105.882 274.16 105.98 274.204C106.08 274.245 106.171 274.305 106.248 274.382C106.325 274.459 106.386 274.55 106.426 274.65L110.336 284.046C113.432 290.698 104.081 301.418 89.0156 308.437C82.3859 311.681 75.1505 313.501 67.7747 313.781ZM54.4332 299.584L58.0399 308.278C60.6731 313.925 74.5411 313.303 88.3613 306.89C102.181 300.477 111.533 290.268 108.884 284.557L105.293 275.895L54.4332 299.584Z" fill="#08111F"/>
<path d="M84.7414 298.224C99.1792 291.504 108.549 281.045 105.669 274.863C102.789 268.681 88.7505 269.118 74.3128 275.839C59.8751 282.559 50.5056 293.018 53.3853 299.2C56.2651 305.382 70.3037 304.945 84.7414 298.224Z" fill="white"/>
<path d="M63.8169 304.354C58.0717 304.354 54.13 302.663 52.6458 299.568C49.4541 292.9 58.8856 282.164 73.9506 275.161C89.0155 268.158 103.251 267.887 106.363 274.571C109.474 281.255 100.123 291.975 85.0578 298.994C78.6956 302.095 71.7897 303.926 64.7265 304.386L63.8169 304.354ZM95.3032 271.396C88.1314 271.691 81.0991 273.473 74.6528 276.629C60.8805 283.01 51.4808 293.251 54.114 298.962C55.3588 301.61 59.2527 303.014 64.7105 302.854C71.5602 302.409 78.2562 300.626 84.4194 297.606C98.1917 291.225 107.591 280.984 104.942 275.273C103.729 272.593 100.155 271.396 95.3032 271.396Z" fill="#08111F"/>
<path d="M62.6519 290.348L66.4341 288.96L66.6415 288.689C67.216 287.923 67.7108 287.093 68.3651 286.423C70.0904 284.485 72.143 282.865 74.4293 281.638C75.8346 280.85 77.3368 280.249 78.8978 279.851C79.7846 279.563 80.7398 279.563 81.6267 279.851C81.9181 279.971 82.1676 280.174 82.3437 280.435C82.5197 280.696 82.6145 281.004 82.6161 281.319C82.6161 281.877 82.7278 282.467 82.7757 283.057L89.8933 280.457C89.7018 279.309 88.5208 279.181 86.7015 279.723L87.675 276.533C88.9458 276.013 90.3077 275.753 91.6806 275.767C92.2099 275.742 92.7339 275.882 93.1799 276.168C93.626 276.454 93.9721 276.871 94.1702 277.362C94.3427 277.885 94.4813 278.418 94.5851 278.958L97.1704 278.016L96.6597 281.319L94.0265 282.308C93.5797 283.185 93.1967 284.03 92.686 284.924C91.6612 286.607 90.3423 288.093 88.7921 289.311C86.7796 291.002 84.4373 292.257 81.9139 292.996C79.2967 293.761 77.7168 293.41 77.254 291.927C77.0055 290.963 76.9512 289.96 77.0944 288.976C77.0944 288.832 77.0944 288.689 77.0944 288.561L69.913 291.225L69.7854 291.337C70.0287 291.603 70.308 291.834 70.6152 292.023C71.3384 292.187 72.0957 292.109 72.7696 291.799L70.7429 296.585C70.1524 296.76 69.5939 296.936 69.0513 297.063C67.0245 297.574 65.6042 297.446 64.8542 296.601C64.5346 296.141 64.3338 295.608 64.2698 295.052C64.2057 294.495 64.2804 293.931 64.4871 293.41C64.4871 293.251 64.4871 293.219 64.2318 293.315L60.3857 294.734L62.6519 290.348ZM82.6959 286.2C82.8395 286.822 82.8236 287.524 83.5417 287.795C84.3184 287.786 85.0849 287.617 85.7933 287.299C86.5017 286.981 87.1369 286.52 87.659 285.945C88.2644 285.356 88.7518 284.658 89.0953 283.887L82.6959 286.2ZM77.3338 284.972C77.3338 284.493 77.3338 283.999 76.9668 283.759C76.3125 283.313 74.2059 284.158 72.8335 285.45C72.259 285.993 71.7962 286.567 71.2376 287.205L77.3338 284.972Z" fill="#7780A1"/>
<path d="M67.4555 216.154C61.7743 225.613 68.1418 246.575 68.1418 246.575L76.5519 252.7C79.5499 254.503 82.8736 255.698 86.3335 256.216C89.7933 256.735 93.3215 256.567 96.7165 255.723C100.112 254.879 103.307 253.374 106.12 251.295C108.934 249.217 111.31 246.604 113.113 243.608C114.917 240.611 116.112 237.288 116.631 233.83C117.149 230.371 116.982 226.845 116.137 223.451C115.292 220.057 113.787 216.863 111.708 214.051C109.628 211.239 107.015 208.864 104.017 207.061L94.6969 202.483C94.6969 202.483 73.1368 206.71 67.4555 216.154Z" fill="white"/>
<path d="M90.2285 257.311C85.2675 257.302 80.4023 255.945 76.1529 253.386L67.663 247.229C67.5257 247.124 67.4251 246.979 67.3757 246.814C67.1044 245.937 60.9923 225.39 66.7693 215.739C72.5782 206.168 93.6117 201.876 94.5054 201.701C94.667 201.654 94.8385 201.654 95.0001 201.701L104.352 206.279C109.5 209.366 113.494 214.055 115.722 219.628C117.949 225.201 118.288 231.35 116.685 237.133C115.083 242.917 111.627 248.015 106.849 251.648C102.07 255.281 96.232 257.248 90.2285 257.247V257.311ZM68.8279 246.144L77.0307 252.094C82.9034 255.601 89.9276 256.637 96.5631 254.974C103.198 253.311 108.903 249.086 112.427 243.225C115.95 237.355 117 230.328 115.345 223.685C113.69 217.043 109.467 211.328 103.602 207.795L94.5533 203.376C92.1116 203.886 73.2485 208.162 68.1417 216.616C63.035 225.135 68.1417 243.703 68.8279 246.096V246.144Z" fill="#08111F"/>
<path d="M84.4833 253.019C99.1934 253.019 111.118 241.099 111.118 226.395C111.118 211.691 99.1934 199.771 84.4833 199.771C69.7733 199.771 57.8484 211.691 57.8484 226.395C57.8484 241.099 69.7733 253.019 84.4833 253.019Z" fill="white"/>
<path d="M84.4355 253.849C80.2112 253.838 76.0465 252.852 72.2661 250.967C68.4857 249.083 65.1918 246.351 62.641 242.985C60.0902 239.619 58.3515 235.71 57.5604 231.562C56.7693 227.414 56.9472 223.14 58.0803 219.072C59.2133 215.004 61.2709 211.253 64.0926 208.11C66.9143 204.968 70.4239 202.519 74.3478 200.955C78.2717 199.391 82.5039 198.754 86.7145 199.094C90.9252 199.434 95.0005 200.741 98.6227 202.913C103.772 206.002 107.766 210.695 109.99 216.271C112.214 221.847 112.546 227.999 110.936 233.782C109.325 239.565 105.86 244.66 101.073 248.285C96.2859 251.91 90.441 253.865 84.4355 253.849ZM84.5312 200.6C78.2804 200.591 72.2381 202.847 67.5242 206.951C62.8103 211.054 59.7445 216.727 58.895 222.917C58.0455 229.108 59.4699 235.396 62.9043 240.617C66.3387 245.837 71.55 249.637 77.5725 251.31C83.5951 252.984 90.0203 252.418 95.6574 249.718C101.294 247.018 105.761 242.366 108.23 236.626C110.698 230.885 111.001 224.445 109.082 218.498C107.163 212.551 103.152 207.502 97.7929 204.285C93.7902 201.87 89.2068 200.585 84.5312 200.568V200.6Z" fill="#08111F"/>
<path d="M69.546 214.191L72.8654 216.201C73.0888 216.329 73.2005 216.313 73.3601 216.122C74.6631 214.674 76.3094 213.577 78.1477 212.931C80.0659 212.254 82.1652 212.3 84.0524 213.059C84.5631 213.266 85.0578 213.506 85.6483 213.745L82.5523 218.881C81.7732 218.424 80.8617 218.244 79.967 218.371C79.2795 218.55 78.6029 218.769 77.9402 219.025V219.153L84.3237 223.013L84.7865 222.535C85.8988 221.331 87.1465 220.261 88.5048 219.344C89.5053 218.624 90.6832 218.19 91.912 218.088C93.1408 217.987 94.3739 218.223 95.4788 218.77C97.6277 219.646 99.3468 221.33 100.266 223.46C101.024 225.191 101.214 227.118 100.809 228.963C100.57 230.112 100.187 231.244 99.8514 232.425L102.341 233.924L99.5003 238.71L96.947 237.115C96.1012 237.912 95.3511 238.71 94.5372 239.412C92.9519 240.801 90.9451 241.616 88.84 241.725C87.0294 241.769 85.2465 241.275 83.7173 240.305L86.7494 235.248C87.6487 235.744 88.686 235.929 89.7013 235.776C90.7165 235.623 91.6532 235.141 92.3668 234.403L85.4887 230.287C84.6429 231.069 83.797 231.883 82.9353 232.648C81.9254 233.618 80.6922 234.325 79.3446 234.706C77.9606 235.052 76.5028 234.951 75.1794 234.419C73.529 233.844 72.0705 232.822 70.9663 231.468C70.1748 230.487 69.6087 229.344 69.3081 228.12C69.0075 226.896 68.9798 225.621 69.2268 224.385C69.4183 223.38 69.8173 222.407 70.1045 221.434C70.1045 221.322 70.1045 221.21 70.2322 221.083L66.7852 219.009L69.546 214.191ZM95.2075 229.601C95.5766 228.765 95.6984 227.841 95.5586 226.937C95.4156 226.169 94.9954 225.479 94.3776 225C93.7599 224.521 92.9875 224.285 92.2073 224.337C91.103 224.641 90.1037 225.242 89.3187 226.076L95.2075 229.601ZM74.5411 223.651C74.4275 224.433 74.3742 225.222 74.3815 226.012C74.4169 226.44 74.5452 226.854 74.7573 227.227C74.9694 227.6 75.2603 227.922 75.6097 228.171C75.9591 228.42 76.3586 228.59 76.7804 228.669C77.2022 228.748 77.6361 228.734 78.0519 228.628C78.8922 228.261 79.6433 227.717 80.2542 227.033L74.5411 223.651Z" fill="#7780A1"/>
</svg>
