<svg width="26" height="24" viewBox="0 0 26 24" fill="none" xmlns="http://www.w3.org/2000/svg">
<g clip-path="url(#clip0_310_959)">
<path d="M16.7679 24.0206H16.8702C16.8702 23.9567 16.8702 23.8885 16.8702 23.8203C16.8361 23.8885 16.8062 23.9567 16.7722 24.0206" fill="#2E9CDA"/>
<path d="M0 7.15039C-1.40034e-06 16.4244 7.48585 23.9598 16.7597 24.0206C11.2753 21.089 7.84976 15.3767 7.8469 9.15798V9.08551C5.42742 7.81229 2.73405 7.14804 0 7.15039Z" fill="#47BDFF"/>
<path opacity="0.4" d="M9.83732 1.1875C8.53531 3.61676 7.85167 6.32931 7.84686 9.08555C13.3314 11.9677 16.7942 17.6249 16.8659 23.8203C21.1087 15.6236 17.9769 5.53888 9.83732 1.1875Z" fill="#47BDFF"/>
<path d="M7.84686 9.08557V9.158V9.15616C7.84901 15.3748 11.2737 21.0875 16.7577 24.0198C16.7918 23.9558 16.8216 23.8876 16.8557 23.8194C16.7857 17.6266 13.3272 11.9703 7.84686 9.08557Z" fill="#2E9CDA"/>
<path opacity="0.4" d="M23.7836 10.0957C22.5595 10.0957 21.5672 11.088 21.5672 12.3121C21.5672 13.5361 22.5595 14.5285 23.7836 14.5285C25.0077 14.5285 26 13.5361 26 12.3121C26.0024 11.0903 25.0139 10.0981 23.7921 10.0957C23.7893 10.0957 23.7864 10.0957 23.7836 10.0957Z" fill="#47BDFF"/>
</g>
<defs>
<clipPath id="clip0_310_959">
<rect width="26" height="24" fill="white"/>
</clipPath>
</defs>
</svg>
