<svg width="26" height="24" viewBox="0 0 26 24" fill="none"
                                                xmlns="http://www.w3.org/2000/svg">
                                                <g clip-path="url(#clip0_293_1043)">
                                                    <path opacity="0.3"
                                                        d="M0.195211 0L0 24.1813H0.21104C5.16519 24.1813 9.65505 22.8714 12.9314 20.7356C9.64448 18.5234 7.62382 15.4855 7.65548 12.1467C7.68713 8.80805 9.76585 5.80067 13.0739 3.63944C9.78693 1.42723 5.23905 0.0356807 0.200488 0"
                                                        fill="#B476E5" />
                                                    <path opacity="0.6"
                                                        d="M18.3499 12.2282C18.3499 15.5669 16.2395 18.5743 12.9315 20.7355C16.2184 22.9477 20.7663 24.3393 25.8048 24.3749L26 0.193574C20.9615 0.157893 16.3872 1.48318 13.0687 3.63931C16.3556 5.85152 18.3763 8.88946 18.3499 12.2282Z"
                                                        fill="#B476E5" />
                                                    <path
                                                        d="M18.3498 12.2283C18.3498 8.88955 16.3555 5.85161 13.0739 3.6394C9.75527 5.80064 7.68181 8.80802 7.65547 12.1467C7.62907 15.4854 9.64973 18.5234 12.9314 20.7356C16.2553 18.5744 18.3234 15.567 18.3498 12.2283Z"
                                                        fill="#B476E5" />
                                                </g>
                                                <defs>
                                                    <clipPath id="clip0_293_1043">
                                                        <rect width="26" height="24" fill="white" />
                                                    </clipPath>
                                                </defs>
                                            </svg>
