<svg width="26" height="24" viewBox="0 0 26 24" fill="none" xmlns="http://www.w3.org/2000/svg">
<g clip-path="url(#clip0_310_968)">
<path d="M21.2763 9.4346L23.635 1.03777C23.6737 0.898468 23.6748 0.751415 23.6381 0.611558C23.6015 0.471707 23.5286 0.34403 23.4267 0.241515C23.3247 0.139 23.1975 0.0652945 23.0578 0.0278903C22.9181 -0.0095202 22.7711 -0.0092881 22.6316 0.0285424L0.595751 6.2166C0.440386 6.25966 0.30135 6.34799 0.196296 6.47029C0.0912419 6.59265 0.0249272 6.74341 0.00576439 6.9035C-0.0133985 7.0636 0.0154618 7.22577 0.0886843 7.36938C0.161901 7.51305 0.276169 7.63165 0.416973 7.71026L10.1517 13.1889C10.2811 13.2635 10.3886 13.3709 10.4631 13.5004L15.936 23.2466C16.0146 23.3874 16.1332 23.5017 16.2769 23.5749C16.4205 23.6481 16.5827 23.677 16.7428 23.6579C16.9029 23.6387 17.0536 23.5724 17.176 23.4673C17.2983 23.3622 17.3866 23.2232 17.4297 23.0679L20.0191 13.9098L21.2763 9.4346Z" fill="#B476E5"/>
<path opacity="0.5" d="M25.3649 9.72875L20.8378 11.0263L19.0731 17.2778L21.7893 22.1106C21.8376 22.1978 21.9108 22.2687 21.9995 22.3142C22.0882 22.3597 22.1885 22.3777 22.2875 22.3659C22.3865 22.3542 22.4798 22.3132 22.5554 22.2482C22.631 22.1832 22.6855 22.0972 22.7121 22.001L25.982 10.3458C26.0055 10.2603 26.006 10.1701 25.9834 10.0844C25.9607 9.99861 25.9158 9.92037 25.853 9.85769C25.7903 9.79494 25.7121 9.75 25.6264 9.7273C25.5406 9.70468 25.4504 9.70518 25.3649 9.72875Z" fill="#B476E5"/>
<path d="M13.7097 12.9988C13.6192 13.0305 13.5395 13.0873 13.4799 13.1624C13.4203 13.2376 13.3832 13.3281 13.3729 13.4234C13.3627 13.5189 13.3797 13.6151 13.4219 13.7013C13.4642 13.7874 13.53 13.8597 13.6117 13.91L18.7328 16.7935C18.8124 16.8385 18.8781 16.9042 18.9231 16.9838L19.0846 17.2722L20.8377 11.0265L13.7097 12.9988Z" fill="#6A408A"/>
<path d="M23.2026 0.466797L10.5555 13.16" stroke="#6A408A" stroke-linecap="round" stroke-linejoin="round"/>
</g>
<defs>
<clipPath id="clip0_310_968">
<rect width="26" height="24" fill="white"/>
</clipPath>
</defs>
</svg>
