<svg width="162" height="58" viewBox="0 0 162 58" fill="none" xmlns="http://www.w3.org/2000/svg">
<rect x="1.08765" y="1" width="159.682" height="56" fill="#08111F"/>
<path d="M58.7129 17.8203C58.7129 18.7406 58.4437 19.4735 57.9046 20.0202C57.2923 20.6703 56.4942 20.9955 55.5131 20.9955C54.5736 20.9955 53.7748 20.666 53.1179 20.006C52.4598 19.3465 52.1313 18.5287 52.1313 17.5529C52.1313 16.5767 52.4598 15.7594 53.1179 15.0993C53.7748 14.4399 54.5736 14.1099 55.5131 14.1099C55.9793 14.1099 56.4257 14.2022 56.8494 14.3863C57.2732 14.5708 57.6131 14.8158 57.8674 15.1225L57.2952 15.7022C56.8643 15.1809 56.2709 14.9204 55.5131 14.9204C54.8279 14.9204 54.2354 15.1642 53.7354 15.6521C53.2353 16.1404 52.9853 16.7737 52.9853 17.5529C52.9853 18.3322 53.2353 18.9654 53.7354 19.4538C54.2354 19.9417 54.8279 20.1854 55.5131 20.1854C56.24 20.1854 56.846 19.9404 57.3312 19.4495C57.6462 19.1298 57.8283 18.6853 57.877 18.1146H55.5131V17.3229H58.6675C58.6979 17.4951 58.7128 17.6602 58.7128 17.8203" fill="white"/>
<path d="M58.7129 17.8203H58.6044C58.6035 18.7196 58.3441 19.4181 57.8279 19.9425L57.8267 19.9434L57.8262 19.9443C57.2334 20.5719 56.4713 20.8843 55.5131 20.8857C54.5986 20.8843 53.8332 20.5685 53.1941 19.9283C52.5564 19.2869 52.241 18.5037 52.2398 17.5529C52.241 16.6016 52.5564 15.819 53.1941 15.1779C53.8332 14.5373 54.5986 14.221 55.5131 14.2197C55.9653 14.2197 56.3959 14.309 56.8065 14.4871C57.2176 14.6665 57.5423 14.9016 57.7842 15.1934L57.8673 15.1225L57.7906 15.0449L57.2185 15.6249L57.2951 15.7022L57.3787 15.6319C56.9277 15.0848 56.2947 14.8089 55.5131 14.8106C54.8025 14.8097 54.1774 15.0668 53.6603 15.5732C53.1382 16.0812 52.8759 16.7501 52.8768 17.5529C52.8759 18.3558 53.1382 19.0247 53.6603 19.5327C54.1774 20.0391 54.8025 20.2961 55.5131 20.2952C56.264 20.2966 56.904 20.0386 57.4079 19.5272C57.7444 19.1855 57.9352 18.7124 57.9852 18.124L57.9953 18.0047H55.6216V17.4327H58.6675V17.3229L58.5606 17.3422C58.5903 17.5088 58.6044 17.667 58.6044 17.8203H58.8213C58.8213 17.6533 58.806 17.4817 58.7742 17.3033L58.7582 17.2131H55.4047V18.2244H57.877V18.1146L57.769 18.1051C57.7211 18.6579 57.5473 19.0741 57.2545 19.3719C56.7884 19.8421 56.2162 20.0742 55.5131 20.0756C54.8533 20.0747 54.2935 19.8447 53.8108 19.3748C53.3328 18.9067 53.095 18.309 53.0938 17.5529C53.095 16.7968 53.3328 16.1991 53.8108 15.731C54.2935 15.2612 54.8533 15.0311 55.5131 15.0303C56.2468 15.032 56.8007 15.2774 57.2122 15.773L57.2885 15.8649L57.9441 15.2002L58.0144 15.129L57.9504 15.0521C57.6838 14.7304 57.3287 14.475 56.8922 14.2854C56.4548 14.0953 55.9933 14 55.5131 14C54.5486 13.9992 53.7163 14.3424 53.0412 15.0217C52.3636 15.6997 52.022 16.5519 52.0229 17.5529C52.022 18.5535 52.3636 19.4062 53.0416 20.0845C53.7163 20.7634 54.5486 21.1063 55.5131 21.1054C56.5176 21.1063 57.3508 20.7685 57.9831 20.0961L57.9046 20.0202L57.9813 20.0979C58.5433 19.5293 58.822 18.7612 58.8213 17.8203H58.7129ZM63.7135 15.0672H60.7491V17.1569H63.4225V17.9489H60.7491V20.0386H63.7135V20.8483H59.9134V14.2575H63.7135V15.0672Z" fill="white"/>
<path d="M63.7135 15.0674V14.9575H60.6406V17.2669H63.3139V17.8389L60.6406 17.8392V20.1486H63.605V20.7386H60.0219V14.3675H63.605V15.0674H63.7135H63.822V14.1478H59.8049V20.9583H63.822V19.9289H60.8576V18.0589H63.5309V17.0472H60.8576V15.1772H63.822V15.0674H63.7135ZM67.2407 20.8485H66.4038V15.0673H64.5857V14.2576H69.0589V15.0673H67.2407V20.8484" fill="white"/>
<path d="M67.2407 20.8485V20.7386H66.5122V14.9575H64.6942V14.3676H68.9503V14.9575H67.1323V20.8485H67.2407H67.3492V15.1772H69.1673V14.1478H64.4772V15.1771H66.2952V20.9583H67.3492V20.8484H67.2407M72.2953 20.8485V14.2576H73.1315V20.8484H72.2953" fill="white"/>
<path d="M72.2953 20.8485H72.4038V14.3675H73.0229V20.7386H72.2953V20.8485V20.9583H73.2399V14.1478H72.1868V20.9583H72.2953V20.8485M76.8417 20.8485H76.0047V15.0673H74.1867V14.2576H78.6598V15.0673H76.8417V20.8484" fill="white"/>
<path d="M76.8417 20.8484V20.7385H76.1132V14.9574H74.2953V14.3674H78.5513V14.9574H76.7333V20.8483H76.8417H76.9502V15.177H78.7683V14.1477H74.0783V15.177H75.8962V20.9581H76.9502V20.8483H76.8417M82.9724 19.4448C83.4541 19.9387 84.0437 20.1854 84.7409 20.1854C85.438 20.1854 86.0279 19.9387 86.5089 19.4448C86.9912 18.951 87.2328 18.3197 87.2328 17.5529C87.2328 16.7862 86.9912 16.1549 86.5089 15.661C86.0279 15.1672 85.438 14.9204 84.7409 14.9204C84.0437 14.9204 83.4541 15.1672 82.9724 15.661C82.4913 16.1549 82.2498 16.7862 82.2498 17.5529C82.2498 18.3197 82.4913 18.951 82.9724 19.4448ZM87.1276 19.9966C86.4877 20.6629 85.6918 20.9955 84.7409 20.9955C83.789 20.9955 82.9935 20.6629 82.3549 19.9966C81.7145 19.331 81.3958 18.5163 81.3958 17.5529C81.3958 16.5896 81.7145 15.7747 82.3549 15.1093C82.9935 14.4428 83.789 14.1099 84.7409 14.1099C85.6868 14.1099 86.4805 14.4446 87.1234 15.1136C87.7654 15.7825 88.0867 16.5956 88.0867 17.5529C88.0867 18.5163 87.7662 19.331 87.1276 19.9966Z" fill="white"/>
<path d="M82.9723 19.4448L82.8952 19.522C83.3949 20.0357 84.0183 20.2966 84.7408 20.2952C85.4629 20.2966 86.0872 20.0357 86.586 19.522C87.089 19.0079 87.342 18.3428 87.3412 17.5529C87.3419 16.763 87.089 16.0979 86.586 15.5838C86.0872 15.0701 85.4629 14.8093 84.7408 14.8106C84.0183 14.8093 83.3949 15.0701 82.8952 15.5838C82.3934 16.0979 82.14 16.763 82.1413 17.5529C82.14 18.3428 82.3934 19.0079 82.8952 19.522L82.9723 19.4448L83.0495 19.3676C82.5893 18.8934 82.3591 18.2969 82.3583 17.5529C82.3591 16.8089 82.5893 16.2125 83.0495 15.7382C83.5139 15.2642 84.0686 15.0316 84.7408 15.0303C85.4125 15.0316 85.9685 15.2642 86.4318 15.7382C86.8928 16.2125 87.123 16.8089 87.1238 17.5529C87.123 18.2969 86.8928 18.8934 86.4318 19.3676C85.9685 19.8417 85.4125 20.0742 84.7408 20.0755C84.0686 20.0742 83.5139 19.8417 83.0495 19.3676L82.9723 19.4448ZM87.1276 19.9966L87.0501 19.9202C86.428 20.5656 85.6672 20.8844 84.7408 20.8857C83.814 20.8843 83.0533 20.5656 82.4323 19.9202C81.8116 19.2727 81.5052 18.4918 81.5043 17.5529C81.5052 16.614 81.8116 15.8331 82.4323 15.1856C83.0533 14.5402 83.8139 14.221 84.7408 14.2197C85.6613 14.221 86.4202 14.5416 87.0458 15.1903C87.6688 15.8408 87.9769 16.6205 87.9782 17.5529C87.9769 18.4918 87.6696 19.2727 87.0501 19.9202L87.1276 19.9966L87.2056 20.0729C87.8633 19.389 88.1959 18.5407 88.1952 17.5529C88.196 16.5708 87.862 15.7242 87.2013 15.0372C86.5402 14.3476 85.7122 13.9988 84.7408 14C83.7644 13.9988 82.9338 14.3459 82.2769 15.0329V15.0324C81.6179 15.7168 81.2865 16.5652 81.2874 17.5529C81.2865 18.5407 81.6179 19.389 82.2769 20.0733L82.2798 20.0764L82.2769 20.0729C82.9338 20.7599 83.7644 21.1063 84.7408 21.1054C85.7168 21.1063 86.5474 20.7599 87.2056 20.0729L87.1276 19.9966ZM89.2605 20.8484V14.2575H90.2785L93.4421 19.3847H93.4781L93.4421 18.1145V14.2575H94.2791V20.8483H93.4061L90.0963 15.4726H90.0602L90.0963 16.7432V20.8483H89.2606" fill="white"/>
<path d="M89.2605 20.8485H89.3691V14.3675H90.2183L93.3819 19.4947H93.5896L93.5506 18.1131V14.3676H94.1706V20.7386H93.4663L90.1565 15.363H89.9488L89.9878 16.7452V20.7386H89.2606V20.8485V20.9583H90.2048V16.7417L90.1688 15.4698L90.0602 15.4728V15.5827H90.0963V15.4728L90.0043 15.5312L93.3459 20.9583H94.3876V14.1478H93.3337V18.116L93.3697 19.3878L93.4782 19.3849V19.275H93.4421V19.3849L93.5341 19.3266L90.3386 14.1478H89.1521V20.9583H89.2606V20.8485M123.284 39.5224H125.308V25.7903H123.284L123.284 39.5224ZM141.518 30.7369L139.197 36.6905H139.128L136.719 30.7369H134.539L138.15 39.0581L136.091 43.6868H138.204L143.769 30.7369L141.518 30.7369ZM130.037 37.9628C129.374 37.9628 128.449 37.6272 128.449 36.7965C128.449 35.7366 129.601 35.3303 130.595 35.3303C131.486 35.3303 131.904 35.5246 132.445 35.7899C132.288 37.0617 131.206 37.9628 130.037 37.9628ZM130.282 30.4365C128.816 30.4365 127.298 31.0904 126.67 32.5391L128.467 33.2985C128.851 32.5391 129.566 32.2914 130.316 32.2914C131.363 32.2914 132.428 32.9278 132.445 34.0585V34.1997C132.078 33.9876 131.294 33.6697 130.334 33.6697C128.397 33.6697 126.425 34.7471 126.425 36.7613C126.425 38.5987 128.013 39.7825 129.792 39.7825C131.154 39.7825 131.904 39.1641 132.375 38.4399H132.445V39.4997H134.399V34.2348C134.399 31.7972 132.602 30.4365 130.282 30.4365ZM117.77 32.4085H114.891V27.7015H117.77C119.284 27.7015 120.143 28.9703 120.143 30.055C120.143 31.1192 119.284 32.4085 117.77 32.4085ZM117.718 25.7903H112.868V39.5224H114.891V34.3198H117.718C119.962 34.3198 122.168 32.675 122.168 30.055C122.168 27.435 119.962 25.7903 117.718 25.7903ZM91.2672 37.9653C89.8687 37.9653 88.6977 36.7797 88.6977 35.1513C88.6977 33.5058 89.8687 32.3022 91.2672 32.3022C92.648 32.3022 93.7316 33.5058 93.7316 35.1513C93.7316 36.7797 92.6479 37.9653 91.2672 37.9653ZM93.5917 31.5059H93.5218C93.0675 30.9574 92.1932 30.4619 91.0922 30.4619C88.7851 30.4619 86.6704 32.5146 86.6704 35.1513C86.6704 37.7705 88.785 39.8057 91.0922 39.8057C92.1932 39.8057 93.0675 39.31 93.5218 38.7441H93.5917V39.4165C93.5917 41.2041 92.648 42.1597 91.1274 42.1597C89.8864 42.1597 89.1173 41.2568 88.8024 40.496L87.0374 41.2393C87.5442 42.478 88.8902 44.0001 91.1274 44.0001C93.5044 44.0001 95.5144 42.584 95.5144 39.1333V30.745H93.5917V31.5059ZM96.9125 39.5224H98.94V25.7898H96.9125V39.5224ZM101.929 34.9922C101.876 33.1869 103.31 32.267 104.341 32.267C105.145 32.267 105.827 32.6737 106.053 33.2583L101.929 34.9922ZM108.221 33.4349C107.837 32.3905 106.665 30.4619 104.271 30.4619C101.894 30.4619 99.9189 32.3554 99.9189 35.1337C99.9189 37.753 101.876 39.8057 104.498 39.8057C106.613 39.8057 107.837 38.496 108.344 37.7352L106.771 36.6732C106.247 37.4521 105.529 37.9653 104.498 37.9653C103.467 37.9653 102.733 37.4873 102.261 36.5497L108.43 33.9658L108.221 33.4349ZM59.0659 31.8954V33.8773H63.7499C63.6101 34.9922 63.243 35.8061 62.6837 36.3725C62.0022 37.0629 60.936 37.8237 59.0658 37.8237C56.1818 37.8237 53.9273 35.4701 53.9273 32.5501C53.9273 29.6302 56.1818 27.2763 59.0659 27.2763C60.6215 27.2763 61.7573 27.8958 62.5963 28.6922L63.9771 27.2943C62.8062 26.1614 61.2504 25.2943 59.0659 25.2943C55.1156 25.2943 51.7948 28.5506 51.7948 32.5501C51.7948 36.5497 55.1156 39.8057 59.0659 39.8057C61.1983 39.8057 62.8062 39.0981 64.0644 37.7705C65.3579 36.4609 65.7601 34.6206 65.7601 33.1342C65.7601 32.6737 65.7252 32.2494 65.6549 31.8954H59.0659ZM71.0854 37.9653C69.6869 37.9653 68.4808 36.7972 68.4808 35.1337C68.4808 33.4525 69.6869 32.3022 71.0854 32.3022C72.4834 32.3022 73.6895 33.4525 73.6895 35.1337C73.6895 36.7973 72.4834 37.9653 71.0854 37.9653ZM71.0854 30.4619C68.5333 30.4619 66.4533 32.4261 66.4533 35.1337C66.4533 37.8237 68.5333 39.8057 71.0854 39.8057C73.637 39.8057 75.717 37.8237 75.717 35.1337C75.717 32.4261 73.637 30.4619 71.0854 30.4619ZM81.1894 37.9653C79.7914 37.9653 78.5852 36.7972 78.5852 35.1337C78.5852 33.4525 79.7914 32.3022 81.1894 32.3022C82.5875 32.3022 83.7936 33.4525 83.7936 35.1337C83.7936 36.7973 82.5875 37.9653 81.1894 37.9653ZM81.1894 30.4619C78.6374 30.4619 76.5578 32.4261 76.5578 35.1337C76.5578 37.8237 78.6374 39.8057 81.1894 39.8057C83.7411 39.8057 85.8211 37.8237 85.8211 35.1337C85.8211 32.4261 83.7411 30.4619 81.1894 30.4619Z" fill="white"/>
<path d="M18.6691 14.9291C18.305 15.2617 18.0876 15.8164 18.0876 16.5528V16.3863V40.6857V40.5256C18.0876 41.2057 18.2741 41.7308 18.5897 42.0691L18.6703 42.1472V42.1475C18.9258 42.381 19.2535 42.5049 19.629 42.5045C19.9959 42.5045 20.4087 42.3861 20.8444 42.136L36.5921 33.0766L42.0013 29.9644C42.6883 29.5693 43.0739 29.0595 43.1384 28.5402V28.5381C43.0739 28.0177 42.6883 27.5083 42.0013 27.1131L36.5916 24.0013L20.8445 14.9419C20.4079 14.6914 19.9947 14.5725 19.6268 14.5725C19.2518 14.5725 18.9246 14.6961 18.6692 14.9291H18.6691Z" fill="#00C1FF"/>
<path d="M18.6704 42.1471L18.5897 42.069C18.2741 41.7308 18.0876 41.2056 18.0876 40.5256V40.6856V16.3923V16.5527C18.0876 15.8164 18.305 15.2616 18.6691 14.929L32.1109 28.5385L18.6704 42.1471Z" fill="url(#paint0_linear_344_6328)"/>
<path d="M36.5921 33.0767L32.1109 28.5387L36.5917 24.0014L42.0014 27.1132C42.6883 27.5084 43.074 28.0177 43.1384 28.5382V28.5403C43.074 29.0596 42.6883 29.5694 42.0014 29.9645L36.5922 33.0766" fill="url(#paint1_linear_344_6328)"/>
<path d="M19.629 42.5045C19.2535 42.5049 18.9259 42.3808 18.6704 42.1474V42.1471L32.1109 28.5385L36.5921 33.0765L20.8444 42.1359C20.4087 42.3861 19.9959 42.5045 19.629 42.5045Z" fill="url(#paint2_linear_344_6328)"/>
<path d="M32.1109 28.5385L18.669 14.929C18.9246 14.696 19.2518 14.5724 19.6268 14.5724C19.9947 14.5724 20.4078 14.6912 20.8444 14.9418L36.5917 24.0012L32.1108 28.5385" fill="url(#paint3_linear_344_6328)"/>
<path d="M19.6294 42.6654C19.254 42.6654 18.9259 42.5414 18.6704 42.308L18.6699 42.3084C18.6689 42.3073 18.6678 42.3063 18.6666 42.3054L18.5967 42.2363C18.5945 42.2341 18.5924 42.2316 18.5898 42.2291L18.6704 42.1475C18.9259 42.3809 19.2535 42.5049 19.6291 42.5045C19.996 42.5045 20.4088 42.3861 20.8445 42.1359L36.5921 33.0765L36.693 33.1787L36.5909 33.2375L20.8444 42.2964C20.4474 42.5243 20.0697 42.6431 19.7286 42.6629C19.6956 42.6645 19.6625 42.6654 19.6294 42.6654Z" fill="url(#paint4_linear_344_6328)"/>
<path d="M18.5897 42.2291C18.2741 41.891 18.0876 41.3662 18.0876 40.6857V40.5256C18.0876 41.2057 18.2741 41.7309 18.5897 42.0691L18.6703 42.1472L18.5897 42.2291Z" fill="url(#paint5_linear_344_6328)"/>
<path d="M36.693 33.1788L36.5921 33.0766L42.0013 29.9644C42.6883 29.5694 43.074 29.0595 43.1385 28.5403C43.1385 28.7308 43.0965 28.9214 43.0131 29.1068C42.8448 29.4805 42.5075 29.8336 42.0014 30.1249L36.693 33.1788" fill="url(#paint6_linear_344_6328)"/>
<path d="M43.1384 28.5381C43.074 28.0176 42.6883 27.5083 42.0013 27.113L36.5916 24.0013L36.6925 23.8991H36.693L42.0013 26.953C42.7587 27.389 43.138 27.9634 43.1384 28.5381Z" fill="url(#paint7_linear_344_6328)"/>
<path d="M18.0876 16.5529V16.385C18.0876 16.3245 18.0893 16.2653 18.0923 16.2078V16.2052C18.0923 16.2044 18.0923 16.2036 18.0926 16.2027V16.1962C18.1253 15.6105 18.305 15.1536 18.5897 14.8485L18.6691 14.9291C18.305 15.2617 18.0876 15.8165 18.0876 16.5529Z" fill="url(#paint8_linear_344_6328)"/>
<path d="M36.5917 24.0015L20.8444 14.942C20.4079 14.6914 19.9948 14.5726 19.6269 14.5726C19.2518 14.5726 18.9246 14.6962 18.6691 14.9292L18.5898 14.8485C18.6146 14.822 18.6403 14.7964 18.667 14.7718C18.6678 14.7709 18.6691 14.77 18.67 14.7691C18.9234 14.5379 19.2472 14.4143 19.6189 14.4121H19.6269C19.9948 14.4121 20.4079 14.531 20.8444 14.7816L36.693 23.8989L36.6926 23.8993L36.5917 24.0015Z" fill="url(#paint9_linear_344_6328)"/>
<rect x="1.08765" y="1" width="159.682" height="56" stroke="white" stroke-width="2"/>
<defs>
<linearGradient id="paint0_linear_344_6328" x1="26.6778" y1="16.1355" x2="14.9686" y2="27.7375" gradientUnits="userSpaceOnUse">
<stop stop-color="#00A0FF"/>
<stop offset="0.00657" stop-color="#00A1FF"/>
<stop offset="0.2601" stop-color="#00BEFF"/>
<stop offset="0.5122" stop-color="#00D2FF"/>
<stop offset="0.7604" stop-color="#00DFFF"/>
<stop offset="1" stop-color="#00E3FF"/>
</linearGradient>
<linearGradient id="paint1_linear_344_6328" x1="43.9754" y1="28.4602" x2="17.7239" y2="28.4602" gradientUnits="userSpaceOnUse">
<stop stop-color="#FFE000"/>
<stop offset="0.4087" stop-color="#FFBD00"/>
<stop offset="0.7754" stop-color="#FFA500"/>
<stop offset="1" stop-color="#FF9C00"/>
</linearGradient>
<linearGradient id="paint2_linear_344_6328" x1="34.213" y1="32.8531" x2="14.3724" y2="52.3684" gradientUnits="userSpaceOnUse">
<stop stop-color="#FF3A44"/>
<stop offset="1" stop-color="#C31162"/>
</linearGradient>
<linearGradient id="paint3_linear_344_6328" x1="15.2047" y1="12.9113" x2="24.0473" y2="21.6224" gradientUnits="userSpaceOnUse">
<stop stop-color="#32A071"/>
<stop offset="0.0685" stop-color="#2DA771"/>
<stop offset="0.4762" stop-color="#15CF74"/>
<stop offset="0.8009" stop-color="#06E775"/>
<stop offset="1" stop-color="#00F076"/>
</linearGradient>
<linearGradient id="paint4_linear_344_6328" x1="34.2032" y1="36.0009" x2="18.3127" y2="51.7461" gradientUnits="userSpaceOnUse">
<stop stop-color="#CC2E36"/>
<stop offset="1" stop-color="#9C0E4E"/>
</linearGradient>
<linearGradient id="paint5_linear_344_6328" x1="19.8783" y1="16.1356" x2="9.56265" y2="26.3569" gradientUnits="userSpaceOnUse">
<stop stop-color="#008DE0"/>
<stop offset="0.00657" stop-color="#008DE0"/>
<stop offset="0.2601" stop-color="#00A7E0"/>
<stop offset="0.5122" stop-color="#00B8E0"/>
<stop offset="0.7604" stop-color="#00C4E0"/>
<stop offset="1" stop-color="#00C7E0"/>
</linearGradient>
<linearGradient id="paint6_linear_344_6328" x1="43.9755" y1="28.5393" x2="17.7239" y2="28.5393" gradientUnits="userSpaceOnUse">
<stop stop-color="#E0C500"/>
<stop offset="0.4087" stop-color="#E0A600"/>
<stop offset="0.7754" stop-color="#E09100"/>
<stop offset="1" stop-color="#E08900"/>
</linearGradient>
<linearGradient id="paint7_linear_344_6328" x1="43.9754" y1="28.5392" x2="17.724" y2="28.5392" gradientUnits="userSpaceOnUse">
<stop stop-color="#FFE840"/>
<stop offset="0.4087" stop-color="#FFCE40"/>
<stop offset="0.7754" stop-color="#FFBC40"/>
<stop offset="1" stop-color="#FFB540"/>
</linearGradient>
<linearGradient id="paint8_linear_344_6328" x1="19.8672" y1="16.1543" x2="9.93619" y2="25.5682" gradientUnits="userSpaceOnUse">
<stop stop-color="#40B8FF"/>
<stop offset="0.00657" stop-color="#40B9FF"/>
<stop offset="0.2601" stop-color="#40CEFF"/>
<stop offset="0.5122" stop-color="#40DDFF"/>
<stop offset="0.7604" stop-color="#40E7FF"/>
<stop offset="1" stop-color="#40EAFF"/>
</linearGradient>
<linearGradient id="paint9_linear_344_6328" x1="15.1851" y1="15.7897" x2="22.281" y2="22.8207" gradientUnits="userSpaceOnUse">
<stop stop-color="#65B895"/>
<stop offset="0.0685" stop-color="#62BD95"/>
<stop offset="0.4762" stop-color="#50DB97"/>
<stop offset="0.8009" stop-color="#44ED98"/>
<stop offset="1" stop-color="#40F498"/>
</linearGradient>
</defs>
</svg>
