<svg width="81" height="80" viewBox="0 0 81 80" fill="none" xmlns="http://www.w3.org/2000/svg">
<path d="M66 46.6842V27.1334C66 26.0371 65.5645 24.9858 64.7893 24.2106C64.0142 23.4355 62.9629 23 61.8666 23H20.1334C19.0371 23 17.9858 23.4355 17.2106 24.2106C16.4355 24.9858 16 26.0371 16 27.1334V53.4354C16 54.5316 16.4355 55.583 17.2106 56.3581C17.9858 57.1332 19.0371 57.5688 20.1334 57.5688H54.1648C54.8593 54.7971 56.3501 52.2894 58.4533 50.3551C60.5565 48.4208 63.1799 47.1447 66 46.6842Z" fill="#B476E5"/>
<path d="M66 53.4354L66 46.6842C63.1835 47.1428 60.5625 48.4147 58.4596 50.3438C56.3568 52.2728 54.864 54.7746 54.1648 57.5412H61.8942C62.9808 57.5339 64.0211 57.0991 64.7895 56.3307C65.5579 55.5623 65.9928 54.522 66 53.4354Z" fill="#B476E5"/>
<path d="M66 30.5365H16V31.9143H66V30.5365Z" fill="#8346B4"/>
<path d="M44.1482 42.8952H23.0405C22.8578 42.8952 22.6826 42.8226 22.5534 42.6934C22.4242 42.5643 22.3516 42.389 22.3516 42.2064C22.3551 42.0248 22.4288 41.8516 22.5573 41.7232C22.6857 41.5948 22.8589 41.521 23.0405 41.5175H44.1482C44.3309 41.5175 44.5062 41.5901 44.6353 41.7192C44.7645 41.8484 44.8371 42.0237 44.8371 42.2064C44.8371 42.389 44.7645 42.5643 44.6353 42.6934C44.5062 42.8226 44.3309 42.8952 44.1482 42.8952Z" fill="white"/>
<path d="M39.2709 48.7922H23.0405C22.8589 48.7886 22.6857 48.7149 22.5573 48.5865C22.4288 48.4581 22.3551 48.2849 22.3516 48.1033C22.3516 47.9206 22.4242 47.7454 22.5534 47.6161C22.6826 47.487 22.8578 47.4144 23.0405 47.4144H39.2709C39.4536 47.4144 39.6288 47.487 39.7579 47.6161C39.8872 47.7454 39.9598 47.9206 39.9598 48.1033C39.9598 48.286 39.8872 48.4613 39.7579 48.5904C39.6288 48.7196 39.4536 48.7922 39.2709 48.7922Z" fill="white"/>
</svg>
