<svg width="81" height="80" viewBox="0 0 81 80" fill="none" xmlns="http://www.w3.org/2000/svg">
<circle cx="41" cy="40" r="25" fill="#47BDFF"/>
<path d="M41.3202 30.1739L44.1175 36.1009C44.1671 36.2325 44.2838 36.323 44.4182 36.3341L50.6535 37.2807C50.875 37.315 51.0281 37.531 50.9957 37.7635C50.9825 37.8566 50.9404 37.9426 50.8758 38.008L46.366 42.6179C46.2655 42.7097 46.2203 42.8515 46.2484 42.9883L47.3072 49.5052C47.3436 49.737 47.1942 49.956 46.9734 49.9942C46.8913 50.0085 46.807 49.9958 46.732 49.958L41.1503 46.871H40.7842L35.268 49.958C35.0661 50.0597 34.824 49.9703 34.7273 49.7586C34.6912 49.6799 34.6793 49.5915 34.6928 49.5052L35.7516 42.9883C35.7795 42.8515 35.7345 42.7097 35.6339 42.6179L31.1241 38.008C30.9629 37.845 30.9581 37.5758 31.1133 37.4065C31.1756 37.3387 31.2576 37.2944 31.3464 37.2807L37.5817 36.3341C37.7161 36.323 37.8328 36.2325 37.8822 36.1009L40.6666 30.1739C40.7989 29.9844 41.0526 29.9434 41.233 30.0824C41.2664 30.108 41.2957 30.1389 41.3202 30.1739Z" fill="white"/>
</svg>
