<svg width="81" height="80" viewBox="0 0 81 80" fill="none" xmlns="http://www.w3.org/2000/svg">
<path fill-rule="evenodd" clip-rule="evenodd" d="M59.2761 39.9999C59.2761 40.8593 59.2225 41.6666 59.1154 42.4479L61.806 44.5052L64.4967 46.5625C65.0053 46.9271 65.1392 47.5781 64.8179 48.151L59.6776 56.7968C59.3564 57.3697 58.6871 57.5781 58.0981 57.3697L54.8988 56.1197L51.6995 54.8697C50.3877 55.8593 48.9419 56.6927 47.3624 57.3177L46.3986 63.9322C46.3183 64.5572 45.7828 65 45.1403 65H34.8598C34.2172 65 33.7085 64.5572 33.5746 63.9322L32.6108 57.3177C31.0313 56.6927 29.6123 55.8593 28.2737 54.8697L21.8751 57.3697C21.2861 57.552 20.6168 57.3697 20.2956 56.7968L15.1553 48.151C14.8608 47.6301 14.9946 46.9271 15.4765 46.5625L20.9113 42.4479C20.7775 41.6666 20.7239 40.8072 20.7239 39.9999C20.7239 39.1927 20.831 38.3333 20.9649 37.5521L15.5301 33.4374C14.9946 33.0729 14.8876 32.3959 15.2088 31.849L20.3223 23.2031C20.6436 22.6302 21.3129 22.4219 21.9019 22.6302L28.3005 25.1302C29.6123 24.1667 31.0581 23.3073 32.6376 22.6823L33.6014 16.0677C33.7085 15.4427 34.2172 15 34.8598 15H45.1403C45.7828 15 46.3183 15.4427 46.4253 16.0677L47.3891 22.6823C48.9687 23.3073 50.3877 24.1406 51.7262 25.1302L58.1249 22.6302C58.7139 22.4479 59.3832 22.6302 59.7044 23.2031L64.8447 31.849C65.1393 32.3698 65.0053 33.0729 64.5235 33.4374L59.0887 37.5521C59.2225 38.3333 59.2761 39.1667 59.2761 39.9999ZM40.0008 50.773C46.059 50.773 50.9703 45.9495 50.9703 39.9994C50.9703 34.0494 46.059 29.2258 40.0008 29.2258C33.9426 29.2258 29.0313 34.0494 29.0313 39.9994C29.0313 45.9495 33.9426 50.773 40.0008 50.773Z" fill="#47BDFF"/>
<path d="M27.2168 32.8236L27.7192 28.6501L31.0824 31.1719L27.2168 32.8236ZM28.9178 29.9523C30.3585 28.4282 32.1164 27.2186 34.0826 26.4177L34.3573 27.092C32.488 27.8534 30.8167 29.0034 29.4469 30.4525L28.9178 29.9523ZM34.0826 26.4177C37.0955 25.1904 40.4292 24.9917 43.5665 25.8522L43.374 26.5543C40.3911 25.7362 37.2218 25.9252 34.3573 27.092L34.0826 26.4177ZM43.5665 25.8522C46.704 26.7128 49.4698 28.5845 51.435 31.1771L50.8547 31.6169C48.9863 29.1519 46.3568 27.3725 43.374 26.5543L43.5665 25.8522ZM51.435 31.1771C53.4002 33.7697 54.455 36.9383 54.4357 40.1915L53.7076 40.1872C53.726 37.0943 52.7231 34.0818 50.8547 31.6169L51.435 31.1771Z" fill="white"/>
<path d="M52.0997 47.3865L48.2342 49.0382L51.5973 51.56L52.0997 47.3865ZM49.8697 49.7575C48.5 51.2066 46.8287 52.3567 44.9593 53.1181L45.234 53.7924C47.2002 52.9915 48.958 51.7818 50.3988 50.2577L49.8697 49.7575ZM44.9593 53.1181C42.0949 54.2849 38.9254 54.4738 35.9427 53.6557L35.75 54.3578C38.8875 55.2184 42.2211 55.0196 45.234 53.7924L44.9593 53.1181ZM35.9427 53.6557C32.9598 52.8376 30.3303 51.0581 28.4619 48.5931L27.8817 49.033C29.8469 51.6256 32.6126 53.4973 35.75 54.3578L35.9427 53.6557ZM28.4619 48.5931C26.5935 46.1282 25.5906 43.1157 25.6089 40.0228L24.8808 40.0186C24.8617 43.2717 25.9165 46.4404 27.8817 49.033L28.4619 48.5931Z" fill="white"/>
<path opacity="0.2" d="M40 50.2273C45.6484 50.2273 50.2273 45.6483 50.2273 40C50.2273 34.3516 45.6484 29.7727 40 29.7727C34.3516 29.7727 29.7727 34.3516 29.7727 40C29.7727 45.6483 34.3516 50.2273 40 50.2273Z" fill="#47BDFF"/>
<path fill-rule="evenodd" clip-rule="evenodd" d="M46.4094 37.0131L38.4684 44.954L33.5886 40.0742L35.5563 38.1064L38.4684 41.0185L44.4416 35.0453L46.4094 37.0131Z" fill="#47BDFF"/>
</svg>
