<svg width="81" height="80" viewBox="0 0 81 80" fill="none" xmlns="http://www.w3.org/2000/svg">
<path d="M15 16H49.8444V59.097H15V16Z" fill="#B476E5"/>
<path opacity="0.5" d="M44.1045 55.0294L59.6524 39.3209L65 44.7234L49.6645 60.2164H44.1045V55.0294Z" fill="#B476E5"/>
<path d="M19.938 20.6642H54.7824V63.7612H19.938V20.6642Z" fill="#DAC0EF"/>
<path d="M49.2455 32.0212H26.3216V33.8552H49.2455V32.0212Z" fill="white"/>
<path d="M49.2455 27.3806H26.3216V29.2145H49.2455V27.3806Z" fill="white"/>
<path d="M49.2455 36.6058H26.3216V38.4398H49.2455V36.6058Z" fill="white"/>
<path d="M49.2455 41.1907H26.3216V43.0246H49.2455V41.1907Z" fill="white"/>
<path d="M40.076 45.7755H26.3216V47.6094H40.076V45.7755Z" fill="white"/>
<path fill-rule="evenodd" clip-rule="evenodd" d="M54.7824 44.2411V55.0458L49.6645 60.2164H44.1045V55.0293L54.7824 44.2411Z" fill="#B476E5"/>
</svg>
