<svg width="60" height="60" viewBox="0 0 60 60" fill="none" xmlns="http://www.w3.org/2000/svg">
<path d="M55 37.5C55 46.9281 55 49.1421 52.0711 52.0711C49.1421 55 44.4281 55 35 55" stroke="#47BDFF" stroke-width="3" stroke-linecap="round"/>
<path d="M25 5C15.5719 5 10.8579 5 7.92893 7.92893C5 10.8579 5 13.0719 5 22.5" stroke="#47BDFF" stroke-width="3" stroke-linecap="round"/>
<path d="M30 17.5C22.6817 17.5 17.7009 21.4056 14.7311 24.8505C13.2437 26.5758 12.5 27.4385 12.5 30C12.5 32.5615 13.2437 33.4242 14.7311 35.1495C17.7009 38.5944 22.6817 42.5 30 42.5C37.3183 42.5 42.2991 38.5944 45.2689 35.1495C46.7563 33.4242 47.5 32.5615 47.5 30C47.5 27.4385 46.7563 26.5758 45.2689 24.8505C43.9308 23.2983 42.1845 21.6527 40 20.3128" stroke="#B476E5" stroke-width="3" stroke-linecap="round"/>
<circle cx="30" cy="30" r="5" stroke="#47BDFF" stroke-width="3"/>
<path d="M25 55C24.127 55 23.2945 55 22.5 54.9977M5 37.5C5 46.9281 5 49.1421 7.92893 52.0711C9.56189 53.704 11.7497 54.4266 15 54.7463" stroke="#B476E5" stroke-width="3" stroke-linecap="round"/>
<path d="M35 5C35.873 5 36.7055 5 37.5 5.00232M55 22.5C55 13.0719 55 10.8579 52.0711 7.92893C50.4381 6.29598 48.2503 5.57344 45 5.25373" stroke="#B476E5" stroke-width="3" stroke-linecap="round"/>
</svg>
