<svg width="73" height="81" viewBox="0 0 73 81" fill="none" xmlns="http://www.w3.org/2000/svg">
<path d="M57.8926 32.8926C60.3334 30.4518 60.3334 26.5234 60.3334 18.6667C60.3334 10.8099 60.3334 6.88155 57.8926 4.44078M57.8926 32.8926C55.4518 35.3333 51.5234 35.3333 43.6667 35.3333H27C19.1433 35.3333 15.2149 35.3333 12.7742 32.8926M57.8926 32.8926C57.8926 32.8926 57.8926 32.8926 57.8926 32.8926ZM57.8926 4.44078C55.4518 2 51.5234 2 43.6667 2L27 2C19.1433 2 15.2149 2 12.7741 4.44078M57.8926 4.44078C57.8926 4.44078 57.8926 4.44078 57.8926 4.44078ZM12.7741 4.44078C10.3334 6.88156 10.3334 10.8099 10.3334 18.6667C10.3334 26.5234 10.3334 30.4518 12.7742 32.8926M12.7741 4.44078C12.7741 4.44078 12.7741 4.44078 12.7741 4.44078ZM12.7742 32.8926C12.7742 32.8926 12.7742 32.8926 12.7742 32.8926Z" stroke="#B476E5" stroke-width="4"/>
<path d="M39.5001 18.6667C39.5001 20.9679 37.6346 22.8333 35.3334 22.8333C33.0322 22.8333 31.1667 20.9679 31.1667 18.6667C31.1667 16.3655 33.0322 14.5 35.3334 14.5C37.6346 14.5 39.5001 16.3655 39.5001 18.6667Z" stroke="#B476E5" stroke-width="4"/>
<path d="M60.3334 14.5C53.4298 14.5 47.8334 8.90356 47.8334 2" stroke="#B476E5" stroke-width="4" stroke-linecap="round"/>
<path d="M60.3334 22.8333C53.4298 22.8333 47.8334 28.4297 47.8334 35.3333" stroke="#B476E5" stroke-width="4" stroke-linecap="round"/>
<path d="M10.3334 14.5C17.2369 14.5 22.8334 8.90356 22.8334 2" stroke="#B476E5" stroke-width="4" stroke-linecap="round"/>
<path d="M10.3334 22.8333C17.2369 22.8333 22.8334 28.4297 22.8334 35.3333" stroke="#B476E5" stroke-width="4" stroke-linecap="round"/>
<path d="M2 78.6183H11.4164C15.6283 78.6183 19.8855 79.0571 23.9847 79.9016C31.2357 81.3954 38.8702 81.5764 46.1956 80.3906M42.3182 66.655C42.8174 66.5971 43.2958 66.5308 43.7524 66.458C47.5499 65.8523 50.7377 63.823 53.656 61.6185L61.1859 55.9302C63.8405 53.925 67.7804 53.9246 70.4355 55.9293C72.8258 57.7341 73.5567 60.7059 72.0455 63.1281C70.2833 65.9528 67.8004 69.5666 65.4164 71.7746M42.3182 66.655C42.1679 66.6724 42.0157 66.689 41.8617 66.7048M42.3182 66.655C42.9256 66.5248 43.5289 66.1502 44.0948 65.6562C46.7748 63.3171 46.9443 59.375 44.619 56.763C44.0794 56.157 43.4481 55.6516 42.7461 55.2329C31.0905 48.281 12.9559 53.5758 2 61.3455M42.3182 66.655C42.1661 66.6876 42.0138 66.7048 41.8617 66.7048M41.8617 66.7048C39.681 66.9287 37.1298 66.9866 34.299 66.7193" stroke="#B476E5" stroke-width="4" stroke-linecap="round"/>
</svg>
