<svg width="99" height="77" viewBox="0 0 99 77" fill="none" xmlns="http://www.w3.org/2000/svg">
<path d="M2.75 96.25C2.75 102.143 2.75 105.089 4.58058 106.919C6.41117 108.75 9.35744 108.75 15.25 108.75C21.1426 108.75 24.0888 108.75 25.9194 106.919C27.75 105.089 27.75 102.143 27.75 96.25V58.75C27.75 52.8574 27.75 49.9112 25.9194 48.0806C24.0888 46.25 21.1426 46.25 15.25 46.25C9.35744 46.25 6.41117 46.25 4.58058 48.0806C2.75 49.9112 2.75 52.8574 2.75 58.75V71.25" stroke="#B476E5" stroke-width="4" stroke-linecap="round"/>
<path d="M46.5 33.75C46.5 27.8574 46.5 24.9112 48.3306 23.0806C50.1612 21.25 53.1074 21.25 59 21.25C64.8926 21.25 67.8388 21.25 69.6694 23.0806C71.5 24.9112 71.5 27.8574 71.5 33.75V96.25C71.5 102.143 71.5 105.089 69.6694 106.919C67.8388 108.75 64.8926 108.75 59 108.75C53.1074 108.75 50.1612 108.75 48.3306 106.919C46.5 105.089 46.5 102.143 46.5 96.25V33.75Z" stroke="#B476E5" stroke-width="4"/>
<path d="M115.25 58.75V96.25C115.25 102.143 115.25 105.089 113.419 106.919C111.589 108.75 108.643 108.75 102.75 108.75C96.8574 108.75 93.9112 108.75 92.0806 106.919C90.25 105.089 90.25 102.143 90.25 96.25V15C90.25 9.10744 90.25 6.16117 92.0806 4.33058C93.9112 2.5 96.8574 2.5 102.75 2.5C108.643 2.5 111.589 2.5 113.419 4.33058C115.25 6.16117 115.25 9.10744 115.25 15V33.75" stroke="#B476E5" stroke-width="4" stroke-linecap="round"/>
</svg>
