<svg width="50" height="50" viewBox="0 0 50 50" fill="none" xmlns="http://www.w3.org/2000/svg">
<g clip-path="url(#clip0_236_927)">
<mask id="mask0_236_927" style="mask-type:luminance" maskUnits="userSpaceOnUse" x="0" y="0" width="50" height="50">
<path d="M50 0H0V49.9995H50V0Z" fill="white"/>
</mask>
<g mask="url(#mask0_236_927)">
<g filter="url(#filter0_d_236_927)">
<path d="M49.9995 0H0V49.9995H49.9995V0Z" fill="#016BFF"/>
<mask id="mask1_236_927" style="mask-type:alpha" maskUnits="userSpaceOnUse" x="0" y="0" width="51" height="50">
<path d="M50.0005 0H0.000976562V49.9995H50.0005V0Z" fill="#FF5B5D"/>
</mask>
<g mask="url(#mask1_236_927)">
<path d="M33.516 35.5994C33.8195 43.1178 45.1663 47.4932 50.5145 48.411L55.4585 56.4715H-1.47559L0.555379 49.1258C6.41005 46.4625 18.0433 40.4272 18.6494 39.8762C19.2555 39.3252 19.4693 36.0557 19.9515 34.8894C15.9565 31.8728 17.8873 27.5951 16.9247 26.7059C15.9015 25.7606 15.8463 23.1587 15.7775 21.5056C15.7086 19.8525 18.9633 21.4869 18.7557 19.7554C18.5516 18.053 20.6249 16.7345 19.3162 16.8034C18.0075 16.8722 13.9864 15.4205 15.2057 11.5719C16.4015 7.79773 18.1358 9.98708 18.7557 9.36718C19.3756 8.74728 19.2699 5.14453 20.923 5.14453C35.3097 5.14453 35.7815 14.737 36.057 16.8034C36.3325 18.8697 35.4993 21.0391 37.2902 22.0723C39.081 23.1054 35.9867 28.0921 35.1602 28.5743C34.499 28.96 33.7253 33.3219 33.516 35.5994Z" fill="white"/>
<path d="M49.5033 48.2036C45.181 46.4515 36.1859 42.1236 34.7842 38.8291" stroke="#08111F" stroke-linecap="round" stroke-linejoin="round"/>
<path fill-rule="evenodd" clip-rule="evenodd" d="M51.842 49.4238C51.842 49.4238 44.5898 45.5158 39.9127 44.5708C39.9127 44.5708 39.8804 45.2689 39.1022 46.9921C38.3239 48.7154 36.028 53.8075 36.028 53.8075L32.5816 51.1895L32.6333 55.0925L23.1782 65.1915L17.2019 52.109L17.9982 48.4284L14.5931 49.7327L12.7742 43.2432C12.7742 43.2432 3.80776 45.2599 -3.91506 51.474C-11.6379 57.688 -13.8497 67.3745 -14.5672 75.6805C-15.2847 83.9865 -14.4224 92.7445 -3.44968 95.704C-3.44968 95.704 1.70577 96.9965 5.9033 95.267C7.21155 94.7265 9.11185 94.2225 11.1053 93.78L11.0407 93.8035C11.0407 93.8035 10.1357 96.9435 7.51405 98.6525C7.51405 98.6525 12.1072 102.143 19.9554 103.665C27.8036 105.186 44.3882 106.096 52.747 98.844C61.106 91.5915 61.447 79.635 61.447 79.635C61.447 79.635 64.162 56.5505 51.842 49.4238ZM8.8951 69.826C8.10095 69.8 7.4754 69.14 7.4915 68.3455C7.50765 67.551 8.1595 66.9175 8.9541 66.9235C9.74865 66.9295 10.3907 67.573 10.3947 68.368C10.3806 69.1835 9.7108 69.8345 8.8951 69.826ZM40.7224 83.3645C40.7399 83.272 40.7545 83.195 40.7663 83.135C40.962 82.1555 39.6307 81.549 36.222 79.996C35.7347 79.774 35.2048 79.533 34.6309 79.2685C30.043 77.1535 20.4199 80.084 20.4199 80.084C20.4199 80.084 16.1577 87.154 20.3914 92.114C22.4184 91.9335 23.8818 91.8775 23.8818 91.8775C27.5179 91.5005 30.0309 91.8425 32.0281 92.1145C33.7608 92.3505 35.1051 92.5335 36.4576 92.148C39.2124 91.3625 40.4149 84.993 40.7224 83.3645Z" fill="#7A97FF"/>
<path d="M27.4055 48.553L25.0553 51.194C24.8996 51.3195 24.6993 51.375 24.5012 51.349C24.3031 51.3225 24.1244 51.216 24.0069 51.0545L22.3535 47.4968L25.5724 44.9385L27.4055 48.553Z" fill="#016BFF"/>
<path d="M25.9143 50.2255L26.911 54.229L24.0023 57.9225L21.8305 53.1055L23.44 49.8428" fill="#016BFF"/>
<path d="M35.8142 21.5466C35.2971 21.6629 34.8447 22.0637 34.4995 22.4915C34.1786 22.8929 33.9069 23.3312 33.6903 23.7972C33.6903 23.7972 32.5992 19.1434 32.139 15.1061C31.9851 13.7927 31.5249 13.0895 30.9652 12.7352C29.8108 12.0036 28.2504 12.7857 28.2504 12.7857L23.0665 15.609C22.072 16.157 20.9772 16.4991 19.8476 16.6148C19.3198 16.6755 18.7867 16.6755 18.2588 16.6148C15.4032 15.2031 15.3618 9.63399 18.8315 9.59519C18.9359 9.69264 19.0339 9.79674 19.125 9.90674C19.075 9.80419 19.0284 9.70204 18.9854 9.60039C19.1794 9.60629 19.3727 9.62789 19.5632 9.66499C19.8476 9.72059 20.1126 10.014 20.2897 10.2196C19.368 8.43044 20.3505 6.17589 22.1668 5.49204C23.2708 5.07709 24.5054 5.15594 25.6572 5.39894C25.8395 5.43514 26.0204 5.47784 26.2027 5.52824C29.0907 6.39954 31.6193 7.91334 33.4873 10.4406C35.8517 13.6376 36.4425 17.6851 35.8142 21.5466Z" fill="#08111F"/>
<path d="M12.7734 43.2412C5.60265 45.0058 -2.85704 49.2861 -7.5109 55.0955C-13.6036 62.6905 -14.8795 72.7895 -14.7412 82.243C-14.6119 91.48 -4.93318 97.8595 3.85227 95.8635" stroke="#08111F" stroke-linejoin="round"/>
<path d="M16.4878 39.7913H16.493" stroke="#08111F" stroke-linejoin="round"/>
<path d="M41.6374 70.418C41.6374 70.418 41.896 76.5315 40.8618 82.589C40.3925 85.3545 39.6543 88.108 38.5025 90.264C37.873 91.4235 36.6699 92.1565 35.3508 92.184C34.1696 92.2055 32.9882 92.1585 31.8125 92.043C21.6801 91.0915 12.1836 93.179 5.2584 95.474C4.79302 95.6265 4.32505 95.7555 3.85449 95.8615C8.22265 99.825 19.4605 107.152 40.7079 103.975C69.2775 99.709 60.3485 61.983 60.3485 61.983C59.573 57.9185 57.1505 54.145 54.2375 51.2865C50.9385 48.0549 44.5422 45.918 40.1934 44.5645" stroke="#08111F" stroke-linejoin="round"/>
<path d="M24.9123 37.4623C24.9123 37.4623 16.22 35.911 17.3847 25.6596C17.9018 21.0988 18.8985 18.309 19.8409 16.6104" stroke="#08111F" stroke-linejoin="round"/>
<path d="M33.1444 34.7652C34.7499 32.3659 34.5043 29.1806 35.0085 28.3791C35.7841 27.1355 38.8867 23.256 37.0252 21.8585C36.596 21.5366 36.1862 21.4707 35.8139 21.5457C34.5612 21.8249 33.6899 23.7963 33.6899 23.7963C33.6899 23.7963 32.6001 19.1425 32.1386 15.1039C31.6771 11.0654 28.2488 12.7848 28.2488 12.7848L23.0649 15.6068C22.0707 16.156 20.9758 16.4985 19.846 16.6139C19.2548 16.6835 18.6572 16.6787 18.0671 16.5996C14.0597 16.0825 13.8011 8.4955 18.3981 9.36035C18.6825 9.4159 18.9475 9.70935 19.1246 9.9149C18.2016 8.12575 19.1854 5.8712 21.0017 5.18735C22.1057 4.77239 23.3402 4.85125 24.4921 5.0943C28.0885 5.8531 31.2596 7.4212 33.4869 10.441C35.8527 13.6406 36.4447 17.6881 35.8139 21.5495" stroke="#08111F" stroke-linejoin="round"/>
<path d="M23.8262 27.8335H21.9634L22.0849 26.3572L22.5826 20.3809" stroke="#08111F" stroke-linecap="round" stroke-linejoin="round"/>
<path d="M22.0816 26.3584H16.9649C16.2095 26.3584 15.5972 25.746 15.5972 24.9906V20.3833H24.2456M24.2456 20.3833V24.9906C24.2463 25.7462 24.8591 26.3584 25.6146 26.3584H30.6886C31.4442 26.3584 32.0569 25.7462 32.0576 24.9906V20.3833H24.2456Z" stroke="#08111F" stroke-linejoin="round"/>
<path d="M23.8266 29.6157C23.8266 29.6157 25.1465 30.0811 26.6215 27.8291" stroke="#08111F" stroke-linecap="round" stroke-linejoin="round"/>
<path d="M23.125 65.6435L32.7585 54.9525L32.5827 51.188L35.9141 54.059L40.1944 44.5691L40.206 44.5445C39.1593 43.9278 38.1827 43.1992 37.2934 42.3715C36.884 41.9871 36.4963 41.5855 36.13 41.1666C35.6978 40.6761 35.2946 40.1607 34.9226 39.6231L34.6213 39.1978" stroke="#08111F" stroke-linejoin="round"/>
<path d="M29.4433 50.818L27.4603 48.0867L25.3453 45.2995L29.7846 42.6132L34.6246 39.1978L36.1255 41.1666L36.6297 41.8298L35.4054 43.3979L25.8456 55.6685V55.6735L24.0371 57.922" stroke="#08111F" stroke-linejoin="round"/>
<path d="M20.1719 49.2647L25.3429 45.3037L18.9903 38.9551L16.5833 41.2251L24.0359 57.926L23.1245 65.645L17.2025 52.1085L17.9949 48.4296L14.5899 49.7301L12.6133 43.309C14.8851 42.4324 16.9392 41.0725 18.6335 39.3235L18.9929 38.9512" stroke="#08111F" stroke-linejoin="round"/>
<path d="M27.4602 48.5533L25.1061 51.1945C24.9506 51.3195 24.7506 51.3755 24.5527 51.349C24.3548 51.3225 24.1763 51.216 24.059 51.0545L22.4043 47.4971" stroke="#08111F" stroke-linejoin="round"/>
<path d="M23.4957 49.8428L21.8863 53.1055" stroke="#08111F" stroke-linejoin="round"/>
<path d="M34.6217 39.1983L33.1454 34.7603C32.7436 35.3234 32.2256 35.7938 31.6264 36.1396" stroke="#08111F" stroke-linejoin="round"/>
<path d="M20.0079 34.7603L18.9931 38.9513" stroke="#08111F" stroke-linejoin="round"/>
<path d="M27.0252 24.1085C27.4007 24.1085 27.7052 23.8041 27.7052 23.4285C27.7052 23.053 27.4007 22.7485 27.0252 22.7485C26.6497 22.7485 26.3452 23.053 26.3452 23.4285C26.3452 23.8041 26.6497 24.1085 27.0252 24.1085Z" fill="#08111F"/>
<path d="M21.0955 24.1085C21.471 24.1085 21.7755 23.8041 21.7755 23.4285C21.7755 23.053 21.471 22.7485 21.0955 22.7485C20.72 22.7485 20.4155 23.053 20.4155 23.4285C20.4155 23.8041 20.72 24.1085 21.0955 24.1085Z" fill="#08111F"/>
<path fill-rule="evenodd" clip-rule="evenodd" d="M40.0805 44.6113C40.0805 44.6113 44.6542 46.3668 40.5459 53.4655C39.2531 55.6915 38.5524 57.01 38.1944 57.765" fill="#7A97FF"/>
<path d="M40.0805 44.6113C40.0805 44.6113 44.6542 46.3668 40.5459 53.4655C39.2531 55.6915 38.5524 57.01 38.1944 57.765" stroke="#08111F" stroke-linejoin="round"/>
<path d="M11.0415 43.7344C11.0415 43.7344 8.44315 52.2665 8.97315 64.973" stroke="#08111F" stroke-linejoin="round"/>
</g>
</g>
</g>
</g>
<defs>
<filter id="filter0_d_236_927" x="-12" y="-10" width="74.0005" height="73.9995" filterUnits="userSpaceOnUse" color-interpolation-filters="sRGB">
<feFlood flood-opacity="0" result="BackgroundImageFix"/>
<feColorMatrix in="SourceAlpha" type="matrix" values="0 0 0 0 0 0 0 0 0 0 0 0 0 0 0 0 0 0 127 0" result="hardAlpha"/>
<feOffset dy="2"/>
<feGaussianBlur stdDeviation="6"/>
<feComposite in2="hardAlpha" operator="out"/>
<feColorMatrix type="matrix" values="0 0 0 0 0.123438 0 0 0 0 0.181042 0 0 0 0 0.329167 0 0 0 0.06 0"/>
<feBlend mode="normal" in2="BackgroundImageFix" result="effect1_dropShadow_236_927"/>
<feBlend mode="normal" in="SourceGraphic" in2="effect1_dropShadow_236_927" result="shape"/>
</filter>
<clipPath id="clip0_236_927">
<rect width="50" height="50" rx="25" fill="white"/>
</clipPath>
</defs>
</svg>
