<svg width="50" height="50" viewBox="0 0 50 50" fill="none" xmlns="http://www.w3.org/2000/svg">
<g clip-path="url(#clip0_236_964)">
<mask id="mask0_236_964" style="mask-type:luminance" maskUnits="userSpaceOnUse" x="0" y="0" width="50" height="50">
<path d="M50 0H0V49.9995H50V0Z" fill="white"/>
</mask>
<g mask="url(#mask0_236_964)">
<path d="M49.9995 0H0V49.9995H49.9995V0Z" fill="#FF5B5D"/>
<mask id="mask1_236_964" style="mask-type:alpha" maskUnits="userSpaceOnUse" x="0" y="1" width="50" height="50">
<path d="M50 1H0.000488281V50.9995H50V1Z" fill="#FF5B5D"/>
</mask>
<g mask="url(#mask1_236_964)">
<path d="M18.2549 16.7266C18.2549 12.6402 21.5675 9.32764 25.6539 9.32764C29.7402 9.32764 33.0528 12.6402 33.0528 16.7266V24.6675C33.0528 28.7538 29.7402 32.0665 25.6539 32.0665C21.5675 32.0665 18.2549 28.7538 18.2549 24.6675V16.7266Z" fill="white"/>
<path d="M19.7648 28.9611L31.3543 28.6147L32.0138 36.3373L32.376 40.1469L46.1776 44.6012L57.176 55.7595L33.4228 52.837L13.0793 58.035L-3.67871 51.493L3.54881 44.6012L12.0371 41.8277L15.9032 40.9873L19.1809 40.1469L19.7648 28.9611Z" fill="white"/>
<path d="M56.724 106.683C56.5665 106.584 56.4145 106.476 56.2695 106.36C55.4265 105.735 53.6435 104.298 51.5005 102.547C45.7918 97.891 37.5251 90.9925 37.5251 90.9925L37.2494 91.9985L36.1386 96.029C36.1386 96.029 36.1386 96.029 36.1228 96.029C25.4927 101.614 17.1684 96.7805 16.827 96.5885L15.984 93.0435L15.7556 92.085L0.889739 103.004L-3.73465 106.417C-6.1427 99.782 -20.1997 57.692 7.095 45.6441C10.6558 48.6955 17.9693 53.3015 26.4802 52.4245C26.9082 52.385 27.3389 52.3275 27.7511 52.272C29.222 52.128 30.6756 51.8435 32.0919 51.4215L32.1392 51.4055C39.0508 49.3756 43.7881 44.6803 44.4131 44.0527C73.79 58.249 56.724 106.683 56.724 106.683Z" fill="#FFC452"/>
<path d="M37.0829 27.8765C37.0829 27.8765 36.0929 27.9343 35.0373 27.9185C33.8451 27.9185 32.5794 27.803 32.6214 27.4222C32.6765 26.897 33.6508 24.9564 33.7007 23.6276C33.7164 23.1024 33.593 22.6928 33.2359 22.4827C32.2957 21.9575 28.5905 18.6382 26.5369 16.3588C26.4004 16.2039 26.2743 16.0595 26.1483 15.9124C25.5653 15.2402 25.1898 14.6887 25.1504 14.3972C24.9876 13.1157 22.9367 19.3026 20.0087 21.4297C20.0087 21.4297 18.5486 24.0557 17.1358 24.2263C17.6808 24.8397 18.0445 25.5925 18.1862 26.4007C18.2198 26.5962 18.2417 26.7935 18.2519 26.9915C18.2558 27.0571 18.2558 27.1229 18.2519 27.1885C18.2519 29.0135 15.8885 28.5671 14.9668 28.3544C14.2604 28.1942 12.7504 27.7216 12.0781 26.8707V19.6125C12.0781 19.6125 13.9164 7.07327 26.9466 6.48242C29.49 6.53267 31.9844 7.19182 34.2206 8.40467C34.2328 8.41127 34.2443 8.41922 34.2547 8.42832C36.9385 10.5291 39.2835 14.0821 39.6065 20.1665C39.6039 20.1718 40.6596 27.8765 37.0829 27.8765Z" fill="#FFC452"/>
<path d="M6.81785 43.5063C6.81785 43.5063 15.0845 52.3375 25.8747 52.3375C36.665 52.3375 44.48 43.9738 44.48 43.9738" stroke="#08111F"/>
<path d="M18.2567 32.7032C18.2535 33.6031 17.7101 34.4131 16.8786 34.7574C16.0471 35.1017 15.0901 34.913 14.4516 34.2788C14.005 33.2986 14.322 32.1394 15.2052 31.5229C16.0884 30.9064 17.2859 31.0085 18.0519 31.7657C18.1916 32.0582 18.2617 32.379 18.2567 32.7032Z" fill="white"/>
<path d="M37.0827 32.7032C37.081 33.6032 36.5382 34.4139 35.7067 34.7584C34.8752 35.103 33.9181 34.9138 33.2803 34.2788C32.8337 33.2986 33.1506 32.1394 34.0338 31.5229C34.917 30.9064 36.1145 31.0085 36.8805 31.7657C37.0177 32.0589 37.0868 32.3794 37.0827 32.7032Z" fill="white"/>
<path d="M11.7178 19.4006C11.8038 11.7736 18.002 5.63105 25.6294 5.61381C33.2569 5.59657 39.4828 11.7111 39.6033 19.3376V19.4006" stroke="#08111F"/>
<path d="M24.0473 33.2576C24.0473 33.2576 24.0473 33.2576 24.0631 33.2576C24.5941 33.3168 25.128 33.3466 25.6623 33.3469C25.8488 33.3469 26.0273 33.3469 26.2138 33.3311H26.2611" stroke="#08111F"/>
<path fill-rule="evenodd" clip-rule="evenodd" d="M17.3716 23.8092C17.62 25.3483 18.0666 26.8489 18.7003 28.2734C19.6982 30.4083 21.3788 32.6956 24.0469 33.2628H24.0626C24.7452 33.4078 25.4472 33.438 26.1398 33.3521C26.1649 33.3504 26.1897 33.3451 26.2133 33.3363H26.2606C29.5877 32.8978 31.4916 30.3821 32.563 27.8847C33.2691 26.2652 33.7234 24.5472 33.9101 22.7903C29.0441 20.9258 25.3047 14.1323 25.3047 14.1323C25.3047 14.1323 21.0611 21.8213 17.3716 23.8092Z" stroke="#08111F"/>
<path d="M11.7182 18.9453V25.0797C11.7197 26.8393 13.1466 28.265 14.9062 28.265H18.7008" stroke="#08111F"/>
<path d="M39.6049 19.3394V24.9249C39.6049 26.553 38.2919 27.8739 37.4647 27.8739H32.8823" stroke="#08111F"/>
<path d="M20.0087 30.4727L19.4388 39.3092C19.3918 39.941 18.9002 40.4492 18.2703 40.5171C-28.1837 45.651 -4.11376 106.692 -4.11376 106.692L15.7572 92.092L10.6811 72.008" stroke="#08111F"/>
<path d="M31.0635 30.4727L32.0719 39.6033C32.143 40.1925 32.6005 40.6608 33.1879 40.7456C77.67 47.2345 56.717 106.682 56.717 106.682C55.362 105.871 37.5182 90.997 37.5182 90.997L42.9278 72.074" stroke="#08111F"/>
<path d="M17.3716 23.8105C16.6812 24.1624 15.9572 24.4439 15.2104 24.6508" stroke="#08111F"/>
<path d="M33.9185 22.7827C34.5288 23.0009 35.1536 23.1764 35.7882 23.3079" stroke="#08111F"/>
<path d="M16.0234 34.934C17.2547 34.934 18.2529 33.9359 18.2529 32.7046C18.2529 31.4733 17.2547 30.4751 16.0234 30.4751C14.7921 30.4751 13.7939 31.4733 13.7939 32.7046C13.7939 33.9359 14.7921 34.934 16.0234 34.934Z" stroke="#08111F"/>
<path d="M34.8525 34.934C36.0838 34.934 37.082 33.9359 37.082 32.7046C37.082 31.4733 36.0838 30.4751 34.8525 30.4751C33.6212 30.4751 32.623 31.4733 32.623 32.7046C32.623 33.9359 33.6212 34.934 34.8525 34.934Z" stroke="#08111F"/>
<path d="M16.0244 30.4734V24.3784" stroke="#08111F"/>
<path d="M34.8515 30.475V23.0854" stroke="#08111F"/>
<path d="M28.56 23.0454C29.0241 23.0454 29.4004 22.6692 29.4004 22.2051C29.4004 21.741 29.0241 21.3647 28.56 21.3647C28.0959 21.3647 27.7197 21.741 27.7197 22.2051C27.7197 22.6692 28.0959 23.0454 28.56 23.0454Z" fill="#08111F"/>
<path d="M21.9409 23.0454C22.405 23.0454 22.7812 22.6692 22.7812 22.2051C22.7812 21.741 22.405 21.3647 21.9409 21.3647C21.4768 21.3647 21.1006 21.741 21.1006 22.2051C21.1006 22.6692 21.4768 23.0454 21.9409 23.0454Z" fill="#08111F"/>
<path d="M17.6157 20.6155C18.1041 20.5918 25.1523 20.6155 25.1523 20.6155L23.9654 24.5098H19.5905L17.6157 20.6155Z" fill="#FF8A1D"/>
<path d="M25.3496 20.6155C25.8354 20.5918 32.8863 20.6155 32.8863 20.6155L30.8879 24.5098H26.5261L25.3496 20.6155Z" fill="#FF8A1D"/>
<path fill-rule="evenodd" clip-rule="evenodd" d="M17.6143 20.6179C18.1027 20.5943 25.1509 20.6179 25.1509 20.6179L23.9639 24.5123H19.589L17.6143 20.6179Z" stroke="#08111F"/>
<path fill-rule="evenodd" clip-rule="evenodd" d="M25.3486 20.6179C25.8344 20.5943 32.8852 20.6179 32.8852 20.6179L30.8868 24.5123H26.5251L25.3486 20.6179Z" stroke="#08111F"/>
<path d="M23.5781 27.8753C23.5781 27.8753 25.9783 28.6631 26.6191 27.4263" stroke="#08111F" stroke-linecap="round"/>
</g>
</g>
</g>
<defs>
<clipPath id="clip0_236_964">
<rect width="50" height="50" rx="25" fill="white"/>
</clipPath>
</defs>
</svg>
