<svg width="50" height="50" viewBox="0 0 50 50" fill="none" xmlns="http://www.w3.org/2000/svg">
<g clip-path="url(#clip0_236_893)">
<mask id="mask0_236_893" style="mask-type:luminance" maskUnits="userSpaceOnUse" x="0" y="0" width="50" height="50">
<path d="M50 0H0V49.9995H50V0Z" fill="white"/>
</mask>
<g mask="url(#mask0_236_893)">
<g filter="url(#filter0_d_236_893)">
<path d="M49.9995 0H0V49.9995H49.9995V0Z" fill="#6B2EFF"/>
<mask id="mask1_236_893" style="mask-type:alpha" maskUnits="userSpaceOnUse" x="0" y="0" width="51" height="50">
<path d="M50.0005 0H0.000976562V49.9995H50.0005V0Z" fill="#FF5B5D"/>
</mask>
<g mask="url(#mask1_236_893)">
<path d="M0.880547 45.056H12.5353C12.6115 41.5883 12.9046 35.0564 13.8454 34.1744C15.0214 33.0718 13.4256 26.7147 13.4256 26.2002C13.4256 25.6856 13.8454 21.8116 13.8454 21.8116C13.8454 21.8116 15.2703 16.8429 14.5843 18.2638C15.7775 12.0991 21.2017 6.01781 24.4777 5.68571C31.8356 4.93989 43.988 8.08436 42.0048 22.1554C40.9822 29.4111 40.5371 31.133 40.3458 31.2462C41.1988 34.4704 45.816 46.7841 46.5012 50.3815C47.2567 54.348 81.5905 56.436 47.7654 56.5305C20.7052 56.606 4.75966 55.869 0.169426 55.4915L0.880547 45.056Z" fill="white"/>
<path opacity="0.7" d="M27.1194 26.1969C28.4634 24.8552 28.439 22.6517 27.065 21.2753C25.6909 19.8988 23.4875 19.8706 22.1435 21.2123C20.7995 22.554 20.8238 24.7574 22.1979 26.1339C23.5719 27.5103 25.7754 27.5385 27.1194 26.1969Z" fill="#6B2EFF"/>
<path opacity="0.7" d="M17.2288 24.9954C18.5734 23.6531 18.5491 21.4486 17.1744 20.0715C15.7997 18.6944 13.5953 18.6662 12.2506 20.0085C10.906 21.3508 10.9303 23.5553 12.305 24.9324C13.6797 26.3095 15.8841 26.3377 17.2288 24.9954Z" fill="#6B2EFF"/>
<path fill-rule="evenodd" clip-rule="evenodd" d="M61.261 67.492C63.5135 73.0395 64.791 79.427 64.986 85.7835C65.03 79.9965 64.2015 73.6025 61.5835 67.557C60.7495 65.6365 59.744 63.795 58.5795 62.055C58.5745 62.042 58.566 62.031 58.555 62.0225C54.9615 56.6525 49.5281 51.8845 41.5021 48.4816L34.7991 46.5288C34.7991 46.5288 35.8601 48.9079 34.3809 51.987C32.9016 55.0655 29.258 58.8755 25.3866 57.977C21.5151 57.079 17.2597 55.017 17.9008 50.8365C18.542 46.6557 18.8187 45.1699 18.8187 45.1699L-4.07634 45.3929C-1.62232 48.6948 1.77393 56.283 -5.0869 68.548L-0.824923 68.3855C-0.824923 68.3855 -3.6695 95.15 2.77962 105.53C2.82519 105.613 2.87564 105.692 2.92608 105.764L39.3377 105.613H41.8682C41.8786 105.586 41.8868 105.558 41.8926 105.53H33.0887C32.0845 105.529 31.1217 105.129 30.4134 104.417C29.9803 103.984 29.6591 103.452 29.4777 102.867C29.3653 102.503 29.3104 102.123 29.315 101.741C29.3185 99.649 31.0115 97.953 33.1034 97.946H54.8835C54.991 97.946 55.105 97.946 55.209 97.959C55.228 97.962 55.247 97.962 55.266 97.959H55.2985C55.273 97.964 55.2475 97.9675 55.222 97.9715C55.1775 97.9785 55.133 97.985 55.0885 97.9965H55.0775C55.1825 97.999 55.288 97.9945 55.393 97.9835C55.5655 97.9725 55.737 97.9525 55.907 97.923C56.003 97.9085 56.0975 97.8905 56.192 97.8695L56.2915 97.8515C56.3755 97.8335 56.46 97.8095 56.544 97.786C56.58 97.7755 56.6165 97.7655 56.6525 97.7555C56.7715 97.718 56.885 97.674 56.999 97.6305C57.113 97.5865 57.227 97.541 57.341 97.484C57.3525 97.4835 57.364 97.4795 57.3735 97.4725C57.4745 97.422 57.575 97.37 57.6695 97.3195C57.8725 97.207 58.067 97.08 58.252 96.9405L58.415 96.8085C58.559 96.6945 58.696 96.572 58.825 96.4405C58.9455 96.3205 59.06 96.194 59.167 96.0615L59.184 96.04C59.2855 95.914 59.3865 95.7885 59.4775 95.65C59.559 95.5295 59.6405 95.404 59.7055 95.277C59.7495 95.2005 59.7935 95.1145 59.8305 95.0365C59.832 95.035 59.833 95.0335 59.834 95.032C59.835 95.0305 59.836 95.029 59.8375 95.0275C59.848 95.014 59.8565 95.002 59.8565 94.986C59.8895 94.9225 59.919 94.8575 59.9445 94.7905C60.023 94.6175 60.091 94.44 60.148 94.2585C60.1985 94.0955 60.2425 93.923 60.28 93.7525C60.2995 93.6645 60.3175 93.575 60.3305 93.487C60.3565 93.3245 60.374 93.1615 60.3875 92.9875C60.3875 92.937 60.3905 92.885 60.394 92.833V92.8325C60.397 92.7805 60.4005 92.7285 60.4005 92.6785C60.4015 92.1355 60.32 91.5955 60.1595 91.077C60.138 90.9935 60.111 90.911 60.078 90.8315C60.052 90.747 60.0195 90.664 59.982 90.584C59.7115 89.953 59.325 89.3785 58.843 88.89C58.785 88.8275 58.7235 88.7685 58.659 88.7125C58.473 88.537 58.272 88.378 58.0585 88.2375C58.0315 88.2205 58.0045 88.2025 57.9775 88.184C57.9345 88.155 57.8905 88.126 57.8435 88.099C57.256 87.732 56.6 87.4865 55.9155 87.378C55.65 87.3325 55.381 87.3095 55.1115 87.308L51.7215 87.2885L46.7632 87.264H46.6152C46.4687 87.251 46.3239 87.2445 46.1709 87.2445H45.4256C45.476 82.444 44.6119 78.8135 43.4386 76.1135C43.4572 76.077 49.0896 64.999 61.261 67.492ZM61.6955 105.524C61.6955 105.524 62.0305 104.595 62.493 102.969C62.1815 103.843 61.8355 104.695 61.4545 105.524H61.6955ZM54.884 105.523C55.0305 105.523 55.175 105.518 55.32 105.505C55.3 105.507 55.2805 105.508 55.2625 105.51C55.1485 105.519 55.104 105.523 55.574 105.523H54.884Z" fill="#7A97FF"/>
<path d="M64.986 85.7836L64.1865 85.8081L65.786 85.7896L64.986 85.7836ZM61.261 67.4921L62.0025 67.1911L61.8415 66.7946L61.4215 66.7086L61.261 67.4921ZM61.5835 67.5571L62.3175 67.2391L62.317 67.2386L61.5835 67.5571ZM58.5795 62.0551L57.8295 62.3336L57.862 62.4221L57.9145 62.5001L58.5795 62.0551ZM58.555 62.0226L57.89 62.4676L57.967 62.5821L58.0775 62.6646L58.555 62.0226ZM41.502 48.4816L41.8143 47.7451L41.771 47.7267L41.7258 47.7136L41.502 48.4816ZM34.799 46.5288L35.0228 45.7608L33.3652 45.2778L34.0684 46.8547L34.799 46.5288ZM18.8186 45.17L19.6051 45.3164L19.7831 44.3606L18.8108 44.37L18.8186 45.17ZM-4.07635 45.3929L-4.08414 44.593L-5.65626 44.6083L-4.71843 45.8702L-4.07635 45.3929ZM-5.08691 68.5481L-5.78511 68.1576L-6.48116 69.4021L-5.05641 69.3476L-5.08691 68.5481ZM-0.824931 68.3856L-0.0294113 68.4701L0.0682859 67.5511L-0.855456 67.5861L-0.824931 68.3856ZM2.77961 105.53L3.48088 105.145L3.4705 105.126L3.45912 105.107L2.77961 105.53ZM2.92607 105.764L2.27209 106.225L2.51232 106.566L2.9294 106.564L2.92607 105.764ZM39.3377 105.613V104.813H39.3343L39.3377 105.613ZM41.8682 105.613V106.413H42.4175L42.6148 105.9L41.8682 105.613ZM41.8926 105.53L42.6759 105.692L42.8758 104.73H41.8926V105.53ZM30.4134 104.417L30.9805 103.852L30.9788 103.851L30.4134 104.417ZM29.4776 102.867L28.7132 103.103L28.7136 103.104L29.4776 102.867ZM29.3149 101.741L30.1149 101.751L30.1149 101.747V101.743L29.3149 101.741ZM33.1033 97.9461V97.1461H33.1006L33.1033 97.9461ZM55.209 97.9591L55.3385 97.1696L55.3235 97.1671L55.3085 97.1651L55.209 97.9591ZM55.266 97.9591V97.1591H55.201L55.1365 97.1696L55.266 97.9591ZM55.2985 97.9591L55.445 98.7456L55.2985 97.1591V97.9591ZM55.0885 97.9966V98.7966H55.1895L55.287 98.7716L55.0885 97.9966ZM55.0775 97.9966V97.1966L55.06 98.7966L55.0775 97.9966ZM55.393 97.9836L55.3425 97.1851L55.326 97.1861L55.3095 97.1881L55.393 97.9836ZM55.907 97.9231L55.7865 97.1326L55.779 97.1336L55.7715 97.1351L55.907 97.9231ZM56.192 97.8696L56.05 97.0821L56.0335 97.0851L56.017 97.0891L56.192 97.8696ZM56.2915 97.8516L56.433 98.6391L56.447 98.6366L56.4605 98.6336L56.2915 97.8516ZM56.6525 97.7556L56.861 98.5281L56.877 98.5236L56.893 98.5186L56.6525 97.7556ZM57.341 97.4841L57.3105 96.6846L57.138 96.6911L56.983 96.7686L57.341 97.4841ZM57.3735 97.4726L57.0155 96.7571L56.954 96.7876L56.8985 96.8286L57.3735 97.4726ZM57.6695 97.3196L58.0465 98.0251L58.0525 98.0221L58.058 98.0191L57.6695 97.3196ZM58.252 96.9406L58.7345 97.5786L58.745 97.5706L58.7555 97.5621L58.252 96.9406ZM58.415 96.8086L57.9195 96.1806L57.9155 96.1836L57.9115 96.1871L58.415 96.8086ZM58.825 96.4406L58.2605 95.8741L58.2575 95.8771L58.2545 95.8801L58.825 96.4406ZM59.167 96.0616L59.789 96.5641L59.79 96.5636L59.167 96.0616ZM59.4775 95.6501L58.8145 95.2021L58.8115 95.2066L58.8085 95.2111L59.4775 95.6501ZM59.7055 95.2771L59.0115 94.8786L59.002 94.8951L58.9935 94.9121L59.7055 95.2771ZM59.8305 95.0366L59.184 94.5656L59.141 94.6246L59.1095 94.6906L59.8305 95.0366ZM59.8565 94.9861L59.1465 94.6176L59.0565 94.7911V94.9861H59.8565ZM59.9445 94.7906L59.216 94.4606L59.2065 94.4816L59.198 94.5036L59.9445 94.7906ZM60.148 94.2586L60.911 94.4986L60.912 94.4956L60.148 94.2586ZM60.28 93.7526L59.499 93.5791L59.4985 93.5811L60.28 93.7526ZM60.3305 93.4871L59.5405 93.3606L59.5395 93.3656L59.539 93.3701L60.3305 93.4871ZM60.3875 92.9876L61.185 93.0471L61.1875 93.0176V92.9876H60.3875ZM60.394 92.8331L61.192 92.8831L61.1925 92.8816L60.394 92.8331ZM60.394 92.8326L59.5955 92.7826V92.7841L60.394 92.8326ZM60.4005 92.6786L59.6005 92.6766V92.6786H60.4005ZM60.1595 91.0771L59.384 91.2736L59.389 91.2941L59.3955 91.3141L60.1595 91.0771ZM60.078 90.8316L59.314 91.0691L59.325 91.1036L59.3385 91.1366L60.078 90.8316ZM59.982 90.5841L59.247 90.8996L59.252 90.9116L59.258 90.9241L59.982 90.5841ZM58.843 88.8901L58.257 89.4351L58.265 89.4436L58.2735 89.4516L58.843 88.8901ZM58.659 88.7126L58.11 89.2946L58.1225 89.3061L58.1355 89.3176L58.659 88.7126ZM58.0585 88.2376L58.4985 87.5691L58.4915 87.5646L58.484 87.5601L58.0585 88.2376ZM57.9775 88.1841L58.4225 87.5196L58.421 87.5186L57.9775 88.1841ZM57.9775 88.1841L57.532 88.8486L57.5335 88.8496L57.9775 88.1841ZM57.8435 88.0991L57.42 88.7776L57.4325 88.7856L57.445 88.7926L57.8435 88.0991ZM55.9155 87.3781L55.7805 88.1666L55.7855 88.1676L55.79 88.1681L55.9155 87.3781ZM55.1115 87.3081L55.107 88.1081H55.108L55.1115 87.3081ZM51.7215 87.2886L51.7265 86.4886H51.7255L51.7215 87.2886ZM46.7632 87.2641L46.7671 86.4641H46.7632V87.2641ZM46.6151 87.2641L46.5443 88.0611L46.5796 88.0641H46.6151V87.2641ZM45.4255 87.2446L44.6256 87.2361L44.6171 88.0446H45.4255V87.2446ZM43.4385 76.1136L42.7198 75.7626L42.5577 76.0941L42.7048 76.4326L43.4385 76.1136ZM43.4385 76.1136L42.7255 75.7511L42.7226 75.7566L42.7198 75.7626L43.4385 76.1136ZM62.493 102.969L63.2625 103.188L61.739 102.701L62.493 102.969ZM61.6955 105.524V106.324H62.2575L62.448 105.795L61.6955 105.524ZM61.4545 105.524L60.7275 105.19L60.2065 106.324H61.4545V105.524ZM55.32 105.505L55.3915 106.302L55.2485 104.708L55.32 105.505ZM65.7855 85.7586C65.588 79.3166 64.2935 72.8346 62.0025 67.1911L60.52 67.7931C62.733 73.2446 63.994 79.5376 64.1865 85.8081L65.7855 85.7586ZM60.849 67.8751C63.411 73.7901 64.2295 80.0666 64.186 85.7771L65.786 85.7896C65.8305 79.9266 64.9925 73.4151 62.3175 67.2391L60.849 67.8751ZM57.9145 62.5001C59.0525 64.2001 60.035 65.9996 60.8495 67.8761L62.317 67.2386C61.464 65.2741 60.4355 63.3901 59.244 61.6101L57.9145 62.5001ZM58.0775 62.6646C57.9645 62.5806 57.8785 62.4656 57.8295 62.3336L59.3295 61.7771C59.2705 61.6186 59.1675 61.4811 59.032 61.3806L58.0775 62.6646ZM41.1898 49.2182C49.0803 52.5636 54.388 57.2341 57.89 62.4676L59.22 61.5776C55.5355 56.0711 49.9757 51.2051 41.8143 47.7451L41.1898 49.2182ZM34.5753 47.2969L41.2783 49.2497L41.7258 47.7136L35.0228 45.7608L34.5753 47.2969ZM35.1019 52.3336C35.9118 50.6476 36.0321 49.1374 35.942 48.0379C35.897 47.49 35.8001 47.0454 35.7117 46.7318C35.6675 46.5749 35.6254 46.4502 35.5926 46.3611C35.5762 46.3165 35.5622 46.2808 35.5514 46.2543C35.546 46.2411 35.5414 46.2301 35.5378 46.2216C35.5359 46.2173 35.5343 46.2136 35.533 46.2105C35.5323 46.2089 35.5317 46.2075 35.5311 46.2063C35.5309 46.2057 35.5306 46.2051 35.5303 46.2045C35.5302 46.2042 35.5301 46.2039 35.53 46.2037C35.5298 46.2034 35.5297 46.203 34.799 46.5288C34.0684 46.8547 34.0682 46.8543 34.0681 46.854C34.068 46.8539 34.0679 46.8535 34.0678 46.8533C34.0676 46.8529 34.0675 46.8526 34.0673 46.8522C34.067 46.8516 34.0668 46.851 34.0666 46.8506C34.0663 46.8498 34.0662 46.8496 34.0663 46.8499C34.0666 46.8505 34.0678 46.8533 34.0698 46.8583C34.0738 46.8682 34.0811 46.8866 34.0908 46.9131C34.1103 46.9661 34.1395 47.0513 34.1716 47.1655C34.236 47.3942 34.3119 47.7369 34.3473 48.1687C34.4178 49.0284 34.329 50.2476 33.6597 51.6406L35.1019 52.3336ZM25.2057 58.7566C27.4619 59.2801 29.584 58.4136 31.271 57.1056C32.96 55.7961 34.315 53.9711 35.1019 52.3336L33.6597 51.6406C32.9673 53.0816 31.7609 54.7011 30.2905 55.8411C28.818 56.9831 27.1826 57.5726 25.5673 57.1976L25.2057 58.7566ZM17.11 50.7151C16.7354 53.1581 17.8218 54.9851 19.4579 56.2671C21.0592 57.5221 23.2221 58.2961 25.2057 58.7566L25.5673 57.1976C23.6795 56.7596 21.779 56.0536 20.4449 55.0081C19.1457 53.9896 18.425 52.6951 18.6915 50.9576L17.11 50.7151ZM18.8186 45.17C18.0321 45.0236 18.0321 45.0236 18.0321 45.0236C18.0321 45.0239 18.0319 45.0247 18.0318 45.0252C18.0316 45.0261 18.0314 45.0274 18.0311 45.029C18.0305 45.0323 18.0296 45.0371 18.0285 45.0434C18.0262 45.056 18.0227 45.0747 18.0182 45.0997C18.0092 45.1499 17.9956 45.2255 17.9774 45.329C17.9411 45.536 17.8861 45.8546 17.8111 46.3037C17.6611 47.2017 17.4311 48.6218 17.11 50.7151L18.6915 50.9576C19.0117 48.8703 19.2406 47.4572 19.3892 46.5672C19.4635 46.1223 19.5178 45.8081 19.5533 45.6059C19.5711 45.5048 19.5841 45.4317 19.5927 45.3843C19.597 45.3605 19.6002 45.3432 19.6022 45.332C19.6032 45.3264 19.604 45.3223 19.6045 45.3197C19.6047 45.3185 19.6049 45.3175 19.605 45.317C19.605 45.3167 19.6051 45.3165 19.6051 45.3164C19.6051 45.3165 19.6051 45.3164 18.8186 45.17ZM-4.06856 46.1929L18.8264 45.97L18.8108 44.37L-4.08414 44.593L-4.06856 46.1929ZM-4.38873 68.9391C-0.894521 62.6921 0.0214014 57.5726 -0.290957 53.5476C-0.603126 49.5246 -2.13682 46.6614 -3.43426 44.9157L-4.71843 45.8702C-3.56186 47.4263 -2.17041 50.0081 -1.88616 53.6711C-1.6021 57.3321 -2.41848 62.1391 -5.78511 68.1576L-4.38873 68.9391ZM-0.855456 67.5861L-5.11746 67.7491L-5.05641 69.3476L-0.794405 69.1851L-0.855456 67.5861ZM3.45912 105.107C1.92996 102.646 0.919634 99.1506 0.285468 95.2196C-0.346227 91.3036 -0.593906 87.0276 -0.641136 83.0556C-0.688336 79.0866 -0.535241 75.4371 -0.370168 72.7791C-0.287663 71.4511 -0.202244 70.3716 -0.137551 69.6251C-0.105206 69.2516 -0.0780506 68.9621 -0.0590396 68.7661C-0.0495338 68.6681 -0.0420656 68.5936 -0.0370045 68.5436C-0.0344734 68.5186 -0.0325446 68.5001 -0.0312638 68.4876C-0.030623 68.4816 -0.0301447 68.4771 -0.0298343 68.4741C-0.0296788 68.4726 -0.0295653 68.4716 -0.0294948 68.4711C-0.029459 68.4706 -0.029429 68.4706 -0.0294113 68.4701C-0.0294013 68.4701 -0.0294113 68.4701 -0.824931 68.3856C-1.62045 68.3011 -1.62047 68.3011 -1.62051 68.3016C-1.62053 68.3016 -1.62058 68.3021 -1.62063 68.3026C-1.62073 68.3036 -1.62087 68.3051 -1.62106 68.3066C-1.62143 68.3101 -1.62197 68.3156 -1.62267 68.3221C-1.62408 68.3356 -1.62613 68.3556 -1.62879 68.3816C-1.6341 68.4341 -1.64181 68.5111 -1.65157 68.6116C-1.67108 68.8126 -1.69874 69.1081 -1.73158 69.4866C-1.79725 70.2446 -1.88369 71.3371 -1.96709 72.6801C-2.13384 75.3651 -2.28882 79.0556 -2.24103 83.0751C-2.19326 87.0916 -1.94287 91.4526 -1.29411 95.4746C-0.647816 99.4806 0.404704 103.223 2.1001 105.952L3.45912 105.107ZM3.58006 105.303C3.54548 105.254 3.51107 105.2 3.48088 105.145L2.07835 105.915C2.13929 106.026 2.20577 106.131 2.27209 106.225L3.58006 105.303ZM39.3343 104.813L2.92275 104.964L2.9294 106.564L39.341 106.413L39.3343 104.813ZM41.8682 104.813H39.3377V106.413H41.8682V104.813ZM41.1093 105.367C41.1122 105.353 41.1163 105.339 41.1215 105.325L42.6148 105.9C42.6408 105.832 42.6612 105.763 42.6759 105.692L41.1093 105.367ZM33.0882 106.33H41.8926V104.73H33.0887L33.0882 106.33ZM29.8462 104.981C30.7046 105.844 31.8712 106.329 33.0882 106.33L33.0887 104.73C32.2971 104.729 31.5388 104.413 30.9805 103.852L29.8462 104.981ZM28.7136 103.104C28.9335 103.813 29.3229 104.458 29.8479 104.982L30.9788 103.851C30.6376 103.51 30.3846 103.091 30.2417 102.63L28.7136 103.104ZM28.515 101.732C28.5094 102.196 28.5762 102.659 28.7132 103.103L30.2421 102.632C30.1542 102.346 30.1112 102.049 30.1149 101.751L28.515 101.732ZM33.1006 97.1461C30.5685 97.1546 28.5192 99.2076 28.5149 101.74L30.1149 101.743C30.1177 100.091 31.4544 98.7516 33.1061 98.7461L33.1006 97.1461ZM54.8835 97.1461H33.1033V98.7461H54.8835V97.1461ZM55.3085 97.1651C55.146 97.1451 54.9805 97.1461 54.8835 97.1461V98.7461C55.0015 98.7461 55.064 98.7471 55.11 98.7531L55.3085 97.1651ZM55.1365 97.1696C55.2035 97.1586 55.2715 97.1586 55.3385 97.1696L55.0795 98.7486C55.184 98.7656 55.291 98.7656 55.3955 98.7486L55.1365 97.1696ZM55.2985 97.1591H55.266V98.7591H55.2985V97.1591ZM55.3425 98.7626C55.366 98.7591 55.4045 98.7531 55.445 98.7456L55.1525 97.1726C55.142 97.1746 55.1295 97.1766 55.102 97.1806L55.3425 98.7626ZM55.287 98.7716C55.2845 98.7721 55.2865 98.7716 55.2955 98.7701C55.3065 98.7681 55.3185 98.7661 55.3425 98.7626L55.102 97.1806C55.0635 97.1866 54.9795 97.1986 54.8905 97.2216L55.287 98.7716ZM55.0775 98.7966H55.0885V97.1966H55.0775V98.7966ZM55.3095 97.1881C55.2385 97.1951 55.1665 97.1981 55.0945 97.1966L55.06 98.7966C55.199 98.7996 55.338 98.7936 55.476 98.7791L55.3095 97.1881ZM55.7715 97.1351C55.6295 97.1591 55.4865 97.1761 55.3425 97.1851L55.443 98.7821C55.644 98.7691 55.8445 98.7461 56.043 98.7116L55.7715 97.1351ZM56.017 97.0891C55.94 97.1061 55.8635 97.1206 55.7865 97.1326L56.028 98.7141C56.143 98.6966 56.2555 98.6751 56.367 98.6501L56.017 97.0891ZM56.1495 97.0646L56.05 97.0821L56.334 98.6571L56.433 98.6391L56.1495 97.0646ZM56.3265 97.0161C56.238 97.0411 56.178 97.0576 56.122 97.0696L56.4605 98.6336C56.573 98.6091 56.6815 98.5786 56.7615 98.5556L56.3265 97.0161ZM56.444 96.9836C56.4025 96.9946 56.362 97.0061 56.3265 97.0161L56.7615 98.5556C56.7985 98.5451 56.83 98.5366 56.861 98.5281L56.444 96.9836ZM56.7115 96.8841C56.5945 96.9291 56.503 96.9641 56.412 96.9926L56.893 98.5186C57.0395 98.4726 57.1765 98.4196 57.287 98.3766L56.7115 96.8841ZM56.983 96.7686C56.9055 96.8071 56.8215 96.8416 56.7115 96.8841L57.287 98.3766C57.4045 98.3316 57.5485 98.2746 57.6985 98.1996L56.983 96.7686ZM56.8985 96.8286C57.018 96.7406 57.1615 96.6901 57.3105 96.6846L57.3715 98.2836C57.5435 98.2766 57.7095 98.2186 57.8485 98.1166L56.8985 96.8286ZM57.2925 96.6141C57.205 96.6606 57.1105 96.7096 57.0155 96.7571L57.731 98.1881C57.838 98.1346 57.9455 98.0791 58.0465 98.0251L57.2925 96.6141ZM57.77 96.3021C57.6145 96.4196 57.4515 96.5256 57.281 96.6201L58.058 98.0191C58.2935 97.8881 58.5195 97.7411 58.7345 97.5786L57.77 96.3021ZM57.9115 96.1871L57.7485 96.3186L58.7555 97.5621L58.9185 97.4301L57.9115 96.1871ZM58.2545 95.8801C58.149 95.9871 58.0375 96.0876 57.9195 96.1806L58.9105 97.4366C59.081 97.3021 59.2435 97.1566 59.3955 97.0016L58.2545 95.8801ZM58.5445 95.5591C58.4555 95.6691 58.361 95.7741 58.2605 95.8741L59.3895 97.0076C59.5305 96.8671 59.664 96.7191 59.789 96.5641L58.5445 95.5591ZM58.561 95.5386L58.5435 95.5601L59.79 96.5636L59.807 96.5421L58.561 95.5386ZM58.8085 95.2111C58.7425 95.3121 58.666 95.4076 58.561 95.5386L59.807 96.5421C59.905 96.4206 60.031 96.2651 60.1465 96.0886L58.8085 95.2111ZM58.9935 94.9121C58.952 94.9936 58.8935 95.0856 58.8145 95.2021L60.1405 96.0976C60.2245 95.9736 60.329 95.8146 60.4175 95.6421L58.9935 94.9121ZM59.1095 94.6906C59.077 94.7581 59.0425 94.8251 59.0115 94.8786L60.399 95.6756C60.456 95.5766 60.5095 95.4711 60.552 95.3821L59.1095 94.6906ZM59.1945 94.5511C59.192 94.5546 59.1885 94.5596 59.184 94.5656L60.4775 95.5071C60.475 95.5106 60.4735 95.5126 60.4735 95.5131L59.1945 94.5511ZM59.201 94.5426C59.2005 94.5431 59.1975 94.5466 59.1945 94.5511L60.4735 95.5131V95.5126L59.201 94.5426ZM59.0565 94.9861C59.0565 94.8341 59.102 94.7126 59.1445 94.6321C59.1775 94.5706 59.2155 94.5236 59.201 94.5426L60.4735 95.5126C60.4745 95.5116 60.4865 95.4961 60.499 95.4781C60.5125 95.4586 60.5345 95.4256 60.5575 95.3831C60.607 95.2896 60.6565 95.1541 60.6565 94.9861H59.0565ZM59.198 94.5036C59.183 94.5426 59.166 94.5806 59.1465 94.6176L60.567 95.3541C60.6135 95.2646 60.655 95.1721 60.6915 95.0781L59.198 94.5036ZM59.385 94.0186C59.3375 94.1691 59.281 94.3166 59.216 94.4606L60.6735 95.1206C60.765 94.9186 60.8445 94.7106 60.911 94.4986L59.385 94.0186ZM59.4985 93.5811C59.4645 93.7351 59.426 93.8851 59.384 94.0216L60.912 94.4956C60.9705 94.3066 61.02 94.1116 61.0615 93.9236L59.4985 93.5811ZM59.539 93.3701C59.53 93.4321 59.516 93.5011 59.499 93.5791L61.061 93.9261C61.0825 93.8281 61.105 93.7181 61.1215 93.6046L59.539 93.3701ZM59.5895 92.9281C59.578 93.0841 59.562 93.2241 59.5405 93.3606L61.1205 93.6136C61.1505 93.4246 61.1705 93.2391 61.185 93.0471L59.5895 92.9281ZM59.5955 92.7826C59.5925 92.8301 59.5875 92.9076 59.5875 92.9876H61.1875C61.1875 92.9666 61.1885 92.9396 61.192 92.8831L59.5955 92.7826ZM59.5955 92.7841L59.595 92.7846L61.1925 92.8816V92.8811L59.5955 92.7841ZM59.6005 92.6786C59.6005 92.6996 59.599 92.7261 59.5955 92.7826L61.192 92.8826C61.195 92.8351 61.2005 92.7581 61.2005 92.6786H59.6005ZM59.3955 91.3141C59.532 91.7551 59.601 92.2146 59.6005 92.6766L61.2005 92.6801C61.2015 92.0561 61.1085 91.4361 60.9235 90.8401L59.3955 91.3141ZM59.3385 91.1366C59.357 91.1811 59.372 91.2271 59.384 91.2736L60.935 90.8806C60.9045 90.7601 60.865 90.6416 60.8175 90.5261L59.3385 91.1366ZM59.258 90.9241C59.28 90.9711 59.299 91.0196 59.314 91.0691L60.842 90.5936C60.805 90.4741 60.7595 90.3576 60.7065 90.2441L59.258 90.9241ZM58.2735 89.4516C58.6855 89.8696 59.0155 90.3606 59.247 90.8996L60.717 90.2686C60.407 89.5461 59.9645 88.8881 59.4125 88.3281L58.2735 89.4516ZM58.1355 89.3176C58.178 89.3546 58.219 89.3936 58.257 89.4351L59.4285 88.3451C59.351 88.2616 59.269 88.1821 59.1825 88.1076L58.1355 89.3176ZM57.6185 88.9056C57.7935 89.0206 57.9575 89.1506 58.11 89.2946L59.208 88.1306C58.9885 87.9236 58.751 87.7356 58.4985 87.5691L57.6185 88.9056ZM57.532 88.8486C57.5575 88.8656 57.594 88.8906 57.633 88.9151L58.484 87.5601C58.4685 87.5501 58.4515 87.5391 58.4225 87.5196L57.532 88.8486ZM57.445 88.7926C57.4645 88.8036 57.4855 88.8176 57.532 88.8486L58.4225 87.5196C58.383 87.4931 58.3165 87.4481 58.2425 87.4056L57.445 88.7926ZM55.79 88.1681C56.3685 88.2601 56.923 88.4671 57.42 88.7776L58.2675 87.4206C57.5885 86.9966 56.831 86.7136 56.0405 86.5881L55.79 88.1681ZM55.108 88.1081C55.3335 88.1091 55.5585 88.1286 55.7805 88.1666L56.05 86.5896C55.741 86.5366 55.4285 86.5096 55.115 86.5081L55.108 88.1081ZM51.717 88.0886L55.107 88.1081L55.116 86.5081L51.7265 86.4886L51.717 88.0886ZM46.7593 88.0641L51.718 88.0886L51.7255 86.4886L46.7671 86.4641L46.7593 88.0641ZM46.6151 88.0641H46.7632V86.4641H46.6151V88.0641ZM46.1708 88.0446C46.3003 88.0446 46.4215 88.0501 46.5443 88.0611L46.6859 86.4676C46.5158 86.4521 46.3473 86.4446 46.1708 86.4446V88.0446ZM45.4255 88.0446H46.1708V86.4446H45.4255V88.0446ZM42.7048 76.4326C43.8295 79.0206 44.6749 82.5381 44.6256 87.2361L46.2255 87.2531C46.277 82.3501 45.3942 78.6066 44.1723 75.7951L42.7048 76.4326ZM61.4215 66.7086C55.0415 65.4016 50.3495 67.6621 47.278 70.2416C44.2279 72.8036 42.7564 75.6901 42.7255 75.7511L44.1517 76.4761C44.1517 76.4761 44.1518 76.4761 44.152 76.4756C44.1524 76.4751 44.1531 76.4736 44.1542 76.4716C44.1563 76.4676 44.1597 76.4606 44.1645 76.4516C44.1741 76.4336 44.1891 76.4056 44.2096 76.3681C44.2505 76.2931 44.3132 76.1821 44.3979 76.0396C44.5673 75.7556 44.824 75.3486 45.1696 74.8671C45.8621 73.9016 46.9044 72.6451 48.307 71.4671C51.0995 69.1216 55.309 67.0896 61.1005 68.2761L61.4215 66.7086ZM61.7235 102.75C61.495 103.553 61.299 104.182 61.16 104.609C61.0905 104.822 61.0355 104.985 60.9985 105.093C60.98 105.148 60.9655 105.188 60.956 105.215C60.9515 105.228 60.948 105.238 60.946 105.244C60.9445 105.248 60.944 105.25 60.9435 105.251C60.943 105.252 60.943 105.252 60.943 105.252C60.943 105.253 60.943 105.253 60.943 105.253C60.943 105.252 60.943 105.252 61.6955 105.524C62.448 105.795 62.448 105.795 62.448 105.795L62.4485 105.794C62.4485 105.793 62.449 105.792 62.4495 105.791C62.4505 105.789 62.4515 105.786 62.453 105.782C62.456 105.774 62.46 105.762 62.4655 105.747C62.476 105.716 62.4915 105.671 62.5115 105.613C62.5515 105.497 62.6095 105.326 62.6815 105.103C62.826 104.659 63.0285 104.011 63.2625 103.188L61.7235 102.75ZM62.1815 105.858C62.5725 105.007 62.9275 104.134 63.2465 103.237L61.739 102.701C61.4355 103.553 61.0985 104.383 60.7275 105.19L62.1815 105.858ZM61.6955 104.724H61.4545V106.324H61.6955V104.724ZM55.2485 104.708C55.133 104.718 55.0125 104.723 54.884 104.723V106.323C55.048 106.323 55.2175 106.317 55.3915 106.302L55.2485 104.708ZM55.328 106.307C55.3455 106.306 55.3685 106.304 55.3915 106.302L55.2485 104.708C55.2325 104.709 55.2155 104.711 55.197 104.712L55.328 106.307ZM55.574 104.723C55.457 104.723 55.374 104.722 55.3175 104.722C55.252 104.721 55.24 104.721 55.249 104.721C55.25 104.721 55.275 104.723 55.308 104.728C55.319 104.729 55.3695 104.737 55.431 104.756C55.458 104.765 55.5335 104.79 55.6185 104.844C55.6735 104.88 55.9355 105.054 55.981 105.42C56.031 105.824 55.7765 106.068 55.7005 106.131C55.609 106.208 55.5225 106.245 55.495 106.256C55.4285 106.284 55.373 106.296 55.3625 106.298C55.3275 106.306 55.301 106.309 55.2995 106.309C55.289 106.31 55.288 106.31 55.328 106.307L55.197 104.712C55.18 104.714 55.131 104.718 55.0945 104.722C55.0865 104.723 55.055 104.727 55.017 104.736C55.0045 104.738 54.948 104.751 54.8805 104.779C54.8525 104.79 54.7655 104.827 54.674 104.904C54.598 104.968 54.343 105.211 54.393 105.616C54.4385 105.982 54.701 106.157 54.756 106.192C54.8415 106.247 54.917 106.272 54.9445 106.28C55.0075 106.301 55.059 106.308 55.072 106.31C55.109 106.316 55.14 106.318 55.1495 106.318C55.215 106.322 55.356 106.323 55.574 106.323V104.723ZM54.884 106.323H55.574V104.723H54.884V106.323Z" fill="#08111F"/>
<path d="M19.9277 38.803C19.9277 38.803 19.3777 42.1423 18.8081 45.1659C17.1808 45.1838 15.5534 45.1968 13.944 45.2099C13.1303 40.6305 14.014 37.0439 15.0636 34.6533C16.3866 37.6704 18.385 38.5882 19.9277 38.803Z" fill="#08111F"/>
<path d="M46.6738 50.8525C43.365 49.0707 39.8382 47.7277 36.1824 46.8572L34.9847 46.6505C34.9847 46.6505 34.0929 44.6228 34.088 44.6163C33.6698 43.5537 32.9766 42.1428 32.7618 41.0232C32.5001 39.7006 32.4365 38.3465 32.573 37.0053C32.8073 35.0134 33.7349 30.8003 35.4111 29.4724C36.8089 28.3723 37.385 28.6034 38.1775 26.8833C38.7471 25.6563 38.9782 23.5944 37.8716 22.6896C36.6446 21.697 36.1206 22.2014 34.6527 22.3544C29.0742 22.9077 25.8863 18.8931 23.8358 14.2535C23.5104 13.5001 23.1719 12.7043 22.6397 12.0631C22.0295 11.3243 21.1849 11.1583 20.4933 10.5611C20.1987 10.304 19.997 9.88412 20.1385 9.51962C20.222 9.34542 20.3432 9.19202 20.4933 9.07047C21.8003 7.86637 23.3699 6.98327 25.0775 6.49112C27.7785 5.71017 30.6325 5.62117 33.3769 6.23237C36.241 7.18112 38.8154 8.97772 40.5486 11.723C42.9391 15.5163 43.5152 19.4512 42.1759 23.3731C40.8041 27.3894 39.2727 32.107 41.8504 35.9719C45.2825 41.1062 47.3508 44.7172 46.6738 50.8525Z" fill="#08111F"/>
<path d="M18.8153 45.167C17.1879 45.1849 15.5606 45.1979 13.9512 45.2109C1.68758 45.2744 -10.0504 45.1035 -22.3531 47.3102" stroke="#08111F"/>
<path d="M34.7925 46.5322C35.2595 46.6347 35.7217 46.7421 36.1838 46.8577C37.9854 47.2931 39.7591 47.8365 41.4954 48.485C43.2768 49.1478 45.0079 49.9386 46.6753 50.851C46.679 50.848 46.6846 50.848 46.6883 50.851C49.3114 52.2725 51.736 54.033 53.899 56.088C55.7075 57.85 57.2715 59.8475 58.5485 62.026C58.5595 62.0345 58.568 62.0455 58.5725 62.0585C59.6085 63.7975 60.508 65.614 61.2625 67.4925C63.515 73.04 64.7925 79.427 64.9875 85.7835C65.165 91.787 64.374 97.764 62.5025 102.968C62.1915 103.842 61.8455 104.694 61.4645 105.523C61.44 105.586 61.4075 105.643 61.383 105.707" stroke="#08111F"/>
<path d="M2.48645 105.767C-3.80157 87.8955 -0.82355 68.371 -0.82355 68.371L-34.6005 69.4415C-37.5101 69.5335 -40.3172 68.362 -42.2978 66.2285C-44.2783 64.095 -45.2386 61.2085 -44.9308 58.314L-36.6574 28.1432L-34.8674 21.7071C-34.2966 19.6819 -34.4273 17.5233 -35.2384 15.5818L-36.0814 13.5704C-36.0814 13.5704 -37.6094 10.4541 -34.1839 10.747C-32.3417 10.9097 -30.5142 11.6925 -28.9683 12.6754C-27.7543 13.4484 -25.9024 14.9439 -26.4752 16.6021C-27.1522 18.5549 -29.8064 19.0431 -31.3653 17.9447" stroke="#08111F"/>
<path d="M22.2067 38.6579C21.47 38.8601 20.6998 38.9099 19.9431 38.8044C18.3939 38.5896 16.3955 37.6652 15.079 34.6547C14.8055 34.0394 14.5835 33.4026 14.415 32.7507C13.7446 30.2592 13.4517 26.793 13.8438 21.9598C13.9203 21.0306 14.0342 20.0868 14.1921 19.1446C14.4534 17.5055 14.8747 15.8959 15.45 14.339C15.45 14.339 15.45 14.326 15.463 14.3195C16.8984 10.5246 19.4223 7.322 23.6664 6.0901C26.8492 5.172 30.2331 5.2207 33.3881 6.23005C36.2522 7.1788 38.8267 8.97535 40.5598 11.7207C42.9504 15.514 43.5264 19.4489 42.1871 23.3707C40.8153 27.387 39.284 32.1046 41.8617 35.9696C45.2888 41.1119 47.3572 44.723 46.6932 50.858" stroke="#08111F" stroke-linecap="round"/>
<path d="M12.649 45.4014C11.4025 39.4242 13.0852 35.0662 14.4066 32.7505" stroke="#08111F"/>
<path d="M14.1924 19.1376C14.1924 19.1376 16.9214 16.2849 20.0833 20.791" stroke="#08111F" stroke-linecap="round"/>
<path fill-rule="evenodd" clip-rule="evenodd" d="M21.1404 33.5025C22.2942 34.2494 23.8564 33.7857 24.7059 32.6351C25.6286 31.387 25.998 29.7206 26.1982 28.2087C26.2112 28.0997 26.2258 27.9924 26.2356 27.8833C24.8279 30.0949 22.0957 30.6253 19.6905 30.8564C19.7816 31.5796 20.0505 32.269 20.4732 32.8629C20.6541 33.1156 20.8804 33.3324 21.1404 33.5025Z" stroke="#08111F" stroke-linecap="round" stroke-linejoin="round"/>
<path d="M33.673 43.4582L33.6665 43.4517" stroke="#08111F"/>
<path d="M23.0366 18.1825C23.0366 18.1825 23.9642 16.6805 27.1342 17.7871C30.3043 18.8937 30.3417 20.7016 30.3417 20.7016" stroke="#08111F" stroke-linecap="round"/>
<path d="M15.7314 21.9951C15.7314 21.9951 17.196 21.2547 18.3433 21.9951" stroke="#08111F" stroke-linecap="round"/>
<path d="M23.624 22.6777C23.624 22.6777 25.0886 21.9373 26.2278 22.6777" stroke="#08111F" stroke-linecap="round"/>
<path d="M19.9281 38.804C19.9281 38.804 19.378 42.1433 18.8085 45.1669C18.7255 45.5965 18.6457 46.0196 18.5741 46.4379C18.2015 48.4737 17.9037 50.2835 17.8907 50.8315C17.7963 55.388 22.1038 58.0165 26.2649 57.9725C32.1038 57.909 35.5179 52.477 34.9679 47.0367C34.6083 46.044 34.2405 45.0514 33.8808 44.0587C33.4187 42.7861 32.8182 41.5477 32.5578 40.2068C32.3279 38.8857 32.3027 37.5372 32.483 36.2084C32.7173 34.2231 33.103 31.263 34.7791 29.9351C36.177 28.835 37.6367 28.1124 38.4341 26.3924C39.0037 25.1653 38.9777 23.5852 37.8711 22.6804C36.6441 21.6877 34.7027 21.8082 33.2348 21.953C23.767 22.9213 22.1917 13.3379 19.6303 11.9921C17.531 10.8839 15.9558 13.3704 15.4627 14.2931L15.4431 14.3322C15.4424 14.3414 15.4383 14.3501 15.4318 14.3566C15.3423 14.5193 15.2983 14.6284 15.2983 14.6284" stroke="#08111F"/>
<path d="M19.6862 23.0986C19.6862 23.0986 18.6967 26.337 18.7732 26.8219C18.8497 27.3069 20.0035 26.9684 20.0035 26.9684" stroke="#08111F" stroke-linecap="round"/>
<path d="M27.4394 26.5167C28.9551 25.0036 28.9274 22.5183 27.3775 20.9657C25.8275 19.413 23.3423 19.381 21.8265 20.8941C20.3108 22.4072 20.3385 24.8925 21.8884 26.4451C23.4384 27.9977 25.9236 28.0298 27.4394 26.5167Z" stroke="#08111F"/>
<path d="M17.5472 25.314C19.063 23.8009 19.0353 21.3157 17.4854 19.763C15.9354 18.2104 13.4502 18.1783 11.9344 19.6914C10.4187 21.2045 10.4464 23.6898 11.9963 25.2425C13.5463 26.7951 16.0315 26.8272 17.5472 25.314Z" stroke="#08111F"/>
<path d="M20.7234 23.2269L18.6469 22.9746" stroke="#08111F"/>
</g>
</g>
</g>
</g>
<defs>
<filter id="filter0_d_236_893" x="-12" y="-10" width="74.0005" height="73.9995" filterUnits="userSpaceOnUse" color-interpolation-filters="sRGB">
<feFlood flood-opacity="0" result="BackgroundImageFix"/>
<feColorMatrix in="SourceAlpha" type="matrix" values="0 0 0 0 0 0 0 0 0 0 0 0 0 0 0 0 0 0 127 0" result="hardAlpha"/>
<feOffset dy="2"/>
<feGaussianBlur stdDeviation="6"/>
<feComposite in2="hardAlpha" operator="out"/>
<feColorMatrix type="matrix" values="0 0 0 0 0.123438 0 0 0 0 0.181042 0 0 0 0 0.329167 0 0 0 0.06 0"/>
<feBlend mode="normal" in2="BackgroundImageFix" result="effect1_dropShadow_236_893"/>
<feBlend mode="normal" in="SourceGraphic" in2="effect1_dropShadow_236_893" result="shape"/>
</filter>
<clipPath id="clip0_236_893">
<rect width="50" height="50" rx="25" fill="white"/>
</clipPath>
</defs>
</svg>
