<svg width="30" height="31" viewBox="0 0 30 31" fill="none" xmlns="http://www.w3.org/2000/svg">
<path d="M9.61539 30.5C12.3754 30.5 14.6154 28.26 14.6154 25.5V20.5H9.61539C6.85539 20.5 4.61539 22.74 4.61539 25.5C4.61539 28.26 6.85539 30.5 9.61539 30.5Z" fill="#0ACF83"/>
<path d="M4.61539 15.4999C4.61539 12.7399 6.85539 10.4999 9.61539 10.4999H14.6154V20.4999H9.61539C6.85539 20.4999 4.61539 18.2599 4.61539 15.4999Z" fill="#A259FF"/>
<path d="M4.61539 5.5C4.61539 2.74 6.85539 0.5 9.61539 0.5H14.6154V10.5H9.61539C6.85539 10.5 4.61539 8.26 4.61539 5.5Z" fill="#F24E1E"/>
<path d="M14.6173 0.5H19.6173C22.3773 0.5 24.6173 2.74 24.6173 5.5C24.6173 8.26 22.3773 10.5 19.6173 10.5H14.6173V0.5Z" fill="#FF7262"/>
<path d="M24.6173 15.4999C24.6173 18.2599 22.3773 20.4999 19.6173 20.4999C16.8573 20.4999 14.6173 18.2599 14.6173 15.4999C14.6173 12.7399 16.8573 10.4999 19.6173 10.4999C22.3773 10.4999 24.6173 12.7399 24.6173 15.4999Z" fill="#1ABCFE"/>
</svg>
