<svg width="120" height="50" viewBox="0 0 120 50" fill="none" xmlns="http://www.w3.org/2000/svg">
<g opacity="0.3">
<path fill-rule="evenodd" clip-rule="evenodd" d="M99.2414 14.5247C99.0995 17.4467 100.287 19.7377 102.883 20.5539C103.666 17.7044 102.164 15.8155 99.2414 14.5247Z" fill="#7780A1"/>
<path fill-rule="evenodd" clip-rule="evenodd" d="M97.9292 20.187C97.7873 23.1096 98.9749 25.4001 101.571 26.2163C102.354 23.3668 100.852 21.4782 97.9292 20.187Z" fill="#7780A1"/>
<path fill-rule="evenodd" clip-rule="evenodd" d="M100.249 8.5C100.107 11.4225 101.294 13.7131 103.891 14.5293C104.674 11.6797 103.172 9.79121 100.249 8.5Z" fill="#7780A1"/>
<path fill-rule="evenodd" clip-rule="evenodd" d="M109.429 15.2168C106.509 16.1392 104.686 18.0142 104.815 20.611C107.893 20.2843 109.209 18.2742 109.429 15.2168Z" fill="#7780A1"/>
<path fill-rule="evenodd" clip-rule="evenodd" d="M95.8244 25.0459C95.6825 27.9684 96.8701 30.259 99.4657 31.0752C100.249 28.2256 98.747 26.3371 95.8244 25.0459Z" fill="#7780A1"/>
<path fill-rule="evenodd" clip-rule="evenodd" d="M93.3446 29.6973C93.2033 32.6198 94.3903 34.9103 96.9865 35.7265C97.7695 32.877 96.2672 30.9885 93.3446 29.6973Z" fill="#7780A1"/>
<path d="M104.242 15.2278C104.24 15.2778 104.661 28.4476 94.0239 41.2823L95.971 41.8336C101.048 34.9341 104.691 25.4144 104.242 15.2273L104.242 15.2278Z" fill="#7780A1"/>
<path fill-rule="evenodd" clip-rule="evenodd" d="M110 10.1223C107.08 11.0442 105.257 12.9197 105.386 15.5165C108.465 15.1898 109.78 13.1797 110 10.1223Z" fill="#7780A1"/>
<path fill-rule="evenodd" clip-rule="evenodd" d="M109.198 21.6321C106.184 22.2197 104.14 23.8768 103.945 26.4698C107.042 26.4917 108.599 24.6434 109.198 21.6321Z" fill="#7780A1"/>
<path fill-rule="evenodd" clip-rule="evenodd" d="M108.422 27.7021C105.354 27.92 103.105 29.3165 102.565 31.8649C105.634 32.2612 107.426 30.6163 108.422 27.7021Z" fill="#7780A1"/>
<path fill-rule="evenodd" clip-rule="evenodd" d="M106.347 33.7495C103.275 33.583 100.853 34.687 99.9657 37.1463C102.954 37.9218 104.957 36.5144 106.347 33.7495Z" fill="#7780A1"/>
</g>
<path d="M69.932 32.9898C67.9762 34.5544 65.2381 35.7279 62.5 35.7279C56.2415 35.7279 51.9388 31.034 51.9388 24.7755C51.9388 18.517 56.2415 14.2143 62.5 14.2143C65.2381 14.2143 67.9762 14.9966 69.932 16.9524L71.1054 18.1258L77.3639 12.2585L75.7993 11.085C72.2789 7.95577 67.585 6 62.5 6C51.5476 6 43.3333 14.2143 43.3333 25.1667C43.3333 36.119 51.5476 44.3333 62.5 44.3333C67.585 44.3333 72.2789 42.3776 75.7993 39.2483L77.3639 38.0748L71.1054 31.8163L69.932 32.9898Z" fill="#7780A1"/>
<path opacity="0.5" d="M62.1088 31.4252C65.5653 31.4252 68.3673 28.6232 68.3673 25.1667C68.3673 21.7102 65.5653 18.9082 62.1088 18.9082C58.6524 18.9082 55.8503 21.7102 55.8503 25.1667C55.8503 28.6232 58.6524 31.4252 62.1088 31.4252Z" fill="#7780A1"/>
<g opacity="0.3">
<path fill-rule="evenodd" clip-rule="evenodd" d="M20.7587 14.5247C20.9005 17.4467 19.713 19.7377 17.1173 20.5539C16.3343 17.7044 17.836 15.8155 20.7587 14.5247Z" fill="#7780A1"/>
<path fill-rule="evenodd" clip-rule="evenodd" d="M22.0708 20.187C22.2126 23.1096 21.0251 25.4001 18.4295 26.2163C17.6459 23.3668 19.1482 21.4782 22.0708 20.187Z" fill="#7780A1"/>
<path fill-rule="evenodd" clip-rule="evenodd" d="M19.7513 8.5C19.8927 11.4225 18.7056 13.7131 16.1095 14.5293C15.3264 11.6797 16.8282 9.79121 19.7513 8.5Z" fill="#7780A1"/>
<path fill-rule="evenodd" clip-rule="evenodd" d="M10.5709 15.2168C13.4911 16.1392 15.3143 18.0142 15.1849 20.611C12.1067 20.2843 10.7906 18.2742 10.5709 15.2168Z" fill="#7780A1"/>
<path fill-rule="evenodd" clip-rule="evenodd" d="M24.1756 25.0459C24.3175 27.9684 23.13 30.259 20.5343 31.0752C19.7507 28.2256 21.253 26.3371 24.1756 25.0459Z" fill="#7780A1"/>
<path fill-rule="evenodd" clip-rule="evenodd" d="M26.6554 29.6973C26.7968 32.6198 25.6097 34.9103 23.0136 35.7265C22.2305 32.877 23.7328 30.9885 26.6554 29.6973Z" fill="#7780A1"/>
<path d="M15.7584 15.2278C15.7603 15.2778 15.3385 28.4476 25.9761 41.2823L24.029 41.8336C18.9516 34.9341 15.3087 25.4144 15.7582 15.2273L15.7584 15.2278Z" fill="#7780A1"/>
<path fill-rule="evenodd" clip-rule="evenodd" d="M10 10.1223C12.9202 11.0442 14.7428 12.9197 14.6139 15.5165C11.5353 15.1898 10.2196 13.1797 10 10.1223Z" fill="#7780A1"/>
<path fill-rule="evenodd" clip-rule="evenodd" d="M10.802 21.6321C13.8165 22.2197 15.8605 23.8768 16.0549 26.4698C12.9576 26.4917 11.4008 24.6434 10.802 21.6321Z" fill="#7780A1"/>
<path fill-rule="evenodd" clip-rule="evenodd" d="M11.5777 27.7021C14.6458 27.92 16.895 29.3165 17.4351 31.8649C14.366 32.2612 12.5744 30.6163 11.5777 27.7021Z" fill="#7780A1"/>
<path fill-rule="evenodd" clip-rule="evenodd" d="M13.653 33.7495C16.7252 33.583 19.1473 34.687 20.0343 37.1463C17.0459 37.9218 15.043 36.5144 13.653 33.7495Z" fill="#7780A1"/>
</g>
</svg>
