<svg width="121" height="50" viewBox="0 0 121 50" fill="none" xmlns="http://www.w3.org/2000/svg">
<g opacity="0.3">
<path fill-rule="evenodd" clip-rule="evenodd" d="M99.2053 14.0515C99.063 16.9834 100.254 19.282 102.859 20.1009C103.644 17.2419 102.138 15.3466 99.2053 14.0515Z" fill="#7780A1"/>
<path fill-rule="evenodd" clip-rule="evenodd" d="M97.8888 19.7327C97.7464 22.665 98.9379 24.9632 101.542 25.7821C102.328 22.923 100.821 21.0282 97.8888 19.7327Z" fill="#7780A1"/>
<path fill-rule="evenodd" clip-rule="evenodd" d="M100.216 8.00659C100.074 10.9389 101.265 13.2371 103.87 14.056C104.656 11.197 103.149 9.30212 100.216 8.00659Z" fill="#7780A1"/>
<path fill-rule="evenodd" clip-rule="evenodd" d="M109.427 14.7458C106.497 15.6713 104.668 17.5526 104.798 20.1581C107.886 19.8303 109.207 17.8134 109.427 14.7458Z" fill="#7780A1"/>
<path fill-rule="evenodd" clip-rule="evenodd" d="M95.7769 24.6082C95.6346 27.5405 96.8261 29.8386 99.4305 30.6576C100.217 27.7985 98.7094 25.9037 95.7769 24.6082Z" fill="#7780A1"/>
<path fill-rule="evenodd" clip-rule="evenodd" d="M93.2889 29.2749C93.147 32.2072 94.3381 34.5054 96.9429 35.3243C97.7286 32.4653 96.2213 30.5704 93.2889 29.2749Z" fill="#7780A1"/>
<path d="M104.222 14.7571C104.22 14.8072 104.644 28.0211 93.9704 40.8988L95.924 41.4519C101.018 34.5293 104.673 24.9777 104.222 14.7566L104.222 14.7571Z" fill="#7780A1"/>
<path fill-rule="evenodd" clip-rule="evenodd" d="M110 9.63452C107.07 10.5595 105.241 12.4413 105.371 15.0467C108.46 14.719 109.78 12.7021 110 9.63452Z" fill="#7780A1"/>
<path fill-rule="evenodd" clip-rule="evenodd" d="M109.195 21.1826C106.171 21.7722 104.12 23.4349 103.925 26.0365C107.032 26.0585 108.594 24.204 109.195 21.1826Z" fill="#7780A1"/>
<path fill-rule="evenodd" clip-rule="evenodd" d="M108.417 27.2729C105.339 27.4916 103.082 28.8927 102.54 31.4497C105.619 31.8472 107.417 30.1968 108.417 27.2729Z" fill="#7780A1"/>
<path fill-rule="evenodd" clip-rule="evenodd" d="M106.335 33.3406C103.252 33.1736 100.822 34.2813 99.9321 36.7488C102.931 37.5268 104.94 36.1147 106.335 33.3406Z" fill="#7780A1"/>
</g>
<path d="M74.4566 27.8561C71.9947 27.8561 69.6904 26.7999 67.5938 25.0801L68.1042 22.6536L68.1267 22.5649C68.5821 19.9814 70.0232 15.6426 74.4566 15.6426C77.7817 15.6426 80.4863 18.3857 80.4863 21.7544C80.4763 25.113 77.7717 27.8561 74.4566 27.8561ZM74.4566 9.44976C68.7922 9.44976 64.4013 13.1807 62.6174 19.3153C59.8903 15.169 57.8287 10.1919 56.6203 6H50.5255V22.0786C50.5255 25.2472 47.9761 27.8307 44.8486 27.8307C41.7212 27.8307 39.1742 25.2472 39.1742 22.0786V6H33.077V22.0786C33.0545 28.6641 38.3436 34.0692 44.8386 34.0692C51.3337 34.0692 56.6228 28.6641 56.6228 22.0786V19.3811C57.8087 21.8861 59.2598 24.4139 61.0237 26.6631L57.2883 44.4615H63.5307L66.2353 31.5515C68.6071 33.0915 71.3342 34.0565 74.4617 34.0565C81.1469 34.0565 86.5886 28.5045 86.5886 21.7291C86.5836 14.9663 81.1418 9.44976 74.4566 9.44976Z" fill="#7780A1"/>
<g opacity="0.3">
<path fill-rule="evenodd" clip-rule="evenodd" d="M20.7945 14.0515C20.9368 16.9834 19.7453 19.282 17.141 20.1009C16.3553 17.2419 17.8621 15.3466 20.7945 14.0515Z" fill="#7780A1"/>
<path fill-rule="evenodd" clip-rule="evenodd" d="M22.1111 19.7327C22.2534 22.665 21.0619 24.9632 18.4575 25.7821C17.6714 22.923 19.1786 21.0282 22.1111 19.7327Z" fill="#7780A1"/>
<path fill-rule="evenodd" clip-rule="evenodd" d="M19.7838 8.00659C19.9256 10.9389 18.7346 13.2371 16.1298 14.056C15.3441 11.197 16.8509 9.30212 19.7838 8.00659Z" fill="#7780A1"/>
<path fill-rule="evenodd" clip-rule="evenodd" d="M10.5727 14.7458C13.5026 15.6713 15.3318 17.5526 15.202 20.1581C12.1136 19.8303 10.793 17.8134 10.5727 14.7458Z" fill="#7780A1"/>
<path fill-rule="evenodd" clip-rule="evenodd" d="M24.2229 24.6082C24.3652 27.5405 23.1738 29.8386 20.5694 30.6576C19.7832 27.7985 21.2905 25.9037 24.2229 24.6082Z" fill="#7780A1"/>
<path fill-rule="evenodd" clip-rule="evenodd" d="M26.711 29.2749C26.8528 32.2072 25.6618 34.5054 23.057 35.3243C22.2713 32.4653 23.7786 30.5704 26.711 29.2749Z" fill="#7780A1"/>
<path d="M15.7775 14.7571C15.7794 14.8072 15.3562 28.0211 26.0294 40.8988L24.0757 41.4519C18.9814 34.5293 15.3263 24.9777 15.7773 14.7566L15.7775 14.7571Z" fill="#7780A1"/>
<path fill-rule="evenodd" clip-rule="evenodd" d="M9.9999 9.63452C12.9299 10.5595 14.7586 12.4413 14.6292 15.0467C11.5403 14.719 10.2203 12.7021 9.9999 9.63452Z" fill="#7780A1"/>
<path fill-rule="evenodd" clip-rule="evenodd" d="M10.8046 21.1826C13.8292 21.7722 15.88 23.4349 16.0751 26.0365C12.9675 26.0585 11.4055 24.204 10.8046 21.1826Z" fill="#7780A1"/>
<path fill-rule="evenodd" clip-rule="evenodd" d="M11.5828 27.2729C14.6612 27.4916 16.9179 28.8927 17.4598 31.4497C14.3805 31.8472 12.5829 30.1968 11.5828 27.2729Z" fill="#7780A1"/>
<path fill-rule="evenodd" clip-rule="evenodd" d="M13.665 33.3406C16.7476 33.1736 19.1777 34.2813 20.0677 36.7488C17.0693 37.5268 15.0597 36.1147 13.665 33.3406Z" fill="#7780A1"/>
</g>
</svg>
