<svg width="121" height="50" viewBox="0 0 121 50" fill="none" xmlns="http://www.w3.org/2000/svg">
<g opacity="0.3">
<path fill-rule="evenodd" clip-rule="evenodd" d="M99.2413 14.1912C99.0995 17.1132 100.287 19.4042 102.883 20.2204C103.666 17.3709 102.164 15.482 99.2413 14.1912Z" fill="#7780A1"/>
<path fill-rule="evenodd" clip-rule="evenodd" d="M97.9292 19.8538C97.7874 22.7763 98.9749 25.0668 101.571 25.883C102.354 23.0335 100.852 21.145 97.9292 19.8538Z" fill="#7780A1"/>
<path fill-rule="evenodd" clip-rule="evenodd" d="M100.249 8.16675C100.107 11.0893 101.294 13.3798 103.891 14.196C104.674 11.3465 103.172 9.45796 100.249 8.16675Z" fill="#7780A1"/>
<path fill-rule="evenodd" clip-rule="evenodd" d="M109.429 14.8833C106.509 15.8057 104.686 17.6807 104.815 20.2775C107.893 19.9508 109.209 17.9407 109.429 14.8833Z" fill="#7780A1"/>
<path fill-rule="evenodd" clip-rule="evenodd" d="M95.8244 24.7126C95.6826 27.6352 96.8701 29.9257 99.4658 30.7419C100.249 27.8924 98.7471 26.0039 95.8244 24.7126Z" fill="#7780A1"/>
<path fill-rule="evenodd" clip-rule="evenodd" d="M93.3446 29.364C93.2033 32.2866 94.3903 34.5771 96.9865 35.3933C97.7696 32.5438 96.2673 30.6552 93.3446 29.364Z" fill="#7780A1"/>
<path d="M104.242 14.8945C104.24 14.9445 104.661 28.1144 94.0239 40.9491L95.971 41.5004C101.048 34.6009 104.691 25.0811 104.242 14.894L104.242 14.8945Z" fill="#7780A1"/>
<path fill-rule="evenodd" clip-rule="evenodd" d="M110 9.78906C107.08 10.711 105.257 12.5865 105.386 15.1832C108.465 14.8566 109.78 12.8464 110 9.78906Z" fill="#7780A1"/>
<path fill-rule="evenodd" clip-rule="evenodd" d="M109.198 21.2988C106.184 21.8864 104.14 23.5436 103.945 26.1366C107.042 26.1584 108.599 24.3101 109.198 21.2988Z" fill="#7780A1"/>
<path fill-rule="evenodd" clip-rule="evenodd" d="M108.422 27.3687C105.354 27.5865 103.105 28.983 102.565 31.5315C105.634 31.9277 107.426 30.2828 108.422 27.3687Z" fill="#7780A1"/>
<path fill-rule="evenodd" clip-rule="evenodd" d="M106.347 33.4162C103.275 33.2498 100.853 34.3538 99.9658 36.8131C102.954 37.5885 104.957 36.1811 106.347 33.4162Z" fill="#7780A1"/>
</g>
<path d="M59.1667 5.38354C69.9089 5.38354 78.6003 14.0749 78.6003 24.8009C78.6003 35.5268 69.9089 44.2344 59.1667 44.2344C48.4245 44.2344 39.7331 35.543 39.7331 24.8171C39.7331 14.0912 48.4245 5.38354 59.1667 5.38354Z" fill="#7780A1"/>
<path d="M59.1667 45.6178C47.6758 45.6178 38.3333 36.2917 38.3333 24.8171C38.3333 13.3262 47.6758 4 59.1667 4C70.6576 4 80 13.3262 80 24.8008C80 36.2754 70.6576 45.6178 59.1667 45.6178ZM76.7285 27.6491C76.1263 27.4538 71.2272 26.0052 65.6445 26.8841C67.972 33.2643 68.916 38.4726 69.0951 39.5469C73.099 36.8613 75.9473 32.597 76.7285 27.6491ZM66.1165 41.1907C65.8561 39.6282 64.8145 34.192 62.3242 27.7142C62.2917 27.7305 62.2428 27.7467 62.2103 27.7467C52.168 31.2461 48.571 38.196 48.2455 38.847C51.2565 41.1907 55.0488 42.5905 59.1667 42.5905C61.6244 42.6068 63.9844 42.1022 66.1165 41.1907ZM45.9505 36.7148C46.3574 36.0312 51.2402 27.9583 60.4199 24.9798C60.6478 24.8984 60.8919 24.8333 61.1198 24.7682C60.6803 23.7591 60.1921 22.75 59.6712 21.7572C50.7845 24.4102 42.1582 24.2962 41.377 24.2799C41.377 24.459 41.3607 24.638 41.3607 24.8171C41.377 29.3906 43.1022 33.5573 45.9505 36.7148ZM41.7513 21.1875C42.5488 21.2038 49.8731 21.2363 58.2064 19.0228C55.2604 13.7819 52.0703 9.38737 51.6146 8.7526C46.6178 11.0964 42.9069 15.6862 41.7513 21.1875ZM55 7.54818C55.4883 8.19922 58.7272 12.5937 61.6406 17.9486C67.972 15.5723 70.6413 11.9915 70.9668 11.5358C67.8255 8.7526 63.6914 7.05989 59.1667 7.05989C57.7344 7.05989 56.3346 7.23893 55 7.54818ZM72.9362 13.5866C72.5619 14.0911 69.5833 17.916 63.0078 20.6016C63.4147 21.4479 63.8216 22.3105 64.196 23.1732C64.3262 23.4824 64.4564 23.7917 64.5866 24.0846C70.5111 23.3359 76.3867 24.5404 76.9727 24.6543C76.9238 20.4714 75.4264 16.6139 72.9362 13.5866Z" fill="#08111F"/>
<g opacity="0.3">
<path fill-rule="evenodd" clip-rule="evenodd" d="M20.7587 14.1912C20.9006 17.1132 19.7131 19.4042 17.1174 20.2204C16.3343 17.3709 17.8361 15.482 20.7587 14.1912Z" fill="#7780A1"/>
<path fill-rule="evenodd" clip-rule="evenodd" d="M22.0708 19.8538C22.2127 22.7763 21.0251 25.0668 18.4295 25.883C17.6459 23.0335 19.1482 21.145 22.0708 19.8538Z" fill="#7780A1"/>
<path fill-rule="evenodd" clip-rule="evenodd" d="M19.7514 8.16675C19.8927 11.0893 18.7057 13.3798 16.1095 14.196C15.3265 11.3465 16.8282 9.45796 19.7514 8.16675Z" fill="#7780A1"/>
<path fill-rule="evenodd" clip-rule="evenodd" d="M10.5709 14.8833C13.4911 15.8057 15.3143 17.6807 15.1849 20.2775C12.1067 19.9508 10.7906 17.9407 10.5709 14.8833Z" fill="#7780A1"/>
<path fill-rule="evenodd" clip-rule="evenodd" d="M24.1756 24.7126C24.3175 27.6352 23.13 29.9257 20.5343 30.7419C19.7507 27.8924 21.253 26.0039 24.1756 24.7126Z" fill="#7780A1"/>
<path fill-rule="evenodd" clip-rule="evenodd" d="M26.6554 29.364C26.7968 32.2866 25.6098 34.5771 23.0136 35.3933C22.2305 32.5438 23.7328 30.6552 26.6554 29.364Z" fill="#7780A1"/>
<path d="M15.7584 14.8945C15.7604 14.9445 15.3385 28.1144 25.9761 40.9491L24.029 41.5004C18.9516 34.6009 15.3088 25.0811 15.7583 14.894L15.7584 14.8945Z" fill="#7780A1"/>
<path fill-rule="evenodd" clip-rule="evenodd" d="M10 9.78906C12.9202 10.711 14.7428 12.5865 14.6139 15.1832C11.5353 14.8566 10.2196 12.8464 10 9.78906Z" fill="#7780A1"/>
<path fill-rule="evenodd" clip-rule="evenodd" d="M10.802 21.2988C13.8165 21.8864 15.8605 23.5436 16.0549 26.1366C12.9577 26.1584 11.4009 24.3101 10.802 21.2988Z" fill="#7780A1"/>
<path fill-rule="evenodd" clip-rule="evenodd" d="M11.5777 27.3687C14.6458 27.5865 16.895 28.983 17.4351 31.5315C14.366 31.9277 12.5744 30.2828 11.5777 27.3687Z" fill="#7780A1"/>
<path fill-rule="evenodd" clip-rule="evenodd" d="M13.6529 33.4162C16.7252 33.2498 19.1473 34.3538 20.0342 36.8131C17.0459 37.5885 15.0429 36.1811 13.6529 33.4162Z" fill="#7780A1"/>
</g>
</svg>
