<svg width="30" height="28" viewBox="0 0 30 28" fill="none" xmlns="http://www.w3.org/2000/svg">
<path fill-rule="evenodd" clip-rule="evenodd" d="M6.0757 10.3342L14.9998 27.8013L0 10.3342H6.0757Z" fill="#EA6C00"/>
<path fill-rule="evenodd" clip-rule="evenodd" d="M23.9243 10.3342L15.0002 27.8013L30 10.3342H23.9243Z" fill="#EA6C00"/>
<path fill-rule="evenodd" clip-rule="evenodd" d="M6.07446 10.3342H23.9227L14.9986 27.8013L6.07446 10.3342Z" fill="#FDAD00"/>
<path fill-rule="evenodd" clip-rule="evenodd" d="M14.9986 0.65387L6.54417 1.54755L6.07446 10.3341L14.9986 0.65387Z" fill="#FDD231"/>
<path fill-rule="evenodd" clip-rule="evenodd" d="M15.0012 0.65387L23.4556 1.54755L23.9253 10.3341L15.0012 0.65387Z" fill="#FDD231"/>
<path fill-rule="evenodd" clip-rule="evenodd" d="M30 10.334L23.4546 1.54736L23.9243 10.334H30Z" fill="#FDAD00"/>
<path fill-rule="evenodd" clip-rule="evenodd" d="M0 10.3341L6.5454 1.54749L6.07569 10.3341H0Z" fill="#FDAD00"/>
<path fill-rule="evenodd" clip-rule="evenodd" d="M14.9986 0.65387L6.07446 10.3341H23.9227L14.9986 0.65387Z" fill="#FEEEB7"/>
</svg>
