<svg width="199" height="186" viewBox="0 0 199 186" fill="none" xmlns="http://www.w3.org/2000/svg">
<path opacity="0.1" d="M50 115L14.1027 185.641L15.1458 106.409L-49.4684 152.277L-11.7238 82.6049L-90.2524 93.1907L-24.4532 49.0403L-98.9063 21.9195L-20.1262 13.4046L-73.4476 -45.2097L0.265808 -16.1383L-19.7085 -92.8184L32.0513 -32.8206L50 -110L67.9487 -32.8206L119.708 -92.8184L99.7342 -16.1383L173.448 -45.2097L120.126 13.4046L198.906 21.9195L124.453 49.0403L190.252 93.1907L111.724 82.6049L149.468 152.277L84.8542 106.409L85.8974 185.641L50 115Z" fill="url(#paint0_linear_1527_14475)"/>
<defs>
<linearGradient id="paint0_linear_1527_14475" x1="50" y1="-110" x2="50" y2="190" gradientUnits="userSpaceOnUse">
<stop stop-color="white"/>
<stop offset="1" stop-color="white" stop-opacity="0"/>
</linearGradient>
</defs>
</svg>
