<svg width="50" height="50" viewBox="0 0 50 50" fill="none" xmlns="http://www.w3.org/2000/svg">
<g clip-path="url(#clip0_323_1247)">
<path d="M46.607 37.7334L72.6308 41.6073C73.906 41.7723 75.0634 42.4374 75.8482 43.456C76.6329 44.4746 76.9807 45.7633 76.815 47.0384L74.3739 65.8249L63.069 67.0303L63.9959 51.8519L44.698 51.2444L46.607 37.7334Z" fill="white" stroke="#08111F"/>
<mask id="mask0_323_1247" style="mask-type:luminance" maskUnits="userSpaceOnUse" x="44" y="37" width="34" height="31">
<path fill-rule="evenodd" clip-rule="evenodd" d="M46.607 37.7334L72.6308 41.6073C73.906 41.7723 75.0634 42.4374 75.8482 43.456C76.6329 44.4746 76.9807 45.7633 76.815 47.0384L74.3739 65.8249L63.069 67.0303L63.9959 51.8519L44.698 51.2444L46.607 37.7334Z" fill="white" stroke="white"/>
</mask>
<g mask="url(#mask0_323_1247)">
<path d="M48.3477 48.7839C50.5516 44.904 54.3398 51.9155 61.9015 51.7885C65.6367 51.7259 44.6974 55.6167 44.6974 55.6167V43.3164" fill="white"/>
<path d="M48.3477 48.7839C50.5516 44.904 54.3398 51.9155 61.9015 51.7885C65.6367 51.7259 44.6974 55.6167 44.6974 55.6167V43.3164" stroke="#08111F"/>
</g>
<path fill-rule="evenodd" clip-rule="evenodd" d="M46.607 37.7334L72.6308 41.6073C73.906 41.7723 75.0634 42.4374 75.8482 43.456C76.6329 44.4746 76.9807 45.7633 76.815 47.0384L74.3739 65.8249L63.069 67.0303L63.9959 51.8519L44.698 51.2444L46.607 37.7334Z" stroke="#08111F" stroke-linecap="round" stroke-linejoin="round"/>
<path d="M15.1007 85.6985C26.3112 91.7842 50.6639 93.3621 53.8669 88.3975L45.039 39.3984C45.039 39.3984 34.5457 34.4994 18.9935 39.2001L15.1007 85.6985Z" fill="white" stroke="#08111F"/>
<path fill-rule="evenodd" clip-rule="evenodd" d="M15.1007 85.6985C26.3112 91.7842 50.6639 93.3621 53.8669 88.3975L45.039 39.3984C45.039 39.3984 34.5457 34.4994 18.9935 39.2001L15.1007 85.6985Z" stroke="#08111F" stroke-linecap="round" stroke-linejoin="round"/>
<path d="M38.7738 36.3561L29.2142 14.4165H17.8762L16.7528 27.2405L24.637 29.7063L27.443 40.2131L29.7041 40.8711L38.7738 36.3561Z" fill="white" stroke="#08111F"/>
<mask id="mask1_323_1247" style="mask-type:luminance" maskUnits="userSpaceOnUse" x="16" y="13" width="24" height="29">
<path fill-rule="evenodd" clip-rule="evenodd" d="M38.7738 36.3561L29.2142 14.4165H17.8762L16.7528 27.2405L24.637 29.7063L27.443 40.2131L29.7041 40.8711L38.7738 36.3561Z" fill="white" stroke="white"/>
</mask>
<g mask="url(#mask1_323_1247)">
<path d="M27.2556 25.6399C26.8976 28.9221 32.1444 33.5518 23.9412 35.0272C15.738 36.5026 22.3477 24.8469 22.3477 24.8469L25.6507 23.46" fill="#B476E5"/>
<path d="M27.2556 25.6399C26.8976 28.9221 32.1444 33.5518 23.9412 35.0272C15.738 36.5026 22.3477 24.8469 22.3477 24.8469L25.6507 23.46" stroke="#08111F"/>
</g>
<path fill-rule="evenodd" clip-rule="evenodd" d="M38.7738 36.3561L29.2142 14.4165H17.8762L16.7528 27.2405L24.637 29.7063L27.443 40.2131L29.7041 40.8711L38.7738 36.3561V36.3561Z" stroke="#08111F" stroke-linecap="round" stroke-linejoin="round"/>
<path d="M25.0881 19.8251C33.8254 39.3106 12.8775 34.2783 17.0065 24.3472C25.2268 27.0367 23.2159 19.8251 23.2159 19.8251C23.2159 19.8251 19.4019 18.3686 20.7888 15.4564C20.7888 15.4564 17.8945 14.2098 17.7301 16.0859C14.4092 12.4746 16.9051 8.45268 24.7414 10.6023C32.5777 12.752 35.0042 25.5113 35.0042 25.5113C35.0042 25.5113 30.7743 32.4455 25.0881 19.8251Z" fill="#B476E5" stroke="#08111F" stroke-linecap="round" stroke-linejoin="round"/>
<path d="M26.0372 21.3882C30.5368 17.1545 32.6235 22.0111 27.8673 26.9979L26.0372 21.3882Z" fill="white"/>
<path d="M26.0372 21.3882C30.5368 17.1545 32.6235 22.0111 27.8673 26.9979" stroke="#08111F" stroke-linecap="round" stroke-linejoin="round"/>
<path d="M2.97864 148.55C15.4842 158.837 36.8354 152.553 36.8354 152.553L33.0466 53.219L26.9972 38.5439L18.9934 39.1999C9.92706 74.8944 6.49542 139.996 2.97864 148.55Z" fill="white" stroke="#08111F"/>
<path fill-rule="evenodd" clip-rule="evenodd" d="M2.97864 148.55C15.4842 158.837 36.8354 152.553 36.8354 152.553L33.0466 53.219L26.9972 38.5439L18.9934 39.1999C9.92706 74.8944 6.49542 139.996 2.97864 148.55Z" stroke="#08111F" stroke-linecap="round" stroke-linejoin="round"/>
<path d="M47.6402 37.8786C47.6402 37.8786 39.0033 36.6491 37.928 36.7029L33.0468 53.219L28.7882 69.1987L31.852 156.944C60.1663 154.728 64.6841 150.092 64.6841 150.092C59.8296 110.644 52.3461 65.4166 49.1602 46.6972" fill="white"/>
<path d="M47.6402 37.8786C47.6402 37.8786 39.0033 36.6491 37.928 36.7029L33.0468 53.219L28.7882 69.1987L31.852 156.944C60.1663 154.728 64.6841 150.092 64.6841 150.092C59.8296 110.644 52.3461 65.4166 49.1602 46.6972" stroke="#08111F"/>
<path d="M47.6402 37.8786C47.6402 37.8786 39.0033 36.6491 37.928 36.7029L33.0468 53.219L28.7882 69.1987L31.852 156.944C60.1663 154.728 64.6841 150.092 64.6841 150.092C59.8296 110.644 52.3461 65.4166 49.1602 46.6972" stroke="#08111F" stroke-linecap="round" stroke-linejoin="round"/>
<path d="M26.4623 40.9135L24.5862 44.8377L26.0793 56.8418L32.8045 57.3154L37.4366 43.8376L36.52 39.5171L31.9836 40.6986L29.4668 40.8218L27.4726 41.1222" fill="white"/>
<path d="M26.4623 40.9135L24.5862 44.8377L26.0793 56.8418L32.8045 57.3154L37.4366 43.8376L36.52 39.5171L31.9836 40.6986L29.4668 40.8218L27.4726 41.1222" stroke="#08111F" stroke-linecap="round" stroke-linejoin="round"/>
<path d="M29.3212 43.2768L25.9886 56.0396L27.8617 67.2411L30.3489 65.8193L32.5223 55.3175L31.4325 42.3296L29.3212 43.2768Z" fill="white" stroke="#08111F" stroke-linecap="round" stroke-linejoin="round"/>
<path d="M28.0323 40.7927L29.224 43.4176C29.4767 44.0379 30.1059 44.4195 30.7728 44.357L31.3126 44.3077C32.043 44.1992 32.6775 43.748 33.0199 43.0937L34.4704 40.5785L31.0795 40.5557L28.0323 40.7927Z" fill="white" stroke="#08111F" stroke-linecap="round" stroke-linejoin="round"/>
<path d="M24.8395 37.4742C24.8395 37.4742 24.9501 34.5829 25.5969 34.5459C25.5969 34.5459 26.7977 38.6738 29.5182 40.0708L26.9156 44.862C26.9156 44.862 23.3919 40.3873 24.8395 37.4742Z" fill="white" stroke="#08111F" stroke-linecap="round" stroke-linejoin="round"/>
<path d="M40.0671 36.2341C40.0671 36.2341 38.2746 33.5371 37.5937 33.5806C37.5937 33.5806 34.3121 38.0728 30.1853 40.064L34.4057 44.3325C34.4057 44.3325 41.0426 39.002 40.0671 36.2341Z" fill="white" stroke="#08111F" stroke-linecap="round" stroke-linejoin="round"/>
<path d="M25.0916 36.2544C25.0916 36.2544 28.6278 63.6455 30.0376 66.5423L28.5387 69.401L21.3888 53.1661L23.7019 50.1077L19.6736 48.9873L23.3393 38.2059C23.3271 37.1988 24.0889 36.3503 25.0916 36.2544Z" fill="white" stroke="#08111F" stroke-linecap="round" stroke-linejoin="round"/>
<path d="M38.9537 34.6484L28.7778 69.4261L41.998 53.0707L38.642 49.1684L42.8554 46.7517L41.4151 37.45C41.3693 36.0481 40.3381 34.8744 38.9537 34.6484V34.6484Z" fill="white" stroke="#08111F" stroke-linecap="round" stroke-linejoin="round"/>
<path d="M22.6098 38.3599L-7.89017 44.8214C-9.70676 45.1328 -11.23 46.3679 -11.9101 48.0809C-12.5902 49.7939 -12.329 51.7375 -11.2207 53.2101L0.704558 72.8334C3.68286 73.3313 11.5957 66.5588 10.6274 64.7255L6.93484 55.1L17.7604 53.9235" fill="white"/>
<path d="M22.6098 38.3599L-7.89017 44.8214C-9.70676 45.1328 -11.23 46.3679 -11.9101 48.0809C-12.5902 49.7939 -12.329 51.7375 -11.2207 53.2101L0.704558 72.8334C3.68286 73.3313 11.5957 66.5588 10.6274 64.7255L6.93484 55.1L17.7604 53.9235" stroke="#08111F"/>
<path d="M22.6098 38.3599L-7.89017 44.8214C-9.70676 45.1328 -11.23 46.3679 -11.9101 48.0809C-12.5902 49.7939 -12.329 51.7375 -11.2207 53.2101L0.704558 72.8334C3.68286 73.3313 11.5957 66.5588 10.6274 64.7255L6.93484 55.1L17.7604 53.9235" stroke="#08111F" stroke-linecap="round" stroke-linejoin="round"/>
<rect x="20.2686" y="21.6919" width="1.37182" height="2.53027" rx="0.68591" transform="rotate(179.256 20.2686 21.6919)" fill="#08111F" fill-opacity="0.5" stroke="#08111F"/>
<path d="M18.9095 16.884C20.9802 16.7652 21.4524 17.6181 20.1629 17.7768C18.8734 17.9354 17.5568 16.9617 18.9095 16.884Z" fill="#08111F" fill-opacity="0.5" stroke="#08111F"/>
<path d="M17.7173 20.5259C15.2141 22.1759 16.1819 24.8225 17.9248 24.1682L17.7173 20.5259Z" fill="white"/>
<path d="M17.7173 20.5259C15.2141 22.1759 16.1819 24.8225 17.9248 24.1682" stroke="#08111F" stroke-linecap="round" stroke-linejoin="round"/>
<path d="M28.024 21.9316C28.1595 21.9163 28.2638 22.072 28.2499 22.2078C28.2219 22.3422 28.1548 22.4654 28.0569 22.5616" stroke="#08111F" stroke-linecap="round" stroke-linejoin="round"/>
<path d="M22.7549 11.9795C23.0524 12.1037 23.3612 12.1988 23.677 12.2637C24.1522 12.5183 24.5264 12.9272 24.738 13.423" stroke="#08111F" stroke-linecap="round" stroke-linejoin="round"/>
</g>
<defs>
<clipPath id="clip0_323_1247">
<rect width="50" height="50" fill="white"/>
</clipPath>
</defs>
</svg>
