<svg width="130" height="31" viewBox="0 0 130 31" fill="none" xmlns="http://www.w3.org/2000/svg">
<g clip-path="url(#clip0_339_4317)">
<path d="M26.5714 7.86416H28.3728V20.402H33.777V22.2034H26.5714V7.86416ZM39.3884 7.86416C40.4572 7.86416 41.5021 8.18112 42.3908 8.77495C43.2795 9.36879 43.9722 10.2127 44.3813 11.2003C44.7903 12.1878 44.8973 13.2744 44.6888 14.3227C44.4802 15.371 43.9656 16.3339 43.2097 17.0897C42.4539 17.8456 41.491 18.3603 40.4427 18.5688C39.3944 18.7773 38.3078 18.6703 37.3203 18.2613C36.3327 17.8522 35.4888 17.1595 34.8949 16.2708C34.3011 15.3821 33.9841 14.3373 33.9841 13.2684C33.9841 12.5587 34.1239 11.8559 34.3955 11.2003C34.6671 10.5446 35.0652 9.94884 35.567 9.44706C36.0688 8.94519 36.6646 8.54708 37.3203 8.27551C37.9759 8.00395 38.6787 7.86416 39.3884 7.86416ZM39.3884 16.8712C40.1009 16.8712 40.7975 16.6599 41.39 16.264C41.9825 15.8681 42.4443 15.3054 42.7169 14.6471C42.9897 13.9888 43.061 13.2644 42.9219 12.5655C42.783 11.8666 42.4398 11.2247 41.9359 10.7208C41.4321 10.217 40.7901 9.87381 40.0913 9.73484C39.3923 9.59577 38.668 9.6671 38.0097 9.93984C37.3513 10.2125 36.7886 10.6743 36.3927 11.2668C35.9969 11.8592 35.7856 12.5558 35.7856 13.2684C35.7903 14.2208 36.172 15.1326 36.8471 15.8043C37.5223 16.4761 38.436 16.8532 39.3884 16.8532V16.8712ZM35.7856 20.42H42.9912V22.2214H35.7856V20.42ZM58.8436 22.2214H57.0422V20.9334C55.8805 21.7465 54.4972 22.1836 53.0791 22.1854C51.8699 22.1935 50.6781 21.8971 49.6135 21.3237C48.5489 20.7501 47.6458 19.9179 46.9874 18.9037C46.3289 17.8895 45.9361 16.7259 45.8455 15.5201C45.7548 14.3143 45.9691 13.105 46.4685 12.0038C46.968 10.9025 47.7366 9.94461 48.7034 9.21846C49.6703 8.49222 50.8044 8.02097 52.0011 7.84822C53.198 7.67537 54.4191 7.80661 55.5518 8.22967C56.6846 8.65273 57.6928 9.35402 58.4833 10.269L57.1593 11.449C56.558 10.7767 55.798 10.2656 54.9486 9.96235C54.0992 9.659 53.1874 9.57307 52.2964 9.71241C51.4052 9.85175 50.5632 10.2119 49.8469 10.76C49.1307 11.3082 48.563 12.0268 48.1957 12.8506C47.8283 13.6742 47.6729 14.5768 47.7437 15.4759C47.8145 16.3751 48.1091 17.2422 48.6009 17.9983C49.0927 18.7543 49.7658 19.3753 50.559 19.8046C51.3522 20.2339 52.2403 20.4578 53.1421 20.456C53.8906 20.4575 54.6306 20.2974 55.3116 19.9865C55.9924 19.6756 56.5981 19.2212 57.0872 18.6546H52.2234V16.8532H58.8616L58.8436 22.2214ZM65.4728 7.90019C66.5417 7.90019 67.5865 8.21715 68.4752 8.81098C69.3639 9.40482 70.0567 10.2488 70.4657 11.2363C70.8747 12.2238 70.9817 13.3105 70.7732 14.3587C70.5647 15.407 70.05 16.37 69.2941 17.1257C68.5383 17.8816 67.5754 18.3963 66.5271 18.6048C65.4788 18.8133 64.3922 18.7063 63.4047 18.2973C62.4171 17.8882 61.5732 17.1956 60.9794 16.3068C60.3855 15.4181 60.0686 14.3733 60.0686 13.3044C60.0638 12.5902 60.2007 11.8821 60.4713 11.2211C60.7418 10.5601 61.1408 9.9592 61.645 9.45337C62.1492 8.94744 62.7487 8.54654 63.4088 8.27371C64.069 8.00098 64.7765 7.86173 65.4908 7.86416L65.4728 7.90019ZM65.4728 16.9072C66.1853 16.9072 66.8819 16.6959 67.4744 16.3001C68.0669 15.9041 68.5287 15.3415 68.8013 14.6831C69.0741 14.0248 69.1454 13.3005 69.0063 12.6015C68.8674 11.9027 68.5242 11.2607 68.0203 10.7569C67.5165 10.253 66.8746 9.90984 66.1757 9.77086C65.4768 9.6318 64.7524 9.70313 64.0941 9.97586C63.4358 10.2485 62.873 10.7103 62.4771 11.3028C62.0813 11.8953 61.87 12.5919 61.87 13.3044C61.8842 14.2537 62.2725 15.159 62.9505 15.8235C63.6285 16.488 64.5415 16.8581 65.4908 16.8532L65.4728 16.9072ZM61.87 20.456H69.0756V22.2574H61.87V20.456ZM72.7955 7.86416H74.5969V22.1854H72.7955V7.86416ZM77.0919 7.86416H78.8933C78.9861 7.85434 79.0796 7.85434 79.1725 7.86416C79.9269 7.78229 80.6902 7.86029 81.4125 8.09294C82.1347 8.32568 82.8 8.70785 83.3647 9.21468C83.9296 9.7215 84.3813 10.3416 84.6905 11.0346C84.9998 11.7276 85.1596 12.478 85.1596 13.2369C85.1596 13.9957 84.9998 14.7461 84.6905 15.4391C84.3813 16.1321 83.9296 16.7522 83.3647 17.2591C82.8 17.7659 82.1347 18.1481 81.4125 18.3808C80.6902 18.6134 79.9269 18.6914 79.1725 18.6096H78.8933V22.2124H77.0919V7.86416ZM78.8933 9.66557V16.7901H79.1725C79.6813 16.8579 80.1987 16.8162 80.6901 16.6677C81.1814 16.5192 81.6354 16.2675 82.0215 15.9293C82.4077 15.5912 82.7171 15.1745 82.9292 14.707C83.1412 14.2395 83.2509 13.7322 83.2509 13.2189C83.2509 12.7055 83.1412 12.1982 82.9292 11.7307C82.7171 11.2632 82.4077 10.8465 82.0215 10.5084C81.6354 10.1701 81.1814 9.91849 80.6901 9.76996C80.1987 9.62153 79.6813 9.57982 79.1725 9.64756C79.0744 9.65774 78.9777 9.6789 78.8843 9.71061L78.8933 9.66557ZM91.8724 8.89997L90.5394 9.9538C90.3095 9.71349 90.0156 9.5438 89.6926 9.46471C89.3695 9.38563 89.0305 9.4004 88.7156 9.50732C88.4005 9.61414 88.1226 9.80869 87.9144 10.0681C87.7062 10.3275 87.5763 10.6409 87.5401 10.9716V11.1157C87.5401 11.9083 88.0895 12.4397 89.1613 12.5118C93.2866 12.764 95.178 14.7005 95.178 17.2585V17.4206C95.0715 18.433 94.6764 19.3935 94.0398 20.188C93.4032 20.9824 92.5518 21.5771 91.5869 21.9016C90.622 22.2261 89.5842 22.2666 88.5969 22.0183C87.6097 21.7701 86.7145 21.2434 86.0179 20.5011L87.3959 19.4382C87.7167 19.782 88.1084 20.0519 88.5439 20.2292C88.9794 20.4065 89.4482 20.487 89.9179 20.465C90.7855 20.5108 91.6371 20.2196 92.295 19.6522C92.9529 19.085 93.3663 18.2854 93.4487 17.4206V17.2945C93.4487 14.8897 91.0888 14.4483 89.0442 14.2502C87.1528 14.07 85.7927 12.8901 85.7927 11.1878V11.1157C85.8593 10.2294 86.2638 9.40257 86.9225 8.80594C87.5812 8.20922 88.4439 7.88821 89.3325 7.9092C89.8034 7.89533 90.2718 7.98026 90.7078 8.15869C91.1438 8.33712 91.5375 8.60499 91.8634 8.94501L91.8724 8.89997ZM102.231 20.3569C104.473 20.3569 106.248 17.934 106.248 14.9527V7.74707H108.049V14.9527C108.049 18.9158 105.455 22.1133 102.267 22.1133C99.0781 22.1133 96.484 18.9158 96.484 14.9527V7.74707H98.2855V14.9527C98.2134 17.9791 99.9878 20.402 102.222 20.402L102.231 20.3569ZM121.875 22.1583H120.074V13.2414L115.921 18.6456L111.769 13.2414V22.1854H109.968V7.86416L115.912 15.6913L121.857 7.86416L121.875 22.1583Z" fill="white"/>
<path d="M17.9247 5.71233C17.9247 4.41282 17.4085 3.16652 16.4896 2.24763C15.5707 1.32873 14.3244 0.8125 13.0248 0.8125C11.7253 0.8125 10.479 1.32873 9.56013 2.24763C8.64123 3.16652 8.125 4.41282 8.125 5.71233V20.5289L12.1602 23.4202V30.4637H13.8895V23.4202L17.9247 20.5289V5.71233ZM16.1953 13.9988L13.8895 16.3046V14.1429L16.1953 11.8371V13.9988ZM9.89038 11.8371L12.1962 14.1429V16.3046L9.89038 13.9988V11.8371ZM16.1953 9.38721L13.0248 12.5577L9.85435 9.31515V7.15346L13.0248 10.3239L16.1953 7.15346V9.38721ZM13.0248 2.54185C13.7221 2.54493 14.3992 2.77651 14.9523 3.20111C15.5054 3.6257 15.904 4.21989 16.0872 4.89269L13.0248 7.94608L9.96244 4.89269C10.1389 4.2132 10.5347 3.61094 11.0884 3.17938C11.6422 2.74781 12.3228 2.51104 13.0248 2.50582V2.54185ZM9.85435 19.6552V16.4127L12.1602 18.7185V21.2945L9.85435 19.6552ZM13.8895 21.3035V18.7185L16.1953 16.4127V19.6462L13.8895 21.3035Z" fill="white"/>
</g>
<defs>
<clipPath id="clip0_339_4317">
<rect width="130" height="30.875" fill="white"/>
</clipPath>
</defs>
</svg>
