<svg width="130" height="31" viewBox="0 0 130 31" fill="none" xmlns="http://www.w3.org/2000/svg">
<path d="M25.1875 24.375H43.0625V6.5H25.1875V24.375ZM39.622 13.7176H35.8449V9.9405H39.622V13.7176ZM28.6273 9.9405H32.4065V17.1574H39.622V20.9345H28.6273V9.9405ZM54.7025 6.5C52.9348 6.5 51.2068 7.02418 49.7371 8.00625C48.2673 8.98831 47.1218 10.3842 46.4453 12.0173C45.7688 13.6504 45.5919 15.4474 45.9367 17.1811C46.2816 18.9148 47.1328 20.5073 48.3827 21.7572C49.6326 23.0072 51.2251 23.8584 52.9588 24.2033C54.6926 24.5481 56.4896 24.3712 58.1227 23.6947C59.7559 23.0182 61.1516 21.8727 62.1338 20.4029C63.1158 18.9331 63.64 17.2051 63.64 15.4375C63.6372 13.068 62.6947 10.7963 61.0192 9.12079C59.3437 7.44528 57.072 6.50277 54.7025 6.5ZM54.7025 20.9345C53.6153 20.9345 52.5525 20.6121 51.6485 20.0081C50.7446 19.4041 50.04 18.5456 49.6239 17.5411C49.2079 16.5367 49.099 15.4314 49.3111 14.3651C49.5232 13.2988 50.0468 12.3193 50.8155 11.5505C51.5843 10.7818 52.5638 10.2582 53.6301 10.0461C54.6964 9.83402 55.8016 9.94288 56.8061 10.3589C57.8105 10.775 58.6691 11.4796 59.2731 12.3836C59.8771 13.2875 60.1995 14.3503 60.1995 15.4375C60.1973 16.8947 59.6174 18.2916 58.587 19.322C57.5566 20.3525 56.1597 20.9323 54.7025 20.9345ZM95.6226 6.5C93.8547 6.49987 92.1269 7.02392 90.657 8.0059C89.1871 8.98788 88.0415 10.3837 87.3649 12.0168C86.6884 13.6499 86.5113 15.447 86.8561 17.1807C87.2008 18.9144 88.052 20.507 89.3019 21.757C90.5518 23.007 92.1443 23.8583 93.8783 24.2032C95.6115 24.5481 97.4087 24.3712 99.0422 23.6948C100.675 23.0183 102.071 21.8728 103.053 20.403C104.035 18.9332 104.559 17.2052 104.559 15.4375C104.557 13.0681 103.614 10.7965 101.939 9.12104C100.264 7.44555 97.992 6.50295 95.6226 6.5ZM95.6226 20.9345C94.5355 20.9346 93.4728 20.6123 92.5685 20.0084C91.6644 19.4045 90.9597 18.546 90.5436 17.5416C90.1274 16.5372 90.0185 15.4319 90.2305 14.3655C90.4425 13.2992 90.966 12.3197 91.7347 11.5508C92.5035 10.7819 93.4832 10.2583 94.5494 10.0462C95.6157 9.83402 96.7209 9.94283 97.7251 10.3589C98.73 10.7749 99.5886 11.4795 100.193 12.3835C100.796 13.2875 101.119 14.3503 101.119 15.4375C101.117 16.8946 100.537 18.2914 99.5063 19.3218C98.4764 20.3522 97.0798 20.9321 95.6226 20.9345ZM75.1622 6.5C73.3945 6.5 71.6665 7.02418 70.1968 8.00625C68.727 8.98831 67.5815 10.3842 66.905 12.0173C66.2286 13.6504 66.0516 15.4474 66.3964 17.1811C66.7413 18.9148 67.5925 20.5073 68.8424 21.7572C70.0923 23.0072 71.6849 23.8584 73.4186 24.2033C75.1523 24.5481 76.9493 24.3712 78.5824 23.6947C80.2156 23.0182 81.6114 21.8727 82.5935 20.4029C83.5755 18.9331 84.0997 17.2051 84.0997 15.4375C84.0969 13.068 83.1544 10.7963 81.4789 9.12079C79.8034 7.44528 77.5318 6.50277 75.1622 6.5ZM75.1622 20.9345C74.1492 20.935 73.1559 20.6556 72.2917 20.1272C71.4276 19.5987 70.7262 18.8418 70.265 17.9399C69.804 17.038 69.601 16.0262 69.6786 15.0163C69.7562 14.0063 70.1114 13.0374 70.7049 12.2166C71.2984 11.3958 72.1072 10.7549 73.042 10.3647C73.9768 9.97451 75.0012 9.8502 76.0021 10.0055C77.0031 10.1608 77.9417 10.5896 78.7143 11.2447C79.4869 11.8997 80.0635 12.7555 80.3805 13.7176H75.1622V17.1574H80.3805C80.0175 18.2552 79.3181 19.2109 78.3814 19.8888C77.4448 20.5668 76.3185 20.9326 75.1622 20.9345Z" fill="white"/>
</svg>
