<svg width="130" height="31" viewBox="0 0 130 31" fill="none" xmlns="http://www.w3.org/2000/svg">
<path d="M44.6926 22.6274C44.1177 22.6586 43.549 22.4951 43.0784 22.1634C42.8817 22.0176 42.7235 21.8261 42.6174 21.6055C42.5112 21.3849 42.4605 21.1418 42.4694 20.8971V11.9365C42.4647 11.8986 42.4687 11.86 42.4812 11.8239C42.4935 11.7877 42.514 11.755 42.5411 11.7279C42.5682 11.7008 42.6009 11.6803 42.6371 11.668C42.6732 11.6555 42.7118 11.6515 42.7497 11.6562H44.3736C44.5573 11.6562 44.6443 11.7528 44.6443 11.9365V20.2011C44.6443 20.5685 44.8086 20.7521 45.1469 20.7521C45.2904 20.758 45.4338 20.7418 45.5722 20.7038C45.7656 20.7038 45.8719 20.7618 45.8816 20.9358L46.0266 22.1441C46.0335 22.1793 46.0328 22.2156 46.0246 22.2506C46.0164 22.2855 46.0007 22.3183 45.9787 22.3467C45.9568 22.3751 45.9289 22.3985 45.8972 22.4152C45.8654 22.4319 45.8304 22.4417 45.7946 22.4437C45.4389 22.5612 45.0672 22.6232 44.6926 22.6274Z" fill="white"/>
<path d="M53.827 21.5932C53.011 22.2674 51.9856 22.6361 50.9271 22.6361C49.8686 22.6361 48.8433 22.2674 48.0272 21.5932C47.3101 20.8691 46.9077 19.8912 46.9077 18.8721C46.9077 17.853 47.3101 16.8751 48.0272 16.1511C48.8448 15.4803 49.8696 15.1138 50.9271 15.1138C51.9846 15.1138 53.0094 15.4803 53.827 16.1511C54.5277 16.8817 54.9189 17.8549 54.9189 18.8673C54.9189 19.8796 54.5277 20.8528 53.827 21.5835V21.5932ZM49.5545 20.3172C49.9332 20.6603 50.4258 20.8502 50.9368 20.8502C51.4477 20.8502 51.9404 20.6603 52.319 20.3172C52.6618 19.9232 52.8505 19.4185 52.8505 18.8963C52.8505 18.3741 52.6618 17.8694 52.319 17.4753C51.9404 17.1324 51.4477 16.9423 50.9368 16.9423C50.4258 16.9423 49.9332 17.1324 49.5545 17.4753C49.2118 17.8694 49.023 18.3741 49.023 18.8963C49.023 19.4185 49.2118 19.9232 49.5545 20.3172Z" fill="white"/>
<path d="M63.8606 15.3575C64.0443 15.3575 64.1313 15.4542 64.1313 15.6379V22.5686C64.1482 23.0364 64.0606 23.502 63.875 23.9317C63.6894 24.3615 63.4105 24.7444 63.0583 25.0528C62.2767 25.7193 61.2716 26.0646 60.2454 26.0194C59.3186 26.052 58.4041 25.7989 57.6259 25.2944C57.2936 25.0763 57.0097 24.792 56.7919 24.4595C56.574 24.1269 56.4269 23.7531 56.3596 23.3612C56.3596 23.1679 56.3596 23.0809 56.6206 23.0809H58.2445C58.3134 23.0832 58.3803 23.1055 58.4369 23.145C58.4935 23.1844 58.5375 23.2393 58.5635 23.3032C58.6689 23.5968 58.8788 23.8412 59.1532 23.9895C59.4875 24.162 59.8597 24.2485 60.2358 24.2408C60.4627 24.2533 60.6899 24.2203 60.904 24.144C61.1181 24.0677 61.3148 23.9494 61.4827 23.7962C61.6361 23.6359 61.7554 23.4462 61.8335 23.2385C61.9116 23.0309 61.9468 22.8095 61.937 22.5879V21.9789C61.3556 22.4066 60.6479 22.6277 59.9265 22.6072C59.4215 22.6256 58.9181 22.5418 58.4463 22.3607C57.9745 22.1796 57.5443 21.9052 57.1812 21.5536C56.4844 20.8327 56.0948 19.8692 56.0948 18.8664C56.0948 17.8637 56.4844 16.9002 57.1812 16.1792C57.546 15.8308 57.9769 15.559 58.4483 15.3797C58.9198 15.2004 59.4224 15.1172 59.9265 15.1352C60.6688 15.1156 61.3955 15.3511 61.9854 15.8022V15.6475C61.9809 15.6105 61.9848 15.5729 61.9967 15.5375C62.0086 15.5022 62.0282 15.47 62.0541 15.4431C62.08 15.4162 62.1116 15.3955 62.1465 15.3824C62.1815 15.3692 62.2189 15.3641 62.256 15.3672L63.8606 15.3575ZM60.1101 20.8866C60.3591 20.8944 60.6069 20.8473 60.8357 20.7487C61.0645 20.6502 61.2689 20.5026 61.4344 20.3163C61.7558 19.9013 61.9302 19.3913 61.9302 18.8664C61.9302 18.3415 61.7558 17.8315 61.4344 17.4164C61.2695 17.2328 61.0663 17.0873 60.8392 16.9905C60.6121 16.8936 60.3666 16.8477 60.1198 16.8558C59.8679 16.8479 59.6173 16.8948 59.3853 16.9933C59.1533 17.0918 58.9455 17.2395 58.7762 17.4261C58.4202 17.8231 58.2329 18.3432 58.2542 18.8761C58.2368 19.4036 58.4199 19.9183 58.7665 20.3163C58.9362 20.5025 59.1442 20.6499 59.3761 20.7483C59.608 20.8467 59.8583 20.8939 60.1101 20.8866Z" fill="white"/>
<path d="M72.4733 21.5938C71.6558 22.2645 70.6309 22.6311 69.5735 22.6311C68.516 22.6311 67.4912 22.2645 66.6736 21.5938C65.9723 20.8615 65.5808 19.8867 65.5808 18.8727C65.5808 17.8588 65.9723 16.884 66.6736 16.1517C67.4919 15.4827 68.5164 15.1172 69.5735 15.1172C70.6305 15.1172 71.655 15.4827 72.4733 16.1517C73.174 16.8823 73.5652 17.8555 73.5652 18.8679C73.5652 19.8802 73.174 20.8534 72.4733 21.5841V21.5938ZM68.1912 20.3178C68.3765 20.4941 68.5949 20.6319 68.8339 20.7231C69.0728 20.8144 69.3275 20.8574 69.5831 20.8495C69.8372 20.856 70.09 20.8125 70.3272 20.7213C70.5644 20.63 70.7813 20.493 70.9654 20.3178C71.3026 19.9211 71.4877 19.4175 71.4877 18.8969C71.4877 18.3763 71.3026 17.8726 70.9654 17.4759C70.7813 17.3009 70.5644 17.1637 70.3272 17.0726C70.09 16.9813 69.8372 16.9377 69.5831 16.9443C69.3275 16.9365 69.0728 16.9794 68.8339 17.0706C68.5949 17.1619 68.3765 17.2997 68.1912 17.4759C67.8541 17.8726 67.669 18.3763 67.669 18.8969C67.669 19.4175 67.8541 19.9211 68.1912 20.3178Z" fill="white"/>
<path d="M77.0548 13.7157C76.7993 13.9393 76.4713 14.0626 76.1317 14.0626C75.7921 14.0626 75.4641 13.9393 75.2086 13.7157C75.0928 13.6063 75.0005 13.4745 74.9373 13.3282C74.8743 13.182 74.8417 13.0243 74.8417 12.865C74.8417 12.7057 74.8743 12.5482 74.9373 12.4018C75.0005 12.2556 75.0928 12.1237 75.2086 12.0144C75.4668 11.7963 75.7938 11.6768 76.1317 11.6768C76.4696 11.6768 76.7966 11.7963 77.0548 12.0144C77.1707 12.1237 77.263 12.2556 77.3261 12.4018C77.3892 12.5482 77.4217 12.7057 77.4217 12.865C77.4217 13.0243 77.3892 13.182 77.3261 13.3282C77.263 13.4745 77.1707 13.6063 77.0548 13.7157ZM77.2578 22.6279C76.6832 22.6562 76.1156 22.493 75.6435 22.164C75.4499 22.0161 75.2944 21.8239 75.1902 21.6036C75.0859 21.3833 75.0358 21.1413 75.0442 20.8977V15.6392C75.0396 15.6014 75.0436 15.5628 75.056 15.5266C75.0684 15.4905 75.0889 15.4577 75.116 15.4306C75.143 15.4036 75.1758 15.3831 75.212 15.3707C75.2481 15.3582 75.2867 15.3543 75.3246 15.3589H76.9485C77.1321 15.3589 77.2192 15.4556 77.2192 15.6392V20.2017C77.2192 20.569 77.3835 20.7527 77.7121 20.7527C77.8588 20.758 78.0053 20.7417 78.1471 20.7044C78.3404 20.7044 78.4468 20.7624 78.4564 20.9363L78.6014 22.1446C78.6084 22.1799 78.6077 22.2162 78.5995 22.2511C78.5913 22.286 78.5756 22.3189 78.5536 22.3472C78.5316 22.3757 78.5038 22.399 78.4721 22.4158C78.4403 22.4325 78.4053 22.4423 78.3694 22.4443C78.0106 22.5625 77.6357 22.6245 77.2578 22.6279Z" fill="white"/>
<path d="M84.5754 15.1242C85.0827 15.1041 85.5888 15.1862 86.0637 15.3655C86.5386 15.5449 86.9727 15.8178 87.34 16.1681C88.0236 16.9018 88.4037 17.8671 88.4037 18.8698C88.4037 19.8725 88.0236 20.838 87.34 21.5715C86.9744 21.925 86.5409 22.2006 86.0657 22.3817C85.5905 22.5628 85.0836 22.6457 84.5754 22.6252C83.8516 22.6413 83.1422 22.4207 82.5552 21.9969V25.4864C82.5552 25.67 82.4585 25.757 82.2749 25.757H80.651C80.6139 25.764 80.5757 25.7618 80.5397 25.7506C80.5037 25.7394 80.471 25.7197 80.4443 25.693C80.4177 25.6664 80.3979 25.6337 80.3868 25.5976C80.3756 25.5617 80.3734 25.5235 80.3803 25.4864V17.56C80.3917 17.4825 80.3847 17.4035 80.3602 17.329C80.3355 17.2547 80.2938 17.187 80.2384 17.1316C80.183 17.0763 80.1154 17.0346 80.041 17.0099C79.9667 16.9853 79.8875 16.9784 79.81 16.9897H79.491C79.2783 16.9897 79.172 16.9124 79.172 16.7578V15.6171C79.167 15.5466 79.1863 15.4764 79.2268 15.4184C79.2672 15.3603 79.3264 15.3179 79.3943 15.2981C79.7287 15.1766 80.0826 15.1177 80.4383 15.1242C80.793 15.0927 81.1491 15.168 81.4608 15.3402C81.7724 15.5124 82.0257 15.7738 82.1879 16.0908C82.4992 15.7759 82.8716 15.5277 83.2821 15.3615C83.6926 15.1953 84.1327 15.1145 84.5754 15.1242ZM83.0675 20.3149C83.2399 20.4951 83.4469 20.6385 83.6762 20.7364C83.9055 20.8343 84.1522 20.8848 84.4015 20.8848C84.6508 20.8848 84.8975 20.8343 85.1267 20.7364C85.356 20.6385 85.563 20.4951 85.7354 20.3149C86.0985 19.91 86.2892 19.3794 86.267 18.836C86.2924 18.2922 86.1012 17.7603 85.7354 17.3571C85.563 17.177 85.356 17.0336 85.1267 16.9357C84.8975 16.8377 84.6508 16.7872 84.4015 16.7872C84.1522 16.7872 83.9055 16.8377 83.6762 16.9357C83.4469 17.0336 83.2399 17.177 83.0675 17.3571C82.7159 17.7675 82.5328 18.2959 82.5552 18.836C82.5356 19.3757 82.7184 19.9031 83.0675 20.3149Z" fill="white"/>
<path d="M92.9658 22.6267C92.0981 22.6624 91.2377 22.4548 90.4816 22.0274C90.1783 21.8447 89.92 21.596 89.7258 21.2998C89.5317 21.0036 89.4068 20.6675 89.3603 20.3165C89.3603 20.1231 89.428 20.0265 89.6406 20.0265H91.0616C91.1291 20.0292 91.1948 20.0504 91.251 20.088C91.3073 20.1255 91.3521 20.1778 91.3806 20.2391C91.5836 20.7611 92.1152 21.0221 92.9658 21.0221C93.2626 21.0357 93.558 20.9759 93.8261 20.8481C93.9187 20.8064 93.9981 20.7402 94.056 20.6568C94.1139 20.5734 94.148 20.4758 94.1548 20.3745C94.1548 20.1231 94.0001 19.9492 93.6908 19.8332C93.324 19.7111 92.9447 19.63 92.5598 19.5915C92.1041 19.5399 91.6521 19.4592 91.2066 19.3498C90.7733 19.2518 90.3794 19.0262 90.0756 18.7022C89.8967 18.482 89.765 18.2273 89.6887 17.954C89.6124 17.6808 89.5932 17.3947 89.6321 17.1137C89.6712 16.8326 89.7676 16.5625 89.9154 16.3203C90.0631 16.0781 90.2592 15.8689 90.4913 15.7057C91.188 15.2619 92.0055 15.0457 92.8305 15.087C93.6293 15.0601 94.4196 15.2576 95.1117 15.6573C95.3907 15.8154 95.6308 16.0335 95.8148 16.2961C95.9987 16.5586 96.1218 16.8589 96.175 17.1749C96.175 17.3683 96.088 17.4649 95.914 17.4649H94.4834C94.4232 17.4685 94.3633 17.4538 94.3116 17.4228C94.2599 17.3918 94.2187 17.3457 94.1934 17.2909C94.0978 17.062 93.9179 16.8786 93.6908 16.7786C93.4346 16.6446 93.1485 16.578 92.8595 16.5853C92.5762 16.5699 92.2935 16.6265 92.0379 16.7496C91.9478 16.7844 91.8703 16.8453 91.8151 16.9246C91.76 17.0038 91.7298 17.0978 91.7285 17.1943C91.7347 17.3265 91.7832 17.4532 91.8667 17.5559C91.9502 17.6585 92.0644 17.7316 92.1925 17.7646C92.5637 17.9045 92.9497 18.0018 93.3428 18.0546C93.7949 18.1141 94.2434 18.198 94.6864 18.3059C95.1197 18.404 95.5136 18.6295 95.8174 18.9535C95.98 19.1321 96.1054 19.341 96.1867 19.5683C96.268 19.7956 96.3035 20.0367 96.291 20.2778C96.2993 20.612 96.2209 20.9426 96.0634 21.2374C95.9058 21.5321 95.6745 21.781 95.3921 21.9597C94.6699 22.4234 93.8236 22.656 92.9658 22.6267Z" fill="white"/>
<path d="M106.508 22.1441C106.514 22.1784 106.512 22.2135 106.504 22.2472C106.496 22.2811 106.481 22.3128 106.46 22.3407C106.44 22.3686 106.413 22.3921 106.383 22.4098C106.354 22.4275 106.321 22.439 106.286 22.4438C105.933 22.559 105.565 22.6209 105.194 22.6274C104.826 22.6655 104.455 22.6081 104.117 22.4608C103.777 22.3135 103.483 22.0812 103.26 21.7865C102.578 22.3735 101.694 22.6747 100.795 22.6274C100.378 22.6467 99.9612 22.5783 99.5717 22.4268C99.1821 22.2754 98.8283 22.0441 98.5335 21.7478C98.2406 21.4374 98.0137 21.0711 97.8658 20.6708C97.718 20.2705 97.6525 19.8445 97.6732 19.4182V15.6387C97.6732 15.4551 97.7602 15.3584 97.9439 15.3584H99.5678C99.7515 15.3584 99.8385 15.4551 99.8385 15.6387V19.1282C99.8211 19.563 99.969 19.9881 100.254 20.3172C100.396 20.468 100.569 20.5865 100.761 20.6649C100.952 20.7433 101.159 20.7796 101.366 20.7715C101.577 20.7808 101.789 20.748 101.988 20.6749C102.187 20.6019 102.37 20.4902 102.526 20.3462C102.673 20.1944 102.788 20.014 102.862 19.8162C102.937 19.6183 102.97 19.4072 102.961 19.1959V15.6387C102.961 15.4551 103.048 15.3584 103.231 15.3584H104.875C105.058 15.3584 105.145 15.4551 105.145 15.6387V20.1915C105.145 20.5685 105.31 20.7522 105.629 20.7522C105.778 20.758 105.928 20.7417 106.073 20.7038C106.11 20.6936 106.149 20.6917 106.185 20.6985C106.223 20.7052 106.258 20.7203 106.289 20.7426C106.32 20.7649 106.345 20.7939 106.363 20.8274C106.381 20.8608 106.39 20.8979 106.392 20.9358L106.508 22.1441Z" fill="white"/>
<path d="M121.867 22.1444C121.876 22.179 121.877 22.2152 121.87 22.2502C121.863 22.285 121.848 22.3181 121.827 22.3467C121.806 22.3753 121.779 22.3989 121.747 22.4157C121.716 22.4327 121.681 22.4423 121.645 22.4441C121.286 22.5609 120.911 22.6229 120.534 22.6277C119.958 22.6574 119.391 22.4941 118.919 22.1637C118.715 22.0222 118.55 21.8327 118.437 21.6118C118.324 21.3909 118.267 21.1455 118.272 20.8975V18.6259C118.292 18.1925 118.147 17.7674 117.866 17.4369C117.73 17.2859 117.562 17.1668 117.376 17.0882C117.188 17.0097 116.986 16.9736 116.783 16.9826C116.6 16.9758 116.419 17.0105 116.25 17.0841C116.083 17.1578 115.935 17.2686 115.816 17.4079C115.561 17.7319 115.431 18.1367 115.449 18.5486V22.1154C115.449 22.2991 115.362 22.3957 115.178 22.3957H113.545C113.507 22.4005 113.468 22.3964 113.433 22.384C113.396 22.3716 113.363 22.3511 113.336 22.324C113.309 22.297 113.289 22.2642 113.276 22.228C113.264 22.1919 113.26 22.1534 113.265 22.1154V18.6259C113.286 18.1972 113.151 17.7752 112.888 17.4369C112.77 17.2948 112.622 17.1805 112.454 17.102C112.288 17.0235 112.106 16.9827 111.921 16.9826C111.724 16.9747 111.528 17.0084 111.344 17.0818C111.16 17.1551 110.995 17.2662 110.858 17.4079C110.581 17.7215 110.439 18.1312 110.461 18.5486V22.1154C110.466 22.1534 110.462 22.1919 110.45 22.228C110.437 22.2642 110.417 22.297 110.39 22.324C110.363 22.3511 110.33 22.3716 110.294 22.384C110.257 22.3964 110.219 22.4005 110.181 22.3957H108.605C108.422 22.3957 108.335 22.2991 108.335 22.1154V17.5626C108.346 17.4851 108.34 17.406 108.314 17.3316C108.29 17.2572 108.249 17.1896 108.193 17.1342C108.138 17.0788 108.07 17.0371 107.995 17.0125C107.921 16.9878 107.842 16.981 107.764 16.9923H107.445C107.233 16.9923 107.126 16.915 107.126 16.7603V15.6197C107.122 15.5491 107.141 15.4789 107.182 15.421C107.222 15.3629 107.281 15.3204 107.349 15.3007C107.683 15.1792 108.037 15.1202 108.393 15.1267C108.734 15.0976 109.077 15.1657 109.382 15.323C109.686 15.4804 109.939 15.7206 110.113 16.016C110.439 15.707 110.826 15.4684 111.248 15.3154C111.671 15.1624 112.12 15.0982 112.569 15.1267C113.005 15.1054 113.439 15.1871 113.837 15.3652C114.235 15.5432 114.585 15.8125 114.859 16.1513C115.179 15.8036 115.573 15.5314 116.011 15.3542C116.449 15.177 116.92 15.0994 117.392 15.1267C117.813 15.107 118.235 15.1749 118.629 15.3264C119.024 15.4778 119.382 15.7093 119.683 16.0063C119.977 16.3161 120.204 16.6824 120.352 17.0829C120.5 17.4832 120.565 17.9096 120.543 18.3359V20.2015C120.543 20.5688 120.708 20.7525 121.017 20.7525C121.167 20.7594 121.317 20.7432 121.462 20.7041C121.662 20.7041 121.768 20.7815 121.78 20.9361L121.867 22.1444Z" fill="white"/>
<path d="M8.52132 14.1006C9.23446 11.2343 10.8861 8.68886 13.2132 6.86981C15.5404 5.05072 18.4092 4.0625 21.3629 4.0625C24.3166 4.0625 27.1855 5.05072 29.5126 6.86981C31.8398 8.68886 33.4914 11.2343 34.2045 14.1006H33.0446C31.0878 14.0718 29.1712 14.6566 27.5638 15.7729C27.471 15.84 27.3742 15.9014 27.2738 15.9565H27.1385C27.0382 15.9014 26.9413 15.84 26.8485 15.7729C25.2269 14.6824 23.3171 14.1 21.3629 14.1C19.4088 14.1 17.4989 14.6824 15.8773 15.7729C15.7845 15.84 15.6877 15.9014 15.5873 15.9565H15.452C15.3517 15.9014 15.2548 15.84 15.162 15.7729C13.5546 14.6566 11.638 14.0718 9.68127 14.1006H8.52132ZM30.9567 20.1613C31.5521 19.6977 32.2901 19.455 33.0446 19.475H34.6008V16.3722H33.0446C31.7157 16.3561 30.4172 16.7697 29.3424 17.5515C28.7376 17.9974 28.006 18.238 27.2545 18.238C26.503 18.238 25.7714 17.9974 25.1666 17.5515C24.0645 16.7843 22.754 16.373 21.4113 16.373C20.0685 16.373 18.758 16.7843 17.6559 17.5515C17.0511 17.9974 16.3195 18.238 15.568 18.238C14.8166 18.238 14.0849 17.9974 13.4801 17.5515C12.3921 16.7597 11.0749 16.3456 9.7296 16.3722H8.125V19.475H9.68127C10.4357 19.455 11.1737 19.6977 11.7692 20.1613C12.8692 20.929 14.1783 21.3406 15.5197 21.3406C16.8611 21.3406 18.1702 20.929 19.2702 20.1613C19.8664 19.6991 20.6038 19.4567 21.3581 19.475C22.1128 19.4534 22.8513 19.6962 23.446 20.1613C24.548 20.9286 25.8586 21.3398 27.2013 21.3398C28.5441 21.3398 29.8546 20.9286 30.9567 20.1613ZM30.9567 25.7098C31.5521 25.2461 32.2901 25.0035 33.0446 25.0235H34.6008V21.9206H33.0446C31.7157 21.9046 30.4172 22.3182 29.3424 23.0999C28.7376 23.5458 28.006 23.7864 27.2545 23.7864C26.503 23.7864 25.7714 23.5458 25.1666 23.0999C24.0645 22.3328 22.754 21.9216 21.4113 21.9216C20.0685 21.9216 18.758 22.3328 17.6559 23.0999C17.0511 23.5458 16.3195 23.7864 15.568 23.7864C14.8166 23.7864 14.0849 23.5458 13.4801 23.0999C12.3921 22.3082 11.0749 21.894 9.7296 21.9206H8.125V25.0235H9.68127C10.4357 25.0035 11.1737 25.2461 11.7692 25.7098C12.8692 26.4775 14.1783 26.8891 15.5197 26.8891C16.8611 26.8891 18.1702 26.4775 19.2702 25.7098C19.8664 25.2475 20.6038 25.0051 21.3581 25.0235C22.1128 25.0018 22.8513 25.2446 23.446 25.7098C24.548 26.477 25.8586 26.8882 27.2013 26.8882C28.5441 26.8882 29.8546 26.477 30.9567 25.7098Z" fill="white"/>
</svg>
