<svg width="298" height="304" viewBox="0 0 298 304" fill="none" xmlns="http://www.w3.org/2000/svg">
<g clip-path="url(#clip0_1110_12911)">
<path d="M297.55 181.363H196.3V187.547H297.55V181.363Z" fill="#EBEBEB"/>
<path d="M288.519 187.547H205.332V204.602H288.519V187.547Z" fill="#EBEBEB"/>
<path d="M288.519 190.92L205.332 192.57V187.547H288.519V190.92Z" fill="#C7C7C7"/>
<path d="M275.64 191.117H218.21V201.032H275.64V191.117Z" stroke="#DBDBDB" stroke-miterlimit="10"/>
<path d="M256.387 194.643H237.456V197.505H256.387V194.643Z" fill="#DBDBDB"/>
<path d="M204.66 302.683H201.907L209.917 204.602H216.947L204.66 302.683Z" fill="#EBEBEB"/>
<path d="M216.947 204.602L216.122 211.166H209.384L209.916 204.602H216.947Z" fill="#C7C7C7"/>
<path d="M289.198 302.683H291.95L283.934 204.602H276.903L289.198 302.683Z" fill="#EBEBEB"/>
<path d="M276.91 204.602L277.728 211.166H284.467L283.934 204.602H276.91Z" fill="#C7C7C7"/>
<path d="M278.217 84.1654C276.362 85.2898 274.311 86.1367 272.084 86.6477C266.324 87.9838 260.578 86.8376 255.956 83.8953C251.437 81.026 247.991 76.441 246.684 70.812C244.048 59.4152 251.138 48.0476 262.527 45.412C273.909 42.769 285.284 49.8655 287.927 61.255C290.052 70.425 285.861 79.5731 278.217 84.1654Z" fill="#EBEBEB"/>
<path d="M273.763 63.6934C273.719 67.249 270.806 70.0964 267.243 70.0599C263.688 70.0161 260.841 67.103 260.877 63.5401C260.921 59.9846 263.834 57.1372 267.397 57.1737C270.952 57.2175 273.8 60.1306 273.763 63.6934Z" fill="white"/>
<path d="M278.246 81.515L278.217 84.1725C276.362 85.2969 274.311 86.1438 272.084 86.6548C266.324 87.9909 260.578 86.8447 255.956 83.9024L255.986 81.2521C256.059 75.1193 261.096 70.1839 267.244 70.2569C273.391 70.3299 278.312 75.3895 278.239 81.515H278.246Z" fill="white"/>
<path d="M30.0871 119.458C28.8751 120.196 27.5244 120.751 26.0715 121.086C22.297 121.963 18.537 121.211 15.5071 119.283C12.5502 117.407 10.2869 114.399 9.43269 110.712C7.70967 103.25 12.3458 95.8032 19.8146 94.0729C27.2689 92.3426 34.7232 96.986 36.4535 104.455C37.8407 110.464 35.1028 116.45 30.0944 119.458H30.0871Z" fill="#EBEBEB"/>
<path d="M27.1739 106.039C27.1447 108.368 25.2318 110.237 22.9028 110.208C20.5738 110.179 18.7048 108.266 18.734 105.937C18.7632 103.608 20.676 101.739 23.005 101.768C25.334 101.797 27.2031 103.71 27.1739 106.039Z" fill="white"/>
<path d="M30.109 117.713L30.0871 119.451C28.8751 120.189 27.5244 120.743 26.0715 121.079C22.297 121.955 18.537 121.203 15.5071 119.276L15.529 117.538C15.5801 113.523 18.8801 110.288 22.9029 110.332C26.9331 110.383 30.1528 113.691 30.109 117.706V117.713Z" fill="white"/>
<path d="M43.9005 193.453C43.864 194.658 43.8786 195.863 43.9881 197.024C43.9443 196.235 43.937 195.439 43.9224 194.643C43.9151 194.249 43.9078 193.848 43.9005 193.453Z" fill="#EBEBEB"/>
<path d="M29.8024 257.994C32.6425 254.884 34.9715 251.284 36.7967 247.429C36.95 247.254 37.096 247.072 37.2421 246.889C50.6977 251.029 55.9544 236.938 55.6258 236.916C51.6103 236.602 48.062 236.5 44.4919 238.573C41.681 240.201 39.4396 242.691 37.6874 245.443C39.3374 241.523 40.5056 237.398 41.17 233.28C41.1919 233.273 41.2138 233.273 41.243 233.258C44.3824 231.469 47.8795 229.082 49.1937 225.534C50.5298 221.927 49.3981 217.16 48.6461 213.531C48.6023 213.334 48.3687 213.319 48.2884 213.465C43.0317 218.846 38.7753 224.672 40.7538 232.316C38.768 241.72 34.9058 249.167 29.4154 256.855C25.8088 245.794 24.2318 234.229 25.2904 222.409C25.4145 220.985 25.5898 219.576 25.7869 218.174C25.8526 218.174 25.9256 218.152 25.9986 218.109C30.0433 215.597 33.9566 212.626 37.5706 209.296C37.7239 209.209 37.8699 209.114 38.0233 209.019C44.7839 215.524 53.5816 209.968 59.9261 205.828C59.9407 205.821 59.948 205.807 59.9553 205.799C60.2327 205.712 60.2473 205.252 59.9042 205.142C59.8823 205.142 59.8677 205.128 59.8458 205.12C59.8093 205.106 59.7728 205.091 59.7363 205.084C55.5893 203.77 51.7636 201.901 47.3247 202.937C45.1125 203.456 42.9879 204.507 41.0751 205.85C46.5946 200.053 51.165 193.344 54.0415 186.036C54.0926 186.036 54.151 186.021 54.2021 185.992C61.9995 182.013 65.3361 175.354 64.4162 166.841C64.46 166.768 64.5111 166.71 64.5476 166.637C64.6571 166.447 64.3724 166.279 64.2336 166.433C59.2909 171.799 51.8951 176.106 54.1291 184.298C51.8439 188.657 49.3981 192.752 46.7114 196.6C49.2302 189.744 49.2813 183.458 45.9302 176.165C46.0251 175.953 45.8134 175.778 45.6235 175.822C45.5724 175.822 45.5286 175.843 45.4994 175.887C45.4994 175.887 45.4994 175.887 45.4921 175.887C42.141 179.757 39.9872 185.459 39.6952 190.577C39.4688 194.57 41.3525 197.491 44.1633 200.105C39.1549 206.588 33.2703 212.261 25.9548 217.021C28.3933 201.039 34.9496 186.218 41.1408 171.339C41.17 171.324 41.1919 171.317 41.2211 171.295C44.5211 168.521 49.0769 166.243 50.9532 162.132C52.9902 157.679 52.0265 151.896 51.5373 147.224C51.5446 147.209 51.3037 147.114 51.2964 147.173C47.7627 150.487 43.9808 154.167 41.9877 158.65C40.2573 162.534 40.3888 166.666 40.5275 170.806C40.5129 170.82 40.4983 170.835 40.491 170.85C40.4472 170.901 40.491 170.974 40.5348 170.981C40.5348 171.193 40.5494 171.397 40.5567 171.609C38.7607 175.004 37.0668 178.465 35.4898 181.984C35.7527 178.26 36.1834 174.369 35.2343 170.82C34.0734 166.476 28.1816 158.679 28.1378 158.679C28.1013 158.65 28.0502 158.679 28.0648 158.723C28.0648 158.723 28.0648 158.723 28.0648 158.73C28.0648 158.73 28.0648 158.73 28.0575 158.73C28.0429 158.832 27.9699 159.183 27.9845 159.219C26.517 168.652 23.5017 179.494 34.7013 183.707C34.7013 183.721 34.7013 183.728 34.7013 183.743C26.809 201.871 22.1802 221.409 24.334 240.464C17.5076 229.549 14.6529 217.729 13.3899 204.938C13.441 204.909 13.4848 204.872 13.514 204.806C15.2443 200.411 17.0769 195.578 16.7264 190.781C16.3906 186.247 14.0105 181.94 12.1049 177.895C12.0173 177.713 11.7399 177.661 11.645 177.873C9.33055 183.02 6.75332 187.664 7.07456 193.504C7.3374 198.235 9.91463 200.784 13.0175 204.127C13.0102 204.149 12.9956 204.157 12.9956 204.186C12.9956 204.266 12.9956 204.339 12.9956 204.419C12.9737 204.485 12.9518 204.558 12.9299 204.624C12.8934 204.733 12.9299 204.821 13.0029 204.879C13.0248 211.647 13.7038 218.671 15.624 225.249C14.1346 221.591 13.1489 218.028 10.4987 214.933C7.52722 211.465 3.92056 208.303 0.313892 205.515C0.116766 205.361 -0.131466 205.639 0.0583589 205.814C0.0875627 205.836 0.116766 205.865 0.138669 205.887C0.584027 210.486 0.978277 216.262 3.4825 220.321C6.16925 224.68 11.2069 225.935 15.9671 226.614C15.9817 226.614 15.9963 226.614 16.0109 226.614C17.7777 232.127 20.4718 237.281 24.48 241.647C25.7358 251.467 28.8168 261.155 34.2195 270.442C34.4093 270.763 34.9715 270.478 34.8035 270.143C32.8688 266.178 31.1896 262.133 29.7878 258.008L29.8024 257.994ZM43.9589 239.814C47.7627 237.259 51.0043 237.763 55.0491 237.537C52.8296 240.377 51.5811 242.859 48.5512 244.75C45.2731 246.794 41.3379 246.495 37.629 246.436C39.5565 244.049 41.389 241.552 43.9589 239.822V239.814ZM41.3306 232.324C41.3525 232.178 41.2722 232.09 41.17 232.046C40.8779 228.118 40.7757 224.964 43.0682 221.343C44.6671 218.817 46.4704 216.393 48.2884 214.02C48.4271 217.313 49.0842 220.649 48.5147 223.898C47.8357 227.775 44.6452 230.44 41.3306 232.331V232.324ZM58.8455 172.872C60.6927 171.047 62.6201 169.477 64.073 167.352C63.4816 171.018 63.7883 174.507 61.7732 177.859C60.0575 180.706 57.5752 182.823 54.7935 184.546C54.0488 179.888 55.4944 176.179 58.8382 172.879L58.8455 172.872ZM43.9881 197.024C44.0246 197.608 44.083 198.184 44.1853 198.754C42.3746 195.79 41.4401 192.46 41.6956 188.927C42.0023 184.597 44.397 180.983 45.5943 176.909C45.5943 176.968 45.5943 177.019 45.5943 177.07C44.6014 180.764 44.1414 184.627 43.9516 188.43C43.8713 190.102 43.8713 191.774 43.8932 193.446C43.9443 191.723 44.0976 190 44.1853 188.423C44.3751 184.794 44.8861 181.246 45.6162 177.705C45.8061 181.224 46.5581 184.67 46.339 188.226C46.12 191.913 45.3315 195.527 44.4335 199.097C44.3897 199.039 44.3386 198.987 44.2875 198.929C44.1487 198.308 44.0465 197.673 43.9808 197.016L43.9881 197.024ZM47.7481 186.51C48.0109 191.029 46.1127 195.162 44.6306 199.323C44.6014 199.287 44.5722 199.25 44.543 199.221C45.4045 195.709 46.2952 192.168 46.5435 188.554C46.799 184.824 46.2733 181.049 45.7038 177.362C45.7184 177.296 45.7331 177.238 45.7477 177.172C46.4485 180.268 47.5656 183.378 47.7554 186.517L47.7481 186.51ZM41.2649 186.861C42.1191 183.334 43.6888 180.428 45.3242 177.326C43.864 181.458 41.5204 185.203 41.4401 189.73C41.389 192.577 42.0461 195.476 43.4698 197.936C40.9144 194.658 40.0748 191.738 41.2649 186.861ZM47.6094 203.886C51.5884 202.967 55.0272 204.697 58.7798 205.566C55.6623 207.632 52.4864 210.092 48.7848 210.757C44.9884 211.443 41.8636 210.311 38.6511 208.61C41.5496 206.792 44.1634 204.682 47.6167 203.879L47.6094 203.886ZM43.2653 158.314C45.0687 154.306 47.8211 151.217 50.705 148.049C46.3974 153.714 43.3602 160.431 41.5861 167.331C41.8782 164.315 41.9147 161.307 43.2653 158.314ZM41.2211 169.988C41.2868 169.623 41.3525 169.265 41.4036 168.908C43.1996 161.409 46.4485 154.671 50.778 148.326C47.0545 155.174 44.1122 162.373 41.4766 169.696C41.389 169.791 41.3087 169.893 41.2211 169.988ZM41.5569 169.601C44.2218 162.11 47.5948 154.904 51.1431 147.801C50.4349 151.787 50.172 156.007 48.668 159.781C47.1713 163.541 44.2072 166.549 41.5569 169.601ZM48.7337 160.198C50.3692 156.306 50.7634 151.728 51.3037 147.56C51.2964 151.772 51.5081 157.737 49.8289 161.577C48.2373 165.221 44.5795 167.455 41.5642 169.893C44.2437 166.929 47.1932 163.863 48.7337 160.198ZM28.3349 159.562C28.3349 159.504 28.3349 159.438 28.3349 159.38C30.1382 162.943 32.5402 165.951 33.8325 169.944C35.0226 173.617 34.9423 178.202 34.8473 182.21C34.7378 179.969 34.4312 177.734 33.9712 175.544C33.9712 175.515 33.9201 175.53 33.9274 175.559C34.2925 177.917 34.5115 180.268 34.6429 182.641C33.0002 178.939 30.9705 175.405 29.89 171.477C28.9117 167.915 28.2546 163.841 28.313 160.088C30.1893 164.899 33.0586 169.127 33.723 174.412C33.1608 169.251 30.5909 164.206 28.3203 159.57L28.3349 159.562ZM28.5539 165.6C28.8241 167.593 29.1526 169.579 29.6856 171.521C30.7807 175.508 32.7155 179.392 34.6502 183.042C31.6276 180.304 29.3205 176.975 28.3422 172.96C27.4515 169.316 27.7946 165.476 28.0794 161.723C28.1743 163.023 28.386 164.33 28.5612 165.6H28.5539ZM27.2252 170.755C27.1887 169.039 27.3493 167.331 27.5537 165.629C27.4369 168.389 27.5756 171.142 28.4152 173.792C29.5615 177.406 31.686 180.764 34.6648 183.13C34.6648 183.21 34.6721 183.29 34.6794 183.371C29.9703 180.297 27.3566 176.544 27.2179 170.755H27.2252ZM8.1332 192.628C8.06019 188.051 11.8348 179.07 11.8348 179.07C12.0684 179.209 15.4195 188.299 15.6605 190.153C16.2372 194.614 14.558 199.615 13.1636 203.908C11.2361 199.871 8.21351 197.608 8.1332 192.628ZM3.11015 217.488C1.73027 213.867 1.35793 209.917 0.445309 206.164C3.69423 209.143 7.09647 211.998 9.98034 215.342C12.7182 218.518 13.6016 222.321 15.5948 225.84C10.2067 224.694 5.26393 223.132 3.11015 217.488Z" fill="#EBEBEB"/>
<path d="M60.6853 176.96C62.1747 174.011 63.1968 170.769 63.9488 167.557C64.0218 167.447 64.1021 167.345 64.1751 167.236C64.2043 167.199 64.1386 167.148 64.1094 167.184C64.0656 167.228 64.0291 167.279 63.9853 167.323C63.9634 167.279 63.8977 167.272 63.8685 167.309C63.8539 167.301 63.832 167.309 63.8174 167.323C63.7079 167.506 63.6057 167.688 63.4962 167.871C59.2178 172.667 55.5381 178.063 54.5306 184.502C54.4211 184.619 54.3043 184.736 54.1948 184.853C54.1802 184.867 54.2021 184.897 54.2167 184.875C54.3189 184.765 54.4211 184.663 54.5233 184.553C54.4868 184.772 54.4503 184.999 54.4211 185.218C54.4211 185.247 54.4649 185.262 54.4722 185.232C54.5087 184.984 54.5452 184.736 54.5817 184.488C54.6547 184.407 54.735 184.327 54.808 184.247C54.7642 184.393 54.7058 184.539 54.662 184.692C54.6401 184.772 54.7569 184.794 54.7861 184.721C54.8956 184.451 55.0125 184.181 55.122 183.918C57.2027 181.757 59.3054 179.684 60.678 176.953L60.6853 176.96ZM63.6933 167.922C62.8318 170.959 61.9265 174.033 60.5174 176.858C59.1886 179.516 57.2027 181.699 55.1731 183.831C57.4875 178.435 60.678 173.492 63.4158 168.309C63.5108 168.177 63.6057 168.053 63.7006 167.922H63.6933ZM54.5963 184.437C55.1293 181.239 56.1952 178.202 57.9766 175.471C59.3784 173.325 61.0503 171.382 62.6127 169.36C61.2475 171.704 59.9552 174.084 58.6337 176.449C57.2392 178.946 55.7207 181.45 54.8299 184.188C54.7496 184.276 54.6693 184.356 54.589 184.444L54.5963 184.437Z" fill="#EBEBEB"/>
<path d="M59.5904 205.646C59.4006 205.602 59.2034 205.558 59.0063 205.522C59.0063 205.507 58.9917 205.5 58.9698 205.5C58.9406 205.5 58.9041 205.5 58.8749 205.5H58.8384C58.8749 205.456 58.9114 205.427 58.9479 205.391C58.9625 205.376 58.9479 205.354 58.926 205.361C58.8749 205.398 58.8165 205.434 58.7654 205.471C55.5091 204.77 52.1653 204.222 48.8361 204.704C45.3754 205.208 41.725 206.749 38.6294 208.435C38.4614 208.362 38.2862 208.289 38.1183 208.201C38.1037 208.201 38.0964 208.216 38.1037 208.223C38.2643 208.304 38.4249 208.377 38.5929 208.45C38.571 208.464 38.5418 208.479 38.5198 208.493C38.4395 208.523 38.3592 208.545 38.2716 208.574C38.2424 208.581 38.2497 208.625 38.2716 208.625C38.2351 208.647 38.2716 208.698 38.3008 208.676C38.4395 208.618 38.571 208.559 38.7097 208.501C41.8053 209.903 45.1856 210.428 48.5806 209.924C50.3766 209.654 52.0996 209.07 53.7496 208.333C55.3777 207.603 57.3198 206.829 58.6924 205.617C58.9771 205.675 59.2691 205.741 59.5539 205.799C59.6561 205.821 59.6999 205.661 59.5977 205.639L59.5904 205.646ZM48.8653 204.916C51.8733 204.463 54.9032 204.858 57.8674 205.449C51.6104 205.281 45.3024 206.318 39.3522 208.216C42.4113 206.858 45.5653 205.405 48.8726 204.916H48.8653ZM38.7535 208.479C38.7535 208.479 38.7827 208.464 38.7973 208.457C45.2075 206.398 51.7711 205.551 58.4952 205.566C58.5244 205.566 58.5536 205.573 58.5755 205.58C52.6326 209.589 45.485 211.363 38.7535 208.472V208.479Z" fill="#EBEBEB"/>
<path d="M41.4619 232.265C41.4619 232.265 41.4838 232.243 41.4911 232.236C41.4911 232.273 41.4765 232.302 41.4692 232.331C41.4692 232.36 41.513 232.375 41.5203 232.346C41.5276 232.287 41.5422 232.229 41.5568 232.17C43.7252 229.885 45.8279 227.396 46.9522 224.424C48.1642 221.197 48.2591 217.729 48.2299 214.327C48.281 214.247 48.3394 214.166 48.3905 214.093C48.4124 214.064 48.3613 214.02 48.3394 214.049C48.3029 214.093 48.2664 214.144 48.2299 214.196C48.2299 214.159 48.2299 214.115 48.2299 214.079C48.2299 214.057 48.1934 214.057 48.1934 214.079C48.1934 214.137 48.1934 214.196 48.1861 214.254C48.1058 214.356 48.0327 214.466 47.9524 214.568C48.04 214.356 48.1277 214.144 48.2153 213.94C48.2226 213.911 48.1934 213.889 48.1788 213.918C47.9889 214.276 47.8064 214.641 47.6239 215.006C43.8712 220.08 41.1845 225.804 41.3013 232.265C41.148 232.433 40.9946 232.601 40.8413 232.769C40.7902 232.82 40.8705 232.901 40.9216 232.849C41.0457 232.718 41.1772 232.587 41.3013 232.455C41.3013 232.609 41.3013 232.755 41.3086 232.908C41.3086 233.003 41.4619 233.003 41.4619 232.908C41.4619 232.703 41.4619 232.492 41.4619 232.287V232.265ZM43.1338 223.095C44.1048 220.423 45.6891 218.021 47.2954 215.678C46.3535 217.7 45.5796 219.781 44.7838 221.876C44.7765 221.898 44.8057 221.905 44.8203 221.883C45.7183 219.554 46.777 217.298 47.7553 215.006C47.894 214.801 48.0328 214.604 48.1715 214.4C48.0181 217.539 47.9086 220.759 46.9376 223.774C45.9009 226.979 43.8128 229.476 41.6006 231.922C42.0898 229.301 42.9367 226.76 43.915 224.285C42.8053 226.775 42.1044 229.33 41.5495 231.988C41.5203 232.017 41.4911 232.046 41.4692 232.083C41.5057 229.068 42.119 225.921 43.1411 223.11L43.1338 223.095Z" fill="#EBEBEB"/>
<path d="M55.2243 237.456C55.2243 237.456 55.2536 237.383 55.2243 237.361C55.2682 237.31 55.3047 237.266 55.3485 237.215C55.385 237.171 55.3266 237.113 55.2901 237.157C55.2171 237.237 55.144 237.318 55.071 237.398C54.9542 237.434 54.8374 237.471 54.7206 237.507C51.6688 237.945 48.5659 238.537 45.7404 239.8C42.8639 241.078 40.6298 243.136 38.476 245.363C38.1401 245.604 37.8116 245.852 37.4831 246.101C37.4539 246.122 37.4904 246.166 37.5196 246.152C37.6948 246.035 37.87 245.925 38.0452 245.809C37.9795 245.882 37.9138 245.947 37.8481 246.02C37.8481 246.02 37.8481 246.035 37.8554 246.028C37.9649 245.925 38.0744 245.823 38.1767 245.721C43.2727 242.377 48.6243 239.902 54.3336 237.799C54.4797 237.77 54.6257 237.748 54.779 237.719C52.6763 239.997 50.2597 241.968 47.5292 243.45C44.178 245.261 40.8999 245.918 37.1691 246.349C37.1399 246.349 37.1399 246.393 37.1691 246.393C43.9298 246.604 50.6686 242.764 54.9688 237.69C55.0491 237.675 55.1294 237.661 55.2098 237.646C55.312 237.624 55.2974 237.515 55.2317 237.471L55.2243 237.456ZM38.8483 245.093C40.9802 243.122 43.1924 241.202 45.8645 240.019C48.1716 238.989 50.6248 238.486 53.0852 238.026C48.0694 239.705 43.1632 242.049 38.8483 245.093Z" fill="#EBEBEB"/>
<path d="M13.3533 204.2C13.3533 204.142 13.346 204.076 13.346 204.018C13.3972 203.989 13.4264 203.93 13.3972 203.872C13.3752 203.821 13.346 203.762 13.3241 203.711C13.127 199.82 12.448 195.994 12.0684 192.117C11.6668 187.978 11.7909 183.831 11.7982 179.684C11.8859 179.304 11.9735 178.917 12.0538 178.537C12.083 178.406 11.8932 178.362 11.8567 178.486C11.0901 180.837 10.5936 183.298 10.1117 185.722C9.71747 187.729 9.33782 189.774 9.44734 191.833C9.67367 195.965 11.3602 200.316 13.2073 203.981C13.2219 204.018 13.2511 204.032 13.2803 204.032C13.2803 204.091 13.2876 204.149 13.2876 204.2C13.2876 204.237 13.3533 204.237 13.3533 204.2ZM9.75398 191.183C9.73938 187.364 10.8856 183.604 11.7471 179.888C11.55 183.955 11.4989 188.051 11.8859 192.103C12.2509 195.921 13.0102 199.688 13.2438 203.521C11.5719 199.696 9.76858 195.403 9.74668 191.175L9.75398 191.183Z" fill="#EBEBEB"/>
<path d="M13.4776 204.317C13.6455 200.156 15.2663 196.337 14.894 192.117C14.58 188.532 13.8353 184.897 12.3898 181.597C12.3752 181.567 12.3314 181.589 12.346 181.618C13.7988 185.181 14.5581 189.175 14.7553 193.015C14.9451 196.856 13.536 200.506 13.3973 204.324C13.3973 204.383 13.4849 204.383 13.4849 204.324L13.4776 204.317Z" fill="#EBEBEB"/>
<path d="M16.8942 225.621C16.4708 225.585 16.04 225.519 15.6166 225.446C15.507 225.373 15.4048 225.293 15.2953 225.22C13.1488 222.088 11.2798 218.817 8.87049 215.86C6.19104 212.574 3.5627 209.158 0.583911 206.135C0.554707 206.106 0.518203 206.15 0.540105 206.172C3.12464 209.289 5.75298 212.37 8.33022 215.488C10.7833 218.466 12.6305 221.796 14.8573 224.906C11.7982 222.701 9.02381 220.226 6.6729 217.24C4.01536 213.859 2.28503 210.092 0.532805 206.208C0.518203 206.179 0.481698 206.201 0.488999 206.23C0.540105 206.412 0.598513 206.588 0.656921 206.77C0.540105 206.471 0.42329 206.179 0.291873 205.894C0.255368 205.814 0.11665 205.872 0.145854 205.953C1.53303 210.172 1.83237 215.13 4.60673 218.751C7.22047 222.153 11.1557 224.884 15.4121 225.687C15.4705 225.767 15.5217 225.848 15.5801 225.921C15.6385 226.001 15.7772 225.921 15.7188 225.84C15.6896 225.804 15.6677 225.767 15.6385 225.724C15.7042 225.738 15.7699 225.745 15.8356 225.753C15.8794 225.782 15.9232 225.811 15.967 225.84C16.0108 225.87 16.0473 225.826 16.0473 225.789C16.3321 225.833 16.6168 225.87 16.9015 225.891C17.0695 225.906 17.0695 225.643 16.9015 225.629L16.8942 225.621ZM15.1785 225.366C10.6738 224.417 6.31516 221.255 4.00075 217.379C2.35074 214.611 2.0441 211.363 1.16799 208.311C3.67221 215.115 9.16983 221.372 15.1274 225.293C15.142 225.315 15.1639 225.344 15.1785 225.366Z" fill="#EBEBEB"/>
<path d="M46.4412 257.833C46.4412 257.833 46.0177 261.637 45.4264 267.04C44.0246 279.773 41.681 301.369 41.681 302.683H20.5593C20.5593 301.369 18.223 279.773 16.8286 267.04C16.2372 261.637 15.8137 257.833 15.8137 257.833H46.4412Z" fill="#DBDBDB"/>
<path d="M46.4412 257.833C46.4412 257.833 46.0177 261.637 45.4264 267.04H16.8286C16.2372 261.637 15.8137 257.833 15.8137 257.833H46.4412Z" fill="#C7C7C7"/>
<path d="M48.3759 256.315H13.8936V263.032H48.3759V256.315Z" fill="#DBDBDB"/>
<path d="M0 302.683L37.191 302.508L74.3893 302.442L148.771 302.318L223.161 302.442L260.359 302.5L297.55 302.683L260.359 302.858L223.161 302.924L148.771 303.048L74.3893 302.924L37.191 302.858L0 302.683Z" fill="#263238"/>
<path d="M209.296 265.171H261.367V213.1H209.296V265.171Z" fill="#B476E5"/>
<path d="M209.296 213.1H205.69V265.171H209.296V213.1Z" fill="#B476E5"/>
<path opacity="0.1" d="M209.296 213.1H205.69V265.171H209.296V213.1Z" fill="black"/>
<path d="M235.332 222.263C211.603 222.263 211.56 256.008 235.332 256.008C259.103 256.008 259.096 222.263 235.332 222.263Z" fill="white"/>
<path d="M249.758 242.297C248.495 248.101 243.677 253.139 235.324 253.139C215.604 253.139 215.634 225.132 235.324 225.132C235.456 225.132 235.58 225.132 235.711 225.132C217.182 225.475 217.269 251.993 236.076 251.993C243.75 251.993 248.32 247.554 249.758 242.29V242.297Z" fill="#B476E5"/>
<path d="M235.47 228.826C235.806 228.826 236.083 229.082 236.083 229.389V230.33C237.931 230.469 239.267 231.039 240.654 231.973C240.887 232.141 241.012 232.28 241.012 232.513C241.012 232.842 240.705 233.097 240.347 233.097C240.194 233.097 240.062 233.076 239.887 232.93C238.632 232.017 237.398 231.542 236.04 231.404V237.982C239.938 238.734 241.581 240.07 241.581 242.377C241.581 244.867 239.296 246.626 236.091 246.721V248.554C236.091 248.86 235.806 249.116 235.477 249.116C235.149 249.116 234.864 248.86 234.864 248.554V246.699C232.63 246.531 230.805 245.787 229.089 244.421C228.907 244.283 228.804 244.137 228.804 243.925C228.804 243.618 229.111 243.341 229.447 243.341C229.681 243.341 229.834 243.436 229.907 243.509C231.345 244.728 232.908 245.458 234.915 245.648V238.953C231.068 238.179 229.476 236.887 229.476 234.536C229.476 232.185 231.732 230.352 234.864 230.287V229.396C234.864 229.089 235.149 228.834 235.477 228.834L235.47 228.826ZM234.908 237.755V231.345C232.418 231.389 230.776 232.754 230.776 234.448C230.776 236.047 231.601 237.033 234.908 237.763V237.755ZM236.04 239.186V245.67C238.61 245.626 240.274 244.261 240.274 242.472C240.274 240.851 239.376 239.865 236.04 239.186Z" fill="#B476E5"/>
<path d="M233.367 210.333V209.238" stroke="#B476E5" stroke-miterlimit="10"/>
<path d="M233.367 207.121V199.696" stroke="#B476E5" stroke-miterlimit="10"/>
<path d="M233.367 198.63V197.535L232.316 197.221" stroke="#B476E5" stroke-miterlimit="10"/>
<path d="M230.337 196.615L203.565 188.459" stroke="#B476E5" stroke-miterlimit="10"/>
<path d="M202.572 188.16L201.528 187.839" stroke="#B476E5" stroke-miterlimit="10"/>
<path d="M201.988 186.547C201.265 186.328 200.499 186.736 200.272 187.459C200.053 188.182 200.462 188.949 201.185 189.175C201.908 189.394 202.674 188.985 202.901 188.262C203.12 187.54 202.711 186.773 201.988 186.547Z" fill="#B476E5"/>
<path d="M230.418 167.878H282.488V115.808H230.418V167.878Z" fill="#B476E5"/>
<path d="M230.418 115.815H226.811V167.885H230.418V115.815Z" fill="#B476E5"/>
<path opacity="0.1" d="M230.418 115.815H226.811V167.885H230.418V115.815Z" fill="black"/>
<path d="M270.792 145.508C264.258 154.152 256.453 157.949 256.453 157.949C256.453 157.949 248.656 154.152 242.121 145.508C237.076 138.827 237.324 128.365 244.545 126.102C252.532 123.598 256.46 135.622 256.46 135.622C256.46 135.622 260.439 123.525 268.375 126.102C275.574 128.446 275.844 138.827 270.799 145.508H270.792Z" fill="white"/>
<path d="M250.817 152.67L248.641 143.61L247.217 146.807H238.427V145.778H246.553L248.933 140.434L250.627 147.501L253.029 132.863L255.146 144.442L256.818 139.609L259.461 147.523L260.045 145.778H274.486V146.8H260.782L259.461 150.757L256.803 142.785L254.84 148.457L253.08 138.849L250.817 152.67Z" fill="#B476E5"/>
<path d="M226.154 141.85H225.059" stroke="#B476E5" stroke-miterlimit="10"/>
<path d="M223 141.85H195.235" stroke="#B476E5" stroke-miterlimit="10"/>
<path d="M194.205 141.85H193.11" stroke="#B476E5" stroke-miterlimit="10"/>
<path d="M193.396 143.198C194.144 143.078 194.653 142.373 194.532 141.625C194.411 140.876 193.706 140.367 192.958 140.488C192.21 140.609 191.701 141.314 191.822 142.062C191.943 142.81 192.647 143.319 193.396 143.198Z" fill="#B476E5"/>
<path d="M209.296 70.5928H261.367V18.5224L209.296 18.5224V70.5928Z" fill="#B476E5"/>
<path d="M209.296 18.5298H205.69V70.6002H209.296V18.5298Z" fill="#B476E5"/>
<path opacity="0.1" d="M209.296 18.5298H205.69V70.6002H209.296V18.5298Z" fill="black"/>
<path d="M249.933 33.628C249.656 33.8982 249.408 34.1391 249.152 34.38C245.034 38.3079 240.909 42.2286 236.792 46.1565C235.864 47.0399 234.872 47.0399 233.944 46.1565C229.717 42.1555 225.482 38.1619 221.255 34.1683C221.095 34.015 220.941 33.8617 220.759 33.6864C221.102 33.4528 221.474 33.3871 221.861 33.3871C224.723 33.3798 227.585 33.3652 230.454 33.3506C236.427 33.3287 242.399 33.3068 248.371 33.2776C248.897 33.2776 249.422 33.2776 249.933 33.6207V33.628Z" fill="white"/>
<path d="M249.904 55.5308C249.546 55.5965 249.196 55.7206 248.838 55.7206C245.414 55.7498 241.99 55.7571 238.566 55.7717C233.061 55.7936 227.563 55.8083 222.058 55.8375C221.606 55.8375 221.182 55.7644 220.722 55.5016C224.154 52.2308 227.556 48.9965 230.973 45.7402C231.637 46.3681 232.294 46.9814 232.944 47.602C233.221 47.8648 233.506 48.1276 233.784 48.3978C234.718 49.2739 236.003 49.2812 236.938 48.3978C237.843 47.5363 238.741 46.6675 239.683 45.7694C243.092 48.9892 246.487 52.2016 249.889 55.414C249.889 55.4578 249.889 55.4943 249.889 55.5381L249.904 55.5308Z" fill="white"/>
<path d="M229.724 44.5575C226.402 47.7919 223.029 50.9313 219.737 54.1802C219.722 54.0634 219.664 53.8809 219.664 53.6983C219.634 47.6678 219.612 41.6372 219.591 35.6066C219.591 35.4022 219.642 35.1977 219.656 35.0371C223 38.1984 226.344 41.3597 229.717 44.5575H229.724Z" fill="white"/>
<path d="M250.992 54.0707C249.743 52.888 248.495 51.6906 247.246 50.5078C245.224 48.595 243.202 46.6894 241.172 44.7839C241.106 44.7182 241.026 44.6671 240.931 44.5868C244.275 41.3378 247.655 38.1911 250.919 34.9641C251.058 35.3146 251.138 53.5888 250.992 54.0707Z" fill="white"/>
<path d="M234.368 73.7249V74.82" stroke="#B476E5" stroke-miterlimit="10"/>
<path d="M234.368 76.9373V84.3623" stroke="#B476E5" stroke-miterlimit="10"/>
<path d="M234.368 85.4209V86.516L233.324 86.8373" stroke="#B476E5" stroke-miterlimit="10"/>
<path d="M231.309 87.4507L196.016 98.1977" stroke="#B476E5" stroke-miterlimit="10"/>
<path d="M195.008 98.5117L193.964 98.8257" stroke="#B476E5" stroke-miterlimit="10"/>
<path d="M193.628 97.4967C192.906 97.7157 192.497 98.4823 192.716 99.2124C192.935 99.9352 193.701 100.344 194.432 100.125C195.154 99.906 195.563 99.1394 195.344 98.4093C195.125 97.6792 194.359 97.2777 193.628 97.4967Z" fill="#B476E5"/>
<path d="M84.2967 213.1H32.2263V265.171H84.2967V213.1Z" fill="#B476E5"/>
<path d="M84.2967 265.17H87.9033V213.1H84.2967V265.17Z" fill="#B476E5"/>
<path opacity="0.1" d="M84.2967 265.17H87.9033V213.1H84.2967V265.17Z" fill="black"/>
<path d="M70.162 229.659C67.6213 224.044 61.1381 221.102 54.9031 222.657C49.6099 223.971 44.7621 228.834 45.368 235.719C45.5433 237.726 46.2515 239.603 47.0984 241.413C48.9601 245.4 51.5665 248.882 54.4942 252.131C55.6843 253.453 56.9327 254.716 58.1739 256.023C58.3564 255.869 58.4805 255.782 58.5828 255.672C60.1817 253.964 61.8317 252.299 63.3503 250.525C66.1903 247.218 68.6289 243.647 70.1913 239.544C71.447 236.244 71.6587 232.944 70.1694 229.659H70.162ZM66.2341 234.455C66.11 238.916 62.3865 242.341 57.8162 242.195C53.5816 242.056 50.0845 238.369 50.2086 234.185C50.3546 229.527 53.9759 226.154 58.6704 226.308C62.8611 226.446 66.351 230.206 66.2341 234.455Z" fill="white"/>
<path d="M58.2615 210.333V209.238" stroke="#B476E5" stroke-miterlimit="10"/>
<path d="M58.2615 207.121V199.696" stroke="#B476E5" stroke-miterlimit="10"/>
<path d="M58.2615 198.63V197.535L59.3055 197.221" stroke="#B476E5" stroke-miterlimit="10"/>
<path d="M61.3279 196.607L96.6133 185.853" stroke="#B476E5" stroke-miterlimit="10"/>
<path d="M97.6208 185.546L98.6722 185.225" stroke="#B476E5" stroke-miterlimit="10"/>
<path d="M99.008 186.561C99.7308 186.342 100.14 185.576 99.9206 184.845C99.7016 184.123 98.935 183.714 98.2049 183.933C97.4821 184.152 97.0732 184.919 97.2922 185.649C97.5113 186.371 98.2779 186.78 99.008 186.561Z" fill="#B476E5"/>
<path d="M63.1677 115.815H11.0974V167.886H63.1677V115.815Z" fill="#B476E5"/>
<path d="M63.1677 167.878H66.7744V115.808H63.1677L63.1677 167.878Z" fill="#B476E5"/>
<path opacity="0.1" d="M63.1677 167.878H66.7744V115.808H63.1677L63.1677 167.878Z" fill="black"/>
<path d="M48.5002 156.708C47.9307 157.263 47.2298 157.54 46.4778 157.723C46.142 157.803 45.8061 157.854 45.4703 157.92H43.7108C43.1267 157.825 42.5353 157.752 41.9585 157.628C39.6222 157.153 37.5269 156.124 35.5629 154.802C30.9925 151.736 27.196 147.895 24.1369 143.325C22.8374 141.39 21.8298 139.317 21.3626 137.01C21.2385 136.411 21.1654 135.805 21.0632 135.199V133.505C21.1873 132.958 21.2677 132.396 21.4575 131.87C21.6327 131.381 21.9247 130.928 22.1876 130.417C22.3336 130.541 22.4066 130.592 22.465 130.658C24.8743 133.067 27.2836 135.477 29.7002 137.886C29.8463 138.032 29.8755 138.156 29.8171 138.346C29.452 139.645 29.6856 140.821 30.591 141.85C32.6279 144.172 34.8036 146.355 37.1253 148.392C38.1547 149.29 39.3302 149.524 40.6298 149.159C40.7831 149.115 40.9072 149.093 41.0459 149.232C43.4844 151.685 45.9375 154.13 48.3834 156.576C48.4199 156.613 48.4491 156.657 48.4929 156.708H48.5002Z" fill="white"/>
<path d="M52.7421 152.495C51.8952 153.349 51.041 154.196 50.1941 155.043C50.1283 155.109 50.0553 155.167 50.0115 155.211C47.5365 152.743 45.0834 150.283 42.6011 147.8C42.7763 147.64 42.9807 147.472 43.1705 147.282C43.9006 146.559 44.6161 145.829 45.3462 145.106C45.9741 144.479 46.602 144.479 47.2299 145.106C49.0697 146.946 50.9096 148.786 52.7494 150.626C53.3627 151.239 53.3627 151.867 52.7494 152.48L52.7421 152.495Z" fill="white"/>
<path d="M33.9276 133.571C32.9857 134.491 32.022 135.382 31.0729 136.28C28.7001 133.907 26.2397 131.446 23.7646 128.979C23.8085 128.935 23.8596 128.869 23.9107 128.811C24.7722 127.942 25.6337 127.08 26.5025 126.219C27.0939 125.635 27.7291 125.627 28.3131 126.219C30.1749 128.081 32.0366 129.942 33.8984 131.804C34.4605 132.366 34.4824 133.031 33.9276 133.571Z" fill="white"/>
<path d="M67.6067 141.85H68.7018" stroke="#B476E5" stroke-miterlimit="10"/>
<path d="M70.8191 141.85H78.2149" stroke="#B476E5" stroke-miterlimit="10"/>
<path d="M79.2664 141.85H80.3615" stroke="#B476E5" stroke-miterlimit="10"/>
<path d="M80.2957 143.223C81.0537 143.223 81.6683 142.608 81.6683 141.85C81.6683 141.092 81.0537 140.478 80.2957 140.478C79.5376 140.478 78.9231 141.092 78.9231 141.85C78.9231 142.608 79.5376 143.223 80.2957 143.223Z" fill="#B476E5"/>
<path d="M84.2967 18.5298H32.2263V70.6002H84.2967V18.5298Z" fill="#B476E5"/>
<path d="M84.2967 70.5928H87.9033V18.5224H84.2967V70.5928Z" fill="#B476E5"/>
<path opacity="0.1" d="M84.2967 70.5928H87.9033V18.5224H84.2967V70.5928Z" fill="black"/>
<path d="M67.2416 37.4247C67.1832 42.2288 63.2407 46.0764 58.4366 46.018C53.6326 45.9596 49.785 42.017 49.8434 37.213C49.9018 32.409 53.8444 28.5614 58.6484 28.6198C63.4524 28.6782 67.3 32.6207 67.2416 37.4247Z" fill="white"/>
<path d="M73.2722 60.503H43.2507C43.6742 52.5158 50.3399 46.1785 58.4367 46.2808C66.4093 46.3757 72.8561 52.6764 73.2722 60.503Z" fill="white"/>
<path d="M58.2615 73.7249V74.82" stroke="#B476E5" stroke-miterlimit="10"/>
<path d="M58.2615 76.9373V84.3623" stroke="#B476E5" stroke-miterlimit="10"/>
<path d="M58.2615 85.4209V86.516L59.3055 86.8373" stroke="#B476E5" stroke-miterlimit="10"/>
<path d="M61.3279 87.4507L96.6133 98.1977" stroke="#B476E5" stroke-miterlimit="10"/>
<path d="M97.6208 98.5117L98.6722 98.8257" stroke="#B476E5" stroke-miterlimit="10"/>
<path d="M98.2049 100.118C98.9277 100.337 99.6943 99.928 99.9206 99.2052C100.14 98.4824 99.7308 97.7158 99.008 97.4895C98.2852 97.2705 97.5186 97.6793 97.2922 98.4021C97.0732 99.1249 97.4821 99.8915 98.2049 100.118Z" fill="#B476E5"/>
<path d="M157.08 256.044H112.705V259.301H157.08V256.044Z" fill="#C7C7C7"/>
<path d="M116.406 148.443L116.165 166.133L114.669 249.32L114.618 253.051L113.961 302.267H111.449L110.792 253.051L110.741 249.32L109.244 166.133L109.003 148.443H116.406Z" fill="#C7C7C7"/>
<path d="M109.003 148.443H116.406L116.165 166.133H109.244L109.003 148.443Z" fill="#A6A6A6"/>
<path d="M160.774 148.443L160.541 166.133L158.328 302.267H155.817L155.16 253.051L155.109 249.32L153.612 166.133L153.378 148.443H160.774Z" fill="#C7C7C7"/>
<path d="M160.774 148.443L160.541 166.133H153.612L153.378 148.443H160.774Z" fill="#A6A6A6"/>
<path d="M134.104 256.044H90.5464V259.301H134.104V256.044Z" fill="#C7C7C7"/>
<path d="M94.2406 148.443L94.0069 166.133L92.503 249.32L92.4592 253.051L91.7948 302.267H89.2905L87.0784 166.133L86.8447 148.443H94.2406Z" fill="#C7C7C7"/>
<path d="M86.8447 148.443H94.2406L94.0069 166.133H87.0784L86.8447 148.443Z" fill="#A6A6A6"/>
<path d="M137.805 148.443L137.564 166.133L136.068 249.32L136.017 253.051L135.359 302.267H132.848L132.191 253.051L132.14 249.32L130.643 166.133L130.402 148.443H137.805Z" fill="#C7C7C7"/>
<path d="M130.402 148.443H137.805L137.564 166.133H130.643L130.402 148.443Z" fill="#A6A6A6"/>
<path d="M164.622 130.746H83.9023V149.903H164.622V130.746Z" fill="#B476E5"/>
<path d="M164.622 130.746H83.9023V149.903H164.622V130.746Z" fill="#37474F"/>
<path d="M147.764 130.746H83.9023V149.903H147.764V130.746Z" fill="#455A64"/>
<path d="M140.966 205.258C140.966 205.258 112.025 228.651 112.004 228.665C106.448 233.111 101.651 237.105 99.3657 239.405C99.3511 239.412 99.3364 239.427 99.3291 239.441C98.4676 240.31 97.9639 240.923 97.942 241.223C97.942 241.245 97.9274 241.267 97.9347 241.281C98.1391 243.829 132.359 289.292 134.082 290.475C135.805 291.672 139.316 286.832 139.397 284.006C139.462 281.166 134.155 257.913 134.155 257.913L162.862 234.258L140.974 205.258H140.966Z" fill="#D3766A"/>
<path d="M136.834 270.055C138.148 276.173 139.426 282.598 139.397 284C139.324 286.825 135.805 291.666 134.082 290.468C132.352 289.278 98.132 243.83 97.9349 241.282C97.9276 241.26 97.9349 241.245 97.9349 241.216C97.9641 240.917 98.4606 240.296 99.3294 239.435C99.3294 239.413 99.3513 239.406 99.3586 239.398C101.213 237.529 104.732 234.558 108.959 231.119C109.938 230.316 110.96 229.498 112.004 228.659C112.026 228.651 140.959 205.252 140.959 205.252L162.855 234.251L134.148 257.906C134.148 257.906 135.498 263.813 136.827 270.033V270.055H136.834Z" fill="#D3766A"/>
<path d="M139.397 284C139.324 286.825 135.805 291.666 134.082 290.468C132.352 289.278 98.132 243.83 97.9349 241.282C97.9276 241.26 97.9349 241.245 97.9349 241.216C97.9641 240.917 98.4606 240.296 99.3294 239.435C99.3294 239.413 99.3513 239.405 99.3586 239.398C101.213 237.529 104.732 234.558 108.959 231.119C115.238 243.815 132.461 277.933 135.936 277.692C137.17 277.604 137.134 273.713 136.827 270.055C138.141 276.173 139.419 282.598 139.39 284H139.397Z" fill="#263238"/>
<path d="M156.62 177.384C154.568 187.51 112.551 227.921 112.551 227.921L141.843 261.732C141.843 261.732 201.491 202.185 198.381 179.815C195.673 160.351 166.534 82.0847 166.534 82.0847H132.921C132.921 82.0847 158.635 167.426 156.62 177.384Z" fill="#37474F"/>
<path d="M156.62 177.384C154.568 187.51 112.551 227.921 112.551 227.921L141.843 261.732C141.843 261.732 201.491 202.185 198.381 179.815C195.673 160.351 166.534 82.0847 166.534 82.0847H132.921C132.921 82.0847 158.635 167.426 156.62 177.384Z" fill="#263238"/>
<path d="M145.179 253.686C141.288 248.838 142.471 250.175 138.528 245.378C136.601 243.027 123.89 227.6 121.707 225.724C121.656 225.68 121.575 225.753 121.612 225.804C123.079 228.286 136.046 243.487 138.024 245.801C142.062 250.525 140.952 249.123 145.048 253.803C145.128 253.891 145.26 253.781 145.187 253.686H145.179Z" fill="#37474F"/>
<path d="M160.796 172.449C160.314 169.923 159.766 167.404 159.233 164.885C158.138 159.745 156.985 154.62 155.765 149.502C153.349 139.361 150.728 129.278 147.866 119.254C144.997 109.193 141.974 99.1544 138.484 89.2908C138.053 88.0716 137.608 86.8596 137.163 85.6404C137.126 85.5454 136.987 85.5892 137.017 85.6842C140.039 95.5623 143.149 105.419 145.982 115.355C148.8 125.255 151.414 135.199 153.875 145.194C155.108 150.21 156.262 155.248 157.386 160.293C157.941 162.768 158.481 165.25 159.007 167.732C159.54 170.251 160.256 172.828 160.416 175.398C160.57 177.932 159.745 180.173 158.438 182.305C157.175 184.364 155.692 186.306 154.261 188.248C151.392 192.147 124.028 222.635 123.145 223.46C123.079 223.526 123.181 223.621 123.254 223.563C126.927 220.27 150.144 195.14 153.086 191.249C154.546 189.328 155.963 187.372 157.364 185.401C158.671 183.561 159.985 181.677 160.701 179.516C161.475 177.194 161.241 174.8 160.796 172.434V172.449Z" fill="#37474F"/>
<path d="M160.73 82.0774L154.627 162.169C148.8 134.754 132.928 82.0774 132.928 82.0774H160.723H160.73Z" fill="#37474F"/>
<path d="M149.188 246.984C149.188 246.984 156.445 282.321 156.445 282.343C156.54 289.461 156.751 295.696 157.167 298.908C157.167 298.923 157.167 298.945 157.175 298.96C157.328 300.172 157.511 300.945 157.73 301.15C157.744 301.164 157.752 301.186 157.773 301.194C159.913 302.603 216.802 303.486 218.795 302.844C220.795 302.216 219.131 296.47 216.948 294.674C214.75 292.878 193.125 282.795 193.125 282.795L185.517 247.481L149.188 246.969V246.984Z" fill="#D3766A"/>
<path d="M218.787 302.851C216.794 303.494 159.905 302.61 157.766 301.201C157.744 301.194 157.737 301.172 157.715 301.15C157.496 300.946 157.313 300.172 157.16 298.96C157.153 298.952 157.153 298.93 157.153 298.909C156.839 296.346 156.627 291.863 156.51 286.541C170.966 289.359 207.252 296.069 209.135 293.207C209.851 292.104 206.295 289.549 203.025 287.512C209.033 290.396 215.765 293.725 216.933 294.681C219.116 296.485 220.78 302.223 218.78 302.844L218.787 302.851Z" fill="#263238"/>
<path d="M166.177 82.0848C166.14 82.7929 164.257 89.2251 163.286 98.855C162.585 105.893 161.709 112.114 160.767 112.887C159.701 113.764 154.393 117.173 152.604 118.268C152.604 118.268 169.17 168.477 173.441 185.218C179.64 209.486 194.475 282.277 194.475 282.277H154.933C154.933 282.277 142.909 212.969 137.652 189.869C133.147 170.061 116.706 114.289 116.706 114.289C110.427 98.8477 120.575 82.0848 120.575 82.0848C120.575 82.0848 166.177 82.0556 166.17 82.0848H166.177Z" fill="#263238"/>
<path d="M193.052 274.582C186.839 274.545 188.62 274.472 182.407 274.509C179.363 274.523 159.38 274.662 156.547 275.18C156.481 275.195 156.489 275.297 156.547 275.305C159.394 275.728 179.377 275.246 182.414 275.173C188.627 275.02 186.839 274.998 193.052 274.772C193.169 274.772 193.169 274.589 193.052 274.589V274.582Z" fill="#37474F"/>
<path d="M163.571 110.902C159.716 112.931 156.094 115.538 152.663 118.203C152.532 118.305 152.663 118.524 152.809 118.429C156.503 116.114 160.292 113.858 163.855 111.34C164.133 111.143 163.863 110.741 163.571 110.902Z" fill="#37474F"/>
<path d="M160.57 84.2238C160.541 84.0851 160.292 84.0924 160.314 84.2457C161.074 88.9403 161.402 92.4885 161.687 96.9494C161.818 99.0156 161.928 110.551 158.263 110.274C157.649 110.23 157.255 109.69 157.022 108.813C156.744 107.755 156.941 106.375 156.956 105.28C156.985 102.856 156.927 100.439 156.759 98.0226C156.445 93.5106 155.773 89.0571 154.547 84.7057C154.51 84.5597 154.298 84.6035 154.32 84.7568C155.284 90.9188 156.072 97.0954 156.102 103.338C156.116 106.338 155.32 110.982 158.46 110.96C161.658 110.938 162.526 103.221 162.592 101.14C162.782 95.3286 161.891 89.8675 160.562 84.2238H160.57Z" fill="#37474F"/>
<path d="M158.402 110.558C158.197 111.369 158.066 112.194 157.971 113.019C157.898 113.661 157.766 114.362 157.942 114.99C157.971 115.114 158.139 115.099 158.197 115.005C158.533 114.413 158.591 113.668 158.73 113.004C158.883 112.237 159.059 111.478 159.197 110.712C159.285 110.201 158.54 110.062 158.416 110.558H158.402Z" fill="#37474F"/>
<path d="M150.341 252.788C150.239 251.876 150.115 250.956 149.983 250.05C149.735 248.298 149.443 246.553 149.173 244.801C148.633 241.289 148.027 237.785 147.406 234.28C146.165 227.301 144.734 220.335 143.223 213.407C142.369 209.494 141.376 205.617 140.332 201.747C140.259 201.477 139.879 201.609 139.923 201.871C140.558 205.412 141.171 208.953 141.894 212.48C142.617 215.991 143.34 219.51 144.033 223.03C145.413 229.987 146.698 236.96 148.078 243.918C148.465 245.882 148.815 247.853 149.202 249.817C149.392 250.795 149.589 251.773 149.801 252.752C150.013 253.723 150.312 254.679 150.473 255.665C150.487 255.76 150.626 255.716 150.611 255.621C150.458 254.686 150.443 253.723 150.334 252.781L150.341 252.788Z" fill="#37474F"/>
<path d="M177.603 200.251C176.289 193.687 174.507 187.211 172.726 180.764C169.134 167.791 164.899 154.999 160.679 142.215C159.46 138.536 158.248 134.849 157.029 131.169C156.423 129.329 153.437 119.4 153.072 118.458C153.035 118.363 152.889 118.4 152.918 118.502C153.773 121.882 154.948 126.818 155.934 130.162C156.912 133.469 157.978 136.754 159 140.047C161.022 146.523 163.074 152.984 165.038 159.475C168.915 172.303 172.762 185.13 175.909 198.17C176.792 201.82 177.669 205.464 178.472 209.136C179.275 212.801 179.961 216.481 180.728 220.153C180.75 220.255 180.918 220.226 180.91 220.124C180.246 213.436 178.924 206.829 177.603 200.243V200.251Z" fill="#37474F"/>
<path d="M153.181 235.478C151.071 223.263 148.538 211.107 145.734 199.039C142.916 186.904 139.777 174.843 136.323 162.877C132.87 150.911 129.037 139.054 124.919 127.299C122.97 121.729 120.984 116.151 119.706 110.376C118.443 104.667 117.341 95.3797 123.291 83.4864C123.335 83.3915 123.014 83.3404 122.963 83.4353C115.136 96.9202 118.677 111.011 122.189 121.678C124.116 127.519 126.168 133.315 128.066 139.171C130.015 145.18 131.884 151.21 133.673 157.263C137.214 169.265 140.507 181.341 143.449 193.505C146.391 205.668 149.02 217.912 151.327 230.206C153.641 242.552 155.591 254.949 157.569 267.346C157.825 268.96 158.029 270.581 158.241 272.202C158.255 272.289 158.394 272.289 158.38 272.202C156.897 259.914 155.299 247.67 153.189 235.47L153.181 235.478Z" fill="#37474F"/>
<path d="M127.285 100.038C128.081 99.7384 128.971 99.6654 129.789 99.4391C130.651 99.1982 131.505 98.9207 132.33 98.5703C133.885 97.8986 135.403 97.0444 136.732 95.9857C138.097 94.8906 138.922 93.4669 139.609 91.8826C139.974 91.0357 141.558 86.5602 141.573 86.531C141.624 86.4288 141.828 86.4653 141.821 86.5748C141.784 87.1808 140.879 91.0065 140.565 91.9702C139.988 93.7808 139.142 95.4455 137.674 96.6939C136.236 97.9132 134.542 98.8185 132.775 99.4464C131.862 99.7676 130.921 100.03 129.964 100.184C129.103 100.323 128.139 100.505 127.27 100.323C127.117 100.293 127.168 100.096 127.277 100.052L127.285 100.038Z" fill="#37474F"/>
<path d="M171.711 97.1101C171.273 96.8619 170.806 96.8327 170.368 96.6501C169.901 96.4603 169.441 96.2413 168.981 95.9419C168.119 95.3871 167.265 94.6497 166.498 93.7224C165.703 92.766 165.17 91.4884 164.688 90.0574C164.432 89.2908 163.746 85.173 163.739 85.1438C163.702 85.0489 163.6 85.0927 163.614 85.1949C163.68 85.7498 163.79 88.6994 164.199 90.1669C164.658 91.8096 165.206 93.3136 166.068 94.4087C166.907 95.482 167.856 96.2486 168.82 96.7596C169.316 97.0225 169.828 97.2269 170.331 97.3364C170.791 97.4313 171.302 97.5628 171.74 97.3583C171.821 97.3218 171.777 97.1466 171.711 97.1101Z" fill="#37474F"/>
<path d="M159.336 28.6199C160.672 32.0221 162.57 35.1177 163.629 38.6441C164.6 41.8784 165.038 45.3245 164.52 48.6902C162.629 61.0288 146.559 68.432 135.272 64.599C129.877 62.7665 125.175 58.3859 123.744 52.7641C121.992 45.8793 125.664 39.2647 127.891 32.9785C129.168 29.3792 129.694 25.8163 129.701 22.0198C129.701 18.7563 129.504 15.4343 130.169 12.2073C130.643 9.90751 132.213 3.21984 140.682 0.547687C146.764 -1.37247 152.918 1.94947 155.758 7.73183C159.051 14.4487 156.7 21.8738 159.336 28.6199Z" fill="#263238"/>
<path d="M130.358 29.62C127.73 35.2491 124.277 41.0022 123.269 47.208C122.43 52.3625 123.824 57.9331 128.3 60.9922C128.336 61.0214 128.38 60.963 128.343 60.9338C123.634 57.2834 123.05 50.9826 124.372 45.558C125.722 40.002 128.979 35.1688 130.621 29.7296C130.672 29.5543 130.439 29.4448 130.358 29.6127V29.62Z" fill="#263238"/>
<path d="M129.176 29.2916C127.183 36.6728 121.108 42.4917 120.721 50.3475C120.721 50.4424 120.86 50.4643 120.867 50.3694C121.378 42.5209 128.139 36.9576 129.322 29.3135C129.336 29.2186 129.198 29.204 129.176 29.2916Z" fill="#263238"/>
<path d="M159.767 28.4957C158.46 25.6921 157.737 22.8886 157.46 19.8149C157.445 19.6615 157.189 19.6469 157.182 19.8149C156.474 30.6568 168.886 38.7828 165.585 49.9897C165.564 50.07 165.68 50.1211 165.702 50.0408C167.287 45.4193 166.06 40.7905 163.979 36.5268C162.658 33.8108 161.052 31.2409 159.774 28.503L159.767 28.4957Z" fill="#263238"/>
<path d="M157.255 18.2013C157.226 17.9969 156.927 18.0553 156.941 18.2524C157.197 22.2752 158.584 26.2542 160.752 29.6492C161.833 31.3357 163.154 32.847 164.198 34.5627C165.345 36.4391 166.221 38.4468 167.184 40.4181C167.206 40.4692 167.279 40.4327 167.265 40.3816C166.016 36.6508 164.06 33.6793 161.818 30.5034C159.204 26.8018 157.832 22.6768 157.255 18.2086V18.2013Z" fill="#263238"/>
<path d="M146.778 48.3836C158.825 63.7521 173.427 80.0624 183.955 80.8363C193.964 81.5737 212.333 53.5964 214.743 44.9886C215.575 42.0171 193.548 33.8401 191.365 36.3151C187.255 40.9731 180.779 54.4287 179.231 54.3995C177.617 54.363 162.84 45.3464 149.582 37.9067C141.543 33.3947 138.433 37.7388 146.778 48.3909V48.3836Z" fill="#D3766A"/>
<path d="M210.019 50.0189C210.019 50.0189 216.67 43.4189 220.817 38.8996C223.131 36.3807 226.716 31.7008 227.563 29.0725C228.841 25.1373 231.659 7.87049 227.49 7.09659C223.715 6.3957 223.175 21.5379 223.175 21.5379C223.175 21.5379 225.073 6.30808 220.372 6.30078C215.67 6.29348 217.334 23.4799 217.334 23.4799C217.334 23.4799 218.933 7.79018 214.086 8.54218C210.42 9.11895 211.048 24.7722 211.048 24.7722C211.048 24.7722 212.326 11.2727 208.537 11.7035C204.346 12.1781 204.018 26.6632 204.018 26.6632C194.556 29.3718 190.569 36.4026 188.919 40.6956C188.532 41.6958 210.026 50.0189 210.026 50.0189H210.019Z" fill="#D3766A"/>
<path d="M222.92 26.1228C225.176 15.0108 222.876 8.87066 222.905 9.04589C223.57 13.1928 223.204 19.6469 223.08 21.4429C222.949 23.2389 222.985 24.3195 222.854 26.1155C222.854 26.1593 222.912 26.1593 222.92 26.1155V26.1228Z" fill="#263238"/>
<path d="M216.349 26.5025C217.758 21.3116 217.649 15.0254 217.269 12.8717C217.24 12.6964 217.174 12.7549 217.167 12.9301C217.064 15.2226 216.502 24.2247 216.291 26.5025C216.291 26.5391 216.334 26.5391 216.349 26.5025Z" fill="#263238"/>
<path d="M210.705 27.2106C211.618 22.4722 211.545 20.2601 211.107 16.6315C211.085 16.4563 210.983 16.5439 210.983 16.7264C210.917 20.2455 210.888 23.0052 210.588 27.1887C210.588 27.2544 210.698 27.2836 210.712 27.2106H210.705Z" fill="#263238"/>
<path d="M187.576 40.0823L209.968 56.5241C209.968 56.5241 194.235 82.3548 184.51 81.7343C174.785 81.1137 152.597 59.1743 144.033 44.2293C138.105 33.8911 144.588 34.5336 152.035 38.7755C159.482 43.0173 178.844 53.3701 179.545 53.0342C180.246 52.6984 187.569 40.0823 187.569 40.0823H187.576Z" fill="#B476E5"/>
<g opacity="0.5">
<path d="M187.576 40.0823L209.968 56.5241C209.968 56.5241 194.235 82.3548 184.51 81.7343C174.785 81.1137 152.597 59.1743 144.033 44.2293C138.105 33.8911 144.588 34.5336 152.035 38.7755C159.482 43.0173 178.844 53.3701 179.545 53.0342C180.246 52.6984 187.569 40.0823 187.569 40.0823H187.576Z" fill="white"/>
</g>
<path d="M191.803 78.691C189.233 80.6622 186.714 81.8815 184.509 81.7428C174.785 81.1222 152.597 59.1828 144.033 44.2378C139.302 35.9877 142.471 34.7319 147.735 36.7105C160.738 48.8666 180.574 67.5424 191.803 78.691Z" fill="#B476E5"/>
<path d="M204.492 60.9486C201.272 58.7072 188.445 49.0407 185.809 46.7701C185.626 46.6095 185.685 46.4562 185.897 46.5949C195.702 53.0854 201.535 58.4589 204.58 60.8171C204.653 60.8755 204.58 61.007 204.492 60.9486Z" fill="#263238"/>
<path d="M116.377 83.4938L167.265 82.3329L161.818 67.2856C161.818 67.2856 165.629 61.3938 162.877 54.0125C161.278 49.7122 154.977 43.6232 151.1 39.7464C141.66 30.3063 134.695 35.5995 132.578 38.4396C124.496 49.3034 116.377 83.4938 116.377 83.4938Z" fill="#B476E5"/>
<path opacity="0.5" d="M116.377 83.4938L167.265 82.3329L161.818 67.2856C161.818 67.2856 165.629 61.3938 162.877 54.0125C161.278 49.7122 154.977 43.6232 151.1 39.7464C141.66 30.3063 134.695 35.5995 132.578 38.4396C124.496 49.3034 116.377 83.4938 116.377 83.4938Z" fill="white"/>
<path d="M147.121 66.9497C149.26 66.6869 151.422 66.497 153.575 66.5481C154.649 66.5773 155.715 66.6504 156.78 66.7526C157.313 66.8037 157.846 66.8329 158.379 66.8621C158.927 66.8913 159.511 66.9059 160.051 66.7964C160.102 66.7891 160.117 66.8621 160.066 66.8694C159.547 67.0008 159.051 67.1322 158.518 67.1906C158.014 67.249 157.496 67.2563 156.985 67.249C155.897 67.2344 154.809 67.1614 153.721 67.1322C151.524 67.0738 149.333 67.0154 147.143 67.1176C147.041 67.1176 147.026 66.9497 147.129 66.9424L147.121 66.9497Z" fill="#263238"/>
<path d="M142.368 69.9869C144.048 69.4175 145.778 68.921 147.508 68.5487C148.377 68.3588 149.253 68.2274 150.137 68.1106C150.56 68.0595 150.984 68.0084 151.407 67.9646C151.874 67.9208 152.342 67.9354 152.809 67.8843C152.86 67.8843 152.874 67.95 152.823 67.9573C152.385 68.023 151.962 68.1544 151.524 68.242C151.093 68.3296 150.655 68.4172 150.217 68.5049C149.348 68.6801 148.479 68.8699 147.61 69.0378C145.866 69.3737 144.128 69.7314 142.398 70.1257C142.303 70.1476 142.281 70.0089 142.368 69.9796V69.9869Z" fill="#263238"/>
<path d="M130.22 43.0977C118.772 62.8541 103.148 103.696 100.059 110.179C97.964 114.581 120.969 126.183 121.948 122.977C123.196 118.882 137.674 70.5639 138.711 47.0037C139.192 36.0814 133.885 36.7677 130.22 43.0904V43.0977Z" fill="#D3766A"/>
<path d="M122.561 120.772C122.028 124.766 119.319 132.797 117.297 134.024C115.282 135.25 104.688 134.987 99.3512 134.987C94.0142 134.987 92.9629 133.498 93.0505 131.665C93.1381 129.826 104.338 129.475 104.338 129.475C104.338 129.475 89.3781 133.761 85.6181 134.462C81.8581 135.163 73.1846 137.353 71.9288 134.228C71.3667 132.819 73.7395 131.395 73.7395 131.395C73.7395 131.395 70.1036 132.454 69.5268 130.651C68.8698 128.592 71.7609 127.46 71.7609 127.46C71.7609 127.46 69.4903 127.92 69.4392 126.241C69.3224 122.495 83.552 120.648 83.552 120.648C83.552 120.648 72.6589 125.949 72.3085 122.89C71.8266 118.655 94.1456 114.012 96.4746 112.165C98.7963 110.317 101.206 107.565 101.206 107.565L122.568 120.765L122.561 120.772Z" fill="#D3766A"/>
<path d="M93.1307 132.593C93.065 132.03 93.2548 131.512 93.6345 131.162C93.9995 130.804 94.4595 130.541 94.9341 130.315C95.8978 129.877 96.9418 129.585 97.9932 129.322C100.096 128.789 102.257 128.409 104.403 127.854C102.184 127.818 99.979 128.066 97.8106 128.599C96.7374 128.884 95.6569 129.22 94.6639 129.804C94.1675 130.088 93.7002 130.453 93.3498 130.935C92.9993 131.417 92.8898 132.082 93.1234 132.593H93.1307Z" fill="#263238"/>
<path d="M73.7468 131.403C75.2873 131.03 76.8059 130.592 78.3172 130.154C79.8358 129.723 81.3398 129.256 82.8438 128.796L87.3485 127.387C88.8525 126.913 90.3492 126.453 91.8678 126C90.2908 126.146 88.7357 126.475 87.1952 126.832C85.6547 127.183 84.1361 127.628 82.6175 128.088C81.1135 128.563 79.6095 129.052 78.1347 129.614C76.6526 130.169 75.1851 130.738 73.7468 131.41V131.403Z" fill="#263238"/>
<path d="M88.2538 122.254C86.8009 122.327 85.3626 122.568 83.9389 122.853C82.508 123.131 81.1062 123.51 79.719 123.941C78.3318 124.379 76.9592 124.868 75.6305 125.467C74.2944 126.044 72.9948 126.708 71.7537 127.46C73.1262 126.985 74.4696 126.46 75.8349 126C77.2002 125.533 78.5581 125.073 79.9307 124.649C81.296 124.204 82.6832 123.809 84.0631 123.408C85.4502 123.006 86.8374 122.634 88.2392 122.254H88.2538Z" fill="#263238"/>
<path d="M86.0563 118.684C83.7054 118.823 81.4129 119.393 79.1861 120.137C76.9667 120.897 74.8129 121.882 72.8635 123.196C75.0757 122.408 77.2295 121.576 79.4271 120.845C81.6174 120.086 83.8222 119.407 86.0563 118.684Z" fill="#263238"/>
<path d="M98.7087 109.149L123.934 121.473C123.934 121.473 137.104 69.1839 138.74 50.8585C140.375 32.5331 133.323 36.7458 128.46 45.3536C121.809 57.1227 98.7087 109.149 98.7087 109.149Z" fill="#B476E5"/>
<path opacity="0.5" d="M98.7087 109.149L123.934 121.473C123.934 121.473 137.104 69.1839 138.74 50.8585C140.375 32.5331 133.323 36.7458 128.46 45.3536C121.809 57.1227 98.7087 109.149 98.7087 109.149Z" fill="white"/>
<path d="M123.327 115.07C119.896 113.676 106.046 107.463 103.14 105.915C102.936 105.806 102.958 105.652 103.184 105.74C113.581 109.668 120.079 113.399 123.379 114.932C123.459 114.968 123.415 115.107 123.327 115.07Z" fill="#263238"/>
<path d="M132.739 85.3483C133.111 82.6469 133.585 79.9675 134.067 77.288C134.542 74.6086 135.082 71.9364 135.622 69.2716C136.185 66.6067 136.747 63.9419 137.375 61.299L138.324 57.3272C138.667 56.0058 138.988 54.6843 139.36 53.3701C139.178 54.7208 138.944 56.0642 138.74 57.4148L138.032 61.4377C137.557 64.1171 137.017 66.7893 136.477 69.4541C135.914 72.119 135.352 74.7765 134.724 77.4268C134.104 80.077 133.469 82.7273 132.746 85.3556L132.739 85.3483Z" fill="#263238"/>
<path d="M137.922 60.306C138.105 59.5905 138.404 58.9407 138.733 58.2982C139.076 57.6703 139.441 57.0497 139.923 56.4949C139.74 57.2104 139.441 57.8602 139.112 58.5026C138.769 59.1305 138.404 59.7511 137.922 60.306Z" fill="#263238"/>
<path d="M147.705 45.3974C147.705 45.3974 137.258 39.3011 132.388 40.1991L128.789 44.4993C128.789 44.4993 127.489 45.1491 126.941 44.346C125.583 42.3675 124.605 37.2276 128.548 33.2121C132.162 29.5324 140.609 28.9191 146.384 29.5543C151.933 30.1676 155.342 32.8689 154.225 36.5924C153.108 40.3159 147.713 45.3828 147.713 45.3828L147.705 45.3974Z" fill="#B476E5"/>
<path opacity="0.5" d="M147.705 45.3974C147.705 45.3974 137.258 39.3011 132.388 40.1991L128.789 44.4993C128.789 44.4993 127.489 45.1491 126.941 44.346C125.583 42.3675 124.605 37.2276 128.548 33.2121C132.162 29.5324 140.609 28.9191 146.384 29.5543C151.933 30.1676 155.342 32.8689 154.225 36.5924C153.108 40.3159 147.713 45.3828 147.713 45.3828L147.705 45.3974Z" fill="white"/>
<path d="M147.997 43.6817C147.997 43.6817 151.67 38.5638 151.911 35.877C152.159 33.1903 146.595 31.4891 143.098 31.0146C137.688 30.2845 134.206 31.146 131.709 34.3438C129.212 37.5489 147.99 43.6817 147.99 43.6817H147.997Z" fill="#B476E5"/>
<path d="M147.997 43.6818C147.997 43.6818 138.616 34.5045 130.906 34.614L132.388 40.1992C132.388 40.1992 138.703 39.3742 147.705 45.3975L147.997 43.6818Z" fill="#B476E5"/>
<path opacity="0.5" d="M147.997 43.6818C147.997 43.6818 138.616 34.5045 130.906 34.614L132.388 40.1992C132.388 40.1992 138.703 39.3742 147.705 45.3975L147.997 43.6818Z" fill="white"/>
<path d="M130.365 40.608C131.723 40.2283 133.147 40.3305 134.505 40.5496C139.871 41.0022 145.792 44.4848 145.792 44.4848L147.523 45.6602L147.72 45.7916L147.895 45.6675C150.231 43.908 152.305 40.3305 152.692 39.6296C151.049 41.9148 148.187 44.7038 147.537 45.1419H147.91L146.172 43.9299C145.581 43.5503 139.214 40.5934 134.571 40.1699C134.22 40.1261 133.863 40.1188 133.505 40.0969C133.147 40.1042 132.789 40.1042 132.439 40.1407C131.731 40.1991 131.023 40.3232 130.38 40.6153L130.365 40.608Z" fill="#263238"/>
<path d="M128.789 44.4995C129.489 43.8716 130.117 43.1707 130.723 42.4552C131.322 41.7324 131.899 40.995 132.395 40.1919C131.694 40.8198 131.066 41.5207 130.46 42.2362C129.862 42.959 129.292 43.6964 128.789 44.4995Z" fill="#263238"/>
<path d="M145.844 42.4478C145.844 42.4478 145.406 45.4412 145.603 49.7122C145.683 51.4061 146.734 57.422 148.596 57.0716C150.458 56.7285 147.136 53.0196 146.391 49.8583C145.632 46.6531 146.34 44.3022 146.326 42.3821L145.844 42.4405V42.4478Z" fill="#B476E5"/>
<path d="M150.48 42.0098C150.48 42.0098 151.874 44.3972 153.166 48.0842C153.677 49.5444 154.838 54.9982 153.144 55.3413C151.451 55.6845 152.998 51.4134 152.553 48.4784C152.1 45.4996 150.699 43.7547 150.056 42.1193L150.48 42.0098Z" fill="#B476E5"/>
<path d="M139.346 36.5633C139.557 37.4614 144.106 41.5061 148.202 41.3017C149.538 41.2286 149.231 35.6872 149.231 35.6872L149.348 35.1469L151.005 27.5905L142.113 21.9395L140.828 21.1948C140.828 21.1948 140.514 23.2902 140.141 25.9112C140.127 26.0354 140.105 26.1522 140.09 26.2836C140.068 26.4296 140.039 26.5683 140.025 26.707C139.966 27.094 139.908 27.4955 139.857 27.8971C139.82 28.1964 139.776 28.4958 139.747 28.817C139.711 29.1383 139.674 29.4449 139.638 29.7661C139.324 32.9275 139.265 36.1983 139.346 36.5779V36.5633Z" fill="#D3766A"/>
<path d="M140.149 25.8893C142.339 31.8907 147.151 34.3219 149.355 35.1323L151.013 27.5758L142.12 21.9249L140.835 21.1802C140.835 21.1802 140.521 23.2756 140.149 25.8966V25.8893Z" fill="#263238"/>
<path d="M160.482 14.602C164.184 27.6634 156.78 31.3577 153.962 32.1535C151.407 32.8763 142.602 35.0081 137.572 22.3994C132.541 9.79063 137.44 3.93526 143.208 1.97861C148.968 0.0146502 156.788 1.54055 160.489 14.6093L160.482 14.602Z" fill="#D3766A"/>
<path d="M156.415 14.0473C156.094 14.0765 155.795 14.0473 155.481 14.0473C155.123 14.0473 154.831 14.0765 154.524 13.8647C154.356 13.7479 154.305 13.4559 154.408 13.288C154.634 12.8864 155.072 12.7842 155.503 12.7696C155.97 12.755 156.342 12.8645 156.715 13.1492C157.072 13.4267 156.846 14.0034 156.423 14.0473H156.415Z" fill="#263238"/>
<path d="M147.092 15.8944C147.399 15.7922 147.661 15.6461 147.953 15.5147C148.282 15.3687 148.559 15.2811 148.757 14.9599C148.866 14.7919 148.793 14.4999 148.632 14.3831C148.267 14.1056 147.822 14.186 147.421 14.3539C146.982 14.5291 146.69 14.7773 146.464 15.1862C146.245 15.5877 146.69 16.0258 147.092 15.8871V15.8944Z" fill="#263238"/>
<path d="M149.582 18.0408C149.582 18.0408 149.523 18.0992 149.531 18.1357C149.772 19.0264 149.896 20.0923 149.151 20.5815C149.129 20.5961 149.144 20.6399 149.173 20.6326C150.137 20.2603 149.954 18.8512 149.589 18.0408H149.582Z" fill="#263238"/>
<path d="M148.56 17.2889C147.085 17.5152 147.654 20.4502 149.02 20.2385C150.363 20.0267 149.801 17.099 148.56 17.2889Z" fill="#263238"/>
<path d="M148.012 17.5516C147.786 17.7633 147.596 18.1065 147.289 18.1941C146.939 18.2963 146.61 18.0407 146.318 17.7925C146.289 17.7633 146.267 17.7925 146.274 17.8363C146.377 18.3985 146.698 18.9315 147.318 18.9023C147.881 18.8731 148.18 18.2963 148.209 17.7049C148.209 17.5954 148.092 17.4567 148.005 17.5443L148.012 17.5516Z" fill="#263238"/>
<path d="M154.919 16.3179C154.919 16.3179 154.999 16.3471 155.006 16.3836C155.145 17.2962 155.459 18.3183 156.335 18.4717C156.364 18.4717 156.371 18.5228 156.335 18.5228C155.306 18.5666 154.904 17.2013 154.919 16.3179Z" fill="#263238"/>
<path d="M155.554 15.2228C156.992 14.8431 157.649 17.7562 156.313 18.1066C154.999 18.4571 154.342 15.544 155.554 15.2228Z" fill="#263238"/>
<path d="M156.204 15.2738C156.466 15.376 156.758 15.6024 157.036 15.5586C157.357 15.5074 157.525 15.1424 157.656 14.792C157.671 14.7554 157.7 14.7774 157.708 14.8139C157.846 15.3687 157.795 15.9893 157.284 16.2156C156.817 16.4201 156.35 16.0258 156.094 15.5001C156.043 15.4052 156.094 15.23 156.196 15.2665L156.204 15.2738Z" fill="#263238"/>
<path d="M151.721 25.4003C151.969 25.5828 152.232 25.8457 152.568 25.8238C152.889 25.8018 153.239 25.6047 153.517 25.4514C153.546 25.4368 153.575 25.4587 153.561 25.4952C153.378 25.8822 152.904 26.1742 152.473 26.1596C152.049 26.145 151.794 25.8165 151.633 25.4587C151.611 25.4076 151.677 25.3784 151.714 25.4076L151.721 25.4003Z" fill="#263238"/>
<path d="M154.831 21.3482C154.831 21.3482 155.298 22.6624 155.43 23.2976C155.444 23.356 155.291 23.4144 155.079 23.4728C155.072 23.4728 155.065 23.4801 155.058 23.4728C153.97 23.8817 152.75 23.721 151.882 22.9471C151.823 22.896 151.889 22.8084 151.962 22.8376C152.933 23.283 153.889 23.2538 154.897 23.0639C154.904 22.8814 154.028 20.8372 154.123 20.808C154.466 20.7057 155.204 20.808 155.642 20.8372C154.751 18.0701 153.429 15.4709 152.59 12.7039C152.561 12.6017 152.699 12.5433 152.75 12.6309C154.327 15.2592 155.423 18.4205 156.415 21.2533C156.54 21.6038 155.131 21.392 154.853 21.3409L154.831 21.3482Z" fill="#263238"/>
<path d="M154.963 23.2537C154.963 23.2537 154.576 24.2467 153.816 24.765C153.539 24.9622 153.218 25.0936 152.845 25.0936C152.079 25.0936 151.889 24.4438 151.867 23.8451C151.852 23.356 151.955 22.896 151.955 22.896C151.955 22.896 153.261 23.5969 154.963 23.2464V23.2537Z" fill="#263238"/>
<path d="M153.816 24.765C153.539 24.9621 153.218 25.0935 152.845 25.0935C152.079 25.0935 151.889 24.4437 151.867 23.845C152.655 23.7209 153.553 24.0349 153.816 24.765Z" fill="#FF9ABB"/>
<path d="M138.784 22.9324C141.551 22.1658 139.988 15.7848 139.988 15.7848C139.988 15.7848 141.448 14.7335 142.544 11.0319C142.544 11.0319 141.981 14.1348 140.441 15.7556C140.185 16.0257 149.45 12.5432 148.414 5.00859C148.414 5.00859 152.261 10.696 159.453 11.0976C159.679 11.1122 157.08 4.70925 155.269 3.5411C153.466 2.37294 151.918 1.92028 151.918 1.92028C151.918 1.92028 146.866 -0.416024 141.244 1.98599C135.622 4.38801 133.425 11.5429 133.651 14.1859C134.096 19.3769 137.462 23.3048 138.776 22.9397L138.784 22.9324Z" fill="#263238"/>
<path d="M140.791 15.8358C145.924 14.2296 149.173 9.81982 148.202 4.40251C148.18 4.2711 148.384 4.21999 148.435 4.3441C150.567 9.53508 145.792 15.0254 140.769 15.938C140.645 15.9599 140.674 15.8723 140.791 15.8358Z" fill="#263238"/>
<path d="M148.282 4.81152C148.282 4.81152 148.311 4.76041 148.333 4.78231C150.392 7.15512 153.021 11.6379 156.846 10.4113C156.948 10.3821 157.007 10.5209 156.905 10.5647C153.334 12.0687 149.458 7.79761 148.282 4.81152Z" fill="#263238"/>
<path d="M139.988 21.589C139.988 21.589 136.279 17.9823 134.593 19.3841C132.906 20.7859 136.25 26.4003 138.623 26.7946C140.996 27.1961 141.412 25.0059 141.412 25.0059L139.988 21.589Z" fill="#D3766A"/>
<path d="M135.593 20.9758C135.593 20.9758 135.557 21.0342 135.593 21.0342C137.272 21.3628 138.36 22.6477 139.222 24.0349C138.652 23.5458 137.959 23.3559 137.294 24.0495C137.258 24.086 137.309 24.1444 137.353 24.1225C137.966 23.867 138.441 23.8889 138.973 24.3124C139.346 24.6117 139.645 25.0352 139.944 25.4075C140.047 25.5316 140.28 25.4075 140.2 25.2615C140.2 25.2542 140.185 25.2396 140.178 25.225C139.835 23.2318 137.762 20.7568 135.6 20.9685L135.593 20.9758Z" fill="#263238"/>
</g>
<defs>
<clipPath id="clip0_1110_12911">
<rect width="297.55" height="303.07" fill="white"/>
</clipPath>
</defs>
</svg>
