<svg width="140" height="224" viewBox="0 0 140 224" fill="none" xmlns="http://www.w3.org/2000/svg">
<path d="M18 0H15V128H18V0Z" fill="#C2E0F5"/>
<path d="M51 0H49V128H51V0Z" fill="#C2E0F5"/>
<path d="M85 0H82V128H85V0Z" fill="#C2E0F5"/>
<path d="M84.6401 51.0901V48.5901L-10.5399 48.5901V51.0901L84.6401 51.0901Z" fill="#C2E0F5"/>
<path d="M84.6399 2.09009V-0.409912L-10.5401 -0.409912V2.09009L84.6399 2.09009Z" fill="#C2E0F5"/>
<path d="M84.6399 26.0901V23.5901L-10.5401 23.5901V26.0901L84.6399 26.0901Z" fill="#C2E0F5"/>
<path d="M84.6401 84.6201V82.1201H-10.5399V84.6201H84.6401Z" fill="#C2E0F5"/>
<path d="M84.6401 118.14V115.64H-10.5399V118.14H84.6401Z" fill="#C2E0F5"/>
<path d="M112.49 129.16L110.46 149.24L110.34 150.38C110.18 151.93 109.49 153.15 108.57 153.49C107.57 153.86 105.96 154.2 103.42 154.2C100.07 154.2 97.6301 153.61 96.1901 153.13C95.2801 152.82 94.5801 151.65 94.3901 150.12L92.9001 137.82L91.8601 129.16H112.48H112.49Z" fill="#F49801"/>
<path d="M112.49 129.16C112.49 129.88 107.87 130.46 102.18 130.46C96.4901 130.46 91.8701 129.88 91.8701 129.16C91.8701 128.44 96.4901 127.86 102.18 127.86C107.87 127.86 112.49 128.44 112.49 129.16Z" fill="#F26903"/>
<mask id="mask0_1091_18782" style="mask-type:luminance" maskUnits="userSpaceOnUse" x="80" y="86" width="44" height="45">
<path d="M112.49 129.16C112.49 129.88 107.87 130.46 102.18 130.46C96.49 130.46 91.87 129.88 91.87 129.16C91.87 128.44 60.76 86.3 102.18 86.3C143.6 86.3 112.49 128.44 112.49 129.16Z" fill="white"/>
</mask>
<g mask="url(#mask0_1091_18782)">
<path d="M99.8001 124.26C99.8001 124.4 99.8001 124.53 99.8001 124.67C99.7401 126.38 99.5601 128.15 98.9401 129.73C98.7401 130.25 98.4901 130.75 98.1901 131.22C96.2901 134.12 93.4501 128.89 91.5401 124.09C90.4301 121.3 89.6401 118.66 89.5201 117.83C89.1201 114.96 89.0601 112.06 89.0801 109.16C89.1001 106.35 88.7001 103.5 88.8401 100.71C88.9101 99.2101 89.3301 97.7601 89.7401 96.3201C90.3501 96.8801 90.9501 97.4501 91.5601 98.0101C93.9101 100.2 95.4501 103.34 96.6301 106.49C97.0601 107.64 97.4401 108.8 97.7901 109.91C98.3001 111.51 98.7101 113.14 99.0301 114.78C99.6301 117.9 99.9001 121.08 99.8201 124.25L99.8001 124.26Z" fill="#8FDF5C"/>
<g style="mix-blend-mode:multiply" opacity="0.22">
<path d="M99.8 124.26C99.08 125.85 98.38 127.4 98.84 129.16C98.89 129.34 98.92 129.53 98.94 129.73C98.74 130.25 98.49 130.75 98.19 131.22C96.29 134.12 93.45 128.89 91.54 124.09C92.3 123.42 92.92 122.9 92.92 122.9C92.92 122.9 92.76 111.93 93.88 110.12C94.99 108.3 96.61 106.5 96.61 106.5C95.7 109.73 97.44 112.33 99.01 114.8C99.91 116.22 100.75 117.59 100.99 119.02C101.33 120.99 100.55 122.66 99.8 124.28V124.26Z" fill="#190708"/>
</g>
<path d="M114 123.02C113.56 124.44 112.93 125.8 112.05 127.1C110.43 129.49 104.73 134.07 103.08 129.31C101.95 126.07 103.3 122.19 104.38 119.13C104.89 117.7 105.28 116.28 105.72 114.85C105.76 114.7 105.81 114.55 105.86 114.4C106.41 112.64 107.64 111.15 108.01 109.33C108.12 108.77 108.15 108.19 108.22 107.63C108.3 106.89 108.44 106.18 108.87 105.6C109.14 105.23 109.51 104.93 109.7 104.53C109.86 104.2 109.9 103.82 109.96 103.46C110.31 101.49 111.72 99.75 113.57 99.01C113.12 100.69 114.32 102.34 114.66 104.05C114.88 105.19 114.73 106.36 114.74 107.52C114.82 112.62 115.53 118.1 114 123.03V123.02Z" fill="#8FDF5C"/>
<g style="mix-blend-mode:multiply" opacity="0.22">
<path d="M114 123.02C113.56 124.44 112.93 125.8 112.05 127.1C110.43 129.49 104.73 134.07 103.08 129.31C101.95 126.07 103.3 122.19 104.38 119.13C104.89 117.7 105.28 116.28 105.72 114.85C105.76 114.7 105.81 114.55 105.86 114.4C106.41 112.64 107.64 111.15 108.01 109.33C108.12 108.77 108.15 108.19 108.22 107.63C110.29 112.23 110.29 114.06 109.94 117.72C109.6 121.38 109.48 123.32 110.63 123.78C111.17 124 112.64 123.54 114 123.03V123.02Z" fill="#190708"/>
</g>
<path d="M108.7 120.11C108.7 120.22 108.7 120.33 108.7 120.44C108.62 124.04 107.9 127.83 105.52 130.66C99.9 137.36 98.14 126.91 97.14 123C96.51 120.54 95.91 118.04 95.75 115.5C95.71 114.87 95.69 114.24 95.68 113.62C95.66 111.59 95.83 109.6 96.32 107.58C96.95 105.04 97.83 102.55 98.08 99.94C98.18 98.82 98.17 97.64 98.67 96.63C98.99 95.96 99.51 95.42 99.92 94.8C100.3 94.23 100.78 91.95 101.44 92.25C102.07 92.53 102.32 94.64 102.67 95.24C103.35 96.41 104.2 97.51 104.53 98.85C104.82 100 104.7 101.28 105.26 102.33C105.58 102.94 106.09 103.43 106.38 104.05C106.66 104.65 106.7 105.34 106.85 105.99C107.13 107.24 107.81 108.38 108.08 109.63C108.51 111.61 107.72 113.65 108.14 115.6C108.47 117.14 108.69 118.51 108.69 120.11H108.7Z" fill="#8FDF5C"/>
<path d="M101.44 103.82C101.44 103.82 103.14 112.46 103.05 116.17C102.96 119.88 102.49 120.44 102.79 124.88C103.09 129.32 102.38 130.75 102.25 131.31C102.12 131.86 102.25 132.86 102.25 132.86" stroke="#6EBC3B" stroke-width="0.39" stroke-miterlimit="10"/>
<path d="M91.8701 105.56C91.8801 111.08 93.2001 112.98 93.8601 118.33C94.5201 123.69 96.4901 127.82 96.9301 129.15C97.3701 130.48 98.5601 133.33 98.5601 133.33" stroke="#6EBC3B" stroke-width="0.39" stroke-miterlimit="10"/>
<path d="M111.96 110.21C111.96 116.24 110.55 120.6 110.05 123.24C109.55 125.89 107.22 129.82 106.36 131.31" stroke="#6EBC3B" stroke-width="0.39" stroke-miterlimit="10"/>
<g style="mix-blend-mode:multiply" opacity="0.22">
<path d="M108.7 120.11C108.7 120.22 108.7 120.33 108.7 120.44C108.62 124.04 107.9 127.83 105.52 130.66C99.9002 137.36 98.1402 126.91 97.1402 123C96.5102 120.54 95.9102 118.04 95.7502 115.5C95.7102 114.87 95.6902 114.24 95.6802 113.62C95.9502 113.7 96.1702 113.88 96.3102 114.18C96.9302 115.6 98.2402 117.31 99.6402 119.26C101.05 121.22 99.8002 124.25 101.55 124.87C103.25 125.46 107.2 127.35 108.7 120.1V120.11Z" fill="#190708"/>
</g>
<path d="M108.7 122.6C108.46 126.34 105.78 130.54 104.94 131.3" stroke="#599E2D" stroke-width="0.39" stroke-miterlimit="10"/>
</g>
<g style="mix-blend-mode:multiply" opacity="0.22">
<path d="M110.46 149.24L110.34 150.38C110.18 151.93 109.49 153.15 108.57 153.49C107.57 153.86 105.96 154.2 103.42 154.2C100.07 154.2 97.6301 153.61 96.1901 153.13C95.2801 152.82 94.5801 151.65 94.3901 150.12L92.9001 137.82C95.9801 146.65 104.16 150.41 109.72 149.34C109.97 149.3 110.22 149.26 110.45 149.24H110.46Z" fill="#C61829"/>
</g>
<path d="M-3.63005 144.22C16.82 130.13 103.43 133.17 111.6 136.29C119.78 139.41 112.78 160.66 104.97 159.97C97.16 159.28 21.27 159.37 21.27 159.37L-3.64005 157.36L-10.55 148.28L-3.64005 144.23L-3.63005 144.22Z" fill="#DEF0F9"/>
<path d="M137.56 162.76L136.51 176.17L132.16 231.75H-27.03L-19.25 196.8L-16.09 182.6L137.56 162.76Z" fill="#C2E0F5"/>
<path d="M123.96 164.51L120.42 234.77" stroke="#84B8D8" stroke-width="1.17" stroke-miterlimit="10"/>
<path d="M61.98 180.1L65.77 236.11" stroke="#84B8D8" stroke-width="1.17" stroke-miterlimit="10"/>
<path d="M4.77002 185.01L7.42002 233.43" stroke="#84B8D8" stroke-width="1.17" stroke-miterlimit="10"/>
<path opacity="0.21" d="M137.56 162.76L136.51 176.17C120.72 191.12 56.44 206.97 -19.25 196.8L-16.09 182.6L137.56 162.76Z" fill="#1B5A93"/>
<path d="M118.64 140.41C85.2899 133.07 20.4499 134.7 -24.5101 149.93L-25.0901 133.76L-3.04009 130.43C44.0699 117.19 119.2 119.54 127.38 130.43C129.64 133.44 126.3 137.02 118.65 140.4L118.64 140.41Z" fill="#9ACAE8"/>
<path d="M89.7099 144.85C89.2799 146.28 89.3299 150.79 89.3299 150.79L117.99 152.62C117.99 152.62 118.79 140.14 117.92 138.72C117.05 137.29 91.2799 139.57 89.7099 144.85Z" fill="#A4CFEA"/>
<path d="M91.4398 144.36L91.0598 150.31L119.96 152.16C119.96 152.16 123.26 139.7 119.88 138.23C116.13 136.6 92.4898 140.11 91.4398 144.36Z" fill="#C2E0F5"/>
<path d="M32.77 140.7C36.53 138.2 52.49 136.79 55.77 138.04C59.06 139.29 61.18 143.99 62.54 152.75C63.91 161.51 35.11 157.44 35.11 157.44L32.76 140.7H32.77Z" fill="#F49801"/>
<path d="M41.27 146.23C46.94 144.61 54.39 143.96 56.66 144.29" stroke="#F26903" stroke-width="0.39" stroke-miterlimit="10" stroke-linecap="round"/>
<path d="M32.7701 140.7C38.1701 139.76 40.5901 157.98 38.4001 160.37C36.2101 162.76 30.2601 161.83 29.1701 158.39C28.0701 154.94 25.5701 141.96 32.7701 140.7Z" fill="#F26903"/>
<g style="mix-blend-mode:multiply" opacity="0.22">
<path d="M29.7102 154.21C28.1702 145.97 30.2602 145.39 32.1302 144.73C34.0002 144.07 37.5102 151 37.6202 155.39C37.7302 159.79 29.7102 154.21 29.7102 154.21Z" fill="#C61829"/>
</g>
<path d="M56.9702 140.4C56.5602 140 55.9202 139.58 55.1402 139.64C53.4402 139.77 38.9402 141.52 38.0002 141.56C36.6902 141.61 36.2202 140.89 37.3302 140.64C41.1702 139.8 52.8402 138.51 54.8902 138.93C56.4702 139.26 56.6802 139.81 56.9702 140.4Z" fill="#FCAA32"/>
<path d="M85.6399 169.54L53.7599 171.43C53.7599 171.43 51.6199 163.79 50.8899 156.38C50.5099 152.63 50.4999 148.95 51.3099 146.35L63.3599 141.61C63.3599 141.61 80.2299 141.14 83.8099 143.87C84.9599 144.75 85.5599 147.72 85.8399 151.36C86.4399 159 85.6399 169.54 85.6399 169.54Z" fill="#1F336A"/>
<path d="M56.0398 145.14C54.2998 158.02 58.5898 173.46 58.5898 173.46" stroke="#2B4682" stroke-width="0.39" stroke-miterlimit="10" stroke-linecap="round"/>
<g style="mix-blend-mode:multiply" opacity="0.22">
<path d="M85.8499 151.35C75.8199 156.53 58.6399 156.84 50.8999 156.38C50.5199 152.63 50.5099 148.95 51.3199 146.35L63.3699 141.61C63.3699 141.61 80.2399 141.14 83.8199 143.87C84.9699 144.75 85.5699 147.72 85.8499 151.36V151.35Z" fill="#190708"/>
</g>
<path d="M77.54 83.8201C77.46 83.8801 77.37 83.9401 77.28 84.0001C77.14 84.1101 76.98 84.2201 76.82 84.3501C75.37 85.5201 73.6 87.4802 73.38 88.8601C73.23 89.8201 73.65 91.4002 73.77 92.7302C73.85 93.6502 73.79 94.4401 73.31 94.8201C72.12 95.7601 63.2 95.8502 61.47 95.8302C59.74 95.8202 58.24 93.8101 58.24 93.8101C58.24 93.8101 58.32 93.7501 58.46 93.6401C59.07 93.1101 60.76 91.4101 60.26 88.8601C59.74 86.2801 55.2 81.8102 55.97 76.5801C56.13 75.5301 56.5 74.4501 57.16 73.3501C61.11 66.7601 71.6 64.9701 76.28 70.5601C76.28 70.5601 77.21 70.4501 78.3 71.7001C79.11 72.6301 79.64 73.5901 79.97 74.5601C81.38 78.7901 78.75 82.9901 77.53 83.8101L77.54 83.8201Z" fill="#301011"/>
<path opacity="0.61" d="M77.54 83.8201C77.46 83.8801 77.37 83.9401 77.28 84.0001C76.91 83.9101 76.67 83.8201 76.67 83.8201C76.67 83.8201 76.73 84.0301 76.83 84.3601C75.38 85.5301 73.61 87.4901 73.39 88.8701C73.24 89.8301 73.66 91.4101 73.78 92.7401C71.65 92.8201 67.87 92.7501 67.87 92.7501C67.87 92.7501 64.92 93.5301 64.4 93.6601C63.95 93.7701 60.51 93.5501 58.47 93.6601C59.08 93.1301 60.77 91.4301 60.27 88.8801C59.75 86.3001 55.21 81.8301 55.98 76.6001C57.46 76.8201 60.08 79.6001 61.98 76.6701C61.98 76.6701 71.31 77.1901 74.91 78.4001C77.54 79.2801 79.25 76.2701 79.98 74.5701C81.39 78.8001 78.76 83.0001 77.54 83.8201Z" fill="#190708"/>
<path d="M78.98 94.7102C83.22 95.7302 83.6 104.57 84.09 107.61C84.58 110.66 74.5 108.68 74.5 108.68L78.98 94.7002V94.7102Z" fill="#F9E7D4"/>
<g style="mix-blend-mode:multiply" opacity="0.61">
<path d="M82.1199 131.9C84.3599 132.92 86.1899 130.55 85.9799 128.35C85.7699 126.16 83.1299 119.97 82.5199 116.83C81.9099 113.69 84.4599 111.33 85.5099 109.75C86.5599 108.17 85.2999 106.84 85.1599 107.61C85.0199 108.38 87.1499 104.99 86.5899 104.51C86.0299 104.03 82.1299 102.64 82.1299 102.64L76.3899 109.31C76.3899 109.31 78.9299 127.03 78.9299 127.38C78.9299 127.73 82.1299 131.89 82.1299 131.89L82.1199 131.9Z" fill="#FFB583"/>
</g>
<path d="M82.1199 131.9C84.3599 132.92 86.1899 130.55 85.9799 128.35C85.7699 126.16 83.1299 119.97 82.5199 116.83C81.9099 113.69 84.4599 111.33 85.5099 109.75C86.5599 108.17 85.2999 106.84 85.1599 107.61C85.0199 108.38 87.1499 104.99 86.5899 104.51C86.0299 104.03 82.1299 102.64 82.1299 102.64L76.3899 109.31C76.3899 109.31 78.9299 127.03 78.9299 127.38C78.9299 127.73 82.1299 131.89 82.1299 131.89L82.1199 131.9Z" fill="#FFB583"/>
<g style="mix-blend-mode:multiply" opacity="0.61">
<path d="M82.1199 131.9C84.3599 132.92 86.1899 130.55 85.9799 128.35C85.7699 126.16 83.1299 119.97 82.5199 116.83C81.9099 113.69 84.4599 111.33 85.5099 109.75C86.5599 108.17 85.2999 106.84 85.1599 107.61C85.0199 108.38 87.1499 104.99 86.5899 104.51C86.0299 104.03 82.1299 102.64 82.1299 102.64L76.3899 109.31C76.3899 109.31 78.9299 127.03 78.9299 127.38C78.9299 127.73 82.1299 131.89 82.1299 131.89L82.1199 131.9Z" fill="#FFB583"/>
</g>
<path d="M79.2998 115.63C80.9998 115.97 81.5298 115.63 81.5298 115.63" stroke="#F48438" stroke-width="0.39" stroke-miterlimit="10" stroke-linecap="round"/>
<path d="M85.98 146.35L84.09 147.11C74.91 150.38 58.5 150.13 58.5 150.13L56.04 145.15L53.97 150.13L49.77 149.12L50.8 139.07L51.64 130.88C51.64 130.88 51.57 130.1 51.46 128.8C50.92 122.43 49.36 103.56 49.88 102.2C50.51 100.57 52.02 95.6601 53.98 94.4001C55.93 93.1401 67.24 91.8901 67.24 91.8901C74.04 92.3901 80.07 92.5201 80.33 98.1801C80.58 103.84 79.57 122.34 79.57 122.34L85.99 146.36L85.98 146.35Z" fill="#F54949"/>
<path opacity="0.35" d="M56.04 145.14C55.86 140.8 56.04 131.02 56.04 131.02" stroke="#F9C68F" stroke-width="0.39" stroke-miterlimit="10" stroke-linecap="round"/>
<g style="mix-blend-mode:multiply" opacity="0.22">
<path d="M71.6098 119.53C65.9298 132.07 58.9598 137.9 50.7998 139.07L51.6398 130.88C51.6398 130.88 51.5698 130.1 51.4598 128.8L71.6198 119.53H71.6098Z" fill="#190708"/>
</g>
<g style="mix-blend-mode:multiply" opacity="0.22">
<path d="M59.5199 106.65C59.4599 113.08 61.3299 116.2 65.2099 115.49C69.0999 114.77 66.3799 120.81 64.9099 121.62C63.4299 122.43 56.3499 126.4 56.3499 126.4L53.9199 122.45L56.3499 107.49L59.5299 106.65H59.5199Z" fill="#190708"/>
</g>
<path d="M86.58 104.52C86.69 105.12 84.94 106.44 84.94 106.44C84.94 106.44 86.2 106.55 85.65 107.62C85.1 108.7 80.02 112.52 77.14 114.96C74.25 117.41 58.58 132.09 55.89 133.58C53.2 135.07 50.15 134.47 48.92 132.14C48.19 130.75 48.21 129.28 47.86 125.39C47.82 125.03 47.79 124.67 47.77 124.32C47.61 122.07 47.64 119.98 47.95 118.64L53.52 117.84L58.73 117.1L58.58 119.53C58.58 119.53 72.72 111.09 73.99 109.56C75.25 108.03 75.36 104.09 76.23 103.1C77.11 102.11 77.87 101.84 78.75 100.88C79.62 99.9203 80.35 100.31 80.01 101.18C79.67 102.06 77.49 104.3 78.42 103.75C79.35 103.21 85.08 100.2 85.18 101.04C85.3 102.01 84.5 102.18 83.93 102.65C85 101.98 86.27 100.89 86.58 101.45C87.09 102.35 84.77 104.41 84.39 104.75C85.72 103.76 86.47 103.93 86.58 104.52Z" fill="#FFB583"/>
<g style="mix-blend-mode:multiply" opacity="0.61">
<path d="M53.91 119.96C51.28 120.68 48.97 123.71 47.86 125.39C47.82 125.03 47.79 124.67 47.77 124.32C47.61 122.07 47.64 119.98 47.95 118.64L53.52 117.84L53.91 119.96Z" fill="#FFB583"/>
</g>
<path d="M51.7399 95.7502C56.2299 92.5702 59.0899 95.8802 59.5899 99.3002C60.0999 102.72 58.8299 114.93 58.8299 114.93L59.7099 118.17C59.7099 118.17 50.3299 121.91 46.9099 119.94C46.9099 119.94 47.1799 98.9702 51.7399 95.7402V95.7502Z" fill="#F9E7D4"/>
<path d="M62.0798 92.5502C62.1598 99.0902 67.7798 106.65 68.7898 106.65C69.7998 106.65 73.6698 95.8702 73.1698 92.4102C73.1698 92.4102 69.6298 90.3302 62.0698 92.5502H62.0798Z" fill="#F9E7D4"/>
<path d="M63.72 92.1201C63.72 92.1201 63.55 96.6401 66.04 98.0401L67.94 94.2901L70.68 97.7401C70.68 97.7401 72.42 94.0001 71.11 91.7601C71.11 91.7601 67.21 90.7001 63.71 92.1301L63.72 92.1201Z" fill="#F54949"/>
<path d="M67.6999 94.2903C66.1599 94.2903 64.9099 93.0403 64.9099 91.5003V85.0103H70.4799V91.5003C70.4799 93.0403 69.2299 94.2903 67.6899 94.2903H67.6999Z" fill="#FFB583"/>
<g style="mix-blend-mode:multiply" opacity="0.61">
<path d="M67.6999 91.7202C66.1599 91.7202 64.9099 90.4702 64.9099 88.9302V82.4402H70.4799V88.9302C70.4799 90.4702 69.2299 91.7202 67.6899 91.7202H67.6999Z" fill="#FFB583"/>
</g>
<path d="M78.31 79.3903C78.43 86.4703 77.01 90.5403 71.13 90.4703C65.25 90.4103 63.1 86.0003 62.72 84.8003C62.33 83.6003 62.8 76.8303 62.8 76.8303C62.8 76.8303 69.96 74.0103 70.18 73.8203C70.27 73.7403 71.33 73.6303 72.58 73.5103C75.08 73.2803 77.35 74.9603 77.88 77.4103L78.31 79.3903Z" fill="#FFB583"/>
<path d="M78.3101 82.4403C78.3101 82.4403 78.3101 86.1203 76.5401 88.6403C75.5801 90.0103 74.0901 91.0503 71.7801 90.9603C65.2401 90.7203 63.6801 87.5503 62.8101 85.6003L63.3001 85.4103C63.3001 85.4103 64.2801 87.4203 65.2801 87.0903C65.4201 87.0403 65.5301 86.9603 65.6101 86.8303C66.1401 86.0603 65.7401 84.0003 65.6401 83.5403C65.5101 83.0003 63.0501 81.5203 62.5701 80.4903L62.8301 79.7703C64.2601 81.3103 64.9101 81.9103 66.6401 82.5203C68.3701 83.1203 72.2201 82.4003 74.1101 82.4003C76.0001 82.4003 77.7301 82.5703 78.3301 82.4303L78.3101 82.4403Z" fill="white"/>
<path d="M76.5401 88.6404C75.5801 90.0104 74.0901 91.0504 71.7801 90.9604C65.2401 90.7204 63.6801 87.5504 62.8101 85.6004L63.3001 85.4104C63.3001 85.4104 64.2801 87.4204 65.2801 87.0904C65.4201 87.0404 65.5301 86.9604 65.6101 86.8304C67.3401 88.2304 72.2001 90.5304 76.5501 88.6404H76.5401Z" fill="#FCF7F2"/>
<path d="M68.4201 86.6203C71.1501 87.8703 76.0301 87.2403 76.7301 86.7303C77.4301 86.2203 76.5701 86.2703 74.2301 86.2103C71.9001 86.1603 69.0201 85.9403 68.4101 85.9903C67.8001 86.0403 67.7601 86.3203 68.4101 86.6103L68.4201 86.6203Z" fill="#FCF7F2"/>
<path d="M69.2101 84.3703C71.5901 85.4603 75.8501 84.9103 76.4601 84.4603C77.0801 84.0103 76.3201 84.0603 74.2801 84.0103C72.2401 83.9603 69.7401 83.7703 69.2101 83.8203C68.6801 83.8703 68.6501 84.1103 69.2101 84.3603V84.3703Z" fill="#FCF7F2"/>
<path d="M63.54 81.8202C62.79 79.8802 60.85 79.6202 59.92 80.9602C58.63 82.8202 60.8 85.2402 62.19 85.7202C63.58 86.2102 64.49 84.3002 63.54 81.8202Z" fill="#FFB583"/>
<path d="M63.3999 82.9902C62.2899 81.2902 61.1299 81.3302 60.6999 82.0102C60.2699 82.6902 61.0299 83.2402 61.0299 83.2402" stroke="#FF9852" stroke-width="0.39" stroke-miterlimit="10" stroke-linecap="round"/>
<path d="M61.78 81.6102C60.71 81.5802 61.03 83.7802 62.31 84.4802C63.59 85.1802 63.25 83.8602 63.25 83.8602" stroke="#FF9852" stroke-width="0.39" stroke-miterlimit="10" stroke-linecap="round"/>
<path d="M62.4601 81.9402C61.6901 82.1302 61.5701 83.6902 61.7701 84.0702" stroke="#FF9852" stroke-width="0.39" stroke-miterlimit="10" stroke-linecap="round"/>
<path d="M74.73 77.8303C75.56 77.5503 76.4499 77.9203 76.5699 78.3703C76.6899 78.8303 73.32 78.3103 74.73 77.8303Z" fill="#301011"/>
<path d="M71.42 77.9703C70.4 77.5703 69.31 78.4803 69.14 79.0103C68.97 79.5403 73 78.5903 71.42 77.9703Z" fill="#301011"/>
<path d="M71.75 81.0403C71.83 81.4803 71.74 81.8603 71.54 81.9003C71.34 81.9403 71.11 81.6203 71.03 81.1803C70.95 80.7403 71.04 80.3603 71.24 80.3203C71.44 80.2803 71.67 80.6003 71.75 81.0403Z" fill="#301011"/>
<path d="M75.9401 80.7703C75.9101 81.2103 75.7101 81.5603 75.5101 81.5403C75.3101 81.5203 75.1701 81.1503 75.2001 80.7103C75.2301 80.2703 75.4301 79.9203 75.6301 79.9403C75.8301 79.9603 75.9701 80.3303 75.9401 80.7703Z" fill="#301011"/>
<path d="M75.4799 72.5403C75.4799 72.5403 75.4799 72.5602 75.4799 72.5702C75.1899 77.6502 67.1999 79.1202 62.8799 78.0702C61.2899 77.6802 60.5599 76.7203 60.4699 75.6102C60.3199 73.6902 62.0599 71.2903 64.5799 70.5103C68.0499 69.4403 73.8699 70.0702 75.2099 71.7402C75.2099 71.7402 75.2099 71.7402 75.2099 71.7502C75.3999 71.9902 75.4999 72.2502 75.4799 72.5302V72.5403Z" fill="#301011"/>
<path d="M58.58 119.53C56.06 120.65 53.23 122.99 53.23 122.99" stroke="#FF9852" stroke-width="0.39" stroke-miterlimit="10" stroke-linecap="round"/>
<g style="mix-blend-mode:multiply" opacity="0.35">
<path d="M58.8298 114.93L56.3398 108.99" stroke="#F9C68F" stroke-width="0.39" stroke-miterlimit="10" stroke-linecap="round"/>
</g>
<g style="mix-blend-mode:multiply" opacity="0.35">
<path d="M67.95 94.29L68.8 106.65" stroke="#F9C68F" stroke-width="0.39" stroke-miterlimit="10" stroke-linecap="round"/>
</g>
<path opacity="0.35" d="M60.12 93.1702C59.67 100.62 67.16 109.21 69.14 109.32C71.12 109.43 75.77 99.1502 75.2 93.1702" stroke="#F9C68F" stroke-width="0.39" stroke-miterlimit="10" stroke-linecap="round"/>
<path opacity="0.35" d="M75.8999 122.99C77.6599 123.11 79.5599 122.32 79.5599 122.32" stroke="#F9C68F" stroke-width="0.39" stroke-miterlimit="10" stroke-linecap="round"/>
<path d="M74.5 109.32C75.33 109.63 76.38 111.01 76.38 111.01" stroke="#FF9852" stroke-width="0.39" stroke-miterlimit="10" stroke-linecap="round"/>
<path d="M84.6798 102.13L83.0598 103.36" stroke="#FF9852" stroke-width="0.39" stroke-miterlimit="10" stroke-linecap="round"/>
<path d="M84.8399 104.45L83.4199 105.44" stroke="#FF9852" stroke-width="0.39" stroke-miterlimit="10" stroke-linecap="round"/>
<path d="M84.94 106.44L84.24 107" stroke="#FF9852" stroke-width="0.39" stroke-miterlimit="10" stroke-linecap="round"/>
<path opacity="0.61" d="M75.47 72.5702C75.18 77.6502 67.19 79.1202 62.87 78.0702C61.28 77.6802 60.55 76.7202 60.46 75.6102C61.09 75.5902 62.03 75.7702 63.3 76.2402C65.65 77.1102 71.06 77.1702 75.2 71.7402C75.2 71.7402 75.2 71.7402 75.2 71.7502C75.22 71.8202 75.34 72.1402 75.47 72.5602V72.5702Z" fill="#190708"/>
<path d="M140.22 137.29V160.49C140.22 176.87 66.38 200.13 -22.34 187.42L-23.71 182.59L-30 160.37H63.29L107.06 147.24L110.33 146.26L140.23 137.29H140.22Z" fill="#C2E0F5"/>
<path d="M-3.05009 130.43L-25.0901 133.76C-3.57009 126.39 22.5799 122.16 47.6799 120.57L47.6999 122.27C29.9899 123.55 12.0299 126.19 -3.05009 130.43Z" fill="#1B5A93"/>
<path d="M133.97 145.58C132.3 146.81 130.31 148.05 128.02 149.26C105.6 161.18 54.62 171.4 -5.33 165.69H-5.37C-5.92 165.64 -6.47 165.58 -7.02 165.53C-14.56 164.77 -22.23 163.77 -30 162.48L-17.6 155.3L-6.94 149.12C3.51 150.53 13.72 151.43 23.57 151.88C56.53 153.42 85.28 150.08 104.23 145.2C108.71 144.04 112.64 142.8 115.94 141.52C116.89 141.16 117.79 140.78 118.64 140.41C126.3 137.03 129.63 133.45 127.37 130.43C123.67 125.5 106.25 122.32 83.92 121.55L83.42 120.06C108.12 121.01 128.22 124.78 136.36 130.72C137.68 131.67 138.68 132.69 139.34 133.76C141.56 137.36 139.51 141.48 133.97 145.58Z" fill="#1B5A93"/>
<path d="M102.18 211.88L100.39 229.58L100.29 230.59C100.15 231.95 99.54 233.03 98.73 233.33C97.85 233.66 96.43 233.95 94.19 233.95C91.24 233.95 89.08 233.43 87.82 233.01C87.02 232.74 86.4 231.7 86.24 230.36L84.93 219.52L84.01 211.88H102.18Z" fill="#F49801"/>
<path d="M102.18 211.88C102.18 212.51 98.11 213.03 93.09 213.03C88.07 213.03 84 212.52 84 211.88C84 211.24 88.07 210.73 93.09 210.73C98.11 210.73 102.18 211.24 102.18 211.88Z" fill="#F26903"/>
<mask id="mask1_1091_18782" style="mask-type:luminance" maskUnits="userSpaceOnUse" x="74" y="174" width="39" height="40">
<path d="M102.18 211.88C102.18 212.51 98.1099 213.03 93.0899 213.03C88.0699 213.03 83.9999 212.52 83.9999 211.88C83.9999 211.24 56.5799 174.11 93.0899 174.11C129.6 174.11 102.18 211.25 102.18 211.88Z" fill="white"/>
</mask>
<g mask="url(#mask1_1091_18782)">
<path d="M91 207.56C91 207.68 91 207.8 91 207.92C90.95 209.43 90.79 210.98 90.24 212.38C90.06 212.84 89.84 213.28 89.57 213.69C87.9 216.25 85.39 211.64 83.71 207.41C82.73 204.95 82.03 202.62 81.93 201.9C81.57 199.37 81.52 196.81 81.54 194.26C81.56 191.79 81.2 189.27 81.32 186.81C81.38 185.49 81.75 184.21 82.11 182.94C82.65 183.44 83.18 183.93 83.71 184.43C85.78 186.36 87.14 189.13 88.17 191.9C88.55 192.92 88.88 193.94 89.19 194.92C89.64 196.33 90 197.76 90.29 199.22C90.82 201.97 91.06 204.77 90.99 207.57L91 207.56Z" fill="#8FDF5C"/>
<g style="mix-blend-mode:multiply" opacity="0.22">
<path d="M91 207.56C90.36 208.96 89.75 210.33 90.15 211.88C90.19 212.04 90.22 212.21 90.24 212.38C90.06 212.84 89.84 213.28 89.57 213.69C87.9 216.25 85.39 211.64 83.71 207.41C84.38 206.82 84.93 206.36 84.93 206.36C84.93 206.36 84.79 196.69 85.78 195.09C86.76 193.49 88.19 191.9 88.19 191.9C87.38 194.74 88.92 197.04 90.31 199.21C91.1 200.46 91.84 201.67 92.06 202.93C92.36 204.67 91.67 206.13 91.01 207.56H91Z" fill="#190708"/>
</g>
<path d="M103.51 206.46C103.12 207.71 102.57 208.91 101.79 210.06C100.37 212.17 95.34 216.2 93.88 212.01C92.89 209.16 94.07 205.74 95.03 203.03C95.48 201.77 95.82 200.52 96.21 199.26C96.25 199.13 96.29 198.99 96.33 198.86C96.82 197.31 97.9 196 98.23 194.39C98.33 193.9 98.36 193.39 98.41 192.89C98.48 192.24 98.61 191.61 98.98 191.1C99.21 190.78 99.54 190.51 99.72 190.15C99.86 189.86 99.89 189.52 99.95 189.2C100.26 187.47 101.5 185.93 103.14 185.28C102.74 186.76 103.8 188.21 104.1 189.72C104.3 190.72 104.16 191.76 104.17 192.78C104.24 197.27 104.87 202.11 103.52 206.45L103.51 206.46Z" fill="#8FDF5C"/>
<g style="mix-blend-mode:multiply" opacity="0.22">
<path d="M103.51 206.46C103.12 207.71 102.57 208.91 101.79 210.06C100.37 212.17 95.34 216.2 93.88 212.01C92.89 209.16 94.07 205.74 95.03 203.03C95.48 201.77 95.82 200.52 96.21 199.26C96.25 199.13 96.29 198.99 96.33 198.86C96.82 197.31 97.9 196 98.23 194.39C98.33 193.9 98.36 193.39 98.41 192.89C100.23 196.94 100.23 198.56 99.93 201.78C99.63 205 99.53 206.72 100.54 207.12C101.02 207.31 102.31 206.9 103.51 206.45V206.46Z" fill="#190708"/>
</g>
<path d="M98.8399 203.9C98.8399 203.99 98.8399 204.1 98.8399 204.19C98.7699 207.37 98.1299 210.7 96.0299 213.2C91.0799 219.11 89.5299 209.89 88.6399 206.45C88.0799 204.28 87.5599 202.08 87.4199 199.84C87.3899 199.28 87.3699 198.73 87.3599 198.18C87.3399 196.39 87.4899 194.63 87.9299 192.86C88.4799 190.62 89.2599 188.43 89.4799 186.12C89.5699 185.13 89.5599 184.1 89.9999 183.2C90.2899 182.61 90.7399 182.13 91.0999 181.59C91.4399 181.09 91.8599 179.08 92.4399 179.34C92.9999 179.58 93.2099 181.45 93.5199 181.98C94.1199 183.01 94.8699 183.98 95.1599 185.16C95.4099 186.18 95.3099 187.3 95.8099 188.23C96.0899 188.77 96.5499 189.2 96.7999 189.74C97.0499 190.27 97.0899 190.87 97.2099 191.45C97.4599 192.55 98.0599 193.56 98.2899 194.66C98.6699 196.4 97.9699 198.21 98.3399 199.92C98.6299 201.28 98.8299 202.49 98.8199 203.9H98.8399Z" fill="#8FDF5C"/>
<path d="M92.4399 189.54C92.4399 189.54 93.9399 197.15 93.8599 200.43C93.7799 203.7 93.3599 204.2 93.6299 208.11C93.8999 212.02 93.2699 213.29 93.1599 213.78C93.0499 214.27 93.1599 215.15 93.1599 215.15" stroke="#6EBC3B" stroke-width="0.39" stroke-miterlimit="10"/>
<path d="M84.01 191.08C84.02 195.94 85.18 197.62 85.76 202.34C86.34 207.06 88.08 210.7 88.47 211.88C88.86 213.06 89.9 215.57 89.9 215.57" stroke="#6EBC3B" stroke-width="0.39" stroke-miterlimit="10"/>
<path d="M101.71 195.17C101.71 200.49 100.46 204.33 100.02 206.66C99.58 208.99 97.53 212.46 96.77 213.77" stroke="#6EBC3B" stroke-width="0.39" stroke-miterlimit="10"/>
<g style="mix-blend-mode:multiply" opacity="0.22">
<path d="M98.8399 203.9C98.8399 203.99 98.8399 204.1 98.8399 204.19C98.7699 207.37 98.1299 210.7 96.0299 213.2C91.0799 219.11 89.5299 209.89 88.6399 206.45C88.0799 204.28 87.5599 202.08 87.4199 199.84C87.3899 199.28 87.3699 198.73 87.3599 198.18C87.5899 198.25 87.7899 198.41 87.9099 198.68C88.4599 199.93 89.6099 201.43 90.8499 203.16C92.0899 204.89 90.9899 207.56 92.5399 208.1C94.0399 208.62 97.5199 210.29 98.8399 203.9Z" fill="#190708"/>
</g>
<path d="M88.6399 206.45C88.0799 204.28 87.5599 202.08 87.4199 199.84C87.3899 199.28 87.3699 198.73 87.3599 198.18C87.3399 196.39 87.4899 194.63 87.9299 192.86C88.4799 190.62 89.2599 188.43 89.4799 186.12C89.5699 185.13 89.5599 184.1 89.9999 183.2C90.2899 182.61 90.7399 182.13 91.0999 181.59C91.4399 181.09 91.8599 179.08 92.4399 179.34" stroke="#599E2D" stroke-width="0.39" stroke-miterlimit="10"/>
<path d="M98.84 206.1C98.63 209.39 96.26 213.1 95.52 213.77" stroke="#599E2D" stroke-width="0.39" stroke-miterlimit="10"/>
</g>
<g style="mix-blend-mode:multiply" opacity="0.22">
<path d="M100.39 229.58L100.29 230.59C100.15 231.95 99.5399 233.03 98.7299 233.33C97.8499 233.66 96.4299 233.95 94.1899 233.95C91.2399 233.95 89.0799 233.43 87.8199 233.01C87.0199 232.74 86.3999 231.7 86.2399 230.36L84.9299 219.52C87.6499 227.3 94.8499 230.61 99.7499 229.67C99.9699 229.63 100.19 229.6 100.39 229.58Z" fill="#C61829"/>
</g>
<path d="M133.97 145.58C132.3 146.81 130.31 148.05 128.02 149.26C117.89 154.64 101.93 159.68 81.95 163.06C73.54 164.48 64.43 165.61 54.73 166.34C36.46 167.74 16.14 167.74 -5.33 165.69H-5.37C-5.92 165.64 -6.47 165.58 -7.02 165.53C-14.56 164.77 -22.23 163.77 -30 162.48L-17.6 155.3L-6.94 149.12C3.51 150.53 13.72 151.43 23.57 151.88C33.62 152.35 43.28 152.37 52.39 152.02C63.06 151.62 72.97 150.73 81.88 149.49C90.3 148.32 97.83 146.85 104.23 145.2C108.71 144.04 112.64 142.8 115.94 141.52C116.89 141.16 117.79 140.78 118.64 140.41C126.3 137.03 129.63 133.45 127.37 130.43C123.67 125.5 106.25 122.33 83.92 121.55L83.42 120.06C108.12 121 128.22 124.78 136.36 130.72C137.68 131.67 138.68 132.69 139.34 133.76C141.56 137.36 139.51 141.48 133.97 145.58Z" fill="#1B5A93"/>
<g style="mix-blend-mode:multiply" opacity="0.22">
<path d="M10.9701 164.98C16.029 164.98 20.1301 164.281 20.1301 163.42C20.1301 162.558 16.029 161.86 10.9701 161.86C5.91113 161.86 1.81006 162.558 1.81006 163.42C1.81006 164.281 5.91113 164.98 10.9701 164.98Z" fill="#190708"/>
</g>
<path d="M17.5301 154.91L16.3001 162.12L16.2301 162.53C16.1401 163.09 15.7101 163.52 15.1601 163.65C14.5501 163.78 13.5801 163.9 12.0501 163.9C10.0201 163.9 8.54006 163.69 7.68006 163.52C7.13006 163.41 6.71006 162.99 6.59006 162.44L5.69006 158.02L5.06006 154.91H17.5401H17.5301Z" fill="#F49801"/>
<path d="M17.53 154.92C17.53 155.18 14.7401 155.39 11.2901 155.39C7.84005 155.39 5.05005 155.18 5.05005 154.92C5.05005 154.66 7.84005 154.45 11.2901 154.45C14.7401 154.45 17.53 154.66 17.53 154.92Z" fill="#F26903"/>
<path d="M19.4199 150.15C16.9499 155.33 13.24 156.08 7.73995 155.05C6.81995 154.88 6.09995 154.08 5.58995 153.3C5.35995 152.95 5.18995 152.55 5.18995 152.13C5.18995 151.71 5.40995 151.28 5.77995 151.1C6.22995 150.89 6.73995 151.07 7.18995 151.33C6.05995 150.57 5.08995 149.52 4.62995 148.24C4.29995 147.31 4.26995 146.25 4.57995 145.32C4.72995 144.86 4.96995 144.43 5.28995 144.06C5.39995 143.93 5.52995 143.8 5.69995 143.75C6.04995 143.64 6.38995 143.9 6.64995 144.16C7.45995 144.95 8.09995 145.89 8.73995 146.82C7.82995 144.3 6.90995 141.69 6.80995 138.99C6.76995 137.88 6.78995 137.11 7.51995 136.28C8.22995 135.47 9.09995 134.68 10.2699 134.95C10.7899 135.07 11.2499 135.39 11.6399 135.77C12.8399 136.96 13.6499 139.42 12.9799 141.12C13.1399 140.74 13.3499 140.37 13.5899 140.03C14.1099 139.27 14.83 138.59 15.74 138.46C16.71 138.32 17.6899 138.89 18.2499 139.7C18.5699 140.17 18.78 140.7 18.9 141.25C18.99 141.66 19.0399 142.08 19.0699 142.49C19.1899 144.65 18.6399 146.84 17.4999 148.68C17.9699 148.58 18.2799 148.07 18.7599 148.01C18.9399 147.99 19.1099 148.05 19.2599 148.15C19.4799 148.3 19.6399 148.56 19.6899 148.83C19.7599 149.28 19.6099 149.74 19.4199 150.15Z" fill="#8FDF5C"/>
<path d="M8.73999 146.82C9.07999 147.63 9.40999 147.97 9.40999 147.97" stroke="#ADED83" stroke-width="0.39" stroke-miterlimit="10" stroke-linecap="round"/>
<path d="M13.1401 140.69C12.8301 141.83 12.8301 142.27 12.8301 142.27" stroke="#ADED83" stroke-width="0.39" stroke-miterlimit="10" stroke-linecap="round"/>
<path d="M17.5101 148.67C17.2001 149.31 16.3901 149.87 16.3901 149.87" stroke="#ADED83" stroke-width="0.39" stroke-miterlimit="10" stroke-linecap="round"/>
<path d="M7.19995 151.34C7.64995 152 9.40995 152.49 9.40995 152.49" stroke="#ADED83" stroke-width="0.39" stroke-miterlimit="10" stroke-linecap="round"/>
<g style="mix-blend-mode:multiply" opacity="0.22">
<path d="M19.4199 150.15C16.9499 155.33 13.24 156.08 7.73995 155.05C6.81995 154.88 6.09995 154.08 5.58995 153.3C5.35995 152.95 5.18995 152.55 5.18995 152.13C5.18995 151.71 5.40995 151.28 5.77995 151.1C6.22995 150.89 6.73995 151.07 7.18995 151.33C6.05995 150.57 5.08995 149.52 4.62995 148.24C4.29995 147.31 4.26995 146.25 4.57995 145.32L4.59995 145.36C4.60995 146.76 4.88995 148.22 5.73995 149.33C6.58995 150.44 8.11995 151.11 9.43995 150.65C9.74995 151.42 10.4499 152.02 11.2499 152.23C12.0599 152.43 12.9599 152.23 13.5999 151.71C13.7599 151.58 13.9099 151.42 14.1099 151.37C14.3099 151.3 14.53 151.35 14.74 151.37C15.53 151.44 16.3999 151.12 16.7699 150.42C16.9899 150.01 17.0199 149.52 17.0399 149.06C17.0899 148.09 17.1499 147.13 17.1999 146.16C18.3199 145.72 18.7099 144.33 18.8199 143.13C18.8799 142.5 18.8999 141.88 18.8899 141.25C18.9799 141.66 19.03 142.08 19.0599 142.49C19.1799 144.65 18.63 146.84 17.49 148.68C17.96 148.58 18.2699 148.07 18.7499 148.01C18.9299 147.99 19.0999 148.05 19.2499 148.15C19.4699 148.3 19.6299 148.56 19.6799 148.83C19.7499 149.28 19.5999 149.74 19.4099 150.15H19.4199Z" fill="#190708"/>
</g>
<g style="mix-blend-mode:multiply" opacity="0.22">
<path d="M16.31 162.13L16.24 162.54C16.15 163.1 15.7199 163.53 15.1699 163.66C14.5599 163.79 13.59 163.91 12.06 163.91C10.03 163.91 8.54995 163.7 7.68995 163.53C7.13995 163.42 6.71995 163 6.59995 162.45L5.69995 158.03C7.56995 161.2 12.5099 162.55 15.8699 162.17C16.0199 162.15 16.17 162.14 16.31 162.13Z" fill="#C61829"/>
</g>
<path d="M42.6502 58.4401C41.8602 57.2301 41.4402 55.8201 41.2802 54.3901C41.1002 52.9601 41.1402 51.5101 41.3502 50.0901C41.7502 47.2301 42.9702 44.5501 44.5402 42.1401C46.0602 39.7101 47.8202 37.3601 48.6502 34.5901C49.5302 31.8101 49.1002 28.8401 48.4202 26.0701" stroke="#6EBC3B" stroke-width="0.39" stroke-miterlimit="10"/>
<path d="M37.8601 55.4501C38.2301 54.7801 38.9101 54.5101 39.4701 54.3901C40.0301 54.2801 40.5001 54.3101 40.5001 54.3101C40.5001 54.3101 40.6201 54.7901 40.6901 55.4101C40.7501 56.0501 40.8101 56.8301 40.5901 57.5301C40.3601 58.2301 39.8601 58.7501 39.3701 59.0601C38.8901 59.3801 38.4301 59.4801 38.4301 59.4801C38.4301 59.4801 38.0401 58.8701 37.8001 58.0301C37.5501 57.2101 37.4701 56.0601 37.8701 55.4401L37.8601 55.4501Z" fill="#8FDF5C"/>
<path d="M39.1702 56.6002C39.4202 55.9502 39.7602 55.3902 40.0902 54.8902C40.4402 54.3702 40.8002 53.8902 41.1902 53.4302" stroke="#6EBC3B" stroke-width="0.39" stroke-miterlimit="10" stroke-linecap="round"/>
<path d="M42.82 60.85C42.1 60.25 41.93 59.38 41.98 58.77C42 58.46 42.07 58.2 42.13 58.02C42.19 57.84 42.24 57.74 42.24 57.74C42.24 57.74 42.7 57.84 43.23 57.97C43.77 58.12 44.35 58.27 44.71 58.55C45.05 58.83 45.22 59.32 45.52 59.77C45.66 60 45.79 60.19 45.9 60.33C46 60.48 46.07 60.57 46.07 60.57C46.07 60.57 45.99 60.66 45.84 60.79C45.69 60.92 45.46 61.09 45.15 61.21C44.57 61.47 43.54 61.46 42.82 60.85Z" fill="#8FDF5C"/>
<path d="M43.76 59.7C42.82 58.92 42.2 57.83 41.79 56.7" stroke="#6EBC3B" stroke-width="0.39" stroke-miterlimit="10" stroke-linecap="round"/>
<path d="M44.7401 51.5502C44.3101 51.1302 43.6301 50.9002 43.0701 50.7902C42.5101 50.6802 42.0501 50.6902 42.0501 50.6902C42.0501 50.6902 41.9201 51.1302 41.9401 51.7002C41.9401 52.2702 42.1301 52.9602 42.6301 53.3702C43.1401 53.7902 43.8401 53.8502 44.4101 53.8302C44.9801 53.8102 45.4301 53.7002 45.4301 53.7002C45.4301 53.7002 45.4601 53.3602 45.4001 52.9302C45.3301 52.5002 45.1901 51.9702 44.7401 51.5502Z" fill="#8FDF5C"/>
<path d="M43.6501 52.3901C42.8301 51.6601 42.0701 50.7901 41.3901 49.8101" stroke="#6EBC3B" stroke-width="0.39" stroke-miterlimit="10" stroke-linecap="round"/>
<path d="M38.3201 47.33C38.9301 46.88 39.6601 46.91 40.2201 47.02C40.7801 47.14 41.2001 47.35 41.2001 47.35C41.2001 47.35 41.1201 47.84 40.9301 48.43C40.7401 49.02 40.4401 49.72 39.9101 50.19C39.3701 50.65 38.6701 50.8 38.0901 50.8C37.5101 50.8 37.0701 50.68 37.0701 50.68C37.0701 50.68 37.0501 50.08 37.2101 49.36C37.3701 48.64 37.7201 47.79 38.3301 47.35L38.3201 47.33Z" fill="#8FDF5C"/>
<path d="M39.05 48.8101C40.05 48.0101 41.1 47.3501 42.17 46.8101" stroke="#6EBC3B" stroke-width="0.39" stroke-miterlimit="10" stroke-linecap="round"/>
<path d="M46.1802 46.3901C45.9402 45.8201 45.4002 45.3501 44.9202 45.0401C44.4402 44.7301 44.0002 44.5801 44.0002 44.5801C44.0002 44.5801 43.7101 44.9501 43.5201 45.4901C43.3201 46.0201 43.2201 46.7301 43.5201 47.3201C43.8201 47.9001 44.4402 48.2401 44.9802 48.4501C45.5202 48.6601 45.9702 48.7301 45.9702 48.7301C45.9702 48.7301 46.1402 48.4101 46.2602 47.9601C46.3702 47.5101 46.4502 46.9501 46.1902 46.3901H46.1802Z" fill="#8FDF5C"/>
<path d="M44.8402 46.78C44.3602 45.78 43.9902 44.68 43.7002 43.52" stroke="#6EBC3B" stroke-width="0.39" stroke-miterlimit="10" stroke-linecap="round"/>
<path d="M41.5501 40.2502C42.9001 39.8902 44.2601 41.1402 44.2601 41.1402C44.2601 41.1402 43.4801 42.8702 42.1701 43.3202C41.5101 43.5502 40.8101 43.4202 40.2701 43.2102C39.7301 43.0002 39.3701 42.7202 39.3701 42.7202C39.3701 42.7202 39.5601 42.1702 39.9401 41.6002C40.3201 41.0202 40.8701 40.4302 41.5501 40.2502Z" fill="#8FDF5C"/>
<path d="M41.8401 41.7901C43.0201 41.4201 44.1801 41.1501 45.3401 40.8901" stroke="#6EBC3B" stroke-width="0.39" stroke-miterlimit="10" stroke-linecap="round"/>
<path d="M49.5101 40.9301C49.2601 39.5301 47.5201 38.8801 47.5201 38.8801C47.5201 38.8801 47.2101 39.2601 46.9301 39.7901C46.6501 40.3201 46.3901 41.0201 46.5301 41.6901C46.7901 43.0301 48.4901 43.7601 48.4901 43.7601C48.4901 43.7601 48.8001 43.4201 49.0801 42.8901C49.3701 42.3601 49.6401 41.6301 49.5201 40.9301H49.5101Z" fill="#8FDF5C"/>
<path d="M48.01 41.34C47.79 40.15 47.56 38.95 47.25 37.8" stroke="#6EBC3B" stroke-width="0.39" stroke-miterlimit="10" stroke-linecap="round"/>
<path d="M44.77 34.89C45.35 34.74 46.05 34.86 46.6 35.03C47.15 35.2 47.55 35.44 47.55 35.44C47.55 35.44 47.45 35.88 47.16 36.38C46.88 36.88 46.39 37.41 45.75 37.57C44.46 37.89 43.05 36.7 43.05 36.7C43.05 36.7 43.21 36.3 43.5 35.89C43.79 35.48 44.19 35.06 44.78 34.9L44.77 34.89Z" fill="#8FDF5C"/>
<path d="M45.3101 36.17C46.3901 35.88 47.4701 35.52 48.5401 34.97" stroke="#6EBC3B" stroke-width="0.39" stroke-miterlimit="10" stroke-linecap="round"/>
<path d="M52.5401 33.3701C52.1601 32.6701 51.4701 32.4201 50.9001 32.3201C50.3301 32.2201 49.8701 32.2701 49.8701 32.2701C49.8701 32.2701 49.7701 32.7601 49.7001 33.3901C49.6401 34.0201 49.6001 34.7901 49.8701 35.4601C50.1301 36.1201 50.7001 36.5701 51.2101 36.8401C51.7201 37.1101 52.1801 37.1901 52.1801 37.1901C52.1801 37.1901 52.2401 37.0501 52.3501 36.8201C52.4501 36.5901 52.5801 36.2701 52.6701 35.8701C52.8701 35.1101 52.9101 34.0701 52.5301 33.3701H52.5401Z" fill="#8FDF5C"/>
<path d="M51.2401 34.5301C50.6901 33.3201 49.9601 32.2701 49.1501 31.4001" stroke="#6EBC3B" stroke-width="0.39" stroke-miterlimit="10" stroke-linecap="round"/>
<path d="M77.1201 28.4601C76.4701 26.0401 76.7801 23.4801 77.4801 21.1101C78.1601 18.7201 79.1601 16.4401 79.8401 14.0401C80.5001 11.6701 80.8501 9.1001 80.1501 6.6901C79.8001 5.5001 79.2301 4.3801 78.8401 3.2001C78.4501 2.0501 78.2301 0.690098 78.9001 -0.399902" stroke="#6EBC3B" stroke-width="0.39" stroke-miterlimit="10"/>
<path d="M73.24 25.1002C73.73 24.5802 74.44 24.4702 75.02 24.4602C75.59 24.4602 76.04 24.5602 76.04 24.5602C76.04 24.5602 76.07 24.9902 76.02 25.5302C75.97 26.0702 75.84 26.7302 75.44 27.2602C75.03 27.7902 74.39 28.1102 73.84 28.2602C73.29 28.4202 72.82 28.4202 72.82 28.4202C72.82 28.4202 72.64 27.8602 72.62 27.1602C72.6 26.4602 72.74 25.6102 73.24 25.0902V25.1002Z" fill="#8FDF5C"/>
<path d="M74.3 26.2602C75.09 25.3302 75.96 24.5702 76.88 23.9402" stroke="#6EBC3B" stroke-width="0.39" stroke-miterlimit="10" stroke-linecap="round"/>
<path d="M76.2599 30.46C75.9599 29.81 76.1299 29.08 76.3799 28.58C76.6399 28.08 76.9599 27.77 76.9599 27.77C76.9599 27.77 77.3799 27.94 77.8199 28.2C78.2799 28.46 78.7599 28.77 78.9599 29.2C79.1599 29.63 79.0699 30.18 78.9899 30.69C78.8999 31.19 78.7899 31.63 78.7899 31.63C78.7899 31.63 78.3599 31.7 77.7899 31.58C77.2399 31.46 76.5599 31.1 76.2499 30.45L76.2599 30.46Z" fill="#8FDF5C"/>
<path d="M77.6098 29.8301C77.1798 28.8801 76.9198 27.8501 76.8198 26.8101" stroke="#6EBC3B" stroke-width="0.39" stroke-miterlimit="10" stroke-linecap="round"/>
<path d="M80.6601 22.9402C80.2801 22.4902 79.6501 22.1702 79.1101 21.9902C78.5701 21.8002 78.1101 21.7402 78.1101 21.7402C78.1101 21.7402 77.9401 22.1002 77.8701 22.6002C77.8001 23.0902 77.8701 23.7102 78.2901 24.1502C78.7201 24.5902 79.4001 24.7602 79.9701 24.8402C80.5401 24.9202 81.0001 24.9102 81.0001 24.9102C81.0001 24.9102 81.0901 24.6402 81.1001 24.2802C81.1001 23.9202 81.0401 23.4102 80.6601 22.9502V22.9402Z" fill="#8FDF5C"/>
<path d="M79.46 23.4901C78.76 22.7101 78.13 21.8201 77.55 20.8701" stroke="#6EBC3B" stroke-width="0.39" stroke-miterlimit="10" stroke-linecap="round"/>
<path d="M74.62 18.4201C75.81 17.8701 77.44 18.7401 77.44 18.7401C77.44 18.7401 77.18 20.3601 76.04 20.9701C75.47 21.2701 74.75 21.2701 74.19 21.1801C73.62 21.0901 73.2 20.9101 73.2 20.9101C73.2 20.9101 73.25 20.4201 73.46 19.8701C73.67 19.3101 74.04 18.7101 74.63 18.4301L74.62 18.4201Z" fill="#8FDF5C"/>
<path d="M75.3101 19.7001C76.3401 19.1901 77.3601 18.7501 78.3901 18.3301" stroke="#6EBC3B" stroke-width="0.39" stroke-miterlimit="10" stroke-linecap="round"/>
<path d="M82.35 17.76C81.75 16.61 79.94 16.28 79.94 16.28C79.94 16.28 79.12 17.74 79.73 18.84C80.34 19.94 82.15 20.3 82.15 20.3C82.15 20.3 82.34 19.96 82.47 19.47C82.59 18.98 82.65 18.33 82.35 17.76Z" fill="#8FDF5C"/>
<path d="M81.0399 18.3101C80.5099 17.3301 79.9899 16.3401 79.4299 15.3801" stroke="#6EBC3B" stroke-width="0.39" stroke-miterlimit="10" stroke-linecap="round"/>
<path d="M76.4301 13.09C76.9801 12.87 77.6801 12.9 78.2501 13.01C78.8201 13.11 79.2401 13.28 79.2401 13.28C79.2401 13.28 79.2201 13.68 79.0301 14.15C78.8501 14.62 78.5001 15.14 77.9201 15.38C76.7601 15.85 75.1201 15.01 75.1201 15.01C75.1201 15.01 75.1801 14.62 75.3701 14.2C75.5601 13.77 75.8701 13.32 76.4301 13.1V13.09Z" fill="#8FDF5C"/>
<path d="M77.2002 14.2001C78.1902 13.8001 79.1802 13.35 80.1402 12.8" stroke="#6EBC3B" stroke-width="0.39" stroke-miterlimit="10" stroke-linecap="round"/>
<path d="M83.9699 11.3402C83.5599 10.7702 82.8699 10.5502 82.2999 10.4702C81.7299 10.3902 81.2699 10.4302 81.2699 10.4302C81.2699 10.4302 81.1699 10.8502 81.1499 11.3902C81.1299 11.9302 81.1699 12.5902 81.5399 13.1302C81.8999 13.6702 82.5299 14.0002 83.0799 14.1902C83.6299 14.3802 84.0799 14.4102 84.0799 14.4102C84.0799 14.4102 84.2699 13.9602 84.3499 13.3402C84.4299 12.7202 84.3899 11.9202 83.9699 11.3502V11.3402Z" fill="#8FDF5C"/>
<path d="M82.77 12.3002C82.09 11.3302 81.35 10.4302 80.53 9.68018" stroke="#6EBC3B" stroke-width="0.39" stroke-miterlimit="10" stroke-linecap="round"/>
<path d="M76.9501 8.68008C77.4001 8.35008 78.0401 8.12008 78.6101 7.99008C79.1701 7.86008 79.6301 7.83008 79.6301 7.83008C79.6301 7.83008 79.7701 8.19007 79.7601 8.67007C79.7601 9.15007 79.5801 9.74008 79.0901 10.0901C78.5901 10.4401 77.8901 10.4901 77.3201 10.4701C76.7501 10.4501 76.3001 10.3601 76.3001 10.3601C76.3001 10.3601 76.2601 10.0601 76.3101 9.73008C76.3701 9.39008 76.5201 9.00008 76.9501 8.68008Z" fill="#8FDF5C"/>
<path d="M78.04 9.29003C78.85 8.69003 79.61 7.95003 80.24 7.03003" stroke="#6EBC3B" stroke-width="0.39" stroke-miterlimit="10" stroke-linecap="round"/>
<path d="M82.9199 3.96016C81.7099 3.49016 80.1299 4.44016 80.1299 4.44016C80.1299 4.44016 80.2199 4.84016 80.4599 5.31016C80.6999 5.78016 81.0599 6.35016 81.6399 6.72016C82.2099 7.08016 82.9299 7.15016 83.4999 7.11016C84.0699 7.07016 84.5099 6.90016 84.5099 6.90016C84.5099 6.90016 84.4899 6.31016 84.2299 5.59016C83.9799 4.85016 83.5399 4.20016 82.9299 3.96016H82.9199Z" fill="#8FDF5C"/>
<path d="M82.3199 5.34009C81.2499 4.79009 80.1999 4.48009 79.1599 4.09009" stroke="#6EBC3B" stroke-width="0.39" stroke-miterlimit="10" stroke-linecap="round"/>
<path d="M20.5901 39.68C20.2801 36.3 20.4301 32.88 21.0201 29.54C21.3101 27.87 21.6801 26.21 21.7901 24.51C21.9301 22.82 21.7001 21.11 21.2001 19.48C20.7201 17.85 20.0601 16.28 19.5401 14.67C19.0201 13.05 18.6801 11.38 18.5601 9.68998C18.3001 6.30998 18.8401 2.85998 20.1401 -0.27002" stroke="#6EBC3B" stroke-width="0.39" stroke-miterlimit="10"/>
<path d="M16.91 35.0998C17.4 34.4798 18.11 34.2998 18.68 34.2698C19.26 34.2398 19.71 34.3498 19.71 34.3498C19.71 34.3498 19.75 34.9198 19.69 35.6298C19.64 36.3398 19.48 37.1998 19.03 37.8198C18.58 38.4398 17.91 38.6998 17.34 38.7998C16.77 38.8998 16.31 38.8298 16.31 38.8298C16.31 38.8298 16.2 38.2198 16.22 37.4398C16.25 36.6598 16.41 35.7198 16.91 35.0998Z" fill="#8FDF5C"/>
<path d="M17.95 36.5C18.77 35.42 19.6399 34.4 20.5299 33.45" stroke="#6EBC3B" stroke-width="0.39" stroke-miterlimit="10" stroke-linecap="round"/>
<path d="M19.3399 41.86C19.2199 41.02 19.5099 40.21 19.8299 39.63C20.1499 39.05 20.5099 38.7 20.5099 38.7C20.5099 38.7 20.8999 39.01 21.3199 39.5C21.7399 39.99 22.1799 40.66 22.2899 41.43C22.3999 42.21 22.1599 42.97 21.8999 43.56C21.6399 44.15 21.3499 44.55 21.3499 44.55C21.3499 44.55 20.9199 44.31 20.4399 43.85C19.9699 43.39 19.4599 42.69 19.3399 41.85V41.86Z" fill="#8FDF5C"/>
<path d="M20.82 41.6499C20.62 40.2299 20.5 38.8099 20.45 37.3799" stroke="#6EBC3B" stroke-width="0.39" stroke-miterlimit="10" stroke-linecap="round"/>
<path d="M24.3002 31.4199C23.9102 30.8399 23.2502 30.5399 22.7002 30.3899C22.1402 30.2399 21.6802 30.2499 21.6802 30.2499C21.6802 30.2499 21.5202 30.7799 21.4802 31.4699C21.4302 32.1599 21.5202 32.9999 21.9602 33.5899C22.3902 34.1799 23.0802 34.3999 23.6502 34.4799C24.2202 34.5599 24.6802 34.4999 24.6802 34.4999C24.6802 34.4999 24.7702 34.0099 24.7802 33.3899C24.7802 32.7599 24.7102 31.9999 24.3102 31.4199H24.3002Z" fill="#8FDF5C"/>
<path d="M23.1201 32.4599C22.4001 31.4299 21.7201 30.34 21.0901 29.2" stroke="#6EBC3B" stroke-width="0.39" stroke-miterlimit="10" stroke-linecap="round"/>
<path d="M17.94 26.7101C19.05 25.8101 20.8 26.4001 20.8 26.4001C20.8 26.4001 20.79 26.9501 20.62 27.6301C20.45 28.3101 20.13 29.1101 19.57 29.6201C19 30.1301 18.3 30.2501 17.72 30.2201C17.14 30.2001 16.71 30.0401 16.71 30.0401C16.71 30.0401 16.73 29.4101 16.91 28.6801C17.09 27.9501 17.41 27.1601 17.96 26.7101H17.94Z" fill="#8FDF5C"/>
<path d="M18.75 28.1401C19.75 27.2901 20.74 26.5001 21.69 25.6001" stroke="#6EBC3B" stroke-width="0.39" stroke-miterlimit="10" stroke-linecap="round"/>
<path d="M25.3598 22.95C24.8598 22.22 24.1398 22.05 23.5598 22.04C22.9798 22.04 22.5398 22.18 22.5398 22.18C22.5398 22.18 22.5398 22.78 22.5798 23.51C22.6298 24.25 22.7198 25.14 23.1098 25.8C23.4998 26.47 24.1498 26.79 24.7098 26.94C25.2698 27.09 25.7298 27.06 25.7298 27.06C25.7298 27.06 25.8998 26.46 25.9498 25.62C25.9998 24.78 25.8798 23.68 25.3798 22.95H25.3598Z" fill="#8FDF5C"/>
<path d="M24.2899 24.4901C23.5399 23.2801 22.6499 22.1601 21.6499 21.3201" stroke="#6EBC3B" stroke-width="0.39" stroke-miterlimit="10" stroke-linecap="round"/>
<path d="M17.8099 20.4599C18.1299 19.8599 18.7099 19.4499 19.2399 19.2199C19.7699 18.9899 20.2299 18.9299 20.2299 18.9299C20.2299 18.9299 20.4699 19.4199 20.6099 20.0899C20.7499 20.7499 20.7399 21.5899 20.3299 22.1499C19.9199 22.7099 19.2199 22.8999 18.6599 22.9699C18.0899 23.0399 17.6299 22.9999 17.6299 22.9999C17.6299 22.9999 17.5499 22.6599 17.5199 22.1899C17.4999 21.7199 17.4999 21.0699 17.8199 20.4599H17.8099Z" fill="#8FDF5C"/>
<path d="M19.0999 21.2401C19.7199 20.2301 20.2099 19.03 20.6499 17.8" stroke="#6EBC3B" stroke-width="0.39" stroke-miterlimit="10" stroke-linecap="round"/>
<path d="M23.14 14.2599C21.91 13.5699 20.27 14.4099 20.27 14.4099C20.27 14.4099 20.36 14.9499 20.64 15.5899C20.92 16.2299 21.36 16.9599 22.01 17.3599C22.65 17.7599 23.38 17.7499 23.94 17.6299C24.5 17.5099 24.91 17.2699 24.91 17.2699C24.91 17.2699 24.78 16.6499 24.49 15.9799C24.2 15.2999 23.76 14.5999 23.14 14.2599Z" fill="#8FDF5C"/>
<path d="M22.56 15.77C21.44 15.11 20.33 14.49 19.27 13.74" stroke="#6EBC3B" stroke-width="0.39" stroke-miterlimit="10" stroke-linecap="round"/>
<path d="M15.37 12.51C15.72 11.76 16.37 11.45 16.94 11.3C17.5 11.16 17.96 11.19 17.96 11.19C17.96 11.19 18.11 11.75 18.21 12.47C18.31 13.19 18.37 14.08 18.1 14.8C17.57 16.25 15.74 16.49 15.74 16.49C15.74 16.49 15.47 15.93 15.28 15.12C15.1 14.3 15.02 13.26 15.38 12.51H15.37Z" fill="#8FDF5C"/>
<path d="M16.7 13.7299C17.24 12.4299 17.8799 11.2399 18.5999 10.1499" stroke="#6EBC3B" stroke-width="0.39" stroke-miterlimit="10" stroke-linecap="round"/>
<path d="M22.0401 7.67991C21.5901 7.18991 20.9001 6.95992 20.3301 6.87992C19.7601 6.78992 19.3001 6.84991 19.3001 6.84991C19.3001 6.84991 19.1901 7.37992 19.2501 8.05992C19.2901 8.73992 19.5101 9.54992 20.0301 10.0399C20.5601 10.5299 21.2801 10.6099 21.8501 10.5799C22.4201 10.5499 22.8701 10.4099 22.8701 10.4099C22.8701 10.4099 22.8701 9.95992 22.7901 9.39992C22.6901 8.83992 22.5201 8.16991 22.0501 7.67991H22.0401Z" fill="#8FDF5C"/>
<path d="M21.0001 8.79987C20.1401 7.93987 19.3301 6.95987 18.6001 5.86987" stroke="#6EBC3B" stroke-width="0.39" stroke-miterlimit="10" stroke-linecap="round"/>
<path d="M3.43994 39.24C3.82994 35.87 4.67994 32.55 5.94994 29.4C6.57994 27.82 7.27994 26.27 7.73994 24.64C8.22994 23.01 8.34994 21.29 8.18994 19.6C8.04994 17.91 7.72994 16.24 7.55994 14.55C7.37994 12.86 7.39994 11.15 7.61994 9.47004C8.05994 6.11004 9.29994 2.84004 11.2199 0.0400391" stroke="#6EBC3B" stroke-width="0.39" stroke-miterlimit="10"/>
<path d="M0.789942 34.0102C1.39994 33.5002 2.11994 33.4802 2.68994 33.5602C3.25994 33.6502 3.67994 33.8502 3.67994 33.8502C3.67994 33.8502 3.60994 34.4202 3.39994 35.1002C3.19994 35.7902 2.86994 36.6002 2.30994 37.1102C1.73994 37.6202 1.02994 37.7402 0.449942 37.7202C-0.130058 37.7002 -0.560059 37.5402 -0.560059 37.5402C-0.560059 37.5402 -0.54006 36.9202 -0.36006 36.1602C-0.17006 35.4002 0.179942 34.5102 0.789942 34.0102Z" fill="#8FDF5C"/>
<path d="M1.51001 35.5901C2.54001 34.7001 3.59001 33.8801 4.67001 33.1401" stroke="#6EBC3B" stroke-width="0.39" stroke-miterlimit="10" stroke-linecap="round"/>
<path d="M1.78003 41.12C1.83003 40.27 2.28003 39.54 2.72003 39.04C3.15003 38.54 3.57003 38.27 3.57003 38.27C3.57003 38.27 3.88003 38.65 4.20003 39.22C4.51003 39.79 4.80003 40.53 4.75003 41.31C4.70003 42.09 4.31003 42.79 3.93003 43.31C3.56003 43.83 3.19003 44.17 3.19003 44.17C3.19003 44.17 2.82003 43.85 2.44003 43.29C2.08003 42.74 1.72003 41.96 1.78003 41.11V41.12Z" fill="#8FDF5C"/>
<path d="M3.26001 41.22C3.35001 39.79 3.53001 38.37 3.78001 36.96" stroke="#6EBC3B" stroke-width="0.39" stroke-miterlimit="10" stroke-linecap="round"/>
<path d="M8.77004 31.92C8.51004 31.27 7.93004 30.84 7.41004 30.58C6.90004 30.32 6.44003 30.24 6.44003 30.24C6.44003 30.24 6.18004 30.72 6.00004 31.39C5.81004 32.05 5.73003 32.9 6.03003 33.56C6.33003 34.23 6.96004 34.58 7.50004 34.78C8.04004 34.98 8.50004 35.02 8.50004 35.02C8.50004 35.02 8.69004 34.56 8.83004 33.95C8.96004 33.34 9.04003 32.58 8.78003 31.92H8.77004Z" fill="#8FDF5C"/>
<path d="M7.40008 32.7001C6.90008 31.5501 6.46008 30.3401 6.08008 29.0901" stroke="#6EBC3B" stroke-width="0.39" stroke-miterlimit="10" stroke-linecap="round"/>
<path d="M3.50986 26C4.78986 25.35 6.36986 26.29 6.36986 26.29C6.36986 26.29 6.23986 26.82 5.93986 27.45C5.62986 28.08 5.15986 28.8 4.49986 29.18C3.83986 29.56 3.11986 29.53 2.55986 29.39C1.99986 29.25 1.60986 29 1.60986 29C1.60986 29 1.75986 28.38 2.07986 27.71C2.39986 27.03 2.87986 26.33 3.51986 26H3.50986Z" fill="#8FDF5C"/>
<path d="M4.01978 27.5699C5.16978 26.9399 6.30977 26.3699 7.41977 25.6799" stroke="#6EBC3B" stroke-width="0.39" stroke-miterlimit="10" stroke-linecap="round"/>
<path d="M11.55 23.8501C11.21 23.0301 10.54 22.7201 9.97004 22.5901C9.41004 22.4701 8.94004 22.5101 8.94004 22.5101C8.94004 22.5101 8.81004 23.0901 8.70004 23.8201C8.59004 24.5501 8.50004 25.4401 8.74004 26.1701C8.99004 26.9001 9.55004 27.3501 10.07 27.6101C10.58 27.8701 11.04 27.9401 11.04 27.9401C11.04 27.9401 11.33 27.3901 11.55 26.5701C11.77 25.7601 11.88 24.6501 11.54 23.8401L11.55 23.8501Z" fill="#8FDF5C"/>
<path d="M10.18 25.14C9.69 23.8 9.05 22.52 8.25 21.5" stroke="#6EBC3B" stroke-width="0.39" stroke-miterlimit="10" stroke-linecap="round"/>
<path d="M4.66987 19.87C5.09987 19.34 5.75988 19.07 6.32988 18.95C6.88988 18.83 7.35987 18.86 7.35987 18.86C7.35987 18.86 7.49988 19.39 7.48988 20.07C7.48988 20.74 7.30987 21.56 6.78987 22.03C6.27987 22.5 5.54988 22.54 4.98988 22.49C4.41988 22.44 3.97987 22.31 3.97987 22.31C3.97987 22.31 3.96987 21.96 4.02987 21.5C4.09987 21.04 4.24987 20.4 4.67987 19.87H4.66987Z" fill="#8FDF5C"/>
<path d="M5.76978 20.8901C6.58978 20.0301 7.30977 18.9501 7.99977 17.8401" stroke="#6EBC3B" stroke-width="0.39" stroke-miterlimit="10" stroke-linecap="round"/>
<path d="M11.1601 14.88C10.1001 13.95 8.32008 14.44 8.32008 14.44C8.32008 14.44 8.30008 14.99 8.44008 15.67C8.58008 16.35 8.87008 17.16 9.41008 17.68C9.96008 18.2 10.6701 18.35 11.2501 18.34C11.8301 18.34 12.2701 18.19 12.2701 18.19C12.2701 18.19 12.2701 17.56 12.1201 16.84C11.9701 16.12 11.6901 15.34 11.1501 14.87L11.1601 14.88Z" fill="#8FDF5C"/>
<path d="M10.28 16.2501C9.31998 15.3701 8.35998 14.5401 7.47998 13.5901" stroke="#6EBC3B" stroke-width="0.39" stroke-miterlimit="10" stroke-linecap="round"/>
<path d="M3.91002 11.58C4.40002 10.92 5.11002 10.74 5.69002 10.72C6.27002 10.7 6.71002 10.82 6.71002 10.82C6.71002 10.82 6.74002 11.4 6.69002 12.12C6.64002 12.84 6.51002 13.73 6.10002 14.38C5.28002 15.69 3.44002 15.55 3.44002 15.55C3.44002 15.55 3.29002 14.95 3.27002 14.11C3.27002 13.27 3.40002 12.24 3.90002 11.58H3.91002Z" fill="#8FDF5C"/>
<path d="M4.96997 13.0499C5.75997 11.8899 6.63997 10.8499 7.56997 9.93994" stroke="#6EBC3B" stroke-width="0.39" stroke-miterlimit="10" stroke-linecap="round"/>
<path d="M11.43 8.22009C11.09 7.64009 10.46 7.29009 9.92004 7.08009C9.38004 6.88009 8.92004 6.84009 8.92004 6.84009C8.92004 6.84009 8.71004 7.34009 8.62004 8.02009C8.52004 8.69009 8.57004 9.53009 8.98004 10.1201C9.39004 10.7101 10.08 10.9301 10.65 11.0201C11.22 11.1101 11.68 11.0701 11.68 11.0701C11.68 11.0701 11.77 10.6301 11.8 10.0701C11.82 9.50009 11.79 8.81009 11.43 8.23009V8.22009Z" fill="#8FDF5C"/>
<path d="M10.1899 9.09999C9.51995 8.07999 8.92995 6.94999 8.44995 5.73999" stroke="#6EBC3B" stroke-width="0.39" stroke-miterlimit="10" stroke-linecap="round"/>
<path d="M31.4299 39.48C31.8199 36.11 32.6699 32.79 33.9399 29.64C34.5699 28.06 35.2699 26.51 35.7299 24.88C36.2199 23.25 36.3399 21.53 36.1799 19.84C36.0399 18.15 35.7199 16.48 35.5499 14.79C35.3699 13.1 35.3899 11.39 35.6099 9.71003C36.0499 6.35003 37.2899 3.08003 39.2099 0.280029" stroke="#6EBC3B" stroke-width="0.39" stroke-miterlimit="10"/>
<path d="M28.7799 34.2502C29.3899 33.7402 30.1099 33.7202 30.6799 33.8002C31.2499 33.8902 31.6699 34.0902 31.6699 34.0902C31.6699 34.0902 31.5999 34.6602 31.3899 35.3402C31.1899 36.0302 30.8599 36.8402 30.2999 37.3502C29.7299 37.8602 29.0199 37.9802 28.4399 37.9602C27.8599 37.9402 27.4299 37.7802 27.4299 37.7802C27.4299 37.7802 27.4499 37.1602 27.6299 36.4002C27.8199 35.6402 28.1699 34.7502 28.7799 34.2502Z" fill="#8FDF5C"/>
<path d="M29.5 35.8301C30.53 34.9401 31.58 34.1201 32.66 33.3801" stroke="#6EBC3B" stroke-width="0.39" stroke-miterlimit="10" stroke-linecap="round"/>
<path d="M29.77 41.37C29.82 40.52 30.27 39.79 30.71 39.29C31.14 38.79 31.56 38.52 31.56 38.52C31.56 38.52 31.87 38.9 32.19 39.47C32.5 40.04 32.79 40.78 32.74 41.56C32.69 42.34 32.3 43.04 31.92 43.56C31.55 44.08 31.18 44.42 31.18 44.42C31.18 44.42 30.81 44.1 30.43 43.54C30.07 42.99 29.71 42.21 29.77 41.36V41.37Z" fill="#8FDF5C"/>
<path d="M31.25 41.4599C31.34 40.0299 31.52 38.61 31.77 37.2" stroke="#6EBC3B" stroke-width="0.39" stroke-miterlimit="10" stroke-linecap="round"/>
<path d="M36.77 32.16C36.51 31.51 35.93 31.08 35.41 30.82C34.9 30.56 34.44 30.48 34.44 30.48C34.44 30.48 34.18 30.96 34 31.63C33.81 32.29 33.73 33.14 34.03 33.8C34.33 34.47 34.96 34.82 35.5 35.02C36.04 35.22 36.5 35.26 36.5 35.26C36.5 35.26 36.69 34.8 36.83 34.19C36.96 33.58 37.04 32.82 36.78 32.16H36.77Z" fill="#8FDF5C"/>
<path d="M35.3901 32.9401C34.8901 31.7901 34.4501 30.5801 34.0701 29.3301" stroke="#6EBC3B" stroke-width="0.39" stroke-miterlimit="10" stroke-linecap="round"/>
<path d="M31.5099 26.25C32.7899 25.6 34.3699 26.54 34.3699 26.54C34.3699 26.54 34.2399 27.07 33.9399 27.7C33.6299 28.33 33.1599 29.05 32.4999 29.43C31.8399 29.81 31.1199 29.78 30.5599 29.64C29.9999 29.5 29.6099 29.25 29.6099 29.25C29.6099 29.25 29.7599 28.63 30.0799 27.96C30.3999 27.28 30.8799 26.58 31.5199 26.25H31.5099Z" fill="#8FDF5C"/>
<path d="M32.0098 27.8099C33.1598 27.1799 34.2998 26.6099 35.4098 25.9199" stroke="#6EBC3B" stroke-width="0.39" stroke-miterlimit="10" stroke-linecap="round"/>
<path d="M39.54 24.0901C39.2 23.2701 38.53 22.9601 37.96 22.8301C37.4 22.7101 36.93 22.7501 36.93 22.7501C36.93 22.7501 36.8 23.3301 36.69 24.0601C36.58 24.7901 36.49 25.6801 36.73 26.4101C36.98 27.1401 37.54 27.5901 38.06 27.8501C38.57 28.1101 39.03 28.1801 39.03 28.1801C39.03 28.1801 39.32 27.6301 39.54 26.8101C39.76 26.0001 39.87 24.8901 39.53 24.0801L39.54 24.0901Z" fill="#8FDF5C"/>
<path d="M38.17 25.38C37.68 24.04 37.04 22.76 36.24 21.74" stroke="#6EBC3B" stroke-width="0.39" stroke-miterlimit="10" stroke-linecap="round"/>
<path d="M32.6599 20.11C33.0899 19.58 33.7499 19.31 34.3199 19.19C34.8799 19.07 35.3499 19.1 35.3499 19.1C35.3499 19.1 35.4899 19.63 35.4799 20.31C35.4799 20.98 35.2999 21.8 34.7799 22.27C34.2699 22.74 33.5399 22.78 32.9799 22.73C32.4099 22.68 31.9699 22.55 31.9699 22.55C31.9699 22.55 31.9599 22.2 32.0199 21.74C32.0899 21.28 32.2399 20.64 32.6699 20.11H32.6599Z" fill="#8FDF5C"/>
<path d="M33.7598 21.1401C34.5798 20.2801 35.2998 19.2001 35.9898 18.0901" stroke="#6EBC3B" stroke-width="0.39" stroke-miterlimit="10" stroke-linecap="round"/>
<path d="M39.1501 15.13C38.0901 14.2 36.3101 14.69 36.3101 14.69C36.3101 14.69 36.2901 15.24 36.4301 15.92C36.5701 16.6 36.8601 17.41 37.4001 17.93C37.9501 18.45 38.6601 18.6 39.2401 18.59C39.8201 18.59 40.2601 18.44 40.2601 18.44C40.2601 18.44 40.2601 17.81 40.1101 17.09C39.9601 16.37 39.6801 15.59 39.1401 15.13H39.1501Z" fill="#8FDF5C"/>
<path d="M38.27 16.5001C37.31 15.6201 36.35 14.7901 35.47 13.8401" stroke="#6EBC3B" stroke-width="0.39" stroke-miterlimit="10" stroke-linecap="round"/>
<path d="M31.9 11.82C32.39 11.16 33.1 10.98 33.68 10.96C34.26 10.94 34.7 11.06 34.7 11.06C34.7 11.06 34.73 11.64 34.68 12.36C34.63 13.08 34.5 13.97 34.09 14.62C33.27 15.93 31.43 15.79 31.43 15.79C31.43 15.79 31.28 15.19 31.26 14.35C31.26 13.51 31.39 12.48 31.89 11.82H31.9Z" fill="#8FDF5C"/>
<path d="M32.96 13.2899C33.75 12.1299 34.63 11.0899 35.56 10.1799" stroke="#6EBC3B" stroke-width="0.39" stroke-miterlimit="10" stroke-linecap="round"/>
<path d="M39.42 8.46008C39.08 7.88008 38.45 7.53008 37.91 7.32008C37.37 7.12008 36.91 7.08008 36.91 7.08008C36.91 7.08008 36.7 7.58008 36.61 8.26008C36.51 8.93008 36.56 9.77008 36.97 10.3601C37.38 10.9501 38.07 11.1701 38.64 11.2601C39.21 11.3501 39.67 11.3101 39.67 11.3101C39.67 11.3101 39.76 10.8701 39.79 10.3101C39.81 9.74008 39.78 9.05008 39.42 8.47008V8.46008Z" fill="#8FDF5C"/>
<path d="M38.1799 9.34999C37.5099 8.32999 36.9199 7.19999 36.4399 5.98999" stroke="#6EBC3B" stroke-width="0.39" stroke-miterlimit="10" stroke-linecap="round"/>
<path d="M56.3398 39.24C56.7298 35.87 57.5798 32.55 58.8498 29.4C59.4798 27.82 60.1798 26.27 60.6398 24.64C61.1298 23.01 61.2498 21.29 61.0898 19.6C60.9498 17.91 60.6298 16.24 60.4598 14.55C60.2798 12.86 60.2998 11.15 60.5198 9.47004C60.9598 6.11004 62.1999 2.84004 64.1199 0.0400391" stroke="#6EBC3B" stroke-width="0.39" stroke-miterlimit="10"/>
<path d="M53.6898 34.0102C54.2998 33.5002 55.0198 33.4802 55.5898 33.5602C56.1598 33.6502 56.5798 33.8502 56.5798 33.8502C56.5798 33.8502 56.5099 34.4202 56.2999 35.1002C56.0999 35.7902 55.7698 36.6002 55.2098 37.1102C54.6398 37.6202 53.9298 37.7402 53.3498 37.7202C52.7698 37.7002 52.3398 37.5402 52.3398 37.5402C52.3398 37.5402 52.3598 36.9202 52.5398 36.1602C52.7298 35.4002 53.0798 34.5102 53.6898 34.0102Z" fill="#8FDF5C"/>
<path d="M54.4099 35.5901C55.4399 34.7001 56.4899 33.8801 57.5699 33.1401" stroke="#6EBC3B" stroke-width="0.39" stroke-miterlimit="10" stroke-linecap="round"/>
<path d="M54.6799 41.12C54.7299 40.27 55.1799 39.54 55.6199 39.04C56.0499 38.54 56.4699 38.27 56.4699 38.27C56.4699 38.27 56.7799 38.65 57.0999 39.22C57.4099 39.79 57.6999 40.53 57.6499 41.31C57.5999 42.09 57.2099 42.79 56.8299 43.31C56.4599 43.83 56.0899 44.17 56.0899 44.17C56.0899 44.17 55.7199 43.85 55.3399 43.29C54.9799 42.74 54.6199 41.96 54.6799 41.11V41.12Z" fill="#8FDF5C"/>
<path d="M56.1599 41.22C56.2499 39.79 56.4299 38.37 56.6799 36.96" stroke="#6EBC3B" stroke-width="0.39" stroke-miterlimit="10" stroke-linecap="round"/>
<path d="M61.6699 31.92C61.4099 31.27 60.8299 30.84 60.3099 30.58C59.7999 30.32 59.3399 30.24 59.3399 30.24C59.3399 30.24 59.0799 30.72 58.8999 31.39C58.7099 32.05 58.6299 32.9 58.9299 33.56C59.2299 34.23 59.8599 34.58 60.3999 34.78C60.9399 34.98 61.3999 35.02 61.3999 35.02C61.3999 35.02 61.5899 34.56 61.7299 33.95C61.8599 33.34 61.9399 32.58 61.6799 31.92H61.6699Z" fill="#8FDF5C"/>
<path d="M60.3 32.7001C59.8 31.5501 59.36 30.3401 58.98 29.0901" stroke="#6EBC3B" stroke-width="0.39" stroke-miterlimit="10" stroke-linecap="round"/>
<path d="M56.4198 26C57.6998 25.35 59.2798 26.29 59.2798 26.29C59.2798 26.29 59.1498 26.82 58.8498 27.45C58.5398 28.08 58.0698 28.8 57.4098 29.18C56.7498 29.56 56.0298 29.53 55.4698 29.39C54.9098 29.25 54.5198 29 54.5198 29C54.5198 29 54.6698 28.38 54.9898 27.71C55.3098 27.03 55.7898 26.33 56.4298 26H56.4198Z" fill="#8FDF5C"/>
<path d="M56.9197 27.5699C58.0697 26.9399 59.2097 26.3699 60.3197 25.6799" stroke="#6EBC3B" stroke-width="0.39" stroke-miterlimit="10" stroke-linecap="round"/>
<path d="M64.4499 23.8501C64.1099 23.0301 63.4399 22.7201 62.8699 22.5901C62.3099 22.4701 61.8399 22.5101 61.8399 22.5101C61.8399 22.5101 61.7099 23.0901 61.5999 23.8201C61.4899 24.5501 61.3999 25.4401 61.6399 26.1701C61.8899 26.9001 62.4499 27.3501 62.9699 27.6101C63.4799 27.8701 63.9399 27.9401 63.9399 27.9401C63.9399 27.9401 64.2299 27.3901 64.4499 26.5701C64.6699 25.7601 64.7799 24.6501 64.4399 23.8401L64.4499 23.8501Z" fill="#8FDF5C"/>
<path d="M63.0799 25.14C62.5899 23.8 61.9499 22.52 61.1499 21.5" stroke="#6EBC3B" stroke-width="0.39" stroke-miterlimit="10" stroke-linecap="round"/>
<path d="M57.5698 19.87C57.9998 19.34 58.6598 19.07 59.2298 18.95C59.7898 18.83 60.2598 18.86 60.2598 18.86C60.2598 18.86 60.3998 19.39 60.3898 20.07C60.3898 20.74 60.2098 21.56 59.6898 22.03C59.1798 22.5 58.4498 22.54 57.8898 22.49C57.3198 22.44 56.8798 22.31 56.8798 22.31C56.8798 22.31 56.8698 21.96 56.9298 21.5C56.9998 21.04 57.1498 20.4 57.5798 19.87H57.5698Z" fill="#8FDF5C"/>
<path d="M58.6697 20.8901C59.4897 20.0301 60.2097 18.9501 60.8997 17.8401" stroke="#6EBC3B" stroke-width="0.39" stroke-miterlimit="10" stroke-linecap="round"/>
<path d="M64.06 14.88C63 13.95 61.22 14.44 61.22 14.44C61.22 14.44 61.2 14.99 61.34 15.67C61.48 16.35 61.77 17.16 62.31 17.68C62.86 18.2 63.57 18.35 64.15 18.34C64.73 18.34 65.17 18.19 65.17 18.19C65.17 18.19 65.17 17.56 65.02 16.84C64.87 16.12 64.59 15.34 64.05 14.88H64.06Z" fill="#8FDF5C"/>
<path d="M63.1799 16.2501C62.2199 15.3701 61.2599 14.5401 60.3799 13.5901" stroke="#6EBC3B" stroke-width="0.39" stroke-miterlimit="10" stroke-linecap="round"/>
<path d="M56.8099 11.58C57.2999 10.92 58.0099 10.74 58.5899 10.72C59.1699 10.7 59.6099 10.82 59.6099 10.82C59.6099 10.82 59.6399 11.4 59.5899 12.12C59.5399 12.84 59.4099 13.73 58.9999 14.38C58.1799 15.69 56.3399 15.55 56.3399 15.55C56.3399 15.55 56.1899 14.95 56.1699 14.11C56.1699 13.27 56.2999 12.24 56.7999 11.58H56.8099Z" fill="#8FDF5C"/>
<path d="M57.8699 13.0499C58.6599 11.8899 59.5399 10.8499 60.4699 9.93994" stroke="#6EBC3B" stroke-width="0.39" stroke-miterlimit="10" stroke-linecap="round"/>
<path d="M64.3299 8.22009C63.9899 7.64009 63.3599 7.29009 62.8199 7.08009C62.2799 6.88009 61.8199 6.84009 61.8199 6.84009C61.8199 6.84009 61.6099 7.34009 61.5199 8.02009C61.4199 8.69009 61.4699 9.53009 61.8799 10.1201C62.2899 10.7101 62.9799 10.9301 63.5499 11.0201C64.1199 11.1101 64.5799 11.0701 64.5799 11.0701C64.5799 11.0701 64.6699 10.6301 64.6999 10.0701C64.7199 9.50009 64.6899 8.81009 64.3299 8.23009V8.22009Z" fill="#8FDF5C"/>
<path d="M63.0899 9.09999C62.4199 8.07999 61.8299 6.94999 61.3499 5.73999" stroke="#6EBC3B" stroke-width="0.39" stroke-miterlimit="10" stroke-linecap="round"/>
<path d="M0.419962 42.6597C0.00996184 41.8997 -0.700038 41.6597 -1.26004 41.5797C-1.83004 41.4997 -2.29004 41.5797 -2.29004 41.5797C-2.29004 41.5797 -2.37004 42.1697 -2.40004 42.9297C-2.44004 43.6897 -2.43004 44.6097 -2.15004 45.3697C-1.86004 46.1297 -1.31004 46.5897 -0.780039 46.8497C-0.260039 47.1097 0.209961 47.1397 0.209961 47.1397C0.209961 47.1397 0.539963 46.4297 0.699963 45.4897C0.859963 44.5597 0.859962 43.4097 0.429962 42.6597H0.419962Z" fill="#8FDF5C"/>
<path d="M-0.400272 33.6C-1.57027 32.59 -3.28027 33.31 -3.28027 33.31C-3.28027 33.31 -3.11027 35.6 -2.00027 36.67C-1.44027 37.21 -0.730272 37.34 -0.150272 37.33C0.429728 37.33 0.869728 37.16 0.869728 37.16C0.869728 37.16 0.859728 36.51 0.689728 35.74C0.519728 34.98 0.189728 34.09 -0.400272 33.59V33.6Z" fill="#8FDF5C"/>
<path d="M50.1002 29.47C49.0502 27.16 47.5502 25.1 46.1902 22.97C44.8302 20.85 43.5102 18.63 42.9302 16.16C42.3202 13.69 42.4002 11.11 42.7902 8.62C43.1802 6.12 43.8802 3.68 44.6002 1.25" stroke="#6EBC3B" stroke-width="0.39" stroke-miterlimit="10"/>
<path d="M45.5 28.3899C45.88 27.2099 47.54 26.4299 47.54 26.4299C47.54 26.4299 47.82 26.7399 48.05 27.1999C48.27 27.6599 48.45 28.2799 48.21 28.8699C47.99 29.4499 47.43 29.8799 46.94 30.1699C46.44 30.4599 46.01 30.6199 46.01 30.6199C46.01 30.6199 45.13 29.5699 45.5 28.3899Z" fill="#8FDF5C"/>
<path d="M46.8501 28.6099C47.2201 27.5899 47.5201 26.5199 47.8001 25.4399" stroke="#6EBC3B" stroke-width="0.39" stroke-miterlimit="10" stroke-linecap="round"/>
<path d="M49.26 31.3401C49.06 30.8301 49.23 30.2201 49.39 29.7101C49.56 29.2101 49.79 28.8101 49.79 28.8101C49.79 28.8101 50.23 28.8601 50.74 29.0801C51.27 29.2901 51.82 29.7101 52.06 30.3401C52.27 30.9901 52.1 31.6701 51.81 32.1701C51.54 32.6701 51.22 32.9701 51.22 32.9701C51.22 32.9701 50.8 32.7901 50.35 32.5001C49.92 32.2101 49.4 31.8501 49.24 31.3301L49.26 31.3401Z" fill="#8FDF5C"/>
<path d="M50.6701 30.8399C50.3001 29.8399 49.8601 28.8699 49.3301 27.9399" stroke="#6EBC3B" stroke-width="0.39" stroke-miterlimit="10" stroke-linecap="round"/>
<path d="M49.7201 21.9C48.4701 21.72 47.0801 22.92 47.0801 22.92C47.0801 22.92 47.7501 24.45 49.0201 24.67C50.2901 24.89 51.6901 23.7 51.6901 23.7C51.6901 23.7 51.5101 23.29 51.1801 22.86C50.8401 22.42 50.3601 22 49.7201 21.9Z" fill="#8FDF5C"/>
<path d="M49.37 23.29L46.05 22.76" stroke="#6EBC3B" stroke-width="0.39" stroke-miterlimit="10" stroke-linecap="round"/>
<path d="M42.2701 23.3699C42.6001 22.0699 44.3301 21.4099 44.3301 21.4099C44.3301 21.4099 44.6101 21.7399 44.8401 22.2199C45.0801 22.6899 45.2801 23.3299 45.1301 23.9499C44.8201 25.1999 43.1501 25.9799 43.1501 25.9799C43.1501 25.9799 42.8501 25.6599 42.6001 25.1799C42.3401 24.6799 42.1101 24.0299 42.2801 23.3699H42.2701Z" fill="#8FDF5C"/>
<path d="M43.7002 23.6899C43.9802 22.5899 44.2702 21.4799 44.6502 20.4199" stroke="#6EBC3B" stroke-width="0.39" stroke-miterlimit="10" stroke-linecap="round"/>
<path d="M47.04 17.3C46.48 17.17 45.78 17.3 45.23 17.48C44.68 17.66 44.28 17.88 44.28 17.88C44.28 17.88 44.36 18.28 44.61 18.72C44.87 19.15 45.29 19.63 45.91 19.76C47.13 20.01 48.58 18.88 48.58 18.88C48.58 18.88 48.47 18.54 48.22 18.17C47.97 17.81 47.61 17.43 47.03 17.31L47.04 17.3Z" fill="#8FDF5C"/>
<path d="M46.4401 18.49C45.4001 18.26 44.3601 17.96 43.3301 17.52" stroke="#6EBC3B" stroke-width="0.39" stroke-miterlimit="10" stroke-linecap="round"/>
<path d="M39.49 16.9802C39.81 16.3502 40.48 16.0402 41.03 15.8802C41.58 15.7202 42.04 15.7002 42.04 15.7002C42.04 15.7002 42.07 15.8102 42.12 15.9802C42.18 16.1502 42.24 16.3902 42.29 16.6602C42.38 17.2002 42.45 17.8802 42.17 18.4902C41.91 19.0902 41.34 19.5302 40.83 19.8002C40.32 20.0702 39.87 20.1802 39.87 20.1802C39.87 20.1802 39.59 19.7402 39.41 19.1002C39.23 18.4502 39.14 17.6302 39.49 16.9902V16.9802Z" fill="#8FDF5C"/>
<path d="M40.8101 17.8101C41.3201 16.7201 41.9701 15.7301 42.6601 14.8701" stroke="#6EBC3B" stroke-width="0.39" stroke-miterlimit="10" stroke-linecap="round"/>
<path d="M46.02 12.85C45.54 12.52 44.85 12.39 44.28 12.35C43.71 12.31 43.25 12.38 43.25 12.38C43.25 12.38 43.16 12.78 43.25 13.28C43.31 13.78 43.56 14.36 44.08 14.68C44.62 14.99 45.32 14.98 45.89 14.9C46.46 14.82 46.9 14.68 46.9 14.68C46.9 14.68 46.9 14.38 46.81 14C46.71 13.63 46.52 13.17 46.02 12.85Z" fill="#8FDF5C"/>
<path d="M45.02 13.7099C44.14 13.1499 43.29 12.4599 42.48 11.6799" stroke="#6EBC3B" stroke-width="0.39" stroke-miterlimit="10" stroke-linecap="round"/>
<path d="M39.0601 9.92001C39.5701 9.47001 40.2901 9.40001 40.8601 9.42001C41.4401 9.44001 41.8801 9.56001 41.8801 9.56001C41.8801 9.56001 41.9001 9.99001 41.8101 10.52C41.7101 11.05 41.5301 11.69 41.0501 12.15C40.5801 12.61 39.8901 12.8 39.3201 12.87C38.7501 12.94 38.2901 12.87 38.2901 12.87C38.2901 12.87 38.2101 12.36 38.2601 11.73C38.3201 11.1 38.5301 10.36 39.0601 9.91001V9.92001Z" fill="#8FDF5C"/>
<path d="M40.03 11.08C40.9 10.28 41.81 9.58996 42.73 8.95996" stroke="#6EBC3B" stroke-width="0.39" stroke-miterlimit="10" stroke-linecap="round"/>
<path d="M46.5201 7.80017C45.7601 6.83017 43.9301 6.67017 43.9301 6.67017C43.9301 6.67017 43.7601 7.05017 43.7201 7.57017C43.6601 8.08017 43.7301 8.72016 44.1401 9.19016C44.5601 9.66016 45.2301 9.88017 45.7901 9.98017C46.3501 10.0902 46.8101 10.0802 46.8101 10.0802C46.8101 10.0802 47.2801 8.75017 46.5201 7.80017Z" fill="#8FDF5C"/>
<path d="M45.3201 8.47007C44.6301 7.64007 43.9701 6.75007 43.3401 5.82007" stroke="#6EBC3B" stroke-width="0.39" stroke-miterlimit="10" stroke-linecap="round"/>
<path d="M1.70007 3.79031C1.29007 2.94031 0.610075 2.6503 0.0400745 2.5503C-0.529926 2.4503 -0.989926 2.5503 -0.989926 2.5503C-0.989926 2.5503 -1.00993 2.7203 -1.04993 2.9803C-1.06993 3.2503 -1.10993 3.62031 -1.14993 4.04031C-1.18993 4.88031 -1.27993 5.90031 -1.02993 6.72031C-0.779927 7.55031 -0.239926 8.0303 0.280074 8.3003C0.790074 8.5703 1.26007 8.61031 1.26007 8.61031C1.26007 8.61031 1.61007 7.90031 1.82007 6.90031C1.93007 6.41031 1.99007 5.83031 2.00007 5.29031C1.97007 4.74031 1.89007 4.2103 1.71007 3.7803L1.70007 3.79031Z" fill="#8FDF5C"/>
<path d="M0.390009 5.38019C-0.169991 3.89019 -0.87999 2.58019 -1.73999 1.44019" stroke="#6EBC3B" stroke-width="0.39" stroke-miterlimit="10" stroke-linecap="round"/>
<path d="M15.0099 74.5101C14.3499 71.6301 14.3599 68.6101 14.9799 65.7201C15.5999 62.8201 17.0399 60.1901 18.2299 57.5001C18.8199 56.1501 19.3599 54.7701 19.6799 53.3201C20.0099 51.8801 20.0699 50.3901 20.0299 48.9201C19.9699 45.9901 19.5599 42.9701 20.5099 40.1301" stroke="#6EBC3B" stroke-width="0.39" stroke-miterlimit="10"/>
<path d="M10.9899 70.7502C11.4399 70.1502 12.1499 69.9602 12.7199 69.9102C13.2899 69.8602 13.7499 69.9402 13.7499 69.9402C13.7499 69.9402 13.8099 70.4402 13.7999 71.0702C13.7799 71.7002 13.6899 72.4702 13.2999 73.0702C12.8999 73.6702 12.2699 73.9902 11.7099 74.1402C11.1599 74.3002 10.6899 74.2902 10.6899 74.2902C10.6899 74.2902 10.5099 73.7302 10.4699 72.9902C10.4299 72.2502 10.5299 71.3502 10.9899 70.7502Z" fill="#8FDF5C"/>
<path d="M12.1199 71.9701C12.8599 70.9201 13.6799 69.9701 14.5399 69.1301" stroke="#6EBC3B" stroke-width="0.39" stroke-miterlimit="10" stroke-linecap="round"/>
<path d="M14.04 76.6299C13.81 75.8999 14 75.1299 14.26 74.5799C14.51 74.0299 14.84 73.6799 14.84 73.6799C14.84 73.6799 15.24 73.8999 15.71 74.2599C16.17 74.6199 16.67 75.1099 16.87 75.7299C17.07 76.3499 16.93 77.0399 16.77 77.5999C16.61 78.1499 16.39 78.5799 16.39 78.5799C16.39 78.5799 15.94 78.4799 15.4 78.1799C14.87 77.8799 14.27 77.3599 14.04 76.6299Z" fill="#8FDF5C"/>
<path d="M15.4599 76.18C15.0799 74.99 14.8199 73.77 14.6699 72.54" stroke="#6EBC3B" stroke-width="0.39" stroke-miterlimit="10" stroke-linecap="round"/>
<path d="M18.26 67.4801C17.85 67.0001 17.22 66.7101 16.66 66.5601C16.11 66.4001 15.65 66.3901 15.65 66.3901C15.65 66.3901 15.48 66.8301 15.45 67.4201C15.41 68.0101 15.52 68.7301 15.97 69.2201C16.41 69.7101 17.12 69.8601 17.69 69.9101C18.26 69.9601 18.72 69.9001 18.72 69.9001C18.72 69.9001 18.79 69.5201 18.78 69.0301C18.76 68.5401 18.66 67.9601 18.26 67.4701V67.4801Z" fill="#8FDF5C"/>
<path d="M17.09 68.2902C16.34 67.4402 15.66 66.4902 15.05 65.4402" stroke="#6EBC3B" stroke-width="0.39" stroke-miterlimit="10" stroke-linecap="round"/>
<path d="M12.1499 62.7301C12.7899 62.3301 13.4999 62.3801 14.0599 62.5301C14.6199 62.6801 15.0199 62.9101 15.0199 62.9101C15.0199 62.9101 14.9099 63.4001 14.6899 63.9901C14.4599 64.5801 14.1099 65.2801 13.5399 65.7101C12.9699 66.1401 12.2499 66.2301 11.6799 66.1901C11.1099 66.1501 10.6699 65.9901 10.6699 65.9901C10.6699 65.9901 10.6999 65.4001 10.8999 64.6801C11.1099 63.9701 11.5199 63.1401 12.1499 62.7301Z" fill="#8FDF5C"/>
<path d="M12.79 64.2702C13.85 63.5202 14.93 62.9202 16.03 62.4102" stroke="#6EBC3B" stroke-width="0.39" stroke-miterlimit="10" stroke-linecap="round"/>
<path d="M20.1199 61.8601C19.6699 60.5701 17.8999 60.0701 17.8999 60.0701C17.8999 60.0701 16.8099 61.7201 17.3399 62.9701C17.6099 63.5901 18.1999 63.9801 18.7199 64.2101C19.2399 64.4501 19.6899 64.5501 19.6899 64.5501C19.6899 64.5501 19.8899 64.2101 20.0599 63.6901C20.2099 63.1801 20.3499 62.4901 20.1199 61.8601Z" fill="#8FDF5C"/>
<path d="M18.7298 62.4C18.2998 61.31 17.9298 60.16 17.5498 59.01" stroke="#6EBC3B" stroke-width="0.39" stroke-miterlimit="10" stroke-linecap="round"/>
<path d="M15.0099 56.06C16.2399 55.59 17.81 56.54 17.81 56.54C17.81 56.54 17.69 57 17.4 57.54C17.11 58.07 16.6499 58.66 16.0099 58.92C14.7199 59.44 13.2 58.4 13.2 58.4C13.2 58.4 13.35 57.91 13.65 57.39C13.95 56.86 14.3899 56.3 15.0099 56.06Z" fill="#8FDF5C"/>
<path d="M15.53 57.4701C16.64 57.0401 17.74 56.6101 18.83 56.0901" stroke="#6EBC3B" stroke-width="0.39" stroke-miterlimit="10" stroke-linecap="round"/>
<path d="M22.9399 54.9102C22.6399 54.1902 21.9999 53.8402 21.4599 53.6702C20.9099 53.4902 20.4499 53.4702 20.4499 53.4702C20.4499 53.4702 20.2799 53.9502 20.1399 54.5702C20.0099 55.2002 19.9099 55.9602 20.1599 56.6302C20.3999 57.2902 20.9699 57.7402 21.4799 58.0102C21.9899 58.2802 22.4399 58.3802 22.4399 58.3802C22.4399 58.3802 22.7199 57.9102 22.9199 57.2202C23.1299 56.5502 23.2499 55.6202 22.9499 54.9102H22.9399Z" fill="#8FDF5C"/>
<path d="M21.5499 55.8502C21.0799 54.6502 20.5299 53.5102 19.8499 52.5002" stroke="#6EBC3B" stroke-width="0.39" stroke-miterlimit="10" stroke-linecap="round"/>
<path d="M16.5 50.6601C16.99 50.2701 17.68 50.1201 18.26 50.0901C18.84 50.0501 19.29 50.1301 19.29 50.1301C19.29 50.1301 19.36 50.6001 19.26 51.1801C19.18 51.7601 18.9 52.4301 18.35 52.7801C17.79 53.1301 17.08 53.0901 16.52 52.9901C15.96 52.8801 15.53 52.7201 15.53 52.7201C15.53 52.7201 15.56 52.3601 15.67 51.9501C15.8 51.5501 16 51.0501 16.5 50.6601Z" fill="#8FDF5C"/>
<path d="M17.46 51.6601C18.37 51.0401 19.24 50.2201 20.05 49.3301" stroke="#6EBC3B" stroke-width="0.39" stroke-miterlimit="10" stroke-linecap="round"/>
<path d="M23.5099 46.97C22.5199 46.02 20.7199 46.39 20.7199 46.39C20.7199 46.39 20.5299 48.31 21.4899 49.35C21.9599 49.87 22.6499 50.08 23.2299 50.15C23.7999 50.22 24.2599 50.14 24.2599 50.14C24.2599 50.14 24.3399 49.57 24.2799 48.9C24.2199 48.21 24.0199 47.47 23.5299 46.98L23.5099 46.97Z" fill="#8FDF5C"/>
<path d="M22.5099 48.1501C21.6499 47.2701 20.7799 46.4601 19.9199 45.6001" stroke="#6EBC3B" stroke-width="0.39" stroke-miterlimit="10" stroke-linecap="round"/>
</svg>
