<svg width="105" height="161" viewBox="0 0 105 161" fill="none" xmlns="http://www.w3.org/2000/svg">
<path d="M89.3001 125.25L86.5201 152.75L86.3601 154.32C86.1501 156.44 85.1901 158.11 83.9401 158.57C82.5701 159.08 80.3601 159.54 76.8901 159.54C72.3001 159.54 68.9601 158.73 66.9901 158.08C65.7501 157.66 64.7901 156.05 64.5301 153.96L62.4901 137.12L61.0601 125.26H89.2901L89.3001 125.25Z" fill="#F49801"/>
<path d="M89.3001 125.26C89.3001 126.25 82.9801 127.04 75.1901 127.04C67.4001 127.04 61.0801 126.24 61.0801 125.26C61.0801 124.28 67.4001 123.48 75.1901 123.48C82.9801 123.48 89.3001 124.28 89.3001 125.26Z" fill="#F26903"/>
<mask id="mask0_1091_18704" style="mask-type:luminance" maskUnits="userSpaceOnUse" x="45" y="66" width="60" height="62">
<path d="M89.3001 125.26C89.3001 126.25 82.9801 127.04 75.1901 127.04C67.4001 127.04 61.0801 126.24 61.0801 125.26C61.0801 124.28 18.4901 66.5898 75.1901 66.5898C131.89 66.5898 89.3001 124.28 89.3001 125.26Z" fill="white"/>
</mask>
<g mask="url(#mask0_1091_18704)">
<path d="M71.92 118.56C71.92 118.75 71.92 118.93 71.91 119.12C71.82 121.47 71.58 123.88 70.74 126.04C70.47 126.75 70.13 127.43 69.71 128.08C67.11 132.05 63.22 124.89 60.61 118.32C59.09 114.5 58 110.89 57.84 109.76C57.29 105.83 57.21 101.86 57.23 97.8998C57.25 94.0598 56.71 90.1398 56.9 86.3298C57 84.2798 57.57 82.2898 58.13 80.3298C58.96 81.0998 59.79 81.8698 60.62 82.6498C63.84 85.6498 65.95 89.9398 67.55 94.2498C68.14 95.8298 68.66 97.4198 69.14 98.9398C69.83 101.13 70.4 103.36 70.84 105.61C71.67 109.88 72.04 114.23 71.92 118.58V118.56Z" fill="#8FDF5C"/>
<g style="mix-blend-mode:multiply" opacity="0.22">
<path d="M71.9201 118.56C70.9301 120.74 69.9801 122.86 70.6001 125.26C70.6701 125.51 70.7101 125.77 70.7301 126.04C70.4601 126.75 70.1201 127.43 69.7001 128.08C67.1001 132.05 63.2101 124.89 60.6001 118.32C61.6401 117.4 62.4901 116.69 62.4901 116.69C62.4901 116.69 62.2801 101.68 63.8101 99.1897C65.3401 96.6997 67.5501 94.2397 67.5501 94.2397C66.3001 98.6597 68.6901 102.22 70.8401 105.6C72.0701 107.54 73.2201 109.42 73.5601 111.37C74.0301 114.07 72.9501 116.35 71.9301 118.57L71.9201 118.56Z" fill="#190708"/>
</g>
<path d="M91.3697 116.85C90.7697 118.79 89.9097 120.66 88.6997 122.44C86.4897 125.71 78.6797 131.98 76.4197 125.47C74.8797 121.04 76.7197 115.73 78.1997 111.53C78.8997 109.57 79.4297 107.63 80.0297 105.68C80.0897 105.47 80.1598 105.27 80.2198 105.06C80.9798 102.65 82.6597 100.62 83.1697 98.1097C83.3197 97.3497 83.3598 96.5497 83.4598 95.7797C83.5798 94.7697 83.7598 93.7997 84.3498 92.9997C84.7098 92.4997 85.2298 92.0897 85.4898 91.5297C85.7098 91.0697 85.7597 90.5597 85.8397 90.0597C86.3097 87.3697 88.2498 84.9897 90.7898 83.9697C90.1798 86.2697 91.8097 88.5297 92.2797 90.8697C92.5797 92.4297 92.3697 94.0397 92.3997 95.6197C92.4997 102.6 93.4898 110.11 91.3798 116.86L91.3697 116.85Z" fill="#8FDF5C"/>
<g style="mix-blend-mode:multiply" opacity="0.22">
<path d="M91.3697 116.85C90.7697 118.79 89.9097 120.66 88.6997 122.44C86.4897 125.71 78.6797 131.98 76.4197 125.47C74.8797 121.04 76.7197 115.73 78.1997 111.53C78.8997 109.57 79.4297 107.63 80.0297 105.68C80.0897 105.47 80.1598 105.27 80.2198 105.06C80.9798 102.65 82.6597 100.62 83.1697 98.1098C83.3197 97.3498 83.3598 96.5498 83.4598 95.7798C86.2898 102.08 86.2898 104.58 85.8198 109.59C85.3498 114.6 85.1897 117.26 86.7597 117.89C87.4997 118.19 89.5098 117.56 91.3798 116.86L91.3697 116.85Z" fill="#190708"/>
</g>
<path d="M84.1102 112.87C84.1102 113.02 84.1102 113.17 84.1102 113.33C83.9902 118.27 83.0102 123.44 79.7502 127.33C72.0602 136.51 69.6502 122.19 68.2802 116.84C67.4102 113.47 66.6002 110.05 66.3802 106.57C66.3302 105.7 66.2902 104.84 66.2902 103.99C66.2602 101.21 66.4902 98.4798 67.1702 95.7198C68.0302 92.2398 69.2402 88.8398 69.5802 85.2498C69.7202 83.7098 69.7102 82.1098 70.3802 80.7198C70.8202 79.8098 71.5302 79.0598 72.0902 78.2198C72.6102 77.4398 73.2602 74.3198 74.1702 74.7298C75.0302 75.1098 75.3702 78.0098 75.8502 78.8298C76.7902 80.4298 77.9402 81.9398 78.4002 83.7698C78.8002 85.3498 78.6402 87.0898 79.4002 88.5398C79.8302 89.3698 80.5402 90.0398 80.9402 90.8898C81.3302 91.7198 81.3802 92.6498 81.5802 93.5498C81.9602 95.2598 82.8902 96.8198 83.2602 98.5298C83.8402 101.23 82.7702 104.04 83.3502 106.7C83.8102 108.82 84.1002 110.69 84.1002 112.88L84.1102 112.87Z" fill="#8FDF5C"/>
<path d="M74.1699 90.5698C74.1699 90.5698 76.4999 102.39 76.3699 107.48C76.2399 112.57 75.5999 113.33 76.0099 119.4C76.4199 125.47 75.4499 127.44 75.2799 128.2C75.1099 128.96 75.2799 130.32 75.2799 130.32" stroke="#6EBC3B" stroke-width="0.61" stroke-miterlimit="10"/>
<path d="M61.0698 92.9497C61.0898 100.51 62.8898 103.11 63.7898 110.44C64.6898 117.77 67.3898 123.43 67.9898 125.26C68.5898 127.08 70.2198 130.99 70.2198 130.99" stroke="#6EBC3B" stroke-width="0.61" stroke-miterlimit="10"/>
<path d="M88.5601 99.3098C88.5601 107.57 86.6201 113.53 85.9401 117.15C85.2601 120.77 82.0701 126.15 80.8901 128.19" stroke="#6EBC3B" stroke-width="0.61" stroke-miterlimit="10"/>
<g style="mix-blend-mode:multiply" opacity="0.22">
<path d="M84.11 112.87C84.11 113.02 84.11 113.17 84.11 113.33C83.99 118.27 83.01 123.44 79.75 127.33C72.06 136.51 69.65 122.19 68.28 116.84C67.41 113.47 66.6001 110.05 66.3801 106.57C66.3301 105.7 66.29 104.84 66.29 103.99C66.65 104.11 66.96 104.34 67.15 104.76C68 106.7 69.7901 109.04 71.7101 111.72C73.6401 114.4 71.93 118.56 74.33 119.4C76.66 120.21 82.06 122.8 84.12 112.87H84.11Z" fill="#190708"/>
</g>
<path d="M68.2699 116.83C67.3999 113.46 66.5899 110.04 66.3699 106.56C66.3199 105.69 66.2799 104.83 66.2799 103.98C66.2499 101.2 66.4799 98.4698 67.1599 95.7098C68.0199 92.2298 69.2299 88.8298 69.5699 85.2398C69.7099 83.6998 69.6999 82.0998 70.3699 80.7098C70.8099 79.7998 71.5199 79.0498 72.0799 78.2098C72.5999 77.4298 73.2499 74.3098 74.1599 74.7198" stroke="#599E2D" stroke-width="0.61" stroke-miterlimit="10"/>
<path d="M84.11 116.28C83.78 121.39 80.11 127.15 78.96 128.19" stroke="#599E2D" stroke-width="0.61" stroke-miterlimit="10"/>
</g>
<g style="mix-blend-mode:multiply" opacity="0.22">
<path d="M86.5202 152.75L86.3602 154.32C86.1502 156.44 85.1902 158.11 83.9402 158.57C82.5702 159.08 80.3602 159.54 76.8902 159.54C72.3002 159.54 68.9602 158.73 66.9902 158.08C65.7502 157.66 64.7902 156.05 64.5302 153.96L62.4902 137.12C66.7102 149.2 77.9002 154.35 85.5102 152.89C85.8602 152.83 86.1902 152.79 86.5102 152.76L86.5202 152.75Z" fill="#C61829"/>
</g>
<path d="M44.7599 163.73H27.6999C27.6999 163.73 25.9499 128.97 25.5699 117.2V117.09C25.4399 113.03 24.9599 107.14 24.3799 101.17C23.7299 94.3898 22.9499 87.5198 22.4499 83.1598C22.3599 82.4098 22.2799 81.7398 22.2099 81.1598C22.0199 79.5198 21.8999 78.5598 21.8999 78.5598L34.4499 81.1098L42.9999 82.8398C44.0499 86.0398 44.6599 93.2598 44.9999 102.13C45.9299 126.63 44.7599 163.73 44.7599 163.73Z" fill="#1F336A"/>
<path d="M33.9199 94.4199L38.3799 101.47" stroke="#192C56" stroke-width="0.36" stroke-miterlimit="10" stroke-linecap="round"/>
<path d="M38.3799 93.48L39.1899 163.73" stroke="#192C56" stroke-width="0.36" stroke-miterlimit="10" stroke-linecap="round"/>
<path d="M26.32 81.1599L26.29 82.5099L25.9 101.45L25.57 117.2V117.27L24.55 166.65H8.28001C6.88001 157.02 7.68001 118.19 9.72001 95.5499C10.09 91.4499 10.5 87.8799 10.95 85.1099C11.2 83.5099 11.47 82.1699 11.75 81.1599H26.32Z" fill="#1F336A"/>
<g style="mix-blend-mode:multiply" opacity="0.22">
<path d="M45.0002 102.13C40.7202 102.62 33.3202 102.7 25.9002 101.45C25.3902 101.36 24.8902 101.27 24.3802 101.17C19.0102 100.14 13.7402 98.3799 9.72021 95.5499C10.0902 91.4499 10.5002 87.8799 10.9502 85.1099C13.5902 84.6799 17.8102 83.9599 22.4502 83.1599C23.7102 82.9499 24.9902 82.7299 26.2902 82.5099C29.0502 82.0299 31.8402 81.5499 34.4502 81.1099L43.0002 82.8399C44.0502 86.0399 44.6602 93.2599 45.0002 102.13Z" fill="#190708"/>
</g>
<path d="M14.7698 45.4299C13.1498 43.9199 12.8198 42.8599 12.6098 41.8099C12.3998 40.7699 12.8198 39.0299 11.7099 38.0499C10.5999 37.0799 10.9098 35.8299 10.1498 35.1399C9.38984 34.4399 8.84984 36.2099 9.46984 37.4599C10.0998 38.7099 9.82985 39.4499 9.82985 39.4499C9.82985 39.4499 6.34984 33.9499 5.44984 33.5399C4.54984 33.1199 4.12984 33.5399 4.61984 34.5799C5.10984 35.6199 5.65985 36.5999 5.65985 36.5999C5.65985 36.5999 3.63984 32.4299 2.66984 33.0499C1.69984 33.6799 3.70985 36.7399 3.70985 36.7399C3.70985 36.7399 2.45984 34.3899 1.61984 35.1499C0.789839 35.9099 2.93985 39.2099 2.93985 39.2099C2.93985 39.2099 1.61985 36.9499 1.12985 37.8499C0.639849 38.7499 1.96984 41.2999 4.11984 43.8999C6.40984 46.6699 9.95985 49.6099 9.95985 49.6099L14.7598 45.4399L14.7698 45.4299Z" fill="#FFB583"/>
<g style="mix-blend-mode:multiply" opacity="0.61">
<path d="M14.7698 45.4299C13.1498 43.9199 12.8198 42.8599 12.6098 41.8099C12.3998 40.7699 12.8198 39.0299 11.7099 38.0499C10.5999 37.0799 10.9098 35.8299 10.1498 35.1399C9.38984 34.4399 8.84984 36.2099 9.46984 37.4599C10.0998 38.7099 9.82985 39.4499 9.82985 39.4499C9.82985 39.4499 6.34984 33.9499 5.44984 33.5399C4.54984 33.1199 4.12984 33.5399 4.61984 34.5799C5.10984 35.6199 5.65985 36.5999 5.65985 36.5999C5.65985 36.5999 3.63984 32.4299 2.66984 33.0499C1.69984 33.6799 3.70985 36.7399 3.70985 36.7399C3.70985 36.7399 2.45984 34.3899 1.61984 35.1499C0.789839 35.9099 2.93985 39.2099 2.93985 39.2099C2.93985 39.2099 1.61985 36.9499 1.12985 37.8499C0.639849 38.7499 1.96984 41.2999 4.11984 43.8999C6.40984 46.6699 9.95985 49.6099 9.95985 49.6099L14.7598 45.4399L14.7698 45.4299Z" fill="#FFB583"/>
</g>
<path d="M11.8299 64.8098C8.28986 59.5098 9.54986 56.6298 9.27986 55.5698C9.00986 54.5098 7.28986 54.3598 6.85986 53.2198C6.85986 53.2198 7.38986 49.4898 11.3399 47.6398C15.2899 45.7898 19.0199 53.8598 19.0199 53.8598L11.8299 64.8198V64.8098Z" fill="#1D72CF"/>
<g style="mix-blend-mode:multiply" opacity="0.22">
<path d="M11.8299 64.8098C8.28986 59.5098 9.54986 56.6298 9.27986 55.5698C9.00986 54.5098 7.28986 54.3598 6.85986 53.2198C6.85986 53.2198 7.38986 49.4898 11.3399 47.6398C15.2899 45.7898 19.0199 53.8598 19.0199 53.8598L11.8299 64.8198V64.8098Z" fill="#190708"/>
</g>
<path d="M9.27002 55.5698C9.45002 54.0498 10.39 53.0298 10.39 53.0298" stroke="#318CDD" stroke-width="0.39" stroke-miterlimit="10" stroke-linecap="round"/>
<path d="M18.4401 15.1399C15.1401 13.5099 12.9001 6.77988 13.8601 5.44988C14.8201 4.11988 17.3801 4.26988 17.3801 4.26988C17.3801 4.26988 15.5201 2.48988 16.2101 1.15988C16.9001 -0.170115 19.7001 -1.06012 25.0401 0.11988C30.3801 1.29988 37.0501 3.37988 38.5301 7.96988C40.0101 12.5599 38.5301 14.3399 38.5301 14.3399C38.5301 14.3399 38.5301 18.9299 36.4601 21.5999C34.3901 24.2699 29.0501 23.2299 29.0501 23.2299L18.4401 15.1399Z" fill="#301011"/>
<path d="M28.59 30.6198C30.18 30.6198 31.4799 29.3298 31.4799 27.7298V20.9998H25.71V27.7298C25.71 29.3198 27 30.6198 28.6 30.6198H28.59Z" fill="#FFB583"/>
<g style="mix-blend-mode:multiply" opacity="0.61">
<path d="M28.59 27.9496C30.18 27.9496 31.4799 26.6596 31.4799 25.0596V18.3296H25.71V25.0596C25.71 26.6496 27 27.9496 28.6 27.9496H28.59Z" fill="#FFB583"/>
</g>
<path d="M17.5902 15.1597C17.4602 22.4997 18.9402 26.7097 25.0402 26.6497C31.1402 26.5897 33.3602 22.0197 33.7602 20.7697C34.1602 19.5297 33.6702 12.4997 33.6702 12.4997C33.6702 12.4997 26.2502 9.57969 26.0202 9.37969C25.9302 9.29969 24.8302 9.17969 23.5302 9.05969C20.9402 8.81969 18.5802 10.5597 18.0402 13.0997L17.6002 15.1497L17.5902 15.1597Z" fill="#FFB583"/>
<path d="M17.5901 18.3296C17.5901 18.3296 17.5901 22.1396 19.4301 24.7496C20.4301 26.1696 21.9701 27.2396 24.3601 27.1496C31.1401 26.8996 32.7601 23.6196 33.6601 21.5996L33.1601 21.3996C33.1601 21.3996 32.1501 23.4796 31.1101 23.1396C30.9701 23.0896 30.8601 22.9996 30.7701 22.8696C30.2201 22.0696 30.6301 19.9396 30.7401 19.4596C30.8701 18.8996 33.4201 17.3596 33.9201 16.2996L33.6501 15.5596C32.1701 17.1596 31.5001 17.7796 29.7001 18.4096C27.9101 19.0396 23.9101 18.2896 21.9601 18.2896C20.0101 18.2896 18.2001 18.4696 17.5801 18.3196L17.5901 18.3296Z" fill="white"/>
<path d="M19.4199 24.7497C20.4199 26.1697 21.9599 27.2397 24.3499 27.1497C31.1299 26.8997 32.7499 23.6197 33.6499 21.5997L33.1499 21.3997C33.1499 21.3997 32.1399 23.4797 31.0999 23.1397C30.9599 23.0897 30.8499 22.9997 30.7599 22.8697C28.9699 24.3197 23.9299 26.7097 19.4199 24.7497Z" fill="#FCF7F2"/>
<path d="M27.8401 22.6598C25.0101 23.9498 19.9501 23.3098 19.2201 22.7698C18.4901 22.2398 19.3901 22.2898 21.8101 22.2398C24.2301 22.1798 27.2101 21.9598 27.8401 22.0098C28.4701 22.0698 28.5101 22.3498 27.8401 22.6598Z" fill="#FCF7F2"/>
<path d="M27.0203 20.3297C24.5603 21.4597 20.1403 20.8897 19.5003 20.4297C18.8603 19.9697 19.6502 20.0097 21.7602 19.9597C23.8702 19.9097 26.4703 19.7097 27.0203 19.7597C27.5703 19.8097 27.6103 20.0597 27.0203 20.3197V20.3297Z" fill="#FCF7F2"/>
<path d="M32.9002 17.6898C33.6702 15.6798 35.6902 15.4098 36.6602 16.7998C38.0002 18.7298 35.7502 21.2298 34.3102 21.7398C32.8702 22.2398 31.9202 20.2598 32.9102 17.6898H32.9002Z" fill="#FFB583"/>
<path d="M33.0503 18.8998C34.2103 17.1398 35.4003 17.1798 35.8503 17.8798C36.3003 18.5798 35.5003 19.1498 35.5003 19.1498" stroke="#FF9852" stroke-width="0.39" stroke-miterlimit="10" stroke-linecap="round"/>
<path d="M34.7201 17.4698C35.8201 17.4398 35.4901 19.7198 34.1701 20.4398C32.8401 21.1698 33.1901 19.7998 33.1901 19.7998" stroke="#FF9852" stroke-width="0.39" stroke-miterlimit="10" stroke-linecap="round"/>
<path d="M34.02 17.8098C34.82 17.9998 34.94 19.6198 34.74 20.0098" stroke="#FF9852" stroke-width="0.39" stroke-miterlimit="10" stroke-linecap="round"/>
<path d="M21.3002 13.5498C20.4402 13.2598 19.5102 13.6398 19.3902 14.1098C19.2702 14.5798 22.7602 14.0498 21.3002 13.5498Z" fill="#301011"/>
<path d="M24.73 13.6898C25.79 13.2798 26.92 14.2198 27.09 14.7598C27.26 15.3098 23.09 14.3298 24.73 13.6898Z" fill="#301011"/>
<path d="M24.3901 16.8797C24.3001 17.3297 24.4001 17.7297 24.6101 17.7697C24.8201 17.8097 25.0601 17.4797 25.1401 17.0197C25.2301 16.5697 25.1301 16.1697 24.9201 16.1297C24.7101 16.0897 24.4701 16.4197 24.3901 16.8797Z" fill="#301011"/>
<path d="M20.0499 16.5996C20.0899 17.0596 20.2799 17.4196 20.4999 17.3996C20.7099 17.3796 20.8499 16.9996 20.8199 16.5396C20.7799 16.0796 20.5899 15.7196 20.3699 15.7396C20.1599 15.7596 20.0199 16.1396 20.0499 16.5996Z" fill="#301011"/>
<path d="M20.5299 8.06977C20.5299 8.06977 20.5299 8.08977 20.5299 8.09977C20.8299 13.3698 29.1099 14.8898 33.5899 13.7998C35.2399 13.3998 35.9999 12.4098 36.0899 11.2498C36.2499 9.25977 34.4399 6.76977 31.8299 5.95977C28.2299 4.84977 22.2099 5.50977 20.8099 7.23977C20.8099 7.23977 20.8099 7.23978 20.8099 7.24978C20.6099 7.49977 20.5099 7.76977 20.5299 8.05977V8.06977Z" fill="#301011"/>
<path d="M9.78001 85.95C9.17001 87.65 9.32002 90.77 9.32002 90.77C9.32002 90.77 14.53 95.82 25.59 95.35C36.65 94.88 46.58 91.14 46.8 90.5C47.02 89.86 45.35 86.42 45.35 86.42C45.35 86.42 20.91 92.89 9.77001 85.95H9.78001Z" fill="#115DA3"/>
<path d="M45.0201 88.1599C45.0201 88.1599 17.37 95.3199 9.79004 85.9599C9.79004 85.9599 11.21 71.5099 12.25 58.2699C12.37 56.7299 12.5 55.2799 12.64 53.9599C13.98 41.2499 14.7 35.9999 16.98 34.4299C19.27 32.8699 21.29 31.9199 21.29 31.9199L22.28 29.4699C25.46 28.3699 34.5501 27.8299 35.2101 28.3699C35.8701 28.9099 36.53 32.0999 36.53 32.0999C36.53 32.0999 42.59 34.1299 44.89 36.7599C46.26 38.3199 46.1501 45.6199 45.7401 52.2299C45.4701 56.7299 45.06 60.9199 44.89 62.7699C44.66 65.2999 45.0301 70.0099 45.4601 74.5599C45.8001 78.1899 46.1801 81.7199 46.3201 83.9899C46.6901 90.1399 45.03 88.1599 45.03 88.1599H45.0201Z" fill="#1D72CF"/>
<g style="mix-blend-mode:multiply" opacity="0.22">
<path d="M31.7101 49.5999C29.7001 51.4299 23.3101 49.5999 23.3101 49.5999L29.0501 61.1899L34.9001 55.5599L31.7101 49.5999Z" fill="#190708"/>
</g>
<path d="M24.61 29.1899C23.89 30.3199 24.03 31.2999 24.03 31.2999C24.03 31.2999 17.49 46.2199 19.02 65.4999C20.55 84.7799 20.22 90.4999 20.22 90.4999" stroke="#318CDD" stroke-width="0.39" stroke-miterlimit="10" stroke-linecap="round"/>
<g style="mix-blend-mode:multiply" opacity="0.22">
<path d="M45.4502 74.55C43.6502 76.4 37.5402 79.65 34.6202 79.59C27.2102 79.43 16.1102 66.15 12.2402 58.26C12.3602 56.72 12.4902 55.27 12.6302 53.95L23.2902 58.68C23.2902 58.68 38.9302 59.24 39.5002 58.26C40.0602 57.29 45.5902 52.61 45.7302 52.23C45.4602 56.73 45.0502 60.92 44.8802 62.77C44.6502 65.3 45.0202 70.01 45.4502 74.56V74.55Z" fill="#190708"/>
</g>
<path d="M16.14 43.46C14.52 41.95 14.19 40.89 13.98 39.84C13.77 38.8 14.19 37.06 13.08 36.08C11.97 35.11 12.28 33.86 11.52 33.17C10.76 32.47 10.22 34.24 10.84 35.49C11.47 36.74 11.2 37.48 11.2 37.48C11.2 37.48 7.71997 31.98 6.81997 31.57C5.91997 31.15 5.49997 31.57 5.98997 32.61C6.47997 33.65 7.02996 34.63 7.02996 34.63C7.02996 34.63 5.00996 30.46 4.03996 31.08C3.06996 31.71 5.07997 34.77 5.07997 34.77C5.07997 34.77 3.82997 32.42 2.98997 33.18C2.15997 33.94 4.30996 37.24 4.30996 37.24C4.30996 37.24 2.98997 34.98 2.49997 35.88C2.00997 36.78 3.33997 39.33 5.48997 41.93C7.77997 44.7 11.33 47.64 11.33 47.64L16.13 43.47L16.14 43.46Z" fill="#FFB583"/>
<path d="M39.6901 33.2498C43.2601 34.2698 44.7701 37.0298 44.8701 40.3098C44.9701 43.5898 42.2701 65.3098 40.8601 70.0098C39.4501 74.7098 34.5201 75.6498 30.2901 73.2998C26.0601 70.9498 16.7901 57.3298 16.0801 56.8598C15.3801 56.3898 12.0901 54.9798 11.5001 54.3898C10.9101 53.7998 10.8401 51.5698 10.8401 51.5698C10.8401 51.5698 8.68007 49.3398 8.45007 48.6298C8.22007 47.9298 13.9701 41.8198 15.5001 41.3498C17.0301 40.8798 18.5501 44.0498 18.5501 44.0498C18.5501 44.0498 26.1801 50.2698 30.6401 55.5598C30.6401 55.5598 31.8101 41.9398 34.0501 37.7098C36.2901 33.4798 38.5601 32.9098 39.6901 33.2398V33.2498Z" fill="#1D72CF"/>
<path d="M10.8501 51.5699C13.2501 48.8999 16.1501 47.6299 16.1501 47.6299" stroke="#318CDD" stroke-width="0.39" stroke-miterlimit="10" stroke-linecap="round"/>
<path d="M33.5901 60.3798C33.5901 60.3798 32.6701 57.7798 30.6501 55.5698C28.0701 52.7498 24.2301 48.9798 22.7101 47.6398C21.1901 46.2998 18.5601 44.0698 18.5601 44.0698" stroke="#318CDD" stroke-width="0.39" stroke-miterlimit="10" stroke-linecap="round"/>
<g style="mix-blend-mode:multiply" opacity="0.22">
<path d="M21.2803 31.9198L25.3003 31.0098L21.8503 30.5098L21.2803 31.9198Z" fill="#190708"/>
</g>
<path d="M31.7101 46.8999C31.2001 50.4899 30.6401 55.5599 30.6401 55.5599" stroke="#318CDD" stroke-width="0.39" stroke-miterlimit="10" stroke-linecap="round"/>
<path d="M6.06982 32.7798L7.38982 35.4198" stroke="#FF9852" stroke-width="0.39" stroke-miterlimit="10" stroke-linecap="round"/>
<path d="M32.23 74.13C36.54 75.36 39.63 72.61 40.32 71.34C41.84 68.53 43.98 52.21 44.43 46.26C44.88 40.31 44.02 36.77 41.85 35.97" stroke="#318CDD" stroke-width="0.39" stroke-miterlimit="10" stroke-linecap="round"/>
<path d="M4.41016 33.7598L5.68015 35.7498" stroke="#FF9852" stroke-width="0.39" stroke-miterlimit="10" stroke-linecap="round"/>
<path d="M3.58984 36.21L4.30984 37.23" stroke="#FF9852" stroke-width="0.39" stroke-miterlimit="10" stroke-linecap="round"/>
<path d="M17.22 101.47H17.57C18.09 101.47 18.51 101.89 18.51 102.41V133.37H16.27V102.41C16.27 101.89 16.69 101.47 17.21 101.47H17.22Z" fill="#C2E0F5"/>
<path d="M14.01 118.31H5.41005C2.58235 118.31 0.290039 120.602 0.290039 123.43V167.46C0.290039 170.288 2.58235 172.58 5.41005 172.58H14.01C16.8377 172.58 19.1301 170.288 19.1301 167.46V123.43C19.1301 120.602 16.8377 118.31 14.01 118.31Z" fill="#F54949"/>
<path d="M13.4601 172.57C10.6001 172.57 8.29004 170.26 8.29004 167.4V123.47C8.29004 120.61 10.6001 118.3 13.4601 118.3" stroke="#C12D2D" stroke-width="0.39" stroke-miterlimit="10" stroke-linecap="round"/>
<path d="M8.49994 138.58H7.86993C6.9421 138.58 6.18994 139.332 6.18994 140.26V149.81C6.18994 150.738 6.9421 151.49 7.86993 151.49H8.49994C9.42778 151.49 10.1799 150.738 10.1799 149.81V140.26C10.1799 139.332 9.42778 138.58 8.49994 138.58Z" fill="#C2E0F5"/>
<g style="mix-blend-mode:multiply" opacity="0.22">
<path d="M19.1301 157.89V167.46C19.1301 170.29 16.84 172.58 14.01 172.58H5.41005C2.58005 172.58 0.290039 170.29 0.290039 167.46V157.89H19.1301Z" fill="#190708"/>
</g>
<path d="M25.3402 110.71L21.7002 166.65" stroke="#192C56" stroke-width="0.36" stroke-miterlimit="10" stroke-linecap="round"/>
</svg>
