<svg width="118" height="74" viewBox="0 0 118 74" fill="none" xmlns="http://www.w3.org/2000/svg">
<g opacity="0.5">
<path d="M26.4 73.2C16.7333 73.2 10 69.8 6.2 63C2.4 56.1333 1.43333 46.6 3.3 34.4C5.16667 22.6667 8.73333 14.0667 14 8.6C19.2667 3.06667 26.1667 0.299999 34.7 0.299999C43.9667 0.299999 50.6333 3.46666 54.7 9.8C58.8333 16.1333 59.9 25.6667 57.9 38.4C56.0333 50.0667 52.3333 58.8 46.8 64.6C41.3333 70.3333 34.5333 73.2 26.4 73.2ZM27.9 56.2C30.2333 56.2 32.2 54.7 33.8 51.7C35.4 48.6333 36.7333 43.8667 37.8 37.4C38.6667 32.0667 39.0333 27.9667 38.9 25.1C38.8333 22.1667 38.3 20.1333 37.3 19C36.3667 17.8667 35.0333 17.3 33.3 17.3C30.9667 17.3 29 18.7 27.4 21.5C25.8667 24.2333 24.5667 28.8667 23.5 35.4C22.6333 40.7333 22.2333 44.9333 22.3 48C22.4333 51 22.9667 53.1333 23.9 54.4C24.9 55.6 26.2333 56.2 27.9 56.2ZM62.9609 72L65.7609 54.6H81.2609L86.7609 19.4L96.3609 20L70.8609 33L74.0609 12.6L95.9609 1.5H111.161L102.761 54.6H117.261L114.461 72H62.9609Z" fill="url(#paint0_linear_488_6319)" fill-opacity="0.5"/>
<path d="M6.2 63L5.32504 63.4842L5.32706 63.4878L6.2 63ZM3.3 34.4L2.3124 34.2429L2.3115 34.2488L3.3 34.4ZM14 8.6L14.7202 9.29382L14.7243 9.28944L14 8.6ZM54.7 9.8L53.8585 10.3403L53.8626 10.3465L54.7 9.8ZM57.9 38.4L58.8875 38.558L58.8879 38.5552L57.9 38.4ZM46.8 64.6L46.0765 63.9097L46.0763 63.9099L46.8 64.6ZM33.8 51.7L34.6824 52.1706L34.6866 52.1626L33.8 51.7ZM37.8 37.4L38.7867 37.5628L38.7871 37.5604L37.8 37.4ZM38.9 25.1L37.9003 25.1227L37.9005 25.1346L37.9011 25.1465L38.9 25.1ZM37.3 19L36.5281 19.6357L36.5389 19.6488L36.5502 19.6616L37.3 19ZM27.4 21.5L26.5317 21.0038L26.5279 21.0107L27.4 21.5ZM23.5 35.4L22.5131 35.2389L22.5129 35.2396L23.5 35.4ZM22.3 48L21.3002 48.0217L21.3005 48.0331L21.301 48.0444L22.3 48ZM23.9 54.4L23.0949 54.9932L23.1127 55.0172L23.1318 55.0402L23.9 54.4ZM26.4 72.2C16.9931 72.2 10.6513 68.9155 7.07294 62.5122L5.32706 63.4878C9.34871 70.6845 16.4736 74.2 26.4 74.2V72.2ZM7.07496 62.5158C3.42789 55.9255 2.43735 46.6498 4.2885 34.5512L2.3115 34.2488C0.429317 46.5502 1.37211 56.3412 5.32504 63.4842L7.07496 62.5158ZM4.28758 34.5571C6.13894 22.92 9.65504 14.5513 14.7202 9.29381L13.2798 7.90619C7.81162 13.5821 4.19439 22.4133 2.31242 34.2429L4.28758 34.5571ZM14.7243 9.28944C19.7792 3.97863 26.4051 1.3 34.7 1.3V-0.700001C25.9282 -0.700001 18.7541 2.1547 13.2757 7.91056L14.7243 9.28944ZM34.7 1.3C43.7165 1.3 50.0198 4.36197 53.8585 10.3403L55.5415 9.25969C51.2469 2.57136 44.2168 -0.700001 34.7 -0.700001V1.3ZM53.8626 10.3465C57.793 16.3689 58.8987 25.5971 56.9121 38.2448L58.8879 38.5552C60.9013 25.7362 59.8737 15.8977 55.5374 9.25346L53.8626 10.3465ZM56.9126 38.242C55.0635 49.7985 51.4181 58.3107 46.0765 63.9097L47.5235 65.2903C53.2486 59.2893 57.0031 50.3348 58.8874 38.558L56.9126 38.242ZM46.0763 63.9099C40.8039 69.4395 34.2681 72.2 26.4 72.2V74.2C34.7986 74.2 41.8627 71.2272 47.5237 65.2901L46.0763 63.9099ZM27.9 57.2C30.7591 57.2 32.9973 55.3301 34.6824 52.1706L32.9176 51.2294C31.4027 54.0699 29.7075 55.2 27.9 55.2V57.2ZM34.6866 52.1626C36.3617 48.9519 37.7153 44.058 38.7867 37.5627L36.8133 37.2373C35.7514 43.6753 34.4383 48.3148 32.9134 51.2374L34.6866 52.1626ZM38.7871 37.5604C39.6569 32.2073 40.0372 28.0255 39.8989 25.0535L37.9011 25.1465C38.0295 27.9078 37.6764 31.926 36.813 37.2396L38.7871 37.5604ZM39.8997 25.0773C39.8321 22.0992 39.2975 19.7524 38.0498 18.3384L36.5502 19.6616C37.3025 20.5143 37.8346 22.2342 37.9003 25.1227L39.8997 25.0773ZM38.0719 18.3643C36.9136 16.9577 35.2722 16.3 33.3 16.3V18.3C34.7945 18.3 35.8198 18.7756 36.5281 19.6357L38.0719 18.3643ZM33.3 16.3C30.4764 16.3 28.2332 18.0263 26.5318 21.0039L28.2682 21.9961C29.7668 19.3737 31.457 18.3 33.3 18.3V16.3ZM26.5279 21.0107C24.9031 23.907 23.5824 28.6894 22.5131 35.2389L24.4869 35.5611C25.551 29.0439 26.8302 24.5597 28.2721 21.9893L26.5279 21.0107ZM22.5129 35.2396C21.6427 40.5951 21.2316 44.8649 21.3002 48.0217L23.2998 47.9783C23.2351 45.0017 23.624 40.8715 24.4871 35.5604L22.5129 35.2396ZM21.301 48.0444C21.4364 51.0903 21.978 53.4773 23.0949 54.9932L24.7051 53.8068C23.9554 52.7894 23.4303 50.9097 23.299 47.9556L21.301 48.0444ZM23.1318 55.0402C24.3358 56.4851 25.9593 57.2 27.9 57.2V55.2C26.5074 55.2 25.4642 54.7149 24.6682 53.7598L23.1318 55.0402ZM62.9609 72L61.9736 71.8411L61.7872 73H62.9609V72ZM65.7609 54.6V53.6H64.909L64.7736 54.4411L65.7609 54.6ZM81.2609 54.6V55.6H82.1168L82.2489 54.7544L81.2609 54.6ZM86.7609 19.4L86.8233 18.4019L85.9136 18.3451L85.7729 19.2456L86.7609 19.4ZM96.3609 20L96.8151 20.8909L100.073 19.23L96.4233 19.0019L96.3609 20ZM70.8609 33L69.873 32.845L69.5694 34.7809L71.3151 33.8909L70.8609 33ZM74.0609 12.6L73.6088 11.708L73.1523 11.9394L73.073 12.445L74.0609 12.6ZM95.9609 1.5V0.499996H95.722L95.5088 0.608027L95.9609 1.5ZM111.161 1.5L112.149 1.65624L112.332 0.499996H111.161V1.5ZM102.761 54.6L101.773 54.4437L101.59 55.6H102.761V54.6ZM117.261 54.6L118.248 54.7589L118.435 53.6H117.261V54.6ZM114.461 72V73H115.313L115.448 72.1589L114.461 72ZM63.9482 72.1589L66.7482 54.7589L64.7736 54.4411L61.9736 71.8411L63.9482 72.1589ZM65.7609 55.6H81.2609V53.6H65.7609V55.6ZM82.2489 54.7544L87.749 19.5544L85.7729 19.2456L80.2729 54.4456L82.2489 54.7544ZM86.6986 20.398L96.2986 20.998L96.4233 19.0019L86.8233 18.4019L86.6986 20.398ZM95.9068 19.1091L70.4068 32.1091L71.3151 33.8909L96.8151 20.8909L95.9068 19.1091ZM71.8489 33.155L75.0489 12.755L73.073 12.445L69.873 32.845L71.8489 33.155ZM74.513 13.492L96.413 2.39197L95.5088 0.608027L73.6088 11.708L74.513 13.492ZM95.9609 2.5H111.161V0.499996H95.9609V2.5ZM110.173 1.34375L101.773 54.4437L103.749 54.7562L112.149 1.65624L110.173 1.34375ZM102.761 55.6H117.261V53.6H102.761V55.6ZM116.274 54.4411L113.474 71.8411L115.448 72.1589L118.248 54.7589L116.274 54.4411ZM114.461 71H62.9609V73H114.461V71Z" fill="url(#paint1_linear_488_6319)"/>
</g>
<defs>
<linearGradient id="paint0_linear_488_6319" x1="59" y1="-29" x2="59" y2="97" gradientUnits="userSpaceOnUse">
<stop stop-color="#7780A1"/>
<stop offset="1" stop-color="#7780A1" stop-opacity="0"/>
</linearGradient>
<linearGradient id="paint1_linear_488_6319" x1="59" y1="-29" x2="59" y2="97" gradientUnits="userSpaceOnUse">
<stop stop-color="#7780A1"/>
<stop offset="1" stop-color="#7780A1" stop-opacity="0"/>
</linearGradient>
</defs>
</svg>
