<svg width="118" height="74" viewBox="0 0 118 74" fill="none" xmlns="http://www.w3.org/2000/svg">
<g opacity="0.5">
<path d="M25.9 73.2C16.2333 73.2 9.5 69.8 5.7 63C1.9 56.1333 0.933333 46.6 2.8 34.4C4.66667 22.6667 8.23333 14.0667 13.5 8.6C18.7667 3.06667 25.6667 0.299999 34.2 0.299999C43.4667 0.299999 50.1333 3.46666 54.2 9.8C58.3333 16.1333 59.4 25.6667 57.4 38.4C55.5333 50.0667 51.8333 58.8 46.3 64.6C40.8333 70.3333 34.0333 73.2 25.9 73.2ZM27.4 56.2C29.7333 56.2 31.7 54.7 33.3 51.7C34.9 48.6333 36.2333 43.8667 37.3 37.4C38.1667 32.0667 38.5333 27.9667 38.4 25.1C38.3333 22.1667 37.8 20.1333 36.8 19C35.8667 17.8667 34.5333 17.3 32.8 17.3C30.4667 17.3 28.5 18.7 26.9 21.5C25.3667 24.2333 24.0667 28.8667 23 35.4C22.1333 40.7333 21.7333 44.9333 21.8 48C21.9333 51 22.4667 53.1333 23.4 54.4C24.4 55.6 25.7333 56.2 27.4 56.2ZM60.6609 72L63.1609 56.2L86.7609 35.2C89.5609 32.6667 91.5609 30.6 92.7609 29C94.0276 27.3333 94.7943 25.7667 95.0609 24.3C95.3943 22.1 94.8943 20.4667 93.5609 19.4C92.2276 18.3333 90.2943 17.8 87.7609 17.8C85.3609 17.8 82.7609 18.2333 79.9609 19.1C77.1609 19.9 74.2609 21.3333 71.2609 23.4L65.2609 7.8C68.7943 5.46666 72.9276 3.63333 77.6609 2.3C82.3943 0.966665 87.0943 0.299999 91.7609 0.299999C98.0943 0.299999 103.194 1.3 107.061 3.3C110.994 5.23333 113.728 7.93333 115.261 11.4C116.794 14.8667 117.194 18.8667 116.461 23.4C115.794 27.6667 114.094 31.5667 111.361 35.1C108.694 38.6333 105.128 42.2667 100.661 46L83.7609 60L83.9609 54.6H113.761L110.961 72H60.6609Z" fill="url(#paint0_linear_488_6357)" fill-opacity="0.5"/>
<path d="M5.7 63L4.82504 63.4842L4.82706 63.4878L5.7 63ZM2.8 34.4L1.8124 34.2429L1.8115 34.2488L2.8 34.4ZM13.5 8.6L14.2202 9.29382L14.2243 9.28944L13.5 8.6ZM54.2 9.8L53.3585 10.3403L53.3626 10.3465L54.2 9.8ZM57.4 38.4L58.3875 38.558L58.3879 38.5552L57.4 38.4ZM46.3 64.6L45.5765 63.9097L45.5763 63.9099L46.3 64.6ZM33.3 51.7L34.1824 52.1706L34.1866 52.1626L33.3 51.7ZM37.3 37.4L38.2867 37.5628L38.2871 37.5604L37.3 37.4ZM38.4 25.1L37.4003 25.1227L37.4005 25.1346L37.4011 25.1465L38.4 25.1ZM36.8 19L36.0281 19.6357L36.0389 19.6488L36.0502 19.6616L36.8 19ZM26.9 21.5L26.0317 21.0038L26.0279 21.0107L26.9 21.5ZM23 35.4L22.0131 35.2389L22.0129 35.2396L23 35.4ZM21.8 48L20.8002 48.0217L20.8005 48.0331L20.801 48.0444L21.8 48ZM23.4 54.4L22.5949 54.9932L22.6127 55.0172L22.6318 55.0402L23.4 54.4ZM25.9 72.2C16.4931 72.2 10.1513 68.9155 6.57294 62.5122L4.82706 63.4878C8.84871 70.6845 15.9736 74.2 25.9 74.2V72.2ZM6.57496 62.5158C2.92789 55.9255 1.93735 46.6498 3.7885 34.5512L1.8115 34.2488C-0.0706834 46.5502 0.872106 56.3412 4.82504 63.4842L6.57496 62.5158ZM3.78758 34.5571C5.63894 22.92 9.15504 14.5513 14.2202 9.29381L12.7798 7.90619C7.31162 13.5821 3.69439 22.4133 1.81242 34.2429L3.78758 34.5571ZM14.2243 9.28944C19.2792 3.97863 25.9051 1.3 34.2 1.3V-0.700001C25.4282 -0.700001 18.2541 2.1547 12.7757 7.91056L14.2243 9.28944ZM34.2 1.3C43.2165 1.3 49.5198 4.36197 53.3585 10.3403L55.0415 9.25969C50.7469 2.57136 43.7168 -0.700001 34.2 -0.700001V1.3ZM53.3626 10.3465C57.293 16.3689 58.3987 25.5971 56.4121 38.2448L58.3879 38.5552C60.4013 25.7362 59.3737 15.8977 55.0374 9.25346L53.3626 10.3465ZM56.4126 38.242C54.5635 49.7985 50.9181 58.3107 45.5765 63.9097L47.0235 65.2903C52.7486 59.2893 56.5031 50.3348 58.3874 38.558L56.4126 38.242ZM45.5763 63.9099C40.3039 69.4395 33.7681 72.2 25.9 72.2V74.2C34.2986 74.2 41.3627 71.2272 47.0237 65.2901L45.5763 63.9099ZM27.4 57.2C30.2591 57.2 32.4973 55.3301 34.1824 52.1706L32.4176 51.2294C30.9027 54.0699 29.2075 55.2 27.4 55.2V57.2ZM34.1866 52.1626C35.8617 48.9519 37.2153 44.058 38.2867 37.5627L36.3133 37.2373C35.2514 43.6753 33.9383 48.3148 32.4134 51.2374L34.1866 52.1626ZM38.2871 37.5604C39.1569 32.2073 39.5372 28.0255 39.3989 25.0535L37.4011 25.1465C37.5295 27.9078 37.1764 31.926 36.313 37.2396L38.2871 37.5604ZM39.3997 25.0773C39.3321 22.0992 38.7975 19.7524 37.5498 18.3384L36.0502 19.6616C36.8025 20.5143 37.3346 22.2342 37.4003 25.1227L39.3997 25.0773ZM37.5719 18.3643C36.4136 16.9577 34.7722 16.3 32.8 16.3V18.3C34.2945 18.3 35.3198 18.7756 36.0281 19.6357L37.5719 18.3643ZM32.8 16.3C29.9764 16.3 27.7332 18.0263 26.0318 21.0039L27.7682 21.9961C29.2668 19.3737 30.957 18.3 32.8 18.3V16.3ZM26.0279 21.0107C24.4031 23.907 23.0824 28.6894 22.0131 35.2389L23.9869 35.5611C25.051 29.0439 26.3302 24.5597 27.7721 21.9893L26.0279 21.0107ZM22.0129 35.2396C21.1427 40.5951 20.7316 44.8649 20.8002 48.0217L22.7998 47.9783C22.7351 45.0017 23.124 40.8715 23.9871 35.5604L22.0129 35.2396ZM20.801 48.0444C20.9364 51.0903 21.478 53.4773 22.5949 54.9932L24.2051 53.8068C23.4554 52.7894 22.9303 50.9097 22.799 47.9556L20.801 48.0444ZM22.6318 55.0402C23.8358 56.4851 25.4593 57.2 27.4 57.2V55.2C26.0074 55.2 24.9642 54.7149 24.1682 53.7598L22.6318 55.0402ZM60.6609 72L59.6732 71.8437L59.4903 73H60.6609V72ZM63.1609 56.2L62.4962 55.4529L62.2291 55.6906L62.1732 56.0437L63.1609 56.2ZM86.7609 35.2L87.4257 35.9471L87.4319 35.9415L86.7609 35.2ZM92.7609 29L91.9648 28.3949L91.9609 28.4L92.7609 29ZM95.0609 24.3L96.0448 24.4789L96.0474 24.4644L96.0497 24.4498L95.0609 24.3ZM93.5609 19.4L92.9362 20.1809L93.5609 19.4ZM79.9609 19.1L80.2357 20.0615L80.2462 20.0585L80.2566 20.0553L79.9609 19.1ZM71.2609 23.4L70.3276 23.759L70.7832 24.9435L71.8282 24.2235L71.2609 23.4ZM65.2609 7.8L64.7099 6.96553L64.039 7.40858L64.3276 8.15898L65.2609 7.8ZM77.6609 2.3L77.3898 1.33746L77.6609 2.3ZM107.061 3.3L106.602 4.18821L106.611 4.19292L106.62 4.19744L107.061 3.3ZM115.261 11.4L114.346 11.8045L115.261 11.4ZM116.461 23.4L115.474 23.2403L115.473 23.2456L116.461 23.4ZM111.361 35.1L110.57 34.4881L110.563 34.4976L111.361 35.1ZM100.661 46L101.299 46.7701L101.302 46.7673L100.661 46ZM83.7609 60L82.7616 59.963L82.679 62.1949L84.3989 60.7701L83.7609 60ZM83.9609 54.6V53.6H82.9973L82.9616 54.563L83.9609 54.6ZM113.761 54.6L114.748 54.7589L114.935 53.6H113.761V54.6ZM110.961 72V73H111.813L111.948 72.1589L110.961 72ZM61.6487 72.1563L64.1487 56.3563L62.1732 56.0437L59.6732 71.8437L61.6487 72.1563ZM63.8257 56.9471L87.4257 35.9471L86.0962 34.4529L62.4962 55.4529L63.8257 56.9471ZM87.4319 35.9415C90.2454 33.3959 92.3024 31.278 93.5609 29.6L91.9609 28.4C90.8195 29.922 88.8765 31.9374 86.09 34.4585L87.4319 35.9415ZM93.5571 29.6051C94.8828 27.8607 95.741 26.1501 96.0448 24.4789L94.0771 24.1211C93.8476 25.3832 93.1724 26.806 91.9648 28.3949L93.5571 29.6051ZM96.0497 24.4498C96.4179 22.0196 95.8827 19.9768 94.1856 18.6191L92.9362 20.1809C93.9058 20.9565 94.3707 22.1804 94.0722 24.1502L96.0497 24.4498ZM94.1856 18.6191C92.6071 17.3563 90.4157 16.8 87.7609 16.8V18.8C90.1729 18.8 91.8481 19.3104 92.9362 20.1809L94.1856 18.6191ZM87.7609 16.8C85.2414 16.8 82.5406 17.2547 79.6653 18.1447L80.2566 20.0553C82.9812 19.2119 85.4805 18.8 87.7609 18.8V16.8ZM79.6862 18.1385C76.7594 18.9747 73.7616 20.463 70.6936 22.5765L71.8282 24.2235C74.7603 22.2036 77.5624 20.8253 80.2357 20.0615L79.6862 18.1385ZM72.1943 23.041L66.1943 7.44102L64.3276 8.15898L70.3276 23.759L72.1943 23.041ZM65.812 8.63446C69.2466 6.36634 73.2824 4.5723 77.9321 3.26254L77.3898 1.33746C72.5728 2.69436 68.342 4.56699 64.7099 6.96553L65.812 8.63446ZM77.9321 3.26254C82.5819 1.95272 87.1907 1.3 91.7609 1.3V-0.700001C86.9978 -0.700001 82.2066 -0.0193939 77.3898 1.33746L77.9321 3.26254ZM91.7609 1.3C98.0019 1.3 102.927 2.28743 106.602 4.18821L107.52 2.41178C103.462 0.312567 98.1866 -0.700001 91.7609 -0.700001V1.3ZM106.62 4.19744C110.377 6.04424 112.923 8.58558 114.346 11.8045L116.175 10.9955C114.533 7.28108 111.611 4.42242 107.502 2.40255L106.62 4.19744ZM114.346 11.8045C115.786 15.0598 116.183 18.8573 115.474 23.2403L117.448 23.5597C118.206 18.876 117.802 14.6736 116.175 10.9955L114.346 11.8045ZM115.473 23.2456C114.833 27.3397 113.204 31.0834 110.57 34.4881L112.152 35.7119C114.985 32.0499 116.755 27.9936 117.449 23.5544L115.473 23.2456ZM110.563 34.4976C107.954 37.9546 104.445 41.5339 100.02 45.2327L101.302 46.7673C105.81 42.9995 109.435 39.312 112.159 35.7024L110.563 34.4976ZM100.023 45.2299L83.123 59.2299L84.3989 60.7701L101.299 46.7701L100.023 45.2299ZM84.7603 60.037L84.9603 54.637L82.9616 54.563L82.7616 59.963L84.7603 60.037ZM83.9609 55.6H113.761V53.6H83.9609V55.6ZM112.774 54.4411L109.974 71.8411L111.948 72.1589L114.748 54.7589L112.774 54.4411ZM110.961 71H60.6609V73H110.961V71Z" fill="url(#paint1_linear_488_6357)"/>
</g>
<defs>
<linearGradient id="paint0_linear_488_6357" x1="58.5" y1="-29" x2="58.5" y2="97" gradientUnits="userSpaceOnUse">
<stop stop-color="#7780A1"/>
<stop offset="1" stop-color="#7780A1" stop-opacity="0"/>
</linearGradient>
<linearGradient id="paint1_linear_488_6357" x1="58.5" y1="-29" x2="58.5" y2="97" gradientUnits="userSpaceOnUse">
<stop stop-color="#7780A1"/>
<stop offset="1" stop-color="#7780A1" stop-opacity="0"/>
</linearGradient>
</defs>
</svg>
