<svg width="119" height="74" viewBox="0 0 119 74" fill="none" xmlns="http://www.w3.org/2000/svg">
<g opacity="0.5">
<path d="M26.4 73.2C16.7333 73.2 10 69.8 6.2 63C2.4 56.1333 1.43333 46.6 3.3 34.4C5.16667 22.6667 8.73333 14.0667 14 8.6C19.2667 3.06667 26.1667 0.299999 34.7 0.299999C43.9667 0.299999 50.6333 3.46666 54.7 9.8C58.8333 16.1333 59.9 25.6667 57.9 38.4C56.0333 50.0667 52.3333 58.8 46.8 64.6C41.3333 70.3333 34.5333 73.2 26.4 73.2ZM27.9 56.2C30.2333 56.2 32.2 54.7 33.8 51.7C35.4 48.6333 36.7333 43.8667 37.8 37.4C38.6667 32.0667 39.0333 27.9667 38.9 25.1C38.8333 22.1667 38.3 20.1333 37.3 19C36.3667 17.8667 35.0333 17.3 33.3 17.3C30.9667 17.3 29 18.7 27.4 21.5C25.8667 24.2333 24.5667 28.8667 23.5 35.4C22.6333 40.7333 22.2333 44.9333 22.3 48C22.4333 51 22.9667 53.1333 23.9 54.4C24.9 55.6 26.2333 56.2 27.9 56.2ZM84.2609 73.2C79.1943 73.2 74.3943 72.5333 69.8609 71.2C65.3276 69.8667 61.8943 68.1 59.5609 65.9L66.4609 50C68.9943 51.8667 71.7609 53.3 74.7609 54.3C77.8276 55.2333 80.9943 55.7 84.2609 55.7C87.3943 55.7 89.7943 55.3 91.4609 54.5C93.1276 53.7 94.0943 52.3667 94.3609 50.5C94.8943 46.8333 92.8276 45 88.1609 45H74.6609L77.2609 28.2H88.0609C90.3943 28.2 92.2943 27.8667 93.7609 27.2C95.2276 26.4667 96.0943 25.2667 96.3609 23.6C96.6943 21.8667 96.2609 20.4667 95.0609 19.4C93.8609 18.3333 91.9609 17.8 89.3609 17.8C86.2943 17.8 83.2943 18.2667 80.3609 19.2C77.4943 20.1333 74.6609 21.5333 71.8609 23.4L65.8609 7.8C69.3943 5.46666 73.4943 3.63333 78.1609 2.3C82.8276 0.966665 87.5609 0.299999 92.3609 0.299999C101.561 0.299999 108.261 2.23333 112.461 6.1C116.661 9.89999 118.261 14.9333 117.261 21.2C116.661 25.1333 114.994 28.3667 112.261 30.9C109.594 33.4333 106.228 35.1667 102.161 36.1L102.361 34.6C106.361 35.2667 109.528 37.2 111.861 40.4C114.261 43.6 115.094 47.6 114.361 52.4C113.294 59.3333 110.061 64.5333 104.661 68C99.3276 71.4667 92.5276 73.2 84.2609 73.2Z" fill="url(#paint0_linear_488_6381)" fill-opacity="0.5"/>
<path d="M6.2 63L5.32504 63.4842L5.32706 63.4878L6.2 63ZM3.3 34.4L2.3124 34.2429L2.3115 34.2488L3.3 34.4ZM14 8.6L14.7202 9.29382L14.7243 9.28944L14 8.6ZM54.7 9.8L53.8585 10.3403L53.8626 10.3465L54.7 9.8ZM57.9 38.4L58.8875 38.558L58.8879 38.5552L57.9 38.4ZM46.8 64.6L46.0765 63.9097L46.0763 63.9099L46.8 64.6ZM33.8 51.7L34.6824 52.1706L34.6866 52.1626L33.8 51.7ZM37.8 37.4L38.7867 37.5628L38.7871 37.5604L37.8 37.4ZM38.9 25.1L37.9003 25.1227L37.9005 25.1346L37.9011 25.1465L38.9 25.1ZM37.3 19L36.5281 19.6357L36.5389 19.6488L36.5502 19.6616L37.3 19ZM27.4 21.5L26.5317 21.0038L26.5279 21.0107L27.4 21.5ZM23.5 35.4L22.5131 35.2389L22.5129 35.2396L23.5 35.4ZM22.3 48L21.3002 48.0217L21.3005 48.0331L21.301 48.0444L22.3 48ZM23.9 54.4L23.0949 54.9932L23.1127 55.0172L23.1318 55.0402L23.9 54.4ZM26.4 72.2C16.9931 72.2 10.6513 68.9155 7.07294 62.5122L5.32706 63.4878C9.34871 70.6845 16.4736 74.2 26.4 74.2V72.2ZM7.07496 62.5158C3.42789 55.9255 2.43735 46.6498 4.2885 34.5512L2.3115 34.2488C0.429317 46.5502 1.37211 56.3412 5.32504 63.4842L7.07496 62.5158ZM4.28758 34.5571C6.13894 22.92 9.65504 14.5513 14.7202 9.29381L13.2798 7.90619C7.81162 13.5821 4.19439 22.4133 2.31242 34.2429L4.28758 34.5571ZM14.7243 9.28944C19.7792 3.97863 26.4051 1.3 34.7 1.3V-0.700001C25.9282 -0.700001 18.7541 2.1547 13.2757 7.91056L14.7243 9.28944ZM34.7 1.3C43.7165 1.3 50.0198 4.36197 53.8585 10.3403L55.5415 9.25969C51.2469 2.57136 44.2168 -0.700001 34.7 -0.700001V1.3ZM53.8626 10.3465C57.793 16.3689 58.8987 25.5971 56.9121 38.2448L58.8879 38.5552C60.9013 25.7362 59.8737 15.8977 55.5374 9.25346L53.8626 10.3465ZM56.9126 38.242C55.0635 49.7985 51.4181 58.3107 46.0765 63.9097L47.5235 65.2903C53.2486 59.2893 57.0031 50.3348 58.8874 38.558L56.9126 38.242ZM46.0763 63.9099C40.8039 69.4395 34.2681 72.2 26.4 72.2V74.2C34.7986 74.2 41.8627 71.2272 47.5237 65.2901L46.0763 63.9099ZM27.9 57.2C30.7591 57.2 32.9973 55.3301 34.6824 52.1706L32.9176 51.2294C31.4027 54.0699 29.7075 55.2 27.9 55.2V57.2ZM34.6866 52.1626C36.3617 48.9519 37.7153 44.058 38.7867 37.5627L36.8133 37.2373C35.7514 43.6753 34.4383 48.3148 32.9134 51.2374L34.6866 52.1626ZM38.7871 37.5604C39.6569 32.2073 40.0372 28.0255 39.8989 25.0535L37.9011 25.1465C38.0295 27.9078 37.6764 31.926 36.813 37.2396L38.7871 37.5604ZM39.8997 25.0773C39.8321 22.0992 39.2975 19.7524 38.0498 18.3384L36.5502 19.6616C37.3025 20.5143 37.8346 22.2342 37.9003 25.1227L39.8997 25.0773ZM38.0719 18.3643C36.9136 16.9577 35.2722 16.3 33.3 16.3V18.3C34.7945 18.3 35.8198 18.7756 36.5281 19.6357L38.0719 18.3643ZM33.3 16.3C30.4764 16.3 28.2332 18.0263 26.5318 21.0039L28.2682 21.9961C29.7668 19.3737 31.457 18.3 33.3 18.3V16.3ZM26.5279 21.0107C24.9031 23.907 23.5824 28.6894 22.5131 35.2389L24.4869 35.5611C25.551 29.0439 26.8302 24.5597 28.2721 21.9893L26.5279 21.0107ZM22.5129 35.2396C21.6427 40.5951 21.2316 44.8649 21.3002 48.0217L23.2998 47.9783C23.2351 45.0017 23.624 40.8715 24.4871 35.5604L22.5129 35.2396ZM21.301 48.0444C21.4364 51.0903 21.978 53.4773 23.0949 54.9932L24.7051 53.8068C23.9554 52.7894 23.4303 50.9097 23.299 47.9556L21.301 48.0444ZM23.1318 55.0402C24.3358 56.4851 25.9593 57.2 27.9 57.2V55.2C26.5074 55.2 25.4642 54.7149 24.6682 53.7598L23.1318 55.0402ZM69.8609 71.2L70.1431 70.2406L69.8609 71.2ZM59.5609 65.9L58.6436 65.5019L58.3641 66.146L58.8749 66.6276L59.5609 65.9ZM66.4609 50L67.0541 49.1949L66.0434 48.4502L65.5436 49.6019L66.4609 50ZM74.7609 54.3L74.4447 55.2487L74.4572 55.2528L74.4698 55.2567L74.7609 54.3ZM91.4609 54.5L91.0282 53.5985L91.4609 54.5ZM94.3609 50.5L93.3713 50.3561L93.371 50.3586L94.3609 50.5ZM74.6609 45L73.6727 44.8471L73.4943 46H74.6609V45ZM77.2609 28.2V27.2H76.4038L76.2727 28.0471L77.2609 28.2ZM93.7609 27.2L94.1747 28.1104L94.1916 28.1027L94.2082 28.0944L93.7609 27.2ZM96.3609 23.6L95.3789 23.4112L95.376 23.4265L95.3735 23.442L96.3609 23.6ZM95.0609 19.4L94.3966 20.1474L95.0609 19.4ZM80.3609 19.2L80.0577 18.2471L80.0514 18.2491L80.3609 19.2ZM71.8609 23.4L70.9276 23.759L71.3761 24.9251L72.4156 24.232L71.8609 23.4ZM65.8609 7.8L65.3099 6.96553L64.639 7.40858L64.9276 8.15898L65.8609 7.8ZM78.1609 2.3L77.8862 1.33847V1.33847L78.1609 2.3ZM112.461 6.09999L111.784 6.83572L111.79 6.84153L112.461 6.09999ZM117.261 21.2L116.273 21.0424L116.272 21.0492L117.261 21.2ZM112.261 30.9L111.581 30.1665L111.572 30.175L112.261 30.9ZM102.161 36.1L101.17 35.9678L100.979 37.3972L102.385 37.0747L102.161 36.1ZM102.361 34.6L102.525 33.6136L101.506 33.4438L101.37 34.4678L102.361 34.6ZM111.861 40.4L111.053 40.9892L111.061 41L111.861 40.4ZM114.361 52.4L115.349 52.5521L115.349 52.551L114.361 52.4ZM104.661 68L104.121 67.1585L104.116 67.1616L104.661 68ZM84.2609 72.2C79.2829 72.2 74.5784 71.5451 70.1431 70.2406L69.5788 72.1594C74.2101 73.5215 79.1056 74.2 84.2609 74.2V72.2ZM70.1431 70.2406C65.6948 68.9323 62.4245 67.2255 60.247 65.1724L58.8749 66.6276C61.3641 68.9745 64.9604 70.801 69.5788 72.1594L70.1431 70.2406ZM60.4783 66.2981L67.3783 50.3981L65.5436 49.6019L58.6436 65.5019L60.4783 66.2981ZM65.8677 50.8051C68.4857 52.7341 71.3459 54.2158 74.4447 55.2487L75.0772 53.3513C72.1759 52.3842 69.5028 50.9992 67.0541 49.1949L65.8677 50.8051ZM74.4698 55.2567C77.6326 56.2193 80.8975 56.7 84.2609 56.7V54.7C81.091 54.7 78.0226 54.2474 75.0521 53.3433L74.4698 55.2567ZM84.2609 56.7C87.4537 56.7 90.029 56.2965 91.8937 55.4015L91.0282 53.5985C89.5595 54.3035 87.3349 54.7 84.2609 54.7V56.7ZM91.8937 55.4015C93.8685 54.4536 95.0381 52.8306 95.3509 50.6414L93.371 50.3586C93.1504 51.9027 92.3867 52.9464 91.0282 53.5985L91.8937 55.4015ZM95.3505 50.6439C95.6473 48.6034 95.2422 46.8402 93.8746 45.6269C92.5682 44.468 90.5831 44 88.1609 44V46C90.4055 46 91.787 46.4486 92.5473 47.1231C93.2463 47.7432 93.6079 48.7299 93.3714 50.3561L95.3505 50.6439ZM88.1609 44H74.6609V46H88.1609V44ZM75.6492 45.1529L78.2492 28.3529L76.2727 28.0471L73.6727 44.8471L75.6492 45.1529ZM77.2609 29.2H88.0609V27.2H77.2609V29.2ZM88.0609 29.2C90.478 29.2 92.5334 28.8564 94.1747 28.1104L93.3471 26.2896C92.0551 26.8769 90.3105 27.2 88.0609 27.2V29.2ZM94.2082 28.0944C95.9729 27.2121 97.0326 25.7318 97.3484 23.758L95.3735 23.442C95.156 24.8016 94.4823 25.7213 93.3137 26.3056L94.2082 28.0944ZM97.3429 23.7888C97.7349 21.7507 97.219 19.9803 95.7253 18.6526L94.3966 20.1474C95.3029 20.953 95.6537 21.9826 95.3789 23.4112L97.3429 23.7888ZM95.7253 18.6526C94.2581 17.3484 92.0631 16.8 89.3609 16.8V18.8C91.8588 18.8 93.4638 19.3183 94.3966 20.1474L95.7253 18.6526ZM89.3609 16.8C86.191 16.8 83.0887 17.2827 80.0577 18.2471L80.6641 20.1529C83.4998 19.2507 86.3976 18.8 89.3609 18.8V16.8ZM80.0514 18.2491C77.0885 19.2138 74.1735 20.6565 71.3062 22.5679L72.4156 24.232C75.1484 22.4102 77.9 21.0529 80.6705 20.1509L80.0514 18.2491ZM72.7943 23.041L66.7943 7.44102L64.9276 8.15898L70.9276 23.759L72.7943 23.041ZM66.412 8.63446C69.8488 6.36485 73.853 4.57085 78.4357 3.26152L77.8862 1.33847C73.1356 2.6958 68.9397 4.56847 65.3099 6.96553L66.412 8.63446ZM78.4357 3.26152C83.014 1.95343 87.6549 1.3 92.3609 1.3V-0.700001C87.467 -0.700001 82.6412 -0.0200977 77.8862 1.33847L78.4357 3.26152ZM92.3609 1.3C101.455 1.3 107.853 3.2169 111.784 6.83569L113.138 5.3643C108.669 1.24977 101.666 -0.700001 92.3609 -0.700001V1.3ZM111.79 6.84153C115.706 10.3842 117.228 15.0623 116.273 21.0424L118.248 21.3576C119.294 14.8044 117.616 9.41578 113.132 5.35846L111.79 6.84153ZM116.272 21.0492C115.704 24.7752 114.137 27.7977 111.581 30.1666L112.941 31.6334C115.852 28.9356 117.618 25.4915 118.25 21.3508L116.272 21.0492ZM111.572 30.175C109.052 32.5691 105.853 34.2266 101.937 35.1253L102.385 37.0747C106.602 36.1068 110.136 34.2976 112.95 31.625L111.572 30.175ZM103.152 36.2322L103.352 34.7322L101.37 34.4678L101.17 35.9678L103.152 36.2322ZM102.197 35.5864C105.945 36.2112 108.878 38.0063 111.053 40.9892L112.669 39.8108C110.177 36.3937 106.777 34.3222 102.525 33.6136L102.197 35.5864ZM111.061 41C113.266 43.9405 114.074 47.6537 113.372 52.249L115.349 52.551C116.114 47.5463 115.256 43.2595 112.661 39.8L111.061 41ZM113.373 52.2479C112.345 58.9275 109.255 63.8623 104.121 67.1585L105.201 68.8415C110.867 65.2044 114.244 59.7392 115.349 52.5521L113.373 52.2479ZM104.116 67.1616C98.9869 70.4954 92.3913 72.2 84.2609 72.2V74.2C92.6639 74.2 99.6683 72.4379 105.206 68.8384L104.116 67.1616Z" fill="url(#paint1_linear_488_6381)"/>
</g>
<defs>
<linearGradient id="paint0_linear_488_6381" x1="59" y1="-29" x2="59" y2="97" gradientUnits="userSpaceOnUse">
<stop stop-color="#7780A1"/>
<stop offset="1" stop-color="#7780A1" stop-opacity="0"/>
</linearGradient>
<linearGradient id="paint1_linear_488_6381" x1="59" y1="-29" x2="59" y2="97" gradientUnits="userSpaceOnUse">
<stop stop-color="#7780A1"/>
<stop offset="1" stop-color="#7780A1" stop-opacity="0"/>
</linearGradient>
</defs>
</svg>
