<svg width="120" height="74" viewBox="0 0 120 74" fill="none" xmlns="http://www.w3.org/2000/svg">
<g opacity="0.5">
<path d="M26.4 73.2C16.7333 73.2 10 69.8 6.2 63C2.4 56.1333 1.43333 46.6 3.3 34.4C5.16667 22.6667 8.73333 14.0667 14 8.6C19.2667 3.06667 26.1667 0.299999 34.7 0.299999C43.9667 0.299999 50.6333 3.46666 54.7 9.8C58.8333 16.1333 59.9 25.6667 57.9 38.4C56.0333 50.0667 52.3333 58.8 46.8 64.6C41.3333 70.3333 34.5333 73.2 26.4 73.2ZM27.9 56.2C30.2333 56.2 32.2 54.7 33.8 51.7C35.4 48.6333 36.7333 43.8667 37.8 37.4C38.6667 32.0667 39.0333 27.9667 38.9 25.1C38.8333 22.1667 38.3 20.1333 37.3 19C36.3667 17.8667 35.0333 17.3 33.3 17.3C30.9667 17.3 29 18.7 27.4 21.5C25.8667 24.2333 24.5667 28.8667 23.5 35.4C22.6333 40.7333 22.2333 44.9333 22.3 48C22.4333 51 22.9667 53.1333 23.9 54.4C24.9 55.6 26.2333 56.2 27.9 56.2ZM85.6609 73.2C82.5276 73.2 79.3943 72.8667 76.2609 72.2C73.1943 71.6 70.3943 70.7667 67.8609 69.7C65.3276 68.5667 63.2943 67.3 61.7609 65.9L68.6609 50C71.1943 51.8 73.9276 53.2 76.8609 54.2C79.8609 55.2 82.8943 55.7 85.9609 55.7C88.8943 55.7 91.2276 55.1667 92.9609 54.1C94.6943 53.0333 95.6943 51.6 95.9609 49.8C96.2943 47.4667 95.7609 45.7333 94.3609 44.6C92.9609 43.4667 90.9943 42.9 88.4609 42.9C86.5943 42.9 84.7943 43.2 83.0609 43.8C81.3943 44.3333 79.6943 45.1667 77.9609 46.3H64.8609L71.9609 1.5H119.461L116.661 18.9H89.1609L87.2609 30.9H82.5609C84.3609 29.3 86.4276 28.1 88.7609 27.3C91.0943 26.4333 93.9276 26 97.2609 26C101.461 26 105.128 26.9667 108.261 28.9C111.394 30.8333 113.694 33.6667 115.161 37.4C116.694 41.0667 117.028 45.5 116.161 50.7C115.494 54.9667 113.894 58.8 111.361 62.2C108.828 65.6 105.394 68.3 101.061 70.3C96.7943 72.2333 91.6609 73.2 85.6609 73.2Z" fill="url(#paint0_linear_488_6407)" fill-opacity="0.5"/>
<path d="M6.2 63L5.32504 63.4842L5.32706 63.4878L6.2 63ZM3.3 34.4L2.3124 34.2429L2.3115 34.2488L3.3 34.4ZM14 8.6L14.7202 9.29382L14.7243 9.28944L14 8.6ZM54.7 9.8L53.8585 10.3403L53.8626 10.3465L54.7 9.8ZM57.9 38.4L58.8875 38.558L58.8879 38.5552L57.9 38.4ZM46.8 64.6L46.0765 63.9097L46.0763 63.9099L46.8 64.6ZM33.8 51.7L34.6824 52.1706L34.6866 52.1626L33.8 51.7ZM37.8 37.4L38.7867 37.5628L38.7871 37.5604L37.8 37.4ZM38.9 25.1L37.9003 25.1227L37.9005 25.1346L37.9011 25.1465L38.9 25.1ZM37.3 19L36.5281 19.6357L36.5389 19.6488L36.5502 19.6616L37.3 19ZM27.4 21.5L26.5317 21.0038L26.5279 21.0107L27.4 21.5ZM23.5 35.4L22.5131 35.2389L22.5129 35.2396L23.5 35.4ZM22.3 48L21.3002 48.0217L21.3005 48.0331L21.301 48.0444L22.3 48ZM23.9 54.4L23.0949 54.9932L23.1127 55.0172L23.1318 55.0402L23.9 54.4ZM26.4 72.2C16.9931 72.2 10.6513 68.9155 7.07294 62.5122L5.32706 63.4878C9.34871 70.6845 16.4736 74.2 26.4 74.2V72.2ZM7.07496 62.5158C3.42789 55.9255 2.43735 46.6498 4.2885 34.5512L2.3115 34.2488C0.429317 46.5502 1.37211 56.3412 5.32504 63.4842L7.07496 62.5158ZM4.28758 34.5571C6.13894 22.92 9.65504 14.5513 14.7202 9.29381L13.2798 7.90619C7.81162 13.5821 4.19439 22.4133 2.31242 34.2429L4.28758 34.5571ZM14.7243 9.28944C19.7792 3.97863 26.4051 1.3 34.7 1.3V-0.700001C25.9282 -0.700001 18.7541 2.1547 13.2757 7.91056L14.7243 9.28944ZM34.7 1.3C43.7165 1.3 50.0198 4.36197 53.8585 10.3403L55.5415 9.25969C51.2469 2.57136 44.2168 -0.700001 34.7 -0.700001V1.3ZM53.8626 10.3465C57.793 16.3689 58.8987 25.5971 56.9121 38.2448L58.8879 38.5552C60.9013 25.7362 59.8737 15.8977 55.5374 9.25346L53.8626 10.3465ZM56.9126 38.242C55.0635 49.7985 51.4181 58.3107 46.0765 63.9097L47.5235 65.2903C53.2486 59.2893 57.0031 50.3348 58.8874 38.558L56.9126 38.242ZM46.0763 63.9099C40.8039 69.4395 34.2681 72.2 26.4 72.2V74.2C34.7986 74.2 41.8627 71.2272 47.5237 65.2901L46.0763 63.9099ZM27.9 57.2C30.7591 57.2 32.9973 55.3301 34.6824 52.1706L32.9176 51.2294C31.4027 54.0699 29.7075 55.2 27.9 55.2V57.2ZM34.6866 52.1626C36.3617 48.9519 37.7153 44.058 38.7867 37.5627L36.8133 37.2373C35.7514 43.6753 34.4383 48.3148 32.9134 51.2374L34.6866 52.1626ZM38.7871 37.5604C39.6569 32.2073 40.0372 28.0255 39.8989 25.0535L37.9011 25.1465C38.0295 27.9078 37.6764 31.926 36.813 37.2396L38.7871 37.5604ZM39.8997 25.0773C39.8321 22.0992 39.2975 19.7524 38.0498 18.3384L36.5502 19.6616C37.3025 20.5143 37.8346 22.2342 37.9003 25.1227L39.8997 25.0773ZM38.0719 18.3643C36.9136 16.9577 35.2722 16.3 33.3 16.3V18.3C34.7945 18.3 35.8198 18.7756 36.5281 19.6357L38.0719 18.3643ZM33.3 16.3C30.4764 16.3 28.2332 18.0263 26.5318 21.0039L28.2682 21.9961C29.7668 19.3737 31.457 18.3 33.3 18.3V16.3ZM26.5279 21.0107C24.9031 23.907 23.5824 28.6894 22.5131 35.2389L24.4869 35.5611C25.551 29.0439 26.8302 24.5597 28.2721 21.9893L26.5279 21.0107ZM22.5129 35.2396C21.6427 40.5951 21.2316 44.8649 21.3002 48.0217L23.2998 47.9783C23.2351 45.0017 23.624 40.8715 24.4871 35.5604L22.5129 35.2396ZM21.301 48.0444C21.4364 51.0903 21.978 53.4773 23.0949 54.9932L24.7051 53.8068C23.9554 52.7894 23.4303 50.9097 23.299 47.9556L21.301 48.0444ZM23.1318 55.0402C24.3358 56.4851 25.9593 57.2 27.9 57.2V55.2C26.5074 55.2 25.4642 54.7149 24.6682 53.7598L23.1318 55.0402ZM76.2609 72.2L76.469 71.2219L76.461 71.2202L76.4529 71.2186L76.2609 72.2ZM67.8609 69.7L67.4526 70.6128L67.4627 70.6173L67.4729 70.6216L67.8609 69.7ZM61.7609 65.9L60.8436 65.5019L60.5593 66.157L61.0867 66.6385L61.7609 65.9ZM68.6609 50L69.2401 49.1848L68.2346 48.4704L67.7436 49.6019L68.6609 50ZM76.8609 54.2L76.5383 55.1465L76.5447 55.1487L76.8609 54.2ZM92.9609 54.1L92.4368 53.2483L92.9609 54.1ZM95.9609 49.8L96.9502 49.9465L96.9509 49.9414L95.9609 49.8ZM94.3609 44.6L94.9901 43.8228L94.3609 44.6ZM83.0609 43.8L83.3657 44.7524L83.3769 44.7488L83.388 44.745L83.0609 43.8ZM77.9609 46.3V47.3H78.2589L78.5082 47.137L77.9609 46.3ZM64.8609 46.3L63.8733 46.1435L63.69 47.3H64.8609V46.3ZM71.9609 1.5V0.499996H71.1069L70.9733 1.34347L71.9609 1.5ZM119.461 1.5L120.448 1.65887L120.635 0.499996H119.461V1.5ZM116.661 18.9V19.9H117.513L117.648 19.0589L116.661 18.9ZM89.1609 18.9V17.9H88.3068L88.1732 18.7436L89.1609 18.9ZM87.2609 30.9V31.9H88.1151L88.2486 31.0564L87.2609 30.9ZM82.5609 30.9L81.8966 30.1526L79.9307 31.9H82.5609V30.9ZM88.7609 27.3L89.0853 28.2459L89.0972 28.2418L89.1091 28.2374L88.7609 27.3ZM108.261 28.9L108.786 28.049L108.261 28.9ZM115.161 37.4L114.23 37.7656L114.234 37.7758L114.238 37.7858L115.161 37.4ZM116.161 50.7L115.174 50.5356L115.173 50.5456L116.161 50.7ZM111.361 62.2L112.163 62.7975L111.361 62.2ZM101.061 70.3L101.474 71.2109L101.48 71.208L101.061 70.3ZM85.6609 72.2C82.5991 72.2 79.5355 71.8743 76.469 71.2219L76.0528 73.1781C79.253 73.859 82.4561 74.2 85.6609 74.2V72.2ZM76.4529 71.2186C73.4445 70.63 70.7113 69.8151 68.249 68.7784L67.4729 70.6216C70.0772 71.7182 72.944 72.57 76.0689 73.1814L76.4529 71.2186ZM68.2693 68.7872C65.8027 67.6837 63.8683 66.47 62.4352 65.1615L61.0867 66.6385C62.7202 68.13 64.8525 69.4496 67.4526 70.6128L68.2693 68.7872ZM62.6783 66.2981L69.5783 50.3981L67.7436 49.6019L60.8436 65.5019L62.6783 66.2981ZM68.0817 50.8152C70.6936 52.671 73.5133 54.1153 76.5383 55.1465L77.1836 53.2535C74.3419 52.2847 71.695 50.929 69.2401 49.1848L68.0817 50.8152ZM76.5447 55.1487C79.6435 56.1816 82.7834 56.7 85.9609 56.7V54.7C83.0051 54.7 80.0784 54.2184 77.1772 53.2513L76.5447 55.1487ZM85.9609 56.7C89.0021 56.7 91.5392 56.1491 93.485 54.9517L92.4368 53.2483C90.916 54.1843 88.7864 54.7 85.9609 54.7V56.7ZM93.485 54.9517C95.4364 53.7508 96.6347 52.0756 96.9501 49.9465L94.9717 49.6535C94.7538 51.1244 93.9522 52.3158 92.4368 53.2483L93.485 54.9517ZM96.9509 49.9414C97.3165 47.3821 96.7477 45.2456 94.9901 43.8228L93.7317 45.3772C94.7741 46.2211 95.272 47.5512 94.971 49.6586L96.9509 49.9414ZM94.9901 43.8228C93.352 42.4967 91.1318 41.9 88.4609 41.9V43.9C90.8568 43.9 92.5699 44.4367 93.7317 45.3772L94.9901 43.8228ZM88.4609 41.9C86.4849 41.9 84.5742 42.2179 82.7338 42.855L83.388 44.745C85.0143 44.1821 86.7036 43.9 88.4609 43.9V41.9ZM82.7562 42.8476C80.9899 43.4128 79.2089 44.2892 77.4137 45.463L78.5082 47.137C80.1796 46.0441 81.7987 45.2539 83.3657 44.7524L82.7562 42.8476ZM77.9609 45.3H64.8609V47.3H77.9609V45.3ZM65.8486 46.4565L72.9486 1.65652L70.9733 1.34347L63.8733 46.1435L65.8486 46.4565ZM71.9609 2.5H119.461V0.499996H71.9609V2.5ZM118.474 1.34112L115.674 18.7411L117.648 19.0589L120.448 1.65887L118.474 1.34112ZM116.661 17.9H89.1609V19.9H116.661V17.9ZM88.1732 18.7436L86.2732 30.7436L88.2486 31.0564L90.1486 19.0564L88.1732 18.7436ZM87.2609 29.9H82.5609V31.9H87.2609V29.9ZM83.2253 31.6474C84.9238 30.1376 86.8742 29.004 89.0853 28.2459L88.4366 26.354C85.981 27.196 83.7981 28.4624 81.8966 30.1526L83.2253 31.6474ZM89.1091 28.2374C91.3004 27.4235 94.0086 27 97.2609 27V25C93.8466 25 90.8882 25.4431 88.4128 26.3626L89.1091 28.2374ZM97.2609 27C101.302 27 104.782 27.9282 107.736 29.751L108.786 28.049C105.474 26.0051 101.62 25 97.2609 25V27ZM107.736 29.751C110.668 31.5604 112.835 34.2147 114.23 37.7656L116.092 37.0343C114.553 33.1187 112.12 30.1062 108.786 28.049L107.736 29.751ZM114.238 37.7858C115.679 41.2306 116.02 45.4622 115.175 50.5356L117.147 50.8644C118.035 45.5378 117.71 40.9027 116.084 37.0142L114.238 37.7858ZM115.173 50.5456C114.531 54.6547 112.993 58.3354 110.559 61.6025L112.163 62.7975C114.795 59.2646 116.458 55.2786 117.149 50.8544L115.173 50.5456ZM110.559 61.6025C108.137 64.8526 104.843 67.453 100.642 69.392L101.48 71.208C105.946 69.1469 109.518 66.3474 112.163 62.7975L110.559 61.6025ZM100.648 69.3891C96.5422 71.2497 91.5571 72.2 85.6609 72.2V74.2C91.7648 74.2 97.0463 73.217 101.474 71.2109L100.648 69.3891Z" fill="url(#paint1_linear_488_6407)"/>
</g>
<defs>
<linearGradient id="paint0_linear_488_6407" x1="59" y1="-29" x2="59" y2="97" gradientUnits="userSpaceOnUse">
<stop stop-color="#7780A1"/>
<stop offset="1" stop-color="#7780A1" stop-opacity="0"/>
</linearGradient>
<linearGradient id="paint1_linear_488_6407" x1="59" y1="-29" x2="59" y2="97" gradientUnits="userSpaceOnUse">
<stop stop-color="#7780A1"/>
<stop offset="1" stop-color="#7780A1" stop-opacity="0"/>
</linearGradient>
</defs>
</svg>
