<svg width="122" height="74" viewBox="0 0 122 74" fill="none" xmlns="http://www.w3.org/2000/svg">
<g opacity="0.5">
<path d="M26.4 73.2C16.7333 73.2 10 69.8 6.2 63C2.4 56.1333 1.43333 46.6 3.3 34.4C5.16667 22.6667 8.73333 14.0667 14 8.6C19.2667 3.06667 26.1667 0.299999 34.7 0.299999C43.9667 0.299999 50.6333 3.46666 54.7 9.8C58.8333 16.1333 59.9 25.6667 57.9 38.4C56.0333 50.0667 52.3333 58.8 46.8 64.6C41.3333 70.3333 34.5333 73.2 26.4 73.2ZM27.9 56.2C30.2333 56.2 32.2 54.7 33.8 51.7C35.4 48.6333 36.7333 43.8667 37.8 37.4C38.6667 32.0667 39.0333 27.9667 38.9 25.1C38.8333 22.1667 38.3 20.1333 37.3 19C36.3667 17.8667 35.0333 17.3 33.3 17.3C30.9667 17.3 29 18.7 27.4 21.5C25.8667 24.2333 24.5667 28.8667 23.5 35.4C22.6333 40.7333 22.2333 44.9333 22.3 48C22.4333 51 22.9667 53.1333 23.9 54.4C24.9 55.6 26.2333 56.2 27.9 56.2ZM88.7609 73.2C82.0276 73.2 76.5943 71.6333 72.4609 68.5C68.3943 65.3 65.6276 60.8667 64.1609 55.2C62.6943 49.4667 62.5943 42.7667 63.8609 35.1C65.0609 27.4333 67.3609 21.0333 70.7609 15.9C74.2276 10.7 78.5276 6.8 83.6609 4.2C88.8609 1.6 94.6276 0.299999 100.961 0.299999C104.894 0.299999 108.628 0.799999 112.161 1.8C115.761 2.8 118.928 4.46666 121.661 6.8L114.661 22.8C112.528 21.1333 110.194 19.9 107.661 19.1C105.194 18.2333 102.628 17.8 99.9609 17.8C95.4943 17.8 91.9276 19.1 89.2609 21.7C86.6609 24.2333 84.9276 28.0667 84.0609 33.2L83.4609 37.2H81.7609C83.2943 33.3333 85.5276 30.3333 88.4609 28.2C91.4609 26.0667 94.9943 25 99.0609 25C102.861 25 106.194 26.0333 109.061 28.1C111.994 30.1667 114.128 33.1 115.461 36.9C116.861 40.6333 117.161 45.0667 116.361 50.2C115.561 55.3333 113.828 59.6333 111.161 63.1C108.494 66.5 105.228 69.0333 101.361 70.7C97.4943 72.3667 93.2943 73.2 88.7609 73.2ZM89.6609 57C91.7276 57 93.3609 56.3 94.5609 54.9C95.8276 53.4333 96.6276 51.5667 96.9609 49.3C97.3609 46.7667 97.0276 44.8 95.9609 43.4C94.9609 41.9333 93.3943 41.2 91.2609 41.2C89.1943 41.2 87.5276 41.9 86.2609 43.3C84.9943 44.7 84.1943 46.5 83.8609 48.7C83.4609 51.3 83.7943 53.3333 84.8609 54.8C85.9276 56.2667 87.5276 57 89.6609 57Z" fill="url(#paint0_linear_488_6419)" fill-opacity="0.5"/>
<path d="M6.2 63L5.32504 63.4842L5.32706 63.4878L6.2 63ZM3.3 34.4L2.3124 34.2429L2.3115 34.2488L3.3 34.4ZM14 8.6L14.7202 9.29382L14.7243 9.28944L14 8.6ZM54.7 9.8L53.8585 10.3403L53.8626 10.3465L54.7 9.8ZM57.9 38.4L58.8875 38.558L58.8879 38.5552L57.9 38.4ZM46.8 64.6L46.0765 63.9097L46.0763 63.9099L46.8 64.6ZM33.8 51.7L34.6824 52.1706L34.6866 52.1626L33.8 51.7ZM37.8 37.4L38.7867 37.5628L38.7871 37.5604L37.8 37.4ZM38.9 25.1L37.9003 25.1227L37.9005 25.1346L37.9011 25.1465L38.9 25.1ZM37.3 19L36.5281 19.6357L36.5389 19.6488L36.5502 19.6616L37.3 19ZM27.4 21.5L26.5317 21.0038L26.5279 21.0107L27.4 21.5ZM23.5 35.4L22.5131 35.2389L22.5129 35.2396L23.5 35.4ZM22.3 48L21.3002 48.0217L21.3005 48.0331L21.301 48.0444L22.3 48ZM23.9 54.4L23.0949 54.9932L23.1127 55.0172L23.1318 55.0402L23.9 54.4ZM26.4 72.2C16.9931 72.2 10.6513 68.9155 7.07294 62.5122L5.32706 63.4878C9.34871 70.6845 16.4736 74.2 26.4 74.2V72.2ZM7.07496 62.5158C3.42789 55.9255 2.43735 46.6498 4.2885 34.5512L2.3115 34.2488C0.429317 46.5502 1.37211 56.3412 5.32504 63.4842L7.07496 62.5158ZM4.28758 34.5571C6.13894 22.92 9.65504 14.5513 14.7202 9.29381L13.2798 7.90619C7.81162 13.5821 4.19439 22.4133 2.31242 34.2429L4.28758 34.5571ZM14.7243 9.28944C19.7792 3.97863 26.4051 1.3 34.7 1.3V-0.700001C25.9282 -0.700001 18.7541 2.1547 13.2757 7.91056L14.7243 9.28944ZM34.7 1.3C43.7165 1.3 50.0198 4.36197 53.8585 10.3403L55.5415 9.25969C51.2469 2.57136 44.2168 -0.700001 34.7 -0.700001V1.3ZM53.8626 10.3465C57.793 16.3689 58.8987 25.5971 56.9121 38.2448L58.8879 38.5552C60.9013 25.7362 59.8737 15.8977 55.5374 9.25346L53.8626 10.3465ZM56.9126 38.242C55.0635 49.7985 51.4181 58.3107 46.0765 63.9097L47.5235 65.2903C53.2486 59.2893 57.0031 50.3348 58.8874 38.558L56.9126 38.242ZM46.0763 63.9099C40.8039 69.4395 34.2681 72.2 26.4 72.2V74.2C34.7986 74.2 41.8627 71.2272 47.5237 65.2901L46.0763 63.9099ZM27.9 57.2C30.7591 57.2 32.9973 55.3301 34.6824 52.1706L32.9176 51.2294C31.4027 54.0699 29.7075 55.2 27.9 55.2V57.2ZM34.6866 52.1626C36.3617 48.9519 37.7153 44.058 38.7867 37.5627L36.8133 37.2373C35.7514 43.6753 34.4383 48.3148 32.9134 51.2374L34.6866 52.1626ZM38.7871 37.5604C39.6569 32.2073 40.0372 28.0255 39.8989 25.0535L37.9011 25.1465C38.0295 27.9078 37.6764 31.926 36.813 37.2396L38.7871 37.5604ZM39.8997 25.0773C39.8321 22.0992 39.2975 19.7524 38.0498 18.3384L36.5502 19.6616C37.3025 20.5143 37.8346 22.2342 37.9003 25.1227L39.8997 25.0773ZM38.0719 18.3643C36.9136 16.9577 35.2722 16.3 33.3 16.3V18.3C34.7945 18.3 35.8198 18.7756 36.5281 19.6357L38.0719 18.3643ZM33.3 16.3C30.4764 16.3 28.2332 18.0263 26.5318 21.0039L28.2682 21.9961C29.7668 19.3737 31.457 18.3 33.3 18.3V16.3ZM26.5279 21.0107C24.9031 23.907 23.5824 28.6894 22.5131 35.2389L24.4869 35.5611C25.551 29.0439 26.8302 24.5597 28.2721 21.9893L26.5279 21.0107ZM22.5129 35.2396C21.6427 40.5951 21.2316 44.8649 21.3002 48.0217L23.2998 47.9783C23.2351 45.0017 23.624 40.8715 24.4871 35.5604L22.5129 35.2396ZM21.301 48.0444C21.4364 51.0903 21.978 53.4773 23.0949 54.9932L24.7051 53.8068C23.9554 52.7894 23.4303 50.9097 23.299 47.9556L21.301 48.0444ZM23.1318 55.0402C24.3358 56.4851 25.9593 57.2 27.9 57.2V55.2C26.5074 55.2 25.4642 54.7149 24.6682 53.7598L23.1318 55.0402ZM72.4609 68.5L71.8425 69.2859L71.8496 69.2915L71.8568 69.2969L72.4609 68.5ZM64.1609 55.2L63.1921 55.4478L63.1928 55.4506L64.1609 55.2ZM63.8609 35.1L64.8476 35.263L64.8489 35.2546L63.8609 35.1ZM70.7609 15.9L69.9289 15.3453L69.9272 15.3478L70.7609 15.9ZM83.6609 4.2L83.2137 3.30556L83.2091 3.3079L83.6609 4.2ZM112.161 1.8L111.889 2.76221L111.893 2.76352L112.161 1.8ZM121.661 6.8L122.577 7.20082L122.874 6.52112L122.31 6.03944L121.661 6.8ZM114.661 22.8L114.045 23.588L115.061 24.3813L115.577 23.2008L114.661 22.8ZM107.661 19.1L107.329 20.0435L107.345 20.0488L107.36 20.0536L107.661 19.1ZM89.2609 21.7L89.9588 22.4162L89.959 22.416L89.2609 21.7ZM84.0609 33.2L83.0749 33.0335L83.0734 33.0426L83.072 33.0517L84.0609 33.2ZM83.4609 37.2V38.2H84.3221L84.4499 37.3483L83.4609 37.2ZM81.7609 37.2L80.8314 36.8314L80.2886 38.2H81.7609V37.2ZM88.4609 28.2L87.8814 27.385L87.8728 27.3913L88.4609 28.2ZM109.061 28.1L108.476 28.9112L108.485 28.9175L109.061 28.1ZM115.461 36.9L114.517 37.2311L114.521 37.2411L114.525 37.2511L115.461 36.9ZM116.361 50.2L115.373 50.046L116.361 50.2ZM111.161 63.1L111.948 63.7172L111.954 63.7097L111.161 63.1ZM101.361 70.7L101.757 71.6183L101.361 70.7ZM94.5609 54.9L93.8041 54.2464L93.8017 54.2492L94.5609 54.9ZM96.9609 49.3L95.9731 49.144L95.9716 49.1545L96.9609 49.3ZM95.9609 43.4L95.1347 43.9633L95.1495 43.9851L95.1655 44.006L95.9609 43.4ZM86.2609 43.3L85.5194 42.6291L86.2609 43.3ZM83.8609 48.7L84.8493 48.8521L84.8497 48.8498L83.8609 48.7ZM84.8609 54.8L84.0522 55.3882L84.8609 54.8ZM88.7609 72.2C82.1805 72.2 76.9789 70.67 73.065 67.7031L71.8568 69.2969C76.2097 72.5966 81.8747 74.2 88.7609 74.2V72.2ZM73.0793 67.7141C69.2069 64.667 66.5484 60.4333 65.129 54.9494L63.1928 55.4506C64.7068 61.3 67.5816 65.933 71.8425 69.2859L73.0793 67.7141ZM65.1297 54.9522C63.7064 49.388 63.5967 42.8338 64.8476 35.263L62.8743 34.937C61.5918 42.6996 61.6822 49.5453 63.1921 55.4478L65.1297 54.9522ZM64.8489 35.2546C66.0323 27.6942 68.2919 21.4387 71.5947 16.4522L69.9272 15.3478C66.43 20.628 64.0896 27.1725 62.873 34.9454L64.8489 35.2546ZM71.593 16.4547C74.9726 11.3853 79.1462 7.60764 84.1128 5.09209L83.2091 3.3079C77.909 5.99235 73.4827 10.0147 69.9289 15.3453L71.593 16.4547ZM84.1082 5.09443C89.1572 2.56991 94.7687 1.3 100.961 1.3V-0.700001C94.4865 -0.700001 88.5647 0.630091 83.2137 3.30557L84.1082 5.09443ZM100.961 1.3C104.809 1.3 108.45 1.789 111.889 2.7622L112.433 0.837791C108.805 -0.189001 104.98 -0.700001 100.961 -0.700001V1.3ZM111.893 2.76352C115.359 3.72608 118.394 5.32567 121.012 7.56056L122.31 6.03944C119.462 3.60766 116.163 1.87391 112.429 0.836479L111.893 2.76352ZM120.745 6.39918L113.745 22.3992L115.577 23.2008L122.577 7.20082L120.745 6.39918ZM115.277 22.012C113.051 20.2732 110.611 18.9831 107.962 18.1464L107.36 20.0536C109.777 20.8169 112.004 21.9935 114.045 23.588L115.277 22.012ZM107.992 18.1565C105.417 17.2517 102.738 16.8 99.9609 16.8V18.8C102.517 18.8 104.971 19.215 107.329 20.0435L107.992 18.1565ZM99.9609 16.8C95.2889 16.8 91.4525 18.1666 88.5628 20.984L89.959 22.416C92.4027 20.0334 95.6997 18.8 99.9609 18.8V16.8ZM88.5631 20.9838C85.7579 23.717 83.9621 27.7786 83.0749 33.0335L85.047 33.3665C85.8931 28.3548 87.5639 24.7497 89.9588 22.4162L88.5631 20.9838ZM83.072 33.0517L82.472 37.0517L84.4499 37.3483L85.0499 33.3483L83.072 33.0517ZM83.4609 36.2H81.7609V38.2H83.4609V36.2ZM82.6905 37.5686C84.1645 33.8516 86.2905 31.015 89.0491 29.0087L87.8728 27.3913C84.7647 29.6516 82.424 32.8151 80.8314 36.8314L82.6905 37.5686ZM89.0405 29.015C91.8535 27.0146 95.1792 26 99.0609 26V24C94.8094 24 91.0684 25.1188 87.8814 27.385L89.0405 29.015ZM99.0609 26C102.668 26 105.793 26.9767 108.476 28.9112L109.646 27.2888C106.596 25.09 103.054 24 99.0609 24V26ZM108.485 28.9175C111.228 30.8498 113.244 33.6025 114.517 37.2311L116.405 36.5689C115.011 32.5975 112.761 29.4835 109.637 27.2825L108.485 28.9175ZM114.525 37.2511C115.849 40.7817 116.154 45.0326 115.373 50.046L117.349 50.354C118.168 45.1007 117.873 40.4849 116.397 36.5489L114.525 37.2511ZM115.373 50.046C114.594 55.0446 112.915 59.1796 110.368 62.4903L111.954 63.7097C114.74 60.087 116.528 55.6221 117.349 50.354L115.373 50.046ZM110.374 62.4829C107.808 65.755 104.674 68.1829 100.965 69.7817L101.757 71.6183C105.781 69.8837 109.181 67.245 111.948 63.7171L110.374 62.4829ZM100.965 69.7817C97.2328 71.3904 93.1687 72.2 88.7609 72.2V74.2C93.4198 74.2 97.7557 73.3429 101.757 71.6183L100.965 69.7817ZM89.6609 58C91.98 58 93.9059 57.2008 95.3202 55.5508L93.8017 54.2492C92.816 55.3992 91.4752 56 89.6609 56V58ZM95.3178 55.5536C96.7298 53.9187 97.5944 51.8654 97.9503 49.4455L95.9716 49.1545C95.6608 51.2679 94.9254 52.948 93.8041 54.2464L95.3178 55.5536ZM97.9487 49.456C98.3717 46.7771 98.0516 44.494 96.7564 42.794L95.1655 44.006C96.0036 45.106 96.3502 46.7562 95.9732 49.144L97.9487 49.456ZM96.7872 42.8367C95.5617 41.0393 93.6486 40.2 91.2609 40.2V42.2C93.1399 42.2 94.3602 42.8274 95.1347 43.9633L96.7872 42.8367ZM91.2609 40.2C88.9416 40.2 86.9948 40.9984 85.5194 42.6291L87.0025 43.9709C88.0604 42.8016 89.4469 42.2 91.2609 42.2V40.2ZM85.5194 42.6291C84.0988 44.1992 83.2296 46.1914 82.8722 48.5502L84.8497 48.8498C85.1589 46.8086 85.8897 45.2008 87.0025 43.9709L85.5194 42.6291ZM82.8726 48.5479C82.4505 51.2912 82.7722 53.6281 84.0522 55.3882L85.6697 54.2118C84.8164 53.0385 84.4714 51.3088 84.8493 48.8521L82.8726 48.5479ZM84.0522 55.3882C85.3419 57.1614 87.2719 58 89.6609 58V56C87.7834 56 86.5134 55.3719 85.6697 54.2118L84.0522 55.3882Z" fill="url(#paint1_linear_488_6419)"/>
</g>
<defs>
<linearGradient id="paint0_linear_488_6419" x1="59" y1="-29" x2="59" y2="97" gradientUnits="userSpaceOnUse">
<stop stop-color="#7780A1"/>
<stop offset="1" stop-color="#7780A1" stop-opacity="0"/>
</linearGradient>
<linearGradient id="paint1_linear_488_6419" x1="59" y1="-29" x2="59" y2="97" gradientUnits="userSpaceOnUse">
<stop stop-color="#7780A1"/>
<stop offset="1" stop-color="#7780A1" stop-opacity="0"/>
</linearGradient>
</defs>
</svg>
