<svg width="121" height="74" viewBox="0 0 121 74" fill="none" xmlns="http://www.w3.org/2000/svg">
<g opacity="0.5">
<path d="M26.4 73.2C16.7333 73.2 10 69.8 6.2 63C2.4 56.1333 1.43333 46.6 3.3 34.4C5.16667 22.6667 8.73333 14.0667 14 8.6C19.2667 3.06667 26.1667 0.299999 34.7 0.299999C43.9667 0.299999 50.6333 3.46666 54.7 9.8C58.8333 16.1333 59.9 25.6667 57.9 38.4C56.0333 50.0667 52.3333 58.8 46.8 64.6C41.3333 70.3333 34.5333 73.2 26.4 73.2ZM27.9 56.2C30.2333 56.2 32.2 54.7 33.8 51.7C35.4 48.6333 36.7333 43.8667 37.8 37.4C38.6667 32.0667 39.0333 27.9667 38.9 25.1C38.8333 22.1667 38.3 20.1333 37.3 19C36.3667 17.8667 35.0333 17.3 33.3 17.3C30.9667 17.3 29 18.7 27.4 21.5C25.8667 24.2333 24.5667 28.8667 23.5 35.4C22.6333 40.7333 22.2333 44.9333 22.3 48C22.4333 51 22.9667 53.1333 23.9 54.4C24.9 55.6 26.2333 56.2 27.9 56.2ZM86.3609 73.2C76.9609 73.2 69.9276 71.1667 65.2609 67.1C60.6609 62.9667 58.8943 57.4333 59.9609 50.5C60.6943 45.9 62.7943 42.1333 66.2609 39.2C69.7943 36.2 73.8943 34.4333 78.5609 33.9L78.0609 37.3C74.0609 36.4333 71.0276 34.2667 68.9609 30.8C66.8943 27.3333 66.2276 23.3333 66.9609 18.8C67.8943 12.7333 70.9609 8.13333 76.1609 5C81.3609 1.86667 87.9943 0.299999 96.0609 0.299999C101.461 0.299999 106.028 1.16666 109.761 2.9C113.494 4.63333 116.228 7.03333 117.961 10.1C119.694 13.1667 120.228 16.7333 119.561 20.8C118.828 25.4667 116.928 29.2667 113.861 32.2C110.794 35.1333 107.261 36.9 103.261 37.5L103.761 34.3C106.694 34.7667 109.161 35.9 111.161 37.7C113.228 39.5 114.728 41.7667 115.661 44.5C116.594 47.1667 116.794 50.1667 116.261 53.5C115.194 59.9667 111.961 64.8667 106.561 68.2C101.228 71.5333 94.4943 73.2 86.3609 73.2ZM87.1609 57.2C90.0276 57.2 92.3276 56.7 94.0609 55.7C95.8609 54.6333 96.8943 53.0667 97.1609 51C97.4943 48.9333 96.9609 47.3333 95.5609 46.2C94.2276 45 92.1276 44.4 89.2609 44.4C86.3943 44.4 84.0943 44.9333 82.3609 46C80.6943 47 79.6943 48.5333 79.3609 50.6C79.0276 52.6667 79.5276 54.3 80.8609 55.5C82.1943 56.6333 84.2943 57.2 87.1609 57.2ZM91.9609 28.4C94.1609 28.4 95.9609 27.9 97.3609 26.9C98.7609 25.8333 99.5943 24.3667 99.8609 22.5C100.128 20.7 99.7276 19.2333 98.6609 18.1C97.6609 16.9 96.0609 16.3 93.8609 16.3C91.6609 16.3 89.8943 16.8333 88.5609 17.9C87.2276 18.9 86.3943 20.3 86.0609 22.1C85.7943 23.9667 86.1609 25.5 87.1609 26.7C88.1609 27.8333 89.7609 28.4 91.9609 28.4Z" fill="url(#paint0_linear_487_7088)" fill-opacity="0.5"/>
<path d="M6.2 63L5.32504 63.4842L5.32706 63.4878L6.2 63ZM3.3 34.4L2.3124 34.2429L2.3115 34.2488L3.3 34.4ZM14 8.6L14.7202 9.29382L14.7243 9.28944L14 8.6ZM54.7 9.8L53.8585 10.3403L53.8626 10.3465L54.7 9.8ZM57.9 38.4L58.8875 38.558L58.8879 38.5552L57.9 38.4ZM46.8 64.6L46.0765 63.9097L46.0763 63.9099L46.8 64.6ZM33.8 51.7L34.6824 52.1706L34.6866 52.1626L33.8 51.7ZM37.8 37.4L38.7867 37.5628L38.7871 37.5604L37.8 37.4ZM38.9 25.1L37.9003 25.1227L37.9005 25.1346L37.9011 25.1465L38.9 25.1ZM37.3 19L36.5281 19.6357L36.5389 19.6488L36.5502 19.6616L37.3 19ZM27.4 21.5L26.5317 21.0038L26.5279 21.0107L27.4 21.5ZM23.5 35.4L22.5131 35.2389L22.5129 35.2396L23.5 35.4ZM22.3 48L21.3002 48.0217L21.3005 48.0331L21.301 48.0444L22.3 48ZM23.9 54.4L23.0949 54.9932L23.1127 55.0172L23.1318 55.0402L23.9 54.4ZM26.4 72.2C16.9931 72.2 10.6513 68.9155 7.07294 62.5122L5.32706 63.4878C9.34871 70.6845 16.4736 74.2 26.4 74.2V72.2ZM7.07496 62.5158C3.42789 55.9255 2.43735 46.6498 4.2885 34.5512L2.3115 34.2488C0.429317 46.5502 1.37211 56.3412 5.32504 63.4842L7.07496 62.5158ZM4.28758 34.5571C6.13894 22.92 9.65504 14.5513 14.7202 9.29381L13.2798 7.90619C7.81162 13.5821 4.19439 22.4133 2.31242 34.2429L4.28758 34.5571ZM14.7243 9.28944C19.7792 3.97863 26.4051 1.3 34.7 1.3V-0.700001C25.9282 -0.700001 18.7541 2.1547 13.2757 7.91056L14.7243 9.28944ZM34.7 1.3C43.7165 1.3 50.0198 4.36197 53.8585 10.3403L55.5415 9.25969C51.2469 2.57136 44.2168 -0.700001 34.7 -0.700001V1.3ZM53.8626 10.3465C57.793 16.3689 58.8987 25.5971 56.9121 38.2448L58.8879 38.5552C60.9013 25.7362 59.8737 15.8977 55.5374 9.25346L53.8626 10.3465ZM56.9126 38.242C55.0635 49.7985 51.4181 58.3107 46.0765 63.9097L47.5235 65.2903C53.2486 59.2893 57.0031 50.3348 58.8874 38.558L56.9126 38.242ZM46.0763 63.9099C40.8039 69.4395 34.2681 72.2 26.4 72.2V74.2C34.7986 74.2 41.8627 71.2272 47.5237 65.2901L46.0763 63.9099ZM27.9 57.2C30.7591 57.2 32.9973 55.3301 34.6824 52.1706L32.9176 51.2294C31.4027 54.0699 29.7075 55.2 27.9 55.2V57.2ZM34.6866 52.1626C36.3617 48.9519 37.7153 44.058 38.7867 37.5627L36.8133 37.2373C35.7514 43.6753 34.4383 48.3148 32.9134 51.2374L34.6866 52.1626ZM38.7871 37.5604C39.6569 32.2073 40.0372 28.0255 39.8989 25.0535L37.9011 25.1465C38.0295 27.9078 37.6764 31.926 36.813 37.2396L38.7871 37.5604ZM39.8997 25.0773C39.8321 22.0992 39.2975 19.7524 38.0498 18.3384L36.5502 19.6616C37.3025 20.5143 37.8346 22.2342 37.9003 25.1227L39.8997 25.0773ZM38.0719 18.3643C36.9136 16.9577 35.2722 16.3 33.3 16.3V18.3C34.7945 18.3 35.8198 18.7756 36.5281 19.6357L38.0719 18.3643ZM33.3 16.3C30.4764 16.3 28.2332 18.0263 26.5318 21.0039L28.2682 21.9961C29.7668 19.3737 31.457 18.3 33.3 18.3V16.3ZM26.5279 21.0107C24.9031 23.907 23.5824 28.6894 22.5131 35.2389L24.4869 35.5611C25.551 29.0439 26.8302 24.5597 28.2721 21.9893L26.5279 21.0107ZM22.5129 35.2396C21.6427 40.5951 21.2316 44.8649 21.3002 48.0217L23.2998 47.9783C23.2351 45.0017 23.624 40.8715 24.4871 35.5604L22.5129 35.2396ZM21.301 48.0444C21.4364 51.0903 21.978 53.4773 23.0949 54.9932L24.7051 53.8068C23.9554 52.7894 23.4303 50.9097 23.299 47.9556L21.301 48.0444ZM23.1318 55.0402C24.3358 56.4851 25.9593 57.2 27.9 57.2V55.2C26.5074 55.2 25.4642 54.7149 24.6682 53.7598L23.1318 55.0402ZM65.2609 67.1L64.5926 67.8438L64.5982 67.8489L64.604 67.8539L65.2609 67.1ZM59.9609 50.5L58.9734 50.3426L58.9726 50.3479L59.9609 50.5ZM66.2609 39.2L66.9069 39.9634L66.9082 39.9623L66.2609 39.2ZM78.5609 33.9L79.5503 34.0455L79.7395 32.7588L78.4474 32.9065L78.5609 33.9ZM78.0609 37.3L77.8492 38.2773L78.8947 38.5038L79.0503 37.4455L78.0609 37.3ZM68.9609 30.8L69.8199 30.2879L68.9609 30.8ZM66.9609 18.8L67.9481 18.9597L67.9493 18.9521L66.9609 18.8ZM76.1609 5L76.677 5.85652L76.1609 5ZM109.761 2.9L110.182 1.99299L109.761 2.9ZM117.961 10.1L117.09 10.5921L117.961 10.1ZM119.561 20.8L118.574 20.6382L118.573 20.6448L119.561 20.8ZM113.861 32.2L113.17 31.4774L113.861 32.2ZM103.261 37.5L102.273 37.3456L102.063 38.6909L103.409 38.4889L103.261 37.5ZM103.761 34.3L103.918 33.3124L102.928 33.1549L102.773 34.1456L103.761 34.3ZM111.161 37.7L110.492 38.4433L110.498 38.4487L110.504 38.4541L111.161 37.7ZM115.661 44.5L114.715 44.8232L114.717 44.8304L115.661 44.5ZM116.261 53.5L117.248 53.6628L117.248 53.658L116.261 53.5ZM106.561 68.2L106.036 67.3491L106.031 67.352L106.561 68.2ZM94.0609 55.7L94.5607 56.5662L94.5707 56.5603L94.0609 55.7ZM97.1609 51L96.1737 50.8408L96.1712 50.8564L96.1692 50.872L97.1609 51ZM95.5609 46.2L94.892 46.9433L94.9114 46.9608L94.9317 46.9772L95.5609 46.2ZM82.3609 46L82.8755 46.8575L82.885 46.8517L82.3609 46ZM79.3609 50.6L78.3737 50.4408L79.3609 50.6ZM80.8609 55.5L80.192 56.2433L80.2025 56.2528L80.2133 56.2619L80.8609 55.5ZM97.3609 26.9L97.9422 27.7137L97.9547 27.7048L97.967 27.6954L97.3609 26.9ZM99.8609 22.5L98.8717 22.3534L98.871 22.3586L99.8609 22.5ZM98.6609 18.1L97.8927 18.7402L97.912 18.7634L97.9327 18.7854L98.6609 18.1ZM88.5609 17.9L89.1609 18.7L89.1734 18.6906L89.1856 18.6809L88.5609 17.9ZM86.0609 22.1L85.0777 21.9179L85.0739 21.9382L85.071 21.9586L86.0609 22.1ZM87.1609 26.7L86.3927 27.3402L86.4018 27.351L86.4111 27.3616L87.1609 26.7ZM86.3609 72.2C77.0817 72.2 70.3284 70.1895 65.9179 66.3461L64.604 67.8539C69.5268 72.1438 76.8402 74.2 86.3609 74.2V72.2ZM65.9293 66.3562C61.6174 62.4817 59.9259 57.3045 60.9493 50.6521L58.9726 50.3479C57.8627 57.5622 59.7044 63.4516 64.5926 67.8438L65.9293 66.3562ZM60.9485 50.6574C61.6452 46.2871 63.628 42.7378 66.9069 39.9634L65.615 38.4366C61.9605 41.5288 59.7434 45.5129 58.9734 50.3426L60.9485 50.6574ZM66.9082 39.9623C70.2883 37.0924 74.2019 35.4047 78.6745 34.8935L78.4474 32.9065C73.5866 33.462 69.3002 35.3076 65.6137 38.4377L66.9082 39.9623ZM77.5716 33.7545L77.0716 37.1545L79.0503 37.4455L79.5503 34.0455L77.5716 33.7545ZM78.2727 36.3227C74.5392 35.5138 71.7424 33.5127 69.8199 30.2879L68.102 31.3121C70.3128 35.0206 73.5826 37.3529 77.8492 38.2773L78.2727 36.3227ZM69.8199 30.2879C67.8901 27.0508 67.2468 23.2949 67.9481 18.9597L65.9738 18.6403C65.2084 23.3718 65.8985 27.6158 68.102 31.3121L69.8199 30.2879ZM67.9493 18.9521C68.8381 13.1749 71.7344 8.83477 76.677 5.85652L75.6448 4.14347C70.1875 7.43189 66.9504 12.2918 65.9726 18.6479L67.9493 18.9521ZM76.677 5.85652C81.6781 2.84309 88.1181 1.3 96.0609 1.3V-0.700001C87.8705 -0.700001 81.0438 0.890242 75.6448 4.14347L76.677 5.85652ZM96.0609 1.3C101.359 1.3 105.773 2.1509 109.34 3.807L110.182 1.99299C106.282 0.18243 101.563 -0.700001 96.0609 -0.700001V1.3ZM109.34 3.807C112.917 5.46765 115.476 7.7365 117.09 10.5921L118.832 9.60794C116.979 6.33017 114.072 3.79901 110.182 1.99299L109.34 3.807ZM117.09 10.5921C118.693 13.4278 119.21 16.7565 118.574 20.6382L120.548 20.9618C121.245 16.7102 120.695 12.9055 118.832 9.60794L117.09 10.5921ZM118.573 20.6448C117.87 25.1207 116.06 28.7127 113.17 31.4774L114.552 32.9226C117.795 29.8207 119.786 25.8126 120.549 20.9552L118.573 20.6448ZM113.17 31.4774C110.244 34.2755 106.898 35.9432 103.113 36.5111L103.409 38.4889C107.624 37.8568 111.344 35.9912 114.552 32.9226L113.17 31.4774ZM104.249 37.6544L104.749 34.4544L102.773 34.1456L102.273 37.3456L104.249 37.6544ZM103.604 35.2876C106.367 35.7272 108.65 36.7857 110.492 38.4433L111.83 36.9567C109.672 35.0143 107.021 33.8061 103.918 33.3124L103.604 35.2876ZM110.504 38.4541C112.431 40.1321 113.835 42.2471 114.715 44.8231L116.607 44.1769C115.62 41.2862 114.024 38.8679 111.818 36.9459L110.504 38.4541ZM114.717 44.8304C115.586 47.3125 115.786 50.1407 115.273 53.342L117.248 53.658C117.803 50.1926 117.603 47.0208 116.605 44.1696L114.717 44.8304ZM115.274 53.3372C114.253 59.5293 111.181 64.1732 106.036 67.3491L107.086 69.0509C112.741 65.5601 116.136 60.404 117.248 53.6628L115.274 53.3372ZM106.031 67.352C100.897 70.5608 94.3609 72.2 86.3609 72.2V74.2C94.6276 74.2 101.558 72.5059 107.091 69.048L106.031 67.352ZM87.1609 58.2C90.1316 58.2 92.6236 57.6837 94.5607 56.5662L93.5612 54.8338C92.0316 55.7163 89.9237 56.2 87.1609 56.2V58.2ZM94.5707 56.5603C96.6343 55.3375 97.8465 53.5014 98.1527 51.128L96.1692 50.872C95.9421 52.632 95.0876 53.9292 93.5511 54.8397L94.5707 56.5603ZM98.1482 51.1592C98.5275 48.8073 97.9187 46.8221 96.1901 45.4228L94.9317 46.9772C96.0032 47.8446 96.461 49.0593 96.1737 50.8408L98.1482 51.1592ZM96.2299 45.4567C94.6303 44.017 92.2345 43.4 89.2609 43.4V45.4C92.0207 45.4 93.8249 45.983 94.892 46.9433L96.2299 45.4567ZM89.2609 43.4C86.2813 43.4 83.7796 43.9528 81.8368 45.1483L82.885 46.8517C84.409 45.9138 86.5073 45.4 89.2609 45.4V43.4ZM81.8464 45.1425C79.9056 46.307 78.7499 48.1085 78.3737 50.4408L80.3482 50.7592C80.6387 48.9581 81.4829 47.693 82.8754 46.8575L81.8464 45.1425ZM78.3737 50.4408C77.9968 52.7775 78.5606 54.7751 80.192 56.2433L81.5299 54.7567C80.4946 53.8249 80.0584 52.5558 80.3482 50.7592L78.3737 50.4408ZM80.2133 56.2619C81.8117 57.6206 84.198 58.2 87.1609 58.2V56.2C84.3906 56.2 82.5768 55.6461 81.5086 54.7381L80.2133 56.2619ZM91.9609 29.4C94.3112 29.4 96.3307 28.8648 97.9422 27.7137L96.7797 26.0863C95.5912 26.9352 94.0107 27.4 91.9609 27.4V29.4ZM97.967 27.6954C99.5918 26.4575 100.55 24.7476 100.851 22.6414L98.871 22.3586C98.6385 23.9858 97.9301 25.2092 96.7549 26.1046L97.967 27.6954ZM100.85 22.6465C101.153 20.6014 100.702 18.8099 99.3891 17.4146L97.9327 18.7854C98.7529 19.6568 99.1021 20.7986 98.8717 22.3534L100.85 22.6465ZM99.4292 17.4598C98.1709 15.9498 96.2313 15.3 93.8609 15.3V17.3C95.8906 17.3 97.151 17.8501 97.8927 18.7402L99.4292 17.4598ZM93.8609 15.3C91.5002 15.3 89.4926 15.8741 87.9362 17.1191L89.1856 18.6809C90.296 17.7926 91.8217 17.3 93.8609 17.3V15.3ZM87.9609 17.1C86.4064 18.2659 85.4518 19.8975 85.0777 21.9179L87.0442 22.2821C87.3367 20.7025 88.0488 19.5341 89.1609 18.7L87.9609 17.1ZM85.071 21.9586C84.7733 24.0424 85.1744 25.8782 86.3927 27.3402L87.9292 26.0598C87.1475 25.1218 86.8152 23.891 87.0509 22.2414L85.071 21.9586ZM86.4111 27.3616C87.6742 28.7931 89.6074 29.4 91.9609 29.4V27.4C89.9145 27.4 88.6477 26.8735 87.9108 26.0384L86.4111 27.3616Z" fill="url(#paint1_linear_487_7088)"/>
</g>
<defs>
<linearGradient id="paint0_linear_487_7088" x1="59" y1="-29" x2="59" y2="97" gradientUnits="userSpaceOnUse">
<stop stop-color="#7780A1"/>
<stop offset="1" stop-color="#7780A1" stop-opacity="0"/>
</linearGradient>
<linearGradient id="paint1_linear_487_7088" x1="59" y1="-29" x2="59" y2="97" gradientUnits="userSpaceOnUse">
<stop stop-color="#7780A1"/>
<stop offset="1" stop-color="#7780A1" stop-opacity="0"/>
</linearGradient>
</defs>
</svg>
