<svg width="30" height="40" viewBox="0 0 30 40" fill="none" xmlns="http://www.w3.org/2000/svg">
<path d="M25.2101 12.105V33.0611C25.2101 34.1462 24.5997 35.0957 23.5825 35.5026C17.9535 38.0119 12.3245 38.0119 6.62768 35.5026C5.67821 35.0957 5 34.0784 5 33.0611V12.105" stroke="white" stroke-width="1.4" stroke-miterlimit="10"/>
<path d="M22.633 9.73148C24.2607 10.3418 25.278 11.2235 25.278 12.173C25.278 14.1397 20.8019 15.7674 15.2408 15.7674C9.67959 15.7674 5.20349 14.1397 5.20349 12.173C5.20349 11.0879 6.49207 10.1384 8.52664 9.46021" stroke="white" stroke-width="1.4" stroke-miterlimit="10"/>
<path d="M22.4294 4.44149C22.4294 5.79787 19.3776 6.88298 15.5797 6.88298C11.7819 6.88298 8.72998 5.79787 8.72998 4.44149C8.72998 3.08511 11.7819 2 15.5797 2C19.3776 2 22.4294 3.08511 22.4294 4.44149Z" stroke="white" stroke-width="1.4" stroke-miterlimit="10"/>
<path d="M22.4294 10.1384C22.4294 11.4948 19.3776 12.5799 15.5797 12.5799C11.7819 12.5799 8.72998 11.4948 8.72998 10.1384" stroke="white" stroke-width="1.4" stroke-miterlimit="10"/>
<path d="M8.66223 4.44165V10.1385" stroke="white" stroke-width="1.4" stroke-miterlimit="10"/>
<path d="M22.4294 4.44165V10.1385" stroke="white" stroke-width="1.4" stroke-miterlimit="10"/>
<path d="M14.1556 19.4973L11.7141 25.4654H16.3936L13.0705 32.2473L20.8697 23.9056H14.8338L16.7327 19.4973H14.1556Z" stroke="white" stroke-width="1.4" stroke-miterlimit="10"/>
</svg>
