<svg width="30" height="40" viewBox="0 0 30 40" fill="none" xmlns="http://www.w3.org/2000/svg">
<path d="M5.88611 7.59063V10.1132C5.88611 10.9314 6.56789 11.6132 7.38603 11.6132H17.3401C18.1582 11.6132 18.84 10.9314 18.84 10.1132V7.52245C18.84 6.70431 18.1582 6.02253 17.3401 6.02253H15.1584V4.72714C15.1584 3.22721 13.9312 2 12.4312 2C10.9313 2 9.7041 3.22721 9.7041 4.72714V6.02253H7.38603C6.56789 6.15888 5.88611 6.77249 5.88611 7.59063Z" stroke="white" stroke-width="1.4" stroke-miterlimit="10"/>
<path d="M4.45442 9.29492H3.5681C2.68178 9.29492 2 9.97671 2 10.863V33.9755C2 34.8618 2.68178 35.5436 3.5681 35.5436H12.6358" stroke="white" stroke-width="1.4" stroke-miterlimit="10"/>
<path d="M20.34 9.29492H21.2263C22.1126 9.29492 22.7944 9.97671 22.7944 10.863V22.6579" stroke="white" stroke-width="1.4" stroke-miterlimit="10"/>
<path d="M20.3401 37.3847C24.0301 37.3847 27.0215 34.3933 27.0215 30.7032C27.0215 27.0131 24.0301 24.0217 20.3401 24.0217C16.65 24.0217 13.6586 27.0131 13.6586 30.7032C13.6586 34.3933 16.65 37.3847 20.3401 37.3847Z" stroke="white" stroke-width="1.4" stroke-miterlimit="10"/>
<path d="M17.272 30.1577C17.272 30.1577 19.5219 31.4531 19.5219 33.4984C19.5219 33.4984 21.1581 28.7259 24.5671 27.8396" stroke="white" stroke-width="1.4" stroke-miterlimit="10"/>
<path d="M5.68164 16.522H18.7719" stroke="white" stroke-width="1.4" stroke-miterlimit="10"/>
<path d="M5.68164 20.2717H18.7719" stroke="white" stroke-width="1.4" stroke-miterlimit="10"/>
<path d="M5.68164 25.1125H13.6585" stroke="white" stroke-width="1.4" stroke-miterlimit="10"/>
<path d="M5.68164 29.6807H11.8859" stroke="white" stroke-width="1.4" stroke-miterlimit="10"/>
</svg>
