<svg width="125" height="838" viewBox="0 0 125 838" fill="none" xmlns="http://www.w3.org/2000/svg">
<path opacity="0.1" d="M3 0.860001V-1.14H1V0.860001H3ZM122.85 0.860001L124.85 0.860001V-1.14H122.85V0.860001ZM122.85 87.9V89.9H124.85V87.9H122.85ZM94.97 87.9H92.97V89.9H94.97V87.9ZM94.97 37.58H96.97V35.58H94.97V37.58ZM76.27 37.58V35.58H74.27V37.58H76.27ZM76.27 83.82V85.82H78.27V83.82H76.27ZM48.39 83.82H46.39V85.82H48.39V83.82ZM48.39 37.58H50.39V35.58H48.39V37.58ZM3 37.58H1V39.58H3V37.58ZM3 2.86L122.85 2.86V-1.14L3 -1.14V2.86ZM120.85 0.860001L120.85 87.9H124.85L124.85 0.860001L120.85 0.860001ZM122.85 85.9L94.97 85.9V89.9L122.85 89.9V85.9ZM96.97 87.9L96.97 37.58H92.97L92.97 87.9H96.97ZM94.97 35.58L76.27 35.58V39.58L94.97 39.58V35.58ZM74.27 37.58L74.27 83.82H78.27L78.27 37.58H74.27ZM76.27 81.82H48.39V85.82H76.27V81.82ZM50.39 83.82L50.39 37.58H46.39L46.39 83.82H50.39ZM48.39 35.58L3 35.58V39.58L48.39 39.58V35.58ZM5 37.58V0.860001H1V37.58H5ZM3 121.133V119.133H1V121.133H3ZM122.85 121.133H124.85V119.133H122.85V121.133ZM122.85 157.853V159.853H124.85V157.853H122.85ZM3 157.853H1V159.853H3V157.853ZM3 123.133L122.85 123.133V119.133L3 119.133V123.133ZM120.85 121.133L120.85 157.853H124.85L124.85 121.133H120.85ZM122.85 155.853L3 155.853V159.853L122.85 159.853V155.853ZM5 157.853V121.133H1V157.853H5ZM3 224.439V222.439H1V224.439H3ZM93.27 224.439V226.439H95.27V224.439H93.27ZM93.27 189.759V187.759H91.27V189.759H93.27ZM122.85 189.759H124.85V187.759H122.85V189.759ZM122.85 295.839V297.839H124.85V295.839H122.85ZM93.27 295.839H91.27V297.839H93.27V295.839ZM93.27 261.159H95.27V259.159H93.27V261.159ZM3 261.159H1V263.159H3V261.159ZM3 226.439L93.27 226.439V222.439L3 222.439V226.439ZM95.27 224.439V189.759H91.27V224.439H95.27ZM93.27 191.759H122.85V187.759H93.27V191.759ZM120.85 189.759V295.839H124.85V189.759H120.85ZM122.85 293.839H93.27V297.839H122.85V293.839ZM95.27 295.839L95.27 261.159H91.27L91.27 295.839H95.27ZM93.27 259.159H3V263.159H93.27V259.159ZM5 261.159V224.439H1V261.159H5ZM3 327.813V325.813H1V327.813H3ZM122.85 327.813H124.85V325.813H122.85V327.813ZM122.85 354.673L124.125 356.214L124.85 355.614V354.673H122.85ZM55.7 410.263H53.7V414.515L56.9754 411.804L55.7 410.263ZM55.7 404.993V402.993H53.7V404.993H55.7ZM122.85 404.993H124.85V402.993H122.85V404.993ZM122.85 439.163V441.163H124.85V439.163H122.85ZM3 439.163H1V441.163H3V439.163ZM3 412.303L1.72694 410.761L1 411.361V412.303H3ZM70.15 356.883H72.15V352.639L68.8769 355.341L70.15 356.883ZM70.15 362.153V364.153H72.15V362.153H70.15ZM3 362.153H1V364.153H3V362.153ZM3 329.813H122.85V325.813H3V329.813ZM120.85 327.813V354.673H124.85V327.813H120.85ZM121.575 353.133L54.4246 408.723L56.9754 411.804L124.125 356.214L121.575 353.133ZM57.7 410.263V404.993H53.7V410.263H57.7ZM55.7 406.993H122.85V402.993H55.7V406.993ZM120.85 404.993V439.163H124.85V404.993H120.85ZM122.85 437.163H3V441.163H122.85V437.163ZM5 439.163V412.303H1V439.163H5ZM4.27306 413.846L71.4231 358.426L68.8769 355.341L1.72694 410.761L4.27306 413.846ZM68.15 356.883V362.153H72.15V356.883H68.15ZM70.15 360.153H3V364.153H70.15V360.153ZM5 362.153L5 327.813H1L1 362.153H5ZM3 478.965V476.965H1V478.965H3ZM122.85 478.965H124.85V476.965H122.85V478.965ZM122.85 567.875V569.875H124.85V567.875H122.85ZM94.97 567.875H92.97V569.875H94.97V567.875ZM94.97 513.985H96.97L96.97 511.985H94.97L94.97 513.985ZM77.8 513.985L77.8 511.985H75.8L75.8 513.985H77.8ZM77.8 563.795V565.795H79.8V563.795H77.8ZM49.92 563.795H47.92V565.795H49.92V563.795ZM49.92 513.985H51.92L51.92 511.985H49.92L49.92 513.985ZM30.88 513.985V511.985H28.88V513.985H30.88ZM30.88 567.875V569.875H32.88V567.875H30.88ZM3 567.875H1V569.875H3V567.875ZM3 480.965H122.85V476.965H3V480.965ZM120.85 478.965L120.85 567.875H124.85L124.85 478.965H120.85ZM122.85 565.875H94.97V569.875H122.85V565.875ZM96.97 567.875V513.985H92.97V567.875H96.97ZM94.97 511.985H77.8L77.8 515.985H94.97L94.97 511.985ZM75.8 513.985V563.795H79.8V513.985H75.8ZM77.8 561.795H49.92V565.795H77.8V561.795ZM51.92 563.795V513.985H47.92V563.795H51.92ZM49.92 511.985H30.88V515.985H49.92L49.92 511.985ZM28.88 513.985V567.875H32.88V513.985H28.88ZM30.88 565.875H3V569.875H30.88V565.875ZM5 567.875V478.965H1V567.875H5ZM4.36 619.433L2.42116 618.942L2.41971 618.948L4.36 619.433ZM13.54 597.163L14.2098 595.279L12.7272 594.752L11.8661 596.069L13.54 597.163ZM41.76 607.193L43.4797 608.214L44.7213 606.123L42.4298 605.309L41.76 607.193ZM35.98 619.433L34.1073 618.731L34.0996 618.751L34.0923 618.772L35.98 619.433ZM32.07 633.543L30.1124 633.133L30.1078 633.155L30.1037 633.177L32.07 633.543ZM32.75 661.423L31.035 662.452L31.0535 662.483L31.0731 662.513L32.75 661.423ZM42.61 662.613L41.0736 661.333L41.0486 661.363L41.0247 661.394L42.61 662.613ZM45.67 653.943L47.6292 654.345L47.6294 654.344L45.67 653.943ZM50.09 632.353L48.1312 631.949L48.1306 631.952L50.09 632.353ZM62.16 607.533L60.7893 606.077L60.7818 606.084L60.7744 606.091L62.16 607.533ZM105.85 606.003L104.665 607.614L105.85 606.003ZM119.79 624.703L117.938 625.459L117.943 625.47L117.948 625.482L119.79 624.703ZM121.49 677.063L123.406 677.635L121.49 677.063ZM112.31 695.593L111.603 697.464L112.955 697.975L113.864 696.851L112.31 695.593ZM85.79 685.563L84.1394 684.434L82.7026 686.534L85.0825 687.434L85.79 685.563ZM92.59 670.603L90.6776 670.018L90.6706 670.041L90.6641 670.064L92.59 670.603ZM93.1 639.323L94.9031 638.458L94.8961 638.443L94.8889 638.429L93.1 639.323ZM82.73 637.623L81.2115 636.321L82.73 637.623ZM79.33 646.803L81.2912 647.195L79.33 646.803ZM75.08 668.053L73.1188 667.661L75.08 668.053ZM63.18 692.363L61.8093 690.907L61.8018 690.914L61.7943 690.921L63.18 692.363ZM19.83 694.063L18.6446 695.674L19.83 694.063ZM5.89 675.533L4.04228 676.299L5.89 675.533ZM2.96001 647.653C2.96001 638.063 4.07495 628.819 6.30028 619.918L2.41971 618.948C0.111725 628.18 -1.03999 637.75 -1.03999 647.653H2.96001ZM6.29883 619.924C8.52715 611.122 11.5128 603.918 15.2139 598.258L11.8661 596.069C7.86057 602.195 4.72618 609.837 2.42117 618.942L6.29883 619.924ZM12.8702 599.048L41.0902 609.078L42.4298 605.309L14.2098 595.279L12.8702 599.048ZM40.0403 606.172C37.8186 609.914 35.8429 614.103 34.1073 618.731L37.8527 620.135C39.5171 615.697 41.3947 611.726 43.4797 608.214L40.0403 606.172ZM34.0923 618.772C32.4759 623.391 31.1496 628.178 30.1124 633.133L34.0276 633.953C35.0304 629.161 36.3108 624.542 37.8677 620.094L34.0923 618.772ZM30.1037 633.177C29.1756 638.166 28.71 643.105 28.71 647.993H32.71C32.71 643.361 33.1511 638.667 34.0363 633.909L30.1037 633.177ZM28.71 647.993C28.71 651.394 28.8823 654.293 29.2427 656.666C29.5979 659.004 30.158 660.99 31.035 662.452L34.465 660.394C33.982 659.589 33.5221 658.203 33.1973 656.065C32.8777 653.961 32.71 651.278 32.71 647.993H28.71ZM31.0731 662.513C32.7815 665.141 35.0895 666.823 38.02 666.823V662.823C36.8705 662.823 35.6652 662.238 34.4269 660.333L31.0731 662.513ZM38.02 666.823C40.5411 666.823 42.6675 665.819 44.1953 663.832L41.0247 661.394C40.2859 662.354 39.3522 662.823 38.02 662.823V666.823ZM44.1464 663.893C44.9374 662.944 45.571 661.621 46.111 660.091C46.6619 658.53 47.1652 656.607 47.6292 654.345L43.7108 653.541C43.2681 655.699 42.8081 657.431 42.339 658.76C41.859 660.12 41.416 660.922 41.0736 661.333L44.1464 663.893ZM47.6294 654.344L52.0494 632.754L48.1306 631.952L43.7106 653.542L47.6294 654.344ZM52.0488 632.757C54.2654 622.006 58.1527 614.157 63.5457 608.975L60.7744 606.091C54.6073 612.016 50.448 620.713 48.1312 631.949L52.0488 632.757ZM63.5307 608.989C68.8818 603.953 75.8439 601.373 84.6 601.373V597.373C74.9961 597.373 66.9982 600.233 60.7893 606.077L63.5307 608.989ZM84.6 601.373C92.3759 601.373 99.0341 603.471 104.665 607.614L107.035 604.392C100.653 599.695 93.1441 597.373 84.6 597.373V601.373ZM104.665 607.614C110.329 611.782 114.768 617.696 117.938 625.459L121.642 623.947C118.239 615.617 113.385 609.064 107.035 604.392L104.665 607.614ZM117.948 625.482C121.222 633.232 122.89 642.363 122.89 652.923H126.89C126.89 641.949 125.158 632.268 121.632 623.925L117.948 625.482ZM122.89 652.923C122.89 661.243 121.781 669.096 119.574 676.491L123.406 677.635C125.732 669.843 126.89 661.603 126.89 652.923H122.89ZM119.574 676.491C117.361 683.904 114.404 689.828 110.756 694.335L113.864 696.851C117.923 691.838 121.086 685.408 123.406 677.635L119.574 676.491ZM113.018 693.722L86.4975 683.692L85.0825 687.434L111.603 697.464L113.018 693.722ZM87.4406 686.692C90.5253 682.184 92.8778 676.993 94.5159 671.142L90.6641 670.064C89.1289 675.547 86.948 680.329 84.1394 684.434L87.4406 686.692ZM94.5024 671.188C96.2694 665.416 97.14 659.038 97.14 652.073H93.14C93.14 658.708 92.3106 664.683 90.6776 670.018L94.5024 671.188ZM97.14 652.073C97.14 646.31 96.4587 641.698 94.9031 638.458L91.297 640.189C92.4613 642.614 93.14 646.503 93.14 652.073H97.14ZM94.8889 638.429C94.0965 636.844 93.0596 635.53 91.7236 634.614C90.3707 633.686 88.8215 633.243 87.15 633.243V637.243C88.0851 637.243 88.8309 637.48 89.4614 637.913C90.1088 638.356 90.7435 639.082 91.3111 640.217L94.8889 638.429ZM87.15 633.243C84.8077 633.243 82.8233 634.441 81.2115 636.321L84.2485 638.925C85.3567 637.632 86.319 637.243 87.15 637.243V633.243ZM81.2115 636.321C79.4856 638.335 78.2797 641.857 77.3688 646.411L81.2912 647.195C82.1937 642.683 83.2544 640.084 84.2485 638.925L81.2115 636.321ZM77.3688 646.411L73.1188 667.661L77.0412 668.445L81.2912 647.195L77.3688 646.411ZM73.1188 667.661C71.0166 678.172 67.1905 685.842 61.8093 690.907L64.5507 693.819C70.7295 688.004 74.8368 679.467 77.0412 668.445L73.1188 667.661ZM61.7943 690.921C56.4366 696.068 49.5335 698.693 40.91 698.693V702.693C50.4199 702.693 58.3634 699.764 64.5657 693.805L61.7943 690.921ZM40.91 698.693C33.2542 698.693 26.6508 696.599 21.0154 692.452L18.6446 695.674C25.0225 700.367 32.4725 702.693 40.91 702.693V698.693ZM21.0154 692.452C15.3446 688.279 10.9063 682.416 7.73772 674.768L4.04228 676.299C7.44702 684.517 12.302 691.007 18.6446 695.674L21.0154 692.452ZM7.73772 674.768C4.57262 667.128 2.96001 658.105 2.96001 647.653H-1.03999C-1.03999 658.508 0.634048 668.072 4.04228 676.299L7.73772 674.768ZM4.36 755.81L2.42116 755.319L2.41971 755.325L4.36 755.81ZM13.54 733.54L14.2098 731.656L12.7272 731.129L11.8661 732.445L13.54 733.54ZM41.76 743.57L43.4797 744.591L44.7213 742.5L42.4298 741.685L41.76 743.57ZM35.98 755.81L34.1073 755.108L34.0996 755.128L34.0923 755.149L35.98 755.81ZM32.07 769.92L30.1124 769.51L30.1078 769.532L30.1037 769.554L32.07 769.92ZM32.75 797.8L31.035 798.829L31.0535 798.86L31.0731 798.89L32.75 797.8ZM42.61 798.99L41.0736 797.71L41.0486 797.74L41.0247 797.771L42.61 798.99ZM45.67 790.32L47.6292 790.722L47.6294 790.721L45.67 790.32ZM50.09 768.73L48.1312 768.326L48.1306 768.329L50.09 768.73ZM62.16 743.91L60.7893 742.454L60.7818 742.461L60.7744 742.468L62.16 743.91ZM105.85 742.38L104.665 743.991L105.85 742.38ZM119.79 761.08L117.938 761.836L117.943 761.847L117.948 761.858L119.79 761.08ZM121.49 813.44L123.406 814.012L121.49 813.44ZM112.31 831.97L111.603 833.841L112.955 834.352L113.864 833.228L112.31 831.97ZM85.79 821.94L84.1394 820.811L82.7026 822.911L85.0825 823.811L85.79 821.94ZM92.59 806.98L90.6776 806.395L90.6706 806.418L90.6641 806.441L92.59 806.98ZM93.1 775.7L94.9031 774.835L94.8961 774.82L94.8889 774.806L93.1 775.7ZM82.73 774L81.2115 772.698L82.73 774ZM79.33 783.18L81.2912 783.572L79.33 783.18ZM75.08 804.43L73.1188 804.038L75.08 804.43ZM63.18 828.74L61.8093 827.284L61.8018 827.291L61.7943 827.298L63.18 828.74ZM19.83 830.44L18.6446 832.051L19.83 830.44ZM5.89 811.91L4.04228 812.675L5.89 811.91ZM2.96001 784.03C2.96001 774.44 4.07495 765.196 6.30028 756.295L2.41971 755.325C0.111725 764.557 -1.03999 774.127 -1.03999 784.03H2.96001ZM6.29883 756.301C8.52715 747.499 11.5128 740.295 15.2139 734.635L11.8661 732.445C7.86057 738.572 4.72618 746.214 2.42117 755.319L6.29883 756.301ZM12.8702 735.424L41.0902 745.455L42.4298 741.685L14.2098 731.656L12.8702 735.424ZM40.0403 742.549C37.8186 746.291 35.8429 750.48 34.1073 755.108L37.8527 756.512C39.5171 752.074 41.3947 748.103 43.4797 744.591L40.0403 742.549ZM34.0923 755.149C32.4759 759.768 31.1496 764.555 30.1124 769.51L34.0276 770.33C35.0304 765.538 36.3108 760.919 37.8677 756.471L34.0923 755.149ZM30.1037 769.554C29.1756 774.543 28.71 779.482 28.71 784.37H32.71C32.71 779.738 33.1511 775.043 34.0363 770.286L30.1037 769.554ZM28.71 784.37C28.71 787.771 28.8823 790.67 29.2427 793.043C29.5979 795.381 30.158 797.367 31.035 798.829L34.465 796.771C33.982 795.966 33.5221 794.58 33.1973 792.442C32.8777 790.338 32.71 787.655 32.71 784.37H28.71ZM31.0731 798.89C32.7815 801.518 35.0895 803.2 38.02 803.2V799.2C36.8705 799.2 35.6652 798.615 34.4269 796.71L31.0731 798.89ZM38.02 803.2C40.5411 803.2 42.6675 802.196 44.1953 800.209L41.0247 797.771C40.2859 798.731 39.3522 799.2 38.02 799.2V803.2ZM44.1464 800.27C44.9374 799.321 45.571 797.998 46.111 796.468C46.6619 794.907 47.1652 792.984 47.6292 790.722L43.7108 789.918C43.2681 792.076 42.8081 793.808 42.339 795.137C41.859 796.497 41.416 797.299 41.0736 797.71L44.1464 800.27ZM47.6294 790.721L52.0494 769.131L48.1306 768.329L43.7106 789.919L47.6294 790.721ZM52.0488 769.134C54.2654 758.383 58.1527 750.534 63.5457 745.352L60.7744 742.468C54.6073 748.393 50.448 757.09 48.1312 768.326L52.0488 769.134ZM63.5307 745.366C68.8818 740.33 75.8439 737.75 84.6 737.75V733.75C74.9961 733.75 66.9982 736.61 60.7893 742.454L63.5307 745.366ZM84.6 737.75C92.3759 737.75 99.0341 739.848 104.665 743.991L107.035 740.769C100.653 736.072 93.1441 733.75 84.6 733.75V737.75ZM104.665 743.991C110.329 748.159 114.768 754.073 117.938 761.836L121.642 760.324C118.239 751.994 113.385 745.441 107.035 740.769L104.665 743.991ZM117.948 761.858C121.222 769.609 122.89 778.74 122.89 789.3H126.89C126.89 778.326 125.158 768.645 121.632 760.302L117.948 761.858ZM122.89 789.3C122.89 797.62 121.781 805.473 119.574 812.868L123.406 814.012C125.732 806.22 126.89 797.98 126.89 789.3H122.89ZM119.574 812.868C117.361 820.281 114.404 826.205 110.756 830.712L113.864 833.228C117.923 828.215 121.086 821.785 123.406 814.012L119.574 812.868ZM113.018 830.099L86.4975 820.069L85.0825 823.811L111.603 833.841L113.018 830.099ZM87.4406 823.069C90.5253 818.561 92.8778 813.37 94.5159 807.519L90.6641 806.441C89.1289 811.924 86.948 816.706 84.1394 820.811L87.4406 823.069ZM94.5024 807.565C96.2694 801.793 97.14 795.415 97.14 788.45H93.14C93.14 795.085 92.3106 801.06 90.6776 806.395L94.5024 807.565ZM97.14 788.45C97.14 782.687 96.4587 778.075 94.9031 774.835L91.297 776.565C92.4613 778.991 93.14 782.88 93.14 788.45H97.14ZM94.8889 774.806C94.0965 773.221 93.0596 771.907 91.7236 770.991C90.3707 770.063 88.8215 769.62 87.15 769.62V773.62C88.0851 773.62 88.8309 773.857 89.4614 774.289C90.1088 774.733 90.7435 775.459 91.3111 776.594L94.8889 774.806ZM87.15 769.62C84.8077 769.62 82.8233 770.818 81.2115 772.698L84.2485 775.302C85.3567 774.009 86.319 773.62 87.15 773.62V769.62ZM81.2115 772.698C79.4856 774.712 78.2797 778.234 77.3688 782.788L81.2912 783.572C82.1937 779.06 83.2544 776.461 84.2485 775.302L81.2115 772.698ZM77.3688 782.788L73.1188 804.038L77.0412 804.822L81.2912 783.572L77.3688 782.788ZM73.1188 804.038C71.0166 814.549 67.1905 822.219 61.8093 827.284L64.5507 830.196C70.7295 824.381 74.8368 815.844 77.0412 804.822L73.1188 804.038ZM61.7943 827.298C56.4366 832.445 49.5335 835.07 40.91 835.07V839.07C50.4199 839.07 58.3634 836.141 64.5657 830.182L61.7943 827.298ZM40.91 835.07C33.2542 835.07 26.6508 832.976 21.0154 828.829L18.6446 832.051C25.0225 836.744 32.4725 839.07 40.91 839.07V835.07ZM21.0154 828.829C15.3446 824.656 10.9063 818.793 7.73772 811.145L4.04228 812.675C7.44702 820.894 12.302 827.384 18.6446 832.051L21.0154 828.829ZM7.73772 811.145C4.57262 803.505 2.96001 794.482 2.96001 784.03H-1.03999C-1.03999 794.885 0.634048 804.449 4.04228 812.675L7.73772 811.145Z" fill="url(#paint0_linear_488_6228)"/>
<defs>
<linearGradient id="paint0_linear_488_6228" x1="174" y1="417.5" x2="-39" y2="417.5" gradientUnits="userSpaceOnUse">
<stop stop-color="white"/>
<stop offset="1" stop-color="white" stop-opacity="0"/>
</linearGradient>
</defs>
</svg>
