<svg width="30" height="40" viewBox="0 0 30 40" fill="none" xmlns="http://www.w3.org/2000/svg">
<path d="M24.1755 15.7444L25.3452 10.5537C26.2956 6.1672 23.0057 2 18.473 2H10.5772C6.0445 2 2.6815 6.31343 3.77813 10.6999L5.09409 15.8906C5.53274 17.7915 4.94787 19.7654 3.63191 21.1545C1.95041 22.836 1 24.883 1 27.1494C1 32.7788 7.21424 37.3846 14.8907 37.3846C22.5671 37.3846 28.7813 32.8519 28.7813 27.1494C28.7813 24.8099 27.6847 22.6167 25.857 20.8621C24.3217 19.6192 23.7368 17.6453 24.1755 15.7444Z" stroke="white" stroke-width="1.4" stroke-miterlimit="10"/>
<path d="M18.8386 16.7679C16.2798 15.452 13.5747 15.5251 10.8697 16.7679C9.99241 16.7679 9.26132 16.1099 9.18821 15.2326L8.82267 12.4545C8.45712 9.31085 10.8697 6.53271 14.0865 6.53271H15.4756C18.6192 6.53271 21.0318 9.23773 20.7394 12.3083L20.4469 15.1595C20.4469 16.1099 19.7159 16.7679 18.8386 16.7679Z" stroke="white" stroke-width="1.4" stroke-miterlimit="10"/>
<path d="M13.794 25.7603C14.3058 26.1259 14.5251 26.7108 14.5251 27.3687C14.5251 27.8074 14.452 28.1729 14.2327 28.5385C14.0133 28.904 13.6478 29.1965 13.2092 29.4158C12.7705 29.6351 12.1856 29.7082 11.5277 29.7082C11.0159 29.7082 10.5041 29.6351 10.0655 29.4889C9.55372 29.3427 9.18818 29.1965 8.82263 28.904L9.48061 27.6612C9.77305 27.8805 10.0655 28.0267 10.431 28.0998C10.7966 28.2461 11.1621 28.2461 11.5277 28.2461C11.9663 28.2461 12.2587 28.1729 12.4781 28.0267C12.6974 27.8805 12.8436 27.6612 12.8436 27.3687C12.8436 27.0763 12.6974 26.857 12.4781 26.7108C12.2587 26.5646 11.8201 26.4914 11.1621 26.4914H9.33439L9.69994 22.4705H14.0865V23.7864H11.089L10.9428 25.1755H11.5277C12.5512 25.1755 13.2823 25.3217 13.794 25.7603Z" fill="white"/>
<path d="M16.6453 29.2694C16.2066 28.977 15.8411 28.5383 15.5486 28.0266C15.2562 27.4417 15.1831 26.7837 15.1831 26.0527C15.1831 25.2485 15.3293 24.5905 15.5486 24.0787C15.8411 23.4938 16.2066 23.1283 16.6453 22.8359C17.0839 22.5434 17.6688 22.3972 18.2537 22.3972C18.8385 22.3972 19.3503 22.5434 19.8621 22.8359C20.3007 23.1283 20.6663 23.5669 20.9587 24.0787C21.2511 24.6636 21.3242 25.3216 21.3242 26.0527C21.3242 26.8568 21.178 27.5148 20.9587 28.0266C20.6663 28.6114 20.3007 28.977 19.8621 29.2694C19.4234 29.5619 18.8385 29.7081 18.2537 29.7081C17.5957 29.7081 17.0839 29.5619 16.6453 29.2694ZM19.2041 27.8073C19.4234 27.4417 19.5696 26.8568 19.5696 26.0527C19.5696 25.2485 19.4234 24.6636 19.2041 24.298C18.9848 23.9325 18.6192 23.7132 18.1806 23.7132C17.7419 23.7132 17.4495 23.9325 17.157 24.298C16.9377 24.6636 16.7915 25.2485 16.7915 26.0527C16.7915 26.8568 16.9377 27.4417 17.157 27.8073C17.3764 28.1728 17.7419 28.3921 18.1806 28.3921C18.6192 28.319 18.9848 28.1728 19.2041 27.8073Z" fill="white"/>
</svg>
