<?xml version="1.0" encoding="iso-8859-1"?>
<!-- Uploaded to: SVG Repo, www.svgrepo.com, Generator: SVG Repo Mixer Tools -->
<svg version="1.1" id="Layer_1" xmlns="http://www.w3.org/2000/svg" xmlns:xlink="http://www.w3.org/1999/xlink" 
	 viewBox="0 0 512 512" xml:space="preserve">
<rect y="57.332" width="512" height="397.336"/>
<circle style="fill:#00e932;" cx="44.192" cy="89.38" r="8.928"/>
<g style="opacity:0.7;">
	<circle style="fill:#FFFFFF;" cx="70.968" cy="89.38" r="8.928"/>
</g>
<g>
	<circle style="fill:#666666;" cx="97.736" cy="89.38" r="8.928"/>
	<polygon style="fill:#666666;" points="443.52,105.06 155.96,105.06 175.08,73.716 462.656,73.716 	"/>
</g>
<g>
	<path style="fill:#FFFFFF;" d="M195.2,82.396l1.856,7.128c0.408,1.56,0.8,3.008,1.048,4.456h0.096c0.312-1.416,0.8-2.92,1.24-4.424
		l2.296-7.16h2.144l2.168,7.008c0.52,1.672,0.928,3.16,1.248,4.576h0.088c0.28-1.536,0.64-3.048,1.08-4.544l2.008-7.04h2.52
		l-4.52,14.016h-2.312l-2.144-6.688c-0.488-1.6-0.896-2.952-1.248-4.616h-0.056c-0.336,1.568-0.76,3.12-1.28,4.64l-2.264,6.664
		h-2.312l-4.224-14.016H195.2z"/>
	<path style="fill:#FFFFFF;" d="M216.856,82.396l1.856,7.128c0.408,1.56,0.8,3.008,1.048,4.456h0.088
		c0.32-1.416,0.8-2.92,1.248-4.424l2.28-7.16h2.144l2.176,7.008c0.52,1.672,0.928,3.16,1.24,4.576h0.096
		c0.272-1.536,0.632-3.056,1.08-4.544l2.008-7.04h2.52l-4.52,14.016h-2.328l-2.144-6.688c-0.496-1.512-0.912-3.056-1.24-4.616
		h-0.064c-0.328,1.568-0.752,3.12-1.272,4.64l-2.264,6.664h-2.328l-4.232-14.016H216.856z"/>
	<path style="fill:#FFFFFF;" d="M238.488,82.396l1.856,7.128c0.408,1.56,0.8,3.008,1.048,4.456h0.088
		c0.32-1.416,0.8-2.92,1.248-4.424l2.28-7.16h2.144l2.176,7.008c0.52,1.672,0.928,3.16,1.24,4.576h0.096
		c0.272-1.536,0.632-3.056,1.08-4.544l2.008-7.04h2.52l-4.52,14.016h-2.328l-2.152-6.688c-0.496-1.512-0.912-3.056-1.24-4.616
		h-0.064c-0.328,1.568-0.752,3.12-1.272,4.64l-2.264,6.664h-2.328l-4.232-14.016H238.488z"/>
</g>
<g>
	<polygon style="fill:#666666;" points="0,423.58 82.856,423.58 113.944,454.66 0,454.66 	"/>
	<polygon style="fill:#666666;" points="512,423.58 429.144,423.58 398.056,454.66 512,454.66 	"/>
</g>
<g>
	<path style="fill:#FFFFFF;" d="M169.712,165.02c22.128,0,40.072,17.944,40.072,40.072s-17.944,40.072-40.072,40.072
		s-40.072-17.944-40.072-40.072C129.664,182.964,147.592,165.036,169.712,165.02 M169.712,157.02
		c-26.552,0-48.072,21.52-48.072,48.072s21.52,48.072,48.072,48.072s48.072-21.52,48.072-48.072l0,0
		C217.784,178.54,196.264,157.02,169.712,157.02z"/>
	<path style="fill:#FFFFFF;" d="M112.168,276.916l38.88,84.288H76.384v-47.2c0-29.184,24.576-35.64,35.784-37.072 M117.104,268.532
		c0,0-48.72,0.648-48.72,45.472v55.2h95.2l-46.48-100.688C117.104,268.516,117.104,268.532,117.104,268.532z"/>
	<path style="fill:#FFFFFF;" d="M227.2,276.996c5.696,0.784,11.24,2.424,16.448,4.872c12.576,5.56,20.328,18.4,19.376,32.12v47.2
		h-74.648L227.2,276.996 M222.304,268.508L175.88,369.196h95.2v-55.2c0-44.8-48.72-45.472-48.72-45.472L222.304,268.508z"/>
</g>
<g>
	<polygon style="fill:#00e932;" points="169.712,268.508 136.256,268.508 169.712,342.556 203.168,268.508 	"/>
	<path style="fill:#00e932;" d="M251.496,211.412l64.624-30.024v14.272l-48.872,21.408v0.272l48.872,21.408v14.272l-64.624-30.024
		V211.412z"/>
	<path style="fill:#00e932;" d="M326.096,258.388l28.8-97.6h13.6l-28.8,97.6H326.096z"/>
	<path style="fill:#00e932;" d="M440.952,223.404l-64.624,29.6v-14.256l49.952-21.408v-0.272l-49.952-21.408v-14.264l64.624,29.6
		V223.404z"/>
</g>
</svg>