<?xml version="1.0" encoding="utf-8"?><!-- Uploaded to: SVG Repo, www.svgrepo.com, Generator: SVG Repo Mixer Tools -->
<svg width="800px" height="800px" viewBox="0 0 960 960" fill="none" xmlns="http://www.w3.org/2000/svg">
<path d="M303.58 871.32C276.758 868.956 249.754 862.319 224.204 853.681C148.738 827.95 108.186 772.76 99.7304 694.747C93.7294 639.284 90.8199 583.457 87.4557 527.63C84.0915 472.258 80 416.886 80 361.513C80 314.415 85.6372 267.317 104.458 223.128C125.734 173.393 162.558 139.842 212.566 120.385C252.572 104.837 294.67 99.745 336.858 94.8351C417.78 85.5609 498.884 82.1968 580.169 87.5612C644.088 91.7437 707.644 99.2904 766.744 125.931C806.386 143.843 834.482 173.666 848.484 215.854C864.123 262.771 869.942 311.233 873.943 360.149C880.034 435.434 881.671 510.809 878.216 586.276C875.852 636.738 867.669 686.11 847.575 732.48C816.115 805.128 764.471 855.5 683.64 868.593C655.454 873.139 626.631 874.685 598.081 875.412C555.711 876.503 513.25 875.685 470.789 875.685L303.58 871.32ZM493.247 813.129C552.71 810.493 605.628 808.674 658.545 805.492C700.097 803.037 734.375 785.307 760.47 752.211C796.294 706.749 808.023 653.013 811.478 597.459C817.115 506.718 814.297 416.067 804.204 325.689C800.567 293.048 795.567 260.952 777.018 232.584C772.108 225.037 768.199 216.763 763.653 208.944C751.832 188.668 736.466 170.574 713.645 164.391C663.091 150.571 610.992 143.843 558.711 143.934C500.702 144.025 442.511 145.298 384.775 150.116C341.223 153.753 297.852 162.209 255.118 171.665C202.11 183.394 171.105 219.491 157.558 270.954C143.464 324.598 143.555 379.425 146.829 434.343C150.011 486.806 154.193 539.268 158.103 591.731C160.649 625.009 162.377 658.378 166.559 691.474C173.105 742.118 200.019 777.76 250.118 792.217C274.03 799.127 298.852 805.219 323.493 806.765C382.138 810.493 440.875 811.311 493.247 813.129Z" fill="#000000"/>
<path d="M493.247 813.13C440.875 811.312 382.139 810.493 323.493 806.766C298.762 805.22 274.031 799.037 250.118 792.218C200.019 777.761 173.106 742.119 166.559 691.475C162.286 658.47 160.558 625.01 158.103 591.732C154.103 539.269 150.011 486.897 146.829 434.344C143.556 379.517 143.465 324.69 157.558 270.954C171.106 219.583 202.11 183.395 255.119 171.666C297.853 162.21 341.223 153.754 384.775 150.117C442.512 145.207 500.703 144.025 558.712 143.934C611.084 143.844 663.092 150.663 713.645 164.392C736.467 170.666 751.833 188.669 763.653 208.945C768.199 216.764 772.109 225.038 777.019 232.585C795.567 260.862 800.568 293.049 804.205 325.69C814.297 416.068 817.116 506.719 811.479 597.46C808.024 653.014 796.294 706.75 760.471 752.212C734.376 785.308 700.188 803.038 658.546 805.493C605.628 808.584 552.711 810.403 493.247 813.13ZM384.412 652.832C387.321 658.015 389.776 666.107 395.141 671.017C407.87 682.837 427.327 677.018 435.056 659.197C440.784 645.922 445.148 632.011 449.24 618.1C480.881 510.265 512.341 402.339 543.891 294.413C549.074 276.683 541.073 259.953 524.797 254.952C508.886 250.042 492.247 259.953 487.246 277.592C484.973 285.593 483.336 293.776 481.063 301.868C452.877 402.793 424.691 503.718 396.595 604.734C392.413 619.736 388.958 634.92 384.412 652.832ZM249.209 460.984C288.397 429.616 325.311 399.884 362.408 370.334C374.774 360.514 378.865 348.694 372.955 337.328C367.045 325.872 353.134 321.144 338.95 327.054C330.04 330.782 321.129 335.601 313.582 341.602C274.758 372.607 236.298 403.975 197.837 435.526C188.199 443.436 183.289 454.71 186.653 466.621C189.472 476.805 194.109 487.534 200.928 495.353C232.661 531.995 273.303 557.727 313.31 584.003C329.494 594.641 350.497 584.913 355.225 567.092C358.862 553.18 353.589 542.088 342.587 533.723C325.311 520.539 307.581 507.81 290.397 494.535C276.94 484.079 264.029 473.077 249.209 460.984ZM703.916 460.439C699.825 463.985 697.097 466.803 693.915 469.167C656.818 496.99 619.63 524.721 582.443 552.544C567.44 563.818 563.531 580.003 572.532 593.278C581.897 606.916 599.809 609.826 614.72 597.915C661.364 560.454 707.644 522.539 753.288 483.897C771.472 468.531 770.108 449.982 751.56 434.889C731.011 418.159 710.19 401.793 689.187 385.7C672.184 372.698 654.727 360.332 637.36 347.785C633.542 345.057 629.541 342.42 625.359 340.42C612.356 334.419 598.627 338.238 591.808 349.33C585.261 360.059 587.534 373.88 598.536 382.426C613.175 393.792 628.541 404.066 643.361 415.159C663.455 429.888 683.277 444.982 703.916 460.439Z" fill="white"/>
<path d="M384.414 652.83C388.96 634.827 392.415 619.643 396.598 604.732C424.693 503.807 452.97 402.882 481.066 301.866C483.339 293.865 484.975 285.591 487.248 277.589C492.249 259.95 508.888 250.04 524.8 254.95C541.075 259.95 549.076 276.68 543.894 294.41C512.343 402.336 480.884 510.262 449.242 618.097C445.151 632.009 440.787 645.92 435.058 659.195C427.421 677.016 407.872 682.744 395.143 671.015C389.869 666.105 387.415 658.104 384.414 652.83Z" fill="#000000"/>
<path d="M249.212 460.985C263.941 473.077 276.943 484.079 290.309 494.444C307.494 507.719 325.224 520.448 342.499 533.632C353.501 541.997 358.865 553.181 355.137 567.001C350.409 584.822 329.406 594.551 313.222 583.913C273.216 557.636 232.573 531.905 200.841 495.263C194.021 487.352 189.475 476.714 186.566 466.531C183.201 454.529 188.111 443.345 197.749 435.435C236.119 403.885 274.67 372.516 313.495 341.511C321.041 335.51 329.952 330.691 338.862 326.964C353.046 321.054 366.958 325.782 372.868 337.238C378.778 348.694 374.686 360.423 362.32 370.243C325.315 399.884 288.4 429.616 249.212 460.985Z" fill="#000000"/>
<path d="M703.913 460.437C683.274 444.981 663.452 429.887 643.358 415.067C628.447 404.065 613.081 393.7 598.533 382.334C587.532 373.788 585.258 359.967 591.805 349.238C598.624 338.146 612.354 334.327 625.356 340.328C629.629 342.328 633.539 344.965 637.358 347.693C654.724 360.24 672.181 372.606 689.184 385.608C710.187 401.701 731.009 418.067 751.557 434.797C770.106 449.89 771.469 468.439 753.285 483.805C707.641 522.447 661.27 560.362 614.718 597.823C599.897 609.734 581.894 606.824 572.529 593.186C563.437 579.911 567.347 563.726 582.44 552.452C619.627 524.72 656.815 496.898 693.912 469.075C697.094 466.802 699.913 463.983 703.913 460.437Z" fill="#000000"/>
</svg>