<svg xmlns="http://www.w3.org/2000/svg" width="314" height="278" fill="none"><path fill="#B476E5" d="m249.296 121.856-50.02-3.739a30.333 30.333 0 0 0-14.178 2.337l-13.306 5.671a43.34 43.34 0 0 1-6.543 8.943c-6.419 6.855-31.036 19.599-44.029 22.279a13.227 13.227 0 0 1-8.912-1.558 186.322 186.322 0 0 1-18.471 13.059s12.152 34.619 57.4 15.051l35.989-15.612-7.883 18.915c.218 10.812.28 24.99-.436 34.44a45.984 45.984 0 0 0 25.958.247c3.394-23.058 5.981-59.453-2.806-73.195l43.002-.405c5.419-9.759 4.941-15.309 4.235-26.433ZM169.4 108.457l5.235-23.028a1.951 1.951 0 0 0-2.936-2.088 1.948 1.948 0 0 0-.865 1.216l-6.17 27.14"/><path fill="#B476E5" d="m169.4 108.457 5.235-23.028a1.951 1.951 0 0 0-2.936-2.088 1.948 1.948 0 0 0-.865 1.216l-6.17 27.14c.776 2.862 2.86 6.7 4.736-3.24ZM165.349 21.207a19.544 19.544 0 0 1-12.061 18.05A19.536 19.536 0 0 1 126.65 25.02 19.539 19.539 0 0 1 145.811 1.67a19.553 19.553 0 0 1 13.813 5.726 19.558 19.558 0 0 1 5.725 13.811Z"/><path fill="#47BDFF" d="M267.372 124.317a78.03 78.03 0 0 1-14.957 23.028c3.459.529 6.917 1.312 9.878 1.776a37.911 37.911 0 0 0 8.596-5.201c8.2-6.606 25.092-14.801 28.792-19.475-6.699-.969-23.089-.315-32.309-.128ZM203.987 240.857a77.858 77.858 0 0 1-23.588-14.086c-.405 3.461-1.028 6.951-1.402 9.942a38.386 38.386 0 0 0 5.515 8.413c6.888 7.915 15.707 24.492 20.5 28.044.752-6.73-.493-23.089-1.025-32.313ZM97.015 142.079c-.623.311-1.278.592-1.932.872a139.168 139.168 0 0 1-8.603-11.218c.28.656 8.88 19.257 23.152 26.268.934-.748 1.838-1.464 2.679-2.181-5.331-2.898-10.871-8.507-15.296-13.741ZM178.966 171.836s.28 6.575.436 15.331l7.821-18.883-8.257 3.552ZM95.052 60.315s-5.456-10.222-18.29-3.989C63.925 62.56 66.415 87.611 66.415 87.611s-11.406 5.453-17.482 14.645c-9.41 14.24-4.673 35.741 24.59 35.741a64.085 64.085 0 0 1-1.434-18.728c.78-11.061 4.799-21.188 8.351-31.565 4.53-13.413 3.557-12.34 5.142-17.262-3.772-3.584.716-7.884 2.742-4.395.857 1.41 1.062 1.466 1.748 1.68 3.713 1.163 10.45 2.46 14.104 1.25.005-.095.316-8.662-9.125-8.662Z"/><path fill="#47BDFF" d="m88.135 92.035-3.334-8.35a20.427 20.427 0 0 0 3.895 3.957 37.226 37.226 0 0 0-.561 4.393ZM132.226 233.535a5.437 5.437 0 1 1-10.667.059 5.438 5.438 0 0 1 4.248-4.297 5.39 5.39 0 0 1 4.094.781 5.407 5.407 0 0 1 2.325 3.457Z"/><path stroke="#fff" stroke-width="1.9" d="M165.349 21.207a19.536 19.536 0 0 1-33.352 13.815 19.534 19.534 0 0 1-4.235-21.291 19.53 19.53 0 0 1 31.862-6.335 19.553 19.553 0 0 1 5.725 13.811Z"/><path stroke="#fff" stroke-linecap="round" stroke-linejoin="round" stroke-width="1.9" d="m208.069 183.21 16.11 8.133a13.987 13.987 0 0 0 18.76-6.17l18.447-36.52M273.071 125.533l11.373-22.498a13.981 13.981 0 0 0-6.17-18.758L164.44 26.767m-64.527 74.841 33.026-65.421"/><path stroke="#fff" stroke-linecap="round" stroke-linejoin="round" stroke-width="1.9" d="m284.974 91.506-95.071 15.33-35.141-68.248M137.812 188.413a78.469 78.469 0 0 1-25.259 18.493 78.507 78.507 0 0 1-87.64-15.135 78.506 78.506 0 0 1-17.257-87.247 78.497 78.497 0 0 1 17.876-25.7M88.135 94.622a29.11 29.11 0 0 1 .596-7.04c3.799 2.541 6.938.962 9.242-2.325a29.31 29.31 0 0 0 4.37-15.937"/><path stroke="#fff" stroke-linecap="round" stroke-linejoin="round" stroke-width="1.9" d="M86.48 131.733a139.128 139.128 0 0 0 8.6 11.218 46.811 46.811 0 0 0 13.375-8.518 53.78 53.78 0 0 0 7.813-8.838 239.373 239.373 0 0 1-14.924-21.937 20.43 20.43 0 0 0-9.533-8.282 11.21 11.21 0 0 0-5.36-.685A8.883 8.883 0 0 1 78.608 93M249.545 124.286c4.237.156 12.651.125 17.792.031a78.025 78.025 0 0 1-14.924 23.028c-1.589-.25-4.955-.593-6.481-.686M299.679 124.442c1.776.249 2.918.656 3.054 1.215.863 3.539-17.66 12.136-25.988 18.852a30.736 30.736 0 0 1-8.036 4.736 16.003 16.003 0 0 1-6.396-.124 37.68 37.68 0 0 0 8.607-5.201c8.177-6.593 25.053-14.773 28.759-19.478Z"/><path stroke="#fff" stroke-linecap="round" stroke-linejoin="round" stroke-width="1.9" d="M267.372 124.317c9.223-.187 25.613-.841 32.308.125-3.708 4.674-20.591 12.877-28.792 19.475a37.758 37.758 0 0 1-8.6 5.203c-2.961-.467-6.419-1.246-9.878-1.776a78.027 78.027 0 0 0 14.962-23.027ZM203.614 222.255c-.281 4.674 0 11.56.374 18.633a78.075 78.075 0 0 1-23.557-14.084c.187-1.589.311-3.178.342-4.674M205.016 273.17c-.187 1.804-.527 2.936-1.091 3.116-3.475 1.107-12.78-17.228-19.787-25.301a30.64 30.64 0 0 1-5.047-7.884 16.185 16.185 0 0 1-.094-6.396 37.89 37.89 0 0 0 5.515 8.413c6.888 7.949 15.705 24.5 20.504 28.052Z"/><path stroke="#fff" stroke-linecap="round" stroke-linejoin="round" stroke-width="1.9" d="M203.987 240.857c.53 9.224 1.776 25.584 1.028 32.308-4.798-3.552-13.638-20.111-20.5-28.044a38.077 38.077 0 0 1-5.515-8.413c.374-2.991.997-6.483 1.402-9.941a77.831 77.831 0 0 0 23.585 14.09ZM109.635 158.001c-14.271-7.011-22.872-25.613-23.155-26.268M97.016 142.078c4.428 5.235 9.974 10.87 15.299 13.776a13.333 13.333 0 0 0 8.912 1.527c13.005-2.624 37.61-15.424 44.029-22.279 11.624-12.415 10.67-21.873 9.659-37.673-.41-6.419-1.216-6.265-2.181-3.28-1.435 4.454-3.245 15.252-4.736 19.506a1.891 1.891 0 0 1-.81 1.029c-1.148.656-1.871-.779-2.46-2.805-.625-2.15-1.071-5.013-1.652-6.724-1.018-3.016-3.096-5.764-3.427 3.085-.194 5.204-.207 14.166-5.858 17.45a99.442 99.442 0 0 1-13.711 6.481 59.33 59.33 0 0 1-15.237 3.739c-2.835.151-6.637-3.085-10.251-8.101"/><path stroke="#fff" stroke-linecap="round" stroke-linejoin="round" stroke-width="1.9" d="m169.399 108.457 5.235-23.028a1.947 1.947 0 0 0-1.464-2.337 1.948 1.948 0 0 0-2.337 1.465l-6.17 27.14M178.976 171.866c4.861-2.088 8.255-3.582 8.255-3.582l-7.829 18.883M112.315 155.851a183.087 183.087 0 0 1-18.478 12.997 49.892 49.892 0 0 1-20.313-30.851M171.768 126.125l14.614-6.201a24.904 24.904 0 0 1 11.466-1.901l51.447 3.833c1.158 10.767 1.02 16.959-4.237 26.424l-42.941.405M95.052 60.315s-5.456-10.222-18.29-3.989C63.925 62.56 66.415 87.611 66.415 87.611s-11.406 5.453-17.482 14.645c-9.41 14.24-4.673 35.741 24.59 35.741a64.085 64.085 0 0 1-1.434-18.728c.78-11.061 4.799-21.188 8.351-31.565.81-2.399 2.742-8.257 3.397-10.69.592-2.272.872-3.863 1.745-6.572-3.772-3.584.716-7.884 2.742-4.395.894 1.475 1.067 1.39 2.046 1.713 2.424.797 8.955 2.606 13.814 1.148-.003.005.308-8.593-9.133-8.593ZM33.54 65.672A159.09 159.09 0 0 0 2.567 85.305a1.954 1.954 0 0 0-.156 3.21l7.105 5.64c4.305-5.647 10.142-10.42 16.006-15.35a117.44 117.44 0 0 0-11.808 18.673l7.644 6.055a1.96 1.96 0 0 0 1.777.347 1.959 1.959 0 0 0 1.308-1.25L36.47 67.988a1.97 1.97 0 0 0-2.929-2.316ZM244.808 6.284c-6.201-3.087-13.149 1.312-12.152 7.79l-2.898 2.678 3.988.311c3.521 5.952 12.464 6.203 15.393.343a8.464 8.464 0 0 0-4.331-11.122ZM281.702 186.326a8.074 8.074 0 0 0-6.155-.525 8.055 8.055 0 0 0-2.755 1.522 8.094 8.094 0 0 0-1.965 2.462s-5.266 10.284-9.69 9.971l21.999 11.373c-2.836-3.427 2.025-13.927 2.025-13.927a8.07 8.07 0 0 0-.997-8.911 8.064 8.064 0 0 0-2.462-1.965ZM275.75 207.328a4.072 4.072 0 0 1-5.484 1.745 4.073 4.073 0 0 1-1.745-5.485M305.695 67.294l-5.827 20.068M312.8 80.226l-20.067-5.827M179.434 211.347a92.846 92.846 0 0 0 26.766.492"/><path stroke="#fff" stroke-linecap="round" stroke-linejoin="round" stroke-width="1.9" d="M237.393 121.045a45.962 45.962 0 0 1-4.331 27.359M132.226 233.535a5.437 5.437 0 0 1-2.282 5.595 5.452 5.452 0 0 1-3.016.934 5.448 5.448 0 0 1-5.043-3.33 5.439 5.439 0 0 1 3.922-7.437 5.39 5.39 0 0 1 4.093.781 5.397 5.397 0 0 1 2.326 3.457Z"/><path stroke="#fff" stroke-linecap="round" stroke-linejoin="round" stroke-width="1.9" d="M129.764 216.49a14.452 14.452 0 0 1 7.533-3.706 14.453 14.453 0 0 1 14.631 6.643 14.463 14.463 0 0 1-7.203 21.165 14.457 14.457 0 0 1-19.534-14.024 14.465 14.465 0 0 1 4.573-10.078ZM93.837 168.848s12.152 34.619 57.4 15.051l27.739-12.033c.344 13.09 1.069 35.245-.033 49.766a45.995 45.995 0 0 0 25.956.249c3.397-23.06 6.022-59.46-2.773-73.196-11.395-17.799-46.429-6.388-46.429-6.388M88.732 87.583a17.162 17.162 0 0 1-3.907-3.865l3.31 8.318"/></svg>