<svg xmlns="http://www.w3.org/2000/svg" width="314" height="278" fill="none"><path fill="#B476E5" d="m249.296 121.855-50.02-3.739a30.346 30.346 0 0 0-14.178 2.337l-13.306 5.671a43.313 43.313 0 0 1-6.543 8.943c-6.419 6.855-31.035 19.6-44.029 22.279a13.215 13.215 0 0 1-8.912-1.558 186.332 186.332 0 0 1-18.471 13.06s12.152 34.619 57.4 15.05l35.99-15.611-7.884 18.914c.218 10.813.28 24.99-.436 34.44a45.993 45.993 0 0 0 25.958.248c3.395-23.059 5.981-59.454-2.806-73.195l43.002-.405c5.419-9.76 4.941-15.31 4.235-26.434ZM169.4 108.457l5.235-23.028a1.947 1.947 0 0 0-1.464-2.337 1.95 1.95 0 0 0-2.337 1.465l-6.17 27.14"/><path fill="#B476E5" d="m169.4 108.457 5.235-23.028a1.947 1.947 0 0 0-1.464-2.337 1.95 1.95 0 0 0-2.337 1.465l-6.17 27.14c.776 2.862 2.86 6.7 4.736-3.24ZM165.349 21.207a19.536 19.536 0 0 1-33.352 13.815 19.534 19.534 0 0 1-4.236-21.291A19.539 19.539 0 0 1 145.812 1.67a19.553 19.553 0 0 1 13.812 5.726 19.553 19.553 0 0 1 5.725 13.811Z"/><path fill="#47BDFF" d="M267.372 124.317a78.03 78.03 0 0 1-14.957 23.028c3.459.529 6.917 1.312 9.878 1.776a37.911 37.911 0 0 0 8.596-5.201c8.2-6.606 25.092-14.801 28.792-19.475-6.699-.969-23.089-.315-32.309-.128ZM203.987 240.857a77.858 77.858 0 0 1-23.588-14.086c-.405 3.461-1.028 6.951-1.402 9.942a38.386 38.386 0 0 0 5.515 8.413c6.888 7.915 15.707 24.492 20.5 28.044.751-6.73-.493-23.089-1.025-32.313ZM97.015 142.079c-.623.311-1.278.592-1.932.872a139.167 139.167 0 0 1-8.603-11.218c.28.656 8.88 19.257 23.152 26.268.934-.748 1.838-1.464 2.679-2.181-5.331-2.898-10.871-8.507-15.296-13.741ZM178.966 171.836s.28 6.575.436 15.331l7.821-18.883-8.257 3.552ZM95.052 60.315s-5.456-10.222-18.291-3.989C63.926 62.56 66.416 87.611 66.416 87.611s-11.406 5.453-17.482 14.645c-9.41 14.24-4.673 35.741 24.59 35.741a64.085 64.085 0 0 1-1.434-18.728c.78-11.061 4.799-21.188 8.351-31.565 4.53-13.413 3.557-12.34 5.142-17.262-3.772-3.584.716-7.884 2.742-4.395.857 1.41 1.062 1.466 1.748 1.68 3.713 1.163 10.45 2.46 14.104 1.25.005-.095.316-8.662-9.125-8.662Z"/><path fill="#47BDFF" d="m88.135 92.035-3.334-8.35a20.424 20.424 0 0 0 3.895 3.957 37.226 37.226 0 0 0-.561 4.393ZM132.226 233.535a5.435 5.435 0 0 1-2.282 5.596 5.44 5.44 0 0 1-6.042.033 5.437 5.437 0 0 1-.871-8.363 5.455 5.455 0 0 1 2.776-1.504 5.405 5.405 0 0 1 5.602 2.277c.4.593.677 1.259.817 1.961Z"/><path stroke="#08111F" stroke-width="1.9" d="M165.349 21.207a19.536 19.536 0 0 1-33.352 13.815 19.534 19.534 0 0 1-4.236-21.291A19.539 19.539 0 0 1 145.812 1.67a19.553 19.553 0 0 1 13.812 5.726 19.553 19.553 0 0 1 5.725 13.811Z"/><path stroke="#08111F" stroke-linecap="round" stroke-linejoin="round" stroke-width="1.9" d="m208.069 183.21 16.11 8.133a13.987 13.987 0 0 0 18.76-6.17l18.447-36.52M273.071 125.532l11.373-22.497a13.983 13.983 0 0 0-6.169-18.759l-113.834-57.51m-64.528 74.842 33.026-65.422"/><path stroke="#08111F" stroke-linecap="round" stroke-linejoin="round" stroke-width="1.9" d="m284.974 91.505-95.071 15.331-35.141-68.248M137.812 188.413a78.511 78.511 0 0 1-55.737 25.645A78.5 78.5 0 0 1 7.32 165.876a78.499 78.499 0 0 1 18.212-87.053M88.134 94.622a29.11 29.11 0 0 1 .597-7.039c3.798 2.54 6.937.961 9.242-2.325a29.31 29.31 0 0 0 4.37-15.938"/><path stroke="#08111F" stroke-linecap="round" stroke-linejoin="round" stroke-width="1.9" d="M86.48 131.734a138.936 138.936 0 0 0 8.6 11.217 46.811 46.811 0 0 0 13.375-8.518 53.698 53.698 0 0 0 7.813-8.838 239.358 239.358 0 0 1-14.924-21.936 20.428 20.428 0 0 0-9.533-8.282 11.21 11.21 0 0 0-5.36-.686 8.883 8.883 0 0 1-7.844-1.689M249.545 124.286c4.237.156 12.651.125 17.792.031a78.025 78.025 0 0 1-14.924 23.028c-1.589-.25-4.955-.593-6.481-.686M299.679 124.441c1.776.25 2.918.656 3.054 1.216.863 3.539-17.66 12.136-25.988 18.851a30.74 30.74 0 0 1-8.036 4.737 16.021 16.021 0 0 1-6.396-.125 37.676 37.676 0 0 0 8.607-5.2c8.177-6.593 25.053-14.773 28.759-19.479Z"/><path stroke="#08111F" stroke-linecap="round" stroke-linejoin="round" stroke-width="1.9" d="M267.372 124.317c9.223-.187 25.613-.841 32.308.125-3.708 4.674-20.591 12.877-28.792 19.475a37.758 37.758 0 0 1-8.6 5.203c-2.961-.467-6.419-1.246-9.878-1.776a78.027 78.027 0 0 0 14.962-23.027ZM203.614 222.255c-.281 4.674 0 11.56.374 18.633a78.075 78.075 0 0 1-23.557-14.084c.187-1.589.311-3.178.342-4.674M205.016 273.17c-.187 1.804-.527 2.936-1.091 3.116-3.475 1.107-12.781-17.228-19.787-25.301a30.67 30.67 0 0 1-5.048-7.884 16.204 16.204 0 0 1-.093-6.396 37.89 37.89 0 0 0 5.515 8.413c6.888 7.949 15.705 24.5 20.504 28.052Z"/><path stroke="#08111F" stroke-linecap="round" stroke-linejoin="round" stroke-width="1.9" d="M203.987 240.857c.53 9.224 1.776 25.584 1.028 32.308-4.798-3.552-13.638-20.111-20.5-28.044a38.077 38.077 0 0 1-5.515-8.413c.374-2.991.997-6.483 1.402-9.941a77.831 77.831 0 0 0 23.585 14.09ZM109.635 158.001c-14.271-7.011-22.872-25.613-23.155-26.268M97.016 142.078c4.428 5.235 9.974 10.87 15.299 13.776a13.333 13.333 0 0 0 8.912 1.527c13.005-2.624 37.61-15.424 44.029-22.279 11.624-12.415 10.67-21.873 9.659-37.673-.41-6.419-1.216-6.265-2.181-3.28-1.435 4.454-3.245 15.252-4.736 19.506a1.891 1.891 0 0 1-.81 1.029c-1.148.656-1.871-.779-2.46-2.805-.625-2.15-1.071-5.013-1.652-6.724-1.018-3.016-3.096-5.764-3.427 3.085-.194 5.204-.207 14.166-5.858 17.45a99.442 99.442 0 0 1-13.711 6.481 59.33 59.33 0 0 1-15.237 3.739c-2.835.151-6.637-3.085-10.251-8.101"/><path stroke="#08111F" stroke-linecap="round" stroke-linejoin="round" stroke-width="1.9" d="m169.399 108.457 5.235-23.028a1.947 1.947 0 0 0-1.464-2.337 1.948 1.948 0 0 0-2.337 1.465l-6.17 27.14M178.976 171.866c4.861-2.088 8.255-3.582 8.255-3.582l-7.829 18.883M112.314 155.851a183.262 183.262 0 0 1-18.477 12.997 49.894 49.894 0 0 1-20.314-30.852M171.768 126.125l14.614-6.201a24.904 24.904 0 0 1 11.466-1.901l51.447 3.833c1.158 10.767 1.02 16.959-4.237 26.424l-42.941.405"/><path stroke="#08111F" stroke-linecap="round" stroke-linejoin="round" stroke-width="1.9" d="M95.052 60.315s-5.456-10.222-18.291-3.989C63.926 62.56 66.416 87.611 66.416 87.611s-11.406 5.453-17.482 14.645c-9.41 14.24-4.673 35.741 24.59 35.741a64.085 64.085 0 0 1-1.434-18.728c.78-11.061 4.799-21.188 8.351-31.565.81-2.399 2.742-8.257 3.397-10.69.592-2.272.872-3.863 1.745-6.572-3.772-3.584.716-7.884 2.742-4.395.894 1.475 1.067 1.39 2.046 1.713 2.424.797 8.955 2.606 13.814 1.148-.003.005.308-8.593-9.133-8.593ZM33.54 65.672A159.09 159.09 0 0 0 2.567 85.305a1.954 1.954 0 0 0-.156 3.21l7.105 5.64c4.305-5.647 10.142-10.42 16.006-15.35a117.44 117.44 0 0 0-11.808 18.673l7.644 6.055a1.96 1.96 0 0 0 1.777.347 1.959 1.959 0 0 0 1.308-1.25L36.47 67.988a1.97 1.97 0 0 0-2.929-2.316ZM244.808 6.284c-6.201-3.087-13.149 1.312-12.152 7.79l-2.898 2.678 3.988.311c3.521 5.952 12.464 6.203 15.393.343a8.464 8.464 0 0 0-4.331-11.122ZM281.702 186.325a8.074 8.074 0 0 0-6.155-.524 8.069 8.069 0 0 0-4.72 3.983s-5.266 10.285-9.69 9.971l21.999 11.374c-2.836-3.428 2.025-13.927 2.025-13.927a8.067 8.067 0 0 0-3.459-10.877ZM275.75 207.327a4.072 4.072 0 0 1-5.484 1.745 4.072 4.072 0 0 1-1.745-5.484M305.695 67.295l-5.827 20.067M312.799 80.226 292.732 74.4M179.434 211.348a92.846 92.846 0 0 0 26.766.492M237.393 121.045a45.958 45.958 0 0 1-4.331 27.358M132.226 233.535a5.435 5.435 0 0 1-2.282 5.596 5.44 5.44 0 0 1-6.042.033 5.437 5.437 0 0 1-.871-8.363 5.455 5.455 0 0 1 2.776-1.504 5.39 5.39 0 0 1 2.125-.019 5.4 5.4 0 0 1 4.294 4.257Z"/><path stroke="#08111F" stroke-linecap="round" stroke-linejoin="round" stroke-width="1.9" d="M129.765 216.491a14.463 14.463 0 0 1 15.856-2.605 14.458 14.458 0 0 1 6.307 5.542 14.454 14.454 0 0 1-.538 16.059 14.47 14.47 0 0 1-15.043 5.648 14.459 14.459 0 0 1-11.156-14.566 14.46 14.46 0 0 1 4.574-10.078ZM93.837 168.848s12.152 34.619 57.4 15.05l27.739-12.032c.344 13.09 1.069 35.245-.033 49.765a46.004 46.004 0 0 0 25.956.25c3.397-23.06 6.022-59.46-2.773-73.197-11.395-17.799-46.428-6.388-46.428-6.388M88.732 87.583a17.162 17.162 0 0 1-3.907-3.865l3.31 8.318"/></svg>