<svg width="32" height="24" viewBox="0 0 32 24" fill="none" xmlns="http://www.w3.org/2000/svg">
<path d="M7.41816 1.28666C7.55921 1.42755 7.6711 1.59487 7.74745 1.77903C7.82379 1.9632 7.86309 2.1606 7.86309 2.35997C7.86309 2.55933 7.82379 2.75674 7.74745 2.9409C7.6711 3.12507 7.55921 3.29238 7.41816 3.43327C5.14175 5.71006 3.86291 8.79783 3.86291 12.0174C3.86291 15.237 5.14175 18.3248 7.41816 20.6016C7.55901 20.7425 7.67072 20.9098 7.74691 21.094C7.82309 21.2781 7.86227 21.4754 7.8622 21.6747C7.86213 21.8739 7.82281 22.0712 7.74649 22.2553C7.67018 22.4393 7.55835 22.6066 7.4174 22.7474C7.27645 22.8883 7.10914 23 6.92502 23.0762C6.7409 23.1524 6.54358 23.1915 6.34432 23.1915C6.14506 23.1914 5.94776 23.1521 5.7637 23.0758C5.57963 22.9994 5.4124 22.8876 5.27155 22.7467C-0.653994 16.8211 -0.653994 7.21221 5.27155 1.28666C5.41244 1.14561 5.57976 1.03372 5.76392 0.957375C5.94809 0.881031 6.14549 0.841736 6.34486 0.841736C6.54422 0.841736 6.74163 0.881031 6.92579 0.957375C7.10996 1.03372 7.27727 1.14561 7.41816 1.28666V1.28666ZM26.7316 1.28666C32.6571 7.21373 32.6571 16.8211 26.7316 22.7467C26.4454 23.023 26.0622 23.1759 25.6645 23.1725C25.2667 23.169 24.8862 23.0095 24.6049 22.7282C24.3237 22.4469 24.1641 22.0664 24.1607 21.6687C24.1572 21.2709 24.3101 20.8877 24.5865 20.6016C26.8629 18.3248 28.1417 15.237 28.1417 12.0174C28.1417 8.79783 26.8629 5.71006 24.5865 3.43327C24.3018 3.14881 24.1418 2.76293 24.1417 2.3605C24.1415 1.95808 24.3013 1.57208 24.5857 1.28742C24.8702 1.00276 25.256 0.842764 25.6585 0.842622C26.0609 0.84248 26.4469 1.00221 26.7316 1.28666V1.28666ZM11.9192 5.64663C12.2036 5.93111 12.3634 6.31691 12.3634 6.71917C12.3634 7.12144 12.2036 7.50723 11.9192 7.79172C11.3669 8.34394 10.9288 8.99953 10.63 9.72107C10.3311 10.4426 10.1772 11.216 10.1772 11.9969C10.1772 12.7779 10.3311 13.5513 10.63 14.2728C10.9288 14.9944 11.3669 15.65 11.9192 16.2022C12.0641 16.3421 12.1797 16.5095 12.2592 16.6946C12.3387 16.8797 12.3805 17.0787 12.3823 17.2802C12.384 17.4816 12.3457 17.6814 12.2694 17.8678C12.1931 18.0542 12.0805 18.2236 11.938 18.3661C11.7956 18.5085 11.6262 18.6211 11.4398 18.6974C11.2533 18.7737 11.0536 18.8121 10.8521 18.8103C10.6507 18.8086 10.4516 18.7667 10.2665 18.6872C10.0815 18.6077 9.91406 18.4922 9.77412 18.3473C8.08995 16.663 7.1438 14.3788 7.1438 11.9969C7.1438 9.61513 8.08995 7.33086 9.77412 5.64663C10.0586 5.36223 10.4444 5.20246 10.8467 5.20246C11.2489 5.20246 11.6347 5.36223 11.9192 5.64663V5.64663ZM22.4763 5.64663C24.1604 7.33086 25.1066 9.61513 25.1066 11.9969C25.1066 14.3788 24.1604 16.663 22.4763 18.3473C22.3354 18.4882 22.1682 18.6 21.9841 18.6764C21.8001 18.7527 21.6028 18.792 21.4035 18.7921C21.2042 18.7921 21.0069 18.753 20.8228 18.6768C20.6387 18.6006 20.4714 18.4889 20.3304 18.348C20.1895 18.2072 20.0776 18.0399 20.0013 17.8559C19.925 17.6718 19.8857 17.4745 19.8856 17.2753C19.8856 17.076 19.9247 16.8787 20.0009 16.6945C20.0771 16.5104 20.1888 16.3431 20.3297 16.2022C20.8819 15.65 21.32 14.9944 21.6189 14.2728C21.9178 13.5513 22.0717 12.7779 22.0717 11.9969C22.0717 11.216 21.9178 10.4426 21.6189 9.72107C21.32 8.99953 20.8819 8.34394 20.3297 7.79172C20.0452 7.50706 19.8855 7.12106 19.8856 6.71864C19.8858 6.31621 20.0458 5.93033 20.3304 5.64587C20.6151 5.36141 21.0011 5.20169 21.4035 5.20183C21.8059 5.20197 22.1918 5.36197 22.4763 5.64663V5.64663ZM16.1244 9.84882C16.4233 9.84882 16.7192 9.90768 16.9953 10.022C17.2713 10.1364 17.5222 10.304 17.7335 10.5153C17.9448 10.7266 18.1124 10.9775 18.2268 11.2536C18.3411 11.5296 18.4 11.8255 18.4 12.1244C18.4 12.4232 18.3411 12.7191 18.2268 12.9952C18.1124 13.2713 17.9448 13.5221 17.7335 13.7334C17.5222 13.9447 17.2713 14.1124 16.9953 14.2267C16.7192 14.3411 16.4233 14.3999 16.1244 14.3999C15.5209 14.3999 14.9421 14.1602 14.5154 13.7334C14.0886 13.3067 13.8489 12.7279 13.8489 12.1244C13.8489 11.5209 14.0886 10.9421 14.5154 10.5153C14.9421 10.0886 15.5209 9.84882 16.1244 9.84882V9.84882Z" fill="#47BDFF"/>
</svg>
