<svg width="43" height="45" viewBox="0 0 43 45" fill="none" xmlns="http://www.w3.org/2000/svg">
<path d="M2 21.859C3.26845 21.9119 4.52878 22.0076 5.79972 22.0124C6.73325 22.0159 7.34991 21.9212 8.25335 21.6631C9.35743 21.3476 10.4204 21.1392 11.3204 20.4192C12.5029 19.4732 14.0712 18.6036 14.8858 17.2798C15.5405 16.2159 15.7424 15.0625 16.151 13.9146C16.7044 12.3597 16.9518 10.6388 16.9518 8.99452C16.9518 7.25085 16.9518 5.50718 16.9518 3.76352" stroke="#47BDFF" stroke-width="3" stroke-linecap="round"/>
<path d="M22.6255 2C22.6255 3.03796 22.6255 4.07593 22.6255 5.11389C22.6255 5.83246 22.5652 6.58171 22.7022 7.29064C22.8514 8.06287 23.01 8.94142 23.2815 9.67611C23.4925 10.2469 23.7722 10.8727 23.8907 11.4652C24.2494 13.259 26.242 14.0381 27.8736 14.0381C28.4245 14.0381 28.9754 14.0381 29.5263 14.0381C30.0848 14.0381 30.7062 13.8225 31.2473 13.6846C31.989 13.4955 32.6795 12.9559 33.3431 12.5813C33.6275 12.4207 33.9354 12.2044 34.2419 12.0957C34.6508 11.9506 35.1043 11.9061 35.49 11.6867C36.4652 11.1322 37.4906 10.7454 38.4633 10.1617C38.9508 9.86928 39.319 9.57227 39.852 9.34385C40.2417 9.17685 40.6752 9.05915 41.0277 8.82416" stroke="#47BDFF" stroke-width="3" stroke-linecap="round"/>
<path d="M6.60034 33.4371C7.38441 32.6844 8.19011 32.3222 9.14769 31.9206C9.77053 31.6594 10.3988 31.4161 11.0007 31.107C11.434 30.8845 11.8679 30.5769 12.317 30.4042C12.788 30.223 13.2483 30.0621 13.7312 29.91C14.0888 29.7974 14.457 29.8867 14.8132 29.7865C15.5371 29.5829 16.6819 29.3367 17.2413 29.9611C17.6553 30.4233 17.9548 31.0844 18.3275 31.5969C18.6953 32.1026 18.7697 32.871 18.8855 33.4712C18.9996 34.0622 18.9961 34.6009 19.0261 35.2007C19.0538 35.7544 19.2216 36.2954 19.2476 36.8535C19.2849 37.6554 19.1811 38.4743 19.2689 39.273C19.3369 39.8914 19.4819 40.4315 19.4819 41.0664C19.4819 41.748 19.5016 42.4233 19.4052 43.0983" stroke="#47BDFF" stroke-width="3" stroke-linecap="round"/>
<path d="M29.4497 38.7277C29.4497 37.8492 29.2269 36.9704 29.045 36.1165C28.9083 35.4743 28.913 34.8517 28.913 34.1996C28.913 33.389 28.9044 32.5778 28.913 31.7673C28.9229 30.8269 29.0772 29.9712 29.373 29.0836C29.6714 28.1884 29.7756 27.1847 30.1568 26.3233C30.4992 25.5498 30.9275 24.8051 31.4433 24.1252C32.3274 22.9598 33.3604 21.8477 34.6637 21.1689C35.7284 20.6144 36.706 19.913 37.769 19.3671C38.5187 18.9821 39.2979 19.0422 40.1077 18.8687" stroke="#47BDFF" stroke-width="3" stroke-linecap="round"/>
</svg>
