<svg xmlns="http://www.w3.org/2000/svg" width="160" height="38" fill="none"><path fill="#7780A1" d="M55.006 27.85a3.152 3.152 0 0 1-1.986-.572 1.856 1.856 0 0 1-.75-1.558V14.69a.31.31 0 0 1 .345-.345h1.999c.226 0 .333.119.333.345v10.172c0 .452.202.678.618.678.177.007.354-.013.524-.06.238 0 .369.072.38.286l.18 1.487a.312.312 0 0 1-.16.334.309.309 0 0 1-.126.035c-.438.145-.896.22-1.357.226ZM66.249 26.576a5.603 5.603 0 0 1-7.139 0 4.76 4.76 0 0 1 0-6.698 5.627 5.627 0 0 1 7.139 0 4.83 4.83 0 0 1 0 6.686v.012Zm-5.259-1.57a2.534 2.534 0 0 0 3.403 0 2.665 2.665 0 0 0 0-3.498 2.534 2.534 0 0 0-3.403 0 2.665 2.665 0 0 0 0 3.498ZM78.598 18.902c.226 0 .333.119.333.345v8.53a3.878 3.878 0 0 1-1.32 3.057 4.996 4.996 0 0 1-3.463 1.19 5.568 5.568 0 0 1-3.224-.892 3.567 3.567 0 0 1-1.558-2.38c0-.238 0-.345.32-.345h2a.44.44 0 0 1 .392.274c.13.361.388.662.726.845.411.212.87.318 1.332.309a2.106 2.106 0 0 0 1.535-.547 2.024 2.024 0 0 0 .56-1.488v-.749a3.986 3.986 0 0 1-2.475.773 4.617 4.617 0 0 1-3.38-1.297 4.758 4.758 0 0 1 0-6.614 4.655 4.655 0 0 1 3.38-1.285 3.998 3.998 0 0 1 2.534.82v-.19a.308.308 0 0 1 .333-.345l1.975-.011Zm-4.616 6.805a2.093 2.093 0 0 0 1.63-.702 2.914 2.914 0 0 0 0-3.57 2.083 2.083 0 0 0-1.618-.69 2.14 2.14 0 0 0-1.654.703 2.523 2.523 0 0 0-.643 1.784 2.57 2.57 0 0 0 .631 1.773 2.154 2.154 0 0 0 1.654.702ZM89.198 26.577a5.626 5.626 0 0 1-7.138 0 4.842 4.842 0 0 1 0-6.698 5.639 5.639 0 0 1 7.138 0 4.83 4.83 0 0 1 0 6.686v.012Zm-5.27-1.57a2.379 2.379 0 0 0 1.713.654 2.38 2.38 0 0 0 1.701-.655 2.7 2.7 0 0 0 0-3.497 2.378 2.378 0 0 0-1.701-.655 2.381 2.381 0 0 0-1.713.655 2.7 2.7 0 0 0 0 3.497ZM94.837 16.88a1.725 1.725 0 0 1-2.273 0 1.441 1.441 0 0 1 0-2.093 1.76 1.76 0 0 1 2.273 0 1.435 1.435 0 0 1 .334 1.617c-.078.18-.192.342-.334.477Zm.25 10.97a3.2 3.2 0 0 1-1.987-.572 1.879 1.879 0 0 1-.738-1.558v-6.472a.308.308 0 0 1 .207-.33.31.31 0 0 1 .138-.015h1.999c.226 0 .333.119.333.345v5.615c0 .452.202.678.607.678.18.007.36-.013.535-.059.238 0 .369.071.38.285l.18 1.488a.308.308 0 0 1-.286.368 4.505 4.505 0 0 1-1.368.226ZM104.093 18.614a4.67 4.67 0 0 1 3.402 1.285 4.876 4.876 0 0 1 0 6.65 4.623 4.623 0 0 1-3.402 1.297 4.095 4.095 0 0 1-2.487-.773v4.294c0 .227-.119.334-.345.334h-1.998a.286.286 0 0 1-.333-.334v-9.755a.62.62 0 0 0-.702-.702h-.393c-.262 0-.392-.095-.392-.285V19.22a.38.38 0 0 1 .273-.393c.412-.15.847-.222 1.285-.214a2.2 2.2 0 0 1 2.153 1.19 4.022 4.022 0 0 1 2.939-1.19Zm-1.856 6.389a2.272 2.272 0 0 0 3.283 0 2.57 2.57 0 0 0 .655-1.82 2.532 2.532 0 0 0-.655-1.82 2.264 2.264 0 0 0-1.641-.702 2.272 2.272 0 0 0-1.642.701 2.632 2.632 0 0 0-.631 1.82 2.665 2.665 0 0 0 .631 1.82ZM114.419 27.848a5.733 5.733 0 0 1-3.057-.737 2.906 2.906 0 0 1-1.38-2.106c0-.238.083-.357.345-.357h1.749a.452.452 0 0 1 .392.262c.25.642.905.963 1.951.963.366.017.729-.056 1.059-.214a.688.688 0 0 0 .405-.583c0-.31-.191-.523-.571-.666a6.457 6.457 0 0 0-1.392-.297 13.272 13.272 0 0 1-1.666-.298 2.737 2.737 0 0 1-1.392-.797 2.55 2.55 0 0 1-.197-2.931c.182-.299.423-.556.709-.757a4.901 4.901 0 0 1 2.879-.761 5.26 5.26 0 0 1 2.808.702 2.662 2.662 0 0 1 1.308 1.867c0 .238-.107.357-.321.357h-1.761a.366.366 0 0 1-.357-.214 1.188 1.188 0 0 0-.618-.63 2.098 2.098 0 0 0-1.023-.238 2.076 2.076 0 0 0-1.012.202.595.595 0 0 0-.38.547.756.756 0 0 0 .571.702c.457.172.932.292 1.415.357.557.073 1.109.177 1.654.31.533.12 1.018.398 1.392.796a2.25 2.25 0 0 1 .583 1.63 2.381 2.381 0 0 1-1.106 2.07 5.2 5.2 0 0 1-2.987.821ZM131.087 27.254a.32.32 0 0 1-.274.369 4.583 4.583 0 0 1-1.344.226 2.637 2.637 0 0 1-2.379-1.035 4.308 4.308 0 0 1-3.034 1.035 3.685 3.685 0 0 1-2.784-1.083 3.909 3.909 0 0 1-1.059-2.867v-4.652c0-.226.107-.345.333-.345h1.999c.226 0 .333.12.333.345v4.295a2.107 2.107 0 0 0 .512 1.463 1.793 1.793 0 0 0 1.368.56 1.975 1.975 0 0 0 1.427-.524 1.89 1.89 0 0 0 .414-.652c.093-.244.134-.503.122-.764v-4.378c0-.226.107-.345.333-.345h2.022c.226 0 .334.12.334.345v5.604c0 .464.202.69.594.69.185.007.369-.013.548-.06a.308.308 0 0 1 .265.048.322.322 0 0 1 .092.104.324.324 0 0 1 .035.134l.143 1.487ZM149.991 27.255a.3.3 0 0 1-.05.249.295.295 0 0 1-.224.12c-.442.143-.903.22-1.368.226a3.177 3.177 0 0 1-1.987-.572 1.85 1.85 0 0 1-.797-1.558v-2.796a2.102 2.102 0 0 0-.5-1.463 1.683 1.683 0 0 0-1.332-.56 1.496 1.496 0 0 0-1.19.524 2.12 2.12 0 0 0-.452 1.404v4.39c0 .226-.107.345-.333.345h-2.011a.31.31 0 0 1-.345-.345v-4.295a2.201 2.201 0 0 0-.463-1.463 1.545 1.545 0 0 0-1.19-.56 1.723 1.723 0 0 0-1.309.524c-.34.386-.515.89-.488 1.404v4.39a.297.297 0 0 1-.014.139.308.308 0 0 1-.331.206h-1.939c-.226 0-.333-.119-.333-.345v-5.604a.61.61 0 0 0-.175-.527.615.615 0 0 0-.527-.174h-.392c-.262 0-.393-.096-.393-.286v-1.404a.38.38 0 0 1 .274-.392c.411-.15.847-.223 1.284-.215a2.236 2.236 0 0 1 2.118 1.095 4.02 4.02 0 0 1 3.022-1.095 3.415 3.415 0 0 1 2.819 1.262 3.93 3.93 0 0 1 3.117-1.262 3.757 3.757 0 0 1 2.82 1.083 3.877 3.877 0 0 1 1.059 2.867v2.296c0 .453.202.678.583.678a1.78 1.78 0 0 0 .547-.059c.246 0 .377.095.393.285l.107 1.488ZM10.488 17.355a16.287 16.287 0 0 1 31.61 0H40.67a11.528 11.528 0 0 0-6.745 2.058 3.406 3.406 0 0 1-.357.226H33.4a3.417 3.417 0 0 1-.357-.226 12.099 12.099 0 0 0-13.503 0 3.406 3.406 0 0 1-.357.226h-.166a3.406 3.406 0 0 1-.357-.226 11.528 11.528 0 0 0-6.746-2.058h-1.427ZM38.1 24.814a4.01 4.01 0 0 1 2.57-.845h1.916V20.15H40.67a7.59 7.59 0 0 0-4.556 1.452 4.33 4.33 0 0 1-5.14 0 8.09 8.09 0 0 0-9.244 0 4.33 4.33 0 0 1-5.14 0 7.59 7.59 0 0 0-4.615-1.452H10v3.82h1.915a4.01 4.01 0 0 1 2.57.844 8.066 8.066 0 0 0 9.232 0 4.034 4.034 0 0 1 2.57-.845 3.985 3.985 0 0 1 2.57.845 8.09 8.09 0 0 0 9.243 0Zm0 6.829a4.01 4.01 0 0 1 2.57-.845h1.916V26.98H40.67a7.591 7.591 0 0 0-4.556 1.452 4.33 4.33 0 0 1-5.14 0 8.09 8.09 0 0 0-9.244 0 4.33 4.33 0 0 1-5.14 0 7.591 7.591 0 0 0-4.615-1.452H10v3.82h1.915a4.01 4.01 0 0 1 2.57.844 8.066 8.066 0 0 0 9.232 0 4.034 4.034 0 0 1 2.57-.845 3.986 3.986 0 0 1 2.57.845 8.09 8.09 0 0 0 9.243 0Z"/></svg>