<svg xmlns="http://www.w3.org/2000/svg" width="160" height="38" fill="none"><path fill="#7780A1" d="M32.703 9.68h2.217v15.43h6.652v2.218h-8.869V9.678Zm15.775 0a6.652 6.652 0 1 1 0 13.303 6.652 6.652 0 0 1 0-13.304Zm0 11.085a4.434 4.434 0 1 0-4.434-4.434 4.434 4.434 0 0 0 4.434 4.412v.022Zm-4.434 4.368h8.868v2.217h-8.868v-2.217Zm28.379 2.217h-2.217v-1.585a8.525 8.525 0 0 1-4.878 1.54A8.87 8.87 0 1 1 71.98 12.64l-1.63 1.452a6.65 6.65 0 0 0-11.588 4.957 6.65 6.65 0 0 0 6.645 6.129 6.396 6.396 0 0 0 4.855-2.217h-5.986v-2.217h8.17l-.022 6.607Zm8.159-17.626a6.651 6.651 0 1 1-6.651 6.651 6.65 6.65 0 0 1 6.673-6.696l-.022.045Zm0 11.085a4.434 4.434 0 1 0-4.434-4.434 4.435 4.435 0 0 0 4.456 4.368l-.022.066Zm-4.434 4.368h8.868v2.217h-8.868v-2.217ZM89.595 9.679h2.217v17.626h-2.218V9.68Zm5.287 0H97.1c.115-.012.23-.012.344 0a6.652 6.652 0 1 1 0 13.225H97.1v4.435h-2.217V9.679Zm2.217 2.217v8.77h.344a4.433 4.433 0 0 0 4.624-6.228 4.438 4.438 0 0 0-4.624-2.564c-.12.013-.24.039-.355.078l.011-.056Zm15.975-.942-1.641 1.297a2.152 2.152 0 0 0-3.231.14c-.256.32-.416.706-.46 1.113v.177c0 .976.676 1.63 1.995 1.718 5.077.31 7.405 2.694 7.405 5.842v.2a6.536 6.536 0 0 1-4.42 5.515 6.54 6.54 0 0 1-6.854-1.724l1.696-1.308a3.994 3.994 0 0 0 3.104 1.264 4.147 4.147 0 0 0 4.346-3.747v-.155c0-2.96-2.905-3.503-5.421-3.747-2.328-.222-4.002-1.674-4.002-3.77v-.088a4.266 4.266 0 0 1 4.357-3.946 4.142 4.142 0 0 1 3.115 1.274l.011-.055Zm12.748 14.101c2.761 0 4.944-2.982 4.944-6.651V9.535h2.218v8.869c0 4.877-3.193 8.813-7.117 8.813-3.925 0-7.117-3.936-7.117-8.813V9.535h2.217v8.869c-.089 3.724 2.095 6.706 4.844 6.706l.011-.055ZM150 27.272h-2.217V16.297l-5.111 6.652-5.11-6.652v11.008h-2.217V9.68l7.316 9.634 7.317-9.634.022 17.593ZM22.061 7.03A6.03 6.03 0 1 0 10 7.03v18.236l4.966 3.559v8.669h2.129v-8.67l4.966-3.558V7.031Zm-2.128 10.2-2.838 2.837v-2.66l2.838-2.838v2.66Zm-7.76-2.661 2.838 2.838v2.66l-2.838-2.838v-2.66Zm7.76-3.016-3.902 3.903-3.903-3.991v-2.66l3.903 3.901 3.902-3.902v2.75ZM16.03 3.128A3.924 3.924 0 0 1 19.8 6.022L16.03 9.78l-3.769-3.758a3.924 3.924 0 0 1 3.77-2.938v.044Zm-3.903 21.063v-3.99l2.838 2.837v3.17l-2.838-2.017Zm4.967 2.029v-3.182l2.838-2.838v3.98l-2.838 2.04Z"/></svg>