<svg xmlns="http://www.w3.org/2000/svg" width="160" height="38" fill="none"><path fill="#7780A1" d="M33.931 9.784V6H22v26h11.931v-3.784a9.216 9.216 0 1 1 0-18.432ZM33.931 9.785v18.432a9.216 9.216 0 0 0 0-18.432ZM49.843 12.098h2.671v12.866h-2.67V12.098ZM54.01 20.557a4.675 4.675 0 1 1 4.648 4.675 4.612 4.612 0 0 1-4.648-4.675Zm6.696 0a2.03 2.03 0 1 0-2.03 2.084 1.975 1.975 0 0 0 2.012-2.084h.018Z"/><path fill="#7780A1" d="M73.875 16.152v8.38c0 2.955-2.315 4.21-4.656 4.21a4.452 4.452 0 0 1-4.177-2.136l2.253-1.3a2.02 2.02 0 0 0 2.013 1.113 1.783 1.783 0 0 0 1.994-1.888v-.81a3.143 3.143 0 0 1-2.573 1.14 4.452 4.452 0 1 1 0-8.904 3.145 3.145 0 0 1 2.573 1.14v-.891l2.573-.053Zm-2.573 4.23a2.137 2.137 0 1 0-2.137 2.048 1.995 1.995 0 0 0 2.137-2.048ZM75.38 20.558a4.675 4.675 0 1 1 4.666 4.674 4.62 4.62 0 0 1-4.666-4.674Zm6.696 0a2.03 2.03 0 1 0-2.021 2.083 1.974 1.974 0 0 0 2.012-2.083h.009ZM85.95 13.792a1.585 1.585 0 1 1 1.584 1.585 1.603 1.603 0 0 1-1.585-1.585Zm.258 2.36h2.67v8.815h-2.67v-8.815ZM100.312 20.558a4.458 4.458 0 0 1-4.248 4.675 3.312 3.312 0 0 1-2.67-1.077v4.354h-2.672V16.15h2.671v.829a3.302 3.302 0 0 1 2.671-1.068 4.45 4.45 0 0 1 4.248 4.647Zm-2.672 0a2.1 2.1 0 1 0-2.092 2.155 2.012 2.012 0 0 0 2.092-2.155ZM108.441 22.321c0 2.03-1.781 2.894-3.668 2.894a3.869 3.869 0 0 1-3.794-2.102l2.298-1.3a1.44 1.44 0 0 0 1.487 1.042c.632 0 .952-.196.952-.552 0-.97-4.336-.454-4.336-3.508 0-1.923 1.621-2.885 3.455-2.885a3.862 3.862 0 0 1 3.49 1.879l-2.297 1.21a1.303 1.303 0 0 0-1.184-.774c-.463 0-.739.178-.739.49 0 1.015 4.336.347 4.336 3.606ZM118.12 16.152v8.815h-2.671v-.828a3.035 3.035 0 0 1-2.511 1.095c-1.781 0-3.304-1.273-3.304-3.65v-5.432h2.671v5.031a1.462 1.462 0 0 0 1.541 1.603c.961 0 1.638-.57 1.638-1.78v-4.854h2.636ZM133.257 19.553v5.414h-2.671v-5.182c0-.89-.419-1.443-1.265-1.443-.846 0-1.38.615-1.38 1.656v4.969h-2.671v-5.182c0-.89-.419-1.443-1.265-1.443-.845 0-1.38.615-1.38 1.656v4.969h-2.671v-8.815h2.671v.81a2.726 2.726 0 0 1 2.369-1.05 2.61 2.61 0 0 1 2.306 1.157 2.907 2.907 0 0 1 2.555-1.158c2.084 0 3.402 1.443 3.402 3.642ZM135.501 16.098a1.959 1.959 0 1 0 0-3.918 1.959 1.959 0 0 0 0 3.918Z"/></svg>