<svg xmlns="http://www.w3.org/2000/svg" width="160" height="38" fill="none"><path fill="#7780A1" d="M31 30h22V8H31v22Zm17.766-13.117h-4.65v-4.648h4.65v4.648Zm-13.532-4.648h4.65v8.882h8.882v4.648H35.234v-13.53ZM67.326 8a11 11 0 1 0 11 11 11.013 11.013 0 0 0-11-11Zm0 17.765A6.765 6.765 0 1 1 74.092 19a6.776 6.776 0 0 1-6.766 6.765ZM117.69 8A10.997 10.997 0 0 0 106.9 21.145 11 11 0 0 0 128.689 19a11.015 11.015 0 0 0-11-11Zm0 17.765A6.767 6.767 0 1 1 124.454 19a6.77 6.77 0 0 1-1.985 4.78 6.772 6.772 0 0 1-4.78 1.985ZM92.507 8a11 11 0 1 0 11 11 11.011 11.011 0 0 0-11-11Zm0 17.765a6.766 6.766 0 1 1 6.423-8.882h-6.423v4.234h6.423a6.776 6.776 0 0 1-6.423 4.648Z"/></svg>