<svg xmlns="http://www.w3.org/2000/svg" width="160" height="38" fill="none"><path fill="#7780A1" d="M33.84 17.409a3.564 3.564 0 0 0-1.02 2.856l-.017-.018a4.236 4.236 0 0 1-4.576 4.577l.017.017a3.585 3.585 0 1 0 3.238 3.235l.019.018a4.234 4.234 0 0 1 4.576-4.577l-.018-.017a3.58 3.58 0 1 0-2.215-6.091h-.003Z"/><path fill="#7780A1" d="m26.648 22.544-.019-.018a3.541 3.541 0 0 0 3.878-3.875l.018.018a4.239 4.239 0 0 1 2.766-4.334 4.234 4.234 0 0 1 1.811-.243l-.018-.018a3.586 3.586 0 1 0-3.236-3.235l-.017-.018a4.235 4.235 0 0 1-4.577 4.577l.018.018a3.542 3.542 0 0 0-3.878 3.875l-.017-.018A4.237 4.237 0 0 1 18.8 23.85l.017.018a3.586 3.586 0 1 0 3.235 3.235l.02.017a4.236 4.236 0 0 1 4.576-4.576Z"/><path fill="#7780A1" d="M20.113 20.587a3.56 3.56 0 0 0 1.02-2.856l.018.018a4.236 4.236 0 0 1 4.578-4.577l-.018-.017a3.585 3.585 0 1 0-3.235-3.235l-.018-.018a4.234 4.234 0 0 1-4.576 4.577l.017.017a3.578 3.578 0 1 0 2.216 6.091h-.002ZM50.316 10.863h2.896v14.092h-2.896V10.863ZM54.852 20.129a5.117 5.117 0 0 1 10.132-1.027 5.116 5.116 0 0 1-5.016 6.122 5.057 5.057 0 0 1-5.116-5.095Zm7.336 0a2.222 2.222 0 1 0-2.22 2.282 2.166 2.166 0 0 0 2.22-2.282ZM76.625 15.303v9.165c0 3.243-2.529 4.614-5.096 4.614a4.937 4.937 0 0 1-4.575-2.34l2.47-1.428a2.206 2.206 0 0 0 2.201 1.216 1.924 1.924 0 0 0 2.182-2.065v-.883a3.428 3.428 0 0 1-2.82 1.255 4.904 4.904 0 0 1 0-9.806 3.428 3.428 0 0 1 2.82 1.255v-.985l2.818.002Zm-2.817 4.633a2.34 2.34 0 1 0-2.336 2.242 2.185 2.185 0 0 0 2.336-2.242ZM78.266 20.129a5.116 5.116 0 1 1 5.115 5.095 5.057 5.057 0 0 1-5.115-5.095Zm7.335 0a2.222 2.222 0 1 0-2.22 2.282 2.165 2.165 0 0 0 2.22-2.282ZM89.848 12.714a1.737 1.737 0 1 1 1.737 1.737 1.755 1.755 0 0 1-1.737-1.737Zm.292 2.587h2.897v9.652h-2.9l.003-9.652ZM105.541 20.13a4.857 4.857 0 0 1-1.248 3.506 4.856 4.856 0 0 1-3.366 1.589 3.624 3.624 0 0 1-2.876-1.178v4.769h-2.895V15.303h2.895v.907a3.623 3.623 0 0 1 2.876-1.177 4.849 4.849 0 0 1 4.614 5.096Zm-2.896 0a2.294 2.294 0 0 0-2.78-2.188 2.297 2.297 0 0 0 .484 4.542 2.2 2.2 0 0 0 2.166-1.443c.107-.291.151-.602.13-.912ZM114.477 22.06c0 2.22-1.93 3.165-4.014 3.165a4.225 4.225 0 0 1-4.151-2.297l2.509-1.428a1.583 1.583 0 0 0 1.638 1.139c.694 0 1.042-.213 1.042-.598 0-1.063-4.749-.502-4.749-3.842 0-2.105 1.776-3.166 3.784-3.166a4.22 4.22 0 0 1 3.763 2.066l-2.47 1.331a1.406 1.406 0 0 0-1.293-.849c-.502 0-.812.195-.812.54.004 1.101 4.753.367 4.753 3.938ZM125.055 15.3v9.653h-2.896v-.907a3.298 3.298 0 0 1-2.759 1.178c-1.951 0-3.608-1.39-3.608-3.998v-5.925h2.896v5.5c-.025.23.002.463.077.682a1.579 1.579 0 0 0 .925.967c.215.085.446.12.677.107 1.062 0 1.795-.617 1.795-1.988v-5.265l2.893-.003ZM141.659 19.03v5.926h-2.896V19.28c0-.965-.463-1.582-1.389-1.582-.965 0-1.507.675-1.507 1.814v5.444h-2.894V19.28c0-.965-.463-1.582-1.391-1.582-.965 0-1.505.675-1.505 1.814v5.444h-2.896v-9.653h2.896v.887a2.966 2.966 0 0 1 2.587-1.157 2.875 2.875 0 0 1 2.528 1.273 3.184 3.184 0 0 1 2.799-1.273c2.216.001 3.668 1.583 3.668 3.997ZM144.109 15.243a2.15 2.15 0 1 0-.001-4.299 2.15 2.15 0 0 0 .001 4.3Z"/></svg>