<svg xmlns="http://www.w3.org/2000/svg" width="160" height="38" fill="none"><path fill="#7780A1" d="M53.197 21.097h4.386v2.585h-7.735V9.934h3.349v11.163ZM63.568 23.839c-1.07 0-2.037-.229-2.899-.685a5.102 5.102 0 0 1-2.017-1.959c-.483-.849-.725-1.84-.725-2.977 0-1.122.248-2.108.745-2.957a5.032 5.032 0 0 1 2.036-1.978c.862-.457 1.828-.685 2.899-.685 1.07 0 2.037.228 2.898.685a5.032 5.032 0 0 1 2.037 1.978c.496.849.744 1.835.744 2.957 0 1.123-.254 2.115-.764 2.977a5.036 5.036 0 0 1-2.056 1.959c-.862.456-1.828.685-2.898.685Zm0-2.898a2.15 2.15 0 0 0 1.625-.706c.457-.47.686-1.142.686-2.017s-.222-1.547-.666-2.017a2.09 2.09 0 0 0-1.606-.705c-.653 0-1.195.235-1.626.705-.43.457-.646 1.13-.646 2.017 0 .875.209 1.547.627 2.017.43.47.966.706 1.606.706ZM74.627 12.598c.77 0 1.443.156 2.018.47.587.313 1.038.724 1.351 1.234v-1.548h3.349v10.909c0 1.005-.203 1.912-.607 2.722-.392.822-.999 1.475-1.822 1.958-.809.483-1.82.725-3.035.725-1.62 0-2.931-.385-3.936-1.155-1.006-.758-1.58-1.79-1.724-3.095h3.31c.104.418.352.744.744.98.392.248.875.372 1.45.372.691 0 1.24-.203 1.644-.608.418-.391.627-1.024.627-1.9v-1.546c-.326.509-.777.927-1.351 1.253-.575.313-1.247.47-2.017.47-.901 0-1.717-.229-2.448-.685-.732-.47-1.313-1.13-1.744-1.979-.417-.861-.626-1.853-.626-2.976s.209-2.109.626-2.958c.431-.848 1.012-1.5 1.743-1.958a4.524 4.524 0 0 1 2.448-.685Zm3.369 5.62c0-.835-.235-1.495-.705-1.978a2.228 2.228 0 0 0-1.684-.724 2.29 2.29 0 0 0-1.704.724c-.457.47-.686 1.123-.686 1.959 0 .835.229 1.501.686 1.997a2.29 2.29 0 0 0 1.704.725c.666 0 1.227-.241 1.684-.725.47-.483.705-1.142.705-1.978ZM88.154 23.839c-1.07 0-2.036-.229-2.898-.685a5.102 5.102 0 0 1-2.017-1.959c-.483-.849-.725-1.84-.725-2.977 0-1.122.248-2.108.744-2.957a5.033 5.033 0 0 1 2.037-1.978c.862-.457 1.828-.685 2.899-.685 1.07 0 2.037.228 2.898.685a5.032 5.032 0 0 1 2.037 1.978c.496.849.744 1.835.744 2.957 0 1.123-.255 2.115-.764 2.977a5.036 5.036 0 0 1-2.056 1.959c-.862.456-1.828.685-2.898.685Zm0-2.898a2.15 2.15 0 0 0 1.626-.706c.457-.47.686-1.142.686-2.017s-.222-1.547-.666-2.017a2.09 2.09 0 0 0-1.606-.705c-.653 0-1.195.235-1.626.705-.43.457-.646 1.13-.646 2.017 0 .875.209 1.547.627 2.017.43.47.966.706 1.605.706ZM96.746 11.62c-.587 0-1.07-.17-1.449-.51a1.727 1.727 0 0 1-.548-1.293c0-.522.183-.953.548-1.292.379-.353.862-.529 1.45-.529.574 0 1.044.176 1.41.529.378.34.567.77.567 1.292 0 .51-.189.94-.568 1.293-.365.34-.835.51-1.41.51Zm1.665 1.135v10.928h-3.349V12.755h3.35ZM103.599 14.302c.327-.51.777-.921 1.352-1.234.574-.314 1.247-.47 2.017-.47.901 0 1.717.228 2.448.685.731.457 1.306 1.11 1.724 1.959.431.848.646 1.834.646 2.957 0 1.123-.215 2.115-.646 2.976-.418.85-.993 1.508-1.724 1.979a4.524 4.524 0 0 1-2.448.685c-.757 0-1.43-.157-2.017-.47a3.703 3.703 0 0 1-1.352-1.214v6.737h-3.348V12.754h3.348v1.548Zm4.779 3.897c0-.836-.235-1.489-.705-1.959-.457-.483-1.025-.724-1.704-.724a2.29 2.29 0 0 0-1.704.724c-.456.483-.685 1.143-.685 1.978 0 .836.229 1.495.685 1.978a2.29 2.29 0 0 0 1.704.725 2.29 2.29 0 0 0 1.704-.725c.47-.496.705-1.162.705-1.997ZM117.4 23.839c-.953 0-1.801-.163-2.545-.49-.745-.326-1.333-.77-1.763-1.331a3.577 3.577 0 0 1-.725-1.92h3.31c.039.379.215.686.529.92.313.236.699.353 1.155.353.418 0 .738-.078.96-.235.235-.17.353-.385.353-.646 0-.313-.164-.542-.49-.685-.327-.157-.856-.327-1.586-.51a16.113 16.113 0 0 1-1.959-.568 3.53 3.53 0 0 1-1.352-.96c-.378-.443-.567-1.037-.567-1.781a3 3 0 0 1 .509-1.704c.352-.522.862-.934 1.527-1.234.68-.3 1.482-.45 2.409-.45 1.371 0 2.449.34 3.232 1.018.796.679 1.253 1.58 1.371 2.703h-3.094a1.324 1.324 0 0 0-.51-.901c-.274-.222-.64-.333-1.096-.333-.392 0-.692.078-.902.235a.695.695 0 0 0-.312.607c0 .313.163.548.489.705.339.157.862.313 1.567.47.809.209 1.469.418 1.978.627.509.195.953.522 1.331.979.392.444.594 1.044.607 1.802a2.88 2.88 0 0 1-.548 1.723c-.353.496-.868.888-1.547 1.175-.666.287-1.443.431-2.331.431ZM134.078 12.754v10.928h-3.348v-1.488c-.34.483-.803.874-1.391 1.175a4.23 4.23 0 0 1-1.919.43c-.835 0-1.574-.182-2.213-.548-.64-.379-1.135-.92-1.488-1.626-.352-.704-.529-1.534-.529-2.487v-6.384h3.329v5.934c0 .731.19 1.299.568 1.704.379.405.888.607 1.527.607.653 0 1.169-.202 1.548-.607.379-.405.568-.973.568-1.704v-5.934h3.348ZM149.84 12.637c1.358 0 2.436.411 3.232 1.233.81.823 1.214 1.966 1.214 3.428v6.384h-3.33v-5.934c0-.705-.188-1.247-.567-1.625-.366-.392-.875-.588-1.528-.588s-1.168.196-1.547.588c-.365.378-.548.92-.548 1.625v5.934h-3.33v-5.934c0-.705-.189-1.247-.568-1.625-.365-.392-.874-.588-1.527-.588-.653 0-1.169.196-1.548.588-.364.378-.547.92-.547 1.625v5.934h-3.349V12.754h3.349v1.371a3.49 3.49 0 0 1 1.331-1.077c.549-.274 1.169-.411 1.86-.411.823 0 1.554.176 2.194.528a3.777 3.777 0 0 1 1.528 1.509c.379-.601.894-1.09 1.547-1.47a4.181 4.181 0 0 1 2.134-.567Z"/><path fill="#7780A1" d="M16.94 7h14.882l-10.94 16.216H6L16.94 7Z" opacity=".5"/><path fill="#7780A1" d="m17.592 24.72-4.237 6.281h15.587l10.94-16.216H28.379l-6.703 9.935h-4.083Z"/></svg>