<svg xmlns="http://www.w3.org/2000/svg" width="160" height="38" fill="none"><path fill="#7780A1" d="M41.024 17.102c2.375 0 2.909 1.031 2.909 2.317 0 1.364-.646 2.341-2.899 2.341-2.238 0-2.885-.92-2.885-2.34 0-1.398.705-2.318 2.875-2.318ZM65.84 17.102c2.375 0 2.91 1.031 2.91 2.317 0 1.364-.648 2.341-2.9 2.341-2.237 0-2.885-.92-2.885-2.34 0-1.398.705-2.318 2.875-2.318Z"/><path fill="#7780A1" fill-rule="evenodd" d="M20 32.828V6h120v26.828H20Zm57.192-1.513h61.295V7.513H77.192v23.802Zm-36.156-7.27c4.215 0 5.988-1.819 5.988-4.659 0-2.886-1.997-4.601-5.988-4.601-3.93 0-6 1.863-6 4.602 0 3.09 2.17 4.658 6 4.658Zm-14.657-9.056v8.92h8.508v-2.376h-5.43V14.99h-3.078Zm30.167 8.92-.08-.864a5.448 5.448 0 0 1-3.544 1c-1.898 0-3.478-.569-4.364-1.716a4.691 4.691 0 0 1-.84-2.863c-.034-1 .272-1.98.866-2.784.897-1.113 2.522-1.852 4.942-1.852 2.784 0 4.42.852 5.124 2.284.15.337.24.699.262 1.068h-2.945a1.211 1.211 0 0 0-.398-.569 3.131 3.131 0 0 0-1.988-.51 2.928 2.928 0 0 0-2.296.715 2.467 2.467 0 0 0-.465 1.67c-.04.568.111 1.132.431 1.603a2.985 2.985 0 0 0 2.352.784 3.284 3.284 0 0 0 2.34-.728c.142-.176.24-.384.285-.605h-3.17v-1.917h5.93v5.284h-2.442Zm9.306.136c4.215 0 5.988-1.819 5.988-4.659 0-2.886-2-4.601-5.988-4.601-3.93 0-6 1.863-6 4.602 0 3.09 2.17 4.658 6 4.658Z" clip-rule="evenodd"/><path fill="#7780A1" d="M82.377 23.873v-8.92h2.195v8.92h-2.195ZM95.84 20.146c-.556.727-1.513 1.06-2.862 1.068l-4.057-.012v2.67h-2.148v-8.919h6.206a3.56 3.56 0 0 1 2.76.898c.49.639.729 1.435.67 2.238.05.73-.15 1.456-.569 2.057Zm-1.76-2.908c-.227-.34-.717-.53-1.546-.53H88.91v2.715h3.6c.887 0 1.354-.181 1.57-.534.127-.248.183-.528.159-.807.018-.29-.036-.58-.16-.844ZM102.738 24.012c-4.045 0-5.283-1.513-5.283-3.01h2.295c0 .738 1.011 1.295 3.09 1.295 2.068 0 2.613-.364 2.613-.955 0-.66-.408-.864-2.329-1.08a50.763 50.763 0 0 1-1.795-.215c-2.724-.307-3.773-1.114-3.773-2.557 0-1.522 1.535-2.67 4.864-2.67 3.613 0 4.999 1.42 4.999 2.898h-2.27c0-.75-.852-1.182-2.863-1.182-2.069 0-2.511.284-2.511.84 0 .58.454.762 2.648 1.023.501.069 1.614.194 1.92.227 2.319.238 3.364 1.079 3.364 2.567-.004 1.773-1.595 2.82-4.969 2.82ZM114.169 23.997c-2.965 0-4.897-1.17-4.897-3.632v-5.412h2.17v5.442c0 1.126.921 1.875 2.818 1.875 1.716 0 2.739-.704 2.739-1.875v-5.442h2.147v5.614c0 2.238-1.796 3.43-4.977 3.43ZM130.906 23.873v-5.954l-2.784 5.954h-2.113l-2.705-5.954v5.954h-2.043v-8.92h2.768l3.068 6.795 3.136-6.795h2.724v8.92h-2.051Z"/></svg>