<svg width="28" height="28" viewBox="0 0 28 28" fill="none" xmlns="http://www.w3.org/2000/svg">
<path d="M15.4001 16L20.9334 12.4667C21.3556 12.2 21.5667 11.8222 21.5667 11.3333C21.5667 10.8444 21.3556 10.4667 20.9334 10.2L15.4001 6.66666C14.9556 6.35555 14.5001 6.33332 14.0334 6.59999C13.5667 6.86666 13.3334 7.25554 13.3334 7.76666V14.9C13.3334 15.4111 13.5667 15.8 14.0334 16.0667C14.5001 16.3333 14.9556 16.3111 15.4001 16ZM8.66675 22C7.93341 22 7.30586 21.7391 6.78408 21.2173C6.26141 20.6947 6.00008 20.0667 6.00008 19.3333V3.33332C6.00008 2.59999 6.26141 1.97199 6.78408 1.44932C7.30586 0.927545 7.93341 0.666656 8.66675 0.666656H24.6667C25.4001 0.666656 26.0281 0.927545 26.5507 1.44932C27.0725 1.97199 27.3334 2.59999 27.3334 3.33332V19.3333C27.3334 20.0667 27.0725 20.6947 26.5507 21.2173C26.0281 21.7391 25.4001 22 24.6667 22H8.66675ZM3.33341 27.3333C2.60008 27.3333 1.97253 27.0724 1.45075 26.5507C0.928081 26.028 0.666748 25.4 0.666748 24.6667V7.33332C0.666748 6.95555 0.794748 6.63866 1.05075 6.38266C1.30586 6.12755 1.6223 5.99999 2.00008 5.99999C2.37786 5.99999 2.69475 6.12755 2.95075 6.38266C3.20586 6.63866 3.33341 6.95555 3.33341 7.33332V24.6667H20.6667C21.0445 24.6667 21.361 24.7947 21.6161 25.0507C21.8721 25.3058 22.0001 25.6222 22.0001 26C22.0001 26.3778 21.8721 26.6942 21.6161 26.9493C21.361 27.2053 21.0445 27.3333 20.6667 27.3333H3.33341Z" fill="#B476E5"/>
</svg>
