<svg width="540" height="254" viewBox="0 0 540 254" fill="none" xmlns="http://www.w3.org/2000/svg">
<g opacity="0.15">
<path d="M183.224 145.614C184.644 145.614 185.795 144.463 185.795 143.043C185.795 141.623 184.644 140.472 183.224 140.472C181.804 140.472 180.653 141.623 180.653 143.043C180.653 144.463 181.804 145.614 183.224 145.614Z" fill="white"/>
<path d="M2.57088 95.7895C3.99074 95.7895 5.14176 94.6384 5.14176 93.2186C5.14176 91.7987 3.99074 90.6477 2.57088 90.6477C1.15102 90.6477 0 91.7987 0 93.2186C0 94.6384 1.15102 95.7895 2.57088 95.7895Z" fill="white"/>
<path d="M30.1358 160.026C31.5556 160.026 32.7066 158.875 32.7066 157.455C32.7066 156.035 31.5556 154.884 30.1358 154.884C28.7159 154.884 27.5649 156.035 27.5649 157.455C27.5649 158.875 28.7159 160.026 30.1358 160.026Z" fill="white"/>
<path d="M2.57088 186.521C3.99074 186.521 5.14176 185.37 5.14176 183.95C5.14176 182.53 3.99074 181.379 2.57088 181.379C1.15102 181.379 0 182.53 0 183.95C0 185.37 1.15102 186.521 2.57088 186.521Z" fill="white"/>
<path d="M268.663 188.291C270.083 188.291 271.234 187.14 271.234 185.72C271.234 184.3 270.083 183.149 268.663 183.149C267.243 183.149 266.092 184.3 266.092 185.72C266.092 187.14 267.243 188.291 268.663 188.291Z" fill="white"/>
<path d="M540 214.399C540 212.981 538.847 211.829 537.429 211.829C536.011 211.829 534.858 212.981 534.858 214.399C534.858 215.818 536.005 216.97 537.429 216.97C538.853 216.97 540 215.818 540 214.399Z" fill="white"/>
<path d="M369.25 157.455C369.25 156.037 368.097 154.884 366.679 154.884C365.261 154.884 364.108 156.037 364.108 157.455C364.108 158.873 365.261 160.026 366.679 160.026C368.097 160.026 369.25 158.873 369.25 157.455Z" fill="white"/>
<path d="M512.694 151.621C512.694 150.203 511.542 149.05 510.124 149.05C508.706 149.05 507.553 150.203 507.553 151.621C507.553 153.039 508.706 154.192 510.124 154.192C511.542 154.192 512.694 153.045 512.694 151.621Z" fill="white"/>
<path d="M365.197 76.0626C365.197 74.6446 364.045 73.4917 362.627 73.4917C361.209 73.4917 360.056 74.6446 360.056 76.0626C360.056 77.4806 361.209 78.6335 362.627 78.6335C364.045 78.6335 365.197 77.4806 365.197 76.0626Z" fill="white"/>
<path d="M106.357 46.985C107.777 46.985 108.928 45.834 108.928 44.4141C108.928 42.9943 107.777 41.8433 106.357 41.8433C104.937 41.8433 103.786 42.9943 103.786 44.4141C103.786 45.834 104.937 46.985 106.357 46.985Z" fill="white"/>
<path d="M102.236 146.917C103.656 146.917 104.807 145.766 104.807 144.346C104.807 142.926 103.656 141.775 102.236 141.775C100.816 141.775 99.6648 142.926 99.6648 144.346C99.6648 145.766 100.816 146.917 102.236 146.917Z" fill="white"/>
<path d="M189.104 46.9852C189.104 45.5672 187.951 44.4143 186.533 44.4143C185.115 44.4143 183.962 45.5672 183.962 46.9852C183.962 48.4032 185.109 49.5561 186.533 49.5561C187.957 49.5561 189.104 48.4032 189.104 46.9852Z" fill="white"/>
<path d="M532.235 89.8636C532.235 88.4456 531.083 87.2927 529.665 87.2927C528.247 87.2927 527.094 88.4456 527.094 89.8636C527.094 91.2816 528.241 92.4345 529.665 92.4345C531.088 92.4345 532.235 91.2816 532.235 89.8636Z" fill="white"/>
<path d="M441.684 86.7101C443.104 86.7101 444.255 85.5591 444.255 84.1392C444.255 82.7194 443.104 81.5684 441.684 81.5684C440.264 81.5684 439.113 82.7194 439.113 84.1392C439.113 85.5591 440.264 86.7101 441.684 86.7101Z" fill="white"/>
<path d="M311.734 37.0758C311.734 35.6577 310.581 34.5049 309.163 34.5049C307.745 34.5049 306.592 35.6577 306.592 37.0758C306.592 38.4938 307.745 39.6466 309.163 39.6466C310.581 39.6466 311.734 38.4938 311.734 37.0758Z" fill="white"/>
<path d="M262.178 74.3214C263.598 74.3214 264.749 73.1704 264.749 71.7506C264.749 70.3307 263.598 69.1797 262.178 69.1797C260.758 69.1797 259.607 70.3307 259.607 71.7506C259.607 73.1704 260.758 74.3214 262.178 74.3214Z" fill="white"/>
<path d="M23.3685 254.505C23.3685 254.505 -8.04123 214.025 8.77325 203.083C21.1607 195.024 30.4355 211.096 30.4355 211.096C30.4355 211.096 22.6306 177.159 45.8031 170.738C68.9756 164.316 81.8819 198.748 81.8819 198.748C81.8819 198.748 112.421 182.838 136.879 208.352C136.879 208.352 171.598 201.965 180.261 220.995C180.261 220.995 176.157 193.508 184.821 192.822C193.485 192.136 192.804 216.694 192.804 216.694C192.804 216.694 196.453 195.099 201.924 196.921C207.394 198.743 204.206 217.818 204.206 217.818C204.206 217.818 222.906 207.43 237.501 220.989C237.501 220.989 246.81 189.623 284.797 197.601L321.948 190.43C321.948 190.43 338.687 146.993 375.775 180.163L427.625 199.596C427.625 199.596 430.876 173.193 436.807 173.654C442.739 174.11 441.471 188.499 441.471 188.499C441.471 188.499 443.142 179.604 448.872 180.163C454.596 180.722 454.804 205.453 454.804 205.453L494.675 204.438C494.675 204.438 539.429 201.002 519.364 254.488" stroke="white" stroke-linecap="round" stroke-linejoin="round"/>
<path d="M26.82 111.755C26.82 111.755 24.91 105.355 28.8 104.835C32.01 104.405 32.16 111.755 32.16 111.755C32.16 111.755 36.31 106.515 38.98 109.675C41.65 112.835 35.12 115.805 35.12 115.805C35.12 115.805 39.97 119.565 37.1 122.035C34.23 124.505 30.87 118.775 30.87 118.775C30.87 118.775 28.73 125.635 25.17 124.115C21.74 122.655 26.42 116.995 26.42 116.995C26.42 116.995 20.39 117.775 19.69 114.215C18.99 110.655 26.81 111.745 26.81 111.745L26.82 111.755Z" stroke="white" stroke-linecap="round" stroke-linejoin="round"/>
<path d="M29.99 117.085C31.1056 117.085 32.01 116.181 32.01 115.065C32.01 113.949 31.1056 113.045 29.99 113.045C28.8743 113.045 27.97 113.949 27.97 115.065C27.97 116.181 28.8743 117.085 29.99 117.085Z" stroke="white" stroke-linecap="round" stroke-linejoin="round"/>
<path d="M277.72 66.755C277.72 66.755 279.17 60.235 282.81 61.665C285.82 62.855 282.38 69.345 282.38 69.345C282.38 69.345 288.56 66.785 289.35 70.845C290.14 74.905 283 74.325 283 74.325C283 74.325 285.41 79.9649 281.7 80.7349C277.99 81.5049 277.84 74.855 277.84 74.855C277.84 74.855 272.63 79.805 270.26 76.745C267.98 73.805 274.82 71.135 274.82 71.135C274.82 71.135 269.17 68.8849 270.29 65.4349C271.41 61.9949 277.71 66.745 277.71 66.745L277.72 66.755Z" stroke="white" stroke-linecap="round" stroke-linejoin="round"/>
<path d="M280.64 72.165C281.18 71.185 280.83 69.955 279.86 69.415C278.89 68.875 277.65 69.225 277.11 70.195C276.57 71.165 276.92 72.405 277.89 72.945C278.87 73.485 280.1 73.135 280.64 72.165Z" stroke="white" stroke-linecap="round" stroke-linejoin="round"/>
<path d="M299.13 170.995C299.13 170.995 295.99 165.095 299.69 163.815C302.75 162.755 304.36 169.935 304.36 169.935C304.36 169.935 307.39 163.975 310.64 166.545C313.89 169.115 308.08 173.325 308.08 173.325C308.08 173.325 313.58 176.045 311.26 179.035C308.94 182.025 304.51 177.075 304.51 177.075C304.51 177.075 303.77 184.225 299.98 183.445C296.33 182.695 299.79 176.215 299.79 176.215C299.79 176.215 294.03 178.175 292.65 174.835C291.27 171.485 299.14 171.005 299.14 171.005L299.13 170.995Z" stroke="white" stroke-linecap="round" stroke-linejoin="round"/>
<path d="M304.87 173.205C304.65 172.115 303.58 171.405 302.49 171.625C301.4 171.845 300.69 172.915 300.91 174.005C301.13 175.095 302.2 175.805 303.29 175.585C304.38 175.365 305.09 174.295 304.87 173.205Z" stroke="white" stroke-linecap="round" stroke-linejoin="round"/>
<path d="M-0.730021 224.155C-0.730021 224.155 -3.87002 218.255 -0.170023 216.975C2.88998 215.915 4.49999 223.095 4.49999 223.095C4.49999 223.095 7.52999 217.135 10.78 219.705C14.03 222.275 8.21999 226.485 8.21999 226.485C8.21999 226.485 13.72 229.205 11.4 232.195C9.07998 235.185 4.64998 230.235 4.64998 230.235C4.64998 230.235 3.90999 237.385 0.119986 236.605C-3.53001 235.855 -0.0700169 229.375 -0.0700169 229.375C-0.0700169 229.375 -5.83 231.335 -7.21 227.995C-8.59 224.645 -0.720011 224.165 -0.720011 224.165L-0.730021 224.155Z" stroke="white" stroke-linecap="round" stroke-linejoin="round"/>
<path d="M5.01002 226.365C4.79002 225.275 3.72002 224.565 2.63002 224.785C1.54002 225.005 0.830003 226.075 1.05 227.165C1.27 228.255 2.34001 228.965 3.43001 228.745C4.52001 228.525 5.23002 227.455 5.01002 226.365Z" stroke="white" stroke-linecap="round" stroke-linejoin="round"/>
<path d="M151.82 142.485C151.82 140.825 150.47 139.485 148.82 139.485C147.17 139.485 145.82 140.835 145.82 142.485C145.82 144.135 147.17 145.485 148.82 145.485C150.47 145.485 151.82 144.135 151.82 142.485Z" stroke="white" stroke-linecap="round" stroke-linejoin="round"/>
<path d="M321.86 93.4548C321.86 91.7948 320.51 90.4548 318.86 90.4548C317.21 90.4548 315.86 91.8048 315.86 93.4548C315.86 95.1048 317.21 96.4548 318.86 96.4548C320.51 96.4548 321.86 95.1048 321.86 93.4548Z" stroke="white" stroke-linecap="round" stroke-linejoin="round"/>
</g>
</svg>
