<svg width="499" height="512" viewBox="0 0 499 512" fill="none" xmlns="http://www.w3.org/2000/svg">
<path opacity="0.2" d="M394.34 110.119L15.6239 294.936L235.807 511.422L417.321 129.403L394.34 110.119Z" fill="url(#paint0_linear_749_9105)"/>
<path d="M425.642 91.0219C426.732 91.0219 427.612 90.1419 427.612 89.0519L427.272 53.9219H423.342L423.682 89.0519C423.682 90.1419 424.562 91.0219 425.652 91.0219H425.642Z" fill="url(#paint1_linear_749_9105)"/>
<path d="M432.212 74.3322C433.202 73.2022 437.742 75.5522 442.362 79.5922C446.982 83.6322 449.922 87.8122 448.932 88.9422C448.902 88.9822 448.862 89.0122 448.822 89.0422H448.832L428.682 112.122L411.952 97.5122L432.102 74.4422H432.112C432.112 74.4422 432.162 74.3622 432.202 74.3322H432.212Z" fill="url(#paint2_linear_749_9105)"/>
<path d="M431.412 75.2922C432.402 74.1622 436.942 76.5122 441.562 80.5522C446.182 84.5822 449.122 88.7722 448.132 89.9022C448.102 89.9422 448.062 89.9722 448.022 90.0022H448.032L427.882 113.082L411.152 98.4722L431.302 75.4022H431.312C431.312 75.4022 431.362 75.3222 431.402 75.2922H431.412Z" fill="url(#paint3_linear_749_9105)"/>
<path d="M422.832 77.7624C424.232 76.1624 430.672 79.4924 437.222 85.2124C443.772 90.9324 447.942 96.8624 446.542 98.4724C446.492 98.5224 446.442 98.5724 446.382 98.6124L446.402 98.6324L417.842 131.332L394.132 110.622L422.692 77.9224L422.712 77.9424C422.742 77.8824 422.782 77.8224 422.832 77.7624Z" fill="url(#paint4_linear_749_9105)"/>
<path d="M394.182 110.562C392.782 112.162 396.952 118.102 403.502 123.822C410.052 129.542 416.492 132.882 417.892 131.272C419.292 129.672 415.122 123.732 408.572 118.012C402.022 112.292 395.582 108.952 394.182 110.562Z" fill="#161616"/>
<path d="M396.842 112.882C395.952 113.892 399.352 118.312 404.432 122.752C409.512 127.182 414.342 129.962 415.222 128.942C416.112 127.932 412.712 123.512 407.632 119.072C402.552 114.642 397.722 111.862 396.842 112.882Z" fill="#FCFCFC"/>
<path style="mix-blend-mode:multiply" opacity="0.73" d="M436.252 94.9921C435.862 96.4321 436.712 97.9121 438.142 98.3021C439.582 98.6921 441.062 97.8421 441.452 96.4121C441.842 94.9721 440.992 93.4921 439.562 93.1021C438.122 92.7121 436.642 93.5621 436.252 94.9921Z" stroke="url(#paint5_linear_749_9105)" stroke-miterlimit="10"/>
<path d="M438.832 95.9222C439.922 95.9222 440.802 95.0422 440.802 93.9522V55.7822H436.872V93.9522C436.872 95.0422 437.752 95.9222 438.842 95.9222H438.832Z" fill="url(#paint6_linear_749_9105)"/>
<defs>
<linearGradient id="paint0_linear_749_9105" x1="440.624" y1="82.422" x2="111.354" y2="256.871" gradientUnits="userSpaceOnUse">
<stop stop-color="#B476E5"/>
<stop offset="1" stop-color="#47BDFF" stop-opacity="0"/>
</linearGradient>
<linearGradient id="paint1_linear_749_9105" x1="427.602" y1="72.4719" x2="423.322" y2="72.4719" gradientUnits="userSpaceOnUse">
<stop stop-color="#323232"/>
<stop offset="0.2" stop-color="#212121"/>
<stop offset="0.26" stop-color="#282828"/>
<stop offset="0.38" stop-color="#333333"/>
<stop offset="0.69" stop-color="#6B6B6B"/>
<stop offset="0.73" stop-color="#5D5D5D"/>
<stop offset="0.84" stop-color="#3F3F3F"/>
<stop offset="0.91" stop-color="#343434"/>
<stop offset="1"/>
</linearGradient>
<linearGradient id="paint2_linear_749_9105" x1="439.707" y1="99.5014" x2="422.98" y2="84.8895" gradientUnits="userSpaceOnUse">
<stop stop-color="#323232"/>
<stop offset="0.2" stop-color="#212121"/>
<stop offset="0.26" stop-color="#282828"/>
<stop offset="0.38" stop-color="#333333"/>
<stop offset="0.69" stop-color="#6B6B6B"/>
<stop offset="0.73" stop-color="#5D5D5D"/>
<stop offset="0.84" stop-color="#3F3F3F"/>
<stop offset="0.91" stop-color="#343434"/>
<stop offset="1"/>
</linearGradient>
<linearGradient id="paint3_linear_749_9105" x1="438.9" y1="100.47" x2="422.174" y2="85.8581" gradientUnits="userSpaceOnUse">
<stop/>
<stop offset="0.09" stop-color="#343434"/>
<stop offset="0.16" stop-color="#3F3F3F"/>
<stop offset="0.27" stop-color="#5D5D5D"/>
<stop offset="0.31" stop-color="#6B6B6B"/>
<stop offset="0.62" stop-color="#333333"/>
<stop offset="0.74" stop-color="#282828"/>
<stop offset="0.8" stop-color="#212121"/>
<stop offset="1" stop-color="#323232"/>
</linearGradient>
<linearGradient id="paint4_linear_749_9105" x1="433.455" y1="113.453" x2="409.747" y2="92.7421" gradientUnits="userSpaceOnUse">
<stop stop-color="#323232"/>
<stop offset="0.2" stop-color="#212121"/>
<stop offset="0.26" stop-color="#282828"/>
<stop offset="0.38" stop-color="#333333"/>
<stop offset="0.69" stop-color="#6B6B6B"/>
<stop offset="0.73" stop-color="#5D5D5D"/>
<stop offset="0.84" stop-color="#3F3F3F"/>
<stop offset="0.91" stop-color="#343434"/>
<stop offset="1"/>
</linearGradient>
<linearGradient id="paint5_linear_749_9105" x1="441.945" y1="96.5406" x2="435.77" y2="94.8572" gradientUnits="userSpaceOnUse">
<stop stop-color="#323232"/>
<stop offset="0.2" stop-color="#212121"/>
<stop offset="0.26" stop-color="#282828"/>
<stop offset="0.38" stop-color="#333333"/>
<stop offset="0.69" stop-color="#6B6B6B"/>
<stop offset="0.73" stop-color="#5D5D5D"/>
<stop offset="0.84" stop-color="#3F3F3F"/>
<stop offset="0.91" stop-color="#343434"/>
<stop offset="1"/>
</linearGradient>
<linearGradient id="paint6_linear_749_9105" x1="440.792" y1="75.8522" x2="436.852" y2="75.8522" gradientUnits="userSpaceOnUse">
<stop stop-color="#323232"/>
<stop offset="0.2" stop-color="#212121"/>
<stop offset="0.26" stop-color="#282828"/>
<stop offset="0.38" stop-color="#333333"/>
<stop offset="0.69" stop-color="#6B6B6B"/>
<stop offset="0.73" stop-color="#5D5D5D"/>
<stop offset="0.84" stop-color="#3F3F3F"/>
<stop offset="0.91" stop-color="#343434"/>
<stop offset="1"/>
</linearGradient>
</defs>
</svg>
