<svg width="382" height="382" fill="none" xmlns="http://www.w3.org/2000/svg"><path fill-rule="evenodd" clip-rule="evenodd" d="M55.415 281.474a6.284 6.284 0 0 1 12.44 1.256 6.284 6.284 0 0 1-12.44 1.257H0v-2.513h55.415Zm201.053 60.315a6.284 6.284 0 0 1 12.44 1.257 6.284 6.284 0 0 1-12.44 1.257H103.039v-2.514h153.429Zm72.63-57.802a6.284 6.284 0 0 1-12.44-1.257 6.284 6.284 0 0 1 12.44-1.256H382v2.513h-52.902Zm0 20.105a6.283 6.283 0 1 1 0-2.513H382v2.513h-52.902Zm7.791-143.25a6.284 6.284 0 0 1 12.44 1.257 6.284 6.284 0 0 1-12.44 1.256H228.572a6.285 6.285 0 0 1-12.44-1.256 6.285 6.285 0 0 1 12.44-1.257h108.317ZM15.205 100.526a6.284 6.284 0 0 1 12.44 1.257 6.284 6.284 0 0 1-12.44 1.256H0v-2.513h15.205Zm233.472 42.724a6.283 6.283 0 1 1 0-2.513h108.317a6.283 6.283 0 1 1 0 2.513H248.677Zm75.52-128.045a6.284 6.284 0 0 1-1.256 12.44 6.284 6.284 0 0 1-1.257-12.44V0h2.513v15.205Zm-80.421 261.368a6.284 6.284 0 0 1-1.256 12.44 6.284 6.284 0 0 1-1.257-12.44v-68.107a6.283 6.283 0 1 1 2.513 0v68.107Zm60.316-249.054a6.283 6.283 0 1 0-2.513 0v75.52H382v-2.513h-77.908V27.519Zm20.105 20.105a6.284 6.284 0 0 0-1.256-12.44 6.284 6.284 0 0 0-1.257 12.44v35.31H382v-2.513h-57.803V47.624ZM163.355 168.256a6.284 6.284 0 0 0-1.256-12.44 6.284 6.284 0 0 0-1.257 12.44v95.626h20.105v12.691a6.284 6.284 0 0 0 1.257 12.44 6.284 6.284 0 0 0 1.257-12.44v-15.205h-20.106v-93.112Zm-7.414-27.519a6.284 6.284 0 0 1 12.441 1.256 6.285 6.285 0 0 1-12.441 1.257H143.25v60.316h-35.31a6.284 6.284 0 0 1-12.44-1.257 6.284 6.284 0 0 1 12.44-1.256h32.797v-60.316h15.204Zm-7.79 163.355a6.284 6.284 0 0 1-12.44-1.256 6.284 6.284 0 0 1 12.44-1.257h73.007v-93.113a6.285 6.285 0 0 1 1.256-12.44 6.285 6.285 0 0 1 1.257 12.44v95.626h-75.52Zm-20.106-80.421a6.285 6.285 0 0 1-12.44-1.257 6.285 6.285 0 0 1 12.44-1.256h15.205v60.316h12.691a6.285 6.285 0 0 1 12.441 1.256 6.285 6.285 0 0 1-12.441 1.257h-15.204v-60.316h-12.692Zm-45.11 133.323a6.284 6.284 0 1 1-2.514 0v-12.691H62.83V382h-2.513v-40.211h22.618v15.205Zm213.743-135.836a6.284 6.284 0 0 1 12.44 1.256 6.284 6.284 0 0 1-12.44 1.257h-12.691v118.118h60.316V382h-2.514v-37.697h-60.315V221.158h15.204Zm32.42-37.697a6.284 6.284 0 0 1-12.44-1.257 6.284 6.284 0 0 1 12.44-1.257h15.205v55.416a6.283 6.283 0 1 1-2.514 0v-52.902h-12.691Zm-80.421 120.631a6.283 6.283 0 1 1 0-2.513h12.691V201.053h20.106v-17.592h-52.902a6.285 6.285 0 0 1-12.44-1.257 6.285 6.285 0 0 1 12.44-1.257h55.415v22.619h-20.105v100.526h-15.205ZM356.994 40.211a6.284 6.284 0 1 1 0 2.513h-15.205V0h2.514v40.21h12.691Zm-233.849 87.834a6.283 6.283 0 1 0-2.513 0v52.902H67.73a6.284 6.284 0 0 0-12.44 1.257 6.284 6.284 0 0 0 12.44 1.257h55.415v-55.416ZM67.73 42.724a6.284 6.284 0 0 1-12.44-1.257 6.284 6.284 0 0 1 12.44-1.257h32.796V0h2.513v42.724h-35.31Zm75.52 4.9a6.283 6.283 0 1 0-2.513 0v32.797h-40.211v80.421H87.835a6.284 6.284 0 0 0-12.44 1.257 6.284 6.284 0 0 0 12.44 1.256h15.204v-80.42h40.211v-35.31Zm-15.205 55.415a6.283 6.283 0 1 1 0-2.513h32.797V47.624a6.284 6.284 0 0 1 1.257-12.44 6.284 6.284 0 0 1 1.256 12.44v55.415h-35.31Zm20.106-80.42a6.285 6.285 0 0 1-12.44-1.257 6.285 6.285 0 0 1 12.44-1.257h35.31V75.52a6.284 6.284 0 0 1-1.257 12.44 6.284 6.284 0 0 1-1.257-12.44V22.618h-32.796Zm128.422 339.276a6.284 6.284 0 0 1 12.44 1.256 6.284 6.284 0 0 1-12.44 1.257H123.145V382h-2.513v-20.105h155.941Zm27.519-173.534a6.283 6.283 0 1 0-2.513 0v15.205h20.105v37.697h-20.105v82.934h60.316V382h2.513v-60.316h-60.316v-77.908h20.105v-42.723h-20.105v-12.692ZM67.73 22.618a6.284 6.284 0 0 1-12.44-1.256 6.284 6.284 0 0 1 12.44-1.256H80.42V2.512H60.316V0h22.618v22.618H67.73Zm140.736 40.21a6.283 6.283 0 1 1 0-2.512h32.797V0h62.829v2.513h-60.316V62.83h-35.31ZM148.151 2.514A6.285 6.285 0 0 1 135.836 0h2.601a3.79 3.79 0 0 0-.213 1.257 3.769 3.769 0 1 0 7.539 0c0-.44-.075-.864-.213-1.257h78.121v42.724h-22.618V27.519a6.284 6.284 0 0 1 1.256-12.44 6.284 6.284 0 0 1 1.257 12.44v12.692h17.592V2.513h-73.007Zm0 120.632a6.285 6.285 0 0 1-12.44-1.257 6.285 6.285 0 0 1 12.44-1.256h24l40.211-40.21h49.006V27.518a6.284 6.284 0 0 1 1.257-12.44 6.284 6.284 0 0 1 1.257 12.44v55.415h-50.48l-40.21 40.211h-25.041Zm35.31 113.218a6.283 6.283 0 1 1-2.514 0v-96.145l39.691-39.692h60.836V27.519a6.284 6.284 0 0 1 1.256-12.44 6.284 6.284 0 0 1 1.257 12.44v75.52h-62.309l-38.217 38.218v95.106Zm20.105 40.21a6.284 6.284 0 0 1-1.257 12.44 6.284 6.284 0 0 1-1.256-12.44V151.527l30.894-30.895h145.152a6.289 6.289 0 0 1 4.901-4.901v2.601a3.774 3.774 0 0 0-2.513 3.556 3.774 3.774 0 0 0 2.513 3.556v2.601a6.288 6.288 0 0 1-4.901-4.9H232.987l-29.421 29.421v124.007ZM22.618 196.152a6.284 6.284 0 1 1-2.513 0v-4.414l60.316-60.316V60.316h40.211V0h2.513v62.829h-40.21v69.631l-60.317 60.316v3.376ZM62.828 67.73a6.284 6.284 0 0 0-1.256-12.44 6.284 6.284 0 0 0-1.257 12.44v53.638L0 181.684v82.198h35.31a6.284 6.284 0 0 0 12.44-1.257 6.284 6.284 0 0 0-12.44-1.257H2.513v-78.644l60.316-60.316V67.73ZM42.725 87.835a6.284 6.284 0 0 0-1.257-12.44 6.284 6.284 0 0 0-1.257 12.44v23.48L0 151.526v3.553l42.724-42.723V87.835ZM15.204 40.21a6.284 6.284 0 0 1 12.44 1.256 6.284 6.284 0 0 1-12.44 1.257H11.83L0 54.554v-3.555l10.789-10.788h4.416Zm333.999 22.618a6.284 6.284 0 1 1 0-2.513h23.481L382 50.999v3.554l-8.276 8.276h-24.521Zm-20.105 201.053a6.284 6.284 0 0 1-12.44-1.257 6.284 6.284 0 0 1 12.44-1.257h32.797v-89.736L382 151.527v3.552l-17.592 17.593v91.21h-35.31ZM67.73 304.092a6.283 6.283 0 1 1 0-2.513H80.42v-28.381L51 243.776H27.52a6.284 6.284 0 0 1-12.44-1.256 6.284 6.284 0 0 1 12.44-1.257h24.52l30.895 30.894v31.935H67.73Zm188.738 17.592a6.284 6.284 0 0 1 12.44 1.257 6.284 6.284 0 0 1-12.44 1.256H120.632v-71.12L71.12 203.566H47.624a6.284 6.284 0 0 1-12.44-1.257 6.284 6.284 0 0 1 12.44-1.256H72.13l51.015 51.014v69.617h133.323ZM67.73 324.197a6.284 6.284 0 0 1-12.44-1.256 6.284 6.284 0 0 1 12.44-1.257h32.796v-58.539l-39.474-39.474H27.52a6.283 6.283 0 1 1 0-2.513h34.572l40.948 40.947v62.092h-35.31Zm54.158-198.539a3.77 3.77 0 1 0 0-7.54 3.77 3.77 0 0 0 0 7.54Zm0-20.105a3.77 3.77 0 1 0 0-7.54 3.77 3.77 0 0 0 0 7.54Zm20.105 20.105a3.77 3.77 0 1 0 .001-7.539 3.77 3.77 0 0 0-.001 7.539Zm20.106 20.105a3.769 3.769 0 0 0 3.769-3.77 3.77 3.77 0 1 0-3.769 3.77Zm0 20.105a3.77 3.77 0 1 0 0-7.54 3.77 3.77 0 0 0 0 7.54Zm-60.316 40.211a3.77 3.77 0 1 0 0-7.54 3.77 3.77 0 0 0 0 7.54Zm20.105 20.105a3.77 3.77 0 1 0 .001-7.539 3.77 3.77 0 0 0-.001 7.539Zm40.211 60.316a3.77 3.77 0 1 0 0-7.539 3.77 3.77 0 0 0 0 7.539Zm-20.106 20.105a3.769 3.769 0 1 0 0-7.539 3.769 3.769 0 0 0-3.769 3.77 3.768 3.768 0 0 0 3.769 3.769Zm40.211-20.105a3.77 3.77 0 1 0 0-7.54 3.77 3.77 0 0 0 0 7.54Zm0-40.211a3.77 3.77 0 1 0 .001-7.539 3.77 3.77 0 0 0-.001 7.539Zm20.105 40.211a3.77 3.77 0 1 0 0-7.54 3.77 3.77 0 0 0 0 7.54Zm40.211 20.105a3.768 3.768 0 0 0 3.769-3.769 3.769 3.769 0 1 0-7.539 0 3.77 3.77 0 0 0 3.77 3.769Zm0-20.105a3.77 3.77 0 1 0 0-7.539 3.77 3.77 0 0 0 0 7.539Zm-20.106-80.421a3.77 3.77 0 1 0 .001-7.539 3.77 3.77 0 0 0-.001 7.539Zm20.106 0a3.77 3.77 0 1 0 0-7.539 3.77 3.77 0 0 0 0 7.539Zm20.105 120.632a3.77 3.77 0 1 0 0-7.54 3.77 3.77 0 0 0 0 7.54Zm0 20.105a3.77 3.77 0 1 0 0-7.54 3.77 3.77 0 0 0 0 7.54Zm20.105 20.105a3.77 3.77 0 1 0 0-7.54 3.77 3.77 0 0 0 0 7.54Zm20.106-180.947a3.77 3.77 0 1 0 0-7.539 3.77 3.77 0 0 0 0 7.539Zm0 40.21a3.769 3.769 0 0 0 3.769-3.77 3.768 3.768 0 0 0-3.769-3.769 3.769 3.769 0 1 0 0 7.539Zm20.105-40.21a3.77 3.77 0 1 0 0-7.54 3.77 3.77 0 0 0 0 7.54Zm20.105-20.106a3.77 3.77 0 1 0 .001-7.539 3.77 3.77 0 0 0-.001 7.539Zm-120.632 0a3.769 3.769 0 1 0 0-7.539 3.77 3.77 0 0 0 0 7.539Zm0 20.106a3.77 3.77 0 1 0 .001-7.539 3.77 3.77 0 0 0-.001 7.539Zm20.106-40.211a3.769 3.769 0 0 0 3.769-3.77 3.77 3.77 0 1 0-3.769 3.77Zm120.631 0a3.77 3.77 0 1 0 .001-7.539 3.77 3.77 0 0 0-.001 7.539Zm-20.105-80.42a3.77 3.77 0 1 0 0-7.54 3.77 3.77 0 0 0 0 7.54Zm20.105-20.106a3.77 3.77 0 1 0 0-7.54 3.77 3.77 0 0 0 0 7.54Zm-40.21 0a3.77 3.77 0 1 0 0-7.54 3.77 3.77 0 0 0 0 7.54Zm0-20.105a3.77 3.77 0 1 0 0-7.54 3.77 3.77 0 0 0 0 7.54Zm-20.105 0a3.769 3.769 0 1 0 0-7.54 3.77 3.77 0 1 0 0 7.54Zm-20.106 0a3.77 3.77 0 1 0 0-7.54 3.77 3.77 0 0 0 0 7.54Zm-20.105 0a3.77 3.77 0 1 0 0-7.54 3.77 3.77 0 0 0 0 7.54ZM61.572 45.237a3.77 3.77 0 1 0 0-7.54 3.77 3.77 0 0 0 0 7.54Zm-40.21 0a3.77 3.77 0 1 0 0-7.54 3.77 3.77 0 0 0 0 7.54Zm40.21 20.105a3.77 3.77 0 1 0 0-7.539 3.77 3.77 0 0 0 0 7.54ZM41.467 85.447a3.77 3.77 0 1 0 0-7.539 3.77 3.77 0 0 0 0 7.54Zm20.105-60.315a3.77 3.77 0 1 0 0-7.54 3.77 3.77 0 0 0 0 7.54Zm0 301.579a3.77 3.77 0 1 0 0-7.54 3.77 3.77 0 0 0 0 7.54Zm20.106 40.21a3.77 3.77 0 1 0 0-7.54 3.77 3.77 0 0 0 0 7.54ZM61.572 286.5a3.77 3.77 0 1 0 0-7.54 3.77 3.77 0 0 0 0 7.54Zm0 20.105a3.769 3.769 0 1 0 0-7.539 3.77 3.77 0 1 0 0 7.539Zm-20.105-40.21a3.77 3.77 0 1 0 0-7.54 3.77 3.77 0 0 0 0 7.54ZM141.993 45.237a3.77 3.77 0 1 0 .002-7.538 3.77 3.77 0 0 0-.002 7.538Zm20.106 0a3.769 3.769 0 1 0 0-7.54 3.77 3.77 0 1 0 0 7.54Zm-20.106-20.105a3.77 3.77 0 1 0 .002-7.539 3.77 3.77 0 0 0-.002 7.539Zm40.211 60.315a3.77 3.77 0 1 0 0-7.54 3.77 3.77 0 0 0 0 7.54Zm20.105-20.105a3.77 3.77 0 1 0 0-7.54 3.77 3.77 0 0 0 0 7.54Zm0-40.21a3.77 3.77 0 1 0 0-7.54 3.77 3.77 0 0 0 0 7.54Zm140.737 221.157a3.77 3.77 0 1 0 .001-7.539 3.77 3.77 0 0 0-.001 7.539Zm-20.105 20.106a3.77 3.77 0 1 0 0-7.54 3.77 3.77 0 0 0 0 7.54Zm0 20.105a3.77 3.77 0 1 0 0-7.54 3.77 3.77 0 0 0 0 7.54Zm0 20.105a3.77 3.77 0 1 0 .001-7.539 3.77 3.77 0 0 0-.001 7.539Zm-301.58-80.421a3.77 3.77 0 1 0 .002-7.538 3.77 3.77 0 0 0-.001 7.538Zm0 20.105a3.769 3.769 0 1 0 .002-7.538 3.769 3.769 0 0 0-.001 7.538Zm0-40.21a3.77 3.77 0 1 0 0-7.54 3.77 3.77 0 0 0 0 7.54Zm20.106 0a3.77 3.77 0 1 0 0-7.54 3.77 3.77 0 0 0 0 7.54ZM21.362 105.553a3.77 3.77 0 1 0 0-7.54 3.77 3.77 0 0 0 0 7.54Zm40.21 80.421a3.77 3.77 0 1 0 0-7.54 3.77 3.77 0 0 0 0 7.54Zm20.106-20.106a3.769 3.769 0 1 0 .001-7.538 3.769 3.769 0 0 0-.001 7.538ZM42.724 50.003V0H40.21v51L10.789 80.42H0v2.513h11.828L42.724 52.04v-2.037ZM2.514 377.099v-52.902h17.591V382h2.513v-60.316H0V379.7a3.774 3.774 0 0 1 4.813 2.3h2.6a6.289 6.289 0 0 0-4.9-4.901Zm40.21-74.263V382H40.21v-77.908H0v-2.513h42.724v1.257ZM21.362 22.618h1.256V0h-2.513v20.105H0v2.513h21.362Zm343.046-2.513V0h-2.513v22.618H382v-2.513h-17.592Zm-40.211 343.046V382h-2.513v-17.592h-17.592V382h-2.513v-20.105h22.618v1.256ZM0 115.731a6.285 6.285 0 0 1 7.54 6.157A6.285 6.285 0 0 1 0 128.045v-2.601a3.77 3.77 0 1 0 0-7.112v-2.601Zm100.526 226.058h2.513V382h-2.513v-40.211ZM148.151 382a6.284 6.284 0 0 0-12.315 0h2.601a3.774 3.774 0 0 1 7.113 0h2.601ZM7.414 0A6.285 6.285 0 0 1 0 7.414V4.813c.393.138.817.213 1.257.213A3.77 3.77 0 0 0 4.813 0h2.6Zm369.685 0A6.283 6.283 0 0 0 382 7.414V4.813A3.774 3.774 0 0 1 379.7 0h-2.601ZM382 377.099a6.289 6.289 0 0 0-4.901 4.901h2.601a3.792 3.792 0 0 1 2.3-2.3v-2.601Z" fill="#fff" fill-opacity=".1"/></svg>