<svg width="31" height="30" fill="none" xmlns="http://www.w3.org/2000/svg"><path d="M25.45 20h-15c-1.163 0-1.744 0-2.221.128a3.75 3.75 0 0 0-2.652 2.651" stroke="#B476E5" stroke-width="2"/><path d="M9.327 20V3.125M13.077 27.5c-3.536 0-5.303 0-6.402-1.098C5.577 25.303 5.577 23.535 5.577 20V10c0-3.536 0-5.303 1.098-6.402C7.774 2.5 9.541 2.5 13.077 2.5h5c3.536 0 5.303 0 6.402 1.098 1.098 1.099 1.098 2.866 1.098 6.402m-7.5 17.5c3.536 0 5.303 0 6.402-1.098 1.098-1.099 1.098-2.867 1.098-6.402v-5" stroke="#B476E5" stroke-width="2" stroke-linecap="round"/></svg>