<svg width="30" height="30" fill="none" xmlns="http://www.w3.org/2000/svg"><path d="M9.214 10c1.239-1.906 2.465-3.863 3.231-5.779.325-.812 1.325-1.194 2.02-.664C18.68 6.767 25 12.973 25 18.75c0 1.467-.249 2.707-.663 3.75M6.832 13.75C5.767 15.567 5 17.266 5 18.75c0 3.884 2.807 6.636 5.102 7.964.525.305 1.037-.33.761-.871-.607-1.192-1.196-2.731-1.196-3.968 0-1.714 1.306-3.092 2.239-3.975.24-.227.614-.223.821.033.386.475.77 1.077 1.156 1.564.226.286.647.26.846-.045 1.232-1.9 1.518-4.323 1.584-6.135.02-.547.66-.815 1.027-.41C18.945 14.684 21 17.563 21 20c0 2.27-1.272 4.683-2.373 6.264-.322.464.032 1.093.572.925.643-.2 1.334-.5 2.008-.925" stroke="#B476E5" stroke-width="2" stroke-linecap="round"/></svg>