<svg width="30" height="30" fill="none" xmlns="http://www.w3.org/2000/svg"><path d="m11.202 23.639.62-.786-.62.786ZM15 6.876l-.72.693a1 1 0 0 0 1.44 0L15 6.876Zm3.798 16.763.619.785-.62-.785ZM8.79 20.478a1 1 0 0 0-1.27 1.544l1.27-1.544Zm-5.917-3.684a1 1 0 0 0 1.754-.96l-1.754.96Zm.627-5.373c0-2.665 1.506-4.897 3.556-5.834 1.988-.908 4.667-.674 7.224 1.982l1.44-1.387c-3.068-3.188-6.639-3.72-9.495-2.414C3.432 5.045 1.5 8.008 1.5 11.421h2Zm7.083 13.003c.64.504 1.33 1.045 2.031 1.455.701.41 1.507.746 2.386.746v-2c-.371 0-.815-.145-1.377-.473-.56-.328-1.144-.78-1.802-1.299l-1.238 1.571Zm8.834 0c1.78-1.403 4.066-3.019 5.859-5.038 1.827-2.057 3.224-4.613 3.224-7.965h-2c0 2.728-1.115 4.83-2.72 6.637-1.638 1.846-3.703 3.299-5.601 4.795l1.238 1.571ZM28.5 11.421c0-3.413-1.932-6.376-4.725-7.653-2.856-1.305-6.427-.773-9.495 2.414l1.44 1.387c2.557-2.656 5.236-2.89 7.224-1.982 2.05.937 3.556 3.17 3.556 5.834h2ZM18.179 22.853c-.658.52-1.242.971-1.802 1.3-.562.327-1.006.472-1.377.472v2c.879 0 1.685-.337 2.386-.746.7-.41 1.391-.95 2.03-1.455l-1.237-1.57Zm-6.358 0c-.997-.786-2.005-1.531-3.03-2.375L7.52 22.022c1.038.855 2.137 1.672 3.063 2.402l1.238-1.57Zm-7.194-7.018A9.003 9.003 0 0 1 3.5 11.42h-2c0 2.059.528 3.829 1.373 5.373l1.754-.96Z" fill="#B476E5"/></svg>