<svg width="18" height="16" fill="none" xmlns="http://www.w3.org/2000/svg"><path d="m10.955 1.184 4.978 4.424c.93.828 1.396 1.241 1.567 1.73.15.428.15.896 0 1.325-.171.488-.637.902-1.567 1.729l-4.978 4.425c-.422.375-.634.563-.813.57a.5.5 0 0 1-.404-.182c-.115-.139-.115-.421-.115-.986v-2.79c-2.428 0-4.992.78-6.865 2.164-.975.72-1.462 1.081-1.648 1.067a.451.451 0 0 1-.39-.24c-.096-.16-.01-.657.16-1.653C1.983 6.3 6.433 4.572 9.622 4.572v-2.79c0-.565 0-.848.115-.986a.5.5 0 0 1 .404-.182c.18.007.39.194.813.57Z" fill="#7780A1"/></svg>