<svg width="1920" height="36" fill="none" xmlns="http://www.w3.org/2000/svg"><g clip-path="url(#a)"><path d="M0 16.863C58.311 11.222 116.622 5.581 174.933 4.068c58.311-1.513 116.623 1.1 174.933 6.55 58.31 5.45 116.621 13.718 174.934 12.057 58.313-1.661 116.628-13.255 174.933-12.94 58.305.315 116.6 12.539 174.933 12.645 58.333.106 116.7-11.906 174.934-9.771 58.23 2.135 116.34 18.418 174.93 20.012 58.59 1.594 117.66-11.5 174.93-20.611C1456.74 2.899 1512.21-2.232 1574.4.943c62.18 3.175 131.07 14.655 174.93 15.19 43.86.535 62.68-9.876 170.67.729V36H0" fill="#1C2331"/></g><defs><clipPath id="a"><path fill="#fff" d="M0 0h1920v36H0z"/></clipPath></defs></svg>