<svg width="44" height="80" viewBox="0 0 44 80" fill="none" xmlns="http://www.w3.org/2000/svg">
<path d="M0.358948 42.1766L21.7701 33.9736L43.1813 42.1766L21.7701 50.3861L0.358948 42.1766Z" fill="white"/>
<g style="mix-blend-mode:multiply">
<path d="M2.79309 41.2431C8.39877 43.3901 21.7702 48.5194 21.7702 48.5194L40.7472 41.2431C36.9231 39.7748 21.7702 33.9668 21.7702 33.9668L2.79309 41.2431Z" fill="#D1D3D4"/>
</g>
<path d="M43.1813 42.1895L21.7701 80L0.352417 42.1895L21.7701 50.3859L43.1813 42.1895Z" fill="#B476E5"/>
<path d="M43.5337 38.4371L21.7701 46.777L0 38.4371L21.7701 0L43.5337 38.4371Z" fill="#47BDFF"/>
<g style="mix-blend-mode:multiply">
<path d="M21.7701 50.3859L43.1813 42.1895L21.7701 80V50.3859Z" fill="#DCCFEF"/>
</g>
<g style="mix-blend-mode:multiply">
<path d="M43.5337 38.4371L21.7701 46.777V0L43.5337 38.4371Z" fill="#DCCFEF"/>
</g>
</svg>
