<svg width="131" height="26" viewBox="0 0 131 26" fill="none" xmlns="http://www.w3.org/2000/svg">
<path d="M130.027 13.4558C130.11 9.27576 126.884 5.84811 122.748 5.76451C118.613 5.68091 115.221 8.94135 115.139 13.1214C115.056 17.3015 118.282 20.7291 122.417 20.8127H122.583C125.064 20.8963 127.463 19.8095 128.952 17.8031L127.132 16.5491C126.057 17.9703 124.402 18.8063 122.583 18.7227C120.101 18.7227 118.034 16.9671 117.537 14.5426H129.944C130.027 14.1246 130.027 13.7902 130.027 13.4558ZM122.583 8.18894C125.064 8.18894 127.132 9.94457 127.628 12.369H117.537C118.034 9.94457 120.184 8.18894 122.583 8.18894ZM62.6168 6.26612H64.85V20.3111H62.6168V6.26612Z" fill="#7780A1"/>
<path d="M63.7748 4.25964C64.597 4.25964 65.2636 3.58591 65.2636 2.75482C65.2636 1.92373 64.597 1.25 63.7748 1.25C62.9525 1.25 62.2859 1.92373 62.2859 2.75482C62.2859 3.58591 62.9525 4.25964 63.7748 4.25964Z" fill="#7780A1"/>
<path d="M52.6914 5.76449C48.5558 5.76449 45.2474 9.10853 45.2474 13.2886C45.2474 17.4686 48.5558 20.8127 52.6914 20.8127C56.827 20.8127 60.1355 17.4686 60.1355 13.2886C60.1355 9.10853 56.827 5.76449 52.6914 5.76449ZM52.6914 18.5555C49.7965 18.5555 47.3979 16.2146 47.3979 13.2886C47.3979 10.3626 49.7138 7.93812 52.6087 7.93812C55.5036 7.93812 57.9023 10.279 57.9023 13.205V13.2886C57.9023 16.2146 55.5863 18.5555 52.6914 18.5555ZM90.6561 5.76449C86.5205 5.76449 83.2121 9.10853 83.2121 13.2886C83.2121 17.4686 86.5205 20.8127 90.6561 20.8127C94.7917 20.8127 98.1002 17.4686 98.1002 13.2886C98.1002 9.10853 94.7917 5.76449 90.6561 5.76449ZM90.6561 18.5555C87.7612 18.5555 85.3626 16.2146 85.3626 13.2886C85.3626 10.3626 87.6785 7.93812 90.5734 7.93812C93.4683 7.93812 95.8669 10.279 95.8669 13.205C95.8669 16.2146 93.551 18.5555 90.6561 18.5555ZM74.7755 5.76449C73.1212 5.68089 71.467 6.4333 70.309 7.68732V6.2661H68.0758V20.2275H70.309V13.0378C70.309 10.0281 72.046 7.85452 74.7755 7.85452C77.5049 7.85452 78.9938 9.94455 78.9938 13.205V20.2275H81.227V13.205C81.227 8.52333 78.7456 5.76449 74.7755 5.76449Z" fill="#7780A1"/>
<path d="M106.785 5.76448C105.131 5.68087 103.476 6.43328 102.318 7.6873V6.26608H100.085V20.2275H102.318V13.0378C102.318 10.0281 104.055 7.8545 106.785 7.8545C109.514 7.8545 111.003 9.94453 111.003 13.205V20.2275H113.236V13.205C113.154 8.52331 110.755 5.76448 106.785 5.76448ZM38.6304 5.51367C34.3294 5.51367 30.9382 9.02492 30.8555 13.2886C30.7728 17.5522 34.3294 21.0635 38.5477 21.1471C40.6982 21.1471 42.766 20.2275 44.2548 18.639L42.6833 17.0506C40.6155 19.3915 37.1416 19.5587 34.8256 17.5522C32.5097 15.5458 32.3443 11.951 34.3294 9.61013C36.3145 7.26929 39.8711 7.10209 42.187 9.10852L42.6833 9.61013L44.2548 8.0217C42.766 6.43328 40.7809 5.51367 38.6304 5.51367Z" fill="#7780A1"/>
<mask id="mask0_1068_12564" style="mask-type:luminance" maskUnits="userSpaceOnUse" x="0" y="0" width="26" height="26">
<path d="M22.0881 13.0378C22.0881 13.0378 20.3511 15.6294 19.0277 17.3014C17.3735 19.3078 15.5538 20.5619 12.8243 20.5619C8.85418 20.5619 5.54571 17.3014 5.54571 13.2886V13.0378C5.463 9.02491 8.60605 5.59726 12.5762 5.51366H12.8243C15.5538 5.51366 17.2908 6.68408 19.0277 8.7741C20.4338 10.4461 22.0881 12.9542 22.0881 13.0378L25.0657 8.8577C22.8325 2.08602 15.5538 -1.59243 8.77147 0.664798C1.98911 2.92203 -1.5675 10.2789 0.66572 17.1342C2.89894 23.9895 10.1776 27.5844 16.9599 25.3271C20.7647 24.0731 23.825 20.9799 25.0657 17.1342L22.0881 13.0378Z" fill="white"/>
</mask>
<g mask="url(#mask0_1068_12564)">
<rect x="-0.905762" y="-1.17444" width="28.122" height="28.4244" fill="#7780A1"/>
<path d="M19.7722 11.3658H24.7349V13.0379H19.7722V11.3658Z" fill="#7780A1"/>
<path d="M19.7722 13.0378H24.7349V14.7099H19.7722V13.0378Z" fill="#7780A1"/>
</g>
</svg>
