<svg width="166" height="26" viewBox="0 0 166 26" fill="none" xmlns="http://www.w3.org/2000/svg">
<path d="M38.4529 19.0512C37.2905 18.4245 36.3217 17.4857 35.6531 16.3384C34.9766 15.183 34.6385 13.8802 34.6391 12.4301C34.6397 10.9799 34.981 9.67685 35.6631 8.52094C36.3382 7.37443 37.3106 6.43633 38.4752 5.80813C39.6673 5.1516 41.0015 4.82389 42.4776 4.825C43.6023 4.81079 44.7183 5.02633 45.7587 5.45869C46.7253 5.86527 47.5842 6.49518 48.2665 7.29788L46.5113 8.96988C45.451 7.81174 44.1478 7.23267 42.6016 7.23267C41.5975 7.23267 40.6987 7.45561 39.9053 7.90147C39.1283 8.3299 38.485 8.96885 38.0476 9.74652C37.6015 10.5357 37.3787 11.4302 37.3793 12.4301C37.3798 13.4299 37.6026 14.3242 38.0476 15.1128C38.485 15.8922 39.1293 16.5324 39.9077 16.9612C40.7018 17.407 41.6006 17.63 42.6041 17.63C44.148 17.63 45.4507 17.0448 46.5122 15.8744L48.2673 17.5631C47.5824 18.3677 46.7196 18.9978 45.7488 19.4023C44.7047 19.834 43.5856 20.0495 42.4577 20.036C40.9789 20.0349 39.6439 19.7066 38.4529 19.0512Z" fill="#7780A1"/>
<path d="M52.2779 19.2285C51.394 18.7575 50.6589 18.0449 50.1563 17.172C49.6474 16.292 49.3929 15.2957 49.3929 14.1833C49.3929 13.0709 49.6474 12.0774 50.1563 11.203C50.6607 10.3334 51.3956 9.62373 52.2779 9.15394C53.1838 8.66181 54.2009 8.41547 55.329 8.41492C56.471 8.41492 57.4949 8.66126 58.4009 9.15394C59.283 9.62399 60.0178 10.3336 60.5224 11.203C61.0303 12.0757 61.2845 13.0686 61.285 14.1816C61.2856 15.2946 61.0314 16.2908 60.5224 17.1703C60.0199 18.0437 59.2848 18.7568 58.4009 19.2285C57.4949 19.7212 56.471 19.9678 55.329 19.9684C54.1998 19.9706 53.1827 19.724 52.2779 19.2285ZM57.7111 16.7348C58.3386 16.0883 58.6521 15.2367 58.6515 14.18C58.651 13.1233 58.3375 12.2711 57.7111 11.6235C57.0842 10.9759 56.2901 10.652 55.329 10.652C54.3679 10.652 53.5772 10.9759 52.9569 11.6235C52.336 12.2739 52.0256 13.1272 52.0256 14.1833C52.0256 15.2394 52.3358 16.091 52.9561 16.7381C53.5759 17.3874 54.3666 17.7115 55.3282 17.7104C56.2899 17.7093 57.0842 17.3852 57.7111 16.7381" fill="#7780A1"/>
<path d="M64.0187 6.23022C63.8638 6.08727 63.741 5.91241 63.6587 5.71743C63.5764 5.52244 63.5364 5.31188 63.5414 5.09995C63.5365 4.8879 63.5765 4.67724 63.6588 4.48214C63.7411 4.28704 63.8638 4.11202 64.0187 3.96884C64.3415 3.66577 64.7692 3.50304 65.2097 3.51573C65.6467 3.50202 66.0725 3.65684 66.4007 3.94878C66.5552 4.08293 66.6784 4.24991 66.7616 4.43778C66.8448 4.62565 66.886 4.82977 66.8821 5.03557C66.887 5.25282 66.8478 5.46879 66.7668 5.6701C66.6859 5.87142 66.5649 6.0538 66.4115 6.20597C66.2549 6.36484 66.0677 6.4896 65.8616 6.57256C65.6555 6.65552 65.4348 6.69492 65.213 6.68834C64.7707 6.70093 64.3413 6.53625 64.0187 6.23022ZM63.8929 8.54342H66.5058V19.8227H63.8962L63.8929 8.54342Z" fill="#7780A1"/>
<path d="M79.7593 9.66284C80.609 10.4933 81.0338 11.7255 81.0338 13.3596V19.8227H78.4218V13.6974C78.4218 12.712 78.1919 11.9691 77.732 11.4686C77.2722 10.9681 76.6171 10.7173 75.7668 10.7162C74.8057 10.7162 74.0465 11.0082 73.489 11.5923C72.9315 12.1764 72.6531 13.018 72.6536 14.117V19.8202H70.0408V8.54344H72.5279V10.0006C72.9657 9.47535 73.5259 9.06853 74.1581 8.81681C74.8641 8.54043 75.6162 8.40446 76.3731 8.41637C77.7808 8.41637 78.9096 8.83186 79.7593 9.66284Z" fill="#7780A1"/>
<path d="M90.9185 8.41638V10.9294C90.7187 10.8897 90.5158 10.8684 90.3122 10.8659C89.2949 10.8659 88.5009 11.1651 87.9302 11.7637C87.3595 12.3623 87.0736 13.2262 87.0725 14.3553V19.8261H84.4605V8.54345H86.9476V10.1904C87.7002 9.00827 89.0239 8.41694 90.9185 8.41638Z" fill="#7780A1"/>
<path d="M101.211 9.60918C102.082 10.405 102.518 11.6055 102.518 13.2107V19.8226H100.051V18.4498C99.7161 18.9552 99.2396 19.3483 98.6826 19.5793C98.0904 19.8401 97.3763 19.9708 96.5404 19.9714C95.7042 19.9714 94.9689 19.8251 94.3461 19.5383C93.7595 19.2828 93.2561 18.8653 92.8937 18.3336C92.552 17.8186 92.3735 17.2107 92.3817 16.5906C92.3817 15.5774 92.7542 14.7642 93.4991 14.1512C94.2441 13.5381 95.4183 13.2316 97.0218 13.2316H99.905V13.0644C99.905 12.2752 99.6718 11.6696 99.2053 11.2477C98.7388 10.8258 98.0454 10.6143 97.1252 10.6132C96.4972 10.6139 95.8732 10.7137 95.2757 10.9092C94.7162 11.0818 94.1947 11.3616 93.7398 11.7334L92.7159 9.81065C93.3499 9.33695 94.0657 8.98682 94.8266 8.77819C95.6765 8.53495 96.5561 8.41394 97.4394 8.41872C99.0832 8.41704 100.34 8.81386 101.211 9.60918ZM98.829 17.5946C99.3275 17.303 99.7082 16.8429 99.9042 16.2955V14.9863H97.2087C95.7034 14.9863 94.951 15.486 94.9515 16.4853C94.945 16.7078 94.9931 16.9284 95.0915 17.1276C95.1899 17.3267 95.3357 17.4981 95.5156 17.6264C95.8922 17.9084 96.416 18.0477 97.0871 18.0444C97.6973 18.0564 98.2993 17.901 98.829 17.5946Z" fill="#7780A1"/>
<path d="M115.683 9.66284C116.533 10.4933 116.958 11.7255 116.958 13.3596V19.8227H114.345V13.6974C114.345 12.712 114.115 11.9691 113.656 11.4686C113.196 10.9681 112.541 10.7173 111.691 10.7162C110.73 10.7162 109.971 11.0082 109.413 11.5923C108.856 12.1764 108.577 13.018 108.577 14.117V19.8202H105.965V8.54344H108.452V10.0006C108.89 9.47535 109.45 9.06853 110.083 8.81681C110.788 8.54043 111.541 8.40446 112.298 8.41637C113.705 8.41637 114.834 8.83186 115.683 9.66284Z" fill="#7780A1"/>
<path d="M124.941 14.9866L122.998 16.8442V19.8228H120.386V4.14954H122.998V13.6122L128.411 8.54354H131.546L126.885 13.2744L131.984 19.8228H128.807L124.941 14.9866Z" fill="#7780A1"/>
<path d="M133.802 6.23022C133.647 6.08748 133.524 5.91274 133.441 5.71776C133.358 5.52279 133.317 5.31212 133.322 5.09996C133.317 4.88768 133.358 4.67692 133.441 4.48182C133.524 4.28673 133.647 4.11182 133.802 3.96885C134.125 3.66593 134.553 3.50323 134.993 3.51574C135.43 3.50195 135.856 3.65678 136.184 3.94879C136.339 4.08283 136.462 4.24978 136.545 4.43768C136.629 4.62557 136.67 4.82976 136.666 5.03558C136.671 5.25277 136.632 5.4687 136.551 5.67001C136.47 5.87132 136.349 6.05374 136.196 6.20598C136.039 6.36525 135.851 6.49023 135.644 6.5732C135.437 6.65617 135.216 6.69536 134.993 6.68835C134.552 6.69987 134.124 6.53528 133.802 6.23022ZM133.677 8.54343H136.289V19.8227H133.677V8.54343Z" fill="#7780A1"/>
<path d="M149.541 9.66282C150.39 10.4932 150.815 11.7255 150.816 13.3596V19.8227H148.201V13.6973C148.201 12.712 147.971 11.9691 147.511 11.4686C147.052 10.9681 146.397 10.7173 145.547 10.7162C144.585 10.7162 143.826 11.0082 143.269 11.5923C142.713 12.1764 142.434 13.018 142.433 14.117V19.8202H139.821V8.54342H142.308V10.0006C142.745 9.47516 143.305 9.06829 143.938 8.81679C144.644 8.54057 145.396 8.40461 146.153 8.41635C147.56 8.41635 148.69 8.83184 149.541 9.66282Z" fill="#7780A1"/>
<path d="M165.421 8.54354V18.1124C165.421 22.0834 163.415 24.0686 159.403 24.068C158.372 24.0742 157.345 23.9358 156.351 23.6567C155.39 23.3814 154.595 22.9834 153.969 22.4629L155.139 20.4774C155.627 20.8865 156.243 21.2139 156.988 21.4597C157.72 21.7036 158.485 21.8283 159.255 21.8292C160.481 21.8292 161.38 21.5478 161.952 20.9849C162.524 20.4219 162.809 19.5628 162.809 18.4075V17.8164C162.358 18.312 161.8 18.6952 161.178 18.9358C160.504 19.195 159.788 19.3237 159.068 19.3154C158.068 19.33 157.081 19.0942 156.194 18.629C155.354 18.1881 154.652 17.519 154.167 16.697C153.671 15.866 153.423 14.9152 153.423 13.8446C153.423 12.774 153.671 11.8265 154.167 11.0022C154.653 10.1864 155.355 9.52413 156.194 9.09028C157.084 8.63249 158.07 8.40064 159.068 8.4148C159.821 8.40492 160.57 8.54085 161.273 8.81524C161.921 9.07365 162.493 9.49558 162.934 10.0408V8.54354H165.421ZM161.899 16.1787C162.533 15.5801 162.85 14.8021 162.85 13.8446C162.85 12.9016 162.533 12.1344 161.899 11.5431C161.265 10.9518 160.454 10.6558 159.466 10.6553C158.464 10.6553 157.646 10.9512 157.011 11.5431C156.377 12.135 156.06 12.9022 156.06 13.8446C156.06 14.8038 156.377 15.5818 157.011 16.1787C157.646 16.7756 158.464 17.0749 159.466 17.0766C160.454 17.0766 161.265 16.7773 161.899 16.1787Z" fill="#7780A1"/>
<path opacity="0.35" d="M19.758 26C18.9746 26.0002 18.1989 25.8444 17.4751 25.5414C16.7513 25.2385 16.0937 24.7943 15.5398 24.2344L1.74782 10.2899C0.913854 9.44693 0.34594 8.37288 0.115899 7.20363C-0.114141 6.03438 0.00402338 4.82243 0.45545 3.72106C0.906877 2.61969 1.67129 1.67835 2.65202 1.01609C3.63276 0.353836 4.78576 0.00040371 5.96522 0.000489731H19.7564C20.5398 -5.94369e-05 21.3157 0.155442 22.0397 0.458109C22.7637 0.760775 23.4216 1.20467 23.9758 1.76444C24.53 2.3242 24.9696 2.98886 25.2696 3.72043C25.5695 4.45199 25.7239 5.23613 25.7239 6.02803V19.9683C25.7255 20.7607 25.5724 21.5457 25.2731 22.2781C24.9739 23.0105 24.5346 23.676 23.9803 24.2365C23.426 24.7969 22.7677 25.2411 22.0431 25.5438C21.3186 25.8464 20.542 26.0014 19.758 26Z" fill="#7780A1"/>
<path d="M5.96502 25.9999C4.78548 26.0004 3.63229 25.6473 2.65136 24.9852C1.67042 24.3231 0.905801 23.3818 0.454238 22.2804C0.00267458 21.179 -0.115545 19.967 0.114534 18.7977C0.344613 17.6283 0.912653 16.5543 1.74679 15.7113L15.5387 1.76604C16.6575 0.635262 18.1748 0 19.757 0C21.3391 0 22.8565 0.635262 23.9752 1.76604C25.0939 2.89681 25.7225 4.43047 25.7225 6.02962C25.7225 7.62878 25.0939 9.16243 23.9752 10.2932L10.1816 24.2301C9.62885 24.7914 8.97176 25.2368 8.24812 25.5405C7.52448 25.8442 6.74857 26.0004 5.96502 25.9999Z" fill="#7780A1"/>
</svg>
