<svg width="114" height="26" viewBox="0 0 114 26" fill="none" xmlns="http://www.w3.org/2000/svg">
<path opacity="0.2" d="M0.179657 25.9618H98.7102V23.3541H0.179657V25.9618ZM105.539 25.9618H114V23.3541H105.539V25.9618Z" fill="#7780A1"/>
<path d="M19.3774 19.4041H22.9058V5.9823H19.3774V19.4041ZM19.0359 2.10914C19.0359 1.49558 19.2256 0.99705 19.6429 0.575221C20.0223 0.19174 20.5535 0 21.1605 0C21.8055 0 22.2988 0.19174 22.6782 0.575221C23.0576 0.958702 23.2852 1.45723 23.2852 2.10914C23.2852 2.72271 23.0955 3.22124 22.6782 3.64307C22.2988 4.02655 21.7676 4.21829 21.1605 4.21829C20.5535 4.21829 20.0603 4.02655 19.6429 3.64307C19.2256 3.25959 19.0359 2.72271 19.0359 2.10914ZM31.025 5.94395H34.6293V8.62832H31.025V15.0708C31.025 15.646 31.1767 16.1062 31.5182 16.4513C31.8597 16.7965 32.277 16.9882 32.8461 16.9882C33.3393 16.9882 33.9084 16.9115 34.5155 16.7581L34.9708 19.4041C33.9464 19.6726 32.9599 19.826 32.0114 19.826C31.3664 19.826 30.7594 19.7109 30.2282 19.5192C29.6971 19.3274 29.2418 19.0206 28.8245 18.6372C28.4451 18.2537 28.1415 17.7935 27.9139 17.2566C27.6862 16.7198 27.6104 16.1445 27.6104 15.4926V8.70501H25.1822V6.02065H27.6104V2.07079H30.987V5.94395H31.025ZM36.716 9.66372C36.716 9.08849 36.8298 8.51327 37.0954 8.01475C37.361 7.51622 37.7024 7.0944 38.1198 6.71091C38.5751 6.36578 39.1062 6.059 39.7133 5.86726C40.3203 5.67552 41.0412 5.56047 41.762 5.56047C42.5208 5.56047 43.3176 5.63716 44.1143 5.79056C44.9111 5.94395 45.7458 6.17404 46.5804 6.48082L45.8216 9.0118C45.1766 8.74336 44.5317 8.55162 43.8867 8.39823C43.2417 8.24483 42.6347 8.16814 42.0656 8.16814C41.4585 8.16814 40.9653 8.28319 40.5859 8.55162C40.2065 8.82006 40.0547 9.16519 40.0547 9.62537C40.0547 10.0472 40.2444 10.354 40.5859 10.5457C40.9274 10.7375 41.3447 10.9292 41.8759 11.0826C42.407 11.236 42.9382 11.3894 43.5452 11.5044C44.1523 11.6578 44.7214 11.8879 45.2146 12.1947C45.7457 12.5015 46.1631 12.9233 46.5046 13.4218C46.846 13.9587 47.0357 14.649 47.0357 15.4926C47.0357 16.1062 46.9219 16.6431 46.6563 17.1799C46.3907 17.6785 46.0493 18.1386 45.594 18.5221C45.1387 18.9056 44.6075 19.174 43.9246 19.4041C43.2796 19.5959 42.5588 19.7109 41.8 19.7109C40.1685 19.7109 38.4233 19.3658 36.6022 18.6372L37.323 16.1445C38.8786 16.7965 40.2824 17.1032 41.5344 17.1032C42.1794 17.1032 42.7105 16.9499 43.0899 16.6814C43.4693 16.413 43.659 16.0295 43.659 15.531C43.659 15.1091 43.4693 14.8024 43.1279 14.5723C42.7864 14.3422 42.3691 14.1504 41.8379 13.9971C41.3068 13.8437 40.7756 13.6903 40.1686 13.5369C39.5615 13.3835 39.0303 13.1534 38.4992 12.8466C37.968 12.5398 37.5507 12.1563 37.2092 11.6578C36.8678 11.1976 36.716 10.5074 36.716 9.66372ZM54.1305 5.94395H57.7348V8.62832H54.1305V15.0708C54.1305 15.646 54.2823 16.1062 54.6237 16.4513C54.9652 16.7965 55.3825 16.9882 55.9516 16.9882C56.4449 16.9882 57.014 16.9115 57.621 16.7581L58.0763 19.4041C57.0519 19.6726 56.0655 19.826 55.117 19.826C54.472 19.826 53.8649 19.7109 53.3338 19.5192C52.8026 19.3274 52.3473 19.0206 51.93 18.6372C51.5126 18.2537 51.2471 17.7935 51.0194 17.2566C50.7918 16.7198 50.7159 16.1445 50.7159 15.4926V8.70501H48.2877V6.02065H50.7159V2.07079H54.0926V5.94395H54.1305ZM63.312 15.3009C63.312 15.8378 63.5397 16.2979 63.957 16.6814C64.4123 17.0649 64.9435 17.2566 65.5884 17.2566C66.499 17.2566 67.2199 16.9499 67.789 16.3746C68.3581 15.7994 68.6236 15.0324 68.6236 14.1121V13.3068C67.9787 13.115 67.2578 13.0383 66.4611 13.0383C65.4746 13.0383 64.7158 13.2301 64.1467 13.6519C63.6156 14.0354 63.312 14.6106 63.312 15.3009ZM60.0112 15.4926C60.0112 14.0737 60.5424 12.9617 61.6047 12.1947C62.667 11.4277 64.1467 11.0442 66.0817 11.0442C66.499 11.0442 66.9163 11.0826 67.3337 11.1209C67.751 11.1593 68.2063 11.236 68.6236 11.3127V10.5841C68.6236 9.8938 68.396 9.31858 67.9028 8.89675C67.4096 8.47493 66.7646 8.24484 65.9299 8.24484C64.602 8.24484 63.1603 8.55162 61.6047 9.20354L60.7321 6.74926C62.6291 5.9823 64.4882 5.63717 66.3093 5.63717C67.144 5.63717 67.8648 5.75221 68.5478 6.02065C69.2307 6.25074 69.7998 6.59587 70.293 7.05604C70.7862 7.47787 71.1656 8.01475 71.4312 8.62832C71.6968 9.24189 71.8486 9.93215 71.8486 10.6608V16.1445C71.8486 16.4513 71.9244 16.6814 72.0762 16.8348C72.228 17.0265 72.4556 17.1032 72.7591 17.1032C72.9109 17.1032 73.0247 17.1032 73.1765 17.0649C73.2903 17.0649 73.4041 17.0265 73.442 17.0265L73.6697 19.5959C73.3662 19.6342 73.1006 19.7109 72.7971 19.7493C72.4935 19.7876 72.19 19.7876 71.8486 19.7876C71.1656 19.7876 70.5965 19.6342 70.1033 19.2891C69.6101 18.9823 69.2686 18.5221 69.041 17.9469C68.4719 18.5221 67.789 18.9823 67.0681 19.2891C66.3093 19.5959 65.5505 19.7493 64.7158 19.7493C64.0329 19.7493 63.3879 19.6342 62.8188 19.4425C62.2497 19.2507 61.7565 18.944 61.3391 18.5605C60.9218 18.177 60.6183 17.7552 60.3906 17.2183C60.1251 16.6814 60.0112 16.1062 60.0112 15.4926ZM75.6426 5.9056H78.3743L78.7916 7.74631C79.3228 7.05605 79.9298 6.51917 80.6886 6.13569C81.4474 5.75221 82.2442 5.56047 83.1168 5.56047C84.1032 5.56047 84.9379 5.79056 85.6967 6.21239C86.4176 6.63422 86.9867 7.24779 87.3661 8.01475C87.9731 7.20944 88.694 6.59587 89.4907 6.17404C90.2875 5.75221 91.1601 5.56047 92.1465 5.56047C92.8674 5.56047 93.5124 5.67551 94.1194 5.9056C94.7265 6.13569 95.2576 6.48082 95.675 6.941C96.1302 7.36283 96.4717 7.8997 96.6993 8.51327C96.927 9.12684 97.0787 9.77876 97.0787 10.5074V19.4041H93.6262V11.0826C93.6262 10.3156 93.3985 9.70206 92.9053 9.20354C92.4121 8.74336 91.8051 8.47492 91.0463 8.47492C90.1736 8.47492 89.4528 8.78171 88.8837 9.39528C88.3146 10.0088 88.049 10.7758 88.049 11.7729V19.4041H84.5964V11.0826C84.5964 10.3156 84.3688 9.70206 83.9135 9.20354C83.4582 8.74336 82.8512 8.47492 82.0924 8.47492C81.1818 8.47492 80.461 8.78171 79.8919 9.39528C79.3228 10.0088 79.0572 10.7758 79.0572 11.7729V19.4041H75.6046V5.9056H75.6426ZM110.206 12.6165C110.206 12.0029 110.13 11.4277 109.94 10.8909C109.789 10.354 109.523 9.8938 109.22 9.54867C108.916 9.16519 108.575 8.89675 108.157 8.66666C107.74 8.43657 107.285 8.35988 106.791 8.35988C105.881 8.35988 105.16 8.66667 104.553 9.31859C103.984 9.93215 103.68 10.7375 103.68 11.7345V13.5369C103.68 14.0354 103.756 14.4956 103.908 14.8791C104.06 15.3009 104.287 15.646 104.553 15.9528C104.819 16.2596 105.16 16.4897 105.539 16.6431C105.919 16.7965 106.336 16.8732 106.791 16.8732C107.285 16.8732 107.74 16.7581 108.157 16.5664C108.575 16.3746 108.916 16.0678 109.22 15.6844C109.523 15.3009 109.751 14.8407 109.94 14.3422C110.13 13.8437 110.206 13.2301 110.206 12.6165ZM100.342 5.9056H103.073L103.491 7.63127C103.984 6.97935 104.553 6.48082 105.274 6.09734C105.995 5.75221 106.791 5.56047 107.664 5.56047C108.537 5.56047 109.333 5.75221 110.092 6.09734C110.813 6.44248 111.458 6.941 111.989 7.55457C112.52 8.16814 112.938 8.89676 113.241 9.77876C113.545 10.6224 113.697 11.5811 113.697 12.6165C113.697 13.6519 113.545 14.6106 113.241 15.4543C112.938 16.2979 112.52 17.0649 111.989 17.6785C111.458 18.292 110.813 18.7906 110.092 19.1357C109.371 19.4808 108.537 19.6726 107.664 19.6726C106.867 19.6726 106.108 19.5192 105.464 19.2124C104.781 18.9056 104.211 18.4454 103.756 17.8319V26H100.342V5.9056ZM11.7893 15.9528C11.2582 16.4897 10.5373 16.7198 9.62675 16.7198H5.37745V11.1593H9.62675C10.4994 11.1593 11.2202 11.4277 11.7893 11.9262C12.3205 12.4248 12.5861 13.115 12.5861 13.9204C12.624 14.764 12.3584 15.4543 11.7893 15.9528ZM5.37745 3.64307H9.28529C10.082 3.64307 10.727 3.87315 11.2582 4.37168C11.7893 4.83186 12.017 5.48378 12.017 6.25074C12.017 7.0177 11.7514 7.63126 11.2582 8.09144C10.727 8.55162 10.082 8.78171 9.28529 8.78171H5.37745V3.64307ZM15.2798 11.5044C14.7107 10.6991 13.9519 10.1239 13.0034 9.77876C13.7622 9.43363 14.3313 8.9351 14.7866 8.24484C15.2419 7.55457 15.4695 6.74926 15.4695 5.82891C15.4695 5.10029 15.3178 4.44837 15.0522 3.87315C14.7866 3.25958 14.3693 2.76106 13.876 2.33923C13.3828 1.9174 12.7758 1.57227 12.0929 1.34218C11.4099 1.11209 10.6511 0.997047 9.81645 0.997047H0.179657V3.45133C1.65932 3.45133 2.83547 4.67846 2.83547 6.17404C2.83547 7.66961 1.65932 8.89675 0.179657 8.89675V11.1209C1.65932 11.1209 2.83547 12.3481 2.83547 13.8437V14.2655C2.83547 15.7611 1.65932 16.9882 0.179657 16.9882V19.4425H10.2338C11.1064 19.4425 11.8652 19.3274 12.5861 19.059C13.3069 18.8289 13.914 18.4838 14.4451 18.0236C14.9763 17.5634 15.3936 17.0266 15.6592 16.413C15.9627 15.7994 16.1145 15.1091 16.1145 14.3422C16.1145 13.2301 15.8489 12.3097 15.2798 11.5044Z" fill="#7780A1"/>
</svg>
