<svg width="119" height="26" viewBox="0 0 119 26" fill="none" xmlns="http://www.w3.org/2000/svg">
<path opacity="0.2" d="M0 24.4096C0 24.4096 23.8802 16.6423 53.0652 16.4753C53.0652 16.4753 103.457 15.2539 118.419 26C118.419 26 115.376 13.3171 66.136 12.654C66.136 12.654 29.9643 11.1584 0 24.4096Z" fill="#7780A1"/>
<path d="M32.1641 4.54526C26.7582 3.96945 24.7039 7.97773 24.7039 11.2606C24.7039 14.5435 26.9506 16.6299 30.1912 16.5577C33.9299 16.4754 36.1816 13.7234 36.48 10.463C36.7463 7.54151 35.4861 4.89923 32.1641 4.54526ZM33.3652 11.4202C32.6672 13.4617 30.8694 14.7081 29.3477 14.1671C27.8261 13.6262 27.1627 11.5523 27.868 9.50577C28.5734 7.45925 30.3638 6.22785 31.883 6.76378C33.4022 7.29971 34.0631 9.37365 33.3652 11.4202Z" fill="#7780A1"/>
<path d="M39.6639 16.2161H36.7981L39.2643 4.71716H42.1301L39.6639 16.2161Z" fill="#7780A1"/>
<path d="M42.532 3.00966H39.6638L40.1571 0.417236H43.0253L42.532 3.00966Z" fill="#7780A1"/>
<path d="M21.0589 10.4878C20.2228 12.3424 18.8344 13.7882 16.8935 13.8355C14.4939 13.8979 13.4827 12.0906 13.4827 9.34865C13.4827 6.60666 15.2904 2.34412 19.298 2.8277C20.7309 2.9997 21.4559 4.02171 21.7494 5.24813H24.8395C24.4154 2.74295 22.98 0.419739 20.1192 0.0757446C13.5172 -0.719432 10.1311 4.90663 10.1311 9.42841C10.1311 13.9502 12.8785 16.8417 16.8343 16.742C20.4177 16.6523 22.8247 14.4986 24.075 11.2581L21.0589 10.4878Z" fill="#7780A1"/>
<path d="M53.9653 6.80865C53.8952 6.29664 53.6552 5.82384 53.2847 5.46757C50.8727 3.12941 47.8368 5.5623 46.9959 6.32507L47.3091 4.86184H44.4433L41.9771 16.3607H44.8429L46.1524 10.2561C46.3569 9.27763 46.8345 8.37887 47.5286 7.66615C47.723 7.46963 47.928 7.28406 48.1426 7.11027C48.622 6.71713 49.2346 6.52924 49.8492 6.5868C51.4202 6.77126 51.0552 8.5037 51.0552 8.5037L49.3289 16.2162H52.2415L53.4746 10.7945C54.0418 8.80033 54.064 7.54401 53.9653 6.80865Z" fill="#7780A1"/>
<path d="M66.5306 14.3266C66.601 14.838 66.84 15.3105 67.2088 15.6677C69.6207 18.0034 72.6591 15.573 73.4976 14.8102L73.1844 16.2709H76.0526L78.5188 4.77454H75.6506L74.3411 10.8792C74.1352 11.855 73.6577 12.751 72.9649 13.4616C72.7716 13.6602 72.5665 13.8466 72.3508 14.02C71.872 14.414 71.2588 14.6012 70.6442 14.541C69.0733 14.359 69.4383 12.6266 69.4383 12.6266L71.1646 4.91413H68.252L67.0189 10.3358C66.4542 12.3324 66.432 13.5913 66.5306 14.3266Z" fill="#7780A1"/>
<path d="M90.6944 7.7807C90.3245 4.66481 87.2837 4.54017 87.2837 4.54017C85.8835 4.51659 84.517 4.97549 83.4093 5.84137L83.6238 4.78446H80.7581L77.52 20.7653H80.398L81.6163 14.7404C81.846 14.9977 82.0932 15.2384 82.3562 15.4608C83.0941 16.0902 84.018 16.454 84.9827 16.4952C87.4119 16.59 88.5858 15.2289 88.5858 15.2289C91.5995 12.5692 90.6944 7.7807 90.6944 7.7807ZM87.4612 12.1081C87.429 12.194 87.3903 12.2774 87.3453 12.3573L87.3182 12.4072C87.3059 12.4271 87.296 12.4471 87.2812 12.4695L87.2664 12.4944L87.2343 12.5493L87.2195 12.5717L87.1801 12.634L87.1604 12.6664L87.1209 12.7262L87.0888 12.7711L87.0568 12.8235L87.0148 12.8783L86.9852 12.9232L86.9483 12.973L86.9063 13.0279L86.8743 13.0678C86.857 13.0902 86.8422 13.1126 86.8225 13.1351L86.7929 13.1724L86.7337 13.2422L86.7041 13.2771L86.64 13.3494L86.5981 13.3943L86.5413 13.4541L86.4945 13.5015L86.4378 13.5588L86.3909 13.6037L86.3268 13.661L86.2848 13.6984L86.2133 13.7582L86.1665 13.7931L86.095 13.8505L86.0407 13.8879L85.9692 13.9377L85.9075 13.9751L85.8409 14.0175C85.8203 14.0298 85.7989 14.0406 85.7768 14.0499C85.7552 14.0648 85.732 14.0773 85.7078 14.0873L85.6412 14.1197L85.5697 14.1521L85.5031 14.177L85.4291 14.2044L85.365 14.2219L85.2836 14.2468L85.2047 14.2618L85.1331 14.2767H85.0444H84.9778H84.8199H84.7311H84.6596L84.5758 14.2618H84.4944L84.4155 14.2418L84.3242 14.2169L84.2502 14.1895L84.1516 14.1546L84.0727 14.1172L83.9765 14.0723L83.9099 14.0349C83.8729 14.0125 83.8359 13.995 83.7989 13.9701C83.7619 13.9452 83.6781 13.8928 83.6164 13.848C83.1669 13.5122 82.8358 13.0395 82.6719 12.4994C82.6546 12.4471 82.6398 12.3947 82.625 12.3399C82.4744 11.8046 82.4119 11.248 82.44 10.6922L82.7064 9.37106C82.9981 8.58857 83.4658 7.88538 84.0727 7.31706C84.2549 7.10477 84.4804 6.93472 84.7336 6.81851C85.0932 6.62627 85.5007 6.54527 85.9055 6.58561C86.3103 6.62594 86.6944 6.78584 87.0099 7.04535L87.1604 7.18245L87.1899 7.21486C87.2294 7.25474 87.2689 7.29462 87.3059 7.33949L87.3872 7.44169C87.4045 7.46662 87.4267 7.48905 87.444 7.51398C87.4612 7.53891 87.476 7.56134 87.4908 7.58378C87.5056 7.60621 87.5475 7.66604 87.5747 7.71091C87.576 7.71495 87.576 7.71932 87.5747 7.72337C87.6151 7.78954 87.6521 7.85777 87.6856 7.92777C87.7071 7.97067 87.726 8.01478 87.7424 8.05989C87.7572 8.09728 87.7744 8.12968 87.7892 8.16957C87.804 8.20945 87.8238 8.27426 87.841 8.32661C87.8583 8.37895 87.8657 8.3964 87.8755 8.43379C87.8854 8.47119 87.9002 8.53849 87.9125 8.59083C87.9249 8.64318 87.9347 8.67808 87.9421 8.72544C87.9495 8.7728 87.9569 8.83014 87.9643 8.88248C87.9717 8.93483 87.9816 8.98718 87.9865 9.04202C87.9915 9.09686 87.9865 9.15668 87.9865 9.21152C87.9865 9.26636 87.9865 9.32619 87.9865 9.38601C87.9865 9.44584 87.9865 9.50068 87.9865 9.5605C87.9865 9.62033 87.9865 9.69012 87.9865 9.75743C87.9865 9.82473 87.9865 9.87458 87.9717 9.93192C87.9569 9.98925 87.9717 10.0815 87.9495 10.1588C87.9273 10.236 87.9298 10.2859 87.9199 10.3482C87.9101 10.4105 87.8977 10.5077 87.8829 10.5975C87.8681 10.6872 87.8533 10.7246 87.841 10.7869C87.8287 10.8492 87.804 10.9689 87.7794 11.0636C87.7547 11.1583 87.7374 11.2057 87.7177 11.2755C87.698 11.3453 87.6684 11.4624 87.6388 11.5622C87.6092 11.6619 87.587 11.7117 87.5623 11.7865C87.5377 11.8613 87.4982 12.0034 87.4612 12.1081Z" fill="#7780A1"/>
<path d="M102.286 11.5522V9.03958C102.285 7.82911 101.819 6.66632 100.984 5.79792C100.15 4.92951 99.0139 4.42384 97.8168 4.38818H97.7354C96.1965 4.3425 94.6967 4.88253 93.533 5.90136C92.3692 6.92019 91.6264 8.34353 91.4515 9.8896L91.4047 12.1879V12.335C91.8831 16.8069 96.6749 16.7022 96.6749 16.7022C100.142 16.8268 101.701 13.2598 101.701 13.2598L99.0326 12.8709C98.95 13.0366 98.8552 13.1957 98.749 13.347C98.5406 13.6434 98.2727 13.8921 97.9628 14.0768C97.6529 14.2614 97.3079 14.3779 96.9504 14.4186C96.5928 14.4593 96.2308 14.4233 95.888 14.313C95.5452 14.2026 95.2293 14.0204 94.9609 13.7782L94.9363 13.7558C94.6697 13.5044 94.4578 13.1998 94.3138 12.8612C94.1699 12.5226 94.0972 12.1575 94.1002 11.789V11.5572L102.286 11.5522ZM97.3112 6.59921C99.8711 6.65904 99.6714 9.67273 99.6714 9.67273H94.4134C94.9486 6.44716 97.3112 6.59921 97.3112 6.59921Z" fill="#7780A1"/>
<path d="M107.166 6.32511L107.497 4.79458H104.628L102.162 16.291H105.03L106.495 9.45097C109.563 5.60222 110.713 7.22997 110.713 7.22997L111.904 4.79458C110.01 3.84486 108.202 5.23579 107.166 6.32511Z" fill="#7780A1"/>
<path d="M63.0631 7.86541L65.8672 7.4591C65.8672 7.4591 64.9942 3.47076 59.4354 4.62488C59.4354 4.62488 56.3575 5.03868 55.9038 7.90779C55.8356 8.3146 55.865 8.732 55.9895 9.12496C56.1139 9.51792 56.3298 9.87499 56.619 10.1662C57.2947 10.8317 58.5549 11.5796 60.92 12.0233C60.92 12.0233 62.4762 12.2426 61.8596 13.4416C61.8596 13.4416 61.4034 14.688 59.4354 14.501C58.8847 14.4892 58.3522 14.3 57.9153 13.9611C57.4784 13.6221 57.1599 13.1511 57.0062 12.6165L54.1922 13.0129C54.5912 14.1062 55.3027 15.0551 56.2362 15.739C57.1697 16.4229 58.2832 16.8111 59.4354 16.8541C59.4354 16.8541 63.3961 17.1034 64.7796 13.5663C64.8706 13.327 64.9231 13.0745 64.935 12.8184C64.9843 11.9236 64.8166 10.0116 62.5699 9.61032L59.5784 8.84505C59.5784 8.84505 58.328 8.22686 58.8213 7.22977C58.9785 6.93173 59.2436 6.70665 59.5611 6.60161C60.3158 6.33239 61.9016 6.06817 63.0631 7.86541Z" fill="#7780A1"/>
</svg>
