<svg width="132" height="26" viewBox="0 0 132 26" fill="none" xmlns="http://www.w3.org/2000/svg">
<path d="M0 4.52607H4.40542V0H0V4.52607Z" fill="#7780A1"/>
<path d="M13.0306 0H7.52024V7.72715H12.8131C14.1988 7.72715 15.5277 8.28353 16.5076 9.2739C17.4874 10.2643 18.0378 11.6075 18.0378 13.0081C18.0378 14.4086 17.4874 15.7519 16.5076 16.7422C15.5277 17.7326 14.1988 18.289 12.8131 18.289H7.52459V7.72715H0V26H13.0306C16.3495 25.8732 19.489 24.4449 21.7835 22.0179C24.078 19.5909 25.3471 16.3561 25.3217 12.9993C25.3467 9.6427 24.0774 6.40825 21.783 3.98157C19.4885 1.5549 16.3492 0.126794 13.0306 0Z" fill="#7780A1"/>
<path d="M34.2355 7.09258V16.3558H37.4127C38.1217 16.4065 38.8289 16.2346 39.4375 15.8636C40.0462 15.4927 40.5267 14.9407 40.8132 14.2833C41.1853 13.4325 41.3661 12.5089 41.3425 11.5791C41.4079 10.4152 41.1276 9.25808 40.5377 8.25634C40.0069 7.44434 38.931 7.09404 37.3953 7.09404L34.2355 7.09258ZM40.5464 4.93214C41.6467 5.22619 42.6293 5.85877 43.3581 6.74228C43.9103 7.41074 44.3111 8.19312 44.5327 9.03463C44.7344 9.79988 44.8397 10.5878 44.8459 11.3797C44.8991 13.0769 44.436 14.7497 43.5191 16.1726C42.33 17.9382 40.4932 18.8211 38.0087 18.8211H30.8872V4.62288H37.9927C38.8533 4.61959 39.7109 4.72346 40.5464 4.93214Z" fill="#7780A1"/>
<path d="M47.2024 18.8165H50.4173V8.31921H47.2024V18.8165ZM47.2024 7.06898H50.4173V4.54358H47.2024V7.06898Z" fill="#7780A1"/>
<path d="M60.6144 15.8295C60.9015 15.5221 61.1214 15.157 61.2598 14.758C61.3982 14.359 61.452 13.9351 61.4177 13.5137C61.476 12.6907 61.2131 11.8773 60.6854 11.2477C60.4364 10.9788 60.1331 10.7669 59.7962 10.6266C59.4592 10.4863 59.0963 10.4207 58.7321 10.4343C58.2572 10.3928 57.7813 10.501 57.3697 10.7441C56.9582 10.9871 56.6312 11.353 56.4337 11.7915C56.1926 12.3522 56.0772 12.9598 56.0958 13.5709C56.0852 14.1343 56.2095 14.692 56.4584 15.1963C56.6638 15.6288 56.9945 15.9878 57.4066 16.2258C57.8186 16.4637 58.2926 16.5694 58.7655 16.5286C59.112 16.5382 59.457 16.4784 59.7805 16.3526C60.104 16.2268 60.3997 16.0376 60.6506 15.7958M59.5645 8.27238C60.3345 8.56657 60.9853 9.11236 61.4134 9.82308V8.31928H64.5166V18.286C64.592 19.3661 64.3093 20.4408 63.7132 21.3405C62.804 22.5263 61.0595 23.1111 58.4929 23.1111C57.1761 23.1581 55.8679 22.8793 54.682 22.2991C54.233 22.0808 53.8484 21.7477 53.5663 21.3327C53.2842 20.9177 53.1144 20.4353 53.0738 19.9335H56.5396C56.5992 20.2088 56.7533 20.4538 56.9746 20.6253C57.5054 20.9209 58.1109 21.0509 58.7147 20.999C59.1512 21.0614 59.5962 21.002 60.0016 20.827C60.4069 20.6521 60.7573 20.3685 61.0146 20.0067C61.3041 19.3387 61.4247 18.6084 61.3655 17.8815V17.2322C61.1088 17.6332 60.7755 17.9785 60.3852 18.2479C59.6405 18.6927 58.7843 18.9101 57.9201 18.8738C57.2316 18.9069 56.5436 18.7979 55.8981 18.5535C55.2527 18.309 54.6632 17.9343 54.1657 17.452C53.6876 16.9404 53.3172 16.3359 53.077 15.6754C52.8367 15.0148 52.7315 14.3118 52.7678 13.609C52.7216 12.1742 53.2014 10.7727 54.115 9.67358C54.59 9.12809 55.181 8.69845 55.8438 8.41693C56.5066 8.13541 57.2239 8.00932 57.9418 8.04813C58.4866 8.0369 59.0294 8.11663 59.5485 8.2841" fill="#7780A1"/>
<path d="M67.5227 18.8165H70.739V8.31921H67.5227V18.8165ZM67.5227 7.06898H70.739V4.54358H67.5227V7.06898Z" fill="#7780A1"/>
<path d="M74.0989 4.64795H85.8346V7.14257H77.5154V10.3993H84.8065V12.8705H77.5154V18.8168H74.0989V4.64795Z" fill="#7780A1"/>
<path d="M87.8604 18.8165H91.0752V8.31921H87.8604V18.8165ZM87.8604 7.06898H91.0752V4.54358H87.8604V7.06898Z" fill="#7780A1"/>
<path d="M103.986 8.94051C104.401 9.27515 104.727 9.70851 104.936 10.2019C105.145 10.6952 105.23 11.2332 105.183 11.7678V18.834H101.919V12.4303C101.944 11.9929 101.855 11.5565 101.662 11.164C101.469 10.8778 101.202 10.6507 100.89 10.5072C100.578 10.3638 100.234 10.3096 99.8933 10.3505C99.4502 10.3063 99.004 10.3953 98.6109 10.6066C98.2177 10.8178 97.895 11.1417 97.6834 11.5377C97.4572 12.0474 97.3524 12.6037 97.3774 13.1617V18.8501H94.1625V8.34397H97.2657V9.87123C97.5865 9.42188 97.9785 9.02916 98.4258 8.70893C99.1762 8.26031 100.039 8.04043 100.91 8.07575C101.989 8.0227 103.058 8.30616 103.972 8.88775" fill="#7780A1"/>
<path d="M111.309 10.9034C110.849 11.3295 110.55 11.9043 110.465 12.5288H115.947C115.933 12.2119 115.849 11.9021 115.703 11.6213C115.557 11.3405 115.352 11.0954 115.102 10.9034C114.55 10.5142 113.889 10.3148 113.217 10.3347C112.53 10.2922 111.852 10.506 111.311 10.9356M116.078 8.57146C116.898 8.87741 117.621 9.40274 118.169 10.0914C118.671 10.7178 119.003 11.4653 119.133 12.2606C119.232 12.9491 119.267 13.6454 119.238 14.3404H110.392C110.379 14.7944 110.492 15.243 110.717 15.6356C110.943 16.0282 111.273 16.3492 111.67 16.5624C112.213 16.837 112.816 16.9709 113.423 16.9523C114.047 16.9789 114.664 16.8116 115.191 16.473C115.457 16.2829 115.679 16.0363 115.842 15.7504H119.099C118.933 16.501 118.516 17.1703 117.917 17.6441C116.643 18.7303 115.005 19.2798 113.342 19.1787C111.812 19.2076 110.311 18.7543 109.048 17.8816C107.809 17.0207 107.19 15.6205 107.19 13.6809C107.141 12.9015 107.265 12.1209 107.555 11.3968C107.844 10.6727 108.291 10.0237 108.862 9.49778C110.09 8.49114 111.64 7.97345 113.22 8.04234C114.196 8.02772 115.166 8.19619 116.081 8.53921" fill="#7780A1"/>
<path d="M119.652 18.8166L123.808 13.5035L119.829 8.34424H123.729L125.762 11.3826L127.747 8.34424H131.533L127.538 13.4551L131.694 18.8166H127.724L125.633 15.6654L123.518 18.8166H119.652Z" fill="#7780A1"/>
</svg>
