<svg width="126" height="26" viewBox="0 0 126 26" fill="none" xmlns="http://www.w3.org/2000/svg">
<path d="M122.326 3.86515H122.537V2.36495H123.05V2.23682H121.819V2.36495H122.331L122.326 3.86515ZM123.472 2.45037L124.027 3.87049H124.154L124.708 2.45037H124.751V3.87049H124.877V2.23682H124.666L124.111 3.57152L123.557 2.23682H123.303V3.87049H123.472V2.45037Z" fill="#7780A1"/>
<path d="M51.8271 5.029C47.4061 5.029 43.8354 8.68074 43.8354 13.1066C43.8354 17.5325 47.4483 21.1842 51.8271 21.1842C56.2482 21.1842 59.8188 17.5325 59.8188 13.1066C59.8188 8.68074 56.2535 5.029 51.8271 5.029ZM51.8271 17.4898C49.4449 17.4898 47.4906 15.5144 47.4906 13.1066C47.4906 10.6988 49.4449 8.72345 51.8271 8.72345C54.2093 8.72345 56.1637 10.6988 56.1637 13.1066C56.1637 15.5144 54.2093 17.4898 51.8271 17.4898ZM117.646 4.85815C113.225 4.85815 109.655 8.5099 109.655 12.9358C109.655 17.3616 113.268 21.0134 117.646 21.0134C122.025 21.0134 125.638 17.3616 125.638 12.9358C125.638 8.5099 122.067 4.85815 117.646 4.85815ZM117.646 17.3616C115.264 17.3616 113.31 15.3863 113.31 12.9785C113.31 10.5707 115.264 8.59532 117.646 8.59532C120.028 8.59532 121.983 10.5707 121.983 12.9785C121.983 15.3863 120.028 17.3616 117.646 17.3616ZM85.6743 5.029C81.2532 5.029 77.6826 8.68074 77.6826 13.1066C77.6826 17.5325 81.2955 21.1842 85.6743 21.1842C90.0531 21.1842 93.666 17.5325 93.666 13.1066C93.666 8.68074 90.0953 5.029 85.6743 5.029ZM85.6743 17.4898C83.2921 17.4898 81.3377 15.5144 81.3377 13.1066C81.3377 10.6988 83.2921 8.72345 85.6743 8.72345C88.0565 8.72345 90.0108 10.6988 90.0108 13.1066C90.0108 15.5144 88.0565 17.4898 85.6743 17.4898Z" fill="#7780A1"/>
<path d="M46.3866 5.02916H40.7771L35.5902 10.2719V5.02916H31.634V20.9281H35.5902V15.8563L40.6081 20.9281H46.2652L38.4795 13.0641L46.3866 5.02916ZM101.663 5.07187L94.6484 5.02916V21.1897H101.663V21.1417C105.746 20.7573 108.931 17.2764 108.931 13.0641C108.931 8.93717 105.741 5.41355 101.663 5.07187ZM100.897 17.4899H98.5993V8.72361H101.066C103.406 8.80903 105.276 10.699 105.276 13.1068C105.276 15.5146 103.316 17.4899 100.897 17.4899ZM68.7507 9.11335L64.842 5.28542H60.8858V21.1844H64.9688V11.1314L68.6239 14.655L68.7507 14.7832L72.5749 11.046V21.1897H76.6156V5.28542H72.6594L68.7507 9.11335ZM21.9837 3.77988L12.8828 0L3.78192 3.77988V3.82259L0 12.9786L3.73967 22.1774L12.8406 26L21.9415 22.2201L25.7234 13.0214L21.9837 3.77988ZM18.6244 18.8246L12.8828 21.2324L7.14128 18.8246L4.76438 13.0214L7.14128 7.26078V7.21807L12.8828 4.81027L18.6244 7.21807L21.0066 13.0214L18.6244 18.8246Z" fill="#7780A1"/>
<path opacity="0.2" d="M12.8828 8.20593L9.52342 9.58335L8.11841 12.9788L9.48117 16.3743L12.8828 17.7944L16.2421 16.3743L17.6472 12.9788L16.2421 9.58335L12.8828 8.20593Z" fill="#7780A1"/>
</svg>
